<svg viewBox="0 0 500 500" xmlns="http://www.w3.org/2000/svg"><path d="M 279.809 428.998 C 279.784 436.995 276.519 444.345 271.283 449.582 C 266.047 454.817 258.698 458.107 250.7 458.107 C 242.703 458.107 235.353 454.817 230.117 449.582 C 224.88 444.345 221.616 436.995 221.591 428.998 L 221.591 157.66 L 128.6 250.651 C 122.928 256.287 115.422 259.176 108.017 259.176 C 100.612 259.176 93.09 256.305 87.433 250.651 C 81.779 244.995 78.908 237.472 78.908 230.067 C 78.908 222.662 81.797 215.157 87.433 209.484 L 228.341 68.577 C 233.665 62.232 241.752 58.107 250.7 58.107 C 260.042 58.107 268.433 62.599 273.745 69.43 L 413.799 209.484 C 419.435 215.157 422.324 222.662 422.324 230.067 C 422.324 237.472 419.454 244.995 413.799 250.651 C 408.143 256.305 400.62 259.176 393.215 259.176 C 385.81 259.176 378.304 256.287 372.631 250.651 L 279.809 157.828 L 279.809 428.998 Z" fill="currentColor"/></svg>