<svg viewBox="0 0 500 500" xmlns="http://www.w3.org/2000/svg"><path d="M 228.956 21.903 C 242.31 15.005 258.288 15.005 271.642 21.903 L 440.624 119.464 C 453.275 127.58 461.264 141.418 461.967 156.432 L 461.967 351.554 C 461.264 366.568 453.274 380.406 440.624 388.522 L 271.642 486.083 C 258.288 492.981 242.31 492.981 228.956 486.083 L 59.974 388.522 C 47.324 380.407 39.334 366.568 38.631 351.554 L 38.631 156.432 C 39.334 141.418 47.324 127.579 59.974 119.464 L 228.956 21.903 Z M 70.474 137.65 C 61.667 141.923 58.928 146.668 59.631 156.432 L 59.631 351.554 C 58.928 361.318 61.667 366.063 70.474 370.336 L 239.456 467.897 C 247.559 473.388 253.038 473.388 261.142 467.897 L 430.124 370.336 C 438.931 366.063 441.67 361.318 440.967 351.554 L 440.967 156.432 C 441.67 146.668 438.931 141.923 430.124 137.65 L 261.142 40.089 C 253.038 34.598 247.56 34.598 239.456 40.089 L 70.474 137.65 Z M 413.97 352.202 L 85.567 352.202 L 249.85 54.074 L 413.97 352.202 Z M 121.238 331.202 L 378.557 331.202 L 249.961 97.604 L 121.238 331.202 Z M 250.426 75.839 L 250.425 26.35 M 239.926 75.839 L 239.925 26.35 L 260.925 26.35 L 260.926 75.839 L 239.926 75.839 Z M 53.341 368.623 L 103.783 341.702 M 48.397 359.36 L 98.839 332.439 L 108.727 350.965 L 58.285 377.886 L 48.397 359.36 Z M 446.059 368.623 L 396.263 341.702 M 441.065 377.86 L 391.269 350.939 L 401.257 332.465 L 451.053 359.386 L 441.065 377.86 Z M 103.783 341.702 L 53.342 138.713 M 63.532 136.181 L 113.973 339.17 L 93.593 344.234 L 43.152 141.245 L 63.532 136.181 Z M 396.263 341.702 L 446.059 138.713 M 386.065 339.2 L 435.861 136.211 L 456.257 141.215 L 406.461 344.204 L 386.065 339.2 Z M 53.342 138.713 L 250.426 75.838 M 50.151 128.709 L 247.235 65.835 L 253.617 85.841 L 56.533 148.715 L 50.151 128.709 Z M 446.059 138.711 L 250.425 75.839 M 442.846 148.707 L 247.212 85.835 L 253.638 65.843 L 449.272 128.715 L 442.846 148.707 Z M 103.783 341.702 L 249.989 481.636 M 111.043 334.116 L 257.249 474.05 L 242.729 489.222 L 96.523 349.288 L 111.043 334.116 Z M 396.263 341.702 L 249.989 481.476 M 403.517 349.293 L 257.243 489.067 L 242.735 473.885 L 389.009 334.111 L 403.517 349.293 Z" fill="currentColor"/></svg>