<svg viewBox="0 0 500 500" xmlns="http://www.w3.org/2000/svg"><path xmlns="http://www.w3.org/2000/svg" d="M 68.833 90 L 431.976 90 C 448.342 90.437 465.077 97.474 475.723 108.121 C 486.37 118.767 493.407 135.502 493.844 151.868 L 493.844 348.132 C 493.407 364.498 486.37 381.233 475.723 391.879 C 465.077 402.526 448.342 409.564 431.976 410 L 68.833 410 C 52.467 409.564 35.732 402.526 25.086 391.879 C 14.439 381.233 7.402 364.498 6.965 348.132 L 6.965 151.868 C 7.402 135.502 14.439 118.767 25.086 108.121 C 35.732 97.474 52.467 90.437 68.833 90 Z M 26.965 151.868 L 26.965 348.132 C 26.528 360.412 31.102 369.611 39.228 377.737 C 47.354 385.863 56.553 390.436 68.833 390 L 431.976 390 C 444.256 390.437 453.455 385.863 461.581 377.737 C 469.707 369.611 474.28 360.412 473.844 348.132 L 473.844 151.868 C 474.051 146.059 473.136 140.939 471.255 136.297 C 467.764 141.778 462.317 147.664 455.289 153.288 L 315.156 262.488 C 294.475 278.337 271.962 287.3 250.689 287.3 C 229.419 287.3 206.828 278.307 186.075 262.462 L 47.143 153.273 C 39.354 147.349 33.477 141.091 29.981 135.288 C 27.812 140.196 26.743 145.635 26.965 151.868 Z M 442.995 137.512 C 451.776 130.893 454.675 126.764 455.792 122.815 C 456.597 119.971 456.695 120.66 454.426 118.335 C 449.154 112.934 438.908 110.141 428.864 110 L 73.033 110 C 63.857 110.149 53.33 113.112 47.769 118.667 C 45.339 121.094 45.428 120.388 46.192 123.107 C 47.269 126.942 50.125 130.902 59.223 137.337 L 198.433 246.738 C 216.675 261.16 233.041 267.3 250.689 267.3 C 268.335 267.3 284.702 261.13 302.862 246.712 Z" fill="currentColor"/></svg>