<svg xmlns="http://www.w3.org/2000/svg" viewbox="0 0 1000 1000"><path d="M472 0.432373C441.308 4.1413 411.247 6.73035 381 13.8915C312.392 30.1348 246.324 62.6323 191 106.217C139.867 146.5 96.9464 196.465 64.7163 253C-60.272 472.244 3.55873 756.135 206 905.109C248.438 936.338 296.802 960.692 347 976.649C415.877 998.544 489.31 1005.09 561 996.695C634.205 988.118 708.544 962.286 770 921.333C918.449 822.411 1008.54 655.498 999.941 476C989.315 254.333 827.354 61.2721 611 12.1157C567.07 2.13458 517.07 -5.0141 472 0.432373M608 660C710.602 630.881 817.009 541.367 798.245 424C794.349 399.628 785.134 375.847 771.937 355C765.287 344.495 752.265 333.473 748.148 322C745.788 315.424 748.36 304.078 749.008 297.125C750.505 281.075 751.333 264.894 752.338 248.804C753.08 236.915 755.43 224.947 742.997 218.238C733.304 213.006 722.93 219.542 714 223.739C697.931 231.291 674.56 246.403 657 250L657 250C653.504 250.42 650.729 251.799 648 254C600.327 238.109 555.971 225 501 225C485.41 225 467.636 223.341 453 227C434.482 231.63 415.322 233.419 397 238C382.866 241.534 369.667 248.444 356 253C345.326 256.558 329.557 238 320 238L320 239C322 237 314 236.5 313 234L303 230C302 229 282 216.086 265.236 215.733C249.888 215.377 247.342 230.55 247.79 242.104C248.529 261.149 250.642 280.16 251.756 299.196C252.163 306.156 254.876 316.534 251.572 323.027C246.305 333.378 236.264 342.135 229.88 352C215.446 374.305 205.156 399.608 201.442 426C185.439 539.714 288.698 635.229 392 660C387.037 680.706 380.827 700.749 378.17 722C377.107 730.498 378.767 746.577 373.91 753.658C370.643 758.421 361.336 760.358 356.059 761.79C339.896 766.175 318.906 769.747 302.305 765.485C282.251 760.336 271.368 740.103 259.701 725.118C248.028 710.127 229.805 696.375 211 692.806C199.79 690.679 175.818 686.003 170.585 701.172C168.606 706.908 174.823 708.859 179 710.488C191.872 715.509 204.704 722.723 214.99 732.01C244.531 758.681 252.808 796.488 294.196 810.613C310.528 816.186 328.031 815.195 344.422 809.865C350.703 807.823 367.167 800.165 373.283 804.4C378.143 807.765 375 829.376 375 835C375 858.312 378.091 884.173 373.304 907C371.595 915.149 369.939 926.231 361.969 930.774C345.021 940.437 314.993 921.247 300 913.751C242.868 885.185 191.102 847.22 149.918 798C15.0455 636.807 4.04319 399.885 128.435 229C165.082 178.655 212.902 134.586 267 103.575C441.114 3.76349 664.87 25.3167 813 163.115C850.794 198.273 882.144 239.642 906.676 285C945.922 357.56 959 436.701 959 518C959 576.239 942.869 637.309 918.676 690C877.985 778.625 810.593 852.01 726 900.425C705.709 912.038 684.199 922.83 662 930.331C653.444 933.221 641.324 935.567 634.451 927.844C617.922 909.274 625 868.765 625 846C625 810.535 627.067 774.315 623.804 739C621.291 711.813 614.232 686.41 608 660z" fill="currentColor"/></svg>