<?xml version="1.0" standalone="yes"?>
<svg xmlns="http://www.w3.org/2000/svg" width="500" height="500">
<path style="fill:#000000; stroke:none;" d="M63 0.439056L61 0.804779L57 1.65125C54.3028 2.27023 51.6121 2.9454 49 3.86499C47.9908 4.22028 46.988 4.60403 46 5.01468C44.3101 5.71707 42.6375 6.45132 41 7.27005C38.9519 8.29413 36.9658 9.43155 35 10.6042C33.3049 11.6153 31.6032 12.6308 30 13.7847C28.2527 15.0424 26.6314 16.452 25.0147 17.8704C23.7478 18.9818 22.4778 20.0932 21.2855 21.2855C20.0932 22.4778 18.9818 23.7478 17.8704 25.0146C16.4519 26.6314 15.0424 28.2527 13.7847 30C12.8575 31.2882 12.027 32.6437 11.2045 34C10.4034 35.3209 9.61455 36.6508 8.86188 38C8.12793 39.3156 7.42654 40.6492 6.75926 42C5.9468 43.6447 5.13231 45.2899 4.46373 47C3.45058 49.5916 2.78838 52.3018 2.12963 55C1.72413 56.6609 1.35032 58.3259 1.00386 60C0.797954 60.9949 0.595843 61.9961 0.439043 63C0.283666 63.9948 0.144465 64.9937 0.0895062 66C-0.00148405 67.6661 0.00268132 69.332 0 71L0 76L0 97L0 160L0 355L0 408L0 425L0.000771605 430C0.00881608 431.668 0.00435415 433.338 0.170525 435C0.304995 436.345 0.548332 437.674 0.804784 439C1.0636 440.338 1.34639 441.672 1.65123 443C2.19079 445.351 2.76398 447.708 3.51929 450C3.85213 451.01 4.22038 452.012 4.61497 453C5.1524 454.345 5.70319 455.684 6.30941 457C6.93352 458.355 7.61208 459.682 8.30941 461C9.02778 462.358 9.81735 463.681 10.6042 465C11.6153 466.695 12.6308 468.397 13.7847 470C15.0423 471.747 16.452 473.369 17.8704 474.985C18.9819 476.252 20.0932 477.522 21.2855 478.715C22.4778 479.907 23.7478 481.018 25.0147 482.13C26.6314 483.548 28.2527 484.958 30 486.215C31.2883 487.143 32.6437 487.973 34 488.796C35.321 489.597 36.6508 490.385 38 491.138C39.3157 491.872 40.6493 492.573 42 493.241C43.6446 494.053 45.2899 494.868 47 495.536C49.5916 496.549 52.3017 497.212 55 497.87C56.6607 498.276 58.326 498.65 60 498.996C60.9949 499.202 61.996 499.404 63 499.561C63.9949 499.716 64.9935 499.856 66 499.91C68.3304 500.038 70.667 500 73 500L85 500L123 500L335 500L402 500L423 500L429 500L433 499.961L435 499.829C436.344 499.717 437.677 499.448 439 499.195C441.012 498.81 443.011 498.361 445 497.87C446.679 497.454 448.356 497.022 450 496.481C451.01 496.148 452.013 495.78 453 495.385C454.345 494.848 455.684 494.297 457 493.691C458.355 493.067 459.682 492.388 461 491.691C462.016 491.153 463.009 490.569 464 489.988L467 488.185C468.017 487.554 469.028 486.915 470 486.215C471.747 484.958 473.369 483.548 474.985 482.13C476.252 481.018 477.522 479.907 478.715 478.715C479.907 477.522 481.018 476.252 482.13 474.985C483.548 473.369 484.958 471.747 486.215 470C487.143 468.712 487.973 467.356 488.796 466C489.597 464.679 490.385 463.349 491.138 462C491.872 460.684 492.574 459.351 493.241 458C494.053 456.355 494.868 454.71 495.536 453C496.549 450.408 497.212 447.698 497.87 445C498.356 443.009 498.798 441.011 499.195 439C499.392 438.006 499.58 437.006 499.711 436L499.91 434L499.961 433L500 429L500 423L500 403L500 339L500 144L500 92L500 75L499.999 70C499.991 68.3319 499.996 66.6619 499.829 65C499.695 63.6552 499.452 62.3258 499.195 61C498.936 59.6619 498.654 58.3284 498.349 57C497.809 54.6489 497.236 52.2924 496.481 50C496.148 48.9899 495.78 47.9875 495.385 47C494.848 45.6548 494.297 44.316 493.691 43C493.066 41.6452 492.388 40.3182 491.691 39C491.153 37.9842 490.569 36.9915 489.988 36C488.587 33.6056 487.16 31.2091 485.475 29C484.424 27.6209 483.278 26.313 482.13 25.0146C481.013 23.7518 479.907 22.4784 478.715 21.2855C477.522 20.0932 476.252 18.9818 474.985 17.8704C473.369 16.452 471.747 15.0423 470 13.7847C468.712 12.8574 467.356 12.0271 466 11.2045C464.679 10.4033 463.349 9.61456 462 8.86188C460.684 8.12787 459.351 7.42654 458 6.75925L455 5.3125C453.692 4.72363 452.363 4.19781 451 3.74924C449.685 3.31616 448.341 2.97281 447 2.62964L443 1.65125C441.672 1.3468 440.338 1.0636 439 0.804779C437.674 0.54834 436.345 0.304993 435 0.170532C433.67 0.0375977 432.335 0.015686 431 0.00384521L427 0L414 0L374 0L166 0L98 0L77 0L71 0C69.3321 0.00268555 67.666 -0.00149536 66 0.0895081C64.9936 0.14447 63.9949 0.283661 63 0.439056M73 20.2855L75 20.0895L76 20.0394L80 20L86 20L107 20L171 20L366 20L406 20L418 20L422 20.0038C423 20.0127 424.002 20.0211 425 20.0895C427.015 20.2275 428.994 20.6192 431 20.8341L435 21.1697C436.011 21.2856 437.005 21.4577 438 21.669C439.688 22.0276 441.356 22.5061 443 23.0286C445.041 23.6774 447.059 24.415 449 25.3233C451.081 26.2971 453.072 27.451 455 28.6991C457.102 30.0596 459.119 31.5306 461 33.1844L462.999 35.0401L464.985 37.0038L466.896 39L467.79 40L469.39 42C470.108 42.9646 470.742 43.9833 471.381 45L472.571 47C473.137 47.9874 473.671 48.9875 474.191 50L474.677 51L475.546 53L476.302 55L477.279 58C477.772 59.6437 478.229 61.3101 478.535 63C478.716 63.9957 478.833 64.9928 478.924 66L479.166 69C479.381 71.0057 479.773 72.9853 479.91 75C479.979 75.9985 479.987 76.9996 479.996 78L480 81L480 90L480 144L480 395L480 414L480 420C479.997 421.666 480.024 423.337 479.91 425C479.773 427.015 479.381 428.994 479.166 431L478.924 434C478.833 435.007 478.716 436.004 478.535 437C478.229 438.69 477.772 440.356 477.279 442C476.563 444.385 475.733 446.743 474.677 449C473.703 451.081 472.549 453.072 471.301 455C470.181 456.729 468.994 458.416 467.674 460C466.216 461.75 464.62 463.389 462.996 464.985C461.409 466.544 459.788 468.06 458 469.39C457.037 470.107 456.021 470.751 455 471.381C454.015 471.989 453.014 472.576 452 473.135C450.376 474.03 448.718 474.846 447 475.546C445.367 476.212 443.688 476.772 442 477.279C440.032 477.869 438.035 478.398 436 478.701C434.342 478.948 432.665 478.988 431 479.166C428.994 479.381 427.015 479.773 425 479.91C423.337 480.024 421.666 479.997 420 480L414 480L395 480L332 480L135 480L94 480L82 480L78 479.996C76.9997 479.987 75.9984 479.979 75 479.91C72.9853 479.773 71.0057 479.381 69 479.166L65 478.83C63.9896 478.714 62.9945 478.542 62 478.331C60.3122 477.972 58.6437 477.494 57 476.971C54.9587 476.323 52.9414 475.585 51 474.677C48.9186 473.703 46.9278 472.549 45 471.301C42.8984 469.94 40.8814 468.469 39 466.816L37.0008 464.96L35.0154 462.996L33.1042 461L32.2099 460L30.6096 458C29.8922 457.036 29.2578 456.017 28.6188 455L27.429 453C26.8626 452.013 26.3289 451.013 25.8094 450L25.3233 449L24.4537 447L23.6983 445L22.7215 442C22.2284 440.356 21.7714 438.69 21.4645 437C21.2837 436.004 21.1669 435.007 21.0756 434L20.8341 431C20.6192 428.994 20.2275 427.015 20.0895 425C20.0211 424.002 20.0127 423 20.0039 422L20 419L20 410L20 351L20 167L20 106L20 86L20 80C20.0032 77.9988 19.9799 75.9945 20.1698 74L20.8341 69L21.0756 66C21.1669 64.9928 21.2837 63.9956 21.4645 63C21.7718 61.3076 22.2408 59.6494 22.7215 58C23.1145 56.6511 23.5656 55.3129 24.0656 54C24.4507 52.9888 24.8515 51.9747 25.3233 51L26.3233 49L27.4537 47C28.2915 45.649 29.1282 44.3011 30.0432 43C30.7681 41.9693 31.5333 40.9793 32.3256 40L33.1844 39C34.1078 37.9808 35.0484 36.9826 36.0147 36.0038C37.6058 34.3921 39.2296 32.7952 41 31.3789C42.5726 30.1208 44.2724 29.0452 46 28.0154C48.2531 26.6724 50.5688 25.4442 53 24.4537C54.6331 23.7884 56.3116 23.2279 58 22.7215C59.6437 22.2284 61.3101 21.7714 63 21.4645L65 21.1697L69 20.8341L73 20.2855M123.148 146.028L121.603 147.318L120.603 149.059L120.148 151.005L120.059 152.001L120.001 155L120 159L120 167L120.001 170L120.019 172L120.148 173.995L120.318 174.981L120.603 175.941L121.603 177.682L123.148 178.972C124.313 179.662 125.678 179.843 127.001 179.941L129 179.995L131 179.995L132.999 179.941L133.995 179.852L134.981 179.682L136.852 178.972L138.397 177.682L139.397 175.941L139.852 173.995L139.941 172.999L139.999 170L140 166L140 158L139.999 155L139.981 153L139.852 151.005L139.682 150.019L139.397 149.059L138.397 147.318L136.852 146.028C135.687 145.338 134.322 145.157 132.999 145.059L131 145.005L129 145.005L127.001 145.059L126.005 145.148L125.019 145.318L123.148 146.028M265 238L265 231.995L264.995 229L264.981 228L264.852 226.005L264.682 225.019L264.397 224.059L263.397 222.318L262.682 221.603L260.941 220.603L258.995 220.148L257.999 220.059C256.999 220.013 256.001 220.002 255 220.002C253.999 220.002 253.001 220.013 252.001 220.059L251.005 220.148L250.019 220.318C248.705 220.576 247.466 221.294 246.603 222.318L246.028 223.148L245.318 225.019L245.059 227.001L245.005 229L245.001 230L245 235L245 244L245 271L245 353L245 369L245.005 371L245.059 372.999C245.157 374.322 245.338 375.687 246.028 376.852L247.318 378.397L248.148 378.972L249.059 379.397L250.019 379.682L251.005 379.852L252.001 379.941C253.001 379.987 253.999 379.998 255 379.998C256.001 379.998 256.999 379.987 257.999 379.941L258.995 379.852L260.941 379.397L262.682 378.397L263.397 377.682L264.397 375.941L264.682 374.981L264.852 373.995L264.981 372L264.999 370L265 367L265 340L265 318L265 310C265.003 308.334 264.976 306.663 265.09 305C265.228 302.985 265.592 300.998 265.87 299L266.271 296L266.729 293L267.13 290L267.579 287L267.87 285L268.275 282C268.482 280.661 268.727 279.326 269.004 278C269.427 275.976 269.878 273.968 270.52 272C270.961 270.649 271.467 269.311 272.015 268C272.435 266.993 272.853 265.987 273.32 265C273.968 263.632 274.68 262.294 275.465 261C277.104 258.296 279.033 255.79 281.13 253.428C282.414 251.983 283.743 250.562 285.174 249.261C286.693 247.879 288.323 246.623 290.001 245.44C292.219 243.876 294.541 242.475 297 241.323C298.949 240.41 300.979 239.688 303 238.954C304.328 238.471 305.652 237.993 307 237.569L309 237.04C310.649 236.646 312.318 236.371 313.999 236.167C315.294 236.011 316.608 235.983 317.91 235.924C319.082 235.87 320.252 235.837 321.424 235.862C323.291 235.901 325.152 236.051 327.004 236.286C328.009 236.414 329.005 236.617 330 236.808C331.346 237.065 332.688 237.377 334 237.771C336.043 238.384 338.031 239.195 340 240.012C343.107 241.3 346.207 242.701 348.996 244.598C350.346 245.516 351.6 246.548 352.83 247.619L353.715 248.44L355.421 250.171L357.13 252.039C358.559 253.635 359.969 255.253 361.212 257C362.342 258.588 363.312 260.276 364.215 262C365.07 263.63 365.841 265.296 366.536 267C366.935 267.977 367.259 268.99 367.56 270C368.144 271.958 368.608 273.967 368.826 276C368.933 276.997 368.964 277.999 368.985 279L369 283L369 290C369.002 291.653 368.991 293.308 369.054 294.961C369.089 295.879 369.134 296.8 369.228 297.715L369.765 302.09C369.873 303.058 369.928 304.03 369.964 305.004L369.999 308L370 311L370 321L370 350L370 369L370.005 371L370.019 372L370.148 373.995L370.318 374.981L370.603 375.941L371.603 377.682L372.318 378.397L374.059 379.397L376.005 379.852L377.001 379.941C378.001 379.987 378.999 379.998 380 379.998L382 379.981L383.995 379.852L384.981 379.682L385.941 379.397L387.682 378.397L388.397 377.682L389.397 375.941L389.682 374.981L389.852 373.995L389.981 372L390 369L390 363L390 320L390 289L390 278C389.999 275.669 390.062 273.322 389.829 271C389.695 269.658 389.466 268.321 389.192 267C388.984 265.996 388.775 264.994 388.522 264C388.177 262.651 387.76 261.323 387.329 260C386.78 258.319 386.211 256.639 385.547 255C384.715 252.948 383.749 250.944 382.688 249C381.17 246.22 379.418 243.571 377.572 241C376.595 239.639 375.582 238.309 374.535 237.001L372.826 235.015C371.937 234.014 370.969 233.078 369.985 232.171C369.024 231.284 368.021 230.436 367 229.619C365.693 228.572 364.384 227.516 363 226.57C361.057 225.242 359.055 224.009 357 222.862C354.734 221.597 352.408 220.426 350 219.453C346.442 218.015 342.722 217.038 339 216.13C337.009 215.644 335.011 215.202 333 214.805C331.676 214.543 330.344 214.305 329 214.171C327.338 214.004 325.668 214.011 324 214.001L320 214L316 214.004C314.665 214.016 313.33 214.038 312 214.171C310.318 214.339 308.655 214.669 307 215.004C304.988 215.411 302.991 215.877 301 216.375C297.615 217.222 294.241 218.144 291 219.453C289.295 220.141 287.651 220.952 286 221.756L284 222.757C282.297 223.626 280.61 224.512 279 225.547C277.628 226.429 276.308 227.399 275.004 228.378C273.694 229.362 272.384 230.359 271.171 231.462C269.514 232.969 268.075 234.678 266.573 236.333L265 238M122.318 221.028L121.603 221.603L120.603 223.148L120.148 225.019L120.059 226.005L120.001 229L120 231L120 258L120 357L120 367L120 370L120.005 372L120.059 373.995L120.148 374.981L120.603 376.852L121.603 378.397L122.318 378.972L123.148 379.397L124.059 379.682L126.005 379.941C127.002 379.997 128.001 379.993 129 379.999L131 379.999L132.999 379.981L134.981 379.852C135.918 379.716 136.879 379.508 137.682 378.972L138.397 378.397L139.397 376.852L139.852 374.981L139.941 373.995L139.999 371L140 369L140 342L140 243L140 233L140 230L139.995 228L139.941 226.005L139.852 225.019L139.397 223.148L138.397 221.603L137.682 221.028L136.852 220.603L135.941 220.318L133.995 220.059C132.998 220.003 131.999 220.007 131 220.001L129 220.001L127.001 220.019L125.019 220.148C124.082 220.284 123.121 220.492 122.318 221.028z"/>
</svg>
