<svg xmlns="http://www.w3.org/2000/svg" viewbox="0 0 625 625"><path d="M157 449C143.711 440.043 128.305 433.198 112 433.004C95.6902 432.81 80.812 434.349 66 441.759C56.0913 446.717 47.5358 453.751 40.1736 462C8.45697 497.535 14.7521 555.811 51 585.536C73.34 603.855 105.611 609.042 133 600.254C163.397 590.501 186.596 562.663 190.711 531C192.103 520.284 191 508.801 191 498L191 436L191 246L191 185C191 178.43 188.614 165.975 192.028 160.214C195.287 154.713 205.43 154.124 211 152.576C229.603 147.406 248.3 142.438 267 137.63C339.469 118.995 411.633 99.1432 484 80.1157C504.677 74.6791 525.259 68.8131 546 63.6265C550.789 62.4289 563.272 56.5606 567.397 60.6072C570.914 64.0577 569 74.4531 569 79L569 131L569 341C545.736 325.318 515.991 319.823 489 329.079C438.5 346.396 416.589 408.052 442.873 454C447.799 462.612 454.475 470.259 462 476.7C506.361 514.669 577.739 494.816 598.186 441C603.642 426.64 603 412.073 603 397L603 339L603 129L603 55L603 35C603 31.8745 603.562 27.9471 601.972 25.108C597.926 17.8806 582.776 19.0568 576 20.76C550.932 27.0608 526.065 34.2787 501 40.6258C416.846 61.9353 333.073 84.7516 249 106.37C227.31 111.948 205.689 117.793 184 123.37C176.905 125.195 163.324 126.017 158.603 132.225C154.777 137.256 157 148.953 157 155L157 216L157 449z" fill="currentColor"/></svg>