<svg viewBox="0 0 500 500" xmlns="http://www.w3.org/2000/svg"><path d="M 306.051 111.28 C 306.064 111.273 306.33 111.265 306.821 111.257 L 306.899 111.189 L 306.062 111.088 C 306.058 111.209 306.055 111.274 306.051 111.28 Z M 411.124 118.353 L 410.905 431.585 C 410.448 448.042 403.338 464.947 392.638 475.673 C 381.912 486.373 364.993 493.484 348.537 493.94 L 152.26 493.94 C 135.803 493.483 118.898 486.373 108.172 475.673 C 97.472 464.947 90.36 448.028 89.905 431.572 L 89.905 68.416 C 90.361 51.959 97.472 35.054 108.172 24.328 C 118.898 13.628 135.816 6.517 152.273 6.061 L 300.013 5.933 C 309.567 6.233 337.385 29.699 362.702 55.34 C 388.018 80.982 411.046 109.018 411.124 118.353 Z M 152.274 27.061 C 140.115 26.598 131.091 31.108 123.022 39.178 C 114.952 47.247 110.443 56.251 110.905 68.411 L 110.905 431.572 C 110.442 443.732 114.952 452.754 123.022 460.823 C 131.091 468.893 140.095 473.402 152.255 472.94 L 348.537 472.94 C 360.697 473.403 369.719 468.893 377.788 460.823 C 385.858 452.754 390.367 443.75 389.905 431.59 L 390.05 131.503 L 306.948 131.375 C 301.835 131.108 295.06 129.075 291.636 125.695 C 288.256 122.273 286.224 115.594 285.958 110.48 L 286.081 26.698 Z M 389.077 110.379 C 389.052 110.354 389.026 110.328 389 110.301 C 388.405 109.691 387.523 108.793 386.395 107.647 C 384.137 105.354 380.895 102.071 376.994 98.127 C 369.194 90.239 358.764 79.709 348.323 69.175 C 329.829 50.514 311.303 31.84 307.31 27.816 C 307.292 28.414 307.274 29.24 307.256 30.265 C 307.215 32.562 307.174 35.851 307.133 39.805 C 307.051 47.712 306.971 58.269 306.895 68.839 C 306.745 89.979 306.618 106.939 306.518 110.817 C 314.082 110.661 379.515 110.415 389.077 110.379 Z M 166.967 189.947 L 339.481 189.947 C 343.559 189.947 347.257 189.955 349.932 189.955 C 354.235 189.955 364.235 190.335 364.235 199.974 C 364.235 209.786 354.235 209.992 349.932 209.992 C 347.257 209.992 343.559 210 339.481 210 L 166.967 210 C 162.889 210 159.191 209.992 156.516 209.992 C 152.213 209.992 142.213 209.7 142.213 199.974 C 142.213 190.299 152.213 189.955 156.516 189.955 C 159.191 189.955 162.889 189.947 166.967 189.947 Z M 166.967 290.378 L 339.481 290.378 C 343.559 290.378 347.257 290.386 349.932 290.386 C 354.235 290.386 364.235 290.766 364.235 300.405 C 364.235 310.217 354.235 310.423 349.932 310.423 C 347.257 310.423 343.559 310.431 339.481 310.431 L 166.967 310.431 C 162.889 310.431 159.191 310.423 156.516 310.423 C 152.213 310.423 142.213 310.131 142.213 300.405 C 142.213 290.73 152.213 290.386 156.516 290.386 C 159.191 290.386 162.889 290.378 166.967 290.378 Z M 166.967 389.65 L 339.481 389.65 C 343.559 389.65 347.257 389.658 349.932 389.658 C 354.235 389.658 364.235 390.038 364.235 399.677 C 364.235 409.489 354.235 409.695 349.932 409.695 C 347.257 409.695 343.559 409.703 339.481 409.703 L 166.967 409.703 C 162.889 409.703 159.191 409.695 156.516 409.695 C 152.213 409.695 142.213 409.403 142.213 399.677 C 142.213 390.002 152.213 389.658 156.516 389.658 C 159.191 389.658 162.889 389.65 166.967 389.65 Z M 166.967 90.037 L 225.745 89.973 C 229.823 89.973 233.521 89.981 236.196 89.981 C 240.499 89.981 250.499 90.361 250.499 100 C 250.499 109.812 240.499 110.018 236.196 110.018 C 233.521 110.018 229.823 110.026 225.745 110.026 L 166.967 110.09 C 162.889 110.09 159.191 110.082 156.516 110.082 C 152.213 110.082 142.213 109.79 142.213 100.064 C 142.213 90.389 152.213 90.045 156.516 90.045 C 159.191 90.045 162.889 90.037 166.967 90.037 Z" fill="currentColor"/></svg>