<svg viewBox="0 0 500 500" xmlns="http://www.w3.org/2000/svg"><path d="M 296.851 34.563 L 432.878 34.563 C 441.249 35.043 450.938 38.881 456.337 44.28 C 461.736 49.679 465.574 59.368 466.054 67.739 L 466.054 233.737 C 465.574 242.108 461.736 251.797 456.337 257.196 C 450.938 262.595 441.249 266.433 432.878 266.913 L 296.851 266.913 C 288.48 266.433 278.791 262.595 273.392 257.196 C 267.993 251.797 264.155 242.108 263.675 233.737 L 263.675 67.739 C 264.155 59.368 267.993 49.679 273.392 44.28 C 278.791 38.881 288.48 35.043 296.851 34.563 Z M 288.948 59.836 C 286.321 62.463 285.195 63.863 285.675 67.739 L 285.675 233.737 C 285.195 237.613 286.321 239.013 288.948 241.64 C 291.575 244.266 292.975 245.393 296.851 244.913 L 432.878 244.913 C 436.754 245.393 438.154 244.266 440.781 241.64 C 443.407 239.013 444.534 237.613 444.054 233.737 L 444.054 67.739 C 444.534 63.863 443.407 62.463 440.781 59.836 C 438.154 57.21 436.754 56.083 432.878 56.563 L 296.851 56.563 C 292.975 56.083 291.575 57.21 288.948 59.836 Z M 66.648 234.793 L 202.675 234.793 C 211.046 235.273 220.735 239.111 226.134 244.51 C 231.533 249.909 235.371 259.598 235.851 267.969 L 235.851 433.967 C 235.371 442.338 231.533 452.027 226.134 457.426 C 220.735 462.825 211.046 466.663 202.675 467.143 L 66.648 467.143 C 58.277 466.663 48.588 462.825 43.189 457.426 C 37.79 452.027 33.952 442.338 33.472 433.967 L 33.472 267.969 C 33.952 259.598 37.79 249.909 43.189 244.51 C 48.588 239.111 58.277 235.273 66.648 234.793 Z M 58.745 260.066 C 56.119 262.693 54.992 264.093 55.472 267.969 L 55.472 433.967 C 54.992 437.843 56.119 439.243 58.745 441.87 C 61.372 444.496 62.772 445.623 66.648 445.143 L 202.675 445.143 C 206.551 445.623 207.951 444.496 210.578 441.87 C 213.204 439.243 214.331 437.843 213.851 433.967 L 213.851 267.969 C 214.331 264.093 213.204 262.693 210.578 260.066 C 207.951 257.44 206.551 256.313 202.675 256.793 L 66.648 256.793 C 62.772 256.313 61.372 257.44 58.745 260.066 Z M 296.851 295.639 L 432.878 295.639 C 441.249 296.119 450.938 299.957 456.337 305.356 C 461.736 310.755 465.574 320.444 466.054 328.815 L 466.054 433.968 C 465.574 442.339 461.736 452.028 456.337 457.427 C 450.938 462.826 441.249 466.664 432.878 467.144 L 296.851 467.144 C 288.48 466.664 278.791 462.826 273.392 457.427 C 267.993 452.028 264.155 442.339 263.675 433.968 L 263.675 328.815 C 264.155 320.444 267.993 310.755 273.392 305.356 C 278.791 299.957 288.48 296.119 296.851 295.639 Z M 288.948 320.912 C 286.321 323.539 285.195 324.939 285.675 328.815 L 285.675 433.968 C 285.195 437.844 286.321 439.244 288.948 441.871 C 291.575 444.498 292.975 445.624 296.851 445.144 L 432.878 445.144 C 436.754 445.624 438.154 444.498 440.781 441.871 C 443.407 439.244 444.534 437.844 444.054 433.968 L 444.054 328.815 C 444.534 324.939 443.407 323.539 440.781 320.912 C 438.154 318.286 436.754 317.159 432.878 317.639 L 296.851 317.639 C 292.975 317.159 291.575 318.286 288.948 320.912 Z M 66.648 34.563 L 202.675 34.563 C 211.046 35.043 220.735 38.881 226.134 44.28 C 231.533 49.679 235.371 59.368 235.851 67.739 L 235.851 172.892 C 235.371 181.263 231.533 190.952 226.134 196.351 C 220.735 201.75 211.046 205.588 202.675 206.068 L 66.648 206.068 C 58.277 205.588 48.588 201.75 43.189 196.351 C 37.79 190.952 33.952 181.263 33.472 172.892 L 33.472 67.739 C 33.952 59.368 37.79 49.679 43.189 44.28 C 48.588 38.881 58.277 35.043 66.648 34.563 Z M 58.745 59.836 C 56.119 62.463 54.992 63.863 55.472 67.739 L 55.472 172.892 C 54.992 176.768 56.119 178.168 58.745 180.795 C 61.372 183.421 62.772 184.548 66.648 184.068 L 202.675 184.068 C 206.551 184.548 207.951 183.421 210.578 180.795 C 213.204 178.168 214.331 176.768 213.851 172.892 L 213.851 67.739 C 214.331 63.863 213.204 62.463 210.578 59.836 C 207.951 57.209 206.551 56.083 202.675 56.563 L 66.648 56.563 C 62.772 56.083 61.372 57.209 58.745 59.836 Z" fill="currentColor"/></svg>