<?xml version="1.0" standalone="no"?>
<svg>
<font id="Demofont" horiz-adv-x="36" >
<font-face units-per-em="100" ascent="80" descent="-20" />
<glyph unicode=" " horiz-adv-x="36" d="" />
<glyph unicode="!" horiz-adv-x="16" d="M10 42 Q10.00988 37.99012 10.00494 28.99506 Q10 20 10 18 Q10 16 8 16 Q6 16 6 18 Q6 20 6 29 Q6 38 6 42 Q6 46 6.00494 52.99506 Q6.00988 59.99012 6.00988 61.99012 Q6.00988 63.99012 8.00988 63.99012 Q10.00988 63.99012 10.00988 61.99012 Q10.00988 59.99012 10.00988 52.99012 Q10.00988 45.99012 10 42 zM10 2 Q10 0 8 0 Q6 0 6 2 Q6 3.09136 6 4 Q6 4.90864 6 6 Q6 8 8 8 Q10 8 10 6 Q10 4.90864 10 4 Q10 3.09136 10 2 z" />
<glyph unicode="&#x22;" horiz-adv-x="24" d="M8 54 Q8 52 6 52 Q4 52 4 54 Q4 55.95 4 59.975 Q4 64 4 66 Q4 68 6 68 Q8 68 8 66 Q8 64 8 60 Q8 56 8 54 zM20 54 Q20 52 18 52 Q16 52 16 54 Q16 55.95 16 59.975 Q16 64 16 66 Q16 68 18 68 Q20 68 20 66 Q20 64 20 60 Q20 56 20 54 z" />
<glyph unicode="#" horiz-adv-x="44" d="M16 10 Q16 8 14 8 Q12 8 12 10 Q12 14.86914 11.43457 15.43457 Q10.86914 16 6 16 Q4 16 4 18 Q4 20 6 20 Q10.86914 20 11.43457 20.56543 Q12 21.13086 12 26 Q12 30.86914 11.43457 31.43457 Q10.86914 32 6 32 Q4 32 4 34 Q4 36 6 36 Q10.86914 36 11.43457 36.56543 Q12 37.13086 12 42 Q12 44 14 44 Q16 44 16 42 Q16 37.13086 16.56543 36.56543 Q17.13086 36 22 36 Q26.86914 36 27.43457 36.56543 Q28 37.13086 28 42 Q28 44 30 44 Q32 44 32 42 Q32 37.13086 32.56543 36.56543 Q33.13086 36 38 36 Q40 36 40 34 Q40 32 38 32 Q33.13086 32 32.56543 31.43457 Q32 30.86914 32 26 Q32 21.13086 32.56543 20.56543 Q33.13086 20 38 20 Q40 20 40 18 Q40 16 38 16 Q33.13086 16 32.56543 15.43457 Q32 14.86914 32 10 Q32 8 30 8 Q28 8 28 10 Q28 14.86914 27.43457 15.43457 Q26.86914 16 22 16 Q17.13086 16 16.56543 15.43457 Q16 14.86914 16 10 zM28 26 Q28 30.86914 27.43457 31.43457 Q26.86914 32 22 32 Q17.13086 32 16.56543 31.43457 Q16 30.86914 16 26 Q16 21.13086 16.56543 20.56543 Q17.13086 20 22 20 Q26.86914 20 27.43457 20.56543 Q28 21.13086 28 26 z" />
<glyph unicode="$" horiz-adv-x="32" d="M24 22.98642 Q24 26.36199 21.71041 28.18099 Q19.42081 30 17.05882 30 Q16 30 16 30 Q16 30 14.98642 30 Q10.2172 30 7.15975 33.0566 Q4.1023 36.11321 4 40.94118 Q4 45.71041 7.14118 48.85521 Q10.28236 52 14 52 Q14 54 14 55 Q14 56 14 58 Q14 60 16 60 Q18 60 18 58 Q18 56 18 55 Q18 54 18 52 Q19.00538 52 20.49145 52 Q21.97753 52 24 52 Q26 52 26 50 Q26 48 24 48 Q20 48 18 48 Q16 48 14.98642 48 Q12.9059 48 10.45295 46.18099 Q8 44.36199 8 41.01358 Q8 37.41192 10.25339 35.70596 Q12.50679 34 15.05249 33.94126 Q16 34 16.0362 34 Q16.0724 34 17.01358 34 Q21.42081 34 24.71041 30.8914 Q28 27.7828 28 23.05882 Q28 18.0724 24.87239 15.0362 Q21.74479 12 18 12 Q18 10 18 9 Q18 8 18 6 Q18 4 16 4 Q14 4 14 6 Q14 8 14 9 Q14 10 14 12 Q12 12 11 12 Q10 12 8 12 Q6 12 6 14 Q6 16 8 16 Q12 16 12.50679 16 Q13.01358 16 17.01358 16 Q20.27963 16.0724 22.13981 18.18099 Q24 20.28959 24 22.98642 z" />
<glyph unicode="%" horiz-adv-x="54" d="M28.56503 31.09058 Q26.56986 27.61229 19.6158 15.27789 Q12.66173 2.94349 11.66233 1.21109 Q10.66294 -0.52131 8.93054 0.47809 Q7.19814 1.47749 8.19753 3.20988 Q9.19693 4.94228 16.15099 17.27668 Q23.10506 29.61108 25.10385 33.07588 Q27.10264 36.54068 34.05309 48.88858 Q41.00353 61.23647 42.00293 62.96887 Q43.00232 64.70127 44.73472 63.70187 Q46.46712 62.70248 45.46773 60.97008 Q44.46833 59.23768 37.51788 46.88978 Q30.56744 34.54188 28.56503 31.09058 zM21.07107 42.92893 Q19.71807 41.57594 17.81574 40.78797 Q15.91342 40 14 40 Q12.08658 40 10.18426 40.78796 Q8.28193 41.57593 6.92893 42.92893 Q5.57594 44.28192 4.78797 46.18425 Q4 48.08658 4 50 Q4 51.91341 4.78796 53.81575 Q5.57592 55.71808 6.92893 57.07107 Q8.28193 58.42405 10.18426 59.21202 Q12.08658 59.99999 14 59.99999 Q15.91342 59.99999 17.81575 59.21203 Q19.71808 58.42407 21.07107 57.07107 Q22.42406 55.71807 23.21203 53.81574 Q24 51.91341 24 50 Q24 48.08658 23.21203 46.18425 Q22.42406 44.28192 21.07107 42.92893 zM20 50 Q20 51.26019 19.6289 52.35711 Q19.25781 53.45403 18.35592 54.35592 Q17.45403 55.25782 16.35712 55.62891 Q15.2602 56 14 56 Q12.7398 56 11.64289 55.62891 Q10.54598 55.25782 9.64408 54.35592 Q8.74219 53.45403 8.37109 52.35711 Q8 51.26019 8 50 Q8 48.7398 8.3711 47.64289 Q8.74219 46.54597 9.64408 45.64408 Q10.54597 44.74218 11.64288 44.37109 Q12.7398 44 14 44 Q15.2602 44 16.35711 44.37109 Q17.45402 44.74218 18.35592 45.64408 Q19.25781 46.54597 19.62891 47.64288 Q20 48.7398 20 50 zM47.07107 6.92893 Q45.71807 5.57594 43.81574 4.78797 Q41.91342 4 40 4 Q38.08658 4 36.18426 4.78796 Q34.28193 5.57593 32.92893 6.92893 Q31.57594 8.28192 30.78797 10.18425 Q30 12.08658 30 14 Q30 15.91341 30.78796 17.81575 Q31.57592 19.71808 32.92893 21.07107 Q34.28193 22.42405 36.18426 23.21202 Q38.08658 23.99999 40 23.99999 Q41.91342 23.99999 43.81575 23.21203 Q45.71808 22.42407 47.07107 21.07107 Q48.42406 19.71807 49.21203 17.81574 Q50 15.91341 50 14 Q50 12.08658 49.21203 10.18425 Q48.42406 8.28192 47.07107 6.92893 zM46 14 Q46 15.26019 45.6289 16.35711 Q45.25781 17.45403 44.35592 18.35592 Q43.45403 19.25782 42.35712 19.62891 Q41.2602 20 40 20 Q38.7398 20 37.64289 19.62891 Q36.54598 19.25782 35.64408 18.35592 Q34.74219 17.45403 34.37109 16.35711 Q34 15.26019 34 14 Q34 12.7398 34.3711 11.64289 Q34.74219 10.54597 35.64408 9.64408 Q36.54597 8.74218 37.64288 8.37109 Q38.7398 8 40 8 Q41.2602 8 42.35711 8.37109 Q43.45402 8.74218 44.35592 9.64408 Q45.25781 10.54597 45.62891 11.64288 Q46 12.7398 46 14 z" />
<glyph unicode="&#x26;" horiz-adv-x="60" d="M36.09501 5.88667 Q33.26728 3.28446 29.62152 1.64223 Q25.97577 0 22 0 Q18.176 0 14.37417 1.57478 Q10.57233 3.14955 7.86834 5.85353 Q5.16436 8.5575 3.58958 12.35935 Q2.01481 16.16119 2.01481 19.98519 Q2.01481 23.80918 3.58958 27.61103 Q5.16435 31.41287 7.86834 34.11685 Q10.57232 36.82082 14.37416 38.3956 Q18.176 39.97037 22 39.97037 Q26.27832 39.97037 29.80133 37.38682 Q33.32434 34.80328 35.20336 32.11358 Q37.98296 28.13476 38.53716 27.27799 Q39.09136 26.42122 40.40988 24.42122 Q43.49553 20.13404 44.19269 20.06213 Q44.88985 19.99021 48.88632 24.17407 Q51.79398 27.08172 53.36863 25.53515 Q54.94329 23.98858 51.26451 20.55226 Q46.91767 16.13207 46.90289 15.51023 Q46.88811 14.88839 52.36615 7.3238 Q54.90667 3.95302 53.32272 2.57737 Q51.73878 1.20171 49.5819 4.0181 Q43.72688 12.28757 43.21441 12.28738 Q42.70195 12.28719 41.37564 10.96088 Q39.37564 8.96088 39.10799 8.68696 Q38.84033 8.41305 36.09501 5.88667 zM33.05668 28.11358 Q31.46013 30.38529 28.28493 33.28611 Q25.10974 36.18692 22.11358 36.04938 Q19.06477 35.90942 16.02884 34.72254 Q12.9929 33.53566 10.83479 31.37755 Q8.67669 29.21945 7.41982 26.18511 Q6.16296 23.15078 6.16296 20.09877 Q6.16296 17.04675 7.34419 13.93678 Q8.52542 10.82681 10.68351 8.6687 Q12.84161 6.51059 15.87604 5.27077 Q18.91047 4.03094 21.9623 3.99687 Q25.05942 3.9623 28.06111 5.26598 Q31.0628 6.56966 33.30821 8.72647 Q40.59763 15.72825 40.62504 16.51696 Q40.65246 17.30567 33.05668 28.11358 zM31.89949 40.10051 Q30.0053 38.20632 27.34204 37.10316 Q24.67879 36 22 36 Q19.32121 36 16.65796 37.10316 Q13.99471 38.20632 12.10051 40.10051 Q10.20632 41.99469 9.10316 44.65795 Q8 47.32121 8 50 Q8 52.67878 9.10316 55.34204 Q10.20631 58.00529 12.10051 59.89949 Q13.9947 61.79368 16.65796 62.89684 Q19.32121 63.99999 22 63.99999 Q24.67879 63.99999 27.34204 62.89684 Q30.0053 61.79368 31.89949 59.89949 Q33.79368 58.0053 34.89684 55.34204 Q36 52.67878 36 50 Q36 47.32121 34.89684 44.65795 Q33.79368 41.99469 31.89949 40.10051 zM32 50 Q32 51.91341 31.21203 53.81574 Q30.42406 55.71807 29.07107 57.07106 Q27.71808 58.42405 25.81575 59.21202 Q23.91342 60 22 60 Q20.08658 60 18.18425 59.21203 Q16.28192 58.42406 14.92893 57.07106 Q13.57595 55.71807 12.78797 53.81574 Q12 51.91341 12 50 Q12 48.08658 12.78797 46.18425 Q13.57594 44.28192 14.92893 42.92893 Q16.28192 41.57594 18.18425 40.78797 Q20.08658 40 22 40 Q23.91342 40 25.81575 40.78796 Q27.71808 41.57593 29.07107 42.92893 Q30.42405 44.28192 31.21203 46.18425 Q32 48.08658 32 50 z" />
<glyph unicode="'" horiz-adv-x="12" d="M8 54 Q8 52 6 52 Q4 52 4 54 Q4 55.95 4 59.975 Q4 64 4 66 Q4 68 6 68 Q8 68 8 66 Q8 64 8 60 Q8 56 8 54 z" />
<glyph unicode="(" horiz-adv-x="24" d="M19.31852 67.77284 Q21.58681 68.30153 21.86165 66.36109 Q22.13649 64.42065 20.70439 64 Q18.18093 63.23861 16.92009 62.56252 Q15.65926 61.88642 12.79506 59.09136 Q10.39986 56.74905 9.16322 54.18806 Q7.92658 51.62706 8 48 Q8 46 8 32 Q8 18 8 16 Q8 12.45432 9.17037 9.82963 Q10.34074 7.20494 12.68148 4.79506 Q15.81543 1.89866 16.99818 1.33002 Q18.18093 0.76139 20.70439 0 Q22.36365 -0.42065 21.96733 -2.29472 Q21.57102 -4.16879 19.31852 -3.77284 Q16.99201 -3.36388 15.05897 -2.29182 Q13.12593 -1.21975 9.87472 1.86485 Q7.09992 4.49746 5.54996 8.33626 Q4 12.17506 4 16 Q4 18 4 32 Q4 46 4 48 Q3.89122 52.10805 5.56322 55.83381 Q7.23521 59.55957 9.87472 62.13515 Q12.98837 65.17339 15.01248 66.20718 Q17.0366 67.24097 19.31852 67.77284 z" />
<glyph unicode=")" horiz-adv-x="24" d="M14.12528 62.13515 Q16.76479 59.55957 18.43678 55.83381 Q20.10878 52.10805 20 48 Q20 46 20 32 Q20 18 20 16 Q20 12.17506 18.45004 8.33626 Q16.90008 4.49746 14.12528 1.86485 Q10.87407 -1.21975 8.94103 -2.29182 Q7.00799 -3.36388 4.68148 -3.77284 Q2.42898 -4.16879 2.03266 -2.29472 Q1.63635 -0.42065 3.29561 0 Q5.81907 0.76139 7.00182 1.33002 Q8.18457 1.89866 11.31852 4.79506 Q13.65926 7.20494 14.82963 9.82963 Q16 12.45432 16 16 Q16 18 16 32 Q16 46 16 48 Q16.07342 51.62706 14.83678 54.18806 Q13.60014 56.74905 11.20494 59.09136 Q8.34074 61.88642 7.07991 62.56252 Q5.81907 63.23861 3.29561 64 Q1.86351 64.42065 2.13835 66.36109 Q2.41319 68.30153 4.68148 67.77284 Q6.9634 67.24097 8.98752 66.20718 Q11.01163 65.17339 14.12528 62.13515 z" />
<glyph unicode="*" horiz-adv-x="30" d="M16 48 Q16 46 15 46 Q14 46 14 48 Q14 50 14 51 Q14 52 14 54 Q14 56 14 56 Q14 56 12 56 Q10 56 9 56 Q8 56 6 56 Q4 56 4 57 Q4 58 6 58 Q7.98365 58 8.99182 58 Q10 58 12 58 Q14 58 14 58 Q14 58 14 60 Q14 62 14 63.06655 Q14 64.13311 14 66 Q14 68 15 68 Q16 68 16 66 Q16 64 16 63 Q16 62 16 60 Q16 58 16 58 Q16 58 18 58 Q20 58 21 58 Q22 58 24 58 Q24.84091 58 25.32827 57.82321 Q25.81564 57.64641 25.94938 57.29287 Q26.1338 56.80558 25.64645 56.40279 Q25.15909 56 24 56 Q22 56 21 56 Q20 56 18 56 Q16 56 16 56.11408 Q16 56.22815 16 54 Q16 52.22815 16 51.11408 Q16 50 16 48 zM8.94008 49.52587 Q7.52587 48.11165 6.81876 48.81876 Q6.11165 49.52586 7.52587 50.94008 Q8.94008 52.35429 9.84872 53.26293 Q10.75736 54.17157 12.17157 55.58579 Q13.58579 57 13.58579 57 Q13.58579 57 12.17157 58.41421 Q10.75736 59.82843 9.90551 60.68028 Q9.05366 61.53213 7.63945 62.94634 Q6.22523 64.36055 6.93234 65.06766 Q7.63945 65.77477 9.05366 64.36055 Q10.45631 62.9579 11.31394 62.10027 Q12.17157 61.24264 13.58579 59.82843 Q15 58.41421 15 58.41421 Q15 58.41421 16.41421 59.82843 Q17.82843 61.24264 18.78413 62.19834 Q19.73983 63.15404 21.05992 64.47413 Q22.47413 65.88835 23.18124 65.18124 Q23.88835 64.47413 22.47413 63.05992 Q21.05992 61.64571 20.15128 60.73707 Q19.24264 59.82843 17.82843 58.41421 Q16.41421 57 16.41421 57 Q16.41421 57 17.82843 55.58579 Q19.24264 54.17157 20.15128 53.26293 Q21.05992 52.35429 22.47413 50.94008 Q23.88835 49.52587 23.18124 48.81876 Q22.47413 48.11165 21.05992 49.52587 Q19.64571 50.94008 18.73707 51.84872 Q17.82843 52.75736 16.41421 54.17157 Q15 55.58579 15.08066 55.66645 Q15.16133 55.74711 13.58579 54.17157 Q12.3329 52.91869 11.3436 51.92939 Q10.35429 50.94008 8.94008 49.52587 z" />
<glyph unicode="+" horiz-adv-x="44" d="M24 8 Q24 6 22 6 Q20 6 20 8 Q20 10 20 13 Q20 16 20 18 Q20 20 19 21 Q18 22 16 22 Q14 22 11 22 Q8 22 6 22 Q4 22 4 24 Q4 26 6 26 Q7.98365 26 10.99182 26 Q14 26 16 26 Q18 26 19 27 Q20 28 20 30 Q20 32 20 35.06655 Q20 38.13311 20 40 Q20 42 22 42 Q24 42 24 40 Q24 38 24 35 Q24 32 24 30 Q24 28 25 27 Q26 26 28 26 Q30 26 33 26 Q36 26 38 26 Q40 26 40 24 Q40 22 38 22 Q36 22 33 22 Q30 22 28 22 Q26 22 25 21 Q24 20 24 18 Q24 16 24 13 Q24 10 24 8 z" />
<glyph unicode="," horiz-adv-x="18" d="M0 -10 Q-2 -10 -2 -8 Q-2 -6 0 -6 Q1.8963 -6.00988 3.79012 -5.26914 Q5.68395 -4.5284 7.0451 -3.17348 Q8.51358 -1.67901 9.26173 0.21235 Q10.00988 2.1037 10.00988 3.99012 Q10.00988 5.99012 12.01051 5.99012 Q14.01114 5.99011 14 4 Q13.9801 0.44448 12.99499 -1.7827 Q12.00988 -4.00988 10.00988 -6.00988 Q8.00988 -8.00988 5.77778 -9.00494 Q3.54568 -10 0 -10 z" />
<glyph unicode="-" horiz-adv-x="44" d="M22 20 Q17.99012 19.99012 12.99012 19.99012 Q7.99012 19.99012 5.99012 19.99012 Q3.99012 19.99012 3.99012 21.99012 Q3.99012 23.99012 5.99012 23.99012 Q7.99012 23.99012 12.99506 23.99506 Q18 24 22 24 Q26 24 30.99506 23.99506 Q35.99012 23.99012 37.99012 23.99012 Q39.99012 23.99012 39.99012 21.99012 Q39.99012 19.99012 37.99012 19.99012 Q35.99012 19.99012 30.99012 19.99012 Q25.99012 19.99012 22 20 z" />
<glyph unicode="." horiz-adv-x="16" d="M10.89128 1.19761 Q10.33806 0.64439 9.56022 0.3222 Q8.78238 0 8 0 Q7.21762 0 6.43978 0.3222 Q5.66194 0.64439 5.10872 1.19761 Q4.5555 1.75083 4.2333 2.52868 Q3.91111 3.30652 3.91111 4.08889 Q3.91111 4.87127 4.2333 5.64911 Q4.5555 6.42695 5.10872 6.98017 Q5.66194 7.53339 6.43978 7.85559 Q7.21762 8.17778 8 8.17778 Q8.78238 8.17778 9.56022 7.85559 Q10.33806 7.53339 10.89128 6.98017 Q11.4445 6.42695 11.7667 5.64911 Q12.08889 4.87127 12.08889 4.08889 Q12.08889 3.30652 11.7667 2.52868 Q11.4445 1.75083 10.89128 1.19761 z" />
<glyph unicode="/" horiz-adv-x="46" d="M24.86327 31.15369 Q22.8681 27.6754 15.91404 15.341 Q8.95997 3.0066 7.96057 1.2742 Q6.96118 -0.4582 5.22878 0.5412 Q3.49637 1.5406 4.49577 3.27299 Q5.49517 5.00539 12.44924 17.33979 Q19.4033 29.67419 21.40209 33.13899 Q23.40088 36.60379 30.35132 48.95168 Q37.30177 61.29958 38.30117 63.03198 Q39.30056 64.76438 41.03296 63.76499 Q42.76536 62.76559 41.76597 61.03319 Q40.76657 59.30079 33.81613 46.95289 Q26.86568 34.60499 24.86327 31.15369 z" />
<glyph unicode="0" horiz-adv-x="48" d="M38.13166 5.85353 Q35.42768 3.14955 31.62584 1.57477 Q27.824 0 24 0 Q20.176 0 16.37417 1.57478 Q12.57233 3.14955 9.86834 5.85353 Q7.16436 8.5575 5.6034 12.3594 Q4.04244 16.16129 4.01481 19.98519 Q4 22.03457 4 32.01729 Q4 42 4 44 Q4 48 5.63622 51.7753 Q7.27245 55.55059 9.86834 58.14648 Q12.57232 60.85045 16.37416 62.42523 Q20.176 64 24 64 Q27.824 64 31.59725 62.39602 Q35.3705 60.79204 38.13166 58.14648 Q40.84466 55.54706 42.42233 51.77353 Q44 48 44 44 Q44 42 44 32.01729 Q44 22.03457 43.98519 19.98519 Q43.95756 16.16129 42.3966 12.3594 Q40.83564 8.5575 38.13166 5.85353 zM39.95062 19.98519 Q40 22.03457 40 32.01729 Q40 42 40 44 Q40 47.24938 38.78307 50.1278 Q37.56615 53.00623 35.27879 55.2936 Q33.12069 57.45171 30.08636 58.70857 Q27.05202 59.96543 24 59.96543 Q20.94798 59.96543 17.9418 58.67967 Q14.93561 57.39391 12.72121 55.2936 Q10.51681 53.20278 9.25276 50.03813 Q7.98871 46.87348 8 44 Q8 42 8 32.01728 Q8 22.03457 8.04938 19.98519 Q8.1229 16.93406 9.34301 13.89928 Q10.56311 10.8645 12.72121 8.7064 Q14.87931 6.54829 17.91364 5.29143 Q20.94798 4.03457 24 4.03457 Q27.05202 4.03457 30.08635 5.29143 Q33.12068 6.54829 35.27879 8.7064 Q37.43689 10.8645 38.657 13.89928 Q39.8771 16.93406 39.95062 19.98519 z" />
<glyph unicode="1" horiz-adv-x="22" d="M6 52 Q6.87268 52 8.58945 53.24969 Q10.30622 54.49939 11.22105 55.87458 Q12.53814 57.87458 13.25447 59.36136 Q13.97081 60.84813 14 62 Q14 64 15.99261 64.00001 Q17.98522 64.00002 17.99012 62.00988 Q18 58 18 31 Q18 4 18 2 Q18 0 16 0 Q14 0 14 2 Q14 4 14 25.45432 Q14 46.90864 14 50 Q14.07778 51.17572 13.82573 51.55807 Q13.57369 51.94042 12.51218 50.84057 Q11.19355 49.47431 9.59677 48.73716 Q8 48 6 48 Q4 48 4 50 Q4 52 6 52 z" />
<glyph unicode="2" horiz-adv-x="48" d="M42 0 Q40.61739 0 27.30869 0 Q14 0 10 0 Q5.88642 0.22716 4.88642 2.11358 Q3.88642 4 4 6 Q4 10.95334 11 16.47667 Q18 22 24 26 Q30 30 31.61157 31.09661 Q33.22313 32.19322 35.18321 34.0394 Q37.59505 36.51928 38.79752 38.47384 Q40 40.42839 40 44 Q40 47.55598 38.81191 50.09641 Q37.62381 52.63684 35.24864 55.16022 Q32.99265 57.557 30.24361 58.7785 Q27.49458 60 24 60 Q20.64983 60 17.94412 58.84177 Q15.2384 57.68354 12.83978 55.21621 Q10.28142 52.58457 9.14071 50.04787 Q8 47.51118 8 44 Q8 42 6 42 Q4 42 4 44 Q4 48 5.60255 51.66297 Q7.2051 55.32594 10 58 Q12.61888 60.50565 16.30944 62.25283 Q20 64 24 64 Q28 64 31.57722 62.37838 Q35.15444 60.75675 38 58 Q40.84556 55.24325 42.42278 51.62162 Q44 48 44 44 Q44 39.92823 42.35185 37.01142 Q40.7037 34.09461 37.88148 31.31357 Q35.11265 28.84641 32.55633 27.09728 Q30 25.34815 24 21.34815 Q18 17.02222 13.34074 13.28642 Q8.68148 9.55062 8.68148 6.22716 Q8.68148 4.22716 11.34074 4.11358 Q14 4 18 4 Q22 4 31 4 Q40 4 42 4 Q44 4 44 2 Q44 0 42 0 z" />
<glyph unicode="3" horiz-adv-x="48" d="M38 64 Q41.20018 63.92962 42.60009 61.96481 Q44 60 44 58 Q44 54.10027 39.88642 50.05014 Q35.77284 46 31.20494 42 Q29.81594 40.69603 32.33376 38.85416 Q34.85158 37.01229 38 34 Q40.86652 31.15989 42.43326 27.58102 Q44 24.00215 44 20 Q44 16 42.42278 12.37838 Q40.84556 8.75675 38 6 Q35.15444 3.24325 31.57722 1.62162 Q28 0 24 0 Q20 0 16.30944 1.74717 Q12.61888 3.49435 10 6 Q7.2051 8.67406 5.60255 12.33703 Q4 16 4 20 Q4 22 6 22 Q8 22 8 20 Q8 16.48882 9.14071 13.95213 Q10.28142 11.41543 12.83978 8.78379 Q15.2384 6.31646 17.94412 5.15823 Q20.64983 4 24 4 Q27.49458 4 30.24361 5.2215 Q32.99265 6.443 35.24864 8.83978 Q37.62381 11.36316 38.81191 13.90359 Q40 16.44402 40 20 Q40 23.53152 38.81229 26.07819 Q37.62458 28.62485 35.18321 31.1638 Q32.76199 33.49071 28.34521 37.09312 Q23.92843 40.69553 26.49414 43.3394 Q31.51277 48.0146 35.42061 51.61194 Q39.32845 55.20928 39.31852 57.77284 Q39.30335 59.79091 36.65167 59.89545 Q34 60 30 60 Q26 60 19 60 Q12 60 10 60 Q8 60 8 62 Q8 64 10 64 Q12 64 23 64 Q34 64 38 64 z" />
<glyph unicode="4" horiz-adv-x="54" d="M22 24.01975 Q18.37573 24.01975 15.58605 23.9988 Q12.79636 23.97785 8.79636 23.97785 Q5.02029 24.05748 4.26669 26.99545 Q3.51308 29.93341 6.71672 33.53523 Q8.63709 35.61487 9.31854 36.29633 Q10 36.97778 12 38.97778 Q14 40.97778 14.87407 41.94815 Q15.74815 42.91852 19.74815 46.91852 Q23.74815 50.91852 26.87407 53.94815 Q30 56.97778 34 60.97778 Q37.67407 64.54321 39.83704 63.67433 Q42 62.80546 42 58.80546 Q42 54.80546 41.99008 50.40273 Q41.98016 46 41.99012 42.98766 Q42 40 42 38 Q42 36 41.99901 31.97653 Q42 30 43 29 Q44 28 46 28 Q46.55359 28 46.88884 28 Q47.22409 28 47.93665 28 Q49.93665 28 49.93665 26 Q49.93665 24 47.93665 24 Q47.2129 24 46.87093 24 Q46.52896 24 46 24 Q44 24 43 23 Q42 22 42 20 Q42 14 42 9 Q42 4 42 2 Q42 0 40 0 Q38 0 38 2 Q38 4 38 9 Q38 14 38 20 Q38 22 37 23 Q36 24 34 24 Q30 24 27.669 24.00988 Q25.33801 24.01975 22 24.01975 zM21.84073 43.13705 Q17.84073 39.13705 16.84073 38.13705 Q15.84073 37.13705 11.84073 33.13705 Q8.707 29.92369 8.9447 28.96184 Q9.18239 28 12 28 Q14 28 16.88067 28 Q19.76134 28 22 28 Q26.04878 28 28.02439 28 Q30 28 34 28 Q36 28 37 29 Q38 30 38 32 Q38 36 38 38 Q38 40 38 42.97778 Q38 46 38 50.00197 Q38 54.00394 38 56.00394 Q38 58 37.20998 57.81259 Q36.41996 57.62519 33.22847 54.35649 Q29.22847 50.35649 27.5346 48.74677 Q25.84073 47.13705 21.84073 43.13705 z" />
<glyph unicode="5" horiz-adv-x="48" d="M38.01073 60.09876 Q36.01073 60.09876 29.00536 60.04938 Q22 60 18 60 Q14 60 11.99958 59.95556 Q9.99915 59.91111 9.99915 57.91111 Q9.99915 55.91111 9.99379 51.86173 Q9.98842 47.81235 9.98842 43.81235 Q10 40 15 40 Q20 40 24 40 Q27.77284 40 31.37114 38.46074 Q34.96944 36.92149 37.99012 33.99013 Q40.81234 31.20909 42.40617 27.64043 Q44 24.07177 44 20 Q44 16 42.42278 12.37838 Q40.84556 8.75675 38 6 Q35.15444 3.24325 31.57722 1.62162 Q28 0 24 0 Q20 0 16.30944 1.74717 Q12.61888 3.49435 10 6 Q7.2051 8.67406 5.60255 12.33703 Q4 16 4 20 Q4 22 6 22 Q8 22 8 20 Q8 16.48882 9.14071 13.95213 Q10.28142 11.41543 12.83978 8.78379 Q15.2384 6.31646 17.94412 5.15823 Q20.64983 4 24 4 Q27.49458 4 30.24361 5.2215 Q32.99265 6.443 35.24864 8.83978 Q37.62381 11.36316 38.81191 13.90359 Q40 16.44402 40 20 Q40 23.57161 38.79752 26.12369 Q37.59505 28.67578 35.18321 31.15566 Q32.86264 33.47591 30.14737 34.73795 Q27.4321 36 24 36 Q20 36 13 36 Q6 36 5.98842 43.81235 Q5.98842 47.81235 5.99421 52.86777 Q6 57.92319 6 60 Q6 62 7 63 Q8 64 10 64 Q14 64 25 64 Q36 64 38.01073 64.09876 Q40.01073 64.09876 40.01073 62.09876 Q40.01073 60.09876 38.01073 60.09876 z" />
<glyph unicode="6" horiz-adv-x="48" d="M4.00988 19.99012 Q4.00328 22.67064 4.00164 28.67456 Q4 34.67849 4 44 Q4 48 5.57722 51.62162 Q7.15444 55.24325 10 58 Q12.84556 60.75675 16.42278 62.37838 Q20 64 24 64 Q26 64 28 63.99013 Q30 63.98025 32 64 Q34 64 34 62 Q34 60 32 60 Q30 59.98025 28 59.99013 Q26 60 24 60 Q20.50542 60 17.75639 58.7785 Q15.00735 57.557 12.75136 55.16022 Q10.37619 52.63684 9.18809 50.09641 Q8 47.55598 8 44 Q8 40 8 38.72032 Q8 37.44063 8 34 Q8 32 8.91662 33.04683 Q9.83324 34.09367 9.86485 34.12528 Q12.56949 36.82992 16.37227 38.40508 Q20.17506 39.98025 24 39.98025 Q27.82494 39.98025 31.62772 38.40508 Q35.43051 36.82992 38.13515 34.12528 Q40.8398 31.42063 42.41496 27.61785 Q43.99012 23.81507 43.99012 19.99012 Q43.99012 16.16518 42.41496 12.3624 Q40.8398 8.55962 38.13515 5.85497 Q35.43051 3.15033 31.62773 1.57517 Q27.82494 0 24 0 Q20.17506 0 16.37227 1.57517 Q12.56949 3.15033 9.86485 5.85497 Q7.1602 8.55962 5.58975 12.36241 Q4.0193 16.16519 4.00988 19.99012 zM39.99012 20 Q39.99012 23.45549 38.79897 26.09319 Q37.60782 28.7309 35.16442 31.1743 Q32.72102 33.6177 30.08331 34.80885 Q27.44561 36 23.99012 36 Q20.53463 36 17.82812 34.87766 Q15.12161 33.75531 12.67821 31.31191 Q10.23481 28.86851 9.11247 26.162 Q7.99012 23.45549 7.99012 20 Q7.99012 16.54451 9.11247 13.838 Q10.23481 11.13149 12.67821 8.68809 Q15.12161 6.24469 17.82812 5.12234 Q20.53463 4 23.99012 4 Q27.44561 4 30.15212 5.12234 Q32.85863 6.24469 35.30203 8.68809 Q37.74543 11.13149 38.86778 13.838 Q39.99012 16.54451 39.99012 20 z" />
<glyph unicode="7" horiz-adv-x="56" d="M35.87554 28.43258 Q33.88037 24.95429 27.36087 13.96803 Q20.84138 2.98178 19.84198 1.24938 Q18.84259 -0.48302 17.11019 0.51638 Q15.37778 1.51578 16.37718 3.24817 Q17.37658 4.98057 23.89608 15.96682 Q30.41557 26.95308 32.41436 30.41788 Q33.74133 32.71812 38.08996 40.2701 Q42.43859 47.82208 46 54 Q47.65926 57.20494 46.82963 58.60247 Q46 60 42 60 Q38 60 24 60 Q10 60 6 60 Q4 60 4 62 Q4 64 6 64 Q10 64 26 64 Q42 64 46 64 Q50 64 51.4321 60.82963 Q52.8642 57.65926 48.31399 49.98792 Q44.61169 43.56546 40.85268 37.04879 Q37.09367 30.53212 35.87554 28.43258 z" />
<glyph unicode="8" horiz-adv-x="44" d="M34.72792 5.27208 Q32.29253 2.8367 28.86834 1.41835 Q25.44415 0 22 0 Q18.55585 0 15.13166 1.41834 Q11.70747 2.83669 9.27208 5.27208 Q6.8367 7.70746 5.41835 11.13166 Q4 14.55585 4 18 Q4 21.44414 5.41834 24.86834 Q6.83668 28.29253 9.27208 30.72792 Q11.70747 33.1633 15.13166 34.58164 Q18.55585 35.99999 22 35.99999 Q25.44415 35.99999 28.86834 34.58165 Q32.29254 33.16331 34.72792 30.72792 Q37.1633 28.29253 38.58165 24.86834 Q40 21.44414 40 18 Q40 14.55585 38.58165 11.13166 Q37.1633 7.70746 34.72792 5.27208 zM36 18 Q36 20.67878 34.89683 23.34204 Q33.79366 26.00529 31.89949 27.89948 Q30.00531 29.79368 27.34204 30.89684 Q24.67878 31.99999 22 31.99999 Q19.32122 31.99999 16.65797 30.89683 Q13.99471 29.79367 12.10051 27.89948 Q10.20632 26.0053 9.10316 23.34204 Q8 20.67878 8 18 Q8 15.32121 9.10317 12.65795 Q10.20634 9.9947 12.10051 8.10051 Q13.99469 6.20631 16.65796 5.10316 Q19.32122 4 22 4 Q24.67878 4 27.34203 5.10316 Q30.00529 6.20632 31.89949 8.10051 Q33.79368 9.99469 34.89684 12.65795 Q36 15.32121 36 18 zM33.33492 36.69507 Q31.16607 34.52623 28.11664 33.26311 Q25.06721 31.99999 22 31.99999 Q18.93279 31.99999 15.88336 33.2631 Q12.83393 34.52622 10.66508 36.69507 Q8.49624 38.86391 7.23312 41.91334 Q5.97 44.96278 5.97 48.02999 Q5.97 51.09719 7.23311 54.14663 Q8.49622 57.19606 10.66508 59.36491 Q12.83393 61.53375 15.88336 62.79687 Q18.93279 64.05998 22 64.05998 Q25.06721 64.05998 28.11664 62.79687 Q31.16608 61.53376 33.33492 59.36491 Q35.50376 57.19606 36.76688 54.14662 Q38.03 51.09719 38.03 48.02999 Q38.03 44.96278 36.76688 41.91334 Q35.50376 38.86391 33.33492 36.69507 zM33.97 48.02999 Q33.97 50.32034 33.0268 52.59743 Q32.0836 54.87452 30.46407 56.49405 Q28.84454 58.11358 26.56745 59.05678 Q24.29036 59.99999 22 59.99999 Q19.70964 59.99999 17.43255 59.05679 Q15.15546 58.11359 13.53593 56.49405 Q11.91641 54.87452 10.97321 52.59743 Q10.03 50.32034 10.03 48.02999 Q10.03 45.73963 10.9732 43.46254 Q11.9164 41.18545 13.53593 39.56592 Q15.15546 37.94639 17.43255 37.00319 Q19.70964 36.05999 22 36.05999 Q24.29036 36.05999 26.56745 37.00318 Q28.84454 37.94638 30.46407 39.56592 Q32.08359 41.18545 33.02679 43.46254 Q33.97 45.73963 33.97 48.02999 z" />
<glyph unicode="9" horiz-adv-x="48" d="M38.08215 33.85497 Q35.37751 31.15033 31.57472 29.57516 Q27.77194 28 23.947 28 Q20.12206 28 16.31927 29.57516 Q12.51649 31.15033 9.81185 33.85497 Q7.1072 36.55962 5.53204 40.3624 Q3.95688 44.16518 3.95688 47.99013 Q3.95688 51.81507 5.53204 55.61785 Q7.1072 59.42063 9.81185 62.12528 Q12.51649 64.82992 16.31927 66.40508 Q20.12206 67.98025 23.947 67.98025 Q27.77194 67.98025 31.57472 66.40508 Q35.37751 64.82992 38.08215 62.12528 Q40.7868 59.42063 42.36219 55.6129 Q43.93758 51.80518 43.947 47.98025 Q43.95688 43.97037 43.97844 24.98519 Q44 6 44 2 Q44 0 42 0 Q40 0 40 2 Q40 6.14821 39.9735 17.0741 Q39.947 28 39.947 34 Q39.947 36 39.06737 34.98028 Q38.18774 33.96056 38.08215 33.85497 zM35.2531 59.28635 Q33.11306 61.43124 30.06431 62.66705 Q27.01556 63.90286 23.947 63.90286 Q20.87844 63.90286 17.86431 62.63871 Q14.85018 61.37455 12.70115 59.2261 Q10.54868 57.07421 9.24784 54.06151 Q7.947 51.04881 7.947 47.98025 Q7.947 44.91169 9.2345 41.84656 Q10.522 38.78143 12.63509 36.66834 Q14.81424 34.48919 17.84634 33.23472 Q20.87844 31.98025 23.947 31.98025 Q27.01556 31.98025 30.03558 33.23957 Q33.0556 34.49889 35.22255 36.65408 Q37.41374 38.83338 38.68037 41.87253 Q39.947 44.91169 39.947 47.98025 Q39.947 51.1262 38.69443 54.10941 Q37.44186 57.09262 35.2531 59.28635 z" />
<glyph unicode=":" horiz-adv-x="16" d="M10.89128 1.19761 Q10.33806 0.64439 9.56022 0.3222 Q8.78238 0 8 0 Q7.21762 0 6.43978 0.3222 Q5.66194 0.64439 5.10872 1.19761 Q4.5555 1.75083 4.2333 2.52868 Q3.91111 3.30652 3.91111 4.08889 Q3.91111 4.87127 4.2333 5.64911 Q4.5555 6.42695 5.10872 6.98017 Q5.66194 7.53339 6.43978 7.85559 Q7.21762 8.17778 8 8.17778 Q8.78238 8.17778 9.56022 7.85559 Q10.33806 7.53339 10.89128 6.98017 Q11.4445 6.42695 11.7667 5.64911 Q12.08889 4.87127 12.08889 4.08889 Q12.08889 3.30652 11.7667 2.52868 Q11.4445 1.75083 10.89128 1.19761 zM10.89128 37.19761 Q10.33806 36.64439 9.56022 36.3222 Q8.78238 36 8 36 Q7.21762 36 6.43978 36.3222 Q5.66194 36.64439 5.10872 37.19761 Q4.5555 37.75083 4.2333 38.52868 Q3.91111 39.30652 3.91111 40.08889 Q3.91111 40.87127 4.2333 41.64911 Q4.5555 42.42695 5.10872 42.98017 Q5.66194 43.53339 6.43978 43.85559 Q7.21762 44.17778 8 44.17778 Q8.78238 44.17778 9.56022 43.85559 Q10.33806 43.53339 10.89128 42.98017 Q11.4445 42.42695 11.7667 41.64911 Q12.08889 40.87127 12.08889 40.08889 Q12.08889 39.30652 11.7667 38.52868 Q11.4445 37.75083 10.89128 37.19761 z" />
<glyph unicode=";" horiz-adv-x="20" d="M14.89128 37.19761 Q14.33806 36.64439 13.56022 36.3222 Q12.78238 36 12 36 Q11.21762 36 10.43978 36.3222 Q9.66194 36.64439 9.10872 37.19761 Q8.5555 37.75083 8.2333 38.52868 Q7.91111 39.30652 7.91111 40.08889 Q7.91111 40.87127 8.2333 41.64911 Q8.5555 42.42695 9.10872 42.98017 Q9.66194 43.53339 10.43978 43.85559 Q11.21762 44.17778 12 44.17778 Q12.78238 44.17778 13.56022 43.85559 Q14.33806 43.53339 14.89128 42.98017 Q15.4445 42.42695 15.7667 41.64911 Q16.08889 40.87127 16.08889 40.08889 Q16.08889 39.30652 15.7667 38.52868 Q15.4445 37.75083 14.89128 37.19761 zM0 -10 Q-2 -10 -2 -8 Q-2 -6 0 -6 Q1.8963 -6.00988 3.79012 -5.26914 Q5.68395 -4.5284 7.0451 -3.17348 Q8.51358 -1.67901 9.26173 0.21235 Q10.00988 2.1037 10.00988 3.99012 Q10.00988 5.99012 12.01051 5.99012 Q14.01114 5.99011 14 4 Q13.9801 0.44448 12.99499 -1.7827 Q12.00988 -4.00988 10.00988 -6.00988 Q8.00988 -8.00988 5.77778 -9.00494 Q3.54568 -10 0 -10 z" />
<glyph unicode="&#x3c;" horiz-adv-x="44" d="M6.32593 27.69164 Q12.32593 30.15556 21.26477 33.83843 Q30.2036 37.52129 36.2036 39.71533 Q38.99687 40.68232 39.82957 38.74218 Q40.66227 36.80204 38.2036 35.71533 Q32.2036 33.52129 24.57932 30.52821 Q16.95504 27.53513 10.86914 25.33732 Q9.22568 24.65481 9.22321 24.02497 Q9.22074 23.39513 10.86914 22.74046 Q16.97633 20.55601 24.58997 17.51736 Q32.2036 14.47871 38.2036 12.28467 Q40.70403 11.16236 39.84071 9.27306 Q38.97739 7.38377 36.2036 8.28467 Q30.2036 10.55649 21.26477 14.22393 Q12.32593 17.89136 6.32593 20.35528 Q4.94655 21.13054 4.47328 22.10771 Q4 23.08488 4 24 Q4 24.91512 4.49261 25.91575 Q4.98521 26.91638 6.32593 27.69164 z" />
<glyph unicode="=" horiz-adv-x="44" d="M22.00988 14.00988 Q18 14 13 14 Q8 14 6 14 Q4 14 4 16 Q4 18 6 18 Q8 18 13 18 Q18 18 22 18 Q26 18 31 18 Q36 18 38 18 Q40 18 40 16 Q40 14 38 14 Q36 14 31 14 Q26 14 22.00988 14.00988 zM22 30 Q17.99012 29.99012 12.99012 29.99012 Q7.99012 29.99012 5.99012 29.99012 Q3.99012 29.99012 3.99012 31.99012 Q3.99012 33.99012 5.99012 33.99012 Q7.99012 33.99012 12.99012 33.99012 Q17.99012 33.99012 21.99012 33.99012 Q25.99012 33.99012 30.99012 33.99012 Q35.99012 33.99012 37.99012 33.99012 Q39.99012 33.99012 39.99012 31.99012 Q39.99012 29.99012 37.99012 29.99012 Q35.99012 29.99012 30.99012 29.99012 Q25.99012 29.99012 22 30 z" />
<glyph unicode="&#x3e;" horiz-adv-x="44" d="M40 24 Q40 23.08488 39.52672 22.10771 Q39.05345 21.13054 37.67407 20.35528 Q31.67407 17.89136 22.73523 14.22393 Q13.7964 10.55649 7.7964 8.28467 Q5.02261 7.38377 4.15929 9.27306 Q3.29597 11.16236 5.7964 12.28467 Q11.7964 14.47871 19.41003 17.51736 Q27.02367 20.55601 33.13086 22.74046 Q34.77926 23.39513 34.77679 24.02497 Q34.77432 24.65481 33.13086 25.33732 Q27.04496 27.53513 19.42068 30.52821 Q11.7964 33.52129 5.7964 35.71533 Q3.33773 36.80204 4.17043 38.74218 Q5.00313 40.68232 7.7964 39.71533 Q13.7964 37.52129 22.73523 33.83843 Q31.67407 30.15556 37.67407 27.69164 Q39.01479 26.91638 39.50739 25.91575 Q40 24.91512 40 24 z" />
<glyph unicode="?" horiz-adv-x="46" d="M20 18 Q20 19.09136 20 20 Q20 20.90864 20 22.9145 Q20 27.20611 22.4533 30.25563 Q24.90659 33.30516 28 34 Q29.84204 34.5657 30.69802 34.99428 Q31.554 35.42286 33.19309 36.83447 Q35.60493 39.31435 36.80741 41.86644 Q38.00988 44.41852 38.00988 47.99013 Q38.00988 51.54611 36.82178 54.08654 Q35.63369 56.62697 33.25852 59.15035 Q31.00253 61.54713 28.2535 62.76863 Q25.50446 63.99013 22.00988 63.99013 Q18.65971 63.99013 15.954 62.8319 Q13.24828 61.67367 10.84966 59.20634 Q8.2913 56.5747 7.15059 54.038 Q6.00988 51.50131 6.00988 47.99013 Q6.00988 45.99013 4.00988 45.99013 Q2.00988 45.99013 2.00988 47.99013 Q2.00988 51.99013 3.61243 55.6531 Q5.21498 59.31607 8.00988 61.99013 Q10.62876 64.49578 14.31932 66.24295 Q18.00988 67.99013 22.00988 67.99013 Q26.00988 67.99013 29.5871 66.36851 Q33.16432 64.74688 36.00988 61.99013 Q38.85544 59.23338 40.43266 55.61176 Q42.00988 51.99013 42.00988 47.99013 Q42.00988 43.91836 40.41605 40.3497 Q38.82222 36.78104 36 34 Q33.68055 32.04642 32.00252 31.36209 Q30.32448 30.67776 28 30 Q26.68695 29.41359 25.34348 27.43046 Q24 25.44733 24 22.96489 Q24 20.90864 24 20 Q24 19.09136 24 18 Q24 16 22 16 Q20 16 20 18 zM24 2 Q24 0 22 0 Q20 0 20 2 Q20 3.09136 20 4 Q20 4.90864 20 6 Q20 8 22 8 Q24 8 24 6 Q24 4.90864 24 4 Q24 3.09136 24 2 z" />
<glyph unicode="@" horiz-adv-x="44" d="M22 8 Q19.72717 8 17.43665 8.86066 Q15.14613 9.72131 13.43372 11.43372 Q11.72132 13.14612 10.86066 15.43664 Q10 17.72717 10 20 Q10 22.27282 10.86065 24.56335 Q11.7213 26.85388 13.43372 28.56628 Q15.14613 30.27867 17.43665 31.13934 Q19.72717 32 22 32 Q24.27283 32 26.67693 31.02576 Q29.08104 30.05153 30.56628 28.56628 Q32.05152 27.08103 33.02576 24.67692 Q34 22.27282 34 20 Q34 17.60326 34 16.39643 Q34 15.18959 34 14 Q34 12.50939 34.4906 12.07941 Q34.98121 11.64944 36.32628 12.95931 Q37.27229 13.94052 37.63614 15.20007 Q38 16.45962 38 20 Q38 23.54038 36.77625 26.11824 Q35.55251 28.6961 33.20446 31.0553 Q30.64638 33.70167 28.01929 34.85084 Q25.3922 36 22 36 Q18.50836 36 15.85641 34.82597 Q13.20446 33.65195 10.6961 31.10502 Q8.39777 28.65753 7.15352 26.09098 Q5.90928 23.52444 6 20 Q5.90056 16.44749 7.06655 13.82713 Q8.23254 11.20677 10.59666 8.79554 Q13.24303 6.29833 15.9447 5.14916 Q18.64638 4 22 4 Q25.20446 4 26.60223 4 Q28 4 30 4 Q32 4 32 2 Q32 0 30 0 Q28 0 27 0 Q26 0 22 0 Q17.95028 0 14.49721 1.39777 Q11.04415 2.79554 7.75139 5.90056 Q5.04415 8.49721 3.47235 12.34805 Q1.90056 16.19889 1.95028 20 Q1.90203 23.68835 3.47452 27.58641 Q5.04702 31.48447 7.80111 34.14916 Q10.73024 36.94102 14.37555 38.47051 Q18.02086 40 22 40 Q25.85084 40 29.52325 38.45962 Q33.19566 36.91924 36.09944 34.14916 Q38.91924 31.50208 40.44047 27.67444 Q41.9617 23.84679 42 20 Q41.9617 16.19151 41.09001 13.67792 Q40.21831 11.16433 38.07277 8.94602 Q36.7629 7.63615 34.45422 7.7453 Q32.14554 7.85446 30.80048 10 Q30.25548 10.98387 29.65473 10.58231 Q29.05398 10.18074 28.65494 9.92723 Q27.23907 8.84071 25.58149 8.42035 Q23.9239 8 22 8 zM30 20 Q30 21.68025 29.5052 23.14281 Q29.0104 24.60536 27.80789 25.80789 Q26.60537 27.01043 25.14282 27.50522 Q23.68027 28 22 28 Q20.31973 28 18.85719 27.50522 Q17.39465 27.01043 16.19211 25.80789 Q14.98959 24.60537 14.49479 23.14281 Q14 21.68025 14 20 Q14 18.31973 14.4948 16.85718 Q14.9896 15.39464 16.19211 14.19211 Q17.39463 12.98957 18.85718 12.49478 Q20.31973 12 22 12 Q23.68027 12 25.14281 12.49478 Q26.60535 12.98957 27.80789 14.19211 Q29.01041 15.39463 29.50521 16.85718 Q30 18.31973 30 20 z" />
<glyph unicode="A" horiz-adv-x="48" d="M43.99012 43.99013 Q44 39.98025 44 22.99012 Q44 6 44 2 Q44 0 42 0 Q40 0 40 2 Q40 6.14821 40 11.0741 Q40 16 40 22 Q40 24.01975 39 25.00988 Q38 26 36 26 Q32 26 29.91247 26 Q27.82494 26 24 26 Q20.17506 26 18.08753 26 Q16 26 12 26 Q10 26 9 25 Q8 24 8 22 Q8 16 8 11 Q8 6 8 2 Q8 0 6 0 Q4 0 4 2 Q4 6 4 23 Q4 40 4.00988 43.99013 Q4.01935 47.81506 5.58978 51.61784 Q7.1602 55.42063 9.86485 58.12528 Q12.56949 60.82992 16.37227 62.40508 Q20.17506 63.98025 24 63.98025 Q27.82494 63.98025 31.62772 62.40508 Q35.43051 60.82992 38.13515 58.12528 Q40.8398 55.42063 42.41025 51.61784 Q43.9807 47.81506 43.99012 43.99013 zM8.00988 43.98025 Q8 40 8 38 Q8 36 8 34 Q8 32 9 31 Q10 30 12 30 Q16 30 18 29.9802 Q20 29.9604 24.00988 29.98025 Q28 30 30 30 Q32 30 36 30 Q38 30 39 31 Q40 32 40 34 Q40 36 40 38 Q40 40 40.00988 43.98025 Q40.01846 47.43573 38.89183 50.14225 Q37.76519 52.84876 35.32179 55.29216 Q32.87839 57.73556 30.17188 58.85791 Q27.46537 59.98025 24.00988 59.98025 Q20.55439 59.98025 17.84788 58.85791 Q15.14137 57.73556 12.69797 55.29216 Q10.25457 52.84876 9.13652 50.14225 Q8.01846 47.43573 8.00988 43.98025 z" />
<glyph unicode="B" horiz-adv-x="44" d="M31.36492 36.56392 Q29.19607 34.39508 26.13164 33.22283 Q23.06721 32.05058 20 32 Q16.93321 31.94943 10.4666 31.97472 Q4 32 4 34 Q4 36 4 40.41582 Q4 44.83163 4 47.89884 Q4 50.55121 5.21256 53.85606 Q6.42512 57.16091 8.62114 59.33102 Q10.79861 61.51196 13.78243 62.72039 Q16.76626 63.92883 20.03 63.92883 Q23.09721 63.92883 26.14665 62.66572 Q29.19608 61.40261 31.36492 59.23376 Q33.53376 57.06491 34.79688 54.01547 Q36.06 50.96604 36.06 47.89884 Q36.06 44.83163 34.79688 41.7822 Q33.53376 38.73276 31.36492 36.56392 zM32 47.89884 Q32 50.18919 31.0568 52.46628 Q30.1136 54.74337 28.49407 56.3629 Q26.87454 57.98243 24.59745 58.92563 Q22.32036 59.86884 20.03 59.86884 Q17.73964 59.86884 15.46255 58.92564 Q13.18546 57.98244 11.56593 56.3629 Q9.94641 54.74337 9.0032 52.46628 Q8.06 50.18919 8.06 47.89884 Q8.06 45.60848 8.03 44.75366 Q8 43.89884 8 39.89884 Q8 37.89884 9 36.89884 Q10 35.89884 12 35.89884 Q16 35.89884 17.49139 35.9061 Q18.98278 35.91337 20.03 35.92884 Q22.32011 35.96268 24.59733 36.88895 Q26.87454 37.81523 28.49407 39.43477 Q30.11359 41.0543 31.05679 43.33139 Q32 45.60848 32 47.89884 zM40.01 18.00999 Q40.01 14.56393 38.59086 11.13784 Q37.17172 7.71174 34.73499 5.275 Q32.29826 2.83825 28.87216 1.41913 Q25.44607 0 22 0 Q18.70393 0 15.19501 1.42748 Q11.6861 2.85497 9.22699 5.29908 Q6.76502 7.72225 5.37751 11.16438 Q3.99 14.60652 3.99 18.00999 Q3.99 21.45606 3.995 26.60451 Q4 31.75296 4 34 Q4 36 11.26035 35.96473 Q18.5207 35.92945 21.96629 35.87263 Q25.41236 35.8158 28.85531 34.49876 Q32.29825 33.18172 34.73499 30.74498 Q37.17172 28.30825 38.59086 24.88216 Q40.01 21.45606 40.01 18.00999 zM31.87958 27.88761 Q29.98946 29.77775 27.33176 30.85879 Q24.67406 31.93983 22.00131 31.97932 Q20.77911 31.99738 19.03854 32.00586 Q17.29796 32.01434 12.62963 32.01434 Q10.29546 32.01434 9.12838 30.84726 Q7.96129 29.68017 7.96129 27.346 Q7.96129 22.67767 7.99631 21.68003 Q8.03132 20.68238 8.03132 18.00934 Q8.03132 15.33631 9.13212 12.67875 Q10.23291 10.02119 12.12303 8.13107 Q14.01316 6.24093 16.67071 5.14014 Q19.32827 4.03935 22.00131 4.03935 Q24.67435 4.03935 27.33191 5.14015 Q29.98946 6.24095 31.87958 8.13107 Q33.76971 10.0212 34.8705 12.67876 Q35.97129 15.33631 35.97129 18.00934 Q35.97129 20.68238 34.8705 23.33993 Q33.7697 25.99748 31.87958 27.88761 z" />
<glyph unicode="C" horiz-adv-x="46" d="M40 64 Q42 64 42 62 Q42 60 40 60 Q36 60 34 60 Q32 60 28 60 Q24 60 20.28395 58.45432 Q16.5679 56.90864 14 54 Q11.09136 51.4321 9.54568 47.71605 Q8 44 8 40 Q8 36 8 32 Q8 28 8 24 Q8 20 9.60247 16.28395 Q11.20494 12.5679 13.88642 9.88642 Q16.5679 7.09136 20.28395 5.54568 Q24 4 28 4 Q32 4 34 4 Q36 4 40 4 Q42 4 42 2 Q42 0 40 0 Q36 0 34 -0 Q32 -0 28.00988 0.00988 Q23.4321 0.02122 18.864 1.89397 Q14.29591 3.76672 11.03522 7.06979 Q7.80214 10.3449 5.90107 14.71813 Q4 19.09136 4 24 Q4 28 3.99202 31.99999 Q3.98404 35.99998 4 40 Q4.01889 44.73354 5.90235 49.21954 Q7.78582 53.70553 11.09136 56.97778 Q14.27283 60.1272 18.85246 62.05299 Q23.4321 63.97878 28.00988 63.99012 Q32 64 34 64 Q36 64 40 64 z" />
<glyph unicode="D" horiz-adv-x="46" d="M34.94321 7.02222 Q31.83143 3.70461 27.18572 1.82529 Q22.54001 -0.05404 18.03457 -0.03457 Q10.03457 0 7.03457 3 Q4.03457 6 4.03457 12 Q4.03457 14 4.03457 18 Q4.03457 22 4 24 Q3.96458 26.04913 3.98229 32.02456 Q4 38 4 40 Q4.04938 41.95062 4.02469 45.97531 Q4 50 4 52 Q4 58 7 61 Q10 64 18 64 Q22.50548 64 27.15622 62.03894 Q31.80695 60.07787 34.90864 56.97778 Q38.2478 53.64034 40.1239 49.2177 Q42 44.79506 42 40 Q42 38 42.02299 32.0247 Q42.04599 26.0494 42.03457 24 Q42.00694 19.0403 40.08554 14.74824 Q38.16414 10.45619 34.94321 7.02222 zM38 24 Q38.03918 26.0496 38.01959 32.0248 Q38 38 38 40 Q38 44.04444 36.44047 47.66845 Q34.88094 51.29246 32.11358 54.11358 Q29.4088 56.8709 25.6847 58.40676 Q21.9606 59.94261 18 59.96543 Q12 60 10 58 Q8 56 8 52 Q8 50 8.02469 45.97531 Q8.04938 41.95062 8 40 Q8 38 8.01729 32.02499 Q8.03457 26.04997 8.03457 24 Q8.03457 22 8.03457 18 Q8.03457 14 8.03457 12 Q8.03457 8 10.03457 6 Q12.03457 4 18.03457 4 Q21.99523 4 25.67902 5.60088 Q29.36282 7.20176 32.14815 10 Q34.74753 12.61142 36.337 16.38261 Q37.92648 20.15381 38 24 z" />
<glyph unicode="E" horiz-adv-x="42" d="M36 60 Q20 60 16 60 Q12 60 10 58 Q8 56 8 52 Q8 48 8 44 Q8 42 8 41 Q8 40 8 38 Q8 36 9 35 Q10 34 12 34 Q16 34 22 34 Q28 34 32 34 Q34 34 34 32 Q34 30 32 30 Q28 30 22 30 Q16 30 12 30 Q10 30 9 29 Q8 28 8 26 Q8 24 8 23 Q8 22 8 20 Q8 16 8 12 Q8 8 10 6 Q12 4 16 4 Q20 4 36 4 Q38 4 38 2 Q38 0 36 0 Q20 0 15 0 Q10 0 7.07966 2.95621 Q4.03387 6.03941 4.01693 11.10724 Q4 16.17506 4 20 Q4 22 4 32 Q4 42 4 44 Q3.89122 48.10805 3.96392 53.03572 Q4.03663 57.96338 7.07966 61.04379 Q10 64 15 64 Q20 64 36 64 Q38 64 38 62 Q38 60 36 60 z" />
<glyph unicode="F" horiz-adv-x="40" d="M36 60 Q20 60 16 60 Q12 60 10 58 Q8 56 8 52 Q8 48 8 44 Q8 42 8 41 Q8 40 8 38 Q8 36 9 35 Q10 34 12 34 Q16 34 22 34 Q28 34 32 34 Q34 34 34 32 Q34 30 32 30 Q28 30 22 30 Q16 30 12 30 Q10 30 9 29 Q8 28 8 26 Q8 24 8 23 Q8 22 8 20 Q8 16 8 11 Q8 6 8 2 Q8 0 6 0 Q4 0 4 2 Q4 6 4 11.08753 Q4 16.17506 4 20 Q4 22 4 32 Q4 42 4 44 Q3.89122 48.10805 3.96392 53.03572 Q4.03663 57.96338 7.07966 61.04379 Q10 64 15 64 Q20 64 36 64 Q38 64 38 62 Q38 60 36 60 z" />
<glyph unicode="G" horiz-adv-x="56" d="M40.00988 64.00988 Q42.00988 64.00988 42.00988 62.00988 Q42.00988 60.00988 40.00988 60.00988 Q38.00988 60.00988 34.00988 60.00988 Q30.00988 60.00988 28 60 Q24 60 20.28395 58.45432 Q16.5679 56.90864 14 54 Q11.09136 51.4321 9.54568 47.71605 Q8 44 8 40 Q8 36 8 32 Q8 28 8 24 Q8 20 9.60247 16.28395 Q11.20494 12.5679 13.88642 9.88642 Q16.5679 7.09136 20.28395 5.54568 Q24 4 28 4 Q32.03735 4 35.08993 4.96119 Q38.14252 5.92237 42.12346 9.8963 Q44.86842 12.63902 46.43915 16.29868 Q48.00988 19.95834 48.00988 24.00988 Q48.00988 26.00988 47.00988 27.00988 Q46.00988 28.00988 44.00988 28.00988 Q42.00988 28.00988 39.0879 28.00988 Q36.16591 28.00988 34.00988 28.00988 Q32.00988 28.00988 32.00988 30.00988 Q32.00988 32.00988 34.00988 32.00988 Q38.00988 32.00988 40.00988 32.00988 Q42.00988 32.00988 44.00988 32.00988 Q48.00988 32.00988 50.00988 30.00988 Q52.00988 28.00988 52.00988 24.00988 Q52.00988 19.08931 50.15803 14.71997 Q48.30618 10.35062 44.98766 7.0321 Q41.70304 3.61481 37.1972 1.81234 Q32.69136 0.00988 28.00988 0.00988 Q23.43209 0.00988 18.864 1.8883 Q14.29591 3.76672 11.03522 7.06979 Q7.80214 10.3449 5.90107 14.71813 Q4 19.09136 4 24 Q4 28 3.99202 31.99999 Q3.98404 35.99998 4 40 Q4.01889 44.73354 5.90235 49.21954 Q7.78582 53.70553 11.09136 56.97778 Q14.27283 60.1272 18.85257 62.03605 Q23.43231 63.94489 28.00988 63.99012 Q30.00988 64.00988 34.00988 64.00988 Q38.00988 64.00988 40.00988 64.00988 z" />
<glyph unicode="H" horiz-adv-x="48" d="M8 26 Q8.01618 21.99014 8.00809 13.99507 Q8 6 8 2 Q8.00314 0 6.00157 -0.00314 Q4 -0.00628 4 1.99372 Q4 6 4 32 Q4 58 4 61.99372 Q3.99686 63.99371 5.99686 63.99685 Q7.99686 64 8 62 Q8 58 7.99831 50.08805 Q7.99662 42.17609 8 38 Q8 36 9 35 Q10 34 12 34 Q16 34 24 34 Q32 34 36 34 Q38 34 39 35 Q40 36 40 38 Q40 42 40 50 Q40 58 40 62 Q40 64 42 64 Q44 64 44 62 Q44 58 44 32 Q44 6 44 2 Q44 0 42 0 Q40 0 40 2 Q40 6 40 14 Q40 22 40 26 Q40 28 39 29 Q38 30 36 30 Q32 30 23.2205 30 Q14.44099 30 12 30 Q10 30 9 29 Q8 28 8 26 z" />
<glyph unicode="I" horiz-adv-x="16" d="M10 32 Q10.01618 27.99014 10.00652 15.99507 Q9.99686 4 10 2 Q10.00314 0 8.00314 -0.00314 Q6.00314 -0.00628 6 1.99372 Q5.99686 3.99371 6.00652 15.98878 Q6.01618 27.98386 6.0099 31.98385 Q6.00362 35.98385 6.00338 47.98879 Q6.00315 59.99372 6 61.99372 Q5.99686 63.99371 7.99686 63.99685 Q9.99686 64 10 62 Q10.00314 60 10.00338 47.99507 Q10.00361 35.99013 10 32 z" />
<glyph unicode="J" horiz-adv-x="42" d="M38 22 Q38 18 36.59007 13.53107 Q35.18015 9.06213 32.17555 5.91222 Q29.03855 2.67285 24.68348 1.31727 Q20.3284 -0.03831 16 0 Q11.83325 -0.06048 9.72632 -0.03024 Q7.6194 0 6 0 Q4 0 4 2 Q4 4 6 4 Q7.32362 4 9.66181 4 Q12 4 16 4 Q19.42716 3.8716 23.13877 5.05868 Q26.85037 6.24576 29.34321 8.75062 Q31.62469 11.34321 32.81235 14.87408 Q34 18.40494 34 22 Q34 24.15 34 42.075 Q34 60 34.00988 61.99012 Q34.00988 63.99012 36.00988 63.99012 Q38.00988 63.99012 38.00988 61.99012 Q38 60 38 42 Q38 24 38 22 z" />
<glyph unicode="K" horiz-adv-x="42" d="M38 2 Q38 0 36 0 Q34 0 34 2 Q34 6 34 9.28395 Q34 12.5679 34 16 Q34 19.54568 32.82963 22.11358 Q31.65926 24.68148 29.09136 27.20494 Q26.45432 29.77284 24.22716 30.88642 Q22 32 18 32 Q16 32 15 32.00988 Q14 32.01975 12 32.01975 Q10 32.01975 9 31.01975 Q8 30.01975 8 28.01975 Q8 26.01975 8 16.01975 Q8 6.01975 8 2.01975 Q8 0.01975 6 0.01975 Q4 0.01975 4 2.01975 Q4 6.01975 4 32.01975 Q4 58.01975 4 62.01975 Q4 64.01975 6 64.01975 Q8 64.01975 8 62.01975 Q8 58.01975 8 50.01975 Q8 42.01975 8 40.01975 Q8 38.01975 9 37.01975 Q10 36.01975 12 36.01975 Q14 36.01975 15.00006 35.98486 Q16.00013 35.94996 18 35.98025 Q22.37167 36.04646 24.64148 36.99016 Q26.91129 37.93387 28.4769 39.54728 Q30.09911 41.16188 31.04956 43.41719 Q32 45.6725 32 48 Q32 50.27875 32 54.13937 Q32 58 32 62 Q32 64 34 64 Q36 64 36 62 Q36 58 36 54.51218 Q36 51.02437 36 48 Q36.04646 44.92521 34.79071 41.88376 Q33.53495 38.84232 31.39375 36.65042 Q30.89094 36.0916 30.20467 35.42238 Q29.5184 34.75316 29.16105 34.39581 Q28.76563 34.02421 28.76045 33.65156 Q28.75527 33.27891 29.12687 32.90731 Q29.55946 32.47472 30.30965 31.70744 Q31.05984 30.94016 32 30 Q34.87558 27.12442 36.43285 23.46974 Q37.99012 19.81507 37.99012 15.99012 Q37.99012 12.16518 37.99506 9.08259 Q38 6 38 2 z" />
<glyph unicode="L" horiz-adv-x="42" d="M8 62 Q8 58 8 41 Q8 24 8 20 Q8 16 8 12 Q8 8 10 6 Q12 4 16 4 Q20 4 36 4 Q38 4 38 2 Q38 0 36 0 Q20 0 15 0 Q10 0 7.07966 2.95621 Q4.03387 6.03941 4.01693 11.0197 Q4 16 4 20 Q4 24 4 41 Q4 58 4 62 Q4 64 6 64 Q8 64 8 62 z" />
<glyph unicode="M" horiz-adv-x="58" d="M8 2 Q8.00314 0 6.00157 -0.00314 Q4 -0.00628 4 1.99372 Q4 6 4 31.00314 Q4 56.00628 4 60.00628 Q4 64.00628 6.5679 64.00628 Q9.1358 64.00628 14.22716 56.00628 Q18.11358 50.00628 20.11358 47.00628 Q22.11358 44.00628 26.11358 38.00628 Q28.06914 34.95937 29 34.95937 Q29.93086 34.95937 31.88642 38.00628 Q35.88642 44.00628 37.88642 47.00628 Q39.88642 50.00628 44 56.00628 Q48.22716 64.00628 51.11358 64.00628 Q54 64.00628 54 60.00628 Q54 56.00628 54 31.00314 Q54 6 54 2 Q54 0 52 0 Q50 0 50 2 Q50 6 50 27.00314 Q50 48.00628 50 54.00628 Q50 56.00628 49 55.00628 Q48 54.00628 44 48.00628 Q40 42.00628 40 42.00628 Q40 42.00628 36 36.00628 Q33.95174 32.89066 32.43019 31.44847 Q30.90864 30.00628 29.02222 30.00628 Q27.1358 30.00628 25.57024 31.50873 Q24.00468 33.01117 22 36.00628 Q18 42.00628 18 42.00628 Q18 42.00628 14 48.00628 Q10 54.00628 9 55.00628 Q8 56.00628 8 54.00628 Q8 48.00628 8 27.00314 Q8 6 8 2 z" />
<glyph unicode="N" horiz-adv-x="54" d="M8 4 Q8.00314 2 6.00157 1.99686 Q4 1.99372 4 3.99372 Q4 8 4 33 Q4 58 4 62 Q4 66 6.5679 66 Q9.1358 66 14.22716 58 Q18.22716 52 27.11358 38 Q36 24 40 18 Q44 12 45 11 Q46 10 46 12 Q46 18 46 39 Q46 60 46 64 Q46 66 48 66 Q50 66 50 64 Q50 60 50 35 Q50 10 50 6 Q50 2 47.4321 2 Q44.8642 2 39.77284 10 Q35.77284 16 26.88642 30 Q18 44 14 50 Q10 56 9 57 Q8 58 8 56 Q8 50 8 29 Q8 8 8 4 z" />
<glyph unicode="O" horiz-adv-x="56" d="M44.95802 7.00741 Q41.79972 3.73554 37.20913 1.83651 Q32.61855 -0.06252 28 0 Q23.46964 0.06133 18.86025 1.87476 Q14.25087 3.6882 11.02716 7.00741 Q7.85884 10.26959 5.91539 14.6476 Q3.97195 19.0256 4.01481 23.98519 Q4.04938 27.98519 4.04938 31.98519 Q4.04938 35.98519 4.04938 39.98519 Q4.04938 44.66667 5.95637 49.17614 Q7.86336 53.6856 11.14074 56.96297 Q14.29904 60.12126 18.89678 62.07792 Q23.49452 64.03457 28 64.03457 Q32.61906 64.03457 37.2377 62.04882 Q41.85633 60.06306 44.95802 56.96297 Q48.29718 53.62553 50.17328 49.1461 Q52.04938 44.66667 52.04938 39.98519 Q52.04938 35.98519 52.05334 31.98522 Q52.05729 27.98525 52.08395 23.98519 Q52.117 19.02553 50.14431 14.68104 Q48.17161 10.33656 44.95802 7.00741 zM48.04938 23.98519 Q48.04938 27.98519 48.04938 31.98519 Q48.04938 35.98519 48.04938 39.98519 Q48.04938 44.02963 46.42477 47.75443 Q44.80016 51.47922 42.16296 54.09877 Q39.42801 56.81541 35.75113 58.40771 Q32.07424 60 28 60 Q24.03934 60 20.37383 58.44534 Q16.70832 56.89069 13.82222 53.98519 Q11.22834 51.37388 9.63321 47.68417 Q8.03809 43.99447 8.04938 39.98519 Q8.04938 35.98519 8.04938 31.98519 Q8.04938 27.98519 8.04938 23.98519 Q8.04938 19.91117 9.65511 16.28803 Q11.26084 12.66489 13.9358 9.87161 Q16.5037 7.19013 20.27152 5.61235 Q24.03934 4.03457 28 4.03457 Q32.07424 4.03457 35.78371 5.56022 Q39.49318 7.08587 42.16296 9.87161 Q44.77312 12.59515 46.41125 16.30984 Q48.04938 20.02453 48.04938 23.98519 z" />
<glyph unicode="P" horiz-adv-x="46" d="M9.86485 58.12528 Q12.56949 60.82992 16.37227 62.40508 Q20.17506 63.98025 24 63.98025 Q27.82494 63.98025 31.62772 62.40508 Q35.43051 60.82992 38.13515 58.12528 Q40.8398 55.42063 42.41496 51.61785 Q43.99012 47.81507 43.99012 43.99013 Q43.99012 40.16518 42.41496 36.3624 Q40.8398 32.55962 38.13515 29.85497 Q35.43051 27.15033 31.62773 25.57516 Q27.82494 24 24 24 Q20.17506 24 18 24 Q15.82494 24 12 24 Q10 24 9 23 Q8 22 8 20 Q8 14 8 10.0741 Q8 6.14821 8 2 Q8 0 6 0 Q4 0 4 2 Q4 6 4 22.99012 Q4 39.98025 4.00988 43.99013 Q4.0193 47.81506 5.58975 51.61784 Q7.1602 55.42063 9.86485 58.12528 zM8 43.98025 Q8 40 8 38 Q8 36 8 32 Q8 30 9 29 Q10 28 12 28 Q16 28 18.27225 27.99012 Q20.54451 27.98025 24 27.98025 Q27.45549 27.98025 30.162 29.1026 Q32.86851 30.22494 35.31191 32.66834 Q37.75531 35.11174 38.87766 37.81825 Q40 40.52476 40 43.98025 Q40 47.43574 38.87766 50.14225 Q37.75531 52.84876 35.31191 55.29216 Q32.86851 57.73556 30.162 58.85791 Q27.45549 59.98025 24 59.98025 Q20.54451 59.98025 17.838 58.85791 Q15.13149 57.73556 12.68809 55.29216 Q10.24469 52.84876 9.12234 50.14225 Q8 47.43574 8 43.98025 z" />
<glyph unicode="Q" horiz-adv-x="56" d="M44.95802 7.00741 Q41.79972 3.73554 37.20913 1.83651 Q32.61855 -0.06252 28 0 Q23.46964 0.06133 18.86025 1.87476 Q14.25087 3.6882 11.02716 7.00741 Q7.85884 10.26959 5.91539 14.6476 Q3.97195 19.0256 4.01481 23.98519 Q4.04938 27.98519 4.02469 31.99259 Q4 36 4 40 Q4 44.68148 5.90699 49.19095 Q7.81398 53.70041 11.09136 56.97778 Q14.24966 60.13607 18.8474 62.09272 Q23.44514 64.04938 27.95062 64.04938 Q32.56968 64.04938 37.18832 62.06363 Q41.80695 60.07787 44.90864 56.97778 Q48.2478 53.64034 50.1239 49.16091 Q52 44.68148 52 40 Q52 36 52.02865 31.99263 Q52.05729 27.98525 52.08395 23.98519 Q52.117 19.02553 50.14431 14.68104 Q48.17161 10.33656 44.95802 7.00741 zM48.04938 23.98519 Q48.04938 27.98519 48.02469 31.99259 Q48 36 48 40 Q48 44.04444 46.37539 47.76924 Q44.75078 51.49403 42.11358 54.11358 Q39.37863 56.83022 35.70174 58.42251 Q32.02486 60.01481 27.95062 60.01481 Q23.98996 60.01481 20.32445 58.46015 Q16.65894 56.9055 13.77284 54 Q11.17896 51.38869 9.58384 47.69898 Q7.98871 44.00928 8 40 Q8 36 8.02469 31.99259 Q8.04938 27.98519 8.04938 23.98519 Q8.04938 19.91117 9.65511 16.28803 Q11.26084 12.66489 13.9358 9.87161 Q16.5037 7.19013 20.27152 5.61235 Q24.03934 4.03457 28 4.03457 Q32.07424 4.03457 35.78371 5.56022 Q39.49318 7.08587 42.16296 9.87161 Q44.77312 12.59515 46.41125 16.30984 Q48.04938 20.02453 48.04938 23.98519 zM51.21262 3.53559 Q52.62733 2.12187 51.21361 0.70716 Q49.79989 -0.70755 48.38519 0.70617 Q47.00585 2.08455 42.1143 6.97411 Q37.22276 11.86366 35.80805 13.27738 Q34.39335 14.6911 35.80707 16.1058 Q37.22079 17.52051 38.63549 16.10679 Q40.0502 14.69308 44.92406 9.82119 Q49.79792 4.94931 51.21262 3.53559 z" />
<glyph unicode="R" horiz-adv-x="42" d="M32 47.89884 Q32 50.18919 31.0568 52.46628 Q30.1136 54.74337 28.49407 56.3629 Q26.87454 57.98243 24.59745 58.92563 Q22.32036 59.86884 20.03 59.86884 Q17.73964 59.86884 15.46255 58.92564 Q13.18546 57.98244 11.56593 56.3629 Q9.94641 54.74337 9.0032 52.46628 Q8.06 50.18919 8.06 47.89884 Q8.06 45.60848 8.03 44.75366 Q8 43.89884 8 39.89884 Q8 37.89884 9 36.89884 Q10 35.89884 12 35.89884 Q16 35.89884 17.49139 35.9061 Q18.98278 35.91337 20.03 35.92884 Q22.32011 35.96268 24.59733 36.88895 Q26.87454 37.81523 28.49407 39.43477 Q30.11359 41.0543 31.05679 43.33139 Q32 45.60848 32 47.89884 zM31.36492 36.56392 Q30.92207 36.08637 30.23805 35.41747 Q29.55402 34.74858 29.15899 34.38946 Q28.68139 33.94032 28.72297 33.59637 Q28.76455 33.25242 29.13726 32.86274 Q29.65492 32.34511 30.35818 31.64184 Q31.06144 30.93856 32 30 Q34.87247 27.10848 36.43624 23.46855 Q38 19.82862 38 16 Q38 12 38 8 Q38 4 38 2 Q38 0 36 0 Q34 0 34 2 Q34 4 34 8.27389 Q34 12.54778 34 16 Q34 19.54352 32.8195 22.11727 Q31.639 24.69102 29.09556 27.18685 Q26.44353 29.76309 24.23474 30.84259 Q22.02594 31.92208 18 32 Q16.00037 32.0387 15.00018 32.01935 Q14 32 12 32 Q10 32 9 31 Q8 30 8 28 Q8 26 8 15 Q8 4 8 2 Q8 0 6 0 Q4 0 4 2 Q4 4 4 18 Q4 32 4 34 Q4 36 4 40.41582 Q4 44.83163 4 47.89884 Q4 50.55121 5.21256 53.85606 Q6.42512 57.16091 8.62114 59.33102 Q10.79861 61.51196 13.78243 62.72039 Q16.76626 63.92883 20.03 63.92883 Q23.09721 63.92883 26.14665 62.66572 Q29.19608 61.40261 31.36492 59.23376 Q33.53376 57.06491 34.79688 54.01547 Q36.06 50.96604 36.06 47.89884 Q36.06 44.83163 34.75525 41.82228 Q33.4505 38.81294 31.36492 36.56392 z" />
<glyph unicode="S" horiz-adv-x="44" d="M36 16.82469 Q36 19.33406 35.16493 21.74009 Q34.32985 24.14612 32.43457 26.28148 Q30.73695 28.04505 28.02854 29.00795 Q25.32013 29.97085 23.78965 29.95556 Q22.8414 29.95556 22.07011 29.95556 Q21.29883 29.95556 20.49082 29.95556 Q17.9988 29.95556 14.49024 31.10715 Q10.98169 32.25873 8.79316 34.83453 Q6.1397 37.90526 5.05348 40.81455 Q3.96726 43.72383 4 46.97778 Q4 50.4269 5.07482 53.55412 Q6.14964 56.68135 8.79316 59.29265 Q11.60299 61.98176 15.11404 63.03378 Q18.62509 64.08581 22 64 Q26 64 28 64 Q30 64 34 64 Q36 64 36 62 Q36 60 34 60 Q30 60 28 60 Q26 60 22 60 Q19.5637 60.08581 16.5923 59.18883 Q13.62089 58.29186 11.56543 56.43457 Q9.71014 54.67816 8.81217 52.08443 Q7.91419 49.49071 8 46.97778 Q8 44.50155 9.11114 42.02039 Q10.22228 39.53922 11.80518 37.64086 Q13.46283 35.61571 16.17468 34.80143 Q18.88653 33.98716 20.49082 33.95556 Q21.36895 33.95556 22.10518 33.95556 Q22.8414 33.95556 23.78965 33.95556 Q26.28489 34.02369 29.62923 32.77959 Q32.97357 31.53549 35.20684 28.96794 Q37.77956 26.12684 38.88978 23.15174 Q40 20.17663 40 16.82469 Q40 13.4595 38.98094 10.30304 Q37.96187 7.14659 35.37846 4.70427 Q32.5194 1.92538 28.96228 0.96269 Q25.40517 0 22 0 Q18 0 14 0 Q10 0 6 0 Q4 0 4 2 Q4 4 6 4 Q10 4 14 4 Q18 4 22 4 Q24.55902 4.12201 27.45262 4.90434 Q30.34621 5.68667 32.19482 7.71629 Q34.12929 9.66007 35.06465 12.03326 Q36 14.40645 36 16.82469 z" />
<glyph unicode="T" horiz-adv-x="56" d="M26 2 Q26 8 26 30 Q26 52 26 56 Q26 58 25 59 Q24 60 22 60 Q20 60 14 60 Q8 60 4 60 Q2 60 2 62 Q2 64 4 64 Q8 64 28 64 Q48 64 52 64 Q54 64 54 62 Q54 60 52 60 Q48 60 42 60 Q36 60 34 60 Q32 60 31 59 Q30 58 30 56 Q30 52 30 30 Q30 8 30 2 Q30 0 28 0 Q26 0 26 2 z" />
<glyph unicode="U" horiz-adv-x="52" d="M48 22 Q48 18 46.59007 13.53107 Q45.18015 9.06213 42.17555 5.91222 Q39.03855 2.67285 34.68348 1.31727 Q30.3284 -0.03831 26 0 Q21.66 -0.01354 17.31222 1.31869 Q12.96444 2.65092 9.77284 5.88642 Q6.77753 9.06795 5.38877 13.47902 Q4 17.8901 4 22 Q4 26 4 43 Q4 60 4 62 Q4 64 6 64 Q8 64 8 62 Q8 60 8 43 Q8 26 8 22 Q8 18.36645 9.17037 14.84249 Q10.34074 11.31852 12.63704 8.75062 Q15.09136 6.22716 18.82825 5.11358 Q22.56514 4 26 4 Q29.42716 3.8716 33.13877 5.05868 Q36.85037 6.24576 39.34321 8.75062 Q41.62469 11.34321 42.81235 14.87408 Q44 18.40494 44 22 Q44 26 44 43 Q44 60 44 62 Q44 64 46 64 Q48 64 48 62 Q48 60 48 43 Q48 26 48 22 z" />
<glyph unicode="V" horiz-adv-x="52" d="M22.46392 2 Q20 8 12.13676 31.10864 Q4.27353 54.21728 2.27353 60.21728 Q1.30654 63.01055 3.40718 63.67535 Q5.50781 64.34015 6.27353 62.21728 Q8.27353 56.21728 15.18318 35.15159 Q22.09284 14.0859 24 8 Q24.43883 6.7379 24.87122 5.70432 Q25.3036 4.67073 26 4.67033 Q26.68247 4.67033 27.13725 5.66496 Q27.59204 6.65958 28 8 Q29.8938 14.10719 36.85307 35.16224 Q43.81235 56.21728 45.81235 62.21728 Q46.61367 64.28808 48.66346 63.63957 Q50.71325 62.99107 49.81235 60.21728 Q47.81235 54.21728 39.90617 31.10864 Q32 8 29.53608 2 Q28.76082 0.62062 27.83797 0.31031 Q26.91512 0 26 0 Q25.08488 0 24.16203 0.32964 Q23.23918 0.65928 22.46392 2 z" />
<glyph unicode="W" horiz-adv-x="78" d="M22.5775 2 Q20.01189 8 12.07609 31.15308 Q4.14029 54.30617 2.24198 60.30617 Q1.27499 63.09944 3.42254 63.76424 Q5.57008 64.42904 6.24198 62.30617 Q8.14029 56.30617 15.11657 35.19603 Q22.09284 14.0859 24 8 Q24.43883 6.7379 24.87122 5.70961 Q25.3036 4.68132 26 4.66775 Q26.68247 4.66775 27.13725 5.66366 Q27.59204 6.65958 28 8 Q29.89069 14.11691 31.31808 18.39076 Q32.74546 22.66462 34.50175 28.02021 Q34.6553 28.48845 34.78038 28.80735 Q34.90545 29.12625 35.36145 29.92238 Q37.07148 31.92238 39.93969 31.92238 Q42.8079 31.92238 44.57493 29.92234 Q45.06727 29.10067 45.18601 28.77528 Q45.30475 28.44989 45.46467 27.96922 Q47.24141 22.62875 48.67909 18.35199 Q50.11678 14.07523 52 8 Q52.42922 6.7358 52.86505 5.69707 Q53.30087 4.65835 53.99579 4.65835 Q54.67028 4.65835 55.12442 5.65974 Q55.57856 6.66112 55.99579 8 Q57.8936 14.10219 63.86447 35.20418 Q69.83535 56.30617 71.74363 62.30617 Q72.62236 64.37748 74.62766 63.73016 Q76.63297 63.08285 75.71852 60.30617 Q73.83535 54.30617 66.92635 31.15308 Q60.01735 8 57.52765 2 Q56.77359 0.61317 55.84306 0.30658 Q54.91253 0 53.99579 0 Q53.07604 0 52.19865 0.32131 Q51.32126 0.64262 50.56403 2 Q48 8 46.58806 11.98618 Q45.17612 15.97237 43.81437 20 Q43.50189 20.96169 42.47713 24.05863 Q41.45237 27.15556 40.06494 27.15556 Q38.65467 27.15556 37.56204 23.99471 Q36.46941 20.83386 36.1876 20 Q34.84508 16.02761 33.42254 12.0138 Q32 8 29.54407 2 Q28.76881 0.62062 27.84196 0.31031 Q26.91512 0 26 0 Q25.08488 0 24.21882 0.32964 Q23.35276 0.65928 22.5775 2 z" />
<glyph unicode="X" horiz-adv-x="54" d="M7.71611 1.08663 Q6.26179 -0.53184 4.78007 0.68545 Q3.29835 1.90274 4.47916 3.42737 Q5.68842 4.98873 12.67384 15.03758 Q19.65926 25.08643 24.11358 31.08643 Q24.42688 31.56232 24.41963 32.0872 Q24.41238 32.61209 24.11358 33.08643 Q19.65926 39.08643 12.82129 48.98001 Q5.98333 58.8736 4.72164 60.59108 Q3.28581 62.66743 4.8996 63.72271 Q6.5134 64.77799 7.73333 63.05679 Q8.81245 61.45046 15.23586 52.26844 Q21.65926 43.08643 26.11358 37.08643 Q26.56188 36.41282 27.03911 36.40928 Q27.51634 36.40574 28 37.08643 Q32.45432 43.08643 38.81019 52.29451 Q45.16605 61.50258 46.38516 63.25926 Q47.61232 64.87773 49.11721 63.70736 Q50.62209 62.53699 49.28135 60.69136 Q48.35664 59.4223 41.40548 49.25437 Q34.45432 39.08643 30 33.08643 Q29.70909 32.62455 29.69512 32.09658 Q29.68115 31.5686 30 31.08643 Q34.45432 25.08643 41.31335 15.25818 Q48.17237 5.42993 49.34815 3.84692 Q50.82539 1.66964 49.37411 0.55606 Q47.92284 -0.55752 46.35655 1.27902 Q45.02169 2.93354 38.73801 12.00998 Q32.45432 21.08643 28 27.08643 Q27.51603 27.76839 27.05417 27.77158 Q26.59231 27.77477 26.11358 27.08643 Q22.32593 21.23951 15.58783 11.86525 Q8.84973 2.49098 7.71611 1.08663 z" />
<glyph unicode="Y" horiz-adv-x="52" d="M48 48 Q48 44 46.59007 39.53107 Q45.18015 35.06213 42.17555 31.91222 Q39.36684 29.01185 36.56676 27.67615 Q33.76667 26.34044 29.88642 26.11358 Q28 26 28 25 Q28 24 28 20 Q28 16 28 10.29285 Q28 4.58571 28 2 Q28 0 26 0 Q24 0 24 2 Q24 4.6 24 10.3 Q24 16 24 20 Q24 24 24 25 Q24 26 22.11358 26.11358 Q18.32713 26.40196 15.44167 27.73336 Q12.55621 29.06476 9.77284 31.88642 Q6.77753 35.06795 5.38877 39.47902 Q4 43.8901 4 48 Q4 52 4 56 Q4 60 4 62 Q4 64 6 64 Q8 64 8 62 Q8 60 8 56 Q8 52 8 48 Q8 44.36645 9.17037 40.84249 Q10.34074 37.31852 12.63704 34.75062 Q15.09136 32.22716 18.82825 31.11358 Q22.56514 30 26 30 Q29.42716 29.98518 33.13877 31.11547 Q36.85037 32.24576 39.34321 34.75062 Q41.62469 37.34321 42.81235 40.87408 Q44 44.40494 44 48 Q44 52 44 56 Q44 60 44 62 Q44 64 46 64 Q48 64 48 62 Q48 60 48 56 Q48 52 48 48 z" />
<glyph unicode="Z" horiz-adv-x="60" d="M18 4 Q22 4 36 4 Q50 4 54 4 Q56 4 56 2 Q56 0 54 0 Q50 0 32 0 Q14 0 10 0 Q6.284 0.19212 5.142 1.586 Q4 2.97987 4 6 Q4.18765 9.24938 13.09383 18.62469 Q22 28 28 34 Q34 40 42.48882 47.86412 Q50.97763 55.72824 51.35294 57.72824 Q51.38526 59.72824 48.69263 59.86412 Q46 60 42 60 Q38 60 24 60 Q10 60 6 60 Q4 60 4 62 Q4 64 6 64 Q10 64 28 64 Q46 64 50 64 Q53.77284 64 54.88642 62.51006 Q56 61.02013 56 58 Q55.81235 54.75062 45.90617 45.37531 Q36 36 30 30 Q24 24 16.51118 16.13588 Q9.02237 8.27176 8.64706 6.27176 Q8.61474 4.27176 11.30737 4.13588 Q14 4 18 4 z" />
<glyph unicode="[" horiz-adv-x="20" d="M14 64 Q10 64 9 64 Q8 64 8 62 Q8 60 8 32 Q8 4 8 2 Q8 0 9 0 Q10 0 14 0 Q16 0 16 -2 Q16 -4 14 -4 Q12 -4 8 -4 Q4 -4 4 0 Q4 4 4 32 Q4 60 4 64 Q4 68 8 68 Q12 68 14 68 Q16 68 16 66 Q16 64 14 64 z" />
<glyph unicode="\" horiz-adv-x="46" d="M4.38712 60.92454 Q3.38773 62.65694 5.12013 63.65634 Q6.85253 64.65573 7.85192 62.92333 Q8.85132 61.19093 15.80177 48.84303 Q22.75221 36.49514 24.751 33.03034 Q26.74979 29.56554 33.70385 17.23114 Q40.65792 4.89674 41.65732 3.16434 Q42.65672 1.43195 40.92431 0.43255 Q39.19191 -0.56685 38.19252 1.16555 Q37.19312 2.89795 30.23906 15.23235 Q23.28499 27.56675 21.28982 31.04504 Q19.28741 34.49634 12.33696 46.84424 Q5.38652 59.19214 4.38712 60.92454 z" />
<glyph unicode="]" horiz-adv-x="20" d="M6 68 Q8 68 12 68 Q16 68 16 64 Q16 60 16 32 Q16 4 16 0 Q16 -4 12 -4 Q8 -4 6 -4 Q4 -4 4 -2 Q4 0 6 0 Q10 0 11 0 Q12 0 12 2 Q12 4 12 32 Q12 60 12 62 Q12 64 11 64 Q10 64 6 64 Q4 64 4 66 Q4 68 6 68 z" />
<glyph unicode="^" horiz-adv-x="28" d="M13.9986 68 Q14.91372 68.00032 15.83668 67.69033 Q16.75964 67.38034 17.53538 66.00123 Q20.11358 60 20.88642 58 Q21.65926 56 23.9993 50.0014 Q25.12833 47.00076 23.01221 46.13674 Q20.8961 45.27272 20 48 Q17.77284 54 17.77284 54 Q17.77284 54 15.54708 59.88712 Q15.13865 61.11382 14.79698 61.99407 Q14.45531 62.87432 14 62.87408 Q13.53076 62.87343 13.21244 61.95391 Q12.89411 61.03439 12.45572 59.88572 Q10.22716 54 10.22612 54.00035 Q10.22507 54.0007 8 48 Q7.14139 45.31387 4.97376 46.14585 Q2.80613 46.97784 3.9993 49.9986 Q6.33795 55.9993 7.11289 57.9986 Q7.88782 59.99791 10.46322 65.99877 Q11.23801 67.33976 12.16075 67.66972 Q13.08348 67.99968 13.9986 68 z" />
<glyph unicode="_" horiz-adv-x="48" d="M24 0 Q19.99012 -0.00988 13.99506 -0.00494 Q8 0 6 0 Q4 0 4 2 Q4 4 6 4 Q8 4 13.99506 3.99506 Q19.99012 3.99012 23.99012 3.99012 Q27.99012 3.99012 33.99506 3.99506 Q40 4 42 4 Q44 4 44 2 Q44 0 42 0 Q40 0 33.99506 -0.00494 Q27.99012 -0.00988 24 0 z" />
<glyph unicode="`" horiz-adv-x="22" d="M17.27879 53.51386 Q18.69498 52.10163 17.28274 50.68544 Q15.87051 49.26925 14.45432 50.68149 Q13.07354 52.05842 9.59877 55.52524 Q6.124 58.99206 4.70782 60.40429 Q3.29163 61.81653 4.70387 63.23272 Q6.11611 64.64891 7.53229 63.23667 Q8.94848 61.82443 12.40554 58.37527 Q15.86261 54.9261 17.27879 53.51386 z" />
<glyph unicode="a" horiz-adv-x="46" d="M36.08215 5.85497 Q33.37751 3.15033 29.57472 1.57517 Q25.77194 0 21.947 0 Q18.12206 0 14.31927 1.57517 Q10.51649 3.15033 7.81185 5.85497 Q5.1072 8.55962 3.53204 12.3624 Q1.95688 16.16518 1.95688 19.99013 Q1.95688 23.81507 3.53204 27.61785 Q5.1072 31.42063 7.81185 34.12528 Q10.51649 36.82992 14.31927 38.40508 Q18.12206 39.98025 21.947 39.98025 Q25.77194 39.98025 29.57472 38.40508 Q33.37751 36.82992 36.08215 34.12528 Q38.7868 31.42063 40.36219 27.6129 Q41.93758 23.80518 41.947 19.98025 Q41.95688 15.97037 41.97844 9.98519 Q42 4 42 2 Q42 0 40 0 Q38 0 38 2 Q38 3.35833 38 3.9759 Q38 4.59347 38 6 Q38 8 37.08985 6.97626 Q36.1797 5.95252 36.08215 5.85497 zM33.2531 31.28635 Q31.11306 33.43124 28.06431 34.66705 Q25.01556 35.90286 21.947 35.90286 Q18.87844 35.90286 15.86431 34.63871 Q12.85018 33.37455 10.70115 31.2261 Q8.54868 29.07421 7.24784 26.06151 Q5.947 23.04881 5.947 19.98025 Q5.947 16.91169 7.2345 13.84656 Q8.522 10.78143 10.63509 8.66834 Q12.81424 6.48919 15.84634 5.23472 Q18.87844 3.98025 21.947 3.98025 Q25.01556 3.98025 28.03558 5.23957 Q31.0556 6.49889 33.22255 8.65408 Q35.41374 10.83338 36.68037 13.87253 Q37.947 16.91169 37.947 19.98025 Q37.947 23.1262 36.69443 26.10941 Q35.44186 29.09262 33.2531 31.28635 z" />
<glyph unicode="b" horiz-adv-x="46" d="M9.86485 34.12528 Q12.56949 36.82992 16.37227 38.40508 Q20.17506 39.98025 24 39.98025 Q27.82494 39.98025 31.62772 38.40508 Q35.43051 36.82992 38.13515 34.12528 Q40.8398 31.42063 42.41496 27.61785 Q43.99012 23.81507 43.99012 19.99012 Q43.99012 16.16518 42.41496 12.3624 Q40.8398 8.55962 38.13515 5.85497 Q35.43051 3.15033 31.62773 1.57517 Q27.82494 0 24 0 Q20.17506 0 16.37227 1.57517 Q12.56949 3.15033 9.86485 5.85497 Q7.1602 8.55962 5.58481 12.36735 Q4.00942 16.17507 4 20 Q3.99012 24.00988 3.99506 41.00494 Q4 58 4 62 Q4 64 6 64 Q8 64 8 62 Q8 57.85179 8 48.92589 Q8 40 8 34 Q8 32 8.88503 33.01524 Q9.77006 34.03049 9.86485 34.12528 zM12.6939 8.6939 Q14.83394 6.54901 17.88269 5.3132 Q20.93144 4.07739 24 4.07739 Q27.06856 4.07739 30.08269 5.34154 Q33.09682 6.6057 35.24585 8.75415 Q37.39832 10.90604 38.69916 13.91874 Q40 16.93144 40 20 Q40 23.06856 38.7125 26.13369 Q37.425 29.19882 35.31191 31.31191 Q33.13276 33.49106 30.10066 34.74553 Q27.06856 36 24 36 Q20.93144 36 17.91142 34.74068 Q14.8914 33.48136 12.72445 31.32617 Q10.53326 29.14688 9.26663 26.10772 Q8 23.06856 8 20 Q8 16.85405 9.25257 13.87084 Q10.50514 10.88763 12.6939 8.6939 z" />
<glyph unicode="c" horiz-adv-x="36" d="M30 40 Q32 40 32 38 Q32 36 30 36 Q28 36 26 36 Q24 36 21.90617 36 Q18.36049 36 15.79259 34.82963 Q13.22469 33.65926 10.70123 31.09136 Q8.36049 28.68148 7.13333 26.11358 Q5.90617 23.54568 5.90617 20 Q5.90617 16.45432 7.07654 13.82963 Q8.24691 11.20494 10.58765 8.79506 Q13.28096 6.3059 15.89666 5.19986 Q18.51236 4.09383 21.90617 4 Q24 4 26 4 Q28 4 30 4 Q32 4 32 2 Q32 0 30 0 Q28 0 26 0 Q24 0 21.91605 0.00988 Q18.00003 0.02845 14.51606 1.40435 Q11.0321 2.78025 7.78089 5.86485 Q5.00609 8.49746 3.466 12.33626 Q1.92592 16.17506 1.92592 20 Q1.92592 23.82494 3.47464 27.65469 Q5.02336 31.48445 7.78089 34.13515 Q10.7127 36.95338 14.40192 38.46268 Q18.09114 39.97199 21.91605 39.99012 Q24 40 26 40 Q28 40 30 40 z" />
<glyph unicode="d" horiz-adv-x="46" d="M38 34 Q38 40 38 48.92589 Q38 57.85179 38 62 Q38 64 40 64 Q42 64 42 62 Q42 58 42.00494 41.00494 Q42.00988 24.00988 42 20 Q41.99058 16.17507 40.41519 12.36735 Q38.8398 8.55962 36.13515 5.85497 Q33.43051 3.15033 29.62773 1.57517 Q25.82494 0 22 0 Q18.17506 0 14.37227 1.57517 Q10.56949 3.15033 7.86485 5.85497 Q5.1602 8.55962 3.58504 12.3624 Q2.00988 16.16518 2.00988 19.99012 Q2.00988 23.81507 3.58504 27.61785 Q5.1602 31.42063 7.86485 34.12528 Q10.56949 36.82992 14.37227 38.40508 Q18.17506 39.98025 22 39.98025 Q25.82494 39.98025 29.62772 38.40508 Q33.43051 36.82992 36.13515 34.12528 Q36.24207 34.01836 37.12104 33.00918 Q38 32 38 34 zM38 20 Q38 23.06856 36.73337 26.10772 Q35.46674 29.14688 33.27555 31.32617 Q31.1086 33.48136 28.08858 34.74068 Q25.06856 36 22 36 Q18.93144 36 15.89934 34.74553 Q12.86724 33.49106 10.68809 31.31191 Q8.575 29.19882 7.2875 26.13369 Q6 23.06856 6 20 Q6 16.93144 7.30084 13.91874 Q8.60168 10.90604 10.75415 8.75415 Q12.90318 6.6057 15.91731 5.34154 Q18.93144 4.07739 22 4.07739 Q25.06856 4.07739 28.11731 5.3132 Q31.16606 6.54901 33.3061 8.6939 Q35.49486 10.88763 36.74743 13.87084 Q38 16.85405 38 20 z" />
<glyph unicode="e" horiz-adv-x="44" d="M7.85497 34.13515 Q10.55341 36.84597 14.35929 38.41805 Q18.16518 39.99012 21.99012 39.99012 Q25.81506 39.99012 29.61784 38.41496 Q33.42063 36.83979 36.12527 34.13515 Q38.82992 31.4305 40.41496 28.16287 Q42 24.89524 42 21.0703 Q42 19.78384 41.10808 18.89192 Q40.21616 18 38.9297 18 Q34 18 29 18 Q24 18 22 18 Q20.01954 18 17.00977 18 Q14 18 9.64323 18 Q8.35677 18 7.50018 18 Q6.64358 18 6.6058 16.89192 Q6.6058 14.89192 7.74886 12.82162 Q8.89192 10.75131 10.84055 8.75059 Q13.09654 6.35381 15.80098 5.1769 Q18.50542 4 22 4 Q25.43704 4 31.71852 4 Q38 4 40 4 Q42 4 42 2 Q42 0 40 0 Q38 0 32 0 Q26 0 22 0 Q18 0 14.42278 1.62162 Q10.84556 3.24325 8 6 Q5.15444 8.75675 3.57722 12.37838 Q2 16 2 20 Q2 24 3.55404 27.68783 Q5.10808 31.37566 7.85497 34.13515 zM22 22 Q24.0099 22 29.00495 22 Q34 22 35.64323 22 Q36 22 36.81668 22.09413 Q37.63335 22.18825 37.63335 22.85038 Q37.63335 24.28741 36.69433 26.57302 Q35.75531 28.85863 33.31191 31.30203 Q30.86851 33.74543 28.162 34.86777 Q25.45549 35.99012 22 35.99012 Q18.54451 35.99012 15.64722 34.68358 Q12.74992 33.37705 10.68809 31.30203 Q9.02736 29.63068 7.79581 27.40904 Q6.56427 25.1874 6.55439 23.19727 Q6.55439 22 7.45558 22 Q8.35677 22 9.64323 22 Q14 22 17 22 Q20 22 22 22 z" />
<glyph unicode="f" horiz-adv-x="36" d="M14 32 Q14 34 10 34 Q6 34 4 34 Q2 34 2 36 Q2 38 4 38 Q6 38 10 38 Q14 38 14 40 Q14 41.31987 14 42 Q14 42.68013 14 44 Q14 48 15.52007 51.63148 Q17.04014 55.26295 19.88458 58.10739 Q23.09795 61.29713 26.54898 62.64857 Q30 64 32 64 Q34 64 34 62 Q34 60 32 60 Q30.72293 60 27.95507 58.81234 Q25.18721 57.62469 22.65679 55.24938 Q20.26173 52.77037 19.13086 50.18272 Q18 47.59506 18 44 Q18 42.68013 18 42 Q18 41.31987 18 40 Q18 38 22 38 Q26 38 28 38 Q30 38 30 36 Q30 34 28 34 Q26 34 22 34 Q18 34 18 32 Q18 28 18 16 Q18 4 18 2 Q18 0 16 0 Q14 0 14 2 Q14 4 14 16 Q14 28 14 32 z" />
<glyph unicode="g" horiz-adv-x="44" d="M41.99012 19.99013 Q41.99672 17.30961 41.99836 13.31556 Q42 9.32151 42 0 Q42 -4 40.42278 -7.62162 Q38.84556 -11.24325 36 -14 Q33.15444 -16.75675 29.57722 -18.37838 Q26 -20 22 -20 Q18 -20 14 -20 Q10 -20 8 -20 Q6 -20 6 -18 Q6 -16 8 -16 Q10 -16 14.32492 -16 Q18.64983 -16 22 -16 Q25.49458 -16 28.24361 -14.7785 Q30.99265 -13.557 33.24864 -11.16022 Q35.62381 -8.63684 36.81191 -6.09641 Q38 -3.55598 38 0 Q38 4 38 3.00988 Q38 2.01975 38 6 Q38 8 37.10824 6.96814 Q36.21647 5.93629 36.13515 5.85497 Q33.43051 3.15033 29.62773 1.57517 Q25.82494 0 22 0 Q18.17506 0 14.37227 1.57517 Q10.56949 3.15033 7.86485 5.85497 Q5.1602 8.55962 3.58504 12.3624 Q2.00988 16.16518 2.00988 19.99013 Q2.00988 23.81507 3.58504 27.61785 Q5.1602 31.42063 7.86485 34.12528 Q10.56949 36.82992 14.37227 38.40508 Q18.17506 39.98025 22 39.98025 Q25.82494 39.98025 29.62772 38.40508 Q33.43051 36.82992 36.13515 34.12528 Q38.8398 31.42063 40.41025 27.61784 Q41.9807 23.81506 41.99012 19.99013 zM6.00988 19.98025 Q6.00988 16.92355 7.26355 13.84974 Q8.51722 10.77592 10.68603 8.6564 Q12.88019 6.5121 15.91669 5.24617 Q18.95318 3.98025 22.00988 3.98025 Q25.06658 3.98025 28.10633 5.23959 Q31.14607 6.49894 33.32179 8.66834 Q35.41929 10.75975 36.71458 13.84165 Q38.00988 16.92355 38.00988 19.98025 Q38.00988 23.03695 36.6973 26.06601 Q35.38472 29.09508 33.23268 31.24231 Q31.08603 33.38417 28.07631 34.65729 Q25.06658 35.9304 22.00988 35.9304 Q18.95318 35.9304 15.89773 34.68344 Q12.84228 33.43647 10.69797 31.29216 Q8.50381 29.098 7.25684 26.11732 Q6.00988 23.13665 6.00988 19.98025 z" />
<glyph unicode="h" horiz-adv-x="48" d="M44 2 Q44 0 42 0 Q40 0 40 2 Q40 6 40 11 Q40 16 40 20 Q40 23.13971 38.75481 26.11013 Q37.50961 29.08055 35.2909 31.30471 Q33.18032 33.44591 30.13852 34.67307 Q27.09672 35.90023 24 35.90023 Q20.90328 35.90023 17.90445 34.63009 Q14.90563 33.35995 12.74518 31.26864 Q10.60521 29.07417 9.3026 26.06796 Q8 23.06175 8 20 Q8 16 8 11 Q8 6 8 2 Q8 0 6 0 Q4 0 4 2 Q4 6 4.00965 11.0826 Q4.0193 16.16519 4.00988 19.99012 Q4 24 4 42 Q4 60 4 62 Q4 64 6 64 Q8 64 8 62 Q8 60 8 48 Q8 36 8 34 Q8 32 8.88338 32.99272 Q9.76675 33.98544 9.86485 34.0968 Q12.414 36.99055 16.29453 38.4854 Q20.17506 39.98025 24 39.98025 Q27.82494 39.98025 31.63115 38.40851 Q35.43737 36.83677 38.13515 34.12528 Q40.85361 31.39301 42.41713 27.60403 Q43.98065 23.81506 43.99012 19.99012 Q44 16 44 11 Q44 6 44 2 z" />
<glyph unicode="i" horiz-adv-x="16" d="M10 20 Q10.00988 15.99012 10.00494 9.99506 Q10 4 10 2 Q10 0 8 0 Q6 0 6 2 Q6 4 6 10 Q6 16 6 20 Q6 24 6 30 Q6 36 6 38 Q6 40 8 40 Q10 40 10 38 Q10 36 10.00494 29.99506 Q10.00988 23.99012 10 20 zM10 54 Q10 52 8 52 Q6 52 6 54 Q6 55.95 6 57.975 Q6 60 6 62 Q6 64 8 64 Q10 64 10 62 Q10 60 10 58 Q10 56 10 54 z" />
<glyph unicode="j" horiz-adv-x="30" d="M24 0 Q24 -4 22.91847 -7.84425 Q21.83694 -11.68849 18.83234 -14.8384 Q16.3289 -17.323 12.16445 -18.6615 Q8 -20 4 -20 Q2 -20 2 -18 Q2 -16 4 -16 Q6.94412 -16 10.3826 -15.10037 Q13.82108 -14.20075 16 -12 Q18.28148 -9.40741 19.14074 -6.50124 Q20 -3.59506 20 0 Q20 2 20 19 Q20 36 20.00988 37.99012 Q20.00988 39.99012 22.00988 39.99012 Q24.00988 39.99012 24.00988 37.99012 Q24 36 24 19 Q24 2 24 0 zM24 54 Q24 52 22 52 Q20 52 20 54 Q20 55.95 20 57.975 Q20 60 20 62 Q20 64 22 64 Q24 64 24 62 Q24 60 24 58 Q24 56 24 54 z" />
<glyph unicode="k" horiz-adv-x="38" d="M36 2 Q36 0 34 0 Q32 0 32 2 Q32 6 32 7 Q32 8 32 12 Q32 15.54568 30.82963 18.11358 Q29.65926 20.68148 27.09136 23.20494 Q24.22716 26 22.11358 27 Q20 28 16 28 Q14 28 14 28 Q14 28 12 28 Q10 28 9 27 Q8 26 8 24 Q8 22 8 14 Q8 6 8 2 Q8 0 6 0 Q4 0 4 2 Q4 6 4 32 Q4 58 4 62 Q4 64 6 64 Q8 64 8 62 Q8 58 8 48 Q8 38 8 36 Q8 34 9 33 Q10 32 12 32 Q14 32 13.99995 32 Q13.9999 32 16 32 Q20 32 21.38454 32.12811 Q22.76907 32.25623 25.26898 34.66457 Q27.40223 36.88313 28.70111 39.44156 Q30 42 30 46 Q30 48 32 48 Q34 48 34 46 Q34 42 32.4655 38.42116 Q30.93099 34.84232 28 32 Q27.65246 31.64292 27.44606 31.44128 Q27.23965 31.23965 26.84812 30.84812 Q26.4527 30.47652 26.46461 30 Q26.47652 29.52348 26.84812 29.15188 Q27.61878 28.38122 27.80939 28.19061 Q28 28 30 26 Q32.87558 23.12442 34.43285 19.46974 Q35.99012 15.81507 35.99012 11.99012 Q35.99012 8.16518 35.99506 7.08259 Q36 6 36 2 z" />
<glyph unicode="l" horiz-adv-x="24" d="M4 62 Q4 64 6 64 Q8 64 8 62 Q8 60 8 51 Q8 42 8 39.77822 Q8 38 8 30 Q8 22 8 20 Q8 14.13233 8.54225 11.34817 Q9.0845 8.56401 10.21486 7.35309 Q11.43581 6.14303 13.73544 5.07151 Q16.03506 4 20 4 Q22 4 22 2 Q22 0 20 0 Q16 0 13 0.88911 Q10 1.77822 8 3.77822 Q6 5.77822 5 9.11232 Q4 12.44641 4 20 Q4 22 4 30 Q4 38 4 39.77822 Q4 42 4 51 Q4 60 4 62 z" />
<glyph unicode="m" horiz-adv-x="84" d="M12.79506 31.31852 Q10.59394 29.05726 9.29697 26.06734 Q8 23.07741 8 20 Q8 16 8 11 Q8 6 8 2 Q8 0 6 0 Q4 0 4 2 Q4 6 4.00965 11.0826 Q4.0193 16.16519 4.00988 19.99012 Q4 24 4 30 Q4 36 4 38 Q4 40 6 40 Q8 40 8 38 Q8 37.03614 8 36.44578 Q8 35.85542 8 34 Q8 32 8.88393 33.00796 Q9.76787 34.01591 9.86485 34.12528 Q12.40546 36.99046 16.29026 38.48536 Q20.17506 39.98025 24 39.98025 Q27.82494 39.98025 31.63473 38.40531 Q35.44452 36.83037 38.13515 34.12528 Q39.13212 33.12295 40.0661 31.93677 Q41.00008 30.75059 42 30.75062 Q42.99992 30.75059 43.8595 31.85315 Q44.71907 32.9557 45.861 34.09763 Q48.5659 36.84825 52.36986 38.42413 Q56.17381 40 60 40 Q63.82619 40 67.64392 38.4148 Q71.46166 36.82959 74.11845 34.11845 Q76.86907 31.41709 78.43453 27.60552 Q80 23.79395 80 20 Q80 16 80 11 Q80 6 80 2 Q80 0 78 0 Q76 0 76 2 Q76 6 76 11 Q76 16 76 20 Q76 23.13144 74.75498 26.10791 Q73.50995 29.08438 71.2703 31.3189 Q69.16776 33.45088 66.12528 34.66539 Q63.08281 35.87991 60 35.89572 Q56.92104 35.89572 53.92089 34.6185 Q50.92075 33.34128 48.74016 31.25451 Q46.61864 29.07393 45.30057 26.07059 Q43.9825 23.06725 43.99012 19.99012 Q44 16 44 11 Q44 6 44 2 Q44 0 42 0 Q40 0 40 2 Q40 6 40 11 Q40 16 40 20 Q40 23.15235 38.75096 26.11358 Q37.50193 29.07481 35.28802 31.28361 Q33.1928 33.46701 30.15291 34.69417 Q27.11302 35.92133 24 35.92133 Q20.88698 35.92133 17.90194 34.64628 Q14.9169 33.37122 12.79506 31.31852 z" />
<glyph unicode="n" horiz-adv-x="48" d="M44 2 Q44 0 42 0 Q40 0 40 2 Q40 6 40 11 Q40 16 40 20 Q40 23.13971 38.75481 26.11013 Q37.50961 29.08055 35.2909 31.30471 Q33.18032 33.44591 30.13852 34.67307 Q27.09672 35.90023 24 35.90023 Q20.90328 35.90023 17.90445 34.63009 Q14.90563 33.35995 12.74518 31.26864 Q10.60521 29.07417 9.3026 26.06796 Q8 23.06175 8 20 Q8 16 8 11 Q8 6 8 2 Q8 0 6 0 Q4 0 4 2 Q4 6 4.00494 11.08259 Q4.00988 16.16518 4.00988 19.99012 Q4.00988 22.15424 4.00494 29.07712 Q4 36 4 38 Q4 40 6 40 Q8 40 8 38 Q8 36 8 35.53086 Q8 35.06173 8 34 Q8 32 8.88338 32.99272 Q9.76675 33.98544 9.86485 34.0968 Q12.414 36.99055 16.29453 38.4854 Q20.17506 39.98025 24 39.98025 Q27.82494 39.98025 31.63115 38.40851 Q35.43737 36.83677 38.13515 34.12528 Q40.85361 31.39301 42.42187 27.60404 Q43.99012 23.81507 43.99012 19.99012 Q43.99012 16.16518 43.99506 11.08259 Q44 6 44 2 z" />
<glyph unicode="o" horiz-adv-x="44" d="M36.13166 5.85353 Q33.42768 3.14955 29.62584 1.57477 Q25.824 0 22 0 Q18.176 0 14.37417 1.57478 Q10.57233 3.14955 7.86834 5.85353 Q5.16436 8.5575 3.58958 12.35935 Q2.01481 16.16119 2.01481 19.98519 Q2.01481 23.80918 3.58958 27.61103 Q5.16435 31.41287 7.86834 34.11685 Q10.57232 36.82082 14.37416 38.3956 Q18.176 39.97037 22 39.97037 Q25.824 39.97037 29.62584 38.3956 Q33.42768 36.82083 36.13166 34.11685 Q38.83564 31.41287 40.41042 27.61102 Q41.98519 23.80918 41.98519 19.98519 Q41.98519 16.16119 40.41042 12.35935 Q38.83564 8.5575 36.13166 5.85353 zM37.95062 19.98519 Q37.95062 23.0372 36.69375 26.07153 Q35.43689 29.10587 33.27879 31.26397 Q31.12069 33.42208 28.08636 34.67894 Q25.05202 35.9358 22 35.9358 Q18.94798 35.9358 15.91365 34.67894 Q12.87932 33.42208 10.72121 31.26397 Q8.56311 29.10587 7.30624 26.07153 Q6.04938 23.0372 6.04938 19.98519 Q6.04938 16.93317 7.30625 13.89884 Q8.56311 10.8645 10.72121 8.7064 Q12.87931 6.54829 15.91364 5.29143 Q18.94798 4.03457 22 4.03457 Q25.05202 4.03457 28.08635 5.29143 Q31.12068 6.54829 33.27879 8.7064 Q35.43689 10.8645 36.69376 13.89884 Q37.95062 16.93317 37.95062 19.98519 z" />
<glyph unicode="p" horiz-adv-x="46" d="M8 6 Q8 0 8 -7 Q8 -14 8 -18 Q8 -20 6 -20 Q4 -20 4 -18 Q4 -14 3.99506 0.98518 Q3.99012 15.97037 4 19.98025 Q4.00942 23.80518 5.58481 27.61291 Q7.1602 31.42063 9.86485 34.12528 Q12.56949 36.82992 16.37227 38.40508 Q20.17506 39.98025 24 39.98025 Q27.82494 39.98025 31.62772 38.40508 Q35.43051 36.82992 38.13515 34.12528 Q40.8398 31.42063 42.41496 27.61785 Q43.99012 23.81507 43.99012 19.99013 Q43.99012 16.16518 42.41496 12.3624 Q40.8398 8.55962 38.13515 5.85497 Q35.43051 3.15033 31.62773 1.57517 Q27.82494 0 24 0 Q20.17506 0 16.37227 1.57516 Q12.56949 3.15033 9.86485 5.85497 Q9.75926 5.96056 8.87963 6.98028 Q8 8 8 6 zM8 19.98025 Q8 16.91169 9.26663 13.87253 Q10.53326 10.83338 12.72445 8.65408 Q14.8914 6.49889 17.91142 5.23957 Q20.93144 3.98025 24 3.98025 Q27.06856 3.98025 30.10066 5.23472 Q33.13276 6.48919 35.31191 8.66834 Q37.425 10.78143 38.7125 13.84656 Q40 16.91169 40 19.98025 Q40 23.04881 38.69916 26.06151 Q37.39832 29.07421 35.24585 31.2261 Q33.09682 33.37455 30.08269 34.63871 Q27.06856 35.90286 24 35.90286 Q20.93144 35.90286 17.88269 34.66705 Q14.83394 33.43124 12.6939 31.28635 Q10.50514 29.09262 9.25257 26.10941 Q8 23.1262 8 19.98025 z" />
<glyph unicode="q" horiz-adv-x="46" d="M36.13515 5.85497 Q33.43051 3.15033 29.62773 1.57517 Q25.82494 0 22 0 Q18.17506 0 14.37227 1.57517 Q10.56949 3.15033 7.86485 5.85497 Q5.1602 8.55962 3.58504 12.3624 Q2.00988 16.16518 2.00988 19.99013 Q2.00988 23.81507 3.58504 27.61785 Q5.1602 31.42063 7.86485 34.12528 Q10.56949 36.82992 14.37227 38.40508 Q18.17506 39.98025 22 39.98025 Q25.82494 39.98025 29.62772 38.40508 Q33.43051 36.82992 36.13515 34.12528 Q38.8398 31.42063 40.41519 27.6129 Q41.99058 23.80518 42 19.98025 Q42.00988 15.97037 42.00494 0.98519 Q42 -14 42 -18 Q42 -20 40 -20 Q38 -20 38 -18 Q38 -14 38 -7 Q38 0 38 6 Q38 8 37.1111 6.97101 Q36.2222 5.94202 36.13515 5.85497 zM33.3061 31.28635 Q31.16606 33.43124 28.11731 34.66705 Q25.06856 35.90286 22 35.90286 Q18.93144 35.90286 15.91731 34.63871 Q12.90318 33.37455 10.75415 31.2261 Q8.60168 29.07421 7.30084 26.06151 Q6 23.04881 6 19.98025 Q6 16.91169 7.2875 13.84656 Q8.575 10.78143 10.68809 8.66834 Q12.86724 6.48919 15.89934 5.23472 Q18.93144 3.98025 22 3.98025 Q25.06856 3.98025 28.08858 5.23957 Q31.1086 6.49889 33.27555 8.65408 Q35.46674 10.83338 36.73337 13.87253 Q38 16.91169 38 19.98025 Q38 23.1262 36.74743 26.10941 Q35.49486 29.09262 33.3061 31.28635 z" />
<glyph unicode="r" horiz-adv-x="26" d="M22.00988 35.99012 Q20.00988 35.99012 17.58007 34.85965 Q15.15026 33.72917 12.79506 31.31852 Q10.26495 28.84062 9.14837 26.14661 Q8.0318 23.45259 8 20 Q8 16 8 10 Q8 4 8 2 Q8 0 6 0 Q4 0 4 2 Q4 4 4.00986 10 Q4.01971 16 4.00988 19.99012 Q4 24 4 30 Q4 36 4 38 Q4 40 6 40 Q8 40 8 38 Q8 36 8 36 Q8 36 8 34 Q8 32 8.55326 32.68849 Q9.10652 33.37697 9.86485 34.12528 Q12.60355 36.82778 16.30672 38.40895 Q20.00988 39.99012 22.00988 39.99012 Q24.00988 39.99012 24.00988 37.99012 Q24.00988 35.99012 22.00988 35.99012 z" />
<glyph unicode="s" horiz-adv-x="32" d="M24 10.98642 Q24 14.36199 21.71041 16.18099 Q19.42081 18 17.05882 18 Q16 18 16 18 Q16 18 14.98642 18 Q10.2172 18 7.15975 21.0566 Q4.1023 24.11321 4 28.94118 Q4 33.71041 7.42081 36.85521 Q10.84162 40 15.01358 40 Q19.01358 40 19.50679 40 Q20 40 24 40 Q26 40 26 38 Q26 36 24 36 Q20 36 19.49321 36 Q18.98642 36 14.98642 36 Q12.67874 36 10.33937 34.18099 Q8 32.36199 8 29.01358 Q8 25.41192 10.25339 23.70596 Q12.50679 22 15.05249 21.94126 Q16 22 16.0362 22 Q16.0724 22 17.01358 22 Q21.42081 22 24.71041 18.8914 Q28 15.7828 28 11.05882 Q28 6.0724 24.55656 3.0362 Q21.11313 0 16.91402 0 Q12.91402 0 12.45701 0 Q12 0 8 0 Q6 0 6 2 Q6 4 8 4 Q12 4 12.50679 4 Q13.01358 4 17.01358 4 Q20.50679 4.0724 22.25339 6.18099 Q24 8.28959 24 10.98642 z" />
<glyph unicode="t" horiz-adv-x="34" d="M14 62 Q14 64 16 64 Q18 64 18 62 Q18 60 18 51 Q18 42 18 40 Q18 38 22 38 Q26 38 28 38 Q30 38 30 36 Q30 34 28 34 Q26 34 22 34 Q18 34 18 32 Q18 30 18 26.11089 Q18 22.22178 18 20.22178 Q18 14.35411 18.54225 11.56995 Q19.0845 8.78579 20.21486 7.57487 Q21.43581 6.36481 23.73544 5.18241 Q26.03506 4 30 4 Q32 4 32 2 Q32 0 30 0 Q26 0 23 1 Q20 2 18 4 Q16 6 15 9.33409 Q14 12.66819 14 20.22178 Q14 22.22178 14 26.11089 Q14 30 14 32 Q14 34 10 34 Q6 34 4 34 Q2 34 2 36 Q2 38 4 38 Q6 38 10 38 Q14 38 14 40 Q14 42 14 51 Q14 60 14 62 z" />
<glyph unicode="u" horiz-adv-x="48" d="M4 37.98025 Q4 39.98025 6 39.98025 Q8 39.98025 8 37.98025 Q8 36 8 30 Q8 24 8 19.98025 Q8 16.84054 9.24519 13.87012 Q10.49039 10.8997 12.7091 8.67554 Q14.81968 6.53434 17.86148 5.30718 Q20.90328 4.08002 24 4.08002 Q27.09672 4.08002 30.09555 5.35016 Q33.09437 6.6203 35.25482 8.71161 Q37.39479 10.90608 38.6974 13.91229 Q40 16.9185 40 19.98025 Q40 24 40 29.99012 Q40 35.98025 40 37.98025 Q40 39.98025 42 39.98025 Q44 39.98025 44 37.98025 Q44 35.98025 44 29.99012 Q44 24 43.99012 19.99013 Q43.98479 17.82602 43.99239 10.90313 Q44 3.98025 44 1.98025 Q44 -0.01975 42 -0.01975 Q40 -0.01975 40 1.98025 Q40 4 40 4.46914 Q40 4.93827 40 5.98025 Q40 7.98025 39.11662 6.98753 Q38.23325 5.99481 38.13515 5.88345 Q35.586 2.9897 31.70547 1.49485 Q27.82494 0 24 0 Q20.17506 0 16.36885 1.57174 Q12.56263 3.14348 9.86485 5.85497 Q7.14639 8.58724 5.58285 12.37622 Q4.0193 16.16519 4.00988 19.99013 Q4 24 4 30 Q4 36 4 37.98025 z" />
<glyph unicode="v" horiz-adv-x="40" d="M16.46392 2 Q14 8 10.14234 19 Q6.28467 30 4.28467 36 Q3.31768 38.79327 5.41832 39.45807 Q7.51895 40.12287 8.28467 38 Q10.28467 32 13.18876 23.04295 Q16.09284 14.0859 18 8 Q18.43883 6.7379 18.87122 5.69755 Q19.3036 4.65719 20 4.65679 Q20.68247 4.65679 21.13725 5.65819 Q21.59204 6.65958 22 8 Q23.8938 14.10719 26.80457 23.05359 Q29.71533 32 31.71533 38 Q32.51665 40.0708 34.56644 39.4223 Q36.61623 38.77379 35.71533 36 Q33.71533 30 29.85766 19 Q26 8 23.53608 2 Q22.76082 0.62062 21.83797 0.31031 Q20.91512 0 20 0 Q19.08488 0 18.16203 0.32964 Q17.23918 0.65928 16.46392 2 z" />
<glyph unicode="w" horiz-adv-x="68" d="M16.46392 2 Q14 8 10.14234 19 Q6.28467 30 4.28467 36 Q3.31768 38.79327 5.46523 39.45807 Q7.61277 40.12287 8.28467 38 Q10.28467 32 13.18876 23.04295 Q16.09284 14.0859 18 8 Q18.43883 6.7379 18.87122 5.70413 Q19.3036 4.67036 20 4.65679 Q20.68247 4.65679 21.13725 5.71992 Q21.59204 6.78304 22 8.12346 Q23.70283 13.73942 25.216 18.26375 Q26.72916 22.78808 28.48545 28.14367 Q28.639 28.61191 28.76408 28.93081 Q28.88915 29.24971 29.34515 30.04584 Q31.05518 32.04584 33.92786 32.04584 Q36.80054 32.04584 38.56757 30.0458 Q39.05991 29.22413 39.17865 28.89874 Q39.29739 28.57335 39.45731 28.09268 Q41.23405 22.75221 42.66218 18.42125 Q44.0903 14.0903 46 8 Q46.42922 6.7358 46.86715 5.6963 Q47.30508 4.65679 48 4.65679 Q48.67449 4.65679 49.12863 5.65895 Q49.58277 6.66112 50 8 Q51.89781 14.10219 54.80584 23.05109 Q57.71386 32 59.72383 38 Q60.60256 40.07131 62.60786 39.42399 Q64.61317 38.77668 63.69872 36 Q61.71386 30 57.85693 19 Q54 8 51.5103 2 Q50.75624 0.61317 49.83649 0.30658 Q48.91674 0 48 0 Q47.08025 0 46.09263 0.33329 Q45.10501 0.66658 44.43402 2.06708 Q42 8 40.56232 12.04791 Q39.12463 16.09583 37.76288 20.12346 Q37.4504 21.08515 36.41891 24.18209 Q35.38743 27.27902 34 27.27902 Q32.58973 27.27902 31.61649 24.11817 Q30.64324 20.95732 30.36143 20.12346 Q29.01891 16.15107 27.10956 11.16345 Q25.2002 6.17582 23.53608 2.12346 Q22.76082 0.74408 21.83797 0.37204 Q20.91512 0 20 0 Q19.08488 0 18.16203 0.32964 Q17.23918 0.65928 16.46392 2 z" />
<glyph unicode="x" horiz-adv-x="36" d="M7.90023 1.2027 Q6.8064 -0.43552 5.12126 0.51757 Q3.43612 1.47065 4.43612 3.2027 Q4.91426 4.03086 7.33268 7.85083 Q9.7511 11.6708 14.5271 19.31064 Q14.8404 19.78653 14.83028 20.03217 Q14.82016 20.27781 14.52136 20.75215 Q9.71091 28.38868 7.33242 32.1744 Q4.95393 35.96013 4.4873 36.76897 Q3.50579 38.50458 5.23316 39.50307 Q6.96054 40.50156 7.95331 38.78036 Q8.91885 37.17403 10.9758 33.89819 Q13.03275 30.62236 16.6377 24.84661 Q17.086 24.173 17.97716 24.16954 Q18.86832 24.16608 19.35198 24.84677 Q23.007 30.64449 25.30831 34.34629 Q27.60961 38.0481 28.03365 38.78256 Q29.03365 40.51461 30.7657 39.51461 Q32.49775 38.51461 31.49775 36.78256 Q31.02736 35.96782 28.63489 32.15303 Q26.24242 28.33823 21.45876 20.74311 Q21.16785 20.28123 21.15071 20.03915 Q21.13357 19.79706 21.45242 19.31489 Q26.20904 11.81965 28.40196 8.35553 Q30.59488 4.89141 31.5435 3.19482 Q32.56642 1.47186 30.87811 0.51878 Q29.1898 -0.43431 28.09758 1.19482 Q27.67136 1.9407 25.3207 5.67579 Q22.97003 9.41089 19.36207 15.19327 Q18.8781 15.87523 18.00356 15.87414 Q17.12901 15.87305 16.65028 15.18471 Q12.9969 9.39582 10.66854 5.68029 Q8.34019 1.96475 7.90023 1.2027 z" />
<glyph unicode="y" horiz-adv-x="48" d="M4 37.98025 Q4 39.98025 6 39.98025 Q8 39.98025 8 37.98025 Q8 36 8 30.00988 Q8 24.01975 8 20 Q8 16.86621 9.2476 13.87655 Q10.4952 10.88688 12.70269 8.67234 Q14.80612 6.50185 17.86562 5.28813 Q20.92512 4.07441 24 4.07441 Q27.12196 4.07441 30.11297 5.35216 Q33.10398 6.62991 35.20494 8.66173 Q37.38518 10.89166 38.69753 13.89261 Q40.00988 16.89356 40 19.98025 Q40 24 40 29.99012 Q40 35.98025 40 37.98025 Q40 39.98025 42 39.98025 Q44 39.98025 44 37.98025 Q44 35.98025 44 29.99012 Q44 24 43.99012 19.99013 Q43.98026 15.99009 43.99013 8.99505 Q44 2 44 0 Q44 -4 42.40103 -7.62125 Q40.80206 -11.2425 38 -14 Q35.15363 -16.75233 31.57682 -18.37617 Q28 -20 24 -20 Q16.95 -20 12.475 -20 Q8 -20 6 -20 Q4 -20 4 -18 Q4 -16 6 -16 Q8 -16 12.65104 -16 Q17.30208 -16 24 -16 Q27.47981 -16 30.22267 -14.76801 Q32.96554 -13.53601 35.2425 -11.15339 Q37.59897 -8.62382 38.79949 -6.0768 Q40 -3.52979 40 0 Q40 2 40 2.99012 Q40 3.98025 40 5.98025 Q40 7.98025 39.11347 6.96954 Q38.22694 5.95883 38.13515 5.85497 Q35.59726 2.98358 31.7111 1.49179 Q27.82494 0 24 0 Q20.17506 0 16.36483 1.56776 Q12.5546 3.13551 9.86485 5.85497 Q7.12999 8.62003 5.57465 12.39261 Q4.0193 16.16519 4.00988 19.99013 Q4 24 4 30 Q4 36 4 37.98025 z" />
<glyph unicode="z" horiz-adv-x="44" d="M18 4 Q22 4 28 4 Q34 4 38 4 Q40 4 40 2 Q40 0 38 0 Q34 0 24 0 Q14 0 10 0 Q6.05684 0.19212 5.02842 1.75637 Q4 3.32061 4 6 Q4.18765 9.24938 6.65679 11.62469 Q9.12593 14 18 20 Q26.87407 26 30.92585 28.86412 Q34.97763 31.72824 35.35294 33.72824 Q35.38526 35.72824 32.69263 35.86412 Q30 36 26 36 Q22 36 16 36 Q10 36 6 36 Q4 36 4 38 Q4 40 6 40 Q10 40 20 40 Q30 40 34 40 Q38 40 39 38.3397 Q40 36.67939 40 34 Q39.81235 30.75062 37.34321 28.37531 Q34.87407 26 26 20 Q17.12593 14 13.07415 11.13588 Q9.02237 8.27176 8.64706 6.27176 Q8.61474 4.27176 11.30737 4.13588 Q14 4 18 4 z" />
<glyph unicode="{" horiz-adv-x="36" d="M30 68 Q32 68 32 66 Q32 64 30 64 Q27.02222 64 23.93827 62.93827 Q20.85432 61.87654 17.99012 59.08148 Q15.59492 56.73917 14.35828 54.17818 Q13.12164 51.61718 13.19506 47.99012 Q13.20494 46 13.20494 40.88642 Q13.20494 35.77284 11.20494 33.77284 Q10.11358 32.68148 10.11358 32 Q10.11358 31.31852 11.20494 30.22716 Q13.20494 28.22716 13.20494 23.11358 Q13.20494 18 13.19506 15.99012 Q13.17763 12.44448 14.35672 9.81977 Q15.5358 7.19506 17.87654 4.78518 Q21.01049 1.88878 24.01635 0.94439 Q27.02222 0 30 0 Q32 0 32.00001 -1.99261 Q32.00002 -3.98522 30.00988 -3.99012 Q26 -4 22.16049 -2.61481 Q18.32098 -1.22963 15.06978 1.85497 Q12.29498 4.48758 10.73562 8.32641 Q9.17626 12.16523 9.19506 15.99012 Q9.20494 18 9.20494 19 Q9.20494 20 9.20494 22 Q9.20494 24 8.40988 26.22716 Q7.61481 28.45432 6.11358 29.09136 Q4.11358 30 4.11358 32 Q4.11358 34 6.11358 34.90864 Q7.61481 35.54568 8.40988 37.77284 Q9.20494 40 9.20494 42 Q9.20494 44 9.20494 45 Q9.20494 46 9.19506 47.99012 Q9.08628 52.09817 10.75828 55.82393 Q12.43027 59.54969 15.06978 62.12527 Q18.18343 65.16351 22.09172 66.58175 Q26 68 30 68 z" />
<glyph unicode="|" horiz-adv-x="16" d="M9.99012 36.00988 Q10 32 10 18 Q10 4 10 2 Q10 0 8 0 Q6 0 6 2 Q6 4 6 18 Q6 32 6 36 Q6 40 6 52 Q6 64 6 66 Q6 68 8 68 Q10 68 10 66 Q10 64 10 52 Q10 40 9.99012 36.00988 z" />
<glyph unicode="}" horiz-adv-x="36" d="M20.93022 62.12527 Q23.56973 59.54969 25.24172 55.82393 Q26.91372 52.09817 26.80494 47.99012 Q26.79506 46 26.79506 45 Q26.79506 44 26.79506 42 Q26.79506 40 27.59012 37.77284 Q28.38519 35.54568 29.88642 34.90864 Q31.88642 34 31.88642 32 Q31.88642 30 29.88642 29.09136 Q28.38519 28.45432 27.59012 26.22716 Q26.79506 24 26.79506 22 Q26.79506 20 26.79506 19 Q26.79506 18 26.80494 15.99012 Q26.82374 12.16523 25.26438 8.32641 Q23.70502 4.48758 20.93022 1.85497 Q17.67902 -1.22963 13.84445 -2.61975 Q10.00988 -4.00987 6 -4 Q4.00986 -3.9951 4.00987 -2.00249 Q4.00988 -0.00988 6.00988 -0.00988 Q8.98766 -0.00988 11.98859 0.93945 Q14.98951 1.88878 18.12346 4.78518 Q20.4642 7.19506 21.64328 9.81977 Q22.82237 12.44448 22.80494 15.99012 Q22.79506 18 22.79506 23.11358 Q22.79506 28.22716 24.79506 30.22716 Q25.88642 31.31852 25.88642 32 Q25.88642 32.68148 24.79506 33.77284 Q22.79506 35.77284 22.79506 40.88642 Q22.79506 46 22.80494 47.99012 Q22.87836 51.61718 21.64172 54.17818 Q20.40508 56.73917 18.00988 59.08148 Q15.14568 61.87654 12.06667 62.93333 Q8.98766 63.99012 6.00988 63.99012 Q4.00988 63.99012 4.00988 65.99012 Q4.00988 67.99012 6.00988 67.99012 Q10.00988 67.99012 13.91323 66.57682 Q17.81657 65.16351 20.93022 62.12527 z" />
<glyph unicode="~" horiz-adv-x="44" d="M22 27.56543 Q20 29.56543 18 30.78271 Q16 32 14 32 Q12 32 10 30.83704 Q8 29.67407 5.99012 27.66419 Q3.95186 26.51609 4.10091 28.73047 Q4.24996 30.94485 6 32.43457 Q8.24996 34.07571 9.88548 35.03785 Q11.52099 36 14 36 Q16.47901 36 18.22962 35.2074 Q19.98024 34.41481 21.99012 32.42469 Q24 30.43457 26 29.21729 Q28 28 30 28 Q32 28 34.00494 29.16791 Q36.00988 30.33581 38 32.32593 Q40.00988 33.46667 40.00494 31.51605 Q40 29.56543 37.99012 27.66419 Q36 25.67407 34.23951 24.83704 Q32.47901 24 30 24 Q27.52099 24 25.76049 24.78271 Q24 25.56543 22 27.56543 z" />
<glyph unicode="" horiz-adv-x="16" d="M6.00988 -0.00988 Q6 4 6 13 Q6 22 6 24 Q6 26 8 26 Q10 26 10 24 Q10 22 10 13 Q10 4 10 0 Q10 -4 10 -10 Q10 -16 10 -18 Q10 -20 8 -20 Q6 -20 6 -18 Q6 -16 6 -10 Q6 -4 6.00988 -0.00988 zM6 44 Q6 46 8 46 Q10 46 10 44 Q10 42.05 10 40.025 Q10 38 10 36 Q10 34 8 34 Q6 34 6 36 Q6 38 6 40 Q6 42 6 44 z" />
<glyph unicode="" horiz-adv-x="34" d="M30.08395 51.99012 Q32.08394 51.98528 32.08394 49.9877 Q32.08395 47.99012 30.08395 47.99012 Q26.08395 47.99012 25.75309 47.99012 Q25.42222 47.99012 21.99012 47.99012 Q18.44444 47.99012 15.87654 46.81975 Q13.30864 45.64938 10.78518 43.08148 Q8.44444 40.6716 7.21728 38.1037 Q5.99012 35.5358 5.99012 31.99012 Q5.99012 28.44444 7.16049 25.81975 Q8.33086 23.19506 10.6716 20.78518 Q13.36491 18.29602 15.98061 17.18998 Q18.59631 16.08395 21.99012 15.99012 Q25.30864 15.99012 26.69629 15.99012 Q28.08395 15.99012 30.08395 15.99012 Q32.08395 15.99012 32.08395 13.9877 Q32.08394 11.98528 30.08395 11.99012 Q26 12 26 10 Q26 8 26 6 Q26 4 24 4 Q22 4 22 6 Q22 8 22 10 Q22 12 20 12 Q18 12 14.55802 13.38518 Q11.11605 14.77037 7.86484 17.85497 Q5.09004 20.48758 3.54995 24.32638 Q2.00987 28.16518 2.00987 31.99012 Q2.00987 35.81506 3.55859 39.64481 Q5.10731 43.47457 7.86484 46.12527 Q10.79665 48.9435 14.39832 50.47175 Q18 52 20 52 Q22 52 22 54 Q22 56 22 58 Q22 60 24 60 Q26 60 26 58 Q26 56 26 54 Q26 52 30.08395 51.99012 z" />
<glyph unicode="" horiz-adv-x="48" d="M38 48 Q38 50.30496 37.03541 52.55491 Q36.07083 54.80487 34.42123 56.49143 Q32.90078 58.13126 30.57795 59.05591 Q28.25512 59.98056 26 60 Q23.65965 59.9767 21.41993 59.02284 Q19.18021 58.06898 17.50857 56.49143 Q16.01262 54.86471 15.00631 52.57461 Q14 50.28451 14 48 Q14 46 14 34 Q14 22 14 20 Q14 16 10.91653 11.45743 Q7.83306 6.91486 9.58264 5.16528 Q10.91486 4 13.45743 4 Q16 4 42 4 Q44 4 44 2 Q44 0 42 0 Q14 0 10.97651 0.03291 Q7.95301 0.06582 5.23398 2.95621 Q2.44034 5.92591 6.22017 11.96296 Q10 18 10 20 Q10 22 10 34 Q10 46 10 48 Q10 51.0222 11.24257 54.08024 Q12.48514 57.13829 14.66611 59.36816 Q16.73004 61.4943 19.83127 62.76886 Q22.93249 64.04342 26 64 Q29.01713 64 32.09796 62.77555 Q35.17879 61.5511 37.27794 59.34214 Q39.57006 57.16316 40.78503 54.10449 Q42 51.04583 42 48 Q42 46 40 46 Q38 46 38 48 zM12 28 Q10 28 9 28 Q8 28 6 28 Q4 28 4 30 Q4 32 6 32 Q8 32 9 31.99017 Q10 31.98034 11.99012 31.99012 Q14 32 18 32 Q22 32 24 32 Q26 32 26 30 Q26 28 24 28 Q22 28 18 28 Q14 28 12 28 z" />
<glyph unicode="" horiz-adv-x="52" d="M48 48 Q48 44 46.59007 39.53107 Q45.18015 35.06213 42.17555 31.91222 Q39.36684 29.01185 36.56676 27.67615 Q33.76667 26.34044 29.88642 26.11358 Q28 26 28 25 Q28 24 28 20 Q28 16 28 10.29285 Q28 4.58571 28 2 Q28 0 26 0 Q24 0 24 2 Q24 4.6 24 10.3 Q24 16 24 20 Q24 24 24 25 Q24 26 22.11358 26.11358 Q18.32713 26.40196 15.44167 27.73336 Q12.55621 29.06476 9.77284 31.88642 Q6.77753 35.06795 5.38877 39.47902 Q4 43.8901 4 48 Q4 52 4 56 Q4 60 4 62 Q4 64 6 64 Q8 64 8 62 Q8 60 8 56 Q8 52 8 48 Q8 44.36645 9.17037 40.84249 Q10.34074 37.31852 12.63704 34.75062 Q15.09136 32.22716 18.82825 31.11358 Q22.56514 30 26 30 Q29.42716 29.98518 33.13877 31.11547 Q36.85037 32.24576 39.34321 34.75062 Q41.62469 37.34321 42.81235 40.87408 Q44 44.40494 44 48 Q44 52 44 56 Q44 60 44 62 Q44 64 46 64 Q48 64 48 62 Q48 60 48 56 Q48 52 48 48 zM26 10 Q21.99012 9.99012 17.99506 9.99506 Q14 10 12 10 Q10 10 10 12 Q10 14 12 14 Q14 14 17.99506 13.99506 Q21.99012 13.99012 25.99012 13.99012 Q29.99012 13.99012 33.99012 13.99012 Q37.99012 13.99012 39.99012 13.99012 Q41.99012 13.99012 41.99012 11.99012 Q41.99012 9.99012 39.99012 9.99012 Q37.99012 9.99012 33.99012 9.99012 Q29.99012 9.99012 26 10 zM26.00988 18.00988 Q22 18 18.00494 18.00494 Q14.00988 18.00988 12.00988 18.00988 Q10.00988 18.00988 10.00988 20.00988 Q10.00988 22.00988 12.00988 22.00988 Q14.00988 22.00988 18.00494 22.00494 Q22 22 26 22 Q30 22 34 22 Q38 22 40 22 Q42 22 42 20 Q42 18 40 18 Q38 18 34 18 Q30 18 26.00988 18.00988 z" />
<glyph unicode="" horiz-adv-x="34" d="M25.94041 12.98642 Q25.94041 16.36199 23.65081 18.18099 Q21.36122 20 18.99923 20 Q17.94041 20 16.9702 20 Q16 20 14.98642 20 Q10.2172 20 7.15975 23.0566 Q4.1023 26.11321 4 30.94118 Q4 35.71041 7.42081 38.85521 Q10.84162 42 15.01358 42 Q19.01358 42 17.50679 42 Q16 42 18 42 Q20 42 20 40 Q20 38 18 38 Q16 38 17.49321 38 Q18.98642 38 14.98642 38 Q12.67874 38 10.33937 36.18099 Q8 34.36199 8 31.01358 Q8 27.41192 10.25339 25.70596 Q12.50679 24 15.05249 23.94126 Q16 24 17.0064 24 Q18.01281 24 18.95399 24 Q23.36122 24 26.65081 20.8914 Q29.94041 17.7828 29.94041 13.05882 Q29.94041 8.0724 26.49698 5.0362 Q23.05354 2 18.85443 2 Q14.85443 2 12.42722 2 Q10 2 6 2 Q4 2 4 4 Q4 6 6 6 Q10 6 12.47699 6 Q14.95399 6 18.95399 6 Q22.4472 6.0724 24.1938 8.18099 Q25.94041 10.28959 25.94041 12.98642 zM26 30.98642 Q26 34.36199 23.71041 36.18099 Q21.42081 38 19.05882 38 Q18 38 17.0298 38 Q16.05959 38 15.04601 38 Q10.27679 38 7.21934 41.0566 Q4.16189 44.11321 4.05959 48.94118 Q4.05959 53.71041 7.4804 56.85521 Q10.90121 60 15.07317 60 Q19.07317 60 21.53658 60 Q24 60 28 60 Q30 60 30 58 Q30 56 28 56 Q24 56 21.52301 56 Q19.04601 56 15.04601 56 Q12.73833 56 10.39896 54.18099 Q8.05959 52.36199 8.05959 49.01358 Q8.05959 45.41192 10.31299 43.70596 Q12.56638 42 15.11208 41.94126 Q16.05959 42 17.066 42 Q18.0724 42 19.01358 42 Q23.42081 42 26.71041 38.8914 Q30 35.7828 30 31.05882 Q30 26.0724 26.55656 23.0362 Q23.11313 20 18.91402 20 Q14.91402 20 16.45701 20 Q18 20 16 20 Q14 20 14 22 Q14 24 16 24 Q20 24 17.50679 24 Q15.01358 24 19.01358 24 Q22.50679 24.0724 24.25339 26.18099 Q26 28.28959 26 30.98642 z" />
<glyph unicode="" horiz-adv-x="40" d="M33.06906 55.01983 Q32.51584 54.46661 31.738 54.14441 Q30.96016 53.82222 30.17778 53.82222 Q29.3954 53.82222 28.61756 54.14441 Q27.83972 54.46661 27.2865 55.01983 Q26.73328 55.57305 26.41108 56.35089 Q26.08889 57.12874 26.08889 57.91111 Q26.08889 58.69349 26.41108 59.47133 Q26.73328 60.24917 27.2865 60.80239 Q27.83972 61.35561 28.61756 61.6778 Q29.3954 62 30.17778 62 Q30.96016 62 31.738 61.67781 Q32.51584 61.35561 33.06906 60.80239 Q33.62228 60.24917 33.94448 59.47133 Q34.26667 58.69349 34.26667 57.91111 Q34.26667 57.12874 33.94448 56.35089 Q33.62228 55.57305 33.06906 55.01983 zM12.89128 55.01983 Q12.33806 54.46661 11.56022 54.14441 Q10.78238 53.82222 10 53.82222 Q9.21762 53.82222 8.43978 54.14441 Q7.66194 54.46661 7.10872 55.01983 Q6.5555 55.57305 6.2333 56.35089 Q5.91111 57.12874 5.91111 57.91111 Q5.91111 58.69349 6.2333 59.47133 Q6.5555 60.24917 7.10872 60.80239 Q7.66194 61.35561 8.43978 61.6778 Q9.21762 62 10 62 Q10.78238 62 11.56022 61.6778 Q12.33806 61.35561 12.89128 60.80239 Q13.4445 60.24917 13.7667 59.47133 Q14.08889 58.69349 14.08889 57.91111 Q14.08889 57.12874 13.7667 56.35089 Q13.4445 55.57305 12.89128 55.01983 z" />
<glyph unicode="" horiz-adv-x="44" d="M36.13166 5.85353 Q33.42768 3.14955 29.62584 1.57477 Q25.824 0 22 0 Q18.176 0 14.37417 1.57478 Q10.57233 3.14955 7.86834 5.85353 Q5.16436 8.5575 3.58958 12.35935 Q2.01481 16.16119 2.01481 19.98519 Q2.01481 23.80918 3.58958 27.61103 Q5.16435 31.41287 7.86834 34.11685 Q10.57232 36.82082 14.37416 38.3956 Q18.176 39.97037 22 39.97037 Q25.824 39.97037 29.62584 38.3956 Q33.42768 36.82083 36.13166 34.11685 Q38.83564 31.41287 40.41042 27.61102 Q41.98519 23.80918 41.98519 19.98519 Q41.98519 16.16119 40.41042 12.35935 Q38.83564 8.5575 36.13166 5.85353 zM37.95062 19.98519 Q37.95062 23.0372 36.69375 26.07153 Q35.43689 29.10587 33.27879 31.26397 Q31.12069 33.42208 28.08636 34.67894 Q25.05202 35.9358 22 35.9358 Q18.94798 35.9358 15.91365 34.67894 Q12.87932 33.42208 10.72121 31.26397 Q8.56311 29.10587 7.30624 26.07153 Q6.04938 23.0372 6.04938 19.98519 Q6.04938 16.93317 7.30625 13.89884 Q8.56311 10.8645 10.72121 8.7064 Q12.87931 6.54829 15.91364 5.29143 Q18.94798 4.03457 22 4.03457 Q25.05202 4.03457 28.08635 5.29143 Q31.12068 6.54829 33.27879 8.7064 Q35.43689 10.8645 36.69376 13.89884 Q37.95062 16.93317 37.95062 19.98519 zM26.04198 29.99506 Q28 29.98928 28 27.99464 Q28 26 26 26 Q24.36455 26 23.94916 26 Q23.53377 26 22 26 Q20.5917 26 19.51523 25.5506 Q18.43876 25.1012 17.64655 24.28678 Q16.9457 23.55136 16.47285 22.47983 Q16 21.40829 16 20 Q16 18.59171 16.44445 17.48684 Q16.88891 16.38197 17.58976 15.64655 Q18.46689 14.87149 19.56726 14.4592 Q20.66763 14.04691 22 14 Q24 14 24.27341 14 Q24.54682 14 26 14 Q28 14 28 11.99385 Q27.99999 9.98769 26.04198 9.99506 Q24.72909 10 24.36455 10 Q24 10 22 10 Q20.04197 10 18.3 10.69259 Q16.55802 11.38518 14.93243 12.92748 Q13.54503 14.24379 12.77499 16.16319 Q12.00494 18.08259 12.00494 19.99506 Q12.00494 21.90752 12.7793 23.8224 Q13.55367 25.73727 14.93243 27.06263 Q16.39833 28.47175 18.24293 29.23093 Q20.08752 29.99011 22 29.99011 Q23.54793 29.99011 23.95624 29.99505 Q24.36455 30 26.04198 29.99506 z" />
<glyph unicode="" horiz-adv-x="32" d="M16 44.00889 Q13.70449 44.01791 11.42224 44.95873 Q9.14 45.89955 7.51681 47.52274 Q5.89362 49.14593 4.94829 51.42816 Q4.00296 53.71039 4.00296 56.00593 Q4.00296 58.30146 4.94829 60.58369 Q5.89362 62.86592 7.51681 64.48911 Q9.14 66.1123 11.42224 67.05763 Q13.70447 68.00296 16 68.00296 Q18.29553 68.00296 20.57776 67.05763 Q22.86 66.1123 24.48319 64.48911 Q26.10638 62.86592 27.04889 60.58369 Q27.99139 58.30145 27.99704 56.00593 Q28.00296 53.59941 27.99848 50.79872 Q27.99401 47.99802 27.99401 45.99802 Q27.99401 43.99802 25.99401 43.99802 Q23.99401 43.99802 23.99401 45.99802 Q23.61399 47.32004 21.18958 45.65903 Q18.76517 43.99802 16 44.00889 zM21.65596 61.65596 Q20.43426 62.87766 19.081 63.43883 Q17.72774 64 16 64 Q14.27226 64 12.91901 63.43883 Q11.56575 62.87766 10.34405 61.65596 Q9.12234 60.43426 8.56117 59.081 Q8 57.72774 8 56 Q8 54.27225 8.56118 52.919 Q9.12235 51.56575 10.34405 50.34404 Q11.56574 49.12234 12.919 48.56117 Q14.27226 48 16 48 Q17.72774 48 18.96265 48.59558 Q20.19755 49.19116 21.58715 50.41285 Q22.88473 51.55364 23.44236 52.91294 Q24 54.27225 24 56 Q24 57.72774 23.43882 59.081 Q22.87765 60.43426 21.65596 61.65596 z" />
<glyph unicode="" horiz-adv-x="40" d="M22.97778 29.54568 Q24.97778 31.54568 26.72029 33.28819 Q28.46281 35.03071 30.46281 37.03071 Q32.23565 38.80355 33.86034 37.14429 Q35.48503 35.48503 33.48503 33.48503 Q30 30 29 29 Q28 28 26 26 Q28 24 29 23 Q30 22 33.48503 18.51497 Q35.48503 16.51497 33.86034 14.85571 Q32.23565 13.19645 30.46281 14.96929 Q28.46281 16.96929 26.72029 18.71181 Q24.97778 20.45432 22.97778 22.45432 Q20.18272 25.24938 20.18272 26 Q20.18272 26.75062 22.97778 29.54568 zM6.97778 29.54568 Q8.97778 31.54568 10.72029 33.28819 Q12.46281 35.03071 14.46281 37.03071 Q16.23565 38.80355 17.86034 37.14429 Q19.48503 35.48503 17.48503 33.48503 Q14 30 13 29 Q12 28 10 26 Q12 24 13 23 Q14 22 17.48503 18.51497 Q19.48503 16.51497 17.86034 14.85571 Q16.23565 13.19645 14.46281 14.96929 Q12.46281 16.96929 10.72029 18.71181 Q8.97778 20.45432 6.97778 22.45432 Q4.18272 25.24938 4.18272 26 Q4.18272 26.75062 6.97778 29.54568 z" />
<glyph unicode="" horiz-adv-x="40" d="M20 20 Q15.99012 19.99012 11.99506 19.99506 Q8 20 6 20 Q4 20 4 22 Q4 24 6 24 Q8 24 11.99506 23.99506 Q15.99012 23.99012 19.99012 23.99012 Q23.99012 23.99012 26.99506 23.99506 Q30 24 32 24 Q34 24 35 23 Q36 22 36 20 Q36 18 36 16 Q36 14 36 12 Q36 10 34 10 Q32 10 32 12 Q32 14 32 15 Q32 16 32 18 Q32 19.34815 31.67408 19.67408 Q31.34815 20 30 20 Q28 20 26 20 Q24 20 20 20 z" />
<glyph unicode="" horiz-adv-x="40" d="M20 20 Q15.99012 19.99012 11.99506 19.99506 Q8 20 6 20 Q4 20 4 22 Q4 24 6 24 Q8 24 11.99506 23.99506 Q15.99012 23.99012 19.99012 23.99012 Q23.99012 23.99012 27.99506 23.99506 Q32 24 34 24 Q36 24 36 22 Q36 20 34 20 Q32 20 27.99506 19.99506 Q23.99012 19.99012 20 20 z" />
<glyph unicode="" horiz-adv-x="44" d="M36.13166 5.85353 Q33.42768 3.14955 29.62584 1.57477 Q25.824 0 22 0 Q18.176 0 14.37417 1.57478 Q10.57233 3.14955 7.86834 5.85353 Q5.16436 8.5575 3.58958 12.35935 Q2.01481 16.16119 2.01481 19.98519 Q2.01481 23.80918 3.58958 27.61103 Q5.16435 31.41287 7.86834 34.11685 Q10.57232 36.82082 14.37416 38.3956 Q18.176 39.97037 22 39.97037 Q25.824 39.97037 29.62584 38.3956 Q33.42768 36.82083 36.13166 34.11685 Q38.83564 31.41287 40.41042 27.61102 Q41.98519 23.80918 41.98519 19.98519 Q41.98519 16.16119 40.41042 12.35935 Q38.83564 8.5575 36.13166 5.85353 zM37.95062 19.98519 Q37.95062 23.0372 36.69375 26.07153 Q35.43689 29.10587 33.27879 31.26397 Q31.12069 33.42208 28.08636 34.67894 Q25.05202 35.9358 22 35.9358 Q18.94798 35.9358 15.91365 34.67894 Q12.87932 33.42208 10.72121 31.26397 Q8.56311 29.10587 7.30624 26.07153 Q6.04938 23.0372 6.04938 19.98519 Q6.04938 16.93317 7.30625 13.89884 Q8.56311 10.8645 10.72121 8.7064 Q12.87931 6.54829 15.91364 5.29143 Q18.94798 4.03457 22 4.03457 Q25.05202 4.03457 28.08635 5.29143 Q31.12068 6.54829 33.27879 8.7064 Q35.43689 10.8645 36.69376 13.89884 Q37.95062 16.93317 37.95062 19.98519 zM27.12873 26.98813 Q27.12873 28.05968 26.68745 29.12502 Q26.24618 30.19036 25.48847 30.94807 Q24.73077 31.70577 23.66543 32.14706 Q22.60008 32.58834 21.52853 32.58834 Q20.45697 32.58834 19.39163 32.14706 Q18.32629 31.70578 17.56858 30.94807 Q16.81088 30.19037 16.3696 29.12502 Q15.92832 28.05968 15.92832 26.98813 Q15.92832 25.91658 15.91428 25.51665 Q15.90025 25.11672 15.90025 23.2453 Q15.90025 22.30959 16.36811 21.84174 Q16.83596 21.37389 17.77166 21.37389 Q19.64308 21.37389 20.34083 21.37728 Q21.03858 21.38068 21.52853 21.38792 Q22.59996 21.40376 23.66536 21.83712 Q24.73076 22.27048 25.48847 23.02819 Q26.24617 23.78589 26.68745 24.85123 Q27.12873 25.91658 27.12873 26.98813 zM26.83161 21.68505 Q26.62442 21.46162 26.30439 21.14868 Q25.98437 20.83573 25.79956 20.66772 Q25.57611 20.45759 25.59556 20.29667 Q25.61502 20.13575 25.78939 19.95344 Q26.16701 19.57583 26.1859 19.55739 Q26.20479 19.53895 27.12873 18.61409 Q28.47263 17.26129 29.20425 15.55833 Q29.93586 13.85538 29.93586 12.06414 Q29.93586 10.19273 29.93586 9.80757 Q29.93586 9.4224 29.93586 8.06414 Q29.93586 7.12844 29.00015 7.12844 Q28.06444 7.12844 28.06444 8.06414 Q28.06444 9.4224 28.06444 9.9357 Q28.06444 10.44901 28.06444 12.06414 Q28.06444 13.72199 27.51214 14.92613 Q26.95984 16.13027 25.76988 17.29795 Q24.52912 18.50326 23.49572 19.0083 Q22.46233 19.51334 20.57878 19.5498 Q19.64325 19.56791 19.17531 19.55885 Q18.70737 19.5498 17.77166 19.5498 Q16.83596 19.5498 16.36811 19.08195 Q15.90025 18.61409 15.90025 17.67839 Q15.90025 16.74268 15.96439 13.00308 Q16.02854 9.26347 16.02854 8.06414 Q16.02854 7.12844 15.09283 7.12844 Q14.15712 7.12844 14.15712 8.06414 Q14.15712 8.99985 14.09298 14.14451 Q14.02883 19.28918 14.02883 20.48551 Q14.02883 21.42122 14.02883 23.48717 Q14.02883 25.55313 14.02883 26.98813 Q14.02883 28.22905 14.59614 29.77524 Q15.16344 31.32142 16.19085 32.33672 Q17.20959 33.35708 18.60558 33.92245 Q20.00157 34.48782 21.52853 34.48782 Q22.96353 34.48782 24.39022 33.89687 Q25.8169 33.30592 26.83161 32.29121 Q27.84631 31.27651 28.43727 29.84982 Q29.02822 28.42313 29.02822 26.98813 Q29.02822 25.55313 28.41779 24.1452 Q27.80736 22.73726 26.83161 21.68505 z" />
<glyph unicode="" horiz-adv-x="36" d="M18.00988 60.00988 Q14 60 11 60 Q8 60 6 60 Q4 60 4 62 Q4 64 6 64 Q8 64 11 64 Q14 64 18 64 Q22 64 25 64 Q28 64 30 64 Q32 64 32 62 Q32 60 30 60 Q28 60 25 60 Q22 60 18.00988 60.00988 z" />
<glyph unicode="" horiz-adv-x="28" d="M21.07107 50.92893 Q19.71807 49.57594 17.81574 48.78797 Q15.91342 48 14 48 Q12.08658 48 10.18426 48.78796 Q8.28193 49.57593 6.92893 50.92893 Q5.57594 52.28192 4.78797 54.18425 Q4 56.08658 4 58 Q4 59.91341 4.78796 61.81575 Q5.57592 63.71808 6.92893 65.07107 Q8.28193 66.42405 10.18426 67.21202 Q12.08658 67.99999 14 67.99999 Q15.91342 67.99999 17.81575 67.21203 Q19.71808 66.42407 21.07107 65.07107 Q22.42406 63.71807 23.21203 61.81574 Q24 59.91341 24 58 Q24 56.08658 23.21203 54.18425 Q22.42406 52.28192 21.07107 50.92893 zM20 58 Q20 59.26019 19.6289 60.35711 Q19.25781 61.45403 18.35592 62.35592 Q17.45403 63.25782 16.35712 63.62891 Q15.2602 64 14 64 Q12.7398 64 11.64289 63.62891 Q10.54598 63.25782 9.64408 62.35592 Q8.74219 61.45403 8.37109 60.35711 Q8 59.26019 8 58 Q8 56.7398 8.3711 55.64289 Q8.74219 54.54597 9.64408 53.64408 Q10.54597 52.74218 11.64288 52.37109 Q12.7398 52 14 52 Q15.2602 52 16.35711 52.37109 Q17.45402 52.74218 18.35592 53.64408 Q19.25781 54.54597 19.62891 55.64288 Q20 56.7398 20 58 z" />
<glyph unicode="" horiz-adv-x="48" d="M26 20 Q26 18 24 18 Q22 18 22 20 Q22 22 22 26 Q22 30 22 32 Q22 34 21 35 Q20 36 18 36 Q16 36 12 36 Q8 36 6 36 Q4 36 4 38 Q4 40 6 40 Q7.98365 40 11.99182 40 Q16 40 18 40 Q20 40 21 41 Q22 42 22 44 Q22 46 22 50.06655 Q22 54.13311 22 56 Q22 58 24 58 Q26 58 26 56 Q26 54 26 50 Q26 46 26 44 Q26 42 27 41 Q28 40 30 40 Q32 40 36 40 Q40 40 42 40 Q44 40 44 38 Q44 36 42 36 Q40 36 36 36 Q32 36 30 36 Q28 36 27 35 Q26 34 26 32 Q26 30 26 26 Q26 22 26 20 zM24 8 Q19.99012 7.99012 13.99506 7.99506 Q8 8 6 8 Q4 8 4 10 Q4 12 6 12 Q8 12 13.99506 11.99506 Q19.99012 11.99012 23.99012 11.99012 Q27.99012 11.99012 33.99506 11.99506 Q40 12 42 12 Q44 12 44 10 Q44 8 42 8 Q40 8 33.99506 7.99506 Q27.99012 7.99012 24 8 z" />
<glyph unicode="" horiz-adv-x="22" d="M14.45432 63.35025 Q15.8705 64.76249 17.28274 63.3463 Q18.69498 61.93011 17.27879 60.51787 Q15.86261 59.10564 12.38784 55.63882 Q8.91307 52.172 7.53229 50.79507 Q6.1161 49.38283 4.70386 50.79902 Q3.29163 52.21521 4.70782 53.62744 Q6.124 55.03968 9.58106 58.48884 Q13.03813 61.93801 14.45432 63.35025 z" />
<glyph unicode="" horiz-adv-x="48" d="M4 38 Q4 40 6 40 Q8 40 8 38 Q8 36 8 30 Q8 24 8 20 Q8 16.88836 9.24271 13.88642 Q10.48542 10.88448 12.69162 8.65038 Q14.81214 6.52666 17.84564 5.29712 Q20.87913 4.06758 24 4.07234 Q27.11164 4.07709 30.1342 5.35359 Q33.15676 6.6301 35.20494 8.68148 Q37.40474 10.86841 38.70237 13.88376 Q40 16.89912 40 20 Q40 24 40 30 Q40 36 40 38 Q40 40 42 40 Q44 40 44 38 Q44 36 44 30 Q44 24 43.99012 20.00988 Q43.98019 16 43.9901 10 Q44 4 44 2 Q44 0 42 0 Q40 0 40 2 Q40 4 40 4.46914 Q40 4.93827 40 6 Q40 8 39.09637 6.96997 Q38.19274 5.93993 38.13515 5.87472 Q35.58552 2.98765 31.70523 1.5037 Q27.82494 0.01975 24 0.01975 Q20.17506 0.01975 16.3124 1.53758 Q12.44975 3.05541 9.86485 5.87472 Q9.76737 5.98104 8.88369 6.99052 Q8 8 8 6 Q8 4 8 -6 Q8 -16 8 -18 Q8 -20 6 -20 Q4 -20 4 -18 Q4 -16 4.0099 0 Q4.01981 16 4.00988 20.00988 Q4 24 4 30 Q4 36 4 38 z" />
<glyph unicode="" horiz-adv-x="48" d="M44 54 Q44 49.99011 44 27.99505 Q44 6 44 2 Q44 0 42 0 Q40 0 40 2 Q40 6 40 28 Q40 50 40 54 Q40 56 40 57 Q40 58 38 58 Q36 58 36 57 Q36 56 36 54 Q36 50 36 28 Q36 6 36 2 Q36 0 34 0 Q32 0 32 2 Q32 6 32 10 Q32 14 32 20 Q32 22 32 23 Q32 24 30 24 Q28 24 27.02691 24 Q26.05381 24 24 24 Q20.17506 24 16.37227 25.57516 Q12.56949 27.15033 9.86485 29.85497 Q7.1602 32.55962 5.58504 36.3624 Q4.00988 40.16518 4.00988 43.99013 Q4.00988 47.81507 5.58504 51.61785 Q7.1602 55.42063 9.86485 58.12528 Q12.56949 60.82992 16.37227 62.40508 Q20.17506 63.98025 24 63.98025 Q27.82494 63.98025 32.91247 63.99012 Q38 64 40 64 Q42 64 43 63 Q44 62 44 60 Q44 58 44 57 Q44 56 44 54 zM24 57.98025 Q20.97646 57.97279 18.60826 56.99446 Q16.24006 56.01614 14.10208 53.87817 Q11.9641 51.7402 10.98205 49.372 Q10 47.0038 10 43.98025 Q10 40.9567 10.98205 38.5885 Q11.96411 36.22031 14.10208 34.08233 Q16.24005 31.94435 18.60825 30.9623 Q20.97645 29.98025 24 29.98025 Q27.02355 29.98025 27.51177 29.99012 Q28 30 30 30 Q31.75 30 31.875 31.125 Q32 32.25 32 34 Q32 38 32 44 Q32 50 32 54 Q32 55.67416 32 56.83708 Q32 58 30 58 Q28 58 26.65169 57.99174 Q25.30337 57.98347 24 57.98025 z" />
<glyph unicode="" horiz-adv-x="16" d="M10.89128 27.19761 Q10.33806 26.64439 9.56022 26.3222 Q8.78238 26 8 26 Q7.21762 26 6.43978 26.3222 Q5.66194 26.64439 5.10872 27.19761 Q4.5555 27.75083 4.2333 28.52868 Q3.91111 29.30652 3.91111 30.08889 Q3.91111 30.87127 4.2333 31.64911 Q4.5555 32.42695 5.10872 32.98017 Q5.66194 33.53339 6.43978 33.85559 Q7.21762 34.17778 8 34.17778 Q8.78238 34.17778 9.56022 33.85559 Q10.33806 33.53339 10.89128 32.98017 Q11.4445 32.42695 11.7667 31.64911 Q12.08889 30.87127 12.08889 30.08889 Q12.08889 29.30652 11.7667 28.52868 Q11.4445 27.75083 10.89128 27.19761 z" />
<glyph unicode="" horiz-adv-x="24" d="M5.99012 -11.99012 Q3.99012 -11.99012 3.99012 -9.99012 Q3.99012 -7.99012 5.99012 -7.99012 Q7.99012 -7.99012 9.83209 -7.53827 Q11.67407 -7.08642 13.37596 -5.39076 Q15.18518 -3.55555 15.55556 -1.95488 Q15.92593 -0.35422 16 2 Q16 4 18 4 Q20 4 19.99012 2.00988 Q19.97021 -1.99996 19.20685 -4.00443 Q18.44348 -6.0089 16.21728 -8.21728 Q13.99108 -10.42566 11.9906 -11.20789 Q9.99012 -11.99012 5.99012 -11.99012 z" />
<glyph unicode="" horiz-adv-x="28" d="M22.48528 49.51472 Q20.86168 47.89113 18.57889 46.94556 Q16.2961 46 14 46 Q11.7039 46 9.42111 46.94556 Q7.13833 47.89113 5.51472 49.51472 Q3.89113 51.1383 2.94556 53.4211 Q2 55.7039 2 58 Q2 60.29609 2.94555 62.57889 Q3.89111 64.86169 5.51472 66.48528 Q7.13832 68.10886 9.42111 69.05443 Q11.7039 69.99999 14 69.99999 Q16.2961 69.99999 18.57889 69.05444 Q20.86169 68.10888 22.48528 66.48528 Q24.10887 64.86168 25.05444 62.57889 Q26 60.29609 26 58 Q26 55.7039 25.05444 53.4211 Q24.10887 51.1383 22.48528 49.51472 zM19.65596 63.65596 Q18.43426 64.87766 17.081 65.43883 Q15.72774 66 14 66 Q12.27226 66 10.91901 65.43883 Q9.56575 64.87766 8.34405 63.65596 Q7.12234 62.43426 6.56117 61.081 Q6 59.72774 6 58 Q6 56.27225 6.56118 54.919 Q7.12235 53.56575 8.34405 52.34404 Q9.56574 51.12234 10.919 50.56117 Q12.27226 50 14 50 Q15.72774 50 16.96265 50.59558 Q18.19755 51.19116 19.58715 52.41285 Q20.88473 53.55364 21.44236 54.91294 Q22 56.27225 22 58 Q22 59.72774 21.43882 61.081 Q20.87765 62.43426 19.65596 63.65596 z" />
<glyph unicode="" horiz-adv-x="40" d="M17.02222 22.45432 Q15.02222 20.45432 13.27971 18.71181 Q11.53719 16.96929 9.53719 14.96929 Q7.76435 13.19645 6.13966 14.85571 Q4.51497 16.51497 6.51497 18.51497 Q10 22 11 23 Q12 24 14 26 Q12 28 11 29 Q10 30 6.51497 33.48503 Q4.51497 35.48503 6.13966 37.14429 Q7.76435 38.80355 9.53719 37.03071 Q11.53719 35.03071 13.27971 33.28819 Q15.02222 31.54568 17.02222 29.54568 Q19.81728 26.75062 19.81728 26 Q19.81728 25.24938 17.02222 22.45432 zM33.02222 22.45432 Q31.02222 20.45432 29.27971 18.71181 Q27.53719 16.96929 25.53719 14.96929 Q23.76435 13.19645 22.13966 14.85571 Q20.51497 16.51497 22.51497 18.51497 Q26 22 27 23 Q28 24 30 26 Q28 28 27 29 Q26 30 22.51497 33.48503 Q20.51497 35.48503 22.13966 37.14429 Q23.76435 38.80355 25.53719 37.03071 Q27.53719 35.03071 29.27971 33.28819 Q31.02222 31.54568 33.02222 29.54568 Q35.81728 26.75062 35.81728 26 Q35.81728 25.24938 33.02222 22.45432 z" />
<glyph unicode="" horiz-adv-x="48" d="M26.00988 29.99013 Q26.00988 28.02815 26.00988 28.46639 Q26.00988 28.90463 26.00988 25.07563 Q26.00988 20.78402 23.55659 17.73449 Q21.10329 14.68497 18.00988 13.99013 Q16.16784 13.42443 15.31186 12.99585 Q14.45588 12.56727 12.81679 11.15566 Q10.40495 8.67578 9.20248 6.12369 Q8 3.57161 8 0 Q8 -3.55598 9.18809 -6.09641 Q10.37619 -8.63684 12.75136 -11.16022 Q15.00735 -13.557 17.75639 -14.7785 Q20.50542 -16 24 -16 Q27.35017 -16 30.05588 -14.84177 Q32.7616 -13.68354 35.16022 -11.21621 Q37.71858 -8.58457 38.85929 -6.04787 Q40 -3.51118 40 0 Q40 2 42 2 Q44 2 44 0 Q44 -4 42.39745 -7.66297 Q40.7949 -11.32594 38 -14 Q35.38112 -16.50565 31.69056 -18.25283 Q28 -20 24 -20 Q20 -20 16.42278 -18.37838 Q12.84556 -16.75675 10 -14 Q7.15444 -11.24325 5.57722 -7.62162 Q4 -4 4 0 Q4 4.07177 5.59383 7.64043 Q7.18766 11.20909 10.00988 13.99013 Q12.32933 15.94371 14.00737 16.62804 Q15.6854 17.31237 18.00988 17.99013 Q19.32293 18.57654 20.66641 20.55967 Q22.00988 22.5428 22.00988 25.02524 Q22.00988 28.90463 22.00988 28.64909 Q22.00988 28.39356 22.00988 29.99013 Q22.00988 31.99013 24.00988 31.99013 Q26.00988 31.99013 26.00988 29.99013 zM22.00988 45.99013 Q22.00988 47.99013 24.00988 47.99013 Q26.00988 47.99013 26.00988 45.99013 Q26.00988 44.04013 26.00988 44.01513 Q26.00988 43.99013 26.00988 41.99013 Q26.00988 39.99013 24.00988 39.99013 Q22.00988 39.99013 22.00988 41.99013 Q22.00988 43.99013 22.00988 43.99013 Q22.00988 43.99013 22.00988 45.99013 z" />
<glyph unicode="" horiz-adv-x="48" d="M43.99012 43.99013 Q44 39.98025 44 22.99012 Q44 6 44 2 Q44 0 42 0 Q40 0 40 2 Q40 6 40 11 Q40 16 40 22 Q40 24.01975 39 25.00988 Q38 26 36 26 Q32 26 29.91247 26 Q27.82494 26 24 26 Q20.17506 26 18.08753 26 Q16 26 12 26 Q10 26 9 25 Q8 24 8 22 Q8 16 8 11 Q8 6 8 2 Q8 0 6 0 Q4 0 4 2 Q4 6 4 23 Q4 40 4.00988 43.99013 Q4.01935 47.81506 5.58978 51.61784 Q7.1602 55.42063 9.86485 58.12528 Q12.56949 60.82992 16.37227 62.40508 Q20.17506 63.98025 24 63.98025 Q27.82494 63.98025 31.62772 62.40508 Q35.43051 60.82992 38.13515 58.12528 Q40.8398 55.42063 42.41025 51.61784 Q43.9807 47.81506 43.99012 43.99013 zM8.00988 43.98025 Q8 40 8 38 Q8 36 8 34 Q8 32 9 31 Q10 30 12 30 Q16 30 18 29.9802 Q20 29.9604 24.00988 29.98025 Q28 30 30 30 Q32 30 36 30 Q38 30 39 31 Q40 32 40 34 Q40 36 40 38 Q40 40 40.00988 43.98025 Q40.01846 47.43573 38.89183 50.14225 Q37.76519 52.84876 35.32179 55.29216 Q32.87839 57.73556 30.17188 58.85791 Q27.46537 59.98025 24.00988 59.98025 Q20.55439 59.98025 17.84788 58.85791 Q15.14137 57.73556 12.69797 55.29216 Q10.25457 52.84876 9.13652 50.14225 Q8.01846 47.43573 8.00988 43.98025 zM30.28126 67.52867 Q31.69745 66.11644 30.28521 64.70025 Q28.87298 63.28406 27.45679 64.6963 Q26.07601 66.07323 22.60124 69.54005 Q19.12647 73.00687 17.71029 74.4191 Q16.2941 75.83134 17.70634 77.24753 Q19.11858 78.66372 20.53476 77.25148 Q21.95095 75.83924 25.40801 72.39008 Q28.86508 68.94091 30.28126 67.52867 z" />
<glyph unicode="" horiz-adv-x="48" d="M43.99012 43.99013 Q44 39.98025 44 22.99012 Q44 6 44 2 Q44 0 42 0 Q40 0 40 2 Q40 6 40 11 Q40 16 40 22 Q40 24.01975 39 25.00988 Q38 26 36 26 Q32 26 29.91247 26 Q27.82494 26 24 26 Q20.17506 26 18.08753 26 Q16 26 12 26 Q10 26 9 25 Q8 24 8 22 Q8 16 8 11 Q8 6 8 2 Q8 0 6 0 Q4 0 4 2 Q4 6 4 23 Q4 40 4.00988 43.99013 Q4.01935 47.81506 5.58978 51.61784 Q7.1602 55.42063 9.86485 58.12528 Q12.56949 60.82992 16.37227 62.40508 Q20.17506 63.98025 24 63.98025 Q27.82494 63.98025 31.62772 62.40508 Q35.43051 60.82992 38.13515 58.12528 Q40.8398 55.42063 42.41025 51.61784 Q43.9807 47.81506 43.99012 43.99013 zM8.00988 43.98025 Q8 40 8 38 Q8 36 8 34 Q8 32 9 31 Q10 30 12 30 Q16 30 18 29.9802 Q20 29.9604 24.00988 29.98025 Q28 30 30 30 Q32 30 36 30 Q38 30 39 31 Q40 32 40 34 Q40 36 40 38 Q40 40 40.00988 43.98025 Q40.01846 47.43573 38.89183 50.14225 Q37.76519 52.84876 35.32179 55.29216 Q32.87839 57.73556 30.17188 58.85791 Q27.46537 59.98025 24.00988 59.98025 Q20.55439 59.98025 17.84788 58.85791 Q15.14137 57.73556 12.69797 55.29216 Q10.25457 52.84876 9.13652 50.14225 Q8.01846 47.43573 8.00988 43.98025 zM27.3566 77.16259 Q28.77278 78.57483 30.18502 77.15864 Q31.59726 75.74245 30.18107 74.33021 Q28.76489 72.91798 25.29012 69.45116 Q21.81535 65.98434 20.43457 64.60741 Q19.01838 63.19517 17.60614 64.61136 Q16.19391 66.02755 17.6101 67.43978 Q19.02628 68.85202 22.48334 72.30119 Q25.94041 75.75035 27.3566 77.16259 z" />
<glyph unicode="" horiz-adv-x="48" d="M43.98024 44.00988 Q43.99012 40 43.99506 23 Q44 6 43.99012 2.01975 Q43.99012 0.01975 41.99012 0.01975 Q39.99012 0.01975 39.99012 2.01975 Q40 6 39.99506 11.00988 Q39.99012 16.01975 39.99012 22.01975 Q39.99012 24.0395 38.99012 25.02963 Q37.99012 26.01975 35.99012 26.01975 Q31.99012 26.01975 29.90259 26.01975 Q27.81506 26.01975 23.99012 26.01975 Q20.16518 26.01975 18.07765 26.01975 Q15.99012 26.01975 11.99012 26.01975 Q9.99012 26.01975 8.99012 25.01975 Q7.99012 24.01975 7.99012 22.01975 Q7.99012 16.01975 7.99506 11.00988 Q8 6 7.99012 2.01975 Q7.99012 0.01975 5.99012 0.01975 Q3.99012 0.01975 3.99012 2.01975 Q3.99012 6.01975 3.99012 23.01975 Q3.99012 40.01975 4 44.00988 Q4.00947 47.83481 5.57989 51.63759 Q7.15032 55.44038 9.85497 58.14503 Q12.55961 60.84967 16.36239 62.42484 Q20.16518 64 23.99012 64 Q27.81506 64 31.61784 62.42484 Q35.42063 60.84967 38.12527 58.14503 Q40.82992 55.44038 42.40037 51.63759 Q43.97082 47.83481 43.98024 44.00988 zM8 44 Q7.99012 40.01975 7.99012 38.01975 Q7.99012 36.01975 7.99012 34.01975 Q7.99012 32.01975 8.99012 31.01975 Q9.99012 30.01975 11.99012 30.01975 Q15.99012 30.01975 17.99012 29.99995 Q19.99012 29.98015 24 30 Q27.99012 30.01975 29.99012 30.01975 Q31.99012 30.01975 35.99012 30.01975 Q37.99012 30.01975 38.99012 31.01975 Q39.99012 32.01975 39.99012 34.01975 Q39.99012 36.01975 39.99012 38.01975 Q39.99012 40.01975 40 44 Q40.00858 47.45548 38.88194 50.16199 Q37.75531 52.86851 35.31191 55.31191 Q32.86851 57.75531 30.162 58.87766 Q27.45549 60 24 60 Q20.54451 60 17.838 58.87766 Q15.13149 57.75531 12.68809 55.31191 Q10.24469 52.86851 9.12663 50.16199 Q8.00858 47.45548 8 44 zM27.54568 75.02222 Q29.54568 73.02222 31.28819 71.2797 Q33.03071 69.53719 35.03071 67.53719 Q36.80355 65.76435 35.14429 64.13966 Q33.48503 62.51497 31.48503 64.51497 Q28 68 27 69 Q26 70 24 72 Q22 70 21 69 Q20 68 16.51497 64.51497 Q14.51497 62.51497 12.85571 64.13966 Q11.19645 65.76435 12.96929 67.53719 Q14.96929 69.53719 16.71181 71.2797 Q18.45432 73.02222 20.45432 75.02222 Q23.24938 77.81728 24 77.81728 Q24.75062 77.81728 27.54568 75.02222 z" />
<glyph unicode="" horiz-adv-x="48" d="M43.99012 43.99013 Q44 39.98025 44 22.99012 Q44 6 44 2 Q44 0 42 0 Q40 0 40 2 Q40 6 40 11 Q40 16 40 22 Q40 24.01975 39 25.00988 Q38 26 36 26 Q32 26 29.91247 26 Q27.82494 26 24 26 Q20.17506 26 18.08753 26 Q16 26 12 26 Q10 26 9 25 Q8 24 8 22 Q8 16 8 11 Q8 6 8 2 Q8 0 6 0 Q4 0 4 2 Q4 6 4 23 Q4 40 4.00988 43.99013 Q4.01935 47.81506 5.58978 51.61784 Q7.1602 55.42063 9.86485 58.12528 Q12.56949 60.82992 16.37227 62.40508 Q20.17506 63.98025 24 63.98025 Q27.82494 63.98025 31.62772 62.40508 Q35.43051 60.82992 38.13515 58.12528 Q40.8398 55.42063 42.41025 51.61784 Q43.9807 47.81506 43.99012 43.99013 zM8.00988 43.98025 Q8 40 8 38 Q8 36 8 34 Q8 32 9 31 Q10 30 12 30 Q16 30 18 29.9802 Q20 29.9604 24.00988 29.98025 Q28 30 30 30 Q32 30 36 30 Q38 30 39 31 Q40 32 40 34 Q40 36 40 38 Q40 40 40.00988 43.98025 Q40.01846 47.43573 38.89183 50.14225 Q37.76519 52.84876 35.32179 55.29216 Q32.87839 57.73556 30.17188 58.85791 Q27.46537 59.98025 24.00988 59.98025 Q20.55439 59.98025 17.84788 58.85791 Q15.14137 57.73556 12.69797 55.29216 Q10.25457 52.84876 9.13652 50.14225 Q8.01846 47.43573 8.00988 43.98025 zM24 69.56543 Q22 71.56543 20 72.78271 Q18 74 16 74 Q14 74 12 72.83704 Q10 71.67407 7.99012 69.66419 Q5.95186 68.51609 6.10091 70.73047 Q6.24996 72.94485 8 74.43457 Q10.24996 76.07571 11.88548 77.03786 Q13.52099 78 16 78 Q18.47901 78 20.22963 77.2074 Q21.98024 76.41481 23.99012 74.42469 Q26 72.43457 28 71.21729 Q30 70 32 70 Q34 70 36.00494 71.16791 Q38.00988 72.33581 40 74.32593 Q42.00988 75.46667 42.00494 73.51605 Q42 71.56543 39.99012 69.66419 Q38 67.67407 36.23951 66.83704 Q34.47901 66 32 66 Q29.52099 66 27.76049 66.78271 Q26 67.56543 24 69.56543 z" />
<glyph unicode="" horiz-adv-x="48" d="M43.99012 43.99013 Q44 39.98025 44 22.99012 Q44 6 44 2 Q44 0 42 0 Q40 0 40 2 Q40 6 40 11 Q40 16 40 22 Q40 24.01975 39 25.00988 Q38 26 36 26 Q32 26 29.91247 26 Q27.82494 26 24 26 Q20.17506 26 18.08753 26 Q16 26 12 26 Q10 26 9 25 Q8 24 8 22 Q8 16 8 11 Q8 6 8 2 Q8 0 6 0 Q4 0 4 2 Q4 6 4 23 Q4 40 4.00988 43.99013 Q4.01935 47.81506 5.58978 51.61784 Q7.1602 55.42063 9.86485 58.12528 Q12.56949 60.82992 16.37227 62.40508 Q20.17506 63.98025 24 63.98025 Q27.82494 63.98025 31.62772 62.40508 Q35.43051 60.82992 38.13515 58.12528 Q40.8398 55.42063 42.41025 51.61784 Q43.9807 47.81506 43.99012 43.99013 zM8.00988 43.98025 Q8 40 8 38 Q8 36 8 34 Q8 32 9 31 Q10 30 12 30 Q16 30 18 29.9802 Q20 29.9604 24.00988 29.98025 Q28 30 30 30 Q32 30 36 30 Q38 30 39 31 Q40 32 40 34 Q40 36 40 38 Q40 40 40.00988 43.98025 Q40.01846 47.43573 38.89183 50.14225 Q37.76519 52.84876 35.32179 55.29216 Q32.87839 57.73556 30.17188 58.85791 Q27.46537 59.98025 24.00988 59.98025 Q20.55439 59.98025 17.84788 58.85791 Q15.14137 57.73556 12.69797 55.29216 Q10.25457 52.84876 9.13652 50.14225 Q8.01846 47.43573 8.00988 43.98025 zM36.98017 69.10872 Q36.42695 68.5555 35.64911 68.2333 Q34.87127 67.91111 34.08889 67.91111 Q33.30651 67.91111 32.52867 68.2333 Q31.75083 68.5555 31.19761 69.10872 Q30.64439 69.66194 30.32219 70.43979 Q30 71.21763 30 72 Q30 72.78238 30.32219 73.56022 Q30.64439 74.33806 31.19761 74.89128 Q31.75083 75.4445 32.52867 75.7667 Q33.30651 76.08889 34.08889 76.08889 Q34.87127 76.08889 35.64911 75.7667 Q36.42695 75.4445 36.98017 74.89128 Q37.53339 74.33806 37.85559 73.56022 Q38.17778 72.78238 38.17778 72 Q38.17778 71.21763 37.85559 70.43979 Q37.53339 69.66194 36.98017 69.10872 zM16.80239 69.10872 Q16.24917 68.5555 15.47133 68.2333 Q14.69349 67.91111 13.91111 67.91111 Q13.12873 67.91111 12.35089 68.2333 Q11.57305 68.5555 11.01983 69.10872 Q10.46661 69.66194 10.14441 70.43979 Q9.82222 71.21763 9.82222 72 Q9.82222 72.78238 10.14441 73.56022 Q10.46661 74.33806 11.01983 74.89128 Q11.57305 75.4445 12.35089 75.7667 Q13.12873 76.08889 13.91111 76.08889 Q14.69349 76.08889 15.47133 75.7667 Q16.24917 75.4445 16.80239 74.89128 Q17.35561 74.33806 17.67781 73.56022 Q18 72.78238 18 72 Q18 71.21763 17.67781 70.43979 Q17.35561 69.66194 16.80239 69.10872 z" />
<glyph unicode="" horiz-adv-x="48" d="M43.99012 43.99013 Q44 39.98025 44 22.99012 Q44 6 44 2 Q44 0 42 0 Q40 0 40 2 Q40 6 40 11 Q40 16 40 22 Q40 24.01975 39 25.00988 Q38 26 36 26 Q32 26 29.91247 26 Q27.82494 26 24 26 Q20.17506 26 18.08753 26 Q16 26 12 26 Q10 26 9 25 Q8 24 8 22 Q8 16 8 11 Q8 6 8 2 Q8 0 6 0 Q4 0 4 2 Q4 6 4 23 Q4 40 4.00988 43.99013 Q4.01935 47.81506 5.58978 51.61784 Q7.1602 55.42063 9.86485 58.12528 Q12.56949 60.82992 16.37227 62.40508 Q20.17506 63.98025 24 63.98025 Q27.82494 63.98025 31.62772 62.40508 Q35.43051 60.82992 38.13515 58.12528 Q40.8398 55.42063 42.41025 51.61784 Q43.9807 47.81506 43.99012 43.99013 zM8.00988 43.98025 Q8 40 8 38 Q8 36 8 34 Q8 32 9 31 Q10 30 12 30 Q16 30 18 29.9802 Q20 29.9604 24.00988 29.98025 Q28 30 30 30 Q32 30 36 30 Q38 30 39 31 Q40 32 40 34 Q40 36 40 38 Q40 40 40.00988 43.98025 Q40.01846 47.43573 38.89183 50.14225 Q37.76519 52.84876 35.32179 55.29216 Q32.87839 57.73556 30.17188 58.85791 Q27.46537 59.98025 24.00988 59.98025 Q20.55439 59.98025 17.84788 58.85791 Q15.14137 57.73556 12.69797 55.29216 Q10.25457 52.84876 9.13652 50.14225 Q8.01846 47.43573 8.00988 43.98025 zM31.07107 62.92893 Q29.71807 61.57594 27.81574 60.78797 Q25.91342 60 24 60 Q22.08658 60 20.18426 60.78796 Q18.28193 61.57593 16.92893 62.92893 Q15.57594 64.28192 14.78797 66.18425 Q14 68.08658 14 70 Q14 71.91341 14.78796 73.81575 Q15.57592 75.71808 16.92893 77.07107 Q18.28193 78.42405 20.18426 79.21202 Q22.08658 79.99999 24 79.99999 Q25.91342 79.99999 27.81575 79.21203 Q29.71808 78.42407 31.07107 77.07107 Q32.42406 75.71807 33.21203 73.81574 Q34 71.91341 34 70 Q34 68.08658 33.21203 66.18425 Q32.42406 64.28192 31.07107 62.92893 zM30 70 Q30 71.26019 29.6289 72.35711 Q29.25781 73.45403 28.35592 74.35592 Q27.45403 75.25782 26.35712 75.62891 Q25.2602 76 24 76 Q22.7398 76 21.64289 75.62891 Q20.54598 75.25782 19.64408 74.35592 Q18.74219 73.45403 18.37109 72.35711 Q18 71.26019 18 70 Q18 68.7398 18.3711 67.64289 Q18.74219 66.54597 19.64408 65.64408 Q20.54597 64.74218 21.64288 64.37109 Q22.7398 64 24 64 Q25.2602 64 26.35711 64.37109 Q27.45402 64.74218 28.35592 65.64408 Q29.25781 66.54597 29.62891 67.64288 Q30 68.7398 30 70 z" />
<glyph unicode="" horiz-adv-x="78" d="M8.00988 43.98025 Q8 40 8 39 Q8 38 8 36 Q8 34 9 33 Q10 32 12 32 Q16 32 18 31.9802 Q20 31.9604 24.00988 31.98025 Q28 32 30 32 Q32 32 36 32 Q38 32 39 33 Q40 34 40 36 Q40 38 40 39 Q40 40 40.00988 43.98025 Q40.01846 47.43573 40.00923 51.71787 Q40 56 38 58 Q36 60 31.73268 59.99012 Q27.46537 59.98025 24.00988 59.98025 Q20.55439 59.98025 17.84788 58.85791 Q15.14137 57.73556 12.69797 55.29216 Q10.25457 52.84876 9.13652 50.14225 Q8.01846 47.43573 8.00988 43.98025 zM43.99012 43.99013 Q44 39.98025 44 27.99012 Q44 16 44 12 Q44 10 42 10 Q40 10 40 12 Q40 16.14821 40 17.0741 Q40 18 40 24 Q40 26.01975 39 27.00988 Q38 28 36 28 Q32 28 29.91247 28 Q27.82494 28 24 28 Q20.17506 28 18.08753 28 Q16 28 12 28 Q10 28 9 27 Q8 26 8 24 Q8 18 8 12 Q8 6 8 2 Q8 0 6 0 Q4 0 4 2 Q4 6 4 23 Q4 40 4.00988 43.99013 Q4.01935 47.81506 5.58978 51.61784 Q7.1602 55.42063 9.86485 58.12528 Q12.56949 60.82992 16.37227 62.40508 Q20.17506 63.98025 24 63.98025 Q27.82494 63.98025 33.91247 63.99012 Q40 64 42 64 Q44 64 43.99035 55.90753 Q43.9807 47.81506 43.99012 43.99013 zM72 60 Q56 60 52 60 Q48 60 46 58 Q44 56 44 52 Q44 48 44 44 Q44 42 44 40 Q44 38 44 36 Q44 34 45 33 Q46 32 48 32 Q52 32 58 32 Q64 32 68 32 Q70 32 70 30 Q70 28 68 28 Q64 28 58 28 Q52 28 48 28 Q46 28 45 27 Q44 26 44 24 Q44 22 44 22.76067 Q44 23.52133 44 20 Q44 16 44 12 Q44 8 46 6 Q48 4 52 4 Q56 4 72 4 Q74 4 74 2 Q74 0 72 0 Q56 0 51 0 Q46 0 43.07966 2.95621 Q40.03387 6.03941 40.01693 11.10724 Q40 16.17506 40 20 Q40 22 40 32 Q40 42 40 44 Q39.89122 48.10805 39.94561 56.05403 Q40 64 42 64 Q44 64 50 64 Q56 64 72 64 Q74 64 74 62 Q74 60 72 60 z" />
<glyph unicode="" horiz-adv-x="46" d="M40 64 Q42 64 42 62 Q42 60 40 60 Q36 60 34 60 Q32 60 28 60 Q24 60 20.28395 58.45432 Q16.5679 56.90864 14 54 Q11.09136 51.4321 9.54568 47.71605 Q8 44 8 40 Q8 36 8 32 Q8 28 8 24 Q8 20 9.60247 16.28395 Q11.20494 12.5679 13.88642 9.88642 Q16.5679 7.09136 20.28395 5.54568 Q24 4 28 4 Q32 4 34 4 Q36 4 40 4 Q42 4 42 2 Q42 0 40 0 Q36 0 34 -0 Q32 -0 28.00988 0.00988 Q23.4321 0.02122 18.864 1.89397 Q14.29591 3.76672 11.03522 7.06979 Q7.80214 10.3449 5.90107 14.71813 Q4 19.09136 4 24 Q4 28 3.99202 31.99999 Q3.98404 35.99998 4 40 Q4.01889 44.73354 5.90235 49.21954 Q7.78582 53.70553 11.09136 56.97778 Q14.27283 60.1272 18.85246 62.05299 Q23.4321 63.97878 28.00988 63.99012 Q32 64 34 64 Q36 64 40 64 zM15.99012 -11.99012 Q13.99012 -11.99012 13.99012 -9.99012 Q13.99012 -7.99012 15.99012 -7.99012 Q17.99012 -7.99012 19.83209 -7.53827 Q21.67407 -7.08642 23.37596 -5.39076 Q25.18518 -3.55555 25.55556 -1.95488 Q25.92593 -0.35422 26 2 Q26 4 28 4 Q30 4 29.99012 2.00988 Q29.97021 -1.99996 29.20685 -4.00443 Q28.44348 -6.0089 26.21728 -8.21728 Q23.99108 -10.42566 21.9906 -11.20789 Q19.99012 -11.99012 15.99012 -11.99012 z" />
<glyph unicode="" horiz-adv-x="42" d="M36 60 Q20 60 16 60 Q12 60 10 58 Q8 56 8 52 Q8 48 8 44 Q8 42 8 41 Q8 40 8 38 Q8 36 9 35 Q10 34 12 34 Q16 34 22 34 Q28 34 32 34 Q34 34 34 32 Q34 30 32 30 Q28 30 22 30 Q16 30 12 30 Q10 30 9 29 Q8 28 8 26 Q8 24 8 23 Q8 22 8 20 Q8 16 8 12 Q8 8 10 6 Q12 4 16 4 Q20 4 36 4 Q38 4 38 2 Q38 0 36 0 Q20 0 15 0 Q10 0 7.07966 2.95621 Q4.03387 6.03941 4.01693 11.10724 Q4 16.17506 4 20 Q4 22 4 32 Q4 42 4 44 Q3.89122 48.10805 3.96392 53.03572 Q4.03663 57.96338 7.07966 61.04379 Q10 64 15 64 Q20 64 36 64 Q38 64 38 62 Q38 60 36 60 zM27.30348 67.74595 Q28.71967 66.33372 27.30743 64.91753 Q25.8952 63.50134 24.47901 64.91358 Q23.09823 66.29051 19.62346 69.75733 Q16.14869 73.22415 14.73251 74.63638 Q13.31632 76.04862 14.72856 77.46481 Q16.1408 78.881 17.55698 77.46876 Q18.97317 76.05652 22.43024 72.60735 Q25.8873 69.15819 27.30348 67.74595 z" />
<glyph unicode="" horiz-adv-x="42" d="M36 60 Q20 60 16 60 Q12 60 10 58 Q8 56 8 52 Q8 48 8 44 Q8 42 8 41 Q8 40 8 38 Q8 36 9 35 Q10 34 12 34 Q16 34 22 34 Q28 34 32 34 Q34 34 34 32 Q34 30 32 30 Q28 30 22 30 Q16 30 12 30 Q10 30 9 29 Q8 28 8 26 Q8 24 8 23 Q8 22 8 20 Q8 16 8 12 Q8 8 10 6 Q12 4 16 4 Q20 4 36 4 Q38 4 38 2 Q38 0 36 0 Q20 0 15 0 Q10 0 7.07966 2.95621 Q4.03387 6.03941 4.01693 11.10724 Q4 16.17506 4 20 Q4 22 4 32 Q4 42 4 44 Q3.89122 48.10805 3.96392 53.03572 Q4.03663 57.96338 7.07966 61.04379 Q10 64 15 64 Q20 64 36 64 Q38 64 38 62 Q38 60 36 60 zM24.42326 77.31567 Q25.83944 78.72791 27.25168 77.31172 Q28.66392 75.89553 27.24773 74.48329 Q25.83155 73.07106 22.35678 69.60424 Q18.88202 66.13742 17.50123 64.76049 Q16.08504 63.34825 14.67281 64.76444 Q13.26057 66.18063 14.67676 67.59286 Q16.09294 69.0051 19.55001 72.45426 Q23.00707 75.90343 24.42326 77.31567 z" />
<glyph unicode="" horiz-adv-x="42" d="M36 60 Q20 60 16 60 Q12 60 10 58 Q8 56 8 52 Q8 48 8 44 Q8 42 8 41 Q8 40 8 38 Q8 36 9 35 Q10 34 12 34 Q16 34 22 34 Q28 34 32 34 Q34 34 34 32 Q34 30 32 30 Q28 30 22 30 Q16 30 12 30 Q10 30 9 29 Q8 28 8 26 Q8 24 8 23 Q8 22 8 20 Q8 16 8 12 Q8 8 10 6 Q12 4 16 4 Q20 4 36 4 Q38 4 38 2 Q38 0 36 0 Q20 0 15 0 Q10 0 7.07966 2.95621 Q4.03387 6.03941 4.01693 11.10724 Q4 16.17506 4 20 Q4 22 4 32 Q4 42 4 44 Q3.89122 48.10805 3.96392 53.03572 Q4.03663 57.96338 7.07966 61.04379 Q10 64 15 64 Q20 64 36 64 Q38 64 38 62 Q38 60 36 60 zM24.52346 75.02222 Q26.52346 73.02222 28.26597 71.2797 Q30.00849 69.53719 32.00849 67.53719 Q33.78133 65.76435 32.12207 64.13966 Q30.46281 62.51497 28.46281 64.51497 Q24.97778 68 23.97778 69 Q22.97778 70 20.97778 72 Q18.97778 70 17.97778 69 Q16.97778 68 13.49275 64.51497 Q11.49275 62.51497 9.83349 64.13966 Q8.17423 65.76435 9.94707 67.53719 Q11.94707 69.53719 13.68958 71.2797 Q15.4321 73.02222 17.4321 75.02222 Q20.22716 77.81728 20.97778 77.81728 Q21.7284 77.81728 24.52346 75.02222 z" />
<glyph unicode="" horiz-adv-x="42" d="M36 60 Q20 60 16 60 Q12 60 10 58 Q8 56 8 52 Q8 48 8 44 Q8 42 8 41 Q8 40 8 38 Q8 36 9 35 Q10 34 12 34 Q16 34 22 34 Q28 34 32 34 Q34 34 34 32 Q34 30 32 30 Q28 30 22 30 Q16 30 12 30 Q10 30 9 29 Q8 28 8 26 Q8 24 8 23 Q8 22 8 20 Q8 16 8 12 Q8 8 10 6 Q12 4 16 4 Q20 4 36 4 Q38 4 38 2 Q38 0 36 0 Q20 0 15 0 Q10 0 7.07966 2.95621 Q4.03387 6.03941 4.01693 11.10724 Q4 16.17506 4 20 Q4 22 4 32 Q4 42 4 44 Q3.89122 48.10805 3.96392 53.03572 Q4.03663 57.96338 7.07966 61.04379 Q10 64 15 64 Q20 64 36 64 Q38 64 38 62 Q38 60 36 60 zM32.98017 69.10872 Q32.42695 68.5555 31.64911 68.2333 Q30.87127 67.91111 30.08889 67.91111 Q29.30651 67.91111 28.52867 68.2333 Q27.75083 68.5555 27.19761 69.10872 Q26.64439 69.66194 26.32219 70.43979 Q26 71.21763 26 72 Q26 72.78238 26.32219 73.56022 Q26.64439 74.33806 27.19761 74.89128 Q27.75083 75.4445 28.52867 75.7667 Q29.30651 76.08889 30.08889 76.08889 Q30.87127 76.08889 31.64911 75.7667 Q32.42695 75.4445 32.98017 74.89128 Q33.53339 74.33806 33.85559 73.56022 Q34.17778 72.78238 34.17778 72 Q34.17778 71.21763 33.85559 70.43979 Q33.53339 69.66194 32.98017 69.10872 zM14.80239 69.10872 Q14.24917 68.5555 13.47133 68.2333 Q12.69349 67.91111 11.91111 67.91111 Q11.12873 67.91111 10.35089 68.2333 Q9.57305 68.5555 9.01983 69.10872 Q8.46661 69.66194 8.14441 70.43979 Q7.82222 71.21763 7.82222 72 Q7.82222 72.78238 8.14441 73.56022 Q8.46661 74.33806 9.01983 74.89128 Q9.57305 75.4445 10.35089 75.7667 Q11.12873 76.08889 11.91111 76.08889 Q12.69349 76.08889 13.47133 75.7667 Q14.24917 75.4445 14.80239 74.89128 Q15.35561 74.33806 15.67781 73.56022 Q16 72.78238 16 72 Q16 71.21763 15.67781 70.43979 Q15.35561 69.66194 14.80239 69.10872 z" />
<glyph unicode="" horiz-adv-x="20" d="M14 32 Q14.01618 27.99014 14.00652 15.99507 Q13.99686 4 14 2 Q14.00314 0 12.00314 -0.00314 Q10.00314 -0.00628 10 1.99372 Q9.99686 3.99371 10.00652 15.98878 Q10.01618 27.98386 10.0099 31.98385 Q10.00362 35.98385 10.00338 47.98879 Q10.00315 59.99372 10 61.99372 Q9.99686 63.99371 11.99686 63.99685 Q13.99686 64 14 62 Q14.00314 60 14.00338 47.99507 Q14.00361 35.99013 14 32 zM15.30348 67.52867 Q16.71967 66.11644 15.30743 64.70025 Q13.8952 63.28406 12.47901 64.6963 Q11.09823 66.07323 7.62346 69.54005 Q4.14869 73.00687 2.73251 74.4191 Q1.31632 75.83134 2.72856 77.24753 Q4.1408 78.66372 5.55698 77.25148 Q6.97317 75.83924 10.43024 72.39008 Q13.8873 68.94091 15.30348 67.52867 z" />
<glyph unicode="" horiz-adv-x="20" d="M10 32 Q10.01618 27.99014 10.00652 15.99507 Q9.99686 4 10 2 Q10.00314 0 8.00314 -0.00314 Q6.00314 -0.00628 6 1.99372 Q5.99686 3.99371 6.00652 15.98878 Q6.01618 27.98386 6.0099 31.98385 Q6.00362 35.98385 6.00338 47.98879 Q6.00315 59.99372 6 61.99372 Q5.99686 63.99371 7.99686 63.99685 Q9.99686 64 10 62 Q10.00314 60 10.00338 47.99507 Q10.00361 35.99013 10 32 zM14.57119 77.28824 Q15.98737 78.70048 17.39961 77.28429 Q18.81185 75.8681 17.39566 74.45586 Q15.97948 73.04363 12.50471 69.57681 Q9.02994 66.10999 7.64916 64.73306 Q6.23297 63.32082 4.82074 64.73701 Q3.4085 66.1532 4.82469 67.56543 Q6.24087 68.97767 9.69794 72.42683 Q13.155 75.876 14.57119 77.28824 z" />
<glyph unicode="" horiz-adv-x="28" d="M16 32 Q16.01618 27.99014 16.00652 15.99507 Q15.99686 4 16 2 Q16.00314 0 14.00314 -0.00314 Q12.00314 -0.00628 12 1.99372 Q11.99686 3.99371 12.00652 15.98878 Q12.01618 27.98386 12.0099 31.98385 Q12.00362 35.98385 12.00338 47.98879 Q12.00315 59.99372 12 61.99372 Q11.99686 63.99371 13.99686 63.99685 Q15.99686 64 16 62 Q16.00314 60 16.00338 47.99507 Q16.00361 35.99013 16 32 zM17.54568 75.02222 Q19.54568 73.02222 21.28819 71.2797 Q23.03071 69.53719 25.03071 67.53719 Q26.80355 65.76435 25.14429 64.13966 Q23.48503 62.51497 21.48503 64.51497 Q18 68 17 69 Q16 70 14 72 Q12 70 11 69 Q10 68 6.51497 64.51497 Q4.51497 62.51497 2.85571 64.13966 Q1.19645 65.76435 2.96929 67.53719 Q4.96929 69.53719 6.71181 71.2797 Q8.45432 73.02222 10.45432 75.02222 Q13.24938 77.81728 14 77.81728 Q14.75062 77.81728 17.54568 75.02222 z" />
<glyph unicode="" horiz-adv-x="32" d="M18 32.10864 Q18.01618 28.09878 18.00652 16.10371 Q17.99686 4.10864 18 2.10864 Q18.00314 0.10864 16.00314 0.1055 Q14.00314 0.10236 14 2.10236 Q13.99686 4.10235 14.00652 16.09742 Q14.01618 28.0925 14.0099 32.09249 Q14.00362 36.09249 14.00338 48.09742 Q14.00315 60.10236 14 62.10236 Q13.99686 64.10235 15.99686 64.1055 Q17.99686 64.10864 18 62.10864 Q18.00314 60.10864 18.00338 48.1037 Q18.00361 36.09877 18 32.10864 zM26.98017 69.23712 Q26.42695 68.6839 25.64911 68.36171 Q24.87127 68.03951 24.08889 68.03951 Q23.30651 68.03951 22.52867 68.36171 Q21.75083 68.6839 21.19761 69.23712 Q20.64439 69.79034 20.32219 70.56818 Q20 71.34603 20 72.1284 Q20 72.91078 20.32219 73.68862 Q20.64439 74.46646 21.19761 75.01968 Q21.75083 75.5729 22.52867 75.89509 Q23.30651 76.21729 24.08889 76.21729 Q24.87127 76.21729 25.64911 75.89509 Q26.42695 75.5729 26.98017 75.01968 Q27.53339 74.46646 27.85559 73.68862 Q28.17778 72.91078 28.17778 72.1284 Q28.17778 71.34603 27.85559 70.56818 Q27.53339 69.79034 26.98017 69.23712 zM10.80239 69.23712 Q10.24917 68.6839 9.47133 68.36171 Q8.69349 68.03951 7.91111 68.03951 Q7.12873 68.03951 6.35089 68.36171 Q5.57305 68.6839 5.01983 69.23712 Q4.46661 69.79034 4.14441 70.56818 Q3.82222 71.34603 3.82222 72.1284 Q3.82222 72.91078 4.14441 73.68862 Q4.46661 74.46646 5.01983 75.01968 Q5.57305 75.5729 6.35089 75.89509 Q7.12873 76.21729 7.91111 76.21729 Q8.69349 76.21729 9.47133 75.89509 Q10.24917 75.5729 10.80239 75.01968 Q11.35561 74.46646 11.67781 73.68862 Q12 72.91078 12 72.1284 Q12 71.34603 11.67781 70.56818 Q11.35561 69.79034 10.80239 69.23712 z" />
<glyph unicode="" horiz-adv-x="54" d="M8 2 Q8.00314 0 6.00157 -0.00314 Q4 -0.00628 4 1.99372 Q4 6 4 31 Q4 56 4 60 Q4 64 6.5679 64 Q9.1358 64 14.22716 56 Q18.22716 50 27.11358 36 Q36 22 40 16 Q44 10 45 9 Q46 8 46 10 Q46 16 46 37 Q46 58 46 62 Q46 64 48 64 Q50 64 50 62 Q50 58 50 33 Q50 8 50 4 Q50 0 47.4321 0 Q44.8642 0 39.77284 8 Q35.77284 14 26.88642 28 Q18 42 14 48 Q10 54 9 55 Q8 56 8 54 Q8 48 8 27 Q8 6 8 2 zM26.91358 69.56543 Q24.91358 71.56543 22.91358 72.78271 Q20.91358 74 18.91358 74 Q16.91358 74 14.91358 72.83704 Q12.91358 71.67407 10.9037 69.66419 Q8.86544 68.51609 9.01449 70.73047 Q9.16354 72.94485 10.91358 74.43457 Q13.16354 76.07571 14.79905 77.03786 Q16.43457 78 18.91358 78 Q21.39259 78 23.1432 77.2074 Q24.89382 76.41481 26.9037 74.42469 Q28.91358 72.43457 30.91358 71.21729 Q32.91358 70 34.91358 70 Q36.91358 70 38.91852 71.16791 Q40.92346 72.33581 42.91358 74.32593 Q44.92346 75.46667 44.91852 73.51605 Q44.91358 71.56543 42.9037 69.66419 Q40.91358 67.67407 39.15309 66.83704 Q37.39259 66 34.91358 66 Q32.43457 66 30.67408 66.78271 Q28.91358 67.56543 26.91358 69.56543 z" />
<glyph unicode="" horiz-adv-x="56" d="M44.95802 7.00741 Q41.79972 3.73554 37.20913 1.83651 Q32.61855 -0.06252 28 0 Q23.46964 0.06133 18.86025 1.87476 Q14.25087 3.6882 11.02716 7.00741 Q7.85884 10.26959 5.91539 14.6476 Q3.97195 19.0256 4.01481 23.98519 Q4.04938 27.98519 4.04938 31.98519 Q4.04938 35.98519 4.04938 39.98519 Q4.04938 44.66667 5.95637 49.17614 Q7.86336 53.6856 11.14074 56.96297 Q14.29904 60.12126 18.89678 62.07792 Q23.49452 64.03457 28 64.03457 Q32.61906 64.03457 37.2377 62.04882 Q41.85633 60.06306 44.95802 56.96297 Q48.29718 53.62553 50.17328 49.1461 Q52.04938 44.66667 52.04938 39.98519 Q52.04938 35.98519 52.05334 31.98522 Q52.05729 27.98525 52.08395 23.98519 Q52.117 19.02553 50.14431 14.68104 Q48.17161 10.33656 44.95802 7.00741 zM48.04938 23.98519 Q48.04938 27.98519 48.04938 31.98519 Q48.04938 35.98519 48.04938 39.98519 Q48.04938 44.02963 46.42477 47.75443 Q44.80016 51.47922 42.16296 54.09877 Q39.42801 56.81541 35.75113 58.40771 Q32.07424 60 28 60 Q24.03934 60 20.37383 58.44534 Q16.70832 56.89069 13.82222 53.98519 Q11.22834 51.37388 9.63321 47.68417 Q8.03809 43.99447 8.04938 39.98519 Q8.04938 35.98519 8.04938 31.98519 Q8.04938 27.98519 8.04938 23.98519 Q8.04938 19.91117 9.65511 16.28803 Q11.26084 12.66489 13.9358 9.87161 Q16.5037 7.19013 20.27152 5.61235 Q24.03934 4.03457 28 4.03457 Q32.07424 4.03457 35.78371 5.56022 Q39.49318 7.08587 42.16296 9.87161 Q44.77312 12.59515 46.41125 16.30984 Q48.04938 20.02453 48.04938 23.98519 zM34.28126 67.48422 Q35.69745 66.07199 34.28521 64.6558 Q32.87298 63.23961 31.45679 64.65185 Q30.07601 66.02878 26.60124 69.4956 Q23.12647 72.96242 21.71029 74.37465 Q20.2941 75.78689 21.70634 77.20308 Q23.11858 78.61927 24.53476 77.20703 Q25.95095 75.79479 29.40801 72.34563 Q32.86508 68.89646 34.28126 67.48422 z" />
<glyph unicode="" horiz-adv-x="56" d="M44.95802 7.00741 Q41.79972 3.73554 37.20913 1.83651 Q32.61855 -0.06252 28 0 Q23.46964 0.06133 18.86025 1.87476 Q14.25087 3.6882 11.02716 7.00741 Q7.85884 10.26959 5.91539 14.6476 Q3.97195 19.0256 4.01481 23.98519 Q4.04938 27.98519 4.04938 31.98519 Q4.04938 35.98519 4.04938 39.98519 Q4.04938 44.66667 5.95637 49.17614 Q7.86336 53.6856 11.14074 56.96297 Q14.29904 60.12126 18.89678 62.07792 Q23.49452 64.03457 28 64.03457 Q32.61906 64.03457 37.2377 62.04882 Q41.85633 60.06306 44.95802 56.96297 Q48.29718 53.62553 50.17328 49.1461 Q52.04938 44.66667 52.04938 39.98519 Q52.04938 35.98519 52.05334 31.98522 Q52.05729 27.98525 52.08395 23.98519 Q52.117 19.02553 50.14431 14.68104 Q48.17161 10.33656 44.95802 7.00741 zM48.04938 23.98519 Q48.04938 27.98519 48.04938 31.98519 Q48.04938 35.98519 48.04938 39.98519 Q48.04938 44.02963 46.42477 47.75443 Q44.80016 51.47922 42.16296 54.09877 Q39.42801 56.81541 35.75113 58.40771 Q32.07424 60 28 60 Q24.03934 60 20.37383 58.44534 Q16.70832 56.89069 13.82222 53.98519 Q11.22834 51.37388 9.63321 47.68417 Q8.03809 43.99447 8.04938 39.98519 Q8.04938 35.98519 8.04938 31.98519 Q8.04938 27.98519 8.04938 23.98519 Q8.04938 19.91117 9.65511 16.28803 Q11.26084 12.66489 13.9358 9.87161 Q16.5037 7.19013 20.27152 5.61235 Q24.03934 4.03457 28 4.03457 Q32.07424 4.03457 35.78371 5.56022 Q39.49318 7.08587 42.16296 9.87161 Q44.77312 12.59515 46.41125 16.30984 Q48.04938 20.02453 48.04938 23.98519 zM31.2924 77.22679 Q32.70858 78.63903 34.12082 77.22284 Q35.53306 75.80665 34.11687 74.39441 Q32.70069 72.98218 29.22592 69.51536 Q25.75115 66.04853 24.37037 64.67161 Q22.95418 63.25937 21.54195 64.67556 Q20.12971 66.09175 21.5459 67.50398 Q22.96208 68.91622 26.41914 72.36539 Q29.87621 75.81455 31.2924 77.22679 z" />
<glyph unicode="" horiz-adv-x="56" d="M44.95802 7.00741 Q41.79972 3.73554 37.20913 1.83651 Q32.61855 -0.06252 28 0 Q23.46964 0.06133 18.86025 1.87476 Q14.25087 3.6882 11.02716 7.00741 Q7.85884 10.26959 5.91539 14.6476 Q3.97195 19.0256 4.01481 23.98519 Q4.04938 27.98519 4.04938 31.98519 Q4.04938 35.98519 4.04938 39.98519 Q4.04938 44.66667 5.95637 49.17614 Q7.86336 53.6856 11.14074 56.96297 Q14.29904 60.12126 18.89678 62.07792 Q23.49452 64.03457 28 64.03457 Q32.61906 64.03457 37.2377 62.04882 Q41.85633 60.06306 44.95802 56.96297 Q48.29718 53.62553 50.17328 49.1461 Q52.04938 44.66667 52.04938 39.98519 Q52.04938 35.98519 52.05334 31.98522 Q52.05729 27.98525 52.08395 23.98519 Q52.117 19.02553 50.14431 14.68104 Q48.17161 10.33656 44.95802 7.00741 zM48.04938 23.98519 Q48.04938 27.98519 48.04938 31.98519 Q48.04938 35.98519 48.04938 39.98519 Q48.04938 44.02963 46.42477 47.75443 Q44.80016 51.47922 42.16296 54.09877 Q39.42801 56.81541 35.75113 58.40771 Q32.07424 60 28 60 Q24.03934 60 20.37383 58.44534 Q16.70832 56.89069 13.82222 53.98519 Q11.22834 51.37388 9.63321 47.68417 Q8.03809 43.99447 8.04938 39.98519 Q8.04938 35.98519 8.04938 31.98519 Q8.04938 27.98519 8.04938 23.98519 Q8.04938 19.91117 9.65511 16.28803 Q11.26084 12.66489 13.9358 9.87161 Q16.5037 7.19013 20.27152 5.61235 Q24.03934 4.03457 28 4.03457 Q32.07424 4.03457 35.78371 5.56022 Q39.49318 7.08587 42.16296 9.87161 Q44.77312 12.59515 46.41125 16.30984 Q48.04938 20.02453 48.04938 23.98519 zM31.54568 75.02222 Q33.54568 73.02222 35.28819 71.2797 Q37.03071 69.53719 39.03071 67.53719 Q40.80355 65.76435 39.14429 64.13966 Q37.48503 62.51497 35.48503 64.51497 Q32 68 31 69 Q30 70 28 72 Q26 70 25 69 Q24 68 20.51497 64.51497 Q18.51497 62.51497 16.85571 64.13966 Q15.19645 65.76435 16.96929 67.53719 Q18.96929 69.53719 20.71181 71.2797 Q22.45432 73.02222 24.45432 75.02222 Q27.24938 77.81728 28 77.81728 Q28.75062 77.81728 31.54568 75.02222 z" />
<glyph unicode="" horiz-adv-x="56" d="M44.95802 7.00741 Q41.79972 3.73554 37.20913 1.83651 Q32.61855 -0.06252 28 0 Q23.46964 0.06133 18.86025 1.87476 Q14.25087 3.6882 11.02716 7.00741 Q7.85884 10.26959 5.91539 14.6476 Q3.97195 19.0256 4.01481 23.98519 Q4.04938 27.98519 4.04938 31.98519 Q4.04938 35.98519 4.04938 39.98519 Q4.04938 44.66667 5.95637 49.17614 Q7.86336 53.6856 11.14074 56.96297 Q14.29904 60.12126 18.89678 62.07792 Q23.49452 64.03457 28 64.03457 Q32.61906 64.03457 37.2377 62.04882 Q41.85633 60.06306 44.95802 56.96297 Q48.29718 53.62553 50.17328 49.1461 Q52.04938 44.66667 52.04938 39.98519 Q52.04938 35.98519 52.05334 31.98522 Q52.05729 27.98525 52.08395 23.98519 Q52.117 19.02553 50.14431 14.68104 Q48.17161 10.33656 44.95802 7.00741 zM48.04938 23.98519 Q48.04938 27.98519 48.04938 31.98519 Q48.04938 35.98519 48.04938 39.98519 Q48.04938 44.02963 46.42477 47.75443 Q44.80016 51.47922 42.16296 54.09877 Q39.42801 56.81541 35.75113 58.40771 Q32.07424 60 28 60 Q24.03934 60 20.37383 58.44534 Q16.70832 56.89069 13.82222 53.98519 Q11.22834 51.37388 9.63321 47.68417 Q8.03809 43.99447 8.04938 39.98519 Q8.04938 35.98519 8.04938 31.98519 Q8.04938 27.98519 8.04938 23.98519 Q8.04938 19.91117 9.65511 16.28803 Q11.26084 12.66489 13.9358 9.87161 Q16.5037 7.19013 20.27152 5.61235 Q24.03934 4.03457 28 4.03457 Q32.07424 4.03457 35.78371 5.56022 Q39.49318 7.08587 42.16296 9.87161 Q44.77312 12.59515 46.41125 16.30984 Q48.04938 20.02453 48.04938 23.98519 zM28 69.56543 Q26 71.56543 24 72.78271 Q22 74 20 74 Q18 74 16 72.83704 Q14 71.67407 11.99012 69.66419 Q9.95186 68.51609 10.10091 70.73047 Q10.24996 72.94485 12 74.43457 Q14.24996 76.07571 15.88548 77.03786 Q17.52099 78 20 78 Q22.47901 78 24.22963 77.2074 Q25.98024 76.41481 27.99012 74.42469 Q30 72.43457 32 71.21729 Q34 70 36 70 Q38 70 40.00494 71.16791 Q42.00988 72.33581 44 74.32593 Q46.00988 75.46667 46.00494 73.51605 Q46 71.56543 43.99012 69.66419 Q42 67.67407 40.23951 66.83704 Q38.47901 66 36 66 Q33.52099 66 31.76049 66.78271 Q30 67.56543 28 69.56543 z" />
<glyph unicode="" horiz-adv-x="56" d="M44.95802 7.00741 Q41.79972 3.73554 37.20913 1.83651 Q32.61855 -0.06252 28 0 Q23.46964 0.06133 18.86025 1.87476 Q14.25087 3.6882 11.02716 7.00741 Q7.85884 10.26959 5.91539 14.6476 Q3.97195 19.0256 4.01481 23.98519 Q4.04938 27.98519 4.04938 31.98519 Q4.04938 35.98519 4.04938 39.98519 Q4.04938 44.66667 5.95637 49.17614 Q7.86336 53.6856 11.14074 56.96297 Q14.29904 60.12126 18.89678 62.07792 Q23.49452 64.03457 28 64.03457 Q32.61906 64.03457 37.2377 62.04882 Q41.85633 60.06306 44.95802 56.96297 Q48.29718 53.62553 50.17328 49.1461 Q52.04938 44.66667 52.04938 39.98519 Q52.04938 35.98519 52.05334 31.98522 Q52.05729 27.98525 52.08395 23.98519 Q52.117 19.02553 50.14431 14.68104 Q48.17161 10.33656 44.95802 7.00741 zM48.04938 23.98519 Q48.04938 27.98519 48.04938 31.98519 Q48.04938 35.98519 48.04938 39.98519 Q48.04938 44.02963 46.42477 47.75443 Q44.80016 51.47922 42.16296 54.09877 Q39.42801 56.81541 35.75113 58.40771 Q32.07424 60 28 60 Q24.03934 60 20.37383 58.44534 Q16.70832 56.89069 13.82222 53.98519 Q11.22834 51.37388 9.63321 47.68417 Q8.03809 43.99447 8.04938 39.98519 Q8.04938 35.98519 8.04938 31.98519 Q8.04938 27.98519 8.04938 23.98519 Q8.04938 19.91117 9.65511 16.28803 Q11.26084 12.66489 13.9358 9.87161 Q16.5037 7.19013 20.27152 5.61235 Q24.03934 4.03457 28 4.03457 Q32.07424 4.03457 35.78371 5.56022 Q39.49318 7.08587 42.16296 9.87161 Q44.77312 12.59515 46.41125 16.30984 Q48.04938 20.02453 48.04938 23.98519 zM40.89128 69.19761 Q40.33806 68.64439 39.56022 68.32219 Q38.78238 68 38 68 Q37.21762 68 36.43978 68.32219 Q35.66194 68.64439 35.10872 69.19761 Q34.5555 69.75083 34.2333 70.52868 Q33.91111 71.30652 33.91111 72.08889 Q33.91111 72.87127 34.2333 73.64911 Q34.5555 74.42695 35.10872 74.98017 Q35.66194 75.53339 36.43978 75.85559 Q37.21762 76.17778 38 76.17778 Q38.78238 76.17778 39.56022 75.85559 Q40.33806 75.53339 40.89128 74.98017 Q41.4445 74.42695 41.7667 73.64911 Q42.08889 72.87127 42.08889 72.08889 Q42.08889 71.30652 41.7667 70.52868 Q41.4445 69.75083 40.89128 69.19761 zM20.7135 69.19761 Q20.16028 68.64439 19.38244 68.32219 Q18.6046 68 17.82222 68 Q17.03984 68 16.262 68.32219 Q15.48416 68.64439 14.93094 69.19761 Q14.37772 69.75083 14.05552 70.52868 Q13.73333 71.30652 13.73333 72.08889 Q13.73333 72.87127 14.05552 73.64911 Q14.37772 74.42695 14.93094 74.98017 Q15.48416 75.53339 16.262 75.85559 Q17.03984 76.17778 17.82222 76.17778 Q18.6046 76.17778 19.38244 75.85559 Q20.16028 75.53339 20.7135 74.98017 Q21.26672 74.42695 21.58892 73.64911 Q21.91111 72.87127 21.91111 72.08889 Q21.91111 71.30652 21.58892 70.52868 Q21.26672 69.75083 20.7135 69.19761 z" />
<glyph unicode="" horiz-adv-x="38" d="M7.65926 4.72592 Q6.24505 3.31171 4.83084 4.72593 Q3.41662 6.14015 4.83083 7.55435 Q6.24505 8.96856 9.07348 11.79699 Q11.9019 14.62542 13.31611 16.03963 Q15.18465 17.90816 15.18465 18.86806 Q15.18465 19.82795 13.31611 21.69648 Q11.9019 23.1107 9.07348 25.93912 Q6.24505 28.76755 4.83083 30.18177 Q3.41662 31.59598 4.83083 33.0102 Q6.24505 34.42441 7.65926 33.01019 Q9.06191 31.60754 11.89612 28.77333 Q14.73033 25.93913 16.14454 24.52491 Q18.01307 22.65638 18.97297 22.65638 Q19.93286 22.65638 21.80139 24.52491 Q23.21561 25.93913 26.0911 28.81462 Q28.96659 31.6901 30.28668 33.01019 Q31.70089 34.42441 33.1151 33.0102 Q34.52932 31.59598 33.1151 30.18177 Q31.70089 28.76755 28.87247 25.93912 Q26.04404 23.1107 24.62982 21.69648 Q22.76129 19.82795 22.76129 18.86806 Q22.76129 17.90816 24.62982 16.03963 Q26.04404 14.62542 28.87247 11.79699 Q31.70089 8.96856 33.1151 7.55435 Q34.52932 6.14014 33.1151 4.72593 Q31.70089 3.31171 30.28668 4.72592 Q28.87246 6.14014 26.04404 8.96857 Q23.21561 11.79699 21.80139 13.2112 Q19.93286 15.07974 19.05363 15.1604 Q18.1744 15.24106 16.14454 13.2112 Q14.89165 11.95832 11.98256 9.04923 Q9.07347 6.14014 7.65926 4.72592 z" />
<glyph unicode="" horiz-adv-x="56" d="M44.95802 6.97284 Q41.79972 3.70097 37.20913 1.80194 Q32.61855 -0.09709 28 -0.03457 Q23.46964 0.02676 18.86025 1.84019 Q14.25087 3.65363 11.02716 6.97284 Q7.85884 10.23502 5.91539 14.61303 Q3.97195 18.99103 4.01481 23.95062 Q4.04938 27.95062 4.04938 31.95062 Q4.04938 35.95062 4.04938 39.95062 Q4.04938 44.6321 5.95637 49.14157 Q7.86336 53.65103 11.14074 56.9284 Q14.29904 60.08669 18.89678 62.04334 Q23.49452 64 28 64 Q32.61906 64 37.2377 62.01425 Q41.85633 60.02849 44.95802 56.9284 Q48.29718 53.59096 50.17328 49.11153 Q52.04938 44.6321 52.04938 39.95062 Q52.04938 35.95062 52.05334 31.95065 Q52.05729 27.95068 52.08395 23.95062 Q52.117 18.99096 50.14431 14.64648 Q48.17161 10.30199 44.95802 6.97284 zM48.04938 23.95062 Q48.04938 27.95062 48.04938 31.95062 Q48.04938 35.95062 48.04938 39.95062 Q48.04938 43.99506 46.42477 47.71986 Q44.80016 51.44465 42.16296 54.0642 Q39.42801 56.78084 35.75113 58.37313 Q32.07424 59.96543 28 59.96543 Q24.03934 59.96543 20.37383 58.41077 Q16.70832 56.85612 13.82222 53.95062 Q11.22834 51.33931 9.63321 47.64961 Q8.03809 43.9599 8.04938 39.95062 Q8.04938 35.95062 8.04938 31.95062 Q8.04938 27.95062 8.04938 23.95062 Q8.04938 19.8766 9.65511 16.25346 Q11.26084 12.63032 13.9358 9.83704 Q16.5037 7.15556 20.27152 5.57778 Q24.03934 4 28 4 Q32.07424 4 35.78371 5.52565 Q39.49318 7.0513 42.16296 9.83704 Q44.77312 12.56058 46.41125 16.27527 Q48.04938 19.98996 48.04938 23.95062 zM29.93004 30.93478 Q27.93487 27.45649 20.98081 15.12209 Q14.02674 2.78769 13.02734 1.05529 Q12.02795 -0.67711 10.29554 0.32229 Q8.56314 1.32168 9.56254 3.05408 Q10.56194 4.78648 17.516 17.12088 Q24.47007 29.45528 26.46886 32.92008 Q28.46765 36.38488 35.41809 48.73278 Q42.36854 61.08067 43.36794 62.81307 Q44.36733 64.54547 46.09973 63.54607 Q47.83213 62.54668 46.83274 60.81428 Q45.83334 59.08188 38.88289 46.73398 Q31.93245 34.38608 29.93004 30.93478 z" />
<glyph unicode="" horiz-adv-x="52" d="M48 22 Q48 18 46.59007 13.53107 Q45.18015 9.06213 42.17555 5.91222 Q39.03855 2.67285 34.68348 1.31727 Q30.3284 -0.03831 26 0 Q21.66 -0.01354 17.31222 1.31869 Q12.96444 2.65092 9.77284 5.88642 Q6.77753 9.06795 5.38877 13.47902 Q4 17.8901 4 22 Q4 26 4 43 Q4 60 4 62 Q4 64 6 64 Q8 64 8 62 Q8 60 8 43 Q8 26 8 22 Q8 18.36645 9.17037 14.84249 Q10.34074 11.31852 12.63704 8.75062 Q15.09136 6.22716 18.82825 5.11358 Q22.56514 4 26 4 Q29.42716 3.8716 33.13877 5.05868 Q36.85037 6.24576 39.34321 8.75062 Q41.62469 11.34321 42.81235 14.87408 Q44 18.40494 44 22 Q44 26 44 43 Q44 60 44 62 Q44 64 46 64 Q48 64 48 62 Q48 60 48 43 Q48 26 48 22 zM32.23682 67.59286 Q33.65301 66.18063 32.24077 64.76444 Q30.82854 63.34825 29.41235 64.76049 Q28.03157 66.13742 24.5568 69.60424 Q21.08203 73.07106 19.66585 74.48329 Q18.24966 75.89553 19.6619 77.31172 Q21.07414 78.72791 22.49032 77.31567 Q23.90651 75.90343 27.36357 72.45426 Q30.82064 69.0051 32.23682 67.59286 z" />
<glyph unicode="" horiz-adv-x="52" d="M48 22 Q48 18 46.59007 13.53107 Q45.18015 9.06213 42.17555 5.91222 Q39.03855 2.67285 34.68348 1.31727 Q30.3284 -0.03831 26 0 Q21.66 -0.01354 17.31222 1.31869 Q12.96444 2.65092 9.77284 5.88642 Q6.77753 9.06795 5.38877 13.47902 Q4 17.8901 4 22 Q4 26 4 43 Q4 60 4 62 Q4 64 6 64 Q8 64 8 62 Q8 60 8 43 Q8 26 8 22 Q8 18.36645 9.17037 14.84249 Q10.34074 11.31852 12.63704 8.75062 Q15.09136 6.22716 18.82825 5.11358 Q22.56514 4 26 4 Q29.42716 3.8716 33.13877 5.05868 Q36.85037 6.24576 39.34321 8.75062 Q41.62469 11.34321 42.81235 14.87408 Q44 18.40494 44 22 Q44 26 44 43 Q44 60 44 62 Q44 64 46 64 Q48 64 48 62 Q48 60 48 43 Q48 26 48 22 zM29.61833 77.27123 Q31.03451 78.68347 32.44675 77.26728 Q33.85899 75.85109 32.4428 74.43885 Q31.02662 73.02662 27.55185 69.5598 Q24.07708 66.09298 22.6963 64.71605 Q21.28011 63.30381 19.86788 64.72 Q18.45564 66.13619 19.87183 67.54842 Q21.28801 68.96066 24.74508 72.40983 Q28.20214 75.85899 29.61833 77.27123 z" />
<glyph unicode="" horiz-adv-x="52" d="M48 22 Q48 18 46.59007 13.53107 Q45.18015 9.06213 42.17555 5.91222 Q39.03855 2.67285 34.68348 1.31727 Q30.3284 -0.03831 26 0 Q21.66 -0.01354 17.31222 1.31869 Q12.96444 2.65092 9.77284 5.88642 Q6.77753 9.06795 5.38877 13.47902 Q4 17.8901 4 22 Q4 26 4 43 Q4 60 4 62 Q4 64 6 64 Q8 64 8 62 Q8 60 8 43 Q8 26 8 22 Q8 18.36645 9.17037 14.84249 Q10.34074 11.31852 12.63704 8.75062 Q15.09136 6.22716 18.82825 5.11358 Q22.56514 4 26 4 Q29.42716 3.8716 33.13877 5.05868 Q36.85037 6.24576 39.34321 8.75062 Q41.62469 11.34321 42.81235 14.87408 Q44 18.40494 44 22 Q44 26 44 43 Q44 60 44 62 Q44 64 46 64 Q48 64 48 62 Q48 60 48 43 Q48 26 48 22 zM29.54568 75.02222 Q31.54568 73.02222 33.28819 71.27971 Q35.03071 69.53719 37.03071 67.53719 Q38.80355 65.76435 37.14429 64.13966 Q35.48503 62.51497 33.48503 64.51497 Q30 68 29 69 Q28 70 26 72 Q24 70 23 69 Q22 68 18.51497 64.51497 Q16.51497 62.51497 14.85571 64.13966 Q13.19645 65.76435 14.96929 67.53719 Q16.96929 69.53719 18.71181 71.27971 Q20.45432 73.02222 22.45432 75.02222 Q25.24938 77.81728 26 77.81728 Q26.75062 77.81728 29.54568 75.02222 z" />
<glyph unicode="" horiz-adv-x="52" d="M48 22 Q48 18 46.59007 13.53107 Q45.18015 9.06213 42.17555 5.91222 Q39.03855 2.67285 34.68348 1.31727 Q30.3284 -0.03831 26 0 Q21.66 -0.01354 17.31222 1.31869 Q12.96444 2.65092 9.77284 5.88642 Q6.77753 9.06795 5.38877 13.47902 Q4 17.8901 4 22 Q4 26 4 43 Q4 60 4 62 Q4 64 6 64 Q8 64 8 62 Q8 60 8 43 Q8 26 8 22 Q8 18.36645 9.17037 14.84249 Q10.34074 11.31852 12.63704 8.75062 Q15.09136 6.22716 18.82825 5.11358 Q22.56514 4 26 4 Q29.42716 3.8716 33.13877 5.05868 Q36.85037 6.24576 39.34321 8.75062 Q41.62469 11.34321 42.81235 14.87408 Q44 18.40494 44 22 Q44 26 44 43 Q44 60 44 62 Q44 64 46 64 Q48 64 48 62 Q48 60 48 43 Q48 26 48 22 zM38.89128 69.19761 Q38.33806 68.64439 37.56022 68.32219 Q36.78238 68 36 68 Q35.21762 68 34.43978 68.32219 Q33.66194 68.64439 33.10872 69.19761 Q32.5555 69.75083 32.2333 70.52868 Q31.91111 71.30652 31.91111 72.08889 Q31.91111 72.87127 32.2333 73.64911 Q32.5555 74.42695 33.10872 74.98017 Q33.66194 75.53339 34.43978 75.85559 Q35.21762 76.17778 36 76.17778 Q36.78238 76.17778 37.56022 75.85559 Q38.33806 75.53339 38.89128 74.98017 Q39.4445 74.42695 39.7667 73.64911 Q40.08889 72.87127 40.08889 72.08889 Q40.08889 71.30652 39.7667 70.52868 Q39.4445 69.75083 38.89128 69.19761 zM18.7135 69.19761 Q18.16028 68.64439 17.38244 68.32219 Q16.6046 68 15.82222 68 Q15.03984 68 14.262 68.32219 Q13.48416 68.64439 12.93094 69.19761 Q12.37772 69.75083 12.05552 70.52868 Q11.73333 71.30652 11.73333 72.08889 Q11.73333 72.87127 12.05552 73.64911 Q12.37772 74.42695 12.93094 74.98017 Q13.48416 75.53339 14.262 75.85559 Q15.03984 76.17778 15.82222 76.17778 Q16.6046 76.17778 17.38244 75.85559 Q18.16028 75.53339 18.7135 74.98017 Q19.26672 74.42695 19.58892 73.64911 Q19.91111 72.87127 19.91111 72.08889 Q19.91111 71.30652 19.58892 70.52868 Q19.26672 69.75083 18.7135 69.19761 z" />
<glyph unicode="" horiz-adv-x="44" d="M8.0617 47.9383 Q8.0617 45.9383 8.03085 24.96915 Q8 4 8 2 Q8 0 6 0 Q4 0 4 2 Q4 4 4 24 Q4 44 4 48 Q4 50.53971 5.199 53.84456 Q6.398 57.14941 8.65679 59.34321 Q10.82426 61.50789 13.81319 62.7231 Q16.80212 63.9383 20.0617 63.9383 Q23.04892 63.9383 26.1234 62.66064 Q29.19788 61.38299 31.40741 59.284 Q33.55681 57.0306 34.80101 54.00911 Q36.0452 50.98762 36 48 Q36.11883 44.81938 34.99929 41.84771 Q33.87976 38.87605 31.77497 36.71846 Q29.7913 34.7232 31.23451 33.71305 Q32.67772 32.70291 34.95323 30.55384 Q37.14748 28.28417 38.57374 24.8816 Q40 21.47902 40 18 Q40 14.61571 38.60189 11.16348 Q37.20378 7.71125 34.74972 5.29764 Q32.33153 2.85252 28.90886 1.42626 Q25.48619 0 22 0 Q20 0 18 0 Q16 0 14 0 Q12 0 12 2 Q12 4 14 4 Q16 4 18 4 Q20 4 22 4 Q24.71043 4.04736 27.35522 5.14209 Q30 6.23681 31.90528 8.14209 Q33.77759 10.02099 34.88879 12.67356 Q36 15.32614 36 18 Q35.97929 20.6802 34.89492 23.3401 Q33.81055 26 31.85791 27.90528 Q30 29.76319 27.33154 30.85791 Q24.66307 31.95264 22 32 Q20 32 20 34 Q20 36 22 36 Q24.81033 36 26.32773 37.15902 Q27.84513 38.31803 28.77757 39.34321 Q30.33293 41.11952 31.16647 43.37466 Q32 45.62979 32 48 Q31.98867 50.19824 31.03115 52.47871 Q30.07362 54.75919 28.53333 56.37531 Q26.88938 58 24.59894 58.9383 Q22.30851 59.8766 20 59.8766 Q17.75319 59.8149 15.47077 58.89826 Q13.18834 57.98161 11.53086 56.28148 Q9.9289 54.74084 8.9953 52.48949 Q8.0617 50.23813 8.0617 47.9383 z" />
<glyph unicode="" horiz-adv-x="46" d="M27.35287 53.55336 Q28.76906 52.14113 27.35682 50.72494 Q25.94458 49.30875 24.5284 50.72099 Q23.14762 52.09792 19.67285 55.56474 Q16.19808 59.03156 14.7819 60.44379 Q13.36571 61.85603 14.77795 63.27222 Q16.19019 64.68841 17.60637 63.27617 Q19.02256 61.86393 22.47963 58.41476 Q25.93669 54.9656 27.35287 53.55336 zM36.13515 5.85497 Q33.43051 3.15033 29.62773 1.57517 Q25.82494 0 22 0 Q18.17506 0 14.37227 1.57517 Q10.56949 3.15033 7.86485 5.85497 Q5.1602 8.55962 3.58504 12.3624 Q2.00988 16.16518 2.00988 19.99013 Q2.00988 23.81507 3.58504 27.61785 Q5.1602 31.42063 7.86485 34.12528 Q10.56949 36.82992 14.37227 38.40508 Q18.17506 39.98025 22 39.98025 Q25.82494 39.98025 29.62772 38.40508 Q33.43051 36.82992 36.13515 34.12528 Q38.8398 31.42063 40.41519 27.6129 Q41.99058 23.80518 42 19.98025 Q42.00988 15.97037 42.03144 9.98519 Q42.053 4 42.053 2 Q42.053 0 40.053 0 Q38.053 0 38.053 2 Q38.053 3.35833 38.053 3.9759 Q38.053 4.59347 38.053 6 Q38.053 8 37.14285 6.97626 Q36.2327 5.95252 36.13515 5.85497 zM33.3061 31.28635 Q31.16606 33.43124 28.11731 34.66705 Q25.06856 35.90286 22 35.90286 Q18.93144 35.90286 15.91731 34.63871 Q12.90318 33.37455 10.75415 31.2261 Q8.60168 29.07421 7.30084 26.06151 Q6 23.04881 6 19.98025 Q6 16.91169 7.2875 13.84656 Q8.575 10.78143 10.68809 8.66834 Q12.86724 6.48919 15.89934 5.23472 Q18.93144 3.98025 22 3.98025 Q25.06856 3.98025 28.08858 5.23957 Q31.1086 6.49889 33.27555 8.65408 Q35.46674 10.83338 36.73337 13.87253 Q38 16.91169 38 19.98025 Q38 23.1262 36.74743 26.10941 Q35.49486 29.09262 33.3061 31.28635 z" />
<glyph unicode="" horiz-adv-x="46" d="M26.45289 63.24654 Q27.86907 64.65878 29.28131 63.24259 Q30.69355 61.8264 29.27736 60.41416 Q27.86118 59.00193 24.38641 55.53511 Q20.91164 52.06829 19.53086 50.69136 Q18.11467 49.27912 16.70244 50.69531 Q15.2902 52.1115 16.70639 53.52373 Q18.12257 54.93597 21.57964 58.38513 Q25.0367 61.8343 26.45289 63.24654 zM36.13515 5.85497 Q33.43051 3.15033 29.62773 1.57517 Q25.82494 0 22 0 Q18.17506 0 14.37227 1.57517 Q10.56949 3.15033 7.86485 5.85497 Q5.1602 8.55962 3.58504 12.3624 Q2.00988 16.16518 2.00988 19.99013 Q2.00988 23.81507 3.58504 27.61785 Q5.1602 31.42063 7.86485 34.12528 Q10.56949 36.82992 14.37227 38.40508 Q18.17506 39.98025 22 39.98025 Q25.82494 39.98025 29.62772 38.40508 Q33.43051 36.82992 36.13515 34.12528 Q38.8398 31.42063 40.41519 27.6129 Q41.99058 23.80518 42 19.98025 Q42.00988 15.97037 42.03144 9.98519 Q42.053 4 42.053 2 Q42.053 0 40.053 0 Q38.053 0 38.053 2 Q38.053 3.35833 38.053 3.9759 Q38.053 4.59347 38.053 6 Q38.053 8 37.14285 6.97626 Q36.2327 5.95252 36.13515 5.85497 zM33.3061 31.28635 Q31.16606 33.43124 28.11731 34.66705 Q25.06856 35.90286 22 35.90286 Q18.93144 35.90286 15.91731 34.63871 Q12.90318 33.37455 10.75415 31.2261 Q8.60168 29.07421 7.30084 26.06151 Q6 23.04881 6 19.98025 Q6 16.91169 7.2875 13.84656 Q8.575 10.78143 10.68809 8.66834 Q12.86724 6.48919 15.89934 5.23472 Q18.93144 3.98025 22 3.98025 Q25.06856 3.98025 28.08858 5.23957 Q31.1086 6.49889 33.27555 8.65408 Q35.46674 10.83338 36.73337 13.87253 Q38 16.91169 38 19.98025 Q38 23.1262 36.74743 26.10941 Q35.49486 29.09262 33.3061 31.28635 z" />
<glyph unicode="" horiz-adv-x="46" d="M36.13515 5.85497 Q33.43051 3.15033 29.62773 1.57517 Q25.82494 0 22 0 Q18.17506 0 14.37227 1.57517 Q10.56949 3.15033 7.86485 5.85497 Q5.1602 8.55962 3.58504 12.3624 Q2.00988 16.16518 2.00988 19.99013 Q2.00988 23.81507 3.58504 27.61785 Q5.1602 31.42063 7.86485 34.12528 Q10.56949 36.82992 14.37227 38.40508 Q18.17506 39.98025 22 39.98025 Q25.82494 39.98025 29.62772 38.40508 Q33.43051 36.82992 36.13515 34.12528 Q38.8398 31.42063 40.41519 27.6129 Q41.99058 23.80518 42 19.98025 Q42.00988 15.97037 42.03144 9.98519 Q42.053 4 42.053 2 Q42.053 0 40.053 0 Q38.053 0 38.053 2 Q38.053 3.35833 38.053 3.9759 Q38.053 4.59347 38.053 6 Q38.053 8 37.14285 6.97626 Q36.2327 5.95252 36.13515 5.85497 zM33.3061 31.28635 Q31.16606 33.43124 28.11731 34.66705 Q25.06856 35.90286 22 35.90286 Q18.93144 35.90286 15.91731 34.63871 Q12.90318 33.37455 10.75415 31.2261 Q8.60168 29.07421 7.30084 26.06151 Q6 23.04881 6 19.98025 Q6 16.91169 7.2875 13.84656 Q8.575 10.78143 10.68809 8.66834 Q12.86724 6.48919 15.89934 5.23472 Q18.93144 3.98025 22 3.98025 Q25.06856 3.98025 28.08858 5.23957 Q31.1086 6.49889 33.27555 8.65408 Q35.46674 10.83338 36.73337 13.87253 Q38 16.91169 38 19.98025 Q38 23.1262 36.74743 26.10941 Q35.49486 29.09262 33.3061 31.28635 zM25.54568 61.02222 Q27.54568 59.02222 29.28819 57.2797 Q31.03071 55.53719 33.03071 53.53719 Q34.80355 51.76435 33.14429 50.13966 Q31.48503 48.51497 29.48503 50.51497 Q26 54 25 55 Q24 56 22 58 Q20 56 19 55 Q18 54 14.51497 50.51497 Q12.51497 48.51497 10.85571 50.13966 Q9.19645 51.76435 10.96929 53.53719 Q12.96929 55.53719 14.71181 57.2797 Q16.45432 59.02222 18.45432 61.02222 Q21.24938 63.81728 22 63.81728 Q22.75062 63.81728 25.54568 61.02222 z" />
<glyph unicode="" horiz-adv-x="46" d="M22 53.56543 Q20 55.56543 18 56.78271 Q16 58 14 58 Q12 58 10 56.83704 Q8 55.67407 5.99012 53.66419 Q3.95186 52.51609 4.10091 54.73047 Q4.24996 56.94485 6 58.43457 Q8.24996 60.07571 9.88548 61.03785 Q11.52099 62 14 62 Q16.47901 62 18.22962 61.2074 Q19.98024 60.41481 21.99012 58.42469 Q24 56.43457 26 55.21729 Q28 54 30 54 Q32 54 34.00494 55.16791 Q36.00988 56.33581 38 58.32593 Q40.00988 59.46667 40.00494 57.51605 Q40 55.56543 37.99012 53.66419 Q36 51.67407 34.23951 50.83704 Q32.47901 50 30 50 Q27.52099 50 25.76049 50.78271 Q24 51.56543 22 53.56543 zM36.13515 5.85497 Q33.43051 3.15033 29.62773 1.57517 Q25.82494 0 22 0 Q18.17506 0 14.37227 1.57517 Q10.56949 3.15033 7.86485 5.85497 Q5.1602 8.55962 3.58504 12.3624 Q2.00988 16.16518 2.00988 19.99013 Q2.00988 23.81507 3.58504 27.61785 Q5.1602 31.42063 7.86485 34.12528 Q10.56949 36.82992 14.37227 38.40508 Q18.17506 39.98025 22 39.98025 Q25.82494 39.98025 29.62772 38.40508 Q33.43051 36.82992 36.13515 34.12528 Q38.8398 31.42063 40.41519 27.6129 Q41.99058 23.80518 42 19.98025 Q42.00988 15.97037 42.03144 9.98519 Q42.053 4 42.053 2 Q42.053 0 40.053 0 Q38.053 0 38.053 2 Q38.053 3.35833 38.053 3.9759 Q38.053 4.59347 38.053 6 Q38.053 8 37.14285 6.97626 Q36.2327 5.95252 36.13515 5.85497 zM33.3061 31.28635 Q31.16606 33.43124 28.11731 34.66705 Q25.06856 35.90286 22 35.90286 Q18.93144 35.90286 15.91731 34.63871 Q12.90318 33.37455 10.75415 31.2261 Q8.60168 29.07421 7.30084 26.06151 Q6 23.04881 6 19.98025 Q6 16.91169 7.2875 13.84656 Q8.575 10.78143 10.68809 8.66834 Q12.86724 6.48919 15.89934 5.23472 Q18.93144 3.98025 22 3.98025 Q25.06856 3.98025 28.08858 5.23957 Q31.1086 6.49889 33.27555 8.65408 Q35.46674 10.83338 36.73337 13.87253 Q38 16.91169 38 19.98025 Q38 23.1262 36.74743 26.10941 Q35.49486 29.09262 33.3061 31.28635 z" />
<glyph unicode="" horiz-adv-x="46" d="M35.074 53.01489 Q34.52078 52.46167 33.74294 52.13948 Q32.9651 51.81728 32.18272 51.81728 Q31.40034 51.81728 30.6225 52.13948 Q29.84466 52.46167 29.29144 53.01489 Q28.73822 53.56811 28.41602 54.34596 Q28.09383 55.1238 28.09383 55.90617 Q28.09383 56.68855 28.41602 57.46639 Q28.73822 58.24423 29.29144 58.79745 Q29.84466 59.35067 30.6225 59.67287 Q31.40034 59.99506 32.18272 59.99506 Q32.9651 59.99506 33.74294 59.67287 Q34.52078 59.35067 35.074 58.79745 Q35.62722 58.24423 35.94942 57.46639 Q36.27161 56.68855 36.27161 55.90617 Q36.27161 55.1238 35.94942 54.34596 Q35.62722 53.56811 35.074 53.01489 zM14.89622 53.01489 Q14.343 52.46167 13.56516 52.13948 Q12.78732 51.81728 12.00494 51.81728 Q11.22256 51.81728 10.44472 52.13948 Q9.66688 52.46167 9.11366 53.01489 Q8.56044 53.56811 8.23825 54.34596 Q7.91605 55.1238 7.91605 55.90617 Q7.91605 56.68855 8.23825 57.46639 Q8.56044 58.24423 9.11366 58.79745 Q9.66688 59.35067 10.44472 59.67287 Q11.22256 59.99506 12.00494 59.99506 Q12.78732 59.99506 13.56516 59.67287 Q14.343 59.35067 14.89622 58.79745 Q15.44944 58.24423 15.77163 57.46639 Q16.09383 56.68855 16.09383 55.90617 Q16.09383 55.1238 15.77163 54.34596 Q15.44944 53.56811 14.89622 53.01489 zM36.13515 5.85497 Q33.43051 3.15033 29.62773 1.57517 Q25.82494 0 22 0 Q18.17506 0 14.37227 1.57517 Q10.56949 3.15033 7.86485 5.85497 Q5.1602 8.55962 3.58504 12.3624 Q2.00988 16.16518 2.00988 19.99013 Q2.00988 23.81507 3.58504 27.61785 Q5.1602 31.42063 7.86485 34.12528 Q10.56949 36.82992 14.37227 38.40508 Q18.17506 39.98025 22 39.98025 Q25.82494 39.98025 29.62772 38.40508 Q33.43051 36.82992 36.13515 34.12528 Q38.8398 31.42063 40.41519 27.6129 Q41.99058 23.80518 42 19.98025 Q42.00988 15.97037 42.03144 9.98519 Q42.053 4 42.053 2 Q42.053 0 40.053 0 Q38.053 0 38.053 2 Q38.053 3.35833 38.053 3.9759 Q38.053 4.59347 38.053 6 Q38.053 8 37.14285 6.97626 Q36.2327 5.95252 36.13515 5.85497 zM33.3061 31.28635 Q31.16606 33.43124 28.11731 34.66705 Q25.06856 35.90286 22 35.90286 Q18.93144 35.90286 15.91731 34.63871 Q12.90318 33.37455 10.75415 31.2261 Q8.60168 29.07421 7.30084 26.06151 Q6 23.04881 6 19.98025 Q6 16.91169 7.2875 13.84656 Q8.575 10.78143 10.68809 8.66834 Q12.86724 6.48919 15.89934 5.23472 Q18.93144 3.98025 22 3.98025 Q25.06856 3.98025 28.08858 5.23957 Q31.1086 6.49889 33.27555 8.65408 Q35.46674 10.83338 36.73337 13.87253 Q38 16.91169 38 19.98025 Q38 23.1262 36.74743 26.10941 Q35.49486 29.09262 33.3061 31.28635 z" />
<glyph unicode="" horiz-adv-x="46" d="M29.07107 50.92893 Q27.71807 49.57594 25.81574 48.78797 Q23.91342 48 22 48 Q20.08658 48 18.18426 48.78796 Q16.28193 49.57593 14.92893 50.92893 Q13.57594 52.28192 12.78797 54.18425 Q12 56.08658 12 58 Q12 59.91341 12.78796 61.81575 Q13.57592 63.71808 14.92893 65.07107 Q16.28193 66.42405 18.18426 67.21202 Q20.08658 67.99999 22 67.99999 Q23.91342 67.99999 25.81575 67.21203 Q27.71808 66.42407 29.07107 65.07107 Q30.42406 63.71807 31.21203 61.81574 Q32 59.91341 32 58 Q32 56.08658 31.21203 54.18425 Q30.42406 52.28192 29.07107 50.92893 zM28 58 Q28 59.26019 27.6289 60.35711 Q27.25781 61.45403 26.35592 62.35592 Q25.45403 63.25782 24.35712 63.62891 Q23.2602 64 22 64 Q20.7398 64 19.64289 63.62891 Q18.54598 63.25782 17.64408 62.35592 Q16.74219 61.45403 16.37109 60.35711 Q16 59.26019 16 58 Q16 56.7398 16.3711 55.64289 Q16.74219 54.54597 17.64408 53.64408 Q18.54597 52.74218 19.64288 52.37109 Q20.7398 52 22 52 Q23.2602 52 24.35711 52.37109 Q25.45402 52.74218 26.35592 53.64408 Q27.25781 54.54597 27.62891 55.64288 Q28 56.7398 28 58 zM36.13515 5.85497 Q33.43051 3.15033 29.62773 1.57517 Q25.82494 0 22 0 Q18.17506 0 14.37227 1.57517 Q10.56949 3.15033 7.86485 5.85497 Q5.1602 8.55962 3.58504 12.3624 Q2.00988 16.16518 2.00988 19.99013 Q2.00988 23.81507 3.58504 27.61785 Q5.1602 31.42063 7.86485 34.12528 Q10.56949 36.82992 14.37227 38.40508 Q18.17506 39.98025 22 39.98025 Q25.82494 39.98025 29.62772 38.40508 Q33.43051 36.82992 36.13515 34.12528 Q38.8398 31.42063 40.41519 27.6129 Q41.99058 23.80518 42 19.98025 Q42.00988 15.97037 42.03144 9.98519 Q42.053 4 42.053 2 Q42.053 0 40.053 0 Q38.053 0 38.053 2 Q38.053 3.35833 38.053 3.9759 Q38.053 4.59347 38.053 6 Q38.053 8 37.14285 6.97626 Q36.2327 5.95252 36.13515 5.85497 zM33.3061 31.28635 Q31.16606 33.43124 28.11731 34.66705 Q25.06856 35.90286 22 35.90286 Q18.93144 35.90286 15.91731 34.63871 Q12.90318 33.37455 10.75415 31.2261 Q8.60168 29.07421 7.30084 26.06151 Q6 23.04881 6 19.98025 Q6 16.91169 7.2875 13.84656 Q8.575 10.78143 10.68809 8.66834 Q12.86724 6.48919 15.89934 5.23472 Q18.93144 3.98025 22 3.98025 Q25.06856 3.98025 28.08858 5.23957 Q31.1086 6.49889 33.27555 8.65408 Q35.46674 10.83338 36.73337 13.87253 Q38 16.91169 38 19.98025 Q38 23.1262 36.74743 26.10941 Q35.49486 29.09262 33.3061 31.28635 z" />
<glyph unicode="" horiz-adv-x="82" d="M36.13515 5.87472 Q33.43051 3.17008 29.62773 1.59492 Q25.82494 0.01975 22 0.01975 Q18.17506 0.01975 14.37227 1.59492 Q10.56949 3.17008 7.86485 5.87472 Q5.1602 8.57937 3.58504 12.38215 Q2.00988 16.18493 2.00988 20.00988 Q2.00988 23.83482 3.58504 27.6376 Q5.1602 31.44038 7.86485 34.14503 Q10.56949 36.84967 14.37227 38.42484 Q18.17506 40 22 40 Q25.82494 40 29.62772 38.42484 Q33.43051 36.84967 36.13515 34.14503 Q38.8398 31.44038 40.41519 27.63265 Q41.99058 23.82493 42 20 Q42.00988 15.99012 42.03144 10.00493 Q42.053 4.01975 42.053 2.01975 Q42.053 0.01975 40.053 0.01975 Q38.053 0.01975 38.053 2.01975 Q38.053 3.37808 38.053 3.99565 Q38.053 4.61322 38.053 6.01975 Q38.053 8.01975 37.14285 6.99601 Q36.2327 5.97227 36.13515 5.87472 zM33.3061 31.3061 Q31.16606 33.45099 28.11731 34.6868 Q25.06856 35.92261 22 35.92261 Q18.93144 35.92261 15.91731 34.65846 Q12.90318 33.3943 10.75415 31.24585 Q8.60168 29.09396 7.30084 26.08126 Q6 23.06856 6 20 Q6 16.93144 7.2875 13.86631 Q8.575 10.80118 10.68809 8.68809 Q12.86724 6.50894 15.89934 5.25447 Q18.93144 4 22 4 Q25.06856 4 28.08858 5.25932 Q31.1086 6.51864 33.27555 8.67383 Q35.46674 10.85313 36.73337 13.89229 Q38 16.93144 38 20 Q38 23.14595 36.74743 26.12916 Q35.49486 29.11237 33.3061 31.3061 zM43.85497 34.1549 Q46.55341 36.86572 50.35929 38.43779 Q54.16518 40.00987 57.99012 40.00987 Q61.81506 40.00987 65.61784 38.43471 Q69.42063 36.85954 72.12527 34.1549 Q74.82992 31.45025 76.41496 28.18262 Q78 24.91499 78 21.09005 Q78 19.80359 77.10807 18.91425 Q76.21615 18.0249 74.9297 18.01975 Q70 18 65 18 Q60 18 58 18 Q56 18 53 18 Q50 18 45.64323 18.01975 Q44.35677 18.01975 43.50018 18.01975 Q42.64358 18.01975 42.6058 16.91167 Q42.6058 14.91167 43.74886 12.84136 Q44.89192 10.77106 46.84055 8.77034 Q49.09654 6.37356 51.80098 5.19666 Q54.50542 4.01975 58 4.01975 Q61.43704 4.01975 67.71852 4.01975 Q74 4.01975 76 4.01975 Q78 4.01975 78 2.01975 Q78 0.01975 76 0.01975 Q74 0.01975 68 0.01975 Q62 0.01975 58 0.01975 Q54 0.01975 50.42278 1.64137 Q46.84556 3.263 44 6.01975 Q41.15444 8.7765 39.57722 12.39812 Q38 16.01975 38 20.01975 Q38 24.01975 39.55404 27.70758 Q41.10808 31.39541 43.85497 34.1549 zM58 22 Q60 22 65 22 Q70 22 71.64323 22.01975 Q71.99997 22.02404 72.81666 22.11602 Q73.63335 22.208 73.63335 22.87013 Q73.63335 24.30716 72.69433 26.59277 Q71.75531 28.87838 69.31191 31.32178 Q66.86851 33.76518 64.162 34.88752 Q61.45549 36.00987 58 36.00987 Q54.54451 36.00987 51.64722 34.70333 Q48.74992 33.3968 46.68809 31.32178 Q45.02736 29.65043 43.79581 27.42879 Q42.56427 25.20715 42.55439 23.21702 Q42.55439 22.01975 43.45558 22.01975 Q44.35677 22.01975 45.64323 22.01975 Q50 22 53 22 Q56 22 58 22 z" />
<glyph unicode="" horiz-adv-x="36" d="M9.99012 -11.99012 Q7.99012 -11.99012 7.99012 -9.99012 Q7.99012 -7.99012 9.99012 -7.99012 Q11.99012 -7.99012 13.83209 -7.53827 Q15.67407 -7.08642 17.37596 -5.39076 Q19.18518 -3.55555 19.55556 -1.95488 Q19.92593 -0.35422 20 2 Q20 4 22 4 Q24 4 23.99012 2.00988 Q23.97021 -1.99996 23.20685 -4.00443 Q22.44348 -6.0089 20.21728 -8.21728 Q17.99108 -10.42566 15.9906 -11.20789 Q13.99012 -11.99012 9.99012 -11.99012 zM30.08395 39.99012 Q32.08395 39.99012 32.08395 37.99012 Q32.08395 35.99012 30.08395 35.99012 Q26.08395 35.99012 25.75309 35.99012 Q25.42222 35.99012 21.99012 35.99012 Q18.44444 35.99012 15.87654 34.81975 Q13.30864 33.64938 10.78518 31.08148 Q8.44444 28.6716 7.21728 26.1037 Q5.99012 23.5358 5.99012 19.99012 Q5.99012 16.44444 7.16049 13.81975 Q8.33086 11.19506 10.6716 8.78518 Q13.36491 6.29602 15.98061 5.18998 Q18.59631 4.08395 21.99012 3.99012 Q25.30864 3.99012 26.69629 3.99012 Q28.08395 3.99012 30.08395 3.99012 Q32.08395 3.99012 32.08395 1.99012 Q32.08395 -0.00988 30.08395 -0.00988 Q28.08395 -0.00988 26.95444 -0.00011 Q25.82493 0.00965 22 0 Q18.08395 -0.00988 14.6 1.38024 Q11.11605 2.77037 7.86484 5.85497 Q5.09004 8.48758 3.54995 12.32638 Q2.00987 16.16518 2.00987 19.99012 Q2.00987 23.81506 3.55859 27.64481 Q5.10731 31.47457 7.86484 34.12527 Q10.79665 36.9435 14.48585 38.46187 Q18.17505 39.98024 22 39.98024 Q25.82494 39.98024 25.95444 39.98518 Q26.08395 39.99012 30.08395 39.99012 z" />
<glyph unicode="" horiz-adv-x="44" d="M7.85497 34.13515 Q10.55341 36.84597 14.35929 38.41805 Q18.16518 39.99012 21.99012 39.99012 Q25.81506 39.99012 29.61784 38.41496 Q33.42063 36.83979 36.12527 34.13515 Q38.82992 31.4305 40.41496 28.16287 Q42 24.89524 42 21.0703 Q42 19.78384 41.10808 18.89192 Q40.21616 18 38.9297 18 Q34 18 29 18 Q24 18 22 18 Q20 18 17 18 Q14 18 9.64323 18 Q8.35677 18 7.50018 18 Q6.64358 18 6.6058 16.89192 Q6.6058 14.89192 7.74886 12.82162 Q8.89192 10.75131 10.84055 8.75059 Q13.09654 6.35381 15.80098 5.1769 Q18.50542 4 22 4 Q25.43704 4 31.71852 4 Q38 4 40 4 Q42 4 42 2 Q42 0 40 0 Q38 0 32 0 Q26 0 22 0 Q18 0 14.42278 1.62162 Q10.84556 3.24325 8 6 Q5.15444 8.75675 3.57722 12.37838 Q2 16 2 20 Q2 24 3.55404 27.68783 Q5.10808 31.37566 7.85497 34.13515 zM22 22 Q24 22 29 22 Q34 22 35.64323 22 Q36 22 36.81668 22.09413 Q37.63335 22.18825 37.63335 22.85038 Q37.63335 24.28741 36.69433 26.57302 Q35.75531 28.85863 33.31191 31.30203 Q30.86851 33.74543 28.162 34.86777 Q25.45549 35.99012 22 35.99012 Q18.54451 35.99012 15.64722 34.68358 Q12.74992 33.37705 10.68809 31.30203 Q9.02736 29.63068 7.79581 27.40904 Q6.56427 25.1874 6.55439 23.19727 Q6.55439 22 7.45558 22 Q8.35677 22 9.64323 22 Q14 22 17 22 Q20 22 22 22 zM27.35287 53.55336 Q28.76906 52.14113 27.35682 50.72494 Q25.94458 49.30875 24.5284 50.72099 Q23.14762 52.09792 19.67285 55.56474 Q16.19808 59.03156 14.7819 60.44379 Q13.36571 61.85603 14.77795 63.27222 Q16.19019 64.68841 17.60637 63.27617 Q19.02256 61.86393 22.47963 58.41476 Q25.93669 54.9656 27.35287 53.55336 z" />
<glyph unicode="" horiz-adv-x="44" d="M7.85497 34.13515 Q10.55341 36.84597 14.35929 38.41805 Q18.16518 39.99012 21.99012 39.99012 Q25.81506 39.99012 29.61784 38.41496 Q33.42063 36.83979 36.12527 34.13515 Q38.82992 31.4305 40.41496 28.16287 Q42 24.89524 42 21.0703 Q42 19.78384 41.10808 18.89192 Q40.21616 18 38.9297 18 Q34 18 29 18 Q24 18 22 18 Q20 18 17 18 Q14 18 9.64323 18 Q8.35677 18 7.50018 18 Q6.64358 18 6.6058 16.89192 Q6.6058 14.89192 7.74886 12.82162 Q8.89192 10.75131 10.84055 8.75059 Q13.09654 6.35381 15.80098 5.1769 Q18.50542 4 22 4 Q25.43704 4 31.71852 4 Q38 4 40 4 Q42 4 42 2 Q42 0 40 0 Q38 0 32 0 Q26 0 22 0 Q18 0 14.42278 1.62162 Q10.84556 3.24325 8 6 Q5.15444 8.75675 3.57722 12.37838 Q2 16 2 20 Q2 24 3.55404 27.68783 Q5.10808 31.37566 7.85497 34.13515 zM22 22 Q24.0099 22 29.00495 22 Q34 22 35.64323 22 Q36 22 36.81668 22.09413 Q37.63335 22.18825 37.63335 22.85038 Q37.63335 24.28741 36.69433 26.57302 Q35.75531 28.85863 33.31191 31.30203 Q30.86851 33.74543 28.162 34.86777 Q25.45549 35.99012 22 35.99012 Q18.54451 35.99012 15.64722 34.68358 Q12.74992 33.37705 10.68809 31.30203 Q9.02736 29.63068 7.79581 27.40904 Q6.56427 25.1874 6.55439 23.19727 Q6.55439 22 7.45558 22 Q8.35677 22 9.64323 22 Q14 22 17 22 Q20 22 22 22 zM26.45289 63.24654 Q27.86907 64.65878 29.28131 63.24259 Q30.69355 61.8264 29.27736 60.41416 Q27.86118 59.00193 24.38641 55.53511 Q20.91164 52.06829 19.53086 50.69136 Q18.11467 49.27912 16.70244 50.69531 Q15.2902 52.1115 16.70639 53.52373 Q18.12257 54.93597 21.57964 58.38513 Q25.0367 61.8343 26.45289 63.24654 z" />
<glyph unicode="" horiz-adv-x="44" d="M7.85497 34.13515 Q10.55341 36.84597 14.35929 38.41805 Q18.16518 39.99012 21.99012 39.99012 Q25.81506 39.99012 29.61784 38.41496 Q33.42063 36.83979 36.12527 34.13515 Q38.82992 31.4305 40.41496 28.16287 Q42 24.89524 42 21.0703 Q42 19.78384 41.10808 18.89192 Q40.21616 18 38.9297 18 Q34 18 29 18 Q24 18 22 18 Q20 18 17 18 Q14 18 9.64323 18 Q8.35677 18 7.50018 18 Q6.64358 18 6.6058 16.89192 Q6.6058 14.89192 7.74886 12.82162 Q8.89192 10.75131 10.84055 8.75059 Q13.09654 6.35381 15.80098 5.1769 Q18.50542 4 22 4 Q25.43704 4 31.71852 4 Q38 4 40 4 Q42 4 42 2 Q42 0 40 0 Q38 0 32 0 Q26 0 22 0 Q18 0 14.42278 1.62162 Q10.84556 3.24325 8 6 Q5.15444 8.75675 3.57722 12.37838 Q2 16 2 20 Q2 24 3.55404 27.68783 Q5.10808 31.37566 7.85497 34.13515 zM22 22 Q24 22 29 22 Q34 22 35.64323 22 Q36 22 36.81668 22.09413 Q37.63335 22.18825 37.63335 22.85038 Q37.63335 24.28741 36.69433 26.57302 Q35.75531 28.85863 33.31191 31.30203 Q30.86851 33.74543 28.162 34.86777 Q25.45549 35.99012 22 35.99012 Q18.54451 35.99012 15.64722 34.68358 Q12.74992 33.37705 10.68809 31.30203 Q9.02736 29.63068 7.79581 27.40904 Q6.56427 25.1874 6.55439 23.19727 Q6.55439 22 7.45558 22 Q8.35677 22 9.64323 22 Q14 22 17 22 Q20 22 22 22 zM25.54568 61.02222 Q27.54568 59.02222 29.28819 57.2797 Q31.03071 55.53719 33.03071 53.53719 Q34.80355 51.76435 33.14429 50.13966 Q31.48503 48.51497 29.48503 50.51497 Q26 54 25 55 Q24 56 22 58 Q20 56 19 55 Q18 54 14.51497 50.51497 Q12.51497 48.51497 10.85571 50.13966 Q9.19645 51.76435 10.96929 53.53719 Q12.96929 55.53719 14.71181 57.2797 Q16.45432 59.02222 18.45432 61.02222 Q21.24938 63.81728 22 63.81728 Q22.75062 63.81728 25.54568 61.02222 z" />
<glyph unicode="" horiz-adv-x="44" d="M7.85497 34.13515 Q10.55341 36.84597 14.35929 38.41805 Q18.16518 39.99012 21.99012 39.99012 Q25.81506 39.99012 29.61784 38.41496 Q33.42063 36.83979 36.12527 34.13515 Q38.82992 31.4305 40.41496 28.16287 Q42 24.89524 42 21.0703 Q42 19.78384 41.10808 18.89192 Q40.21616 18 38.9297 18 Q34 18 29 18 Q24 18 22 18 Q20 18 17 18 Q14 18 9.64323 18 Q8.35677 18 7.50018 18 Q6.64358 18 6.6058 16.89192 Q6.6058 14.89192 7.74886 12.82162 Q8.89192 10.75131 10.84055 8.75059 Q13.09654 6.35381 15.80098 5.1769 Q18.50542 4 22 4 Q25.43704 4 31.71852 4 Q38 4 40 4 Q42 4 42 2 Q42 0 40 0 Q38 0 32 0 Q26 0 22 0 Q18 0 14.42278 1.62162 Q10.84556 3.24325 8 6 Q5.15444 8.75675 3.57722 12.37838 Q2 16 2 20 Q2 24 3.55404 27.68783 Q5.10808 31.37566 7.85497 34.13515 zM22 22 Q24 22 29 22 Q34 22 35.64323 22 Q36 22 36.81668 22.09413 Q37.63335 22.18825 37.63335 22.85038 Q37.63335 24.28741 36.69433 26.57302 Q35.75531 28.85863 33.31191 31.30203 Q30.86851 33.74543 28.162 34.86777 Q25.45549 35.99012 22 35.99012 Q18.54451 35.99012 15.64722 34.68358 Q12.74992 33.37705 10.68809 31.30203 Q9.02736 29.63068 7.79581 27.40904 Q6.56427 25.1874 6.55439 23.19727 Q6.55439 22 7.45558 22 Q8.35677 22 9.64323 22 Q14 22 17 22 Q20 22 22 22 zM14.80239 53.10872 Q14.24917 52.5555 13.47133 52.2333 Q12.69349 51.91111 11.91111 51.91111 Q11.12873 51.91111 10.35089 52.2333 Q9.57305 52.5555 9.01983 53.10872 Q8.46661 53.66194 8.14441 54.43979 Q7.82222 55.21763 7.82222 56 Q7.82222 56.78238 8.14441 57.56022 Q8.46661 58.33806 9.01983 58.89128 Q9.57305 59.4445 10.35089 59.7667 Q11.12873 60.08889 11.91111 60.08889 Q12.69349 60.08889 13.47133 59.7667 Q14.24917 59.4445 14.80239 58.89128 Q15.35561 58.33806 15.67781 57.56022 Q16 56.78238 16 56 Q16 55.21763 15.67781 54.43979 Q15.35561 53.66194 14.80239 53.10872 zM34.98017 53.10872 Q34.42695 52.5555 33.64911 52.2333 Q32.87127 51.91111 32.08889 51.91111 Q31.30651 51.91111 30.52867 52.2333 Q29.75083 52.5555 29.19761 53.10872 Q28.64439 53.66194 28.32219 54.43979 Q28 55.21763 28 56 Q28 56.78238 28.32219 57.56022 Q28.64439 58.33806 29.19761 58.89128 Q29.75083 59.4445 30.52867 59.7667 Q31.30651 60.08889 32.08889 60.08889 Q32.87127 60.08889 33.64911 59.7667 Q34.42695 59.4445 34.98017 58.89128 Q35.53339 58.33806 35.85559 57.56022 Q36.17778 56.78238 36.17778 56 Q36.17778 55.21763 35.85559 54.43979 Q35.53339 53.66194 34.98017 53.10872 z" />
<glyph unicode="" horiz-adv-x="20" d="M14 20 Q14.00988 15.99012 14.00494 9.99506 Q14 4 14 2 Q14 0 12 0 Q10 0 10 2 Q10 4 10.00494 9.99506 Q10.00988 15.99012 10.00988 19.99012 Q10.00988 23.99012 10.00494 29.99506 Q10 36 10 38 Q10 40 12 40 Q14 40 14 38 Q14 36 14.00494 29.99506 Q14.00988 23.99012 14 20 zM15.35287 53.55336 Q16.76906 52.14113 15.35682 50.72494 Q13.94458 49.30875 12.5284 50.72099 Q11.14762 52.09792 7.67285 55.56474 Q4.19808 59.03156 2.7819 60.44379 Q1.36571 61.85603 2.77795 63.27222 Q4.19019 64.68841 5.60637 63.27617 Q7.02256 61.86393 10.47962 58.41476 Q13.93669 54.9656 15.35287 53.55336 z" />
<glyph unicode="" horiz-adv-x="20" d="M10 22 Q10.00988 17.99012 10.00494 10.99506 Q10 4 10 2 Q10 0 8 0 Q6 0 6 2 Q6 4 6.00494 10.99506 Q6.00988 17.99012 6.00988 21.99012 Q6.00988 25.99012 6.00494 30.99506 Q6 36 6 38 Q6 40 8 40 Q10 40 10 38 Q10 36 10.00494 30.99506 Q10.00988 25.99012 10 22 zM14.45289 63.24654 Q15.86907 64.65878 17.28131 63.24259 Q18.69355 61.8264 17.27736 60.41416 Q15.86118 59.00193 12.38641 55.53511 Q8.91164 52.06829 7.53086 50.69136 Q6.11467 49.27912 4.70244 50.69531 Q3.2902 52.1115 4.70639 53.52373 Q6.12257 54.93597 9.57964 58.38513 Q13.0367 61.8343 14.45289 63.24654 z" />
<glyph unicode="" horiz-adv-x="28" d="M16 22 Q16.00988 17.99012 16.00494 10.99506 Q16 4 16 2 Q16 0 14 0 Q12 0 12 2 Q12 4 12.00494 10.99506 Q12.00988 17.99012 12.00988 21.99012 Q12.00988 25.99012 12.00494 30.99506 Q12 36 12 38 Q12 40 14 40 Q16 40 16 38 Q16 36 16.00494 30.99506 Q16.00988 25.99012 16 22 zM17.54568 61.02222 Q19.54568 59.02222 21.28819 57.2797 Q23.03071 55.53719 25.03071 53.53719 Q26.80355 51.76435 25.14429 50.13966 Q23.48503 48.51497 21.48503 50.51497 Q18 54 17 55 Q16 56 14 58 Q12 56 11 55 Q10 54 6.51497 50.51497 Q4.51497 48.51497 2.85571 50.13966 Q1.19645 51.76435 2.96929 53.53719 Q4.96929 55.53719 6.71181 57.2797 Q8.45432 59.02222 10.45432 61.02222 Q13.24938 63.81728 14 63.81728 Q14.75062 63.81728 17.54568 61.02222 z" />
<glyph unicode="" horiz-adv-x="28" d="M16 22 Q16.00988 17.99012 16.00494 10.99506 Q16 4 16 2 Q16 0 14 0 Q12 0 12 2 Q12 4 12.00494 10.99506 Q12.00988 17.99012 12.00988 21.99012 Q12.00988 25.99012 12.00494 30.99506 Q12 36 12 38 Q12 40 14 40 Q16 40 16 38 Q16 36 16.00494 30.99506 Q16.00988 25.99012 16 22 zM24.98017 53.10872 Q24.42695 52.5555 23.64911 52.2333 Q22.87127 51.91111 22.08889 51.91111 Q21.30651 51.91111 20.52867 52.2333 Q19.75083 52.5555 19.19761 53.10872 Q18.64439 53.66194 18.32219 54.43979 Q18 55.21763 18 56 Q18 56.78238 18.32219 57.56022 Q18.64439 58.33806 19.19761 58.89128 Q19.75083 59.4445 20.52867 59.7667 Q21.30651 60.08889 22.08889 60.08889 Q22.87127 60.08889 23.64911 59.7667 Q24.42695 59.4445 24.98017 58.89128 Q25.53339 58.33806 25.85559 57.56022 Q26.17778 56.78238 26.17778 56 Q26.17778 55.21763 25.85559 54.43979 Q25.53339 53.66194 24.98017 53.10872 zM8.80239 53.10872 Q8.24917 52.5555 7.47133 52.2333 Q6.69349 51.91111 5.91111 51.91111 Q5.12873 51.91111 4.35089 52.2333 Q3.57305 52.5555 3.01983 53.10872 Q2.46661 53.66194 2.14441 54.43979 Q1.82222 55.21763 1.82222 56 Q1.82222 56.78238 2.14441 57.56022 Q2.46661 58.33806 3.01983 58.89128 Q3.57305 59.4445 4.35089 59.7667 Q5.12873 60.08889 5.91111 60.08889 Q6.69349 60.08889 7.47133 59.7667 Q8.24917 59.4445 8.80239 58.89128 Q9.35561 58.33806 9.67781 57.56022 Q10 56.78238 10 56 Q10 55.21763 9.67781 54.43979 Q9.35561 53.66194 8.80239 53.10872 z" />
<glyph unicode="" horiz-adv-x="48" d="M24 53.56543 Q22 55.56543 20 56.78271 Q18 58 16 58 Q14 58 12 56.83704 Q10 55.67407 7.99012 53.66419 Q5.95186 52.51609 6.10091 54.73047 Q6.24996 56.94485 8 58.43457 Q10.24996 60.07571 11.88548 61.03785 Q13.52099 62 16 62 Q18.47901 62 20.22962 61.2074 Q21.98024 60.41481 23.99012 58.42469 Q26 56.43457 28 55.21729 Q30 54 32 54 Q34 54 36.00494 55.16791 Q38.00988 56.33581 40 58.32593 Q42.00988 59.46667 42.00494 57.51605 Q42 55.56543 39.99012 53.66419 Q38 51.67407 36.23951 50.83704 Q34.47901 50 32 50 Q29.52099 50 27.76049 50.78271 Q26 51.56543 24 53.56543 zM44 2 Q44 0 42 0 Q40 0 40 2 Q40 6 40 11.46438 Q40 16.92876 40 20 Q40 23.13971 38.75481 26.11013 Q37.50961 29.08055 35.2909 31.30471 Q33.18032 33.44591 30.13852 34.67307 Q27.09672 35.90023 24 35.90023 Q20.90328 35.90023 17.90445 34.63009 Q14.90563 33.35995 12.74518 31.26864 Q10.60521 29.07417 9.3026 26.06796 Q8 23.06175 8 20 Q8 16.92612 8 10.46306 Q8 4 8 2 Q8 0 6 0 Q4 0 4 2 Q4 4 4.00494 10.08259 Q4.00988 16.16518 4.00988 19.99012 Q4.00988 22.15424 4.00494 29.07712 Q4 36 4 38 Q4 40 6 40 Q8 40 8 38 Q8 36 8 35.53086 Q8 35.06173 8 34 Q8 32 8.88338 32.99272 Q9.76675 33.98544 9.86485 34.0968 Q12.414 36.99055 16.29453 38.4854 Q20.17506 39.98025 24 39.98025 Q27.82494 39.98025 31.63115 38.40851 Q35.43737 36.83677 38.13515 34.12528 Q40.85361 31.39301 42.42187 27.60404 Q43.99012 23.81507 43.99012 19.99012 Q43.99012 16.16518 43.99506 11.08259 Q44 6 44 2 z" />
<glyph unicode="" horiz-adv-x="44" d="M36.13166 5.85353 Q33.42768 3.14955 29.62584 1.57477 Q25.824 0 22 0 Q18.176 0 14.37417 1.57478 Q10.57233 3.14955 7.86834 5.85353 Q5.16436 8.5575 3.58958 12.35935 Q2.01481 16.16119 2.01481 19.98519 Q2.01481 23.80918 3.58958 27.61103 Q5.16435 31.41287 7.86834 34.11685 Q10.57232 36.82082 14.37416 38.3956 Q18.176 39.97037 22 39.97037 Q25.824 39.97037 29.62584 38.3956 Q33.42768 36.82083 36.13166 34.11685 Q38.83564 31.41287 40.41042 27.61102 Q41.98519 23.80918 41.98519 19.98519 Q41.98519 16.16119 40.41042 12.35935 Q38.83564 8.5575 36.13166 5.85353 zM37.95062 19.98519 Q37.95062 23.0372 36.69375 26.07153 Q35.43689 29.10587 33.27879 31.26397 Q31.12069 33.42208 28.08636 34.67894 Q25.05202 35.9358 22 35.9358 Q18.94798 35.9358 15.91365 34.67894 Q12.87932 33.42208 10.72121 31.26397 Q8.56311 29.10587 7.30624 26.07153 Q6.04938 23.0372 6.04938 19.98519 Q6.04938 16.93317 7.30625 13.89884 Q8.56311 10.8645 10.72121 8.7064 Q12.87931 6.54829 15.91364 5.29143 Q18.94798 4.03457 22 4.03457 Q25.05202 4.03457 28.08635 5.29143 Q31.12068 6.54829 33.27879 8.7064 Q35.43689 10.8645 36.69376 13.89884 Q37.95062 16.93317 37.95062 19.98519 zM27.35287 53.55336 Q28.76906 52.14113 27.35682 50.72494 Q25.94458 49.30875 24.5284 50.72099 Q23.14762 52.09792 19.67285 55.56474 Q16.19808 59.03156 14.7819 60.44379 Q13.36571 61.85603 14.77795 63.27222 Q16.19019 64.68841 17.60637 63.27617 Q19.02256 61.86393 22.47963 58.41476 Q25.93669 54.9656 27.35287 53.55336 z" />
<glyph unicode="" horiz-adv-x="44" d="M36.13166 5.85353 Q33.42768 3.14955 29.62584 1.57477 Q25.824 0 22 0 Q18.176 0 14.37417 1.57478 Q10.57233 3.14955 7.86834 5.85353 Q5.16436 8.5575 3.58958 12.35935 Q2.01481 16.16119 2.01481 19.98519 Q2.01481 23.80918 3.58958 27.61103 Q5.16435 31.41287 7.86834 34.11685 Q10.57232 36.82082 14.37416 38.3956 Q18.176 39.97037 22 39.97037 Q25.824 39.97037 29.62584 38.3956 Q33.42768 36.82083 36.13166 34.11685 Q38.83564 31.41287 40.41042 27.61102 Q41.98519 23.80918 41.98519 19.98519 Q41.98519 16.16119 40.41042 12.35935 Q38.83564 8.5575 36.13166 5.85353 zM37.95062 19.98519 Q37.95062 23.0372 36.69375 26.07153 Q35.43689 29.10587 33.27879 31.26397 Q31.12069 33.42208 28.08636 34.67894 Q25.05202 35.9358 22 35.9358 Q18.94798 35.9358 15.91365 34.67894 Q12.87932 33.42208 10.72121 31.26397 Q8.56311 29.10587 7.30624 26.07153 Q6.04938 23.0372 6.04938 19.98519 Q6.04938 16.93317 7.30625 13.89884 Q8.56311 10.8645 10.72121 8.7064 Q12.87931 6.54829 15.91364 5.29143 Q18.94798 4.03457 22 4.03457 Q25.05202 4.03457 28.08635 5.29143 Q31.12068 6.54829 33.27879 8.7064 Q35.43689 10.8645 36.69376 13.89884 Q37.95062 16.93317 37.95062 19.98519 zM26.45289 63.24654 Q27.86907 64.65878 29.28131 63.24259 Q30.69355 61.8264 29.27736 60.41416 Q27.86118 59.00193 24.38641 55.53511 Q20.91164 52.06829 19.53086 50.69136 Q18.11467 49.27912 16.70244 50.69531 Q15.2902 52.1115 16.70639 53.52373 Q18.12257 54.93597 21.57964 58.38513 Q25.0367 61.8343 26.45289 63.24654 z" />
<glyph unicode="" horiz-adv-x="44" d="M36.13166 5.85353 Q33.42768 3.14955 29.62584 1.57477 Q25.824 0 22 0 Q18.176 0 14.37417 1.57478 Q10.57233 3.14955 7.86834 5.85353 Q5.16436 8.5575 3.58958 12.35935 Q2.01481 16.16119 2.01481 19.98519 Q2.01481 23.80918 3.58958 27.61103 Q5.16435 31.41287 7.86834 34.11685 Q10.57232 36.82082 14.37416 38.3956 Q18.176 39.97037 22 39.97037 Q25.824 39.97037 29.62584 38.3956 Q33.42768 36.82083 36.13166 34.11685 Q38.83564 31.41287 40.41042 27.61102 Q41.98519 23.80918 41.98519 19.98519 Q41.98519 16.16119 40.41042 12.35935 Q38.83564 8.5575 36.13166 5.85353 zM37.95062 19.98519 Q37.95062 23.0372 36.69375 26.07153 Q35.43689 29.10587 33.27879 31.26397 Q31.12069 33.42208 28.08636 34.67894 Q25.05202 35.9358 22 35.9358 Q18.94798 35.9358 15.91365 34.67894 Q12.87932 33.42208 10.72121 31.26397 Q8.56311 29.10587 7.30624 26.07153 Q6.04938 23.0372 6.04938 19.98519 Q6.04938 16.93317 7.30625 13.89884 Q8.56311 10.8645 10.72121 8.7064 Q12.87931 6.54829 15.91364 5.29143 Q18.94798 4.03457 22 4.03457 Q25.05202 4.03457 28.08635 5.29143 Q31.12068 6.54829 33.27879 8.7064 Q35.43689 10.8645 36.69376 13.89884 Q37.95062 16.93317 37.95062 19.98519 zM25.54568 61.02222 Q27.54568 59.02222 29.28819 57.2797 Q31.03071 55.53719 33.03071 53.53719 Q34.80355 51.76435 33.14429 50.13966 Q31.48503 48.51497 29.48503 50.51497 Q26 54 25 55 Q24 56 22 58 Q20 56 19 55 Q18 54 14.51497 50.51497 Q12.51497 48.51497 10.85571 50.13966 Q9.19645 51.76435 10.96929 53.53719 Q12.96929 55.53719 14.71181 57.2797 Q16.45432 59.02222 18.45432 61.02222 Q21.24938 63.81728 22 63.81728 Q22.75062 63.81728 25.54568 61.02222 z" />
<glyph unicode="" horiz-adv-x="44" d="M36.13166 5.85353 Q33.42768 3.14955 29.62584 1.57477 Q25.824 0 22 0 Q18.176 0 14.37417 1.57478 Q10.57233 3.14955 7.86834 5.85353 Q5.16436 8.5575 3.58958 12.35935 Q2.01481 16.16119 2.01481 19.98519 Q2.01481 23.80918 3.58958 27.61103 Q5.16435 31.41287 7.86834 34.11685 Q10.57232 36.82082 14.37416 38.3956 Q18.176 39.97037 22 39.97037 Q25.824 39.97037 29.62584 38.3956 Q33.42768 36.82083 36.13166 34.11685 Q38.83564 31.41287 40.41042 27.61102 Q41.98519 23.80918 41.98519 19.98519 Q41.98519 16.16119 40.41042 12.35935 Q38.83564 8.5575 36.13166 5.85353 zM37.95062 19.98519 Q37.95062 23.0372 36.69375 26.07153 Q35.43689 29.10587 33.27879 31.26397 Q31.12069 33.42208 28.08636 34.67894 Q25.05202 35.9358 22 35.9358 Q18.94798 35.9358 15.91365 34.67894 Q12.87932 33.42208 10.72121 31.26397 Q8.56311 29.10587 7.30624 26.07153 Q6.04938 23.0372 6.04938 19.98519 Q6.04938 16.93317 7.30625 13.89884 Q8.56311 10.8645 10.72121 8.7064 Q12.87931 6.54829 15.91364 5.29143 Q18.94798 4.03457 22 4.03457 Q25.05202 4.03457 28.08635 5.29143 Q31.12068 6.54829 33.27879 8.7064 Q35.43689 10.8645 36.69376 13.89884 Q37.95062 16.93317 37.95062 19.98519 zM22 53.56543 Q20 55.56543 18 56.78271 Q16 58 14 58 Q12 58 10 56.83704 Q8 55.67407 5.99012 53.66419 Q3.95186 52.51609 4.10091 54.73047 Q4.24996 56.94485 6 58.43457 Q8.24996 60.07571 9.88548 61.03785 Q11.52099 62 14 62 Q16.47901 62 18.22962 61.2074 Q19.98024 60.41481 21.99012 58.42469 Q24 56.43457 26 55.21729 Q28 54 30 54 Q32 54 34.00494 55.16791 Q36.00988 56.33581 38 58.32593 Q40.00988 59.46667 40.00494 57.51605 Q40 55.56543 37.99012 53.66419 Q36 51.67407 34.23951 50.83704 Q32.47901 50 30 50 Q27.52099 50 25.76049 50.78271 Q24 51.56543 22 53.56543 z" />
<glyph unicode="" horiz-adv-x="44" d="M36.13166 5.85353 Q33.42768 3.14955 29.62584 1.57477 Q25.824 0 22 0 Q18.176 0 14.37417 1.57478 Q10.57233 3.14955 7.86834 5.85353 Q5.16436 8.5575 3.58958 12.35935 Q2.01481 16.16119 2.01481 19.98519 Q2.01481 23.80918 3.58958 27.61103 Q5.16435 31.41287 7.86834 34.11685 Q10.57232 36.82082 14.37416 38.3956 Q18.176 39.97037 22 39.97037 Q25.824 39.97037 29.62584 38.3956 Q33.42768 36.82083 36.13166 34.11685 Q38.83564 31.41287 40.41042 27.61102 Q41.98519 23.80918 41.98519 19.98519 Q41.98519 16.16119 40.41042 12.35935 Q38.83564 8.5575 36.13166 5.85353 zM37.95062 19.98519 Q37.95062 23.0372 36.69375 26.07153 Q35.43689 29.10587 33.27879 31.26397 Q31.12069 33.42208 28.08636 34.67894 Q25.05202 35.9358 22 35.9358 Q18.94798 35.9358 15.91365 34.67894 Q12.87932 33.42208 10.72121 31.26397 Q8.56311 29.10587 7.30624 26.07153 Q6.04938 23.0372 6.04938 19.98519 Q6.04938 16.93317 7.30625 13.89884 Q8.56311 10.8645 10.72121 8.7064 Q12.87931 6.54829 15.91364 5.29143 Q18.94798 4.03457 22 4.03457 Q25.05202 4.03457 28.08635 5.29143 Q31.12068 6.54829 33.27879 8.7064 Q35.43689 10.8645 36.69376 13.89884 Q37.95062 16.93317 37.95062 19.98519 zM14.80239 53.10872 Q14.24917 52.5555 13.47133 52.2333 Q12.69349 51.91111 11.91111 51.91111 Q11.12873 51.91111 10.35089 52.2333 Q9.57305 52.5555 9.01983 53.10872 Q8.46661 53.66194 8.14441 54.43979 Q7.82222 55.21763 7.82222 56 Q7.82222 56.78238 8.14441 57.56022 Q8.46661 58.33806 9.01983 58.89128 Q9.57305 59.4445 10.35089 59.7667 Q11.12873 60.08889 11.91111 60.08889 Q12.69349 60.08889 13.47133 59.7667 Q14.24917 59.4445 14.80239 58.89128 Q15.35561 58.33806 15.67781 57.56022 Q16 56.78238 16 56 Q16 55.21763 15.67781 54.43979 Q15.35561 53.66194 14.80239 53.10872 zM34.98017 53.10872 Q34.42695 52.5555 33.64911 52.2333 Q32.87127 51.91111 32.08889 51.91111 Q31.30651 51.91111 30.52867 52.2333 Q29.75083 52.5555 29.19761 53.10872 Q28.64439 53.66194 28.32219 54.43979 Q28 55.21763 28 56 Q28 56.78238 28.32219 57.56022 Q28.64439 58.33806 29.19761 58.89128 Q29.75083 59.4445 30.52867 59.7667 Q31.30651 60.08889 32.08889 60.08889 Q32.87127 60.08889 33.64911 59.7667 Q34.42695 59.4445 34.98017 58.89128 Q35.53339 58.33806 35.85559 57.56022 Q36.17778 56.78238 36.17778 56 Q36.17778 55.21763 35.85559 54.43979 Q35.53339 53.66194 34.98017 53.10872 z" />
<glyph unicode="" horiz-adv-x="44" d="M24.89128 33.19761 Q24.33806 32.64439 23.56022 32.3222 Q22.78238 32 22 32 Q21.21762 32 20.43978 32.3222 Q19.66194 32.64439 19.10872 33.19761 Q18.5555 33.75083 18.2333 34.52868 Q17.91111 35.30652 17.91111 36.08889 Q17.91111 36.87127 18.2333 37.64911 Q18.5555 38.42695 19.10872 38.98017 Q19.66194 39.53339 20.43978 39.85559 Q21.21762 40.17778 22 40.17778 Q22.78238 40.17778 23.56022 39.85559 Q24.33806 39.53339 24.89128 38.98017 Q25.4445 38.42695 25.7667 37.64911 Q26.08889 36.87127 26.08889 36.08889 Q26.08889 35.30652 25.7667 34.52868 Q25.4445 33.75083 24.89128 33.19761 zM24.89128 5.19761 Q24.33806 4.64439 23.56022 4.3222 Q22.78238 4 22 4 Q21.21762 4 20.43978 4.3222 Q19.66194 4.64439 19.10872 5.19761 Q18.5555 5.75083 18.2333 6.52868 Q17.91111 7.30652 17.91111 8.08889 Q17.91111 8.87127 18.2333 9.64911 Q18.5555 10.42695 19.10872 10.98017 Q19.66194 11.53339 20.43978 11.85559 Q21.21762 12.17778 22 12.17778 Q22.78238 12.17778 23.56022 11.85559 Q24.33806 11.53339 24.89128 10.98017 Q25.4445 10.42695 25.7667 9.64911 Q26.08889 8.87127 26.08889 8.08889 Q26.08889 7.30652 25.7667 6.52868 Q25.4445 5.75083 24.89128 5.19761 zM22 20 Q17.99012 19.99012 12.99506 19.99506 Q8 20 6 20 Q4 20 4 22 Q4 24 6 24 Q8 24 12.99506 23.99506 Q17.99012 23.99012 21.99012 23.99012 Q25.99012 23.99012 30.99506 23.99506 Q36 24 38 24 Q40 24 40 22 Q40 20 38 20 Q36 20 30.99506 19.99506 Q25.99012 19.99012 22 20 z" />
<glyph unicode="" horiz-adv-x="48" d="M38.13166 5.85353 Q35.42768 3.14955 31.62584 1.57477 Q27.824 0 24 0 Q20.176 0 16.37417 1.57478 Q12.57233 3.14955 9.86834 5.85353 Q7.16436 8.5575 5.58958 12.35935 Q4.01481 16.16119 4.01481 19.98519 Q4.01481 23.80918 5.58958 27.61103 Q7.16435 31.41287 9.86834 34.11685 Q12.57232 36.82082 16.37416 38.3956 Q20.176 39.97037 24 39.97037 Q27.824 39.97037 31.62584 38.3956 Q35.42768 36.82083 38.13166 34.11685 Q40.83564 31.41287 42.41042 27.61102 Q43.98519 23.80918 43.98519 19.98519 Q43.98519 16.16119 42.41042 12.35935 Q40.83564 8.5575 38.13166 5.85353 zM39.95062 19.98519 Q39.95062 23.0372 38.69375 26.07153 Q37.43689 29.10587 35.27879 31.26397 Q33.12069 33.42208 30.08636 34.67894 Q27.05202 35.9358 24 35.9358 Q20.94798 35.9358 17.91365 34.67894 Q14.87932 33.42208 12.72121 31.26397 Q10.56311 29.10587 9.30624 26.07153 Q8.04938 23.0372 8.04938 19.98519 Q8.04938 16.93317 9.30625 13.89884 Q10.56311 10.8645 12.72121 8.7064 Q14.87931 6.54829 17.91364 5.29143 Q20.94798 4.03457 24 4.03457 Q27.05202 4.03457 30.08635 5.29143 Q33.12068 6.54829 35.27879 8.7064 Q37.43689 10.8645 38.69376 13.89884 Q39.95062 16.93317 39.95062 19.98519 zM25.53086 18.65679 Q22.70244 15.81439 15.83263 9.03841 Q8.96283 2.26244 7.54862 0.84823 Q6.13441 -0.56598 4.72019 0.84823 Q3.30597 2.26245 4.72019 3.67666 Q6.13441 5.09087 13.00422 11.86684 Q19.87402 18.64281 22.70244 21.47124 Q25.53086 24.29967 32.35375 31.07565 Q39.17664 37.85162 40.59085 39.26583 Q42.00507 40.68005 43.41928 39.26583 Q44.83349 37.85162 43.41928 36.43741 Q42.00507 35.02319 35.18218 28.24721 Q28.35929 21.47124 25.53086 18.65679 z" />
<glyph unicode="" horiz-adv-x="48" d="M29.35287 53.55336 Q30.76906 52.14113 29.35682 50.72494 Q27.94458 49.30875 26.5284 50.72099 Q25.14762 52.09792 21.67285 55.56474 Q18.19808 59.03156 16.7819 60.44379 Q15.36571 61.85603 16.77795 63.27222 Q18.19019 64.68841 19.60637 63.27617 Q21.02256 61.86393 24.47963 58.41476 Q27.93669 54.9656 29.35287 53.55336 zM4 37.98025 Q4 39.98025 6 39.98025 Q8 39.98025 8 37.98025 Q8 36 8 30 Q8 24 8 19.98025 Q8 16.84054 9.24519 13.87012 Q10.49039 10.8997 12.7091 8.67554 Q14.81968 6.53434 17.86148 5.30718 Q20.90328 4.08002 24 4.08002 Q27.09672 4.08002 30.09555 5.35016 Q33.09437 6.6203 35.25482 8.71161 Q37.39479 10.90608 38.6974 13.91229 Q40 16.9185 40 19.98025 Q40 24 40 30 Q40 36 40 37.98025 Q40 39.98025 42 39.98025 Q44 39.98025 44 37.98025 Q44 36 44 30 Q44 24 43.99012 19.99013 Q43.98479 17.82602 43.99239 10.90313 Q44 3.98025 44 1.98025 Q44 -0.01975 42 -0.01975 Q40 -0.01975 40 1.98025 Q40 4 40 4.45926 Q40 4.91852 40 5.98025 Q40 7.98025 39.11662 6.98753 Q38.23325 5.99481 38.13515 5.88345 Q35.586 2.9897 31.70547 1.49485 Q27.82494 0 24 0 Q20.17506 0 16.36885 1.57174 Q12.56263 3.14348 9.86485 5.85497 Q7.14639 8.58724 5.58285 12.37622 Q4.0193 16.16519 4.00988 19.99013 Q4 24 4 30 Q4 36 4 37.98025 z" />
<glyph unicode="" horiz-adv-x="48" d="M28.44301 63.25642 Q29.85919 64.66866 31.27143 63.25247 Q32.68367 61.83628 31.26748 60.42404 Q29.8513 59.01181 26.37653 55.54499 Q22.90176 52.07817 21.52098 50.70124 Q20.10479 49.289 18.69255 50.70519 Q17.28032 52.12138 18.69651 53.53361 Q20.11269 54.94585 23.56975 58.39502 Q27.02682 61.84418 28.44301 63.25642 zM4 37.98025 Q4 39.98025 6 39.98025 Q8 39.98025 8 37.98025 Q8 36 8 30 Q8 24 8 19.98025 Q8 16.84054 9.24519 13.87012 Q10.49039 10.8997 12.7091 8.67554 Q14.81968 6.53434 17.86148 5.30718 Q20.90328 4.08002 24 4.08002 Q27.09672 4.08002 30.09555 5.35016 Q33.09437 6.6203 35.25482 8.71161 Q37.39479 10.90608 38.6974 13.91229 Q40 16.9185 40 19.98025 Q40 24 40 29.99012 Q40 35.98025 40 37.98025 Q40 39.98025 42 39.98025 Q44 39.98025 44 37.98025 Q44 35.98025 44 29.99012 Q44 24 43.99012 19.99013 Q43.98479 17.82602 43.99239 10.90313 Q44 3.98025 44 1.98025 Q44 -0.01975 42 -0.01975 Q40 -0.01975 40 1.98025 Q40 4 40 4.46914 Q40 4.93827 40 5.98025 Q40 7.98025 39.11662 6.98753 Q38.23325 5.99481 38.13515 5.88345 Q35.586 2.9897 31.70547 1.49485 Q27.82494 0 24 0 Q20.17506 0 16.36885 1.57174 Q12.56263 3.14348 9.86485 5.85497 Q7.14639 8.58724 5.58285 12.37622 Q4.0193 16.16519 4.00988 19.99013 Q4 24 4 30 Q4 36 4 37.98025 z" />
<glyph unicode="" horiz-adv-x="48" d="M4 37.98025 Q4 39.98025 6 39.98025 Q8 39.98025 8 37.98025 Q8 36 8 30 Q8 24 8 19.98025 Q8 16.84054 9.24519 13.87012 Q10.49039 10.8997 12.7091 8.67554 Q14.81968 6.53434 17.86148 5.30718 Q20.90328 4.08002 24 4.08002 Q27.09672 4.08002 30.09555 5.35016 Q33.09437 6.6203 35.25482 8.71161 Q37.39479 10.90608 38.6974 13.91229 Q40 16.9185 40 19.98025 Q40 24 40 29.99012 Q40 35.98025 40 37.98025 Q40 39.98025 42 39.98025 Q44 39.98025 44 37.98025 Q44 35.98025 44 29.99012 Q44 24 43.99012 19.99013 Q43.98479 17.82602 43.99239 10.90313 Q44 3.98025 44 1.98025 Q44 -0.01975 42 -0.01975 Q40 -0.01975 40 1.98025 Q40 4 40 4.46914 Q40 4.93827 40 5.98025 Q40 7.98025 39.11662 6.98753 Q38.23325 5.99481 38.13515 5.88345 Q35.586 2.9897 31.70547 1.49485 Q27.82494 0 24 0 Q20.17506 0 16.36885 1.57174 Q12.56263 3.14348 9.86485 5.85497 Q7.14639 8.58724 5.58285 12.37622 Q4.0193 16.16519 4.00988 19.99013 Q4 24 4 30 Q4 36 4 37.98025 zM27.54568 61.02222 Q29.54568 59.02222 31.28819 57.2797 Q33.03071 55.53719 35.03071 53.53719 Q36.80355 51.76435 35.14429 50.13966 Q33.48503 48.51497 31.48503 50.51497 Q28 54 27 55 Q26 56 24 58 Q22 56 21 55 Q20 54 16.51497 50.51497 Q14.51497 48.51497 12.85571 50.13966 Q11.19645 51.76435 12.96929 53.53719 Q14.96929 55.53719 16.71181 57.2797 Q18.45432 59.02222 20.45432 61.02222 Q23.24938 63.81728 24 63.81728 Q24.75062 63.81728 27.54568 61.02222 z" />
</font>
</svg>
