<svg version="1.1" xmlns="http://www.w3.org/2000/svg" viewBox="0 0 100 100"><path stroke="#000000" stroke-width="0" stroke-linejoin="round" stroke-linecap="round" fill="#000000" d="M 15 15 C 17 13 20 13 22 15 C 27 20 34 27 37 30 C 37 25 37 23 37 20 C 37 17 39 15 42 15 C 45 15 47 17 47 20 C 47 25 47 33 47 40 C 47 42 47 44 45.5 45.5 C 44 47 42 47 40 47 C 33 47 25 47 20 47 C 17 47 15 45 15 42 C 15 39 17 37 20 37 C 23 37 25 37 30 37 C 27 34 20 27 15 22 C 13 20 13 17 15 15 Z M 15 85 C 13 83 13 80 15 78 C 20 73 27 66 30 63 C 25 63 23 63 20 63 C 17 63 15 61 15 58 C 15 55 17 53 20 53 C 25 53 33 53 40 53 C 42 53 44 53 45.5 54.5 C 47 56 47 58 47 60 C 47 67 47 75 47 80 C 47 83 45 85 42 85 C 39 85 37 83 37 80 C 37 77 37 75 37 70 C 34 73 27 80 22 85 C 20 87 17 87 15 85 Z M 85 15 C 87 17 87 20 85 22 C 80 27 73 34 70 37 C 75 37 77 37 80 37 C 83 37 85 39 85 42 C 85 45 83 47 80 47 C 75 47 67 47 60 47 C 58 47 56 47 54.5 45.5 C 53 44 53 42 53 40 C 53 33 53 25 53 20 C 53 17 55 15 58 15 C 61 15 63 17 63 20 C 63 23 63 25 63 30 C 66 27 73 20 78 15 C 80 13 83 13 85 15 Z M 85 85 C 83 87 80 87 78 85 C 73 80 66 73 63 70 C 63 75 63 77 63 80 C 63 83 61 85 58 85 C 55 85 53 83 53 80 C 53 75 53 67 53 60 C 53 58 53 56 54.5 54.5 C 56 53 58 53 60 53 C 67 53 75 53 80 53 C 83 53 85 55 85 58 C 85 61 83 63 80 63 C 77 63 75 63 70 63 C 73 66 80 73 85 78 C 87 80 87 83 85 85 Z"></path></svg>