<svg version="1.1" xmlns="http://www.w3.org/2000/svg" viewBox="0 0 100 100"><path stroke="#000000" stroke-width="0" stroke-linejoin="round" stroke-linecap="round" fill="#000000" d="M 50 50 C 53 52 55 56 55 60 C 55 65 55 70 55 73 C 58 70 60 68 62 66 C 64 64 67 64 69 66 C 71 68 71 71 69 73 C 65 77 60 82 55 87 C 53 89 52 90 50 90 C 48 90 47 89 45 87 C 40 82 35 77 31 73 C 29 71 29 68 31 66 C 33 64 36 64 38 66 C 40 68 42 70 45 73 C 45 70 45 65 45 60 C 45 57 43 55 40 55 C 30 55 20 55 15 55 C 12 55 10 53 10 50 C 10 47 12 45 15 45 C 20 45 30 45 40 45 C 43 45 45 43 45 40 C 45 35 45 30 45 27 C 42 30 40 32 38 34 C 36 36 33 36 31 34 C 29 32 29 29 31 27 C 35 23 40 18 45 13 C 47 11 48 10 50 10 C 52 10 53 11 55 13 C 60 18 65 23 69 27 C 71 29 71 32 69 34 C 67 36 64 36 62 34 C 60 32 58 30 55 27 C 55 30 55 35 55 40 C 55 44 53 48 50 50 Z"></path></svg>