<svg version="1.1" xmlns="http://www.w3.org/2000/svg" viewBox="0 0 100 100"><path stroke="#000000" stroke-width="0" stroke-linejoin="round" stroke-linecap="round" fill="#000000" d="M 50 50 C 52 47 56 45 60 45 C 65 45 70 45 73 45 C 70 42 68 40 66 38 C 64 36 64 33 66 31 C 68 29 71 29 73 31 C 77 35 82 40 87 45 C 89 47 90 48 90 50 C 90 52 89 53 87 55 C 82 60 77 65 73 69 C 71 71 68 71 66 69 C 64 67 64 64 66 62 C 68 60 70 58 73 55 C 70 55 65 55 60 55 C 57 55 55 57 55 60 C 55 70 55 80 55 85 C 55 88 53 90 50 90 C 47 90 45 88 45 85 C 45 80 45 70 45 60 C 45 57 43 55 40 55 C 35 55 30 55 27 55 C 30 58 32 60 34 62 C 36 64 36 67 34 69 C 32 71 29 71 27 69 C 23 65 18 60 13 55 C 11 53 10 52 10 50 C 10 48 11 47 13 45 C 18 40 23 35 27 31 C 29 29 32 29 34 31 C 36 33 36 36 34 38 C 32 40 30 42 27 45 C 30 45 35 45 40 45 C 44 45 48 47 50 50 Z"></path></svg>