<svg version="1.1" xmlns="http://www.w3.org/2000/svg" viewBox="0 0 100 100"><path stroke="#000000" stroke-width="0" stroke-linejoin="round" stroke-linecap="round" fill="#000000" d="M 90 50 C 90 53 88 55 85 55 C 80 55 70 55 60 55 C 51 55 45 49 45 40 C 45 35 45 30 45 27 C 42 30 40 32 38 34 C 36 36 33 36 31 34 C 29 32 29 29 31 27 C 35 23 40 18 45 13 C 47 11 48 10 50 10 C 52 10 53 11 55 13 C 60 18 65 23 69 27 C 71 29 71 32 69 34 C 67 36 64 36 62 34 C 60 32 58 30 55 27 C 55 30 55 35 55 40 C 55 43 57 45 60 45 C 70 45 80 45 85 45 C 88 45 90 47 90 50 Z"></path></svg>