<svg version="1.1" xmlns="http://www.w3.org/2000/svg" viewBox="0 0 100 100"><path stroke="#000000" stroke-width="0" stroke-linejoin="round" stroke-linecap="round" fill="#000000" d="M 80 15 C 80 18 78 20 75 20 C 60 20 40 20 25 20 C 22 20 20 18 20 15 C 20 12 22 10 25 10 C 40 10 60 10 75 10 C 78 10 80 12 80 15 Z M 50 90 C 47 90 45 88 45 85 C 45 70 45 50 45 37 C 42 40 40 42 38 44 C 36 46 33 46 31 44 C 29 42 29 39 31 37 C 35 33 40 28 45 23 C 47 21 48 20 50 20 C 52 20 53 21 55 23 C 60 28 65 33 69 37 C 71 39 71 42 69 44 C 67 46 64 46 62 44 C 60 42 58 40 55 37 C 55 50 55 70 55 85 C 55 88 53 90 50 90 Z"></path></svg>