<svg version="1.1" xmlns="http://www.w3.org/2000/svg" viewBox="0 0 100 100"><path stroke="#000000" stroke-width="0" stroke-linejoin="round" stroke-linecap="round" fill="#000000" d="M 50 10 C 53 10 55 12 55 15 C 55 20 55 30 55 40 C 55 49 49 55 40 55 C 35 55 30 55 27 55 C 30 58 32 60 34 62 C 36 64 36 67 34 69 C 32 71 29 71 27 69 C 23 65 18 60 13 55 C 11 53 10 52 10 50 C 10 48 11 47 13 45 C 18 40 23 35 27 31 C 29 29 32 29 34 31 C 36 33 36 36 34 38 C 32 40 30 42 27 45 C 30 45 35 45 40 45 C 43 45 45 43 45 40 C 45 30 45 20 45 15 C 45 12 47 10 50 10 Z"></path></svg>