<svg version="1.1" xmlns="http://www.w3.org/2000/svg" viewBox="0 0 100 100"><path stroke="#000000" stroke-width="0" stroke-linejoin="round" stroke-linecap="round" fill="#000000" d="M 25 45 C 28 45 30 47 30 50 C 30 61 39 70 50 70 C 61 70 70 61 70 50 C 70 41 64 33 53 30 C 56 33 56 36 54 38 C 52 40 49 40 47 38 C 45 36 42 33 40 31 C 38 29 36 27 36 25 C 36 23 38 21 40 19 C 42 17 45 14 47 12 C 49 10 52 10 54 12 C 56 14 56 17 54 19 C 54 19 54 19 53 20 C 71 23 80 36 80 50 C 80 67 67 80 50 80 C 33 80 20 67 20 50 C 20 47 22 45 25 45 Z"></path></svg>