<svg version="1.1" xmlns="http://www.w3.org/2000/svg" viewBox="0 0 100 100"><path stroke="#000000" stroke-width="0" stroke-linejoin="round" stroke-linecap="round" fill="#000000" d="M 50 20 C 53 20 55 22 55 25 C 55 30 55 40 55 50 C 55 53 57 55 60 55 C 65 55 70 55 73 55 C 70 52 68 50 66 48 C 64 46 64 43 66 41 C 68 39 71 39 73 41 C 77 45 82 50 87 55 C 89 57 90 58 90 60 C 90 62 89 63 87 65 C 82 70 77 75 73 79 C 71 81 68 81 66 79 C 64 77 64 74 66 72 C 68 70 70 68 73 65 C 70 65 65 65 60 65 C 51 65 45 59 45 50 C 45 40 45 30 45 25 C 45 22 47 20 50 20 Z"></path></svg>