<svg version="1.1" xmlns="http://www.w3.org/2000/svg" viewBox="0 0 100 100"><path stroke="#000000" stroke-width="0" stroke-linejoin="round" stroke-linecap="round" fill="#000000" d="M 15 20 C 18 20 20 22 20 25 C 20 40 20 60 20 75 C 20 78 18 80 15 80 C 12 80 10 78 10 75 C 10 60 10 40 10 25 C 10 22 12 20 15 20 Z M 90 50 C 90 53 88 55 85 55 C 70 55 50 55 37 55 C 40 58 42 60 44 62 C 46 64 46 67 44 69 C 42 71 39 71 37 69 C 33 65 28 60 23 55 C 21 53 20 52 20 50 C 20 48 21 47 23 45 C 28 40 33 35 37 31 C 39 29 42 29 44 31 C 46 33 46 36 44 38 C 42 40 40 42 37 45 C 50 45 70 45 85 45 C 88 45 90 47 90 50 Z"></path></svg>