<svg version="1.1" xmlns="http://www.w3.org/2000/svg" viewBox="0 0 100 100"><path stroke="#000000" stroke-width="0" stroke-linejoin="round" stroke-linecap="round" fill="#000000" d="M 55 55 C 55 65 55 72 55 73 C 57 71 58 70 59 69 C 61 67 64 67 66 69 C 68 71 68 74 66 76 C 65 77 60 82 55 87 C 53 89 52 90 50 90 C 48 90 47 89 45 87 C 40 82 35 77 34 76 C 32 74 32 71 34 69 C 36 67 39 67 41 69 C 42 70 43 71 45 73 C 45 72 45 65 45 55 C 35 55 28 55 27 55 C 29 57 30 58 31 59 C 33 61 33 64 31 66 C 29 68 26 68 24 66 C 23 65 18 60 13 55 C 11 53 10 52 10 50 C 10 48 11 47 13 45 C 18 40 23 35 24 34 C 26 32 29 32 31 34 C 33 36 33 39 31 41 C 30 42 29 43 27 45 C 28 45 35 45 45 45 C 45 35 45 28 45 27 C 43 29 42 30 41 31 C 39 33 36 33 34 31 C 32 29 32 26 34 24 C 35 23 39 19 45 13 C 47 11 48 10 50 10 C 52 10 53 11 55 13 C 60 18 65 23 66 24 C 68 26 68 29 66 31 C 64 33 61 33 59 31 C 58 30 57 29 55 27 C 55 28 55 35 55 45 C 65 45 72 45 73 45 C 71 43 70 42 69 41 C 67 39 67 36 69 34 C 71 32 74 32 76 34 C 77 35 81 39 87 45 C 89 47 90 48 90 50 C 90 52 89 53 87 55 C 82 60 77 65 76 66 C 74 68 71 68 69 66 C 67 64 67 61 69 59 C 70 58 71 57 73 55 C 72 55 65 55 55 55 Z"></path></svg>