<svg version="1.1" xmlns="http://www.w3.org/2000/svg" viewBox="0 0 100 100"><path stroke="#000000" stroke-width="0" stroke-linejoin="round" stroke-linecap="round" fill="#000000" d="M 75 55 C 72 55 70 53 70 50 C 70 39 61 30 50 30 C 39 30 30 39 30 50 C 30 59 36 67 47 70 C 44 67 44 64 46 62 C 48 60 51 60 53 62 C 55 64 58 67 60 69 C 62 71 64 73 64 75 C 64 77 62 79 60 81 C 58 83 55 86 53 88 C 51 90 48 90 46 88 C 44 86 44 83 46 81 C 46 81 46 81 47 80 C 29 77 20 64 20 50 C 20 33 33 20 50 20 C 67 20 80 33 80 50 C 80 53 78 55 75 55 Z"></path></svg>