<svg version="1.1" xmlns="http://www.w3.org/2000/svg" viewBox="0 0 100 100"><path stroke="#000000" stroke-width="0" stroke-linejoin="round" stroke-linecap="round" fill="#000000" d="M 20 85 C 20 82 22 80 25 80 C 40 80 60 80 75 80 C 78 80 80 82 80 85 C 80 88 78 90 75 90 C 60 90 40 90 25 90 C 22 90 20 88 20 85 Z M 50 10 C 53 10 55 12 55 15 C 55 30 55 50 55 63 C 58 60 60 58 62 56 C 64 54 67 54 69 56 C 71 58 71 61 69 63 C 65 67 60 72 55 77 C 53 79 52 80 50 80 C 48 80 47 79 45 77 C 40 72 35 67 31 63 C 29 61 29 58 31 56 C 33 54 36 54 38 56 C 40 58 42 60 45 63 C 45 50 45 30 45 15 C 45 12 47 10 50 10 Z"></path></svg>