<svg version="1.1" xmlns="http://www.w3.org/2000/svg" viewBox="0 0 100 100"><path stroke="#000000" stroke-width="0" stroke-linejoin="round" stroke-linecap="round" fill="#000000" d="M 10 50 C 10 47 12 45 15 45 C 18 45 27 45 30 45 C 27 42 25 40 23 38 C 21 36 21 33 23 31 C 25 29 28 29 30 31 C 34 35 39 40 44 45 C 46 47 47 48 47 50 C 47 52 46 53 44 55 C 39 60 34 65 30 69 C 28 71 25 71 23 69 C 21 67 21 64 23 62 C 25 60 27 58 30 55 C 27 55 18 55 15 55 C 12 55 10 53 10 50 Z M 50 90 C 47 90 45 88 45 85 C 45 82 45 73 45 70 C 42 73 40 75 38 77 C 36 79 33 79 31 77 C 29 75 29 72 31 70 C 35 66 40 61 45 56 C 47 54 48 53 50 53 C 52 53 53 54 55 56 C 60 61 65 66 69 70 C 71 72 71 75 69 77 C 67 79 64 79 62 77 C 60 75 58 73 55 70 C 55 73 55 82 55 85 C 55 88 53 90 50 90 Z M 90 50 C 90 53 88 55 85 55 C 82 55 73 55 70 55 C 73 58 75 60 77 62 C 79 64 79 67 77 69 C 75 71 72 71 70 69 C 66 65 61 60 56 55 C 54 53 53 52 53 50 C 53 48 54 47 56 45 C 61 40 66 35 70 31 C 72 29 75 29 77 31 C 79 33 79 36 77 38 C 75 40 73 42 70 45 C 73 45 82 45 85 45 C 88 45 90 47 90 50 Z M 50 10 C 53 10 55 12 55 15 C 55 19 55 27 55 30 C 58 27 60 25 62 23 C 64 21 67 21 69 23 C 71 25 71 28 69 30 C 65 34 60 39 55 44 C 53 46 52 47 50 47 C 48 47 47 46 45 44 C 40 39 35 34 31 30 C 29 28 29 25 31 23 C 33 21 36 21 38 23 C 40 25 42 27 45 30 C 45 27 45 19 45 15 C 45 12 47 10 50 10 Z"></path></svg>