<svg version="1.1" xmlns="http://www.w3.org/2000/svg" viewBox="0 0 100 100"><path stroke="#000000" stroke-width="0" stroke-linejoin="round" stroke-linecap="round" fill="#000000" d="M 50 57 C 46 61 41 66 37 70 C 41 70 42 70 43 70 C 46 70 48 72 48 75 C 48 78 46 80 43 80 C 41 80 34 80 27 80 C 25 80 23 80 21.5 78.5 C 20 77 20 75 20 73 C 20 66 20 59 20 57 C 20 54 22 52 25 52 C 28 52 30 54 30 57 C 30 58 30 59 30 63 C 34 59 39 54 43 50 C 35 42 31 38 30 37 C 30 41 30 42 30 43 C 30 46 28 48 25 48 C 22 48 20 46 20 43 C 20 41 20 34 20 27 C 20 24 20 23 21.5 21.5 C 23 20 24 20 27 20 C 34 20 41 20 43 20 C 46 20 48 22 48 25 C 48 28 46 30 43 30 C 42 30 41 30 37 30 C 38 31 42 35 50 43 C 58 35 62 31 63 30 C 59 30 58 30 57 30 C 54 30 52 28 52 25 C 52 22 54 20 57 20 C 59 20 66 20 73 20 C 76 20 77 20 78.5 21.5 C 80 23 80 24 80 27 C 80 34 80 41 80 43 C 80 46 78 48 75 48 C 72 48 70 46 70 43 C 70 42 70 41 70 37 C 69 38 65 42 57 50 C 61 54 66 59 70 63 C 70 59 70 58 70 57 C 70 54 72 52 75 52 C 78 52 80 54 80 57 C 80 59 80 66 80 73 C 80 75 80 77 78.5 78.5 C 77 80 75 80 73 80 C 66 80 59 80 57 80 C 54 80 52 78 52 75 C 52 72 54 70 57 70 C 58 70 59 70 63 70 C 59 66 54 61 50 57 Z"></path></svg>