<svg version="1.1" xmlns="http://www.w3.org/2000/svg" viewBox="0 0 100 100"><path stroke="#000000" stroke-width="0" stroke-linejoin="round" stroke-linecap="round" fill="#000000" d="M 80 45 C 80 38 80 31 80 25 C 80 22 82 20 85 20 C 88 20 90 22 90 25 C 90 40 90 60 90 75 C 90 78 88 80 85 80 C 82 80 80 78 80 75 C 80 69 80 62 80 55 C 65 55 39 55 27 55 C 30 58 32 60 34 62 C 36 64 36 67 34 69 C 32 71 29 71 27 69 C 23 65 18 60 13 55 C 11 53 10 52 10 50 C 10 48 11 47 13 45 C 18 40 23 35 27 31 C 29 29 32 29 34 31 C 36 33 36 36 34 38 C 32 40 30 42 27 45 C 39 45 65 45 80 45 Z"></path></svg>