<svg version="1.1" xmlns="http://www.w3.org/2000/svg" viewBox="0 0 100 100"><path stroke="#000000" stroke-width="0" stroke-linejoin="round" stroke-linecap="round" fill="#000000" d="M 45 75 C 45 72 47 70 50 70 C 61 70 70 61 70 50 C 70 39 61 30 50 30 C 41 30 33 36 30 47 C 33 44 36 44 38 46 C 40 48 40 51 38 53 C 36 55 33 58 31 60 C 29 62 27 64 25 64 C 23 64 21 62 19 60 C 17 58 14 55 12 53 C 10 51 10 48 12 46 C 14 44 17 44 19 46 C 19 46 19 46 20 47 C 23 29 36 20 50 20 C 67 20 80 33 80 50 C 80 67 67 80 50 80 C 47 80 45 78 45 75 Z"></path></svg>