<svg version="1.1" xmlns="http://www.w3.org/2000/svg" viewBox="0 0 100 100"><path stroke="#000000" stroke-width="0" stroke-linejoin="round" stroke-linecap="round" fill="#000000" d="M 30 37 C 30 41 30 44 30 47 C 30 50 28 52 25 52 C 22 52 20 50 20 47 C 20 41 20 34 20 27 C 20 24 20 23 21.5 21.5 C 23 20 24 20 27 20 C 34 20 41 20 47 20 C 50 20 52 22 52 25 C 52 28 50 30 47 30 C 44 30 41 30 37 30 C 39 32 61 54 70 63 C 70 58 70 56 70 53 C 70 50 72 48 75 48 C 78 48 80 50 80 53 C 80 58 80 66 80 73 C 80 75 80 77 78.5 78.5 C 77 80 75 80 73 80 C 66 80 58 80 53 80 C 50 80 48 78 48 75 C 48 72 50 70 53 70 C 56 70 58 70 63 70 C 54 61 32 39 30 37 Z"></path></svg>