<svg version="1.1" xmlns="http://www.w3.org/2000/svg" viewBox="0 0 100 100"><path stroke="#000000" stroke-width="0" stroke-linejoin="round" stroke-linecap="round" fill="#000000" d="M 55 25 C 55 28 53 30 50 30 C 39 30 30 39 30 50 C 30 61 39 70 50 70 C 59 70 67 64 70 53 C 67 56 64 56 62 54 C 60 52 60 49 62 47 C 64 45 67 42 69 40 C 71 38 73 36 75 36 C 77 36 79 38 81 40 C 83 42 86 45 88 47 C 90 49 90 52 88 54 C 86 56 83 56 81 54 C 81 54 81 54 80 53 C 77 71 64 80 50 80 C 33 80 20 67 20 50 C 20 33 33 20 50 20 C 53 20 55 22 55 25 Z"></path></svg>