<svg version="1.1" xmlns="http://www.w3.org/2000/svg" viewBox="0 0 100 100"><path stroke="#000000" stroke-width="0" stroke-linejoin="round" stroke-linecap="round" fill="#000000" d="M 25 33 C 27 30 31 31 33 33 C 35 35 33 39 33 39 C 32 41 30 45 30 50 C 30 59 36 67 47 70 C 44 67 44 64 46 62 C 48 60 51 60 53 62 C 55 64 58 67 60 69 C 62 71 64 73 64 75 C 64 77 62 79 60 81 C 58 83 55 86 53 88 C 51 90 48 90 46 88 C 44 86 44 83 46 81 C 46 81 46 81 47 80 C 29 77 20 64 20 50 C 20 42 23 36 25 33 Z M 75 67 C 73 70 69 69 67 67 C 65 65 67 61 67 61 C 68 59 70 55 70 50 C 70 41 64 33 53 30 C 56 33 56 36 54 38 C 52 40 49 40 47 38 C 45 36 42 33 40 31 C 38 29 36 27 36 25 C 36 23 38 21 40 19 C 42 17 45 14 47 12 C 49 10 52 10 54 12 C 56 14 56 17 54 19 C 54 19 54 19 53 20 C 71 23 80 36 80 50 C 80 58 77 64 75 67 Z"></path></svg>