<svg version="1.1" xmlns="http://www.w3.org/2000/svg" viewBox="0 0 100 100"><path stroke="#000000" stroke-width="0" stroke-linejoin="round" stroke-linecap="round" fill="#000000" d="M 55 75 C 55 78 53 80 50 80 C 33 80 20 67 20 50 C 20 33 33 20 50 20 C 64 20 77 29 80 47 C 81 46 81 46 81 46 C 83 44 86 44 88 46 C 90 48 90 51 88 53 C 86 55 83 58 81 60 C 79 62 77 64 75 64 C 73 64 71 62 69 60 C 67 58 64 55 62 53 C 60 51 60 48 62 46 C 64 44 67 44 70 47 C 67 36 59 30 50 30 C 39 30 30 39 30 50 C 30 61 39 70 50 70 C 53 70 55 72 55 75 Z"></path></svg>