<svg version="1.1" xmlns="http://www.w3.org/2000/svg" viewBox="0 0 100 100"><path stroke="#000000" stroke-width="0" stroke-linejoin="round" stroke-linecap="round" fill="#000000" d="M 20 55 C 20 62 20 69 20 75 C 20 78 18 80 15 80 C 12 80 10 78 10 75 C 10 60 10 40 10 25 C 10 22 12 20 15 20 C 18 20 20 22 20 25 C 20 31 20 38 20 45 C 35 45 61 45 73 45 C 70 42 68 40 66 38 C 64 36 64 33 66 31 C 68 29 71 29 73 31 C 77 35 82 40 87 45 C 89 47 90 48 90 50 C 90 52 89 53 87 55 C 82 60 77 65 73 69 C 71 71 68 71 66 69 C 64 67 64 64 66 62 C 68 60 70 58 73 55 C 61 55 35 55 20 55 Z"></path></svg>