<svg version="1.1" xmlns="http://www.w3.org/2000/svg" viewBox="0 0 100 100"><path stroke="#000000" stroke-width="0" stroke-linejoin="round" stroke-linecap="round" fill="#000000" d="M 37 70 C 40 70 43 70 47 70 C 50 70 52 72 52 75 C 52 78 50 80 47 80 C 43 80 34 80 27 80 C 25 80 23 80 21.5 78.5 C 20 77 20 75 20 73 C 20 66 20 57 20 53 C 20 50 22 48 25 48 C 28 48 30 50 30 53 C 30 57 30 60 30 63 C 33 60 60 33 63 30 C 60 30 57 30 53 30 C 50 30 48 28 48 25 C 48 22 50 20 53 20 C 57 20 66 20 73 20 C 75 20 77 20 78.5 21.5 C 80 23 80 25 80 27 C 80 34 80 43 80 47 C 80 50 78 52 75 52 C 72 52 70 50 70 47 C 70 43 70 40 70 37 C 67 40 40 67 37 70 Z"></path></svg>