<svg version="1.1" xmlns="http://www.w3.org/2000/svg" viewBox="0 0 100 100"><path stroke="#000000" stroke-width="0" stroke-linejoin="round" stroke-linecap="round" fill="#000000" d="M 55 80 C 62 80 69 80 75 80 C 78 80 80 82 80 85 C 80 88 78 90 75 90 C 60 90 40 90 25 90 C 22 90 20 88 20 85 C 20 82 22 80 25 80 C 31 80 38 80 45 80 C 45 65 45 39 45 27 C 42 30 40 32 38 34 C 36 36 33 36 31 34 C 29 32 29 29 31 27 C 35 23 40 18 45 13 C 47 11 48 10 50 10 C 52 10 53 11 55 13 C 60 18 65 23 69 27 C 71 29 71 32 69 34 C 67 36 64 36 62 34 C 60 32 58 30 55 27 C 55 39 55 65 55 80 Z"></path></svg>