<svg version="1.1" xmlns="http://www.w3.org/2000/svg" viewBox="0 0 100 100"><path stroke="#000000" stroke-width="0" stroke-linejoin="round" stroke-linecap="round" fill="#000000" d="M 40 50 C 37 48 35 44 35 40 C 35 35 35 30 35 27 C 32 30 30 32 28 34 C 26 36 23 36 21 34 C 19 32 19 29 21 27 C 25 23 30 18 35 13 C 37 11 38 10 40 10 C 42 10 43 11 45 13 C 50 18 55 23 59 27 C 61 29 61 32 59 34 C 57 36 54 36 52 34 C 50 32 48 30 45 27 C 45 30 45 35 45 40 C 45 43 47 45 50 45 C 60 45 70 45 75 45 C 78 45 80 47 80 50 C 80 53 78 55 75 55 C 70 55 60 55 50 55 C 47 55 45 57 45 60 C 45 65 45 70 45 73 C 48 70 50 68 52 66 C 54 64 57 64 59 66 C 61 68 61 71 59 73 C 55 77 50 82 45 87 C 43 89 42 90 40 90 C 38 90 37 89 35 87 C 30 82 25 77 21 73 C 19 71 19 68 21 66 C 23 64 26 64 28 66 C 30 68 32 70 35 73 C 35 70 35 65 35 60 C 35 56 37 52 40 50 Z"></path></svg>