<svg version="1.1" xmlns="http://www.w3.org/2000/svg" viewBox="0 0 100 100"><path stroke="#000000" stroke-width="0" stroke-linejoin="round" stroke-linecap="round" fill="#000000" d="M 90 60 C 90 63 88 65 85 65 C 80 65 70 65 60 65 C 51 65 45 59 45 50 C 45 45 45 40 45 37 C 42 40 40 42 38 44 C 36 46 33 46 31 44 C 29 42 29 39 31 37 C 35 33 40 28 45 23 C 47 21 48 20 50 20 C 52 20 53 21 55 23 C 60 28 65 33 69 37 C 71 39 71 42 69 44 C 67 46 64 46 62 44 C 60 42 58 40 55 37 C 55 40 55 45 55 50 C 55 53 57 55 60 55 C 70 55 80 55 85 55 C 88 55 90 57 90 60 Z"></path></svg>