<svg version="1.1" xmlns="http://www.w3.org/2000/svg" viewBox="0 0 100 100"><path stroke="#000000" stroke-width="0" stroke-linejoin="round" stroke-linecap="round" fill="#000000" d="M 45 25 C 45 22 47 20 50 20 C 67 20 80 33 80 50 C 80 67 67 80 50 80 C 36 80 23 71 20 53 C 19 54 19 54 19 54 C 17 56 14 56 12 54 C 10 52 10 49 12 47 C 14 45 17 42 19 40 C 21 38 23 36 25 36 C 27 36 29 38 31 40 C 33 42 36 45 38 47 C 40 49 40 52 38 54 C 36 56 33 56 30 53 C 33 64 41 70 50 70 C 61 70 70 61 70 50 C 70 39 61 30 50 30 C 47 30 45 28 45 25 Z"></path></svg>