<svg version="1.1" xmlns="http://www.w3.org/2000/svg" viewBox="0 0 100 100"><path stroke="#000000" stroke-width="0" stroke-linejoin="round" stroke-linecap="round" fill="#000000" d="M 33 75 C 30 73 31 69 33 67 C 35 65 39 67 39 67 C 41 68 45 70 50 70 C 59 70 67 64 70 53 C 67 56 64 56 62 54 C 60 52 60 49 62 47 C 64 45 67 42 69 40 C 71 38 73 36 75 36 C 77 36 79 38 81 40 C 83 42 86 45 88 47 C 90 49 90 52 88 54 C 86 56 83 56 81 54 C 81 54 81 54 80 53 C 77 71 64 80 50 80 C 42 80 36 77 33 75 Z M 67 25 C 70 27 69 31 67 33 C 65 35 61 33 61 33 C 59 32 55 30 50 30 C 41 30 33 36 30 47 C 33 44 36 44 38 46 C 40 48 40 51 38 53 C 36 55 33 58 31 60 C 29 62 27 64 25 64 C 23 64 21 62 19 60 C 17 58 14 55 12 53 C 10 51 10 48 12 46 C 14 44 17 44 19 46 C 19 46 19 46 20 47 C 23 29 36 20 50 20 C 58 20 64 23 67 25 Z"></path></svg>