<svg version="1.1" xmlns="http://www.w3.org/2000/svg" viewBox="0 0 100 100"><path stroke="#000000" stroke-width="0" stroke-linejoin="round" stroke-linecap="round" fill="#000000" d="M 25 67 C 23 64 20 58 20 50 C 20 36 29 23 47 20 C 46 19 46 19 46 19 C 44 17 44 14 46 12 C 48 10 51 10 53 12 C 55 14 58 17 60 19 C 62 21 64 23 64 25 C 64 27 62 29 60 31 C 58 33 55 36 53 38 C 51 40 48 40 46 38 C 44 36 44 33 47 30 C 36 33 30 41 30 50 C 30 55 32 59 33 61 C 33 61 35 65 33 67 C 31 69 27 70 25 67 Z M 75 33 C 77 36 80 42 80 50 C 80 64 71 77 53 80 C 54 81 54 81 54 81 C 56 83 56 86 54 88 C 52 90 49 90 47 88 C 45 86 42 83 40 81 C 38 79 36 77 36 75 C 36 73 38 71 40 69 C 42 67 45 64 47 62 C 49 60 52 60 54 62 C 56 64 56 67 53 70 C 64 67 70 59 70 50 C 70 45 68 41 67 39 C 67 39 65 35 67 33 C 69 31 73 30 75 33 Z"></path></svg>