<svg version="1.1" xmlns="http://www.w3.org/2000/svg" viewBox="0 0 100 100"><path stroke="#000000" stroke-width="0" stroke-linejoin="round" stroke-linecap="round" fill="#000000" d="M 75 45 C 78 45 80 47 80 50 C 80 67 67 80 50 80 C 33 80 20 67 20 50 C 20 36 29 23 47 20 C 46 19 46 19 46 19 C 44 17 44 14 46 12 C 48 10 51 10 53 12 C 55 14 58 17 60 19 C 62 21 64 23 64 25 C 64 27 62 29 60 31 C 58 33 55 36 53 38 C 51 40 48 40 46 38 C 44 36 44 33 47 30 C 36 33 30 41 30 50 C 30 61 39 70 50 70 C 61 70 70 61 70 50 C 70 47 72 45 75 45 Z"></path></svg>