<svg version="1.1" xmlns="http://www.w3.org/2000/svg" viewBox="0 0 100 100"><path stroke="#000000" stroke-width="0" stroke-linejoin="round" stroke-linecap="round" fill="#000000" d="M 60 69 C 60 71 57 71 57 69 C 57 60 57 48 57 40 C 57 29 57 23 50 23 C 43 23 43 29 43 40 C 43 47 43 53 43 60 C 43 71 43 77 48 77 C 53 77 53 71 53 60 C 53 53 53 48 53 40 C 53 29 53 27 50 27 C 47 27 47 29 47 40 C 47 47 47 60 47 69 C 47 71 44 71 44 69 C 44 60 44 47 44 40 C 44 29 44 24 50 24 C 56 24 56 29 56 40 C 56 48 56 53 56 60 C 56 71 56 80 48 80 C 40 80 40 71 40 60 C 40 53 40 47 40 40 C 40 29 40 20 50 20 C 60 20 60 29 60 40 C 60 48 60 60 60 69 Z"></path></svg>