<svg version="1.1" xmlns="http://www.w3.org/2000/svg" viewBox="0 0 100 100"><path stroke="#000000" stroke-width="0" stroke-linejoin="round" stroke-linecap="round" fill="#000000" d="M 69 69 C 69 71 69 75 69 77 C 69 81 69 81 67 79 C 66 78 64 76 63 75 C 61 73 61 70 61 68 C 61 66 61 63 62 60 C 63 57 63 57 64 58 C 65 59 67 61 68 63 C 69 65 69 67 69 69 Z M 71 69 C 71 67 71 65 72 63 C 73 61 75 59 76 58 C 77 57 77 57 78 60 C 79 63 79 66 79 68 C 79 70 79 73 77 75 C 76 76 74 78 73 79 C 71 81 71 81 71 77 C 71 75 71 71 71 69 Z M 49 69 C 49 71 49 75 49 77 C 49 81 49 81 47 79 C 46 78 44 76 43 75 C 41 73 41 70 41 68 C 41 66 41 63 42 60 C 43 57 43 57 44 58 C 45 59 47 61 48 63 C 49 65 49 67 49 69 Z M 51 69 C 51 67 51 65 52 63 C 53 61 55 59 56 58 C 57 57 57 57 58 60 C 59 63 59 66 59 68 C 59 70 59 73 57 75 C 56 76 54 78 53 79 C 51 81 51 81 51 77 C 51 75 51 71 51 69 Z M 29 69 C 29 71 29 75 29 77 C 29 81 29 81 27 79 C 26 78 24 76 23 75 C 21 73 21 70 21 68 C 21 66 21 63 22 60 C 23 57 23 57 24 58 C 25 59 27 61 28 63 C 29 65 29 67 29 69 Z M 31 69 C 31 67 31 65 32 63 C 33 61 35 59 36 58 C 37 57 37 57 38 60 C 39 63 39 66 39 68 C 39 70 39 73 37 75 C 36 76 34 78 33 79 C 31 81 31 81 31 77 C 31 75 31 71 31 69 Z M 69 50 C 69 52 69 56 69 58 C 69 62 69 62 67 60 C 66 59 64 57 63 56 C 61 54 61 51 61 49 C 61 47 61 44 62 41 C 63 38 63 38 64 39 C 65 40 67 42 68 44 C 69 46 69 48 69 50 Z M 71 50 C 71 48 71 46 72 44 C 73 42 75 40 76 39 C 77 38 77 38 78 41 C 79 44 79 47 79 49 C 79 51 79 54 77 56 C 76 57 74 59 73 60 C 71 62 71 62 71 58 C 71 56 71 52 71 50 Z M 49 50 C 49 52 49 56 49 58 C 49 62 49 62 47 60 C 46 59 44 57 43 56 C 41 54 41 51 41 49 C 41 47 41 44 42 41 C 43 38 43 38 44 39 C 45 40 47 42 48 44 C 49 46 49 48 49 50 Z M 51 50 C 51 48 51 46 52 44 C 53 42 55 40 56 39 C 57 38 57 38 58 41 C 59 44 59 47 59 49 C 59 51 59 54 57 56 C 56 57 54 59 53 60 C 51 62 51 62 51 58 C 51 56 51 52 51 50 Z M 29 50 C 29 52 29 56 29 58 C 29 62 29 62 27 60 C 26 59 24 57 23 56 C 21 54 21 51 21 49 C 21 47 21 44 22 41 C 23 38 23 38 24 39 C 25 40 27 42 28 44 C 29 46 29 48 29 50 Z M 31 50 C 31 48 31 46 32 44 C 33 42 35 40 36 39 C 37 38 37 38 38 41 C 39 44 39 47 39 49 C 39 51 39 54 37 56 C 36 57 34 59 33 60 C 31 62 31 62 31 58 C 31 56 31 52 31 50 Z M 69 31 C 69 33 69 37 69 39 C 69 43 69 43 67 41 C 66 40 64 38 63 37 C 61 35 61 32 61 30 C 61 28 61 25 62 22 C 63 19 63 19 64 20 C 65 21 67 23 68 25 C 69 27 69 29 69 31 Z M 71 31 C 71 29 71 27 72 25 C 73 23 75 21 76 20 C 77 19 77 19 78 22 C 79 25 79 28 79 30 C 79 32 79 35 77 37 C 76 38 74 40 73 41 C 71 43 71 43 71 39 C 71 37 71 33 71 31 Z M 49 31 C 49 33 49 37 49 39 C 49 43 49 43 47 41 C 46 40 44 38 43 37 C 41 35 41 32 41 30 C 41 28 41 25 42 22 C 43 19 43 19 44 20 C 45 21 47 23 48 25 C 49 27 49 29 49 31 Z M 51 31 C 51 29 51 27 52 25 C 53 23 55 21 56 20 C 57 19 57 19 58 22 C 59 25 59 28 59 30 C 59 32 59 35 57 37 C 56 38 54 40 53 41 C 51 43 51 43 51 39 C 51 37 51 33 51 31 Z M 29 31 C 29 33 29 37 29 39 C 29 43 29 43 27 41 C 26 40 24 38 23 37 C 21 35 21 32 21 30 C 21 28 21 25 22 22 C 23 19 23 19 24 20 C 25 21 27 23 28 25 C 29 27 29 29 29 31 Z M 31 31 C 31 29 31 27 32 25 C 33 23 35 21 36 20 C 37 19 37 19 38 22 C 39 25 39 28 39 30 C 39 32 39 35 37 37 C 36 38 34 40 33 41 C 31 43 31 43 31 39 C 31 37 31 33 31 31 Z"></path></svg>