<svg version="1.1" xmlns="http://www.w3.org/2000/svg" viewBox="0 0 100 100"><path stroke="#000000" stroke-width="0" stroke-linejoin="round" stroke-linecap="round" fill="#000000" d="M 30 62 C 30 49 30 34 30 27 C 30 25 31 24 33 24 C 40 24 60 24 67 24 C 69 24 70 25 70 27 C 70 34 70 49 70 62 C 70 63 71 64 72 64 C 73 64 75 64 77 64 C 79 64 80 65 80 67 C 80 69 80 72 80 74 C 80 76 79 77 77 77 C 59 77 41 77 23 77 C 21 77 20 76 20 74 C 20 72 20 69 20 67 C 20 65 21 64 23 64 C 25 64 27 64 28 64 C 29 64 30 63 30 62 Z"></path></svg>