<svg version="1.1" xmlns="http://www.w3.org/2000/svg" viewBox="0 0 100 100"><path stroke="#000000" stroke-width="0" stroke-linejoin="round" stroke-linecap="round" fill="#000000" d="M 75 53 C 75 50 75 30 75 27 C 75 26 74 25 73 25 C 58 25 42 25 27 25 C 26 25 25 26 25 27 C 25 35 25 45 25 53 C 25 54 26 55 27 55 C 42 55 58 55 73 55 C 74 55 75 54 75 53 Z M 75 61 C 75 59 74 60 73 60 C 58 60 42 60 26 60 C 23 60 20 57 20 54 C 20 45 20 35 20 26 C 20 23 23 20 26 20 C 42 20 58 20 74 20 C 77 20 80 23 80 26 C 80 30 80 80 80 88 C 80 91 75 91 75 88 C 75 80 75 70 75 61 Z"></path></svg>