<svg version="1.1" xmlns="http://www.w3.org/2000/svg" viewBox="0 0 100 100"><path stroke="#000000" stroke-width="0" stroke-linejoin="round" stroke-linecap="round" fill="#000000" d="M 63 35 C 67 38 70 44 70 50 C 70 56 67 62 63 65 C 68 74 70 77 70 78 C 70 80 70 80 68 79 C 67 78 66 76 60 67 C 57 69 54 70 50 70 C 46 70 43 69 40 67 C 34 76 33 78 32 79 C 30 80 30 80 30 78 C 30 77 32 74 37 65 C 33 62 30 56 30 50 C 30 44 33 38 37 35 C 38 34 37 33 35 30 C 35 30 32 32 35 30 C 32 32 32 32 30 29 C 28 26 28 26 31 24 C 31 24 34 22 34 22 C 37 20 37 20 39 23 C 41 26 41 26 38 28 C 38 28 38 28 40 31 C 41 32 41 32 44 31 C 47 30 49 30 50 30 C 51 30 53 30 56 31 C 59 32 59 32 60 31 C 62 28 62 28 62 28 C 59 26 59 26 61 23 C 63 20 63 20 66 22 C 66 22 69 24 69 24 C 72 26 72 26 70 29 C 68 32 68 32 65 30 C 65 30 65 30 63 33 C 63 33 62 34 63 35 Z M 34 54 C 35 53 38 50 39 49 C 39 49 40 48 39 47 C 38 46 37 47 37 47 C 36 48 33 51 32 52 C 32 52 31 53 32 54 C 33 55 34 54 34 54 Z M 43 66 C 44 65 44 65 45 64 C 46 63 47 62 46 61 C 45 60 44 61 43 62 C 42 63 42 63 41 64 C 41 64 40 65 41 66 C 42 67 43 66 43 66 Z M 56 39 C 57 38 58 37 59 36 C 59 36 60 35 59 34 C 58 33 57 34 57 34 C 56 35 55 36 54 37 C 54 37 53 38 54 39 C 55 40 56 39 56 39 Z M 44 47 C 43 48 35 56 34 57 C 34 57 33 58 34 59 C 35 60 36 59 36 59 C 37 58 46 49 46 49 C 46 49 47 48 46 47 C 45 46 44 47 44 47 Z M 64 41 C 63 42 55 50 54 51 C 54 51 53 52 54 53 C 55 54 56 53 56 53 C 57 52 65 44 66 43 C 66 43 67 42 66 41 C 65 40 64 41 64 41 Z M 63 53 C 64 52 67 49 68 48 C 68 48 69 47 68 46 C 67 45 66 46 66 46 C 65 47 62 50 61 51 C 61 51 60 52 61 53 C 62 54 63 53 63 53 Z M 56 46 C 57 45 62 40 63 39 C 63 39 64 38 63 37 C 62 36 61 37 61 37 C 60 38 55 43 54 44 C 54 44 53 45 54 46 C 55 47 56 46 56 46 Z M 39 63 C 40 62 45 57 46 56 C 46 56 47 55 46 54 C 45 53 44 54 44 54 C 43 55 38 60 37 61 C 37 61 36 62 37 63 C 38 64 39 63 39 63 Z M 64 59 C 63 59 56 59 55 59 C 55 59 54 59 54 60 C 54 61 55 61 55 61 C 56 61 63 61 64 61 C 64 61 65 61 65 60 C 65 59 64 59 64 59 Z M 39 35 C 39 35 38 35 38 36 C 38 37 39 37 39 37 C 40 37 44 37 45 37 C 45 37 46 37 46 36 C 46 35 45 35 45 35 C 44 35 40 35 39 35 Z M 55 63 C 55 63 54 63 54 64 C 54 65 55 65 55 65 C 56 65 60 65 61 65 C 61 65 62 65 62 64 C 62 63 61 63 61 63 C 60 63 56 63 55 63 Z M 36 39 C 36 39 35 39 35 40 C 35 41 36 41 36 41 C 37 41 44 41 45 41 C 45 41 46 41 46 40 C 46 39 45 39 45 39 C 44 39 37 39 36 39 Z M 34 43 C 34 43 33 43 33 44 C 33 45 34 45 34 45 C 35 45 44 45 45 45 C 45 45 46 45 46 44 C 46 43 45 43 45 43 C 44 43 35 43 34 43 Z M 55 55 C 55 55 54 55 54 56 C 54 57 55 57 55 57 C 56 57 65 57 66 57 C 66 57 67 57 67 56 C 67 55 66 55 66 55 C 65 55 56 55 55 55 Z M 49 32 C 49 32 49 31 48 31 C 47 31 47 32 47 32 C 47 33 47 67 47 68 C 47 68 47 69 48 69 C 49 69 49 68 49 68 C 49 67 49 33 49 32 Z M 51 32 C 51 33 51 67 51 68 C 51 68 51 69 52 69 C 53 69 53 68 53 68 C 53 67 53 33 53 32 C 53 32 53 31 52 31 C 51 31 51 32 51 32 Z"></path></svg>