<svg version="1.1" xmlns="http://www.w3.org/2000/svg" viewBox="0 0 100 100"><path stroke="#000000" stroke-width="0" stroke-linejoin="round" stroke-linecap="round" fill="#000000" d="M 50 25 C 45 25 40 25 34 25 C 35 31 40 37 42 33 C 43 31 45 25 48 30 C 51 35 44 37 44 39 C 44 41 44 45 42 43 C 39 40 37 48 40 47 C 44 45 43 49 41 50 C 40 51 40 51 41 51 C 44 51 46 48 48 51 C 50 54 50 54 49 56 C 48 58 48 60 49 62 C 49 64 50 65 46 69 C 43 70 44 63 43 62 C 41 60 40 60 39 58 C 38 56 38 54 39 53 C 40 52 36 50 34 47 C 31 42 29 52 29 46 C 29 42 31 39 31 37 C 31 35 29 33 27 30 C 26 28 29 27 28 25 C 26 25 25 26 25 28 C 25 40 25 60 25 72 C 25 74 26 75 28 75 C 30 75 35 75 37 75 C 41 75 32 74 41 72 C 45 71 50 70 53 70 C 56 70 57 72 64 72 C 72 72 67 75 72 75 C 74 75 75 74 75 72 C 75 68 75 64 75 62 C 72 64 72 59 72 58 C 72 57 73 55 75 60 C 75 58 75 57 75 52 C 74 53 74 55 72 54 C 70 53 69 52 70 51 C 71 50 69 49 68 50 C 69 52 69 53 69 54 C 69 56 69 58 69 60 C 69 63 68 64 67 66 C 66 68 62 67 62 65 C 62 62 62 59 60 58 C 58 59 55 59 55 56 C 54 54 55 50 56 50 C 58 50 56 45 60 47 C 62 48 66 46 67 48 C 67 48 68 47 69 46 C 70 45 69 44 68 43 C 67 42 63 46 64 43 C 66 39 62 44 58 45 C 55 46 56 41 59 39 C 60 37 56 31 59 33 C 65 37 65 32 64 33 C 62 35 62 31 64 31 C 66 31 69 35 71 35 C 72 35 73 35 72 34 C 64 26 75 32 75 28 C 75 26 74 25 72 25 C 60 25 56 25 53 25 C 54 26 54 26 54 27 C 54 28 53 28 53 29 C 53 31 51 30 51 29 C 51 27 50 27 50 25 Z M 73 45 C 74 44 74 43 74 42 C 74 41 73 43 72 44 C 71 45 72 46 73 45 Z M 20 26 C 20 23 23 20 26 20 C 40 20 60 20 74 20 C 77 20 80 23 80 26 C 80 40 80 60 80 74 C 80 77 77 80 74 80 C 60 80 40 80 26 80 C 23 80 20 77 20 74 C 20 60 20 40 20 26 Z"></path></svg>