<svg version="1.1" xmlns="http://www.w3.org/2000/svg" viewBox="0 0 100 100"><path stroke="#000000" stroke-width="0" stroke-linejoin="round" stroke-linecap="round" fill="#000000" d="M 36 63 C 37 62 37 61 36 60 C 35 59 32 56 29 53 C 26 50 26 50 30 49 C 34 48 34 48 38 47 C 42 46 45 46 48 43 C 51 40 51 37 52 33 C 53 29 53 29 54 25 C 55 21 55 21 58 24 C 64 30 70 36 76 42 C 79 45 79 45 75 46 C 71 47 71 47 67 48 C 63 49 60 49 57 52 C 54 55 54 58 53 62 C 52 66 52 66 51 70 C 50 74 50 74 47 71 C 44 68 41 65 40 64 C 39 63 38 63 37 64 C 33 68 30 71 26 75 C 24 77 22 79 21 79 C 21 78 23 76 25 74 C 29 70 32 67 36 63 Z"></path></svg>