<svg version="1.1" xmlns="http://www.w3.org/2000/svg" viewBox="0 0 100 100"><path stroke="#000000" stroke-width="0" stroke-linejoin="round" stroke-linecap="round" fill="#000000" d="M 30 40 C 30 30 30 24 30 22 C 30 21 31 20 32 20 C 45 20 55 20 68 20 C 69 20 70 21 70 22 C 70 24 70 30 70 40 C 70 50 70 70 70 77 C 70 79 69 80 67 80 C 64 80 60 80 57 80 C 55 80 54 79 54 77 C 54 50 53 42 52 41 C 51 40 49 40 48 41 C 47 42 46 50 46 77 C 46 79 45 80 43 80 C 40 80 36 80 33 80 C 31 80 30 79 30 77 C 30 70 30 50 30 40 Z"></path></svg>