<svg version="1.1" xmlns="http://www.w3.org/2000/svg" viewBox="0 0 100 100"><path stroke="#000000" stroke-width="0" stroke-linejoin="round" stroke-linecap="round" fill="#000000" d="M 63 31 C 63 35 66 38 70 38 C 74 38 77 35 77 31 C 77 27 74 24 70 24 C 66 24 63 27 63 31 Z M 65 50 C 65 53 67 55 70 55 C 73 55 75 53 75 50 C 75 47 73 45 70 45 C 67 45 65 47 65 50 Z M 80 33 C 80 33 81 33 81 33 C 81 31 81 29 81 27 C 81 24 82 23 83 23 C 84 23 85 24 85 27 C 85 33 85 39 85 45 C 85 48 84 49 83 49 C 82 49 81 48 81 45 C 81 43 81 41 81 39 C 81 39 80 39 80 39 C 80 50 80 70 80 75 C 80 78 78 80 75 80 C 58 80 42 80 25 80 C 22 80 20 78 20 75 C 20 72 20 68 20 65 C 20 62 22 60 25 60 C 37 60 48 60 58 60 C 60 60 60 60 60 58 C 60 50 60 44 57 40 C 53 34 38 34 33 38 C 30 41 30 43 30 46 C 30 47 29 48 28 48 C 27 48 27 49 27 52 C 27 54 27 54 26 57 C 25 54 25 54 25 52 C 25 49 25 48 24 48 C 23 48 22 47 22 46 C 22 39 22 28 22 25 C 22 22 24 20 27 20 C 42 20 58 20 75 20 C 77 20 80 23 80 25 C 80 26 80 30 80 33 Z"></path></svg>