<svg version="1.1" xmlns="http://www.w3.org/2000/svg" viewBox="0 0 100 100"><path stroke="#000000" stroke-width="0" stroke-linejoin="round" stroke-linecap="round" fill="#000000" d="M 65 64 C 65 67 67 69 70 69 C 73 69 75 67 75 64 C 75 61 73 59 70 59 C 67 59 65 61 65 64 Z M 65 36 C 65 39 67 41 70 41 C 73 41 75 39 75 36 C 75 33 73 31 70 31 C 67 31 65 33 65 36 Z M 70 54 C 80 57 80 61 80 64 C 80 70 76 74 70 74 C 64 74 60 70 60 64 C 60 59 65 57 60 55 C 55 53 55 52 50 54 C 45 56 40 58 35 60 C 30 62 24 62 22 61 C 20 60 20 60 25 58 C 31 56 39 53 47 50 C 39 47 31 44 25 42 C 20 40 20 40 22 39 C 24 38 30 38 35 40 C 40 42 45 44 50 46 C 55 48 55 47 60 45 C 65 43 60 41 60 36 C 60 30 64 26 70 26 C 76 26 80 30 80 36 C 80 39 80 43 70 46 C 65 48 65 48 60 50 C 65 52 65 52 70 54 Z"></path></svg>