<svg version="1.1" xmlns="http://www.w3.org/2000/svg" viewBox="0 0 100 100"><path stroke="#000000" stroke-width="0" stroke-linejoin="round" stroke-linecap="round" fill="#000000" d="M 62 28 C 59 26 59 26 61 23 C 63 20 63 20 66 22 C 66 22 69 24 69 24 C 72 26 72 26 70 29 C 68 32 68 32 65 30 C 63 33 63 33 61 36 C 59 39 57 42 52 50 C 60 63 70 78 70 79 C 70 80 70 80 69 80 C 68 80 59 66 50 53 C 41 66 32 80 31 80 C 30 80 30 80 30 79 C 30 78 40 63 48 50 C 43 42 41 39 39 36 C 39 36 37 33 35 30 C 32 32 32 32 30 29 C 28 26 28 26 31 24 C 31 24 34 22 34 22 C 37 20 37 20 39 23 C 41 26 41 26 38 28 C 40 31 42 34 42 34 C 44 37 46 40 50 46 C 54 40 56 37 58 34 C 60 31 60 31 62 28 Z"></path></svg>