<svg version="1.1" xmlns="http://www.w3.org/2000/svg" viewBox="0 0 100 100"><path stroke="#000000" stroke-width="0" stroke-linejoin="round" stroke-linecap="round" fill="#000000" d="M 22 24 C 24 28 28 36 30 40 C 31 42 33 45 35 45 C 37 45 39 42 40 40 C 42 36 46 28 48 24 C 50 20 50 20 52 24 C 54 28 58 36 60 40 C 61 42 63 45 65 45 C 67 45 69 42 70 40 C 72 36 76 28 78 24 C 80 20 80 20 80 24 C 80 40 80 70 80 77 C 80 79 79 80 77 80 C 58 80 42 80 23 80 C 21 80 20 79 20 77 C 20 70 20 40 20 24 C 20 20 20 20 22 24 Z"></path></svg>