<svg version="1.1" xmlns="http://www.w3.org/2000/svg" viewBox="0 0 100 100"><path stroke="#000000" stroke-width="0" stroke-linejoin="round" stroke-linecap="round" fill="#000000" d="M 40 61 C 42 62 48 62 54 63 C 60 64 62 67 62 73 C 62 73 62 75 62 76 C 62 79 59 80 54 80 C 42 80 39 79 36 79 C 33 79 30 80 23 80 C 18 80 17 79 17 76 C 17 65 17 58 17 53 C 17 51 18 50 20 50 C 23 50 30 50 33 50 C 35 50 36 51 36 53 C 36 57 38 60 40 61 Z M 61 31 C 63 32 69 32 75 33 C 81 34 83 37 83 43 C 83 43 83 45 83 46 C 83 49 80 50 75 50 C 63 50 60 49 57 49 C 54 49 51 50 44 50 C 39 50 38 49 38 46 C 38 35 38 28 38 23 C 38 21 39 20 41 20 C 44 20 51 20 54 20 C 56 20 57 21 57 23 C 57 27 59 30 61 31 Z"></path></svg>