<svg version="1.1" xmlns="http://www.w3.org/2000/svg" viewBox="0 0 100 100"><path stroke="#000000" stroke-width="0" stroke-linejoin="round" stroke-linecap="round" fill="#000000" d="M 49 61 C 49 60 49 60 48 60 C 45 60 40 60 37 60 C 33 60 33 60 35 57 C 37 54 37 54 39 51 C 41 48 43 45 43 40 C 43 35 41 32 39 29 C 37 26 37 26 35 23 C 33 20 33 20 37 20 C 45 20 55 20 63 20 C 67 20 67 20 65 23 C 63 26 63 26 61 29 C 59 32 57 35 57 40 C 57 45 59 48 61 51 C 63 54 63 54 65 57 C 67 60 67 60 63 60 C 60 60 55 60 52 60 C 51 60 51 60 51 61 C 51 66 51 72 51 78 C 51 81 51 84 50 85 C 49 84 49 81 49 78 C 49 72 49 66 49 61 Z"></path></svg>