<svg version="1.1" xmlns="http://www.w3.org/2000/svg" viewBox="0 0 100 100"><path stroke="#000000" stroke-width="0" stroke-linejoin="round" stroke-linecap="round" fill="#000000" d="M 43 54 C 43 54 43 54 46 49 C 49 44 49 44 52 49 C 52 49 55 54 55 54 C 58 59 58 59 59.5 56.5 C 61 54 61 54 64 59 C 64 59 67 64 67 64 C 70 69 70 70 73 70 C 74 70 75 69 75 68 C 75 55 75 45 75 32 C 75 31 74 30 73 30 C 58 30 42 30 27 30 C 26 30 25 31 25 32 C 25 44 25 53 25 64 C 28 59 28 59 31 54 C 34 49 34 49 37 54 C 40 59 40 59 43 54 Z M 59 40 C 59 37 62 34 65 34 C 68 34 71 37 71 40 C 71 43 68 46 65 46 C 62 46 59 43 59 40 Z M 20 69 C 20 55 20 45 20 31 C 20 28 23 25 26 25 C 42 25 58 25 74 25 C 77 25 80 28 80 31 C 80 45 80 55 80 69 C 80 72 77 75 74 75 C 58 75 42 75 26 75 C 23 75 20 72 20 69 Z"></path></svg>