<svg version="1.1" xmlns="http://www.w3.org/2000/svg" viewBox="0 0 100 100"><path stroke="#000000" stroke-width="0" stroke-linejoin="round" stroke-linecap="round" fill="#000000" d="M 56 58 C 56 61 58 63 61 63 C 64 63 66 61 66 58 C 66 55 64 53 61 53 C 58 53 56 55 56 58 Z M 27 54 C 27 57 29 59 32 59 C 35 59 37 57 37 54 C 37 51 35 49 32 49 C 29 49 27 51 27 54 Z M 29 40 C 29 43 31 45 34 45 C 37 45 39 43 39 40 C 39 37 37 35 34 35 C 31 35 29 37 29 40 Z M 41 60 C 41 63 43 65 46 65 C 49 65 51 63 51 60 C 51 57 49 55 46 55 C 43 55 41 57 41 60 Z M 65 40 C 65 43 67 45 70 45 C 73 45 75 43 75 40 C 75 37 73 35 70 35 C 67 35 65 37 65 40 Z M 20 50 C 20 36 25 30 37 30 C 46 30 50 35 54 35 C 58 35 60 30 68 30 C 78 30 80 38 80 45 C 80 63 65 70 50 70 C 35 70 20 64 20 50 Z"></path></svg>