<svg version="1.1" xmlns="http://www.w3.org/2000/svg" viewBox="0 0 100 100"><path stroke="#000000" stroke-width="0" stroke-linejoin="round" stroke-linecap="round" fill="#000000" d="M 74 55 C 77 58 80 61 83 64 C 86 67 86 76 80 78 C 74 80 69 80 64 75 C 59 70 59 70 54 65 C 49 60 49 55 49 50 C 49 40 49 30 49 23 C 49 21 50 20 52 20 C 57 20 61 20 66 20 C 68 20 69 21 69 23 C 69 30 69 30 69 44 C 69 50 69 50 74 55 Z M 40 55 C 43 58 46 61 49 64 C 52 67 52 76 46 78 C 40 80 35 80 30 75 C 25 70 25 70 20 65 C 15 60 15 55 15 50 C 15 40 15 30 15 23 C 15 21 16 20 18 20 C 23 20 27 20 32 20 C 34 20 35 21 35 23 C 35 30 35 30 35 44 C 35 50 35 50 40 55 Z"></path></svg>