<svg version="1.1" xmlns="http://www.w3.org/2000/svg" viewBox="0 0 100 100"><path stroke="#000000" stroke-width="0" stroke-linejoin="round" stroke-linecap="round" fill="#000000" d="M 38 36 C 34 37 34 39 38 38 C 46 36 54 34 62 32 C 66 31 66 29 62 30 C 54 32 46 34 38 36 Z M 38 44 C 34 45 34 47 38 46 C 46 44 54 42 62 40 C 66 39 66 37 62 38 C 54 40 46 42 38 44 Z M 38 52 C 34 53 34 55 38 54 C 46 52 54 50 62 48 C 66 47 66 45 62 46 C 54 48 46 50 38 52 Z M 38 60 C 34 61 34 63 38 62 C 46 60 54 58 62 56 C 66 55 66 53 62 54 C 54 56 46 58 38 60 Z M 38 68 C 34 69 34 71 38 70 C 46 68 54 66 62 64 C 66 63 66 61 62 62 C 54 64 46 66 38 68 Z M 74 80 C 59 80 41 80 26 80 C 21 80 20 79 20 77 C 20 74 27 74 30 72 C 33 70 33 60 33 50 C 33 40 33 30 30 28 C 27 26 20 26 20 23 C 20 21 21 20 26 20 C 41 20 59 20 74 20 C 79 20 80 21 80 23 C 80 26 73 26 70 28 C 67 30 67 40 67 50 C 67 60 67 70 70 72 C 73 74 80 74 80 77 C 80 79 79 80 74 80 Z"></path></svg>