<svg version="1.1" xmlns="http://www.w3.org/2000/svg" viewBox="0 0 100 100"><path stroke="#000000" stroke-width="0" stroke-linejoin="round" stroke-linecap="round" fill="#000000" d="M 25 53 C 25 54 25 55 27 54 C 31 52 35 50 40 50 C 46 50 56 60 60 60 C 65 60 69 58 73 56 C 75 55 75 54 75 52 C 75 45 75 35 75 27 C 75 26 74 25 73 25 C 71 25 66 30 60 30 C 54 30 44 20 40 20 C 35 20 31 22 27 24 C 25 25 25 26 25 28 C 25 30 25 50 25 53 Z M 25 63 C 25 70 25 80 25 88 C 25 91 20 91 20 88 C 20 80 20 30 20 25 C 20 22 22 21 26 19 C 30 17 34 15 40 15 C 46 15 56 25 60 25 C 64 25 69 20 74 20 C 77 20 80 23 80 26 C 80 35 80 45 80 55 C 80 58 78 59 74 61 C 70 63 66 65 60 65 C 54 65 44 56 40 56 C 35 56 31 58 27 60 C 25 61 25 62 25 63 Z"></path></svg>