<svg version="1.1" xmlns="http://www.w3.org/2000/svg" viewBox="0 0 100 100"><path stroke="#000000" stroke-width="0" stroke-linejoin="round" stroke-linecap="round" fill="#000000" d="M 20 80 C 20 79 20 79 22 78 C 24 77 26 77 26 77 C 26 77 28 77 30 78 C 32 79 33 79 34 79 C 35 79 36 79 38 78 C 40 77 40 78 40 78 C 40 79 40 79 38 80 C 36 81 34 81 34 81 C 34 81 32 81 30 80 C 28 79 27 79 26 79 C 25 79 24 79 22 80 C 20 81 20 80 20 80 Z M 51 68 C 50 70 51 70 52 69 C 55 64 67 43 70 38 C 71 36 70 36 69 37 C 66 42 54 63 51 68 Z M 44 64 C 43 66 44 66 45 65 C 48 60 61 39 64 34 C 65 32 64 32 63 33 C 60 38 47 59 44 64 Z M 60 33 C 63 28 63 28 66 30 C 69 32 69 32 73 34 C 75 35 75 35 73 39 C 70 44 57 67 54 72 C 53 74 53 74 46 77 C 40 79 40 79 40 72 C 40 66 40 66 41 64 C 44 59 57 38 60 33 Z M 74 32 C 70 30 70 30 67 28 C 64 26 64 26 67 21 C 70 16 82 23 79 28 C 76 33 76 33 74 32 Z"></path></svg>