<svg version="1.1" xmlns="http://www.w3.org/2000/svg" viewBox="0 0 100 100"><path stroke="#000000" stroke-width="0" stroke-linejoin="round" stroke-linecap="round" fill="#000000" d="M 63 64 C 62 63 61 63 60 64 C 59 65 56 68 53 71 C 50 74 50 74 49 70 C 48 66 48 66 47 62 C 46 58 46 55 43 52 C 40 49 37 49 33 48 C 29 47 29 47 25 46 C 21 45 21 45 24 42 C 30 36 36 30 42 24 C 45 21 45 21 46 25 C 47 29 47 29 48 33 C 49 37 49 40 52 43 C 55 46 58 46 62 47 C 66 48 66 48 70 49 C 74 50 74 50 71 53 C 68 56 65 59 64 60 C 63 61 63 62 64 63 C 68 67 71 70 75 74 C 77 76 79 78 79 79 C 78 79 76 77 74 75 C 70 71 67 68 63 64 Z"></path></svg>