<svg version="1.1" xmlns="http://www.w3.org/2000/svg" viewBox="0 0 100 100"><path stroke="#000000" stroke-width="0" stroke-linejoin="round" stroke-linecap="round" fill="#000000" d="M 80 50 C 80 66 66 80 50 80 C 34 80 20 66 20 50 C 20 34 34 20 50 20 C 66 20 80 34 80 50 Z M 30 37 C 29 36 28 35 27 35 C 26 35 25 36 25 37 C 25 38 26 39 27 40 C 28 41 38 51 39 52 C 40 53 41 54 42 54 C 43 54 44 53 44 52 C 44 51 43 50 42 49 C 41 48 31 38 30 37 Z M 61 48 C 60 47 59 46 58 46 C 57 46 56 47 56 48 C 56 49 57 50 58 51 C 59 52 69 62 70 63 C 71 64 72 65 73 65 C 74 65 75 64 75 63 C 75 62 74 61 73 60 C 72 59 62 49 61 48 Z M 39 32 C 40 33 41 34 42 34 C 43 34 44 33 44 32 C 44 31 43 30 42 29 C 41 28 41 28 40 27 C 39 26 38 25 37 25 C 36 25 35 26 35 27 C 35 28 36 29 37 30 C 38 31 38 31 39 32 Z M 60 73 C 61 74 62 75 63 75 C 64 75 65 74 65 73 C 65 72 64 71 63 70 C 62 69 62 69 61 68 C 60 67 59 66 58 66 C 57 66 56 67 56 68 C 56 69 57 70 58 71 C 59 72 59 72 60 73 Z M 73 56 C 74 57 75 58 76 58 C 77 58 78 57 78 56 C 78 55 77 54 76 53 C 75 52 70 47 69 46 C 68 45 67 44 66 44 C 65 44 64 45 64 46 C 64 47 65 48 66 49 C 67 50 72 55 73 56 Z M 31 54 C 32 55 33 56 34 56 C 35 56 36 55 36 54 C 36 53 35 52 34 51 C 33 50 28 45 27 44 C 26 43 25 42 24 42 C 23 42 22 43 22 44 C 22 45 23 46 24 47 C 25 48 30 53 31 54 Z M 39 42 C 40 43 41 44 42 44 C 43 44 44 43 44 42 C 44 41 43 40 42 39 C 41 38 36 33 35 32 C 34 31 33 30 32 30 C 31 30 30 31 30 32 C 30 33 31 34 32 35 C 33 36 38 41 39 42 Z M 65 68 C 66 69 67 70 68 70 C 69 70 70 69 70 68 C 70 67 69 66 68 65 C 67 64 62 59 61 58 C 60 57 59 56 58 56 C 57 56 56 57 56 58 C 56 59 57 60 58 61 C 59 62 64 67 65 68 Z M 45 24 C 45 25 45 75 45 76 C 45 77 46 78 47 78 C 48 78 49 77 49 76 C 49 75 49 25 49 24 C 49 23 48 22 47 22 C 46 22 45 23 45 24 Z M 66 27 C 65 27 59 27 58 27 C 57 27 56 28 56 29 C 56 30 57 31 58 31 C 59 31 65 31 66 31 C 67 31 68 30 68 29 C 68 28 67 27 66 27 Z M 42 69 C 41 69 35 69 34 69 C 33 69 32 70 32 71 C 32 72 33 73 34 73 C 35 73 41 73 42 73 C 43 73 44 72 44 71 C 44 70 43 69 42 69 Z M 70 33 C 69 33 59 33 58 33 C 57 33 56 34 56 35 C 56 36 57 37 58 37 C 59 37 69 37 70 37 C 71 37 72 36 72 35 C 72 34 71 33 70 33 Z M 42 63 C 41 63 31 63 30 63 C 29 63 28 64 28 65 C 28 66 29 67 30 67 C 31 67 41 67 42 67 C 43 67 44 66 44 65 C 44 64 43 63 42 63 Z M 74 39 C 73 39 59 39 58 39 C 57 39 56 40 56 41 C 56 42 57 43 58 43 C 59 43 73 43 74 43 C 75 43 76 42 76 41 C 76 40 75 39 74 39 Z M 42 57 C 41 57 27 57 26 57 C 25 57 24 58 24 59 C 24 60 25 61 26 61 C 27 61 41 61 42 61 C 43 61 44 60 44 59 C 44 58 43 57 42 57 Z M 51 24 C 51 25 51 75 51 76 C 51 77 52 78 53 78 C 54 78 55 77 55 76 C 55 75 55 25 55 24 C 55 23 54 22 53 22 C 52 22 51 23 51 24 Z"></path></svg>