<svg version="1.1" xmlns="http://www.w3.org/2000/svg" viewBox="0 0 100 100"><path stroke="#000000" stroke-width="0" stroke-linejoin="round" stroke-linecap="round" fill="#000000" d="M 65 46 C 65 39 65 33 65 27 C 65 26 64 25 63 25 C 55 25 45 25 37 25 C 36 25 35 26 35 27 C 35 33 35 39 35 46 C 36 46 38 46 39 46 C 40 41 44 37 50 37 C 56 37 60 41 61 46 C 62 46 64 46 65 46 Z M 35 54 C 35 54 35 54 35 54 C 35 58 35 63 35 68 C 37 65 41 64 43 62 C 44 61 44 61 43 60 C 41 59 40 57 39 54 C 38 54 36 54 35 54 Z M 61 54 C 64 54 62 54 61 54 C 60 57 59 59 57 60 C 56 61 56 61 57 62 C 59 64 63 65 65 68 C 65 63 65 58 65 54 Z M 36 20 C 45 20 55 20 64 20 C 67 20 70 23 70 26 C 70 42 70 58 70 74 C 70 77 67 80 64 80 C 55 80 45 80 36 80 C 33 80 30 77 30 74 C 30 58 30 42 30 26 C 30 23 33 20 36 20 Z"></path></svg>