<svg version="1.1" xmlns="http://www.w3.org/2000/svg" viewBox="0 0 100 100"><path stroke="#000000" stroke-width="0" stroke-linejoin="round" stroke-linecap="round" fill="#000000" d="M 49 73 C 49 75 49 77 49 80 C 49 82 50 84 50 89 C 50 90 49 90 49 89 C 49 88 49 88 49 87 C 49 84 48 82 48 80 C 48 77 48 75 48 73 C 47 73 48 71 48 71 C 46 71 44 68 41 64 C 38 59 38 59 35 54 C 32 49 30 45 30 40 C 30 29 39 20 50 20 C 61 20 70 29 70 40 C 70 45 68 49 65 54 C 62 59 62 59 59 64 C 56 68 54 71 52 71 C 52 71 53 73 52 73 C 51 73 50 73 49 73 Z"></path></svg>