<svg version="1.1" xmlns="http://www.w3.org/2000/svg" viewBox="0 0 100 100"><path stroke="#000000" stroke-width="0" stroke-linejoin="round" stroke-linecap="round" fill="#000000" d="M 45 55 C 45 50 45 40 45 35 C 45 32 43 30 40 30 C 37 30 35 28 35 25 C 35 22 37 20 40 20 C 45 20 55 20 60 20 C 63 20 65 22 65 25 C 65 28 63 30 60 30 C 57 30 55 32 55 35 C 55 40 55 50 55 55 C 55 58 57 60 60 60 C 65 60 70 60 75 60 C 78 60 80 62 80 65 C 80 68 80 72 80 75 C 80 78 78 80 75 80 C 58 80 42 80 25 80 C 22 80 20 78 20 75 C 20 72 20 68 20 65 C 20 62 22 60 25 60 C 30 60 35 60 40 60 C 43 60 45 58 45 55 Z"></path></svg>