<svg version="1.1" xmlns="http://www.w3.org/2000/svg" viewBox="0 0 100 100"><path stroke="#000000" stroke-width="0" stroke-linejoin="round" stroke-linecap="round" fill="#000000" d="M 36 45 C 33 48 28 53 25 56 C 23 58 23 59 25 61 C 29 65 36 72 40 76 C 41 76 44 76 45 76 C 46 75 52 69 57 64 C 58 63 58 62 57 61 C 50 54 46 50 41 45 C 39 43 38 43 36 45 Z M 36 76 C 34 74 27 67 23 63 C 20 60 20 57 23 54 C 34 43 44 33 53 24 C 55 22 57 22 59 24 C 63 28 69 34 76 41 C 79 44 79 46 76 49 C 67 58 57 68 49 76 C 58 76 69 76 78 76 C 81 76 81 80 78 80 C 60 80 40 80 22 80 C 19 80 19 76 22 76 C 26 76 31 76 36 76 Z"></path></svg>