<svg version="1.1" xmlns="http://www.w3.org/2000/svg" viewBox="0 0 100 100"><path stroke="#000000" stroke-width="0" stroke-linejoin="round" stroke-linecap="round" fill="#000000" d="M 44 77 C 44 79 45 80 47 80 C 50 80 54 80 57 80 C 59 80 60 79 60 77 C 60 75 59 74 57 74 C 54 74 50 74 47 74 C 45 74 44 75 44 77 Z M 24 77 C 24 79 25 80 27 80 C 29 80 30 79 30 77 C 30 75 29 74 28 74 C 29 69 30 66 32 62 C 34 58 35 56 37 54 C 39 52 44 48 46 44 C 48 40 49 36 47 32 C 49 30 50 29 52 26 C 55 21 50 17 47 22 C 46 24 45 26 44 29 C 39 26 35 30 33 36 C 32 39 34 39 35 37 C 37 33 39 28 43 31 C 43 32 40 36 38 39 C 36 42 13 78 13 80 C 15 80 38 44 40 41 C 42 38 42 38 45 34 C 46 33 46 39 44 43 C 41 47 38 49 36 51 C 34 53 32 56 30 60 C 28 64 27 68 26 74 C 25 74 24 75 24 77 Z M 48 24 C 49 22 50 21 51 22 C 51 22 52 23 50 26 C 46 31 46 31 45 30 C 46 27 47 26 48 24 Z M 74 77 C 74 75 75 74 77 74 C 80 74 84 74 87 74 C 89 74 90 75 90 77 C 90 79 89 80 87 80 C 84 80 80 80 77 80 C 75 80 74 79 74 77 Z"></path></svg>