<svg version="1.1" xmlns="http://www.w3.org/2000/svg" viewBox="0 0 100 100"><path stroke="#000000" stroke-width="0" stroke-linejoin="round" stroke-linecap="round" fill="#000000" d="M 52 33 C 52 30 52 26 52 23 C 52 21 53 20 55 20 C 57 20 58 21 58 23 C 58 26 58 30 58 33 C 60 35 75 50 77 52 C 79 54 79 58 77 60 C 75 62 61 76 59 78 C 57 80 53 80 51 78 C 49 76 34 61 30 57 C 29 56 29 56 30 55 C 34 51 50 35 52 33 Z M 23 72 C 24 70 25 68 26 66 C 27 64 27 64 28 66 C 29 68 30 70 31 72 C 31 72 32 74 32 75 C 32 78 30 80 27 80 C 24 80 22 78 22 75 C 22 74 23 72 23 72 Z"></path></svg>