<svg version="1.1" xmlns="http://www.w3.org/2000/svg" viewBox="0 0 100 100"><path stroke="#000000" stroke-width="0" stroke-linejoin="round" stroke-linecap="round" fill="#000000" d="M 63 36 C 65 40 69 42 76 43 C 83 44 85 47 85 52 C 85 53 85 54 85 55 C 85 59 82 60 77 60 C 67 60 61 59 59 59 C 57 59 53 60 46 60 C 42 60 40 58 40 55 C 40 35 40 28 40 18 C 40 16 41 15 43 15 C 46 15 49 15 56 15 C 58 15 59 16 59 18 C 59 26 61 32 63 36 Z M 38 61 C 40 65 44 67 51 68 C 58 69 60 72 60 77 C 60 78 60 79 60 80 C 60 84 57 85 52 85 C 42 85 36 84 34 84 C 32 84 28 85 21 85 C 17 85 15 83 15 80 C 15 60 15 53 15 43 C 15 41 16 40 18 40 C 21 40 24 40 31 40 C 33 40 34 41 34 43 C 34 51 36 57 38 61 Z"></path></svg>