<svg version="1.1" xmlns="http://www.w3.org/2000/svg" viewBox="0 0 100 100"><path stroke="#000000" stroke-width="0" stroke-linejoin="round" stroke-linecap="round" fill="#000000" d="M 38 78 C 34 79 34 81 38 80 C 46 78 54 76 62 74 C 66 73 66 71 62 72 C 54 74 46 76 38 78 Z M 39.516 71.594 C 39.504 71.606 39.491 71.618 39.479 71.63 C 39.484 71.629 39.49 71.627 39.495 71.626 C 47 69.75 54.499 67.875 62 66 C 66 65 66 63 62 64 C 55.172 65.707 48.346 67.413 41.519 69.12 C 41.453 69.174 41.465 69.158 41.479 69.139 C 40.132 70.801 39.324 71.762 39.516 71.594 Z M 39.676 69.581 C 39.67 69.582 39.665 69.584 39.66 69.585 C 39.105 69.723 38.553 69.862 38 70 C 34 71 34 73 38 72 C 38.138 71.965 38.276 71.931 38.412 71.897 C 38.418 71.921 38.418 71.92 38.434 71.858 C 38.425 71.846 38.488 71.685 39.654 69.636 C 39.655 69.634 39.655 69.632 39.676 69.575 C 39.676 69.577 39.676 69.579 39.676 69.581 Z M 46.734 61.805 C 46.709 61.815 46.683 61.826 46.658 61.836 C 46.673 61.832 46.687 61.829 46.701 61.825 C 51.803 60.549 56.901 59.274 62 58 C 66 57 66 55 62 56 C 57.487 57.128 52.973 58.257 48.461 59.385 C 48.443 59.39 48.425 59.394 48.408 59.398 C 48.436 59.36 48.435 59.36 48.435 59.361 C 47.445 60.784 46.525 62.096 46.734 61.805 Z M 45.4 60.15 C 45.385 60.154 45.371 60.157 45.357 60.161 C 42.903 60.774 40.452 61.387 38 62 C 34 63 34 65 38 64 C 39.949 63.513 41.897 63.025 43.845 62.539 C 43.915 62.509 43.917 62.505 43.892 62.546 C 44.099 62.19 44.323 61.812 45.332 60.215 C 45.336 60.208 45.34 60.201 45.363 60.164 C 45.375 60.159 45.388 60.155 45.4 60.15 Z M 53.334 52.145 C 53.308 52.159 53.281 52.172 53.255 52.186 C 53.279 52.181 53.302 52.175 53.325 52.169 C 56.218 51.446 59.109 50.723 62 50 C 66 49 66 47 62 48 C 59.644 48.589 57.288 49.178 54.934 49.766 C 54.925 49.768 54.915 49.771 54.907 49.773 C 54.945 49.742 54.94 49.748 54.936 49.755 C 54.245 50.791 53.534 51.852 53.334 52.145 Z M 51.318 50.671 C 46.875 51.782 42.438 52.89 38 54 C 34 55 34 57 38 56 C 41.922 55.02 45.842 54.04 49.763 53.06 C 49.801 53.084 49.809 53.072 49.824 53.047 C 50.2 52.446 50.617 51.784 51.323 50.682 C 51.321 50.678 51.32 50.675 51.318 50.671 Z M 59.707 42.572 C 59.691 42.576 59.674 42.581 59.658 42.585 C 60.44 42.39 61.219 42.195 62 42 C 66 41 66 39 62 40 C 61.77 40.058 61.54 40.115 61.31 40.172 C 61.308 40.143 61.299 40.157 61.29 40.17 C 60.932 40.716 60.515 41.35 59.707 42.572 Z M 57.43 41.143 C 50.952 42.762 44.476 44.381 38 46 C 34 47 34 49 38 48 C 43.958 46.51 49.917 45.021 55.875 43.531 C 55.875 43.551 55.885 43.534 55.896 43.517 C 56.485 42.599 57.058 41.707 57.41 41.161 C 57.417 41.155 57.423 41.149 57.43 41.143 Z M 67 29 C 67 29 69 28 74 21 C 76 18 78 15 77 14 C 76 13 74 16 72 19 C 67 27 67 29 67 29 Z M 64.629 29.991 C 66.188 27.565 69.125 20.813 73 15 C 77 9 81 13 77 19 C 73.863 23.705 70.112 27.795 68.355 29.963 C 68.285 30 68.3 30 68.309 30 C 70.403 30 72.222 30 74 30 C 79 30 80 31 80 33 C 80 36 73 36 70 38 C 67 40 67 50 67 60 C 67 70 67 80 70 82 C 73 84 80 84 80 87 C 80 89 79 90 74 90 C 59 90 41 90 26 90 C 21 90 20 89 20 87 C 20 84 27 84 30 82 C 33 80 33 70 33 60 C 33 50 33 40 30 38 C 27 36 20 36 20 33 C 20 31 21 30 26 30 C 38.054 30 52.045 30 64.571 30 C 64.585 30 64.599 30 64.609 30 C 64.616 29.997 64.622 29.994 64.629 29.991 Z"></path></svg>