<svg version="1.1" xmlns="http://www.w3.org/2000/svg" viewBox="0 0 100 100"><path stroke="#000000" stroke-width="0" stroke-linejoin="round" stroke-linecap="round" fill="#000000" d="M 34 66 C 33 68 34 68 35 67 C 38 62 51 41 54 36 C 55 34 54 34 53 35 C 50 40 37 61 34 66 Z M 41 70 C 40 72 41 72 42 71 C 45 66 57 45 60 40 C 61 38 60 38 59 39 C 56 44 44 65 41 70 Z M 32 69 C 31 68.5 31 70 31 74 C 31 76 34 78 37 77 C 43 75 43 75 39 73 C 35 71 35 71 32 69 Z M 50 35 C 53 30 53 30 56 32 C 59 34 59 34 63 36 C 65 37 65 37 63 41 C 60 46 47 69 44 74 C 43 76 43 76 34 79 C 31 80 30 80 30 77 C 30 68 30 68 31 66 C 34 61 47 40 50 35 Z M 64 34 C 60 32 60 32 57 30 C 54 28 54 28 57 23 C 60 18 72 25 69 30 C 66 35 66 35 64 34 Z"></path></svg>