<svg version="1.1" xmlns="http://www.w3.org/2000/svg" viewBox="0 0 100 100"><path stroke="#000000" stroke-width="0" stroke-linejoin="round" stroke-linecap="round" fill="#000000" d="M 70 50 C 70 61 61 70 50 70 C 39 70 30 61 30 50 C 30 39 39 30 50 30 C 61 30 70 39 70 50 Z M 36 41 C 36 41 35 40 34 41 C 33 42 34 43 34 43 C 35 44 43 52 44 53 C 44 53 45 54 46 53 C 47 52 46 51 46 51 C 45 50 37 42 36 41 Z M 56 47 C 56 47 55 46 54 47 C 53 48 54 49 54 49 C 54 49 63 58 64 59 C 64 59 65 60 66 59 C 67 58 66 57 66 57 C 65 56 57 48 56 47 Z M 44 39 C 44 39 45 40 46 39 C 47 38 46 37 46 37 C 45 36 44 35 43 34 C 43 34 42 33 41 34 C 40 35 41 36 41 36 C 42 37 43 38 44 39 Z M 57 66 C 57 66 58 67 59 66 C 60 65 59 64 59 64 C 58 63 58 63 57 62 C 56 61 55 60 54 61 C 53 62 54 63 55 64 C 56 65 56 65 57 66 Z M 66 54 C 66 54 67 55 68 54 C 69 53 68 52 68 52 C 67 51 64 48 63 47 C 63 47 62 46 61 47 C 60 48 61 49 61 49 C 62 50 65 53 66 54 Z M 37 53 C 37 53 38 54 39 53 C 40 52 39 51 39 51 C 38 50 35 47 34 46 C 34 46 33 45 32 46 C 31 47 32 48 32 48 C 33 49 36 52 37 53 Z M 44 46 C 44 46 45 47 46 46 C 47 45 46 44 46 44 C 45 43 40 38 39 37 C 39 37 38 36 37 37 C 36 38 37 39 37 39 C 38 40 43 45 44 46 Z M 61 63 C 61 63 62 64 63 63 C 64 62 63 61 63 61 C 62 60 57 55 56 54 C 56 54 55 53 54 54 C 53 55 54 56 54 56 C 55 57 60 62 61 63 Z M 47 32 C 47 33 47 67 47 68 C 47 68 47 69 48 69 C 49 69 49 68 49 68 C 49 67 49 33 49 32 C 49 32 49 31 48 31 C 47 31 47 32 47 32 Z M 61 35 C 60 35 56 35 55 35 C 55 35 54 35 54 36 C 54 37 55 37 55 37 C 56 37 60 37 61 37 C 61 37 62 37 62 36 C 62 35 61 35 61 35 Z M 45 63 C 44 63 40 63 39 63 C 39 63 38 63 38 64 C 38 65 39 65 39 65 C 40 65 44 65 45 65 C 45 65 46 65 46 64 C 46 63 45 63 45 63 Z M 64 39 C 63 39 56 39 55 39 C 55 39 54 39 54 40 C 54 41 55 41 55 41 C 56 41 63 41 64 41 C 64 41 65 41 65 40 C 65 39 64 39 64 39 Z M 45 59 C 44 59 37 59 36 59 C 36 59 35 59 35 60 C 35 61 36 61 36 61 C 37 61 44 61 45 61 C 45 61 46 61 46 60 C 46 59 45 59 45 59 Z M 66 43 C 65 43 56 43 55 43 C 55 43 54 43 54 44 C 54 45 55 45 55 45 C 56 45 65 45 66 45 C 66 45 67 45 67 44 C 67 43 66 43 66 43 Z M 45 55 C 44 55 35 55 34 55 C 34 55 33 55 33 56 C 33 57 34 57 34 57 C 35 57 44 57 45 57 C 45 57 46 57 46 56 C 46 55 45 55 45 55 Z M 51 32 C 51 33 51 67 51 68 C 51 68 51 69 52 69 C 53 69 53 68 53 68 C 53 67 53 33 53 32 C 53 32 53 31 52 31 C 51 31 51 32 51 32 Z"></path></svg>