<svg version="1.1" xmlns="http://www.w3.org/2000/svg" viewBox="0 0 100 100"><path stroke="#000000" stroke-width="0" stroke-linejoin="round" stroke-linecap="round" fill="#000000" d="M 75 53 C 75 50 75 30 75 28 C 75 26 75 25 73 24 C 69 22 65 20 60 20 C 56 20 46 30 40 30 C 34 30 29 25 27 25 C 26 25 25 26 25 27 C 25 35 25 45 25 52 C 25 54 25 55 27 56 C 31 58 35 60 40 60 C 44 60 54 50 60 50 C 65 50 69 52 73 54 C 75 55 75 54 75 53 Z M 75 63 C 75 62 75 61 73 60 C 69 58 65 56 60 56 C 56 56 46 65 40 65 C 34 65 30 63 26 61 C 22 59 20 58 20 55 C 20 45 20 35 20 26 C 20 23 23 20 26 20 C 31 20 36 25 40 25 C 44 25 54 15 60 15 C 66 15 70 17 74 19 C 78 21 80 22 80 25 C 80 30 80 80 80 88 C 80 91 75 91 75 88 C 75 80 75 70 75 63 Z"></path></svg>