<svg version="1.1" xmlns="http://www.w3.org/2000/svg" viewBox="0 0 100 100"><path stroke="#000000" stroke-width="0" stroke-linejoin="round" stroke-linecap="round" fill="#000000" d="M 30 44 C 30 37 28 39 26 41 C 23 44 23 44 19 40 C 13 34 13 34 18 29 C 21 26 27 20 31 20 C 34 20 34 20 36 20 C 38 20 39 21 40 22 C 41 23 45 26 50 26 C 55 26 59 23 60 22 C 61 21 62 20 64 20 C 66 20 66 20 69 20 C 73 20 79 26 82 29 C 87 34 87 34 81 40 C 77 44 77 44 74 41 C 72 39 70 37 70 44 C 70 55 70 65 70 77 C 70 79 69 80 67 80 C 55 80 45 80 33 80 C 31 80 30 79 30 77 C 30 65 30 55 30 44 Z"></path></svg>