<svg version="1.1" xmlns="http://www.w3.org/2000/svg" viewBox="0 0 100 100"><path stroke="#000000" stroke-width="0" stroke-linejoin="round" stroke-linecap="round" fill="#000000" d="M 27 50 C 27 48 26 47 24 45 C 21 42 19 40 17 38 C 15 36 15 33 17 31 C 19 29 22 29 24 31 C 28 35 33 40 38 45 C 40 47 41 48 41 50 C 41 52 40 53 38 55 C 33 60 28 65 24 69 C 22 71 19 71 17 69 C 15 67 15 64 17 62 C 19 60 21 58 24 55 C 26 53 27 52 27 50 Z M 71 50 C 71 48 70 47 68 45 C 65 42 63 40 61 38 C 59 36 59 33 61 31 C 63 29 66 29 68 31 C 72 35 77 40 82 45 C 84 47 85 48 85 50 C 85 52 84 53 82 55 C 77 60 72 65 68 69 C 66 71 63 71 61 69 C 59 67 59 64 61 62 C 63 60 65 58 68 55 C 70 53 71 52 71 50 Z M 49 50 C 49 48 48 47 46 45 C 43 42 41 40 39 38 C 37 36 37 33 39 31 C 41 29 44 29 46 31 C 50 35 55 40 60 45 C 62 47 63 48 63 50 C 63 52 62 53 60 55 C 55 60 50 65 46 69 C 44 71 41 71 39 69 C 37 67 37 64 39 62 C 41 60 43 58 46 55 C 48 53 49 52 49 50 Z"></path></svg>