<svg version="1.1" xmlns="http://www.w3.org/2000/svg" viewBox="0 0 100 100"><path stroke="#000000" stroke-width="0" stroke-linejoin="round" stroke-linecap="round" fill="#000000" d="M 50 62 C 48 62 47 63 45 65 C 42 68 40 70 38 72 C 36 74 33 74 31 72 C 29 70 29 67 31 65 C 35 61 40 56 45 51 C 47 49 48 48 50 48 C 52 48 53 49 55 51 C 60 56 65 61 69 65 C 71 67 71 70 69 72 C 67 74 64 74 62 72 C 60 70 58 68 55 65 C 53 63 52 62 50 62 Z M 50 40 C 48 40 47 41 45 43 C 42 46 40 48 38 50 C 36 52 33 52 31 50 C 29 48 29 45 31 43 C 35 39 40 34 45 29 C 47 27 48 26 50 26 C 52 26 53 27 55 29 C 60 34 65 39 69 43 C 71 45 71 48 69 50 C 67 52 64 52 62 50 C 60 48 58 46 55 43 C 53 41 52 40 50 40 Z"></path></svg>