<svg version="1.1" xmlns="http://www.w3.org/2000/svg" viewBox="0 0 100 100"><path stroke="#000000" stroke-width="0" stroke-linejoin="round" stroke-linecap="round" fill="#000000" d="M 50 73 C 48 73 47 74 45 76 C 42 79 40 81 38 83 C 36 85 33 85 31 83 C 29 81 29 78 31 76 C 35 72 40 67 45 62 C 47 60 48 59 50 59 C 52 59 53 60 55 62 C 60 67 65 72 69 76 C 71 78 71 81 69 83 C 67 85 64 85 62 83 C 60 81 58 79 55 76 C 53 74 52 73 50 73 Z M 50 29 C 48 29 47 30 45 32 C 42 35 40 37 38 39 C 36 41 33 41 31 39 C 29 37 29 34 31 32 C 35 28 40 23 45 18 C 47 16 48 15 50 15 C 52 15 53 16 55 18 C 60 23 65 28 69 32 C 71 34 71 37 69 39 C 67 41 64 41 62 39 C 60 37 58 35 55 32 C 53 30 52 29 50 29 Z M 50 51 C 48 51 47 52 45 54 C 42 57 40 59 38 61 C 36 63 33 63 31 61 C 29 59 29 56 31 54 C 35 50 40 45 45 40 C 47 38 48 37 50 37 C 52 37 53 38 55 40 C 60 45 65 50 69 54 C 71 56 71 59 69 61 C 67 63 64 63 62 61 C 60 59 58 57 55 54 C 53 52 52 51 50 51 Z"></path></svg>