<svg version="1.1" xmlns="http://www.w3.org/2000/svg" viewBox="0 0 100 100"><path stroke="#000000" stroke-width="0" stroke-linejoin="round" stroke-linecap="round" fill="#000000" d="M 38 50 C 38 48 37 47 35 45 C 32 42 30 40 28 38 C 26 36 26 33 28 31 C 30 29 33 29 35 31 C 39 35 44 40 49 45 C 51 47 52 48 52 50 C 52 52 51 53 49 55 C 44 60 39 65 35 69 C 33 71 30 71 28 69 C 26 67 26 64 28 62 C 30 60 32 58 35 55 C 37 53 38 52 38 50 Z M 60 50 C 60 48 59 47 57 45 C 54 42 52 40 50 38 C 48 36 48 33 50 31 C 52 29 55 29 57 31 C 61 35 66 40 71 45 C 73 47 74 48 74 50 C 74 52 73 53 71 55 C 66 60 61 65 57 69 C 55 71 52 71 50 69 C 48 67 48 64 50 62 C 52 60 54 58 57 55 C 59 53 60 52 60 50 Z"></path></svg>