<svg version="1.1" xmlns="http://www.w3.org/2000/svg" viewBox="0 0 100 100"><path stroke="#000000" stroke-width="0" stroke-linejoin="round" stroke-linecap="round" fill="#000000" d="M 50 38 C 52 38 53 37 55 35 C 58 32 60 30 62 28 C 64 26 67 26 69 28 C 71 30 71 33 69 35 C 65 39 60 44 55 49 C 53 51 52 52 50 52 C 48 52 47 51 45 49 C 40 44 35 39 31 35 C 29 33 29 30 31 28 C 33 26 36 26 38 28 C 40 30 42 32 45 35 C 47 37 48 38 50 38 Z M 50 60 C 52 60 53 59 55 57 C 58 54 60 52 62 50 C 64 48 67 48 69 50 C 71 52 71 55 69 57 C 65 61 60 66 55 71 C 53 73 52 74 50 74 C 48 74 47 73 45 71 C 40 66 35 61 31 57 C 29 55 29 52 31 50 C 33 48 36 48 38 50 C 40 52 42 54 45 57 C 47 59 48 60 50 60 Z"></path></svg>