<svg version="1.1" xmlns="http://www.w3.org/2000/svg" viewBox="0 0 100 100"><path stroke="#000000" stroke-width="0" stroke-linejoin="round" stroke-linecap="round" fill="#000000" d="M 62 50 C 62 52 63 53 65 55 C 68 58 70 60 72 62 C 74 64 74 67 72 69 C 70 71 67 71 65 69 C 61 65 56 60 51 55 C 49 53 48 52 48 50 C 48 48 49 47 51 45 C 56 40 61 35 65 31 C 67 29 70 29 72 31 C 74 33 74 36 72 38 C 70 40 68 42 65 45 C 63 47 62 48 62 50 Z M 40 50 C 40 52 41 53 43 55 C 46 58 48 60 50 62 C 52 64 52 67 50 69 C 48 71 45 71 43 69 C 39 65 34 60 29 55 C 27 53 26 52 26 50 C 26 48 27 47 29 45 C 34 40 39 35 43 31 C 45 29 48 29 50 31 C 52 33 52 36 50 38 C 48 40 46 42 43 45 C 41 47 40 48 40 50 Z"></path></svg>