<svg version="1.1" xmlns="http://www.w3.org/2000/svg" viewBox="0 0 100 100"><path stroke="#000000" stroke-width="0" stroke-linejoin="round" stroke-linecap="round" fill="#000000" d="M 50 27 C 52 27 53 26 55 24 C 58 21 60 19 62 17 C 64 15 67 15 69 17 C 71 19 71 22 69 24 C 65 28 60 33 55 38 C 53 40 52 41 50 41 C 48 41 47 40 45 38 C 40 33 35 28 31 24 C 29 22 29 19 31 17 C 33 15 36 15 38 17 C 40 19 42 21 45 24 C 47 26 48 27 50 27 Z M 50 71 C 52 71 53 70 55 68 C 58 65 60 63 62 61 C 64 59 67 59 69 61 C 71 63 71 66 69 68 C 65 72 60 77 55 82 C 53 84 52 85 50 85 C 48 85 47 84 45 82 C 40 77 35 72 31 68 C 29 66 29 63 31 61 C 33 59 36 59 38 61 C 40 63 42 65 45 68 C 47 70 48 71 50 71 Z M 50 49 C 52 49 53 48 55 46 C 58 43 60 41 62 39 C 64 37 67 37 69 39 C 71 41 71 44 69 46 C 65 50 60 55 55 60 C 53 62 52 63 50 63 C 48 63 47 62 45 60 C 40 55 35 50 31 46 C 29 44 29 41 31 39 C 33 37 36 37 38 39 C 40 41 42 43 45 46 C 47 48 48 49 50 49 Z"></path></svg>