<svg version="1.1" xmlns="http://www.w3.org/2000/svg" viewBox="0 0 100 100"><path stroke="#000000" stroke-width="0" stroke-linejoin="round" stroke-linecap="round" fill="#000000" d="M 73 50 C 73 52 74 53 76 55 C 79 58 81 60 83 62 C 85 64 85 67 83 69 C 81 71 78 71 76 69 C 72 65 67 60 62 55 C 60 53 59 52 59 50 C 59 48 60 47 62 45 C 67 40 72 35 76 31 C 78 29 81 29 83 31 C 85 33 85 36 83 38 C 81 40 79 42 76 45 C 74 47 73 48 73 50 Z M 29 50 C 29 52 30 53 32 55 C 35 58 37 60 39 62 C 41 64 41 67 39 69 C 37 71 34 71 32 69 C 28 65 23 60 18 55 C 16 53 15 52 15 50 C 15 48 16 47 18 45 C 23 40 28 35 32 31 C 34 29 37 29 39 31 C 41 33 41 36 39 38 C 37 40 35 42 32 45 C 30 47 29 48 29 50 Z M 51 50 C 51 52 52 53 54 55 C 57 58 59 60 61 62 C 63 64 63 67 61 69 C 59 71 56 71 54 69 C 50 65 45 60 40 55 C 38 53 37 52 37 50 C 37 48 38 47 40 45 C 45 40 50 35 54 31 C 56 29 59 29 61 31 C 63 33 63 36 61 38 C 59 40 57 42 54 45 C 52 47 51 48 51 50 Z"></path></svg>