<svg version="1.1" xmlns="http://www.w3.org/2000/svg" viewBox="0 0 100 100"><path stroke="#000000" stroke-width="0" stroke-linejoin="round" stroke-linecap="round" fill="#000000" d="M 43 43 C 41 45 38 45 36 43 C 34 41 31 38 29 36 C 27 34 27 31 29 29 C 31 27 34 27 36 29 C 38 31 41 34 43 36 C 45 38 45 41 43 43 Z M 71 71 C 69 73 66 73 64 71 C 62 69 59 66 57 64 C 55 62 55 59 57 57 C 59 55 62 55 64 57 C 66 59 69 62 71 64 C 73 66 73 69 71 71 Z M 71 29 C 73 31 73 34 71 36 C 69 38 66 41 64 43 C 62 45 59 45 57 43 C 55 41 55 38 57 36 C 59 34 62 31 64 29 C 66 27 69 27 71 29 Z M 43 57 C 45 59 45 62 43 64 C 41 66 38 69 36 71 C 34 73 31 73 29 71 C 27 69 27 66 29 64 C 31 62 34 59 36 57 C 38 55 41 55 43 57 Z"></path></svg>