<svg version="1.1" xmlns="http://www.w3.org/2000/svg" viewBox="0 0 100 100"><path stroke="#000000" stroke-width="0" stroke-linejoin="round" stroke-linecap="round" fill="#000000" d="M 10 50 C 10 47 12 45 15 45 C 18 45 22 45 25 45 C 28 45 30 47 30 50 C 30 53 28 55 25 55 C 22 55 18 55 15 55 C 12 55 10 53 10 50 Z M 70 50 C 70 47 72 45 75 45 C 78 45 82 45 85 45 C 88 45 90 47 90 50 C 90 53 88 55 85 55 C 82 55 78 55 75 55 C 72 55 70 53 70 50 Z M 40 50 C 40 47 42 45 45 45 C 48 45 52 45 55 45 C 58 45 60 47 60 50 C 60 53 58 55 55 55 C 52 55 48 55 45 55 C 42 55 40 53 40 50 Z"></path></svg>