<svg version="1.1" xmlns="http://www.w3.org/2000/svg" viewBox="0 0 100 100"><path stroke="#000000" stroke-width="0" stroke-linejoin="round" stroke-linecap="round" fill="#000000" d="M 50 40 C 47 40 45 38 45 35 C 45 32 45 28 45 25 C 45 22 47 20 50 20 C 53 20 55 22 55 25 C 55 28 55 32 55 35 C 55 38 53 40 50 40 Z M 71 29 C 73 31 73 34 71 36 C 69 38 66 41 64 43 C 62 45 59 45 57 43 C 55 41 55 38 57 36 C 59 34 62 31 64 29 C 66 27 69 27 71 29 Z M 60 50 C 60 47 62 45 65 45 C 68 45 72 45 75 45 C 78 45 80 47 80 50 C 80 53 78 55 75 55 C 72 55 68 55 65 55 C 62 55 60 53 60 50 Z M 71 71 C 69 73 66 73 64 71 C 62 69 59 66 57 64 C 55 62 55 59 57 57 C 59 55 62 55 64 57 C 66 59 69 62 71 64 C 73 66 73 69 71 71 Z M 50 80 C 47 80 45 78 45 75 C 45 72 45 68 45 65 C 45 62 47 60 50 60 C 53 60 55 62 55 65 C 55 68 55 72 55 75 C 55 78 53 80 50 80 Z M 43 57 C 45 59 45 62 43 64 C 41 66 38 69 36 71 C 34 73 31 73 29 71 C 27 69 27 66 29 64 C 31 62 34 59 36 57 C 38 55 41 55 43 57 Z M 40 50 C 40 53 38 55 35 55 C 32 55 28 55 25 55 C 22 55 20 53 20 50 C 20 47 22 45 25 45 C 28 45 32 45 35 45 C 38 45 40 47 40 50 Z M 43 43 C 41 45 38 45 36 43 C 34 41 31 38 29 36 C 27 34 27 31 29 29 C 31 27 34 27 36 29 C 38 31 41 34 43 36 C 45 38 45 41 43 43 Z"></path></svg>