<svg version="1.1" xmlns="http://www.w3.org/2000/svg" viewBox="0 0 100 100"><path stroke="#000000" stroke-width="0" stroke-linejoin="round" stroke-linecap="round" fill="#000000" d="M 50 90 C 47 90 45 88 45 85 C 45 82 45 78 45 75 C 45 72 47 70 50 70 C 53 70 55 72 55 75 C 55 78 55 82 55 85 C 55 88 53 90 50 90 Z M 50 30 C 47 30 45 28 45 25 C 45 22 45 18 45 15 C 45 12 47 10 50 10 C 53 10 55 12 55 15 C 55 18 55 22 55 25 C 55 28 53 30 50 30 Z M 50 60 C 47 60 45 58 45 55 C 45 52 45 48 45 45 C 45 42 47 40 50 40 C 53 40 55 42 55 45 C 55 48 55 52 55 55 C 55 58 53 60 50 60 Z"></path></svg>