<svg version="1.1" xmlns="http://www.w3.org/2000/svg" viewBox="0 0 100 100"><path stroke="#000000" stroke-width="0" stroke-linejoin="round" stroke-linecap="round" fill="#000000" d="M 50 40 C 47 40 45 38 45 35 C 45 32 45 28 45 25 C 45 22 47 20 50 20 C 53 20 55 22 55 25 C 55 28 55 32 55 35 C 55 38 53 40 50 40 Z M 50 80 C 47 80 45 78 45 75 C 45 72 45 68 45 65 C 45 62 47 60 50 60 C 53 60 55 62 55 65 C 55 68 55 72 55 75 C 55 78 53 80 50 80 Z M 80 50 C 80 53 78 55 75 55 C 72 55 68 55 65 55 C 62 55 60 53 60 50 C 60 47 62 45 65 45 C 68 45 72 45 75 45 C 78 45 80 47 80 50 Z M 40 50 C 40 53 38 55 35 55 C 32 55 28 55 25 55 C 22 55 20 53 20 50 C 20 47 22 45 25 45 C 28 45 32 45 35 45 C 38 45 40 47 40 50 Z"></path></svg>