<svg version="1.1" xmlns="http://www.w3.org/2000/svg" viewBox="0 0 100 100"><path stroke="#000000" stroke-width="0" stroke-linejoin="round" stroke-linecap="round" fill="#000000" d="M 10 20 C 10 14.5 14.5 10 20 10 C 25.5 10 30 14.5 30 20 C 30 25.5 25.5 30 20 30 C 14.5 30 10 25.5 10 20 Z M 70 50 C 70 44.5 74.5 40 80 40 C 85.5 40 90 44.5 90 50 C 90 55.5 85.5 60 80 60 C 74.5 60 70 55.5 70 50 Z M 10 80 C 10 74.5 14.5 70 20 70 C 25.5 70 30 74.5 30 80 C 30 85.5 25.5 90 20 90 C 14.5 90 10 85.5 10 80 Z"></path></svg>