<svg version="1.1" xmlns="http://www.w3.org/2000/svg" viewBox="0 0 100 100"><path stroke="#000000" stroke-width="0" stroke-linejoin="round" stroke-linecap="round" fill="#000000" d="M 10 20 C 10 14.5 14.5 10 20 10 C 25.5 10 30 14.5 30 20 C 30 25.5 25.5 30 20 30 C 14.5 30 10 25.5 10 20 Z M 40 50 C 40 44.5 44.5 40 50 40 C 55.5 40 60 44.5 60 50 C 60 55.5 55.5 60 50 60 C 44.5 60 40 55.5 40 50 Z M 70 80 C 70 74.5 74.5 70 80 70 C 85.5 70 90 74.5 90 80 C 90 85.5 85.5 90 80 90 C 74.5 90 70 85.5 70 80 Z"></path></svg>