<svg version="1.1" xmlns="http://www.w3.org/2000/svg" viewBox="0 0 100 100"><path stroke="#000000" stroke-width="0" stroke-linejoin="round" stroke-linecap="round" fill="#000000" d="M 70 20 C 70 14.5 74.5 10 80 10 C 85.5 10 90 14.5 90 20 C 90 25.5 85.5 30 80 30 C 74.5 30 70 25.5 70 20 Z M 10 50 C 10 44.5 14.5 40 20 40 C 25.5 40 30 44.5 30 50 C 30 55.5 25.5 60 20 60 C 14.5 60 10 55.5 10 50 Z M 70 80 C 70 74.5 74.5 70 80 70 C 85.5 70 90 74.5 90 80 C 90 85.5 85.5 90 80 90 C 74.5 90 70 85.5 70 80 Z"></path></svg>