<svg version="1.1" xmlns="http://www.w3.org/2000/svg" viewBox="0 0 100 100"><path stroke="#000000" stroke-width="0" stroke-linejoin="round" stroke-linecap="round" fill="#000000" d="M 10 20 C 10 14.5 14.5 10 20 10 C 25.5 10 30 14.5 30 20 C 30 25.5 25.5 30 20 30 C 14.5 30 10 25.5 10 20 Z M 70 20 C 70 14.5 74.5 10 80 10 C 85.5 10 90 14.5 90 20 C 90 25.5 85.5 30 80 30 C 74.5 30 70 25.5 70 20 Z M 40 80 C 40 74.5 44.5 70 50 70 C 55.5 70 60 74.5 60 80 C 60 85.5 55.5 90 50 90 C 44.5 90 40 85.5 40 80 Z"></path></svg>