<svg version="1.1" xmlns="http://www.w3.org/2000/svg" viewBox="0 0 100 100"><path stroke="#000000" stroke-width="0" stroke-linejoin="round" stroke-linecap="round" fill="#000000" d="M 40 20 C 40 14.5 44.5 10 50 10 C 55.5 10 60 14.5 60 20 C 60 25.5 55.5 30 50 30 C 44.5 30 40 25.5 40 20 Z M 10 50 C 10 44.5 14.5 40 20 40 C 25.5 40 30 44.5 30 50 C 30 55.5 25.5 60 20 60 C 14.5 60 10 55.5 10 50 Z M 40 50 C 40 44.5 44.5 40 50 40 C 55.5 40 60 44.5 60 50 C 60 55.5 55.5 60 50 60 C 44.5 60 40 55.5 40 50 Z M 70 50 C 70 44.5 74.5 40 80 40 C 85.5 40 90 44.5 90 50 C 90 55.5 85.5 60 80 60 C 74.5 60 70 55.5 70 50 Z M 40 80 C 40 74.5 44.5 70 50 70 C 55.5 70 60 74.5 60 80 C 60 85.5 55.5 90 50 90 C 44.5 90 40 85.5 40 80 Z"></path></svg>