<svg version="1.1" xmlns="http://www.w3.org/2000/svg" viewBox="0 0 100 100"><path stroke="#000000" stroke-width="0" stroke-linejoin="round" stroke-linecap="round" fill="#000000" d="M 48 43 C 36 50 34 51 31 49 C 28 47 28 42 32 38 C 36 34 36 29 39 28 C 50 24 40 20 43 20 C 46 20 47 20 50 20 C 55 20 59 20 64 24 C 67 27 70 34 70 40 C 70 53 67 61 67 65 C 67 70 70 74 72 74 C 74 74 75 75 75 77 C 75 79 74 80 72 80 C 60 80 40 80 28 80 C 26 80 25 79 25 77 C 25 75 26 74 28 74 C 33 75 35 65 40 60 C 47 53 53 40 48 43 Z"></path></svg>