<svg version="1.1" xmlns="http://www.w3.org/2000/svg" viewBox="0 0 100 100"><path stroke="#000000" stroke-width="0" stroke-linejoin="round" stroke-linecap="round" fill="#000000" d="M 60 60 C 60 53 60 47 60 40 C 53 40 47 40 40 40 C 40 47 40 53 40 60 C 40 60 40 60 40 60 C 47 60 53 60 60 60 Z M 66 40 C 66 47 66 53 66 60 C 71 60 76 60 82 60 C 84 60 85 61 85 63 C 85 65 84 66 82 66 C 76 66 71 66 66 66 C 66 71 66 77 66 82 C 66 84 65 85 63 85 C 61 85 60 84 60 82 C 60 77 60 71 60 66 C 53 66 47 66 40 66 C 40 71 40 77 40 82 C 40 84 39 85 37 85 C 35 85 34 84 34 82 C 34 77 34 71 34 66 C 29 66 23 66 18 66 C 16 66 15 65 15 63 C 15 61 16 60 18 60 C 23 60 29 60 34 60 C 34 53 34 47 34 40 C 29 40 23 40 18 40 C 16 40 15 39 15 37 C 15 35 16 34 18 34 C 23 34 29 34 34 34 C 34 29 34 24 34 18 C 34 16 35 15 37 15 C 39 15 40 16 40 18 C 40 24 40 29 40 34 C 40 34 40 34 40 34 C 47 34 53 34 60 34 C 60 29 60 24 60 18 C 60 16 61 15 63 15 C 65 15 66 16 66 18 C 66 24 66 29 66 34 C 71 34 76 34 82 34 C 84 34 85 35 85 37 C 85 39 84 40 82 40 C 76 40 71 40 66 40 Z M 24 73 C 26 71 28 69 29 68 C 31 66 34 69 32 71 C 31 72 29 74 27 76 C 29 78 31 80 32 81 C 34 83 31 86 29 84 C 28 83 26 81 24 79 C 22 81 20 83 19 84 C 17 86 14 83 16 81 C 17 80 19 78 21 76 C 19 74 17 72 16 71 C 14 69 17 66 19 68 C 20 69 22 71 24 73 Z M 24 47 C 26 45 28 43 29 42 C 31 40 34 43 32 45 C 31 46 29 48 27 50 C 29 52 31 54 32 55 C 34 57 31 60 29 58 C 28 57 26 55 24 53 C 22 55 20 57 19 58 C 17 60 14 57 16 55 C 17 54 19 52 21 50 C 19 48 17 46 16 45 C 14 43 17 40 19 42 C 20 43 22 45 24 47 Z M 76 47 C 78 45 80 43 81 42 C 83 40 86 43 84 45 C 83 46 81 48 79 50 C 81 52 83 54 84 55 C 86 57 83 60 81 58 C 80 57 78 55 76 53 C 74 55 72 57 71 58 C 69 60 66 57 68 55 C 69 54 71 52 73 50 C 71 48 69 46 68 45 C 66 43 69 40 71 42 C 72 43 74 45 76 47 Z M 76 73 C 78 71 80 69 81 68 C 83 66 86 69 84 71 C 83 72 81 74 79 76 C 81 78 83 80 84 81 C 86 83 83 86 81 84 C 80 83 78 81 76 79 C 74 81 72 83 71 84 C 69 86 66 83 68 81 C 69 80 71 78 73 76 C 71 74 69 72 68 71 C 66 69 69 66 71 68 C 72 69 74 71 76 73 Z M 50 21 C 52 19 54 17 55 16 C 57 14 60 17 58 19 C 57 20 55 22 53 24 C 55 26 57 28 58 29 C 60 31 57 34 55 32 C 54 31 52 29 50 27 C 48 29 46 31 45 32 C 43 34 40 31 42 29 C 43 28 45 26 47 24 C 45 22 43 20 42 19 C 40 17 43 14 45 16 C 46 17 48 19 50 21 Z M 19 24 C 19 27 21 29 24 29 C 27 29 29 27 29 24 C 29 21 27 19 24 19 C 21 19 19 21 19 24 Z M 15 24 C 15 19 19 15 24 15 C 29 15 33 19 33 24 C 33 29 29 33 24 33 C 19 33 15 29 15 24 Z M 45 76 C 45 79 47 81 50 81 C 53 81 55 79 55 76 C 55 73 53 71 50 71 C 47 71 45 73 45 76 Z M 41 76 C 41 71 45 67 50 67 C 55 67 59 71 59 76 C 59 81 55 85 50 85 C 45 85 41 81 41 76 Z M 71 24 C 71 27 73 29 76 29 C 79 29 81 27 81 24 C 81 21 79 19 76 19 C 73 19 71 21 71 24 Z M 67 24 C 67 19 71 15 76 15 C 81 15 85 19 85 24 C 85 29 81 33 76 33 C 71 33 67 29 67 24 Z M 45 50 C 45 53 47 55 50 55 C 53 55 55 53 55 50 C 55 47 53 45 50 45 C 47 45 45 47 45 50 Z M 41 50 C 41 45 45 41 50 41 C 55 41 59 45 59 50 C 59 55 55 59 50 59 C 45 59 41 55 41 50 Z"></path></svg>