<svg version="1.1" xmlns="http://www.w3.org/2000/svg" viewBox="0 0 100 100"><path stroke="#000000" stroke-width="0" stroke-linejoin="round" stroke-linecap="round" fill="#000000" d="M 34 72 C 35 71 20 65 20 50 C 20 40 25 35 35 35 C 38 35 42 37 43 38 C 44 39 44 37 46 36 C 48 35 47 35 47 33 C 45 33 40 31 40 30 C 40 29 45 27 47 27 C 47 25 49 20 50 20 C 51 20 53 25 53 27 C 55 27 60 29 60 30 C 60 31 55 33 53 33 C 53 35 52 35 54 36 C 56 37 56 39 57 38 C 58 37 62 35 65 35 C 75 35 80 40 80 50 C 80 65 65 71 66 72 C 67 73 69 74 72 74 C 74 74 75 75 75 77 C 75 79 74 80 72 80 C 60 80 40 80 28 80 C 26 80 25 79 25 77 C 25 75 26 74 28 74 C 31 74 33 73 34 72 Z"></path></svg>