<svg version="1.1" xmlns="http://www.w3.org/2000/svg" viewBox="0 0 100 100"><path stroke="#000000" stroke-width="0" stroke-linejoin="round" stroke-linecap="round" fill="#000000" d="M 25 50 C 25 64 36 75 50 75 C 64 75 75 64 75 50 C 75 36 64 25 50 25 C 36 25 25 36 25 50 Z M 41 41 C 42 43 44 47 45 47 C 46 47 48 43 49 41 C 50 39 50 39 51 41 C 52 43 54 47 55 47 C 56 47 58 43 59 41 C 60 39 60 39 60 41 C 60 46 60 56 60 58 C 60 59 60 59 59 59 C 53 59 48 59 41 59 C 40 59 40 59 40 58 C 40 56 40 46 40 41 C 40 39 40 39 41 41 Z M 20 50 C 20 33 33 20 50 20 C 67 20 80 33 80 50 C 80 67 67 80 50 80 C 33 80 20 67 20 50 Z"></path></svg>