<svg version="1.1" xmlns="http://www.w3.org/2000/svg" viewBox="0 0 100 100"><path stroke="#000000" stroke-width="0" stroke-linejoin="round" stroke-linecap="round" fill="#000000" d="M 57 37 C 58 38 58 40 57 41 C 56 42 55 43 53 45 C 51 47 51 50 53 52 C 55 54 58 54 60 52 C 62 50 63 49 64 48 C 65 47 66 47 67 49 C 68 51 70 56 70 60 C 70 65 68 69 65 72 C 64 73 64 74 72 74 C 74 74 75 75 75 77 C 75 79 74 80 72 80 C 60 80 40 80 28 80 C 26 80 25 79 25 77 C 25 75 26 74 28 74 C 36 74 36 73 35 72 C 32 69 30 65 30 60 C 30 50 44 36 48 32 C 49 31 49 31 48 30 C 47 29 45 27 45 25 C 45 22 47 20 50 20 C 53 20 55 22 55 25 C 55 27 53 29 52 30 C 51 31 51 31 52 32 C 53 33 56 36 57 37 Z"></path></svg>