<svg version="1.1" xmlns="http://www.w3.org/2000/svg" viewBox="0 0 100 100"><path stroke="#000000" stroke-width="0" stroke-linejoin="round" stroke-linecap="round" fill="#000000" d="M 60 60 C 60 53 60 47 60 40 C 53 40 47 40 40 40 C 40 47 40 53 40 60 C 40 60 40 60 40 60 C 47 60 53 60 60 60 Z M 66 40 C 66 47 66 53 66 60 C 71 60 76 60 82 60 C 84 60 85 61 85 63 C 85 65 84 66 82 66 C 76 66 71 66 66 66 C 66 71 66 77 66 82 C 66 84 65 85 63 85 C 61 85 60 84 60 82 C 60 77 60 71 60 66 C 53 66 47 66 40 66 C 40 71 40 77 40 82 C 40 84 39 85 37 85 C 35 85 34 84 34 82 C 34 77 34 71 34 66 C 29 66 23 66 18 66 C 16 66 15 65 15 63 C 15 61 16 60 18 60 C 23 60 29 60 34 60 C 34 53 34 47 34 40 C 29 40 23 40 18 40 C 16 40 15 39 15 37 C 15 35 16 34 18 34 C 23 34 29 34 34 34 C 34 29 34 24 34 18 C 34 16 35 15 37 15 C 39 15 40 16 40 18 C 40 24 40 29 40 34 C 40 34 40 34 40 34 C 47 34 53 34 60 34 C 60 29 60 24 60 18 C 60 16 61 15 63 15 C 65 15 66 16 66 18 C 66 24 66 29 66 34 C 71 34 76 34 82 34 C 84 34 85 35 85 37 C 85 39 84 40 82 40 C 76 40 71 40 66 40 Z M 76 21 C 78 19 80 17 81 16 C 83 14 86 17 84 19 C 83 20 81 22 79 24 C 81 26 83 28 84 29 C 86 31 83 34 81 32 C 80 31 78 29 76 27 C 74 29 72 31 71 32 C 69 34 66 31 68 29 C 69 28 71 26 73 24 C 71 22 69 20 68 19 C 66 17 69 14 71 16 C 72 17 74 19 76 21 Z M 50 72 C 52 70 54 68 55 67 C 57 65 60 68 58 70 C 57 71 55 73 53 75 C 55 77 57 79 58 80 C 60 82 57 85 55 83 C 54 82 52 80 50 78 C 48 80 46 82 45 83 C 43 85 40 82 42 80 C 43 79 45 77 47 75 C 45 73 43 71 42 70 C 40 68 43 65 45 67 C 46 68 48 70 50 72 Z M 76 73 C 78 71 80 69 81 68 C 83 66 86 69 84 71 C 83 72 81 74 79 76 C 81 78 83 80 84 81 C 86 83 83 86 81 84 C 80 83 78 81 76 79 C 74 81 72 83 71 84 C 69 86 66 83 68 81 C 69 80 71 78 73 76 C 71 74 69 72 68 71 C 66 69 69 66 71 68 C 72 69 74 71 76 73 Z M 50 21 C 52 19 54 17 55 16 C 57 14 60 17 58 19 C 57 20 55 22 53 24 C 55 26 57 28 58 29 C 60 31 57 34 55 32 C 54 31 52 29 50 27 C 48 29 46 31 45 32 C 43 34 40 31 42 29 C 43 28 45 26 47 24 C 45 22 43 20 42 19 C 40 17 43 14 45 16 C 46 17 48 19 50 21 Z M 19 24 C 19 27 21 29 24 29 C 27 29 29 27 29 24 C 29 21 27 19 24 19 C 21 19 19 21 19 24 Z M 15 24 C 15 19 19 15 24 15 C 29 15 33 19 33 24 C 33 29 29 33 24 33 C 19 33 15 29 15 24 Z M 19 50 C 19 53 21 55 24 55 C 27 55 29 53 29 50 C 29 47 27 45 24 45 C 21 45 19 47 19 50 Z M 15 50 C 15 45 19 41 24 41 C 29 41 33 45 33 50 C 33 55 29 59 24 59 C 19 59 15 55 15 50 Z M 19 76 C 19 79 21 81 24 81 C 27 81 29 79 29 76 C 29 73 27 71 24 71 C 21 71 19 73 19 76 Z M 15 76 C 15 71 19 67 24 67 C 29 67 33 71 33 76 C 33 81 29 85 24 85 C 19 85 15 81 15 76 Z M 45 50 C 45 53 47 55 50 55 C 53 55 55 53 55 50 C 55 47 53 45 50 45 C 47 45 45 47 45 50 Z M 41 50 C 41 45 45 41 50 41 C 55 41 59 45 59 50 C 59 55 55 59 50 59 C 45 59 41 55 41 50 Z"></path></svg>