<svg version="1.1" xmlns="http://www.w3.org/2000/svg" viewBox="0 0 100 100"><path stroke="#000000" stroke-width="0" stroke-linejoin="round" stroke-linecap="round" fill="#000000" d="M 25 50 C 25 64 36 75 50 75 C 64 75 75 64 75 50 C 75 36 64 25 50 25 C 36 25 25 36 25 50 Z M 44 55 C 42 54 39 50 39 46 C 39 40 44 35 50 35 C 56 35 61 40 61 46 C 61 50 58 54 56 55 C 55 56 56 57 56 57 C 59 60 62 60 64 64 C 64 65 64 65 61 65 C 55 65 45 65 39 65 C 36 65 36 65 36 64 C 38 60 41 60 44 57 C 44 57 45 56 44 55 Z M 20 50 C 20 33 33 20 50 20 C 67 20 80 33 80 50 C 80 67 67 80 50 80 C 33 80 20 67 20 50 Z"></path></svg>