<svg version="1.1" xmlns="http://www.w3.org/2000/svg" viewBox="0 0 100 100"><path stroke="#000000" stroke-width="0" stroke-linejoin="round" stroke-linecap="round" fill="#000000" d="M 24 34 C 33 29 41 25 49 20.5 C 45 26 40 33 34 41 C 30 38 27 36 24 34 Z M 65 41 C 55 41 45 41 35 41 C 41 33 46 26 50 20 C 54 26 59 33 65 41 Z M 76 34 C 73 36 70 38 66 41 C 60 33 55 26 51 20.5 C 59 25 67 29 76 34 Z M 24 35 C 27 37 30 39 33.5 41.5 C 30 49 26 58 24 63 C 24 55 24 45 24 35 Z M 49 68 C 40 67 32 66 24 65 C 27 58 31 49 34 42 C 39 51 45 61 49 68 Z M 35 42 C 45 42 55 42 65 42 C 60 51 54 61 50 68 C 46 61 40 51 35 42 Z M 76 65 C 68 66 60 67 51 68 C 55 61 61 51 66 42 C 69 49 73 58 76 65 Z M 76 35 C 76 45 76 55 76 63 C 74 58 70 49 66.5 41.5 C 70 39 73 37 76 35 Z M 49.5 80 C 41 75 33 71 24 66 C 32 67 40 68 49.5 69 C 49.5 72 49.5 76 49.5 80 Z M 50.5 80 C 50.5 76 50.5 72 50.5 69 C 60 68 68 67 76 66 C 67 71 59 75 50.5 80 Z"></path></svg>