<svg version="1.1" xmlns="http://www.w3.org/2000/svg" viewBox="0 0 100 100"><path stroke="#000000" stroke-width="0" stroke-linejoin="round" stroke-linecap="round" fill="#000000" d="M 25 50 C 25 64 36 75 50 75 C 64 75 75 64 75 50 C 75 36 64 25 50 25 C 36 25 25 36 25 50 Z M 49 37 C 50 34 50 34 51 37 C 51 37 52 38 52 38 C 55 41 49 45 54 43 C 57 42 56 42 58 41 C 60 40 61 41 63 44 C 65 49 65 51 65 54 C 64 57 63 56 62 55 C 61 54 60 53 58 52 C 56 51 55 52 54 54 C 53 56 53 56 54 58 C 58 64 58 64 50 64 C 42 64 42 64 46 58 C 47 56 47 56 46 54 C 45 52 44 51 42 52 C 40 53 39 54 38 55 C 37 56 36 57 36 54 C 35 51 35 49 38 44 C 40 41 40 40 42 41 C 44 42 43 42 46 43 C 51 45 45 41 48 38 C 48 38 49 37 49 37 Z M 20 50 C 20 33 33 20 50 20 C 67 20 80 33 80 50 C 80 67 67 80 50 80 C 33 80 20 67 20 50 Z"></path></svg>