<svg version="1.1" xmlns="http://www.w3.org/2000/svg" viewBox="0 0 100 100"><path stroke="#000000" stroke-width="0" stroke-linejoin="round" stroke-linecap="round" fill="#000000" d="M 42 44 C 43 45 46 45 46 43 C 46 41 46 40 45 39 C 42 37 40 34 40 30 C 40 25 45 20 50 20 C 55 20 60 25 60 30 C 60 34 58 37 55 39 C 54 40 54 41 54 43 C 54 45 57 45 58 44 C 59 43 60 42 60 41 C 60 37 60 34 63 31 C 67 27 73 27 77 31 C 81 35 81 41 77 45 C 74 48 70 48 69 50 C 68 52 68 57 68 60 C 68 65 66 68 66 71 C 66 73 70 74 72 74 C 74 74 75 75 75 77 C 75 79 74 80 72 80 C 60 80 40 80 28 80 C 26 80 25 79 25 77 C 25 75 26 74 28 74 C 30 74 34 73 34 71 C 34 68 32 65 32 60 C 32 56 32 52 31 50 C 30 48 26 48 23 45 C 19 41 19 35 23 31 C 27 27 33 27 37 31 C 40 34 40 37 40 41 C 40 42 41 43 42 44 Z"></path></svg>