<svg version="1.1" xmlns="http://www.w3.org/2000/svg" viewBox="0 0 100 100"><path stroke="#000000" stroke-width="0" stroke-linejoin="round" stroke-linecap="round" fill="#000000" d="M 59 35 C 60 35 61 35 62 35 C 64 35 65 36 65 38 C 65 45 65 55 65 67 C 65 69 64 70 62 70 C 52 70 48 70 38 70 C 36 70 35 69 35 67 C 35 55 35 45 35 38 C 35 36 36 35 38 35 C 39 35 40 35 41 35 C 42 35 42 35 42 34 C 42 32 42 30 42 28 C 42 26 43 25 45 25 C 48 25 52 25 55 25 C 57 25 58 26 58 28 C 58 30 58 32 58 34 C 58 35 58 35 59 35 Z"></path></svg>