<svg version="1.1" xmlns="http://www.w3.org/2000/svg" viewBox="0 0 100 100"><path stroke="#000000" stroke-width="0" stroke-linejoin="round" stroke-linecap="round" fill="#000000" d="M 36 50 C 32 51 24 53 20 54 C 21 51 21 51 22 48 C 30 40 40 30 49 21 C 44 31 39 43 36 50 Z M 37 50.5 C 40 43 45 31 50 20 C 55 31 60 43 63 50.5 C 60 52 54 55 50 57 C 46 55 40 52 37 50.5 Z M 64 50 C 61 43 56 31 51 21 C 60 30 70 40 78 48 C 79 51 79 51 80 54 C 76 53 68 51 64 50 Z M 50.5 58 C 54 56 60 53 64 51 C 68 52 76 54 80 55 C 70 63 60 72 50.5 80 C 50.5 77 50.5 65 50.5 58 Z M 49.5 58 C 49.5 65 49.5 77 49.5 80 C 40 72 30 63 20 55 C 24 54 32 52 36 51 C 40 53 46 56 49.5 58 Z"></path></svg>