<svg version="1.1" xmlns="http://www.w3.org/2000/svg" viewBox="0 0 100 100"><path stroke="#000000" stroke-width="0" stroke-linejoin="round" stroke-linecap="round" fill="#000000" d="M 44 35 C 48 35 52 35 56 35 C 57 35 57 35 57 34 C 57 32 57 30 57 28 C 57 26 58 25 60 25 C 63 25 67 25 70 25 C 72 25 73 26 73 28 C 73 30 73 32 73 34 C 73 35 73 35 74 35 C 75 35 76 35 77 35 C 79 35 80 36 80 38 C 80 45 80 55 80 67 C 80 69 79 70 77 70 C 67 70 33 70 23 70 C 21 70 20 69 20 67 C 20 55 20 45 20 38 C 20 36 21 35 23 35 C 24 35 25 35 26 35 C 27 35 27 35 27 34 C 27 32 27 30 27 28 C 27 26 28 25 30 25 C 33 25 37 25 40 25 C 42 25 43 26 43 28 C 43 30 43 32 43 34 C 43 35 43 35 44 35 Z"></path></svg>