<svg version="1.1" xmlns="http://www.w3.org/2000/svg" viewBox="0 0 100 100"><path stroke="#000000" stroke-width="0" stroke-linejoin="round" stroke-linecap="round" fill="#000000" d="M 60 70 C 60 67 60 63 60 60 C 63 60 67 60 70 60 C 70 63 70 67 70 70 C 70 73 70 77 70 80 C 73 80 77 80 80 80 C 83 80 87 80 90 80 C 90 83 90 87 90 90 C 87 90 83 90 80 90 C 77 90 73 90 70 90 C 67 90 63 90 60 90 C 57 90 53 90 50 90 C 47 90 43 90 40 90 C 37 90 33 90 30 90 C 27 90 23 90 20 90 C 17 90 13 90 10 90 C 10 87 10 83 10 80 C 10 77 10 73 10 70 C 10 67 10 63 10 60 C 10 57 10 53 10 50 C 10 47 10 43 10 40 C 10 37 10 33 10 30 C 13 30 17 30 20 30 C 23 30 27 30 30 30 C 30 33 30 37 30 40 C 27 40 23 40 20 40 C 20 43 20 47 20 50 C 23 50 27 50 30 50 C 33 50 37 50 40 50 C 40 47 40 43 40 40 C 43 40 47 40 50 40 C 50 43 50 47 50 50 C 50 53 50 57 50 60 C 47 60 43 60 40 60 C 40 63 40 67 40 70 C 37 70 34 70 30 70 C 30 67 30 63 30 60 C 27 60 23 60 20 60 C 20 63 20 67 20 70 C 20 73 20 77 20 80 C 23 80 27 80 30 80 C 33 80 37 80 40 80 C 43 80 47 80 50 80 C 50 77 50 73 50 70 C 53 70 57 70 60 70 Z M 20 20 C 17 20 13 20 10 20 C 10 17 10 13 10 10 C 13 10 17 10 20 10 C 23 10 27 10 30 10 C 33 10 36 10 40 10 C 43 10 46 10 50 10 C 53 10 56 10 60 10 C 63 10 66 10 70 10 C 73 10 77 10 80 10 C 83 10 87 10 90 10 C 90 13 90 17 90 20 C 90 23 90 27 90 30 C 90 33 90 37 90 40 C 90 43 90 46 90 50 C 90 53 90 57 90 60 C 90 63 90 67 90 70 C 87 70 83 70 80 70 C 80 67 80 63 80 60 C 80 57 80 53 80 50 C 80 46 80 43 80 40 C 80 37 80 33 80 30 C 80 27 80 23 80 20 C 77 20 73 20 70 20 C 70 23 70 27 70 30 C 70 33 70 37 70 40 C 70 44 70 47 70 50 C 67 50 63 50 60 50 C 60 47 60 44 60 40 C 60 37 60 34 60 30 C 60 27 60 23 60 20 C 56 20 53 20 50 20 C 50 23 50 27 50 30 C 47 30 43 30 40 30 C 40 27 40 23 40 20 C 36 20 33 20 30 20 C 27 20 23 20 20 20 Z"></path></svg>