<svg version="1.1" xmlns="http://www.w3.org/2000/svg" viewBox="0 0 100 100"><path stroke="#000000" stroke-width="0" stroke-linejoin="round" stroke-linecap="round" fill="#000000" d="M 60 60 C 60 53 60 47 60 40 C 53 40 47 40 40 40 C 40 47 40 53 40 60 C 40 60 40 60 40 60 C 47 60 53 60 60 60 Z M 66 40 C 66 47 66 53 66 60 C 71 60 76 60 82 60 C 84 60 85 61 85 63 C 85 65 84 66 82 66 C 76 66 71 66 66 66 C 66 71 66 77 66 82 C 66 84 65 85 63 85 C 61 85 60 84 60 82 C 60 77 60 71 60 66 C 53 66 47 66 40 66 C 40 71 40 77 40 82 C 40 84 39 85 37 85 C 35 85 34 84 34 82 C 34 77 34 71 34 66 C 29 66 23 66 18 66 C 16 66 15 65 15 63 C 15 61 16 60 18 60 C 23 60 29 60 34 60 C 34 53 34 47 34 40 C 29 40 23 40 18 40 C 16 40 15 39 15 37 C 15 35 16 34 18 34 C 23 34 29 34 34 34 C 34 29 34 24 34 18 C 34 16 35 15 37 15 C 39 15 40 16 40 18 C 40 24 40 29 40 34 C 40 34 40 34 40 34 C 47 34 53 34 60 34 C 60 29 60 24 60 18 C 60 16 61 15 63 15 C 65 15 66 16 66 18 C 66 24 66 29 66 34 C 71 34 76 34 82 34 C 84 34 85 35 85 37 C 85 39 84 40 82 40 C 76 40 71 40 66 40 Z M 76 21 C 78 19 80 17 81 16 C 83 14 86 17 84 19 C 83 20 81 22 79 24 C 81 26 83 28 84 29 C 86 31 83 34 81 32 C 80 31 78 29 76 27 C 74 29 72 31 71 32 C 69 34 66 31 68 29 C 69 28 71 26 73 24 C 71 22 69 20 68 19 C 66 17 69 14 71 16 C 72 17 74 19 76 21 Z M 24 73 C 26 71 28 69 29 68 C 31 66 34 69 32 71 C 31 72 29 74 27 76 C 29 78 31 80 32 81 C 34 83 31 86 29 84 C 28 83 26 81 24 79 C 22 81 20 83 19 84 C 17 86 14 83 16 81 C 17 80 19 78 21 76 C 19 74 17 72 16 71 C 14 69 17 66 19 68 C 20 69 22 71 24 73 Z M 50 47 C 52 45 54 43 55 42 C 57 40 60 43 58 45 C 57 46 55 48 53 50 C 55 52 57 54 58 55 C 60 57 57 60 55 58 C 54 57 52 55 50 53 C 48 55 46 57 45 58 C 43 60 40 57 42 55 C 43 54 45 52 47 50 C 45 48 43 46 42 45 C 40 43 43 40 45 42 C 46 43 48 45 50 47 Z M 24 21 C 26 19 28 17 29 16 C 31 14 34 17 32 19 C 31 20 29 22 27 24 C 29 26 31 28 32 29 C 34 31 31 34 29 32 C 28 31 26 29 24 27 C 22 29 20 31 19 32 C 17 34 14 31 16 29 C 17 28 19 26 21 24 C 19 22 17 20 16 19 C 14 17 17 14 19 16 C 20 17 22 19 24 21 Z M 45 24 C 45 27 47 29 50 29 C 53 29 55 27 55 24 C 55 21 53 19 50 19 C 47 19 45 21 45 24 Z M 41 24 C 41 19 45 15 50 15 C 55 15 59 19 59 24 C 59 29 55 33 50 33 C 45 33 41 29 41 24 Z M 19 50 C 19 53 21 55 24 55 C 27 55 29 53 29 50 C 29 47 27 45 24 45 C 21 45 19 47 19 50 Z M 15 50 C 15 45 19 41 24 41 C 29 41 33 45 33 50 C 33 55 29 59 24 59 C 19 59 15 55 15 50 Z M 71 76 C 71 79 73 81 76 81 C 79 81 81 79 81 76 C 81 73 79 71 76 71 C 73 71 71 73 71 76 Z M 67 76 C 67 71 71 67 76 67 C 81 67 85 71 85 76 C 85 81 81 85 76 85 C 71 85 67 81 67 76 Z"></path></svg>