<svg version="1.1" xmlns="http://www.w3.org/2000/svg" viewBox="0 0 100 100"><path stroke="#000000" stroke-width="0" stroke-linejoin="round" stroke-linecap="round" fill="#000000" d="M 60 75 C 61 75 62 75 63 75 C 64 75 65 74 65 73 C 65 58 65 42 65 27 C 65 26 64 25 63 25 C 62 25 61 25 60 25 C 60 42 60 58 60 75 Z M 70 75 C 71 75 72 75 73 75 C 74 75 75 74 75 73 C 75 58 75 42 75 27 C 75 26 74 25 73 25 C 72 25 71 25 70 25 C 70 42 70 58 70 75 Z M 27 25 C 26 25 25 26 25 27 C 25 42 25 58 25 73 C 25 74 26 75 27 75 C 35 75 45 75 53 75 C 54 75 55 74 55 73 C 55 58 55 42 55 27 C 55 26 54 25 53 25 C 45 25 35 25 27 25 Z M 74 80 C 60 80 40 80 26 80 C 23 80 20 77 20 74 C 20 58 20 42 20 26 C 20 23 23 20 26 20 C 40 20 60 20 74 20 C 77 20 80 23 80 26 C 80 42 80 58 80 74 C 80 77 77 80 74 80 Z"></path></svg>