<svg version="1.1" xmlns="http://www.w3.org/2000/svg" viewBox="0 0 100 100"><path stroke="#000000" stroke-width="0" stroke-linejoin="round" stroke-linecap="round" fill="#000000" d="M 32 45 C 32 42 32 39 32 36 C 32 34 34 32 36 32 C 39 32 42 32 45 32 C 47 32 47 32 47 34 C 47 36 45 36 45 39 C 45 42 47 44 50 44 C 53 44 55 42 55 39 C 55 36 53 36 53 34 C 53 32 53 32 55 32 C 58 32 61 32 64 32 C 66 32 68 34 68 36 C 68 39 68 42 68 45 C 68 47 68 47 70 47 C 72 47 72 45 75 45 C 78 45 80 47 80 50 C 80 53 78 55 75 55 C 72 55 72 53 70 53 C 68 53 68 53 68 55 C 68 58 68 61 68 64 C 68 66 66 68 64 68 C 61 68 58 68 55 68 C 53 68 53 68 53 66 C 53 64 55 64 55 61 C 55 58 53 56 50 56 C 47 56 45 58 45 61 C 45 64 47 64 47 66 C 47 68 47 68 45 68 C 42 68 39 68 36 68 C 34 68 32 66 32 64 C 32 61 32 58 32 55 C 32 53 32 53 30 53 C 28 53 28 55 25 55 C 22 55 20 53 20 50 C 20 47 22 45 25 45 C 28 45 28 47 30 47 C 32 47 32 47 32 45 Z"></path></svg>