<svg version="1.1" xmlns="http://www.w3.org/2000/svg" viewBox="0 0 100 100"><path stroke="#000000" stroke-width="0" stroke-linejoin="round" stroke-linecap="round" fill="#000000" d="M 70 55 C 70 60 70 67 70 72 C 70 73 71 74 72 74 C 74 74 75 75 75 77 C 75 79 74 80 72 80 C 55 80 45 80 28 80 C 26 80 25 79 25 77 C 25 75 26 74 28 74 C 29 74 30 73 30 72 C 30 67 30 60 30 55 C 30 52 28 50 25 50 C 22 50 20 48 20 45 C 20 40 20 30 20 23 C 20 21 21 20 23 20 C 26 20 28 20 31 20 C 33 20 34 21 34 23 C 34 25 34 27 34 29 C 34 30 34 30 35 30 C 37 30 40 30 42 30 C 43 30 43 30 43 29 C 43 27 43 25 43 23 C 43 21 44 20 46 20 C 49 20 51 20 54 20 C 56 20 57 21 57 23 C 57 25 57 27 57 29 C 57 30 57 30 58 30 C 60 30 63 30 65 30 C 66 30 66 30 66 29 C 66 27 66 25 66 23 C 66 21 67 20 69 20 C 72 20 74 20 77 20 C 79 20 80 21 80 23 C 80 30 80 40 80 45 C 80 48 78 50 75 50 C 72 50 70 52 70 55 Z"></path></svg>