<svg version="1.1" xmlns="http://www.w3.org/2000/svg" viewBox="0 0 100 100"><path stroke="#000000" stroke-width="0" stroke-linejoin="round" stroke-linecap="round" fill="#000000" d="M 37 25 C 36 25 35 26 35 27 C 35 42 35 58 35 73 C 35 74 36 75 37 75 C 45 75 55 75 63 75 C 64 75 65 74 65 73 C 65 58 65 42 65 27 C 65 26 64 25 63 25 C 55 25 45 25 37 25 Z M 36 20 C 45 20 55 20 64 20 C 67 20 70 23 70 26 C 70 42 70 58 70 74 C 70 77 67 80 64 80 C 55 80 45 80 36 80 C 33 80 30 77 30 74 C 30 58 30 42 30 26 C 30 23 33 20 36 20 Z M 38 65 C 38 64 39 63 40 63 C 46 63 54 63 60 63 C 61 63 62 64 62 65 C 62 66 61 67 60 67 C 54 67 46 67 40 67 C 39 67 38 66 38 65 Z M 50 35 C 51 35 52 36 52 37 C 52 43 52 51 52 56 C 53 55 54 54 55 53 C 57 51 60 54 58 56 C 56 58 54 60 53 61 C 51 63 49 63 47 61 C 46 60 44 58 42 56 C 40 54 43 51 45 53 C 46 54 47 55 48 56 C 48 51 48 43 48 37 C 48 36 49 35 50 35 Z"></path></svg>