<svg version="1.1" xmlns="http://www.w3.org/2000/svg" viewBox="0 0 100 100"><path stroke="#000000" stroke-width="0" stroke-linejoin="round" stroke-linecap="round" fill="#000000" d="M 50 45 C 52 44 70 35 72 34 C 70 33 52 24 50 23 C 48 24 30 33 28 34 C 30 35 48 44 50 45 Z M 74 38 C 72 39 54 48 52 49 C 52 51 52 74 52 76 C 54 75 72 66 74 65 C 74 63 74 40 74 38 Z M 26 38 C 26 40 26 63 26 65 C 28 66 46 75 48 76 C 48 74 48 51 48 49 C 46 48 28 39 26 38 Z M 50 18 C 60 23 70 28 78 32 C 78 44 78 56 78 68 C 70 72 60 77 50 82 C 40 77 30 72 22 68 C 22 56 22 44 22 32 C 30 28 40 23 50 18 Z M 47 34 C 47 33 48 32 50 32 C 52 32 53 33 53 34 C 53 35 52 36 50 36 C 48 36 47 35 47 34 Z M 57 56 C 56 56 55 55 55 53 C 55 51 56 50 57 50 C 58 50 59 51 59 53 C 59 55 58 56 57 56 Z M 69 64 C 68 64 67 63 67 61 C 67 59 68 58 69 58 C 70 58 71 59 71 61 C 71 63 70 64 69 64 Z M 31 50 C 30 50 29 49 29 47 C 29 45 30 44 31 44 C 32 44 33 45 33 47 C 33 49 32 50 31 50 Z M 37 60 C 36 60 35 59 35 57 C 35 55 36 54 37 54 C 38 54 39 55 39 57 C 39 59 38 60 37 60 Z M 43 70 C 42 70 41 69 41 67 C 41 65 42 64 43 64 C 44 64 45 65 45 67 C 45 69 44 70 43 70 Z"></path></svg>