<svg version="1.1" xmlns="http://www.w3.org/2000/svg" viewBox="0 0 100 100"><path stroke="#000000" stroke-width="0" stroke-linejoin="round" stroke-linecap="round" fill="#000000" d="M 37 25 C 36 25 35 26 35 27 C 35 42 35 58 35 73 C 35 74 36 75 37 75 C 45 75 55 75 63 75 C 64 75 65 74 65 73 C 65 58 65 42 65 27 C 65 26 64 25 63 25 C 55 25 45 25 37 25 Z M 36 20 C 45 20 55 20 64 20 C 67 20 70 23 70 26 C 70 42 70 58 70 74 C 70 77 67 80 64 80 C 55 80 45 80 36 80 C 33 80 30 77 30 74 C 30 58 30 42 30 26 C 30 23 33 20 36 20 Z M 52 63 C 55 63 58 63 60 63 C 61 63 62 64 62 65 C 62 66 61 67 60 67 C 54 67 46 67 40 67 C 39 67 38 66 38 65 C 38 64 39 63 40 63 C 42 63 45 63 48 63 C 48 57 48 47 48 42 C 47 43 46 44 45 45 C 43 47 40 44 42 42 C 44 40 46 38 47 37 C 49 35 51 35 53 37 C 54 38 56 40 58 42 C 60 44 57 47 55 45 C 54 44 53 43 52 42 C 52 47 52 57 52 63 Z"></path></svg>