<svg version="1.1" xmlns="http://www.w3.org/2000/svg" viewBox="0 0 100 100"><path stroke="#000000" stroke-width="0" stroke-linejoin="round" stroke-linecap="round" fill="#000000" d="M 55 32 C 58 32 61 32 64 32 C 66 32 68 34 68 36 C 68 39 68 42 68 45 C 68 47 68 47 66 47 C 64 47 64 45 61 45 C 58 45 56 47 56 50 C 56 53 58 55 61 55 C 64 55 64 53 66 53 C 68 53 68 53 68 55 C 68 58 68 61 68 64 C 68 66 66 68 64 68 C 61 68 58 68 55 68 C 53 68 53 68 53 70 C 53 72 55 72 55 75 C 55 78 53 80 50 80 C 47 80 45 78 45 75 C 45 72 47 72 47 70 C 47 68 47 68 45 68 C 42 68 39 68 36 68 C 34 68 32 66 32 64 C 32 61 32 58 32 55 C 32 53 32 53 34 53 C 36 53 36 55 39 55 C 42 55 44 53 44 50 C 44 47 42 45 39 45 C 36 45 36 47 34 47 C 32 47 32 47 32 45 C 32 42 32 39 32 36 C 32 34 34 32 36 32 C 39 32 42 32 45 32 C 47 32 47 32 47 30 C 47 28 45 28 45 25 C 45 22 47 20 50 20 C 53 20 55 22 55 25 C 55 28 53 28 53 30 C 53 32 53 32 55 32 Z"></path></svg>