<svg version="1.1" xmlns="http://www.w3.org/2000/svg" viewBox="0 0 100 100"><path stroke="#000000" stroke-width="0" stroke-linejoin="round" stroke-linecap="round" fill="#000000" d="M 55 69 C 61 69 68 69 75 69 C 78 69 80 71 80 74 C 80 76 80 78 80 80 C 80 83 78 85 75 85 C 72 85 72 84 70 84 C 68 84 68 85 66 85 C 64 85 64 84 62 84 C 60 84 60 85 58 85 C 56 85 56 84 54 84 C 52 84 52 85 50 85 C 48 85 48 84 46 84 C 44 84 44 85 42 85 C 40 85 40 84 38 84 C 36 84 36 85 34 85 C 32 85 32 84 30 84 C 28 84 28 85 25 85 C 22 85 20 83 20 80 C 20 78 20 76 20 74 C 20 71 22 69 25 69 C 32 69 39 69 45 69 C 46 69 47 68 47 67 C 47 50 47 35 47 17 C 47 16 48 15 49 15 C 50 15 50 15 51 15 C 52 15 53 16 53 17 C 53 35 53 50 53 67 C 53 68 54 69 55 69 Z"></path></svg>