<svg version="1.1" xmlns="http://www.w3.org/2000/svg" viewBox="0 0 100 100"><path stroke="#000000" stroke-width="0" stroke-linejoin="round" stroke-linecap="round" fill="#000000" d="M 58 35 C 58 38 56 39 54 40 C 52 41 51 39 50 39 C 49 39 48 41 46 40 C 44 39 42 38 42 35 C 42 31 45 25 50 20 C 55 25 58 31 58 35 Z M 49 46 C 49 44 49 43 49 41 C 49 40 49 40 50 40 C 51 40 51 40 51 41 C 51 43 51 44 51 46 C 53 46 57 45 62 45 C 64 45 65 46 65 48 C 65 56 65 64 65 78 C 65 79 64 80 63 80 C 53 80 47 80 37 80 C 36 80 35 79 35 78 C 35 64 35 56 35 48 C 35 46 36 45 38 45 C 43 45 47 46 49 46 Z"></path></svg>