<svg version="1.1" xmlns="http://www.w3.org/2000/svg" viewBox="0 0 100 100"><path stroke="#000000" stroke-width="0" stroke-linejoin="round" stroke-linecap="round" fill="#000000" d="M 69 62 C 64 63 57 64 51 64 C 51 65 52 67 53 68 C 54 69 54 70 54 71 C 54 73 52 75 50 75 C 48 75 46 73 46 71 C 46 70 46 69 47 68 C 48 67 49 65 49 64 C 43 64 36 63 31 62 C 31 63 32 65 33 66 C 34 67 34 68 34 69 C 34 71 32 73 30 73 C 28 73 26 71 26 69 C 26 68 26 67 27 66 C 28 65 29 63 29 61 C 29 61 31 62 25 60 C 22 59 20 58 20 56 C 20 54 22 53 25 54 C 40 60 60 60 75 54 C 78 53 80 54 80 56 C 80 58 78 59 75 60 C 72 61 69 62 71 61 C 71 63 72 65 73 66 C 74 67 74 68 74 69 C 74 71 72 73 70 73 C 68 73 66 71 66 69 C 66 68 66 67 67 66 C 68 65 69 63 69 62 Z M 69 33 C 64 34 57 35 51 35 C 51 36 52 38 53 39 C 54 40 54 41 54 42 C 54 44 52 46 50 46 C 48 46 46 44 46 42 C 46 41 46 40 47 39 C 48 38 49 36 49 35 C 43 35 36 34 31 33 C 31 34 32 36 33 37 C 34 38 34 39 34 40 C 34 42 32 44 30 44 C 28 44 26 42 26 40 C 26 39 26 38 27 37 C 28 36 29 34 29 32 C 29 32 31 33 25 31 C 22 30 20 29 20 27 C 20 25 22 24 25 25 C 40 31 60 31 75 25 C 78 24 80 25 80 27 C 80 29 78 30 75 31 C 72 32 69 33 71 32 C 71 34 72 36 73 37 C 74 38 74 39 74 40 C 74 42 72 44 70 44 C 68 44 66 42 66 40 C 66 39 66 38 67 37 C 68 36 69 34 69 33 Z"></path></svg>