<svg version="1.1" xmlns="http://www.w3.org/2000/svg" viewBox="0 0 100 100"><path stroke="#000000" stroke-width="0" stroke-linejoin="round" stroke-linecap="round" fill="#000000" d="M 45 26 C 43 25 48 20 50 20 C 54 20 54 26 54 34 C 54 40 54 46 53 47 C 52 48 52 50 52 52 C 52 59 52 64 52 76 C 52 78 52 80 50 80 C 48 80 48 78 48 76 C 48 64 48 59 48 52 C 48 50 48 48 47 47 C 46 46 44 43 45 42 C 44 41 44 41 45 40 C 44 39 44 39 45 38 C 44 37 44 37 45 36 C 44 35 44 35 45 34 C 44 33 44 33 45 32 C 44 31 44 31 45 30 C 44 29 44 29 45 28 C 44 27 44 27 45 26 Z"></path></svg>