<svg version="1.1" xmlns="http://www.w3.org/2000/svg" viewBox="0 0 100 100"><path stroke="#000000" stroke-width="0" stroke-linejoin="round" stroke-linecap="round" fill="#000000" d="M 71 25 C 56 25 44 25 29 25 C 26 25 25 26 25 29 C 25 44 25 56 25 71 C 25 74 26 75 29 75 C 44 75 56 75 71 75 C 74 75 75 74 75 71 C 75 56 75 44 75 29 C 75 26 74 25 71 25 Z M 27 50 C 27 37 37 27 50 27 C 63 27 73 37 73 50 C 73 63 63 73 50 73 C 37 73 27 63 27 50 Z M 74 20 C 77 20 80 23 80 26 C 80 42 80 58 80 74 C 80 77 77 80 74 80 C 58 80 42 80 26 80 C 23 80 20 77 20 74 C 20 58 20 42 20 26 C 20 23 23 20 26 20 C 42 20 58 20 74 20 Z M 55 50 C 55 47 53 45 50 45 C 47 45 45 47 45 50 C 45 53 47 55 50 55 C 53 55 55 53 55 50 Z"></path></svg>