<svg version="1.1" xmlns="http://www.w3.org/2000/svg" viewBox="0 0 100 100"><path stroke="#000000" stroke-width="0" stroke-linejoin="round" stroke-linecap="round" fill="#000000" d="M 25 63 C 25 64 26 65 27 65 C 42 65 58 65 73 65 C 74 65 75 64 75 63 C 75 55 75 45 75 37 C 75 36 74 35 73 35 C 58 35 42 35 27 35 C 26 35 25 36 25 37 C 25 45 25 55 25 63 Z M 29 51 C 29 49 29 49 31 49 C 46 49 54 49 69 49 C 71 49 71 49 71 51 C 71 53 71 53 69 53 C 54 53 46 53 31 53 C 29 53 29 53 29 51 Z M 29 59 C 29 57 29 57 31 57 C 46 57 54 57 69 57 C 71 57 71 57 71 59 C 71 61 71 61 69 61 C 54 61 46 61 31 61 C 29 61 29 61 29 59 Z M 20 64 C 20 55 20 45 20 36 C 20 33 23 30 26 30 C 42 30 58 30 74 30 C 77 30 80 33 80 36 C 80 45 80 55 80 64 C 80 67 77 70 74 70 C 58 70 42 70 26 70 C 23 70 20 67 20 64 Z"></path></svg>