<svg version="1.1" xmlns="http://www.w3.org/2000/svg" viewBox="0 0 100 100"><path stroke="#000000" stroke-width="0" stroke-linejoin="round" stroke-linecap="round" fill="#000000" d="M 20 47 C 20 46 20 45 20 44 C 20 39 36 30 39 29 C 42 28 48 28 47 27 C 46 26 45 26 48 23 C 51 20 49 20 52 23 C 55 26 54 26 53 27 C 52 28 58 28 61 29 C 64 30 80 39 80 44 C 80 45 80 46 80 47 C 80 50 90 56 90 60 C 90 65 90 72 90 76 C 90 78 88 80 86 80 C 63 80 37 80 14 80 C 12 80 10 78 10 76 C 10 72 10 65 10 60 C 10 56 20 50 20 47 Z"></path></svg>