<svg version="1.1" xmlns="http://www.w3.org/2000/svg" viewBox="0 0 100 100"><path stroke="#000000" stroke-width="0" stroke-linejoin="round" stroke-linecap="round" fill="#000000" d="M 62 62 C 62 65 62 68 62 72 C 66 70 70 66 72 62 C 68 62 65 62 62 62 Z M 43 74 C 45 75 49 75 50 75 C 51 75 55 75 57 74 C 57 69 57 66 57 62 C 52 62 48 62 43 62 C 43 66 43 69 43 74 Z M 80 50 C 80 67 67 80 50 80 C 33 80 20 67 20 50 C 20 33 33 20 50 20 C 67 20 80 33 80 50 Z M 74 43 C 70 43 66 43 62 43 C 62 48 62 52 62 57 C 66 57 70 57 74 57 C 75 55 75 51 75 50 C 75 49 75 45 74 43 Z M 62 28 C 62 32 62 35 62 38 C 65 38 68 38 72 38 C 72 38 72 38 72 38 C 72 38 72 38 72 38 C 70 34 66 30 62 28 C 62 28 62 28 62 28 C 62 28 62 28 62 28 Z M 43 26 C 43 30 43 34 43 38 C 48 38 52 38 57 38 C 57 34 57 30 57 26 C 55 25 51 25 50 25 C 49 25 45 25 43 26 Z M 28 38 C 32 38 35 38 38 38 C 38 35 38 32 38 28 C 34 30 30 34 28 38 Z M 26 57 C 30 57 34 57 38 57 C 38 52 38 48 38 43 C 34 43 30 43 26 43 C 25 45 25 49 25 50 C 25 51 25 55 26 57 Z M 38 72 C 38 68 38 65 38 62 C 35 62 32 62 28 62 C 30 66 34 70 38 72 Z M 58 50 C 58 45 55 42 50 42 C 45 42 42 45 42 50 C 42 55 45 58 50 58 C 55 58 58 55 58 50 Z"></path></svg>