<svg version="1.1" xmlns="http://www.w3.org/2000/svg" viewBox="0 0 100 100"><path stroke="#000000" stroke-width="0" stroke-linejoin="round" stroke-linecap="round" fill="#000000" d="M 49 55 C 44 55 40 55 38.5 56 C 40 57 44 57 49 57 C 49 56 49 56 49 55 Z M 38.5 54 C 38.5 54 42 53 49 53 C 49 51 49 46 49 43 C 44 43 41 42 41 43 C 40 45 39 51 38.5 54 Z M 51 53 C 58 53 61.5 54 61.5 54 C 61 51 60 45 59 43 C 59 42 55 43 51 43 C 51 46 51 51 51 53 Z M 51 57 C 56 57 60 57 61.5 56 C 60 55 56 55 51 55 C 51 56 51 56 51 57 Z M 62 58 C 62 58 58 59 51 59 C 51 61 51 66 51 69 C 51 70 51 70 50 70 C 49 70 49 70 49 69 C 49 66 49 61 49 59 C 42 59 38 58 38 58 C 37 62 36 66 35 69 C 35 70 35 70 34 70 C 33 70 33 70 33 69 C 35 60 37 51 39 42 C 39 42 39 41 39 41 C 39 40 44 40 50 40 C 56 40 61 40 61 41 C 61 40 61 42 61 42 C 63 51 65 60 67 69 C 67 70 67 70 66 70 C 65 70 65 70 65 69 C 64 66 63 62 62 58 Z"></path></svg>