<svg version="1.1" xmlns="http://www.w3.org/2000/svg" viewBox="0 0 100 100"><path stroke="#000000" stroke-width="0" stroke-linejoin="round" stroke-linecap="round" fill="#000000" d="M 45 31 C 39 31 32 31 25 31 C 22 31 20 29 20 26 C 20 24 20 22 20 20 C 20 17 22 15 25 15 C 28 15 28 16 30 16 C 32 16 32 15 34 15 C 36 15 36 16 38 16 C 40 16 40 15 42 15 C 44 15 44 16 46 16 C 48 16 48 15 50 15 C 52 15 52 16 54 16 C 56 16 56 15 58 15 C 60 15 60 16 62 16 C 64 16 64 15 66 15 C 68 15 68 16 70 16 C 72 16 72 15 75 15 C 78 15 80 17 80 20 C 80 22 80 24 80 26 C 80 29 78 31 75 31 C 68 31 61 31 55 31 C 54 31 53 32 53 33 C 53 50 53 65 53 83 C 53 84 52 85 51 85 C 50 85 50 85 49 85 C 48 85 47 84 47 83 C 47 65 47 50 47 33 C 47 32 46 31 45 31 Z"></path></svg>