<svg version="1.1" xmlns="http://www.w3.org/2000/svg" viewBox="0 0 100 100"><path stroke="#000000" stroke-width="0" stroke-linejoin="round" stroke-linecap="round" fill="#000000" d="M 45 44 C 45 34 45 24 45 12 C 45 10 45 10 47 10 C 48 10 52 10 53 10 C 55 10 55 10 55 12 C 55 24 55 34 55 44 C 55 45 55 46 56 46 C 70 48 80 60 80 74 C 80 75 79 75 78 75 C 73 75 66 75 59 75 C 57 78 54 80 50 80 C 46 80 43 78 41 75 C 34 75 27 75 22 75 C 21 75 20 75 20 74 C 20 60 30 48 44 46 C 45 46 45 45 45 44 Z"></path></svg>