<svg version="1.1" xmlns="http://www.w3.org/2000/svg" viewBox="0 0 100 100"><path stroke="#000000" stroke-width="0" stroke-linejoin="round" stroke-linecap="round" fill="#000000" d="M 49 38 C 49 41 51 41 51 38 C 51 35 51 30 51 27 C 51 18 53 18 53 27 C 53 30 53 35 53 38 C 53 41 55 41 55 38 C 55 35 55 30 55 27 C 55 18 57 18 57 27 C 57 30 57 35 57 38 C 57 42 56 44 54 46 C 52 48 52 50 52 52 C 52 59 52 64 52 76 C 52 78 52 80 50 80 C 48 80 48 78 48 76 C 48 64 48 59 48 52 C 48 50 48 48 46 46 C 44 44 43 42 43 38 C 43 35 43 30 43 27 C 43 18 45 18 45 27 C 45 30 45 35 45 38 C 45 41 47 41 47 38 C 47 35 47 30 47 27 C 47 18 49 18 49 27 C 49 30 49 35 49 38 Z"></path></svg>