<svg version="1.1" xmlns="http://www.w3.org/2000/svg" viewBox="0 0 100 100"><path stroke="#000000" stroke-width="0" stroke-linejoin="round" stroke-linecap="round" fill="#000000" d="M 70 26 C 56 26 44 26 30 26 C 27 26 26 27 26 30 C 26 44 26 56 26 70 C 26 73 27 74 30 74 C 44 74 56 74 70 74 C 73 74 74 73 74 70 C 74 56 74 44 74 30 C 74 27 73 26 70 26 Z M 31 50 C 31 40 40 31 50 31 C 60 31 69 40 69 50 C 69 60 60 69 50 69 C 40 69 31 60 31 50 Z M 74 20 C 77 20 80 23 80 26 C 80 42 80 58 80 74 C 80 77 77 80 74 80 C 58 80 42 80 26 80 C 23 80 20 77 20 74 C 20 58 20 42 20 26 C 20 23 23 20 26 20 C 42 20 58 20 74 20 Z M 64 50 C 64 42 58 36 50 36 C 42 36 36 42 36 50 C 36 58 42 64 50 64 C 58 64 64 58 64 50 Z"></path></svg>