<svg version="1.1" xmlns="http://www.w3.org/2000/svg" viewBox="0 0 100 100"><path stroke="#000000" stroke-width="0" stroke-linejoin="round" stroke-linecap="round" fill="#000000" d="M 72 75 C 74 75 75 74 75 72 C 75 70 75 60 75 49 C 75 44 58 31 54 28 C 50 25 50 25 46 28 C 42 31 25 44 25 49 C 25 60 25 70 25 72 C 25 74 26 75 28 75 C 35 75 45 75 53 75 C 55 75 55 75 55 73 C 55 66 55 60 55 52 C 55 51 56 50 57 50 C 61 50 64 50 68 50 C 69 50 70 51 70 52 C 70 60 70 66 70 73 C 70 75 70 75 72 75 Z M 43 50 C 44 50 45 51 45 52 C 45 56 45 59 45 63 C 45 64 44 65 43 65 C 39 65 36 65 32 65 C 31 65 30 64 30 63 C 30 59 30 56 30 52 C 30 51 31 50 32 50 C 36 50 39 50 43 50 Z M 80 74 C 80 77 77 80 74 80 C 60 80 40 80 26 80 C 23 80 20 77 20 74 C 20 70 20 60 20 48 C 20 41 36 29 40 26 C 44 23 48 20 50 20 C 52 20 56 23 60 26 C 64 29 80 41 80 48 C 80 60 80 70 80 74 Z"></path></svg>