<svg version="1.1" xmlns="http://www.w3.org/2000/svg" viewBox="0 0 100 100"><path stroke="#000000" stroke-width="0" stroke-linejoin="round" stroke-linecap="round" fill="#000000" d="M 85 53 C 85 55 85 76 85 78 C 85 79 84 80 83 80 C 81 80 79 80 77 80 C 76 80 75 79 75 78 C 75 76 75 72 75 70 C 73 70 27 70 25 70 C 25 72 25 76 25 78 C 25 79 24 80 23 80 C 21 80 19 80 17 80 C 16 80 15 79 15 78 C 15 76 15 34 15 32 C 15 31 16 30 17 30 C 19 30 21 30 23 30 C 24 30 25 31 25 32 C 25 34 25 48 25 50 C 27 50 80 50 82 50 C 84 50 85 51 85 53 Z"></path></svg>