<svg version="1.1" xmlns="http://www.w3.org/2000/svg" viewBox="0 0 100 100"><path stroke="#000000" stroke-width="0" stroke-linejoin="round" stroke-linecap="round" fill="#000000" d="M 25 50 C 25 64 36 75 50 75 C 64 75 75 64 75 50 C 75 36 64 25 50 25 C 36 25 25 36 25 50 Z M 49 54 C 48 54 46 52 46 51 C 45 51 44 51 42 52 C 40 53 37 54 35 54 C 29 54 27 52 27 50 C 27 48 29 46 35 46 C 37 46 40 47 42 48 C 44 49 45 49 46 49 C 46 48 48 46 49 46 C 49 45 49 44 48 42 C 47 40 46 37 46 35 C 46 29 48 27 50 27 C 52 27 54 29 54 35 C 54 37 53 40 52 42 C 51 44 51 45 51 46 C 52 46 54 48 54 49 C 55 49 56 49 58 48 C 60 47 63 46 65 46 C 71 46 73 48 73 50 C 73 52 71 54 65 54 C 63 54 60 53 58 52 C 56 51 55 51 54 51 C 54 52 52 54 51 54 C 51 55 51 56 52 58 C 53 60 54 63 54 65 C 54 71 52 73 50 73 C 48 73 46 71 46 65 C 46 63 47 60 48 58 C 49 56 49 55 49 54 Z M 20 50 C 20 33 33 20 50 20 C 67 20 80 33 80 50 C 80 67 67 80 50 80 C 33 80 20 67 20 50 Z"></path></svg>