<svg version="1.1" xmlns="http://www.w3.org/2000/svg" viewBox="0 0 100 100"><path stroke="#000000" stroke-width="0" stroke-linejoin="round" stroke-linecap="round" fill="#000000" d="M 40 47 C 43 55 47 66 50 74 C 53 66 57 55 60 47 C 57 48 54 48 50 48 C 46 48 43 48 40 47 Z M 59 45 C 63 44 64 42 64 37 C 64 30 57 24 50 24 C 43 24 36 30 36 37 C 36 42 37 44 41 45 C 48 46 52 46 59 45 Z M 36 46 C 33 43 32 41 32 37 C 32 28 41 20 50 20 C 59 20 68 28 68 37 C 68 41 67 43 64 46 C 60 55 54 71 52 76 C 50 81 50 81 48 76 C 46 71 40 55 36 46 Z"></path></svg>