<svg version="1.1" xmlns="http://www.w3.org/2000/svg" viewBox="0 0 100 100"><path stroke="#000000" stroke-width="0" stroke-linejoin="round" stroke-linecap="round" fill="#000000" d="M 47 32 C 47 29 47 26 47 22 C 47 21 48 20 49 20 C 50 20 50 20 51 20 C 52 20 53 21 53 22 C 53 26 53 29 53 32 C 55 31 58 29 65 30 C 72 31 80 42 80 53 C 80 61 78 65 75 70 C 72 75 67 80 60 80 C 56 80 52 78 50 78 C 48 78 44 80 40 80 C 33 80 28 75 25 70 C 22 65 20 61 20 53 C 20 42 28 31 35 30 C 42 29 45 31 47 32 Z"></path></svg>