<svg version="1.1" xmlns="http://www.w3.org/2000/svg" viewBox="0 0 100 100"><path stroke="#000000" stroke-width="0" stroke-linejoin="round" stroke-linecap="round" fill="#000000" d="M 37 25 C 36 25 35 26 35 27 C 35 42 35 58 35 73 C 35 74 36 75 37 75 C 45 75 55 75 63 75 C 64 75 65 74 65 73 C 65 58 65 42 65 27 C 65 26 64 25 63 25 C 55 25 45 25 37 25 Z M 56 72 C 52 73 48 73 44 72 C 40 71 36 67 36 62 C 36 58 37 55 38 52 C 40 46 40 46 41 43 C 42 40 42 40 43 43 C 43 43 44 46 44 46 C 46 52 45 52 47 46 C 48 43 48 43 49 40 C 50 37 50 37 51 40 C 52 43 52 43 53 46 C 55 52 54 52 56 46 C 56 46 57 43 57 43 C 58 40 58 40 59 43 C 60 46 60 46 62 52 C 63 55 64 58 64 62 C 64 67 60 71 56 72 Z M 36 20 C 45 20 55 20 64 20 C 67 20 70 23 70 26 C 70 42 70 58 70 74 C 70 77 67 80 64 80 C 55 80 45 80 36 80 C 33 80 30 77 30 74 C 30 58 30 42 30 26 C 30 23 33 20 36 20 Z"></path></svg>