<svg version="1.1" xmlns="http://www.w3.org/2000/svg" viewBox="0 0 100 100"><path stroke="#000000" stroke-width="0" stroke-linejoin="round" stroke-linecap="round" fill="#000000" d="M 40 50 C 45 50 55 50 60 50 C 67 50 66 50 67 47 C 68 42 69 36 70 30 C 71 23 71 23 68 23 C 57 23 43 23 32 23 C 29 23 29 23 30 30 C 31 36 32 42 33 47 C 34 50 33 50 40 50 Z M 30 20 C 42 20 58 20 70 20 C 76 20 75 20 73 30 C 72 36 68 59 66 70 C 64 80 64 80 60 80 C 55 80 45 80 40 80 C 36 80 36 80 34 70 C 32 59 28 36 27 30 C 25 20 24 20 30 20 Z"></path></svg>