<svg version="1.1" xmlns="http://www.w3.org/2000/svg" viewBox="0 0 100 100"><path stroke="#000000" stroke-width="0" stroke-linejoin="round" stroke-linecap="round" fill="#000000" d="M 58 39 C 58 36 58 30 58 27 C 53 27 47 27 42 27 C 42 30 42 36 42 39 C 47 39 53 39 58 39 Z M 58 73 C 58 70 58 64 58 61 C 53 61 47 61 42 61 C 42 64 42 70 42 73 C 47 73 53 73 58 73 Z M 42 43 C 42 46 42 54 42 57 C 47 57 53 57 58 57 C 58 54 58 46 58 43 C 53 43 47 43 42 43 Z M 62 43 C 62 46 62 54 62 57 C 65 57 67 57 68 57 C 69 57 70 57 70 59 C 70 61 69 61 68 61 C 67 61 65 61 62 61 C 62 64 62 70 62 73 C 65 73 67 73 68 73 C 69 73 70 73 70 75 C 70 77 69 77 68 77 C 67 77 65 77 62 77 C 62 80 62 85 62 88 C 62 89 62 90 60 90 C 58 90 58 89 58 88 C 58 85 58 80 58 77 C 53 77 47 77 42 77 C 42 80 42 85 42 88 C 42 89 42 90 40 90 C 38 90 38 89 38 88 C 38 85 38 80 38 77 C 35 77 33 77 32 77 C 31 77 30 77 30 75 C 30 73 31 73 32 73 C 33 73 35 73 38 73 C 38 70 38 64 38 61 C 35 61 33 61 32 61 C 31 61 30 61 30 59 C 30 57 31 57 32 57 C 33 57 35 57 38 57 C 38 54 38 46 38 43 C 35 43 33 43 32 43 C 31 43 30 43 30 41 C 30 39 31 39 32 39 C 33 39 35 39 38 39 C 38 36 38 30 38 27 C 35 27 33 27 32 27 C 31 27 30 27 30 25 C 30 23 31 23 32 23 C 33 23 35 23 38 23 C 38 20 38 15 38 12 C 38 11 38 10 40 10 C 42 10 42 11 42 12 C 42 15 42 20 42 23 C 47 23 53 23 58 23 C 58 20 58 15 58 12 C 58 11 58 10 60 10 C 62 10 62 11 62 12 C 62 15 62 20 62 23 C 65 23 67 23 68 23 C 69 23 70 23 70 25 C 70 27 69 27 68 27 C 67 27 65 27 62 27 C 62 30 62 36 62 39 C 65 39 67 39 68 39 C 69 39 70 39 70 41 C 70 43 69 43 68 43 C 67 43 65 43 62 43 Z"></path></svg>