<svg version="1.1" xmlns="http://www.w3.org/2000/svg" viewBox="0 0 100 100"><path stroke="#000000" stroke-width="0" stroke-linejoin="round" stroke-linecap="round" fill="#000000" d="M 25 50 C 25 64 36 75 50 75 C 64 75 75 64 75 50 C 75 36 64 25 50 25 C 36 25 25 36 25 50 Z M 20 50 C 20 33 33 20 50 20 C 67 20 80 34 80 50 C 80 67 67 80 50 80 C 33 80 20 67 20 50 Z M 28 53 C 28 51 30 49 32 49 C 34 49 36 51 36 53 C 36 55 34 57 32 57 C 30 57 28 55 28 53 Z M 41 50 C 41 47 43 45 46 45 C 49 45 51 47 51 50 C 51 53 49 55 46 55 C 43 55 41 53 41 50 Z M 61 58 C 61 56 63 54 65 54 C 67 54 69 56 69 58 C 69 60 67 62 65 62 C 63 62 61 60 61 58 Z M 45 67 C 45 64 47 62 50 62 C 53 62 55 64 55 67 C 55 70 53 72 50 72 C 47 72 45 70 45 67 Z M 55 38 C 55 35 58 32 61 32 C 64 32 67 35 67 38 C 67 41 64 44 61 44 C 58 44 55 41 55 38 Z M 40 32 C 40 30 42 28 44 28 C 46 28 48 30 48 32 C 48 34 46 36 44 36 C 42 36 40 34 40 32 Z"></path></svg>