<svg version="1.1" xmlns="http://www.w3.org/2000/svg" viewBox="0 0 100 100"><path stroke="#000000" stroke-width="0" stroke-linejoin="round" stroke-linecap="round" fill="#000000" d="M 25 63 C 25 64 26 65 27 65 C 42 65 58 65 73 65 C 74 65 75 64 75 63 C 75 55 75 45 75 37 C 75 36 74 35 73 35 C 58 35 42 35 27 35 C 26 35 25 36 25 37 C 25 45 25 55 25 63 Z M 53 63 C 50 62 50 62 47 63 C 43 64 43 64 43 63 C 43 62 43 62 48 61 C 43 60 43 60 43 59 C 43 58 43 58 47 59 C 50 60 50 60 53 59 C 57 58 57 58 57 59 C 57 60 57 60 52 61 C 57 62 57 62 57 63 C 57 64 57 64 53 63 Z M 53 58 C 52 58 51 59 50 59 C 49 59 48 58 47 58 C 46 58 46 58 45 58 C 44 58 42 56 42 54 C 42 53 42 50 43 48 C 44 46 44 46 45 44 C 46 46 46 46 47 48 C 48 46 49 44 50 42 C 51 44 52 46 53 48 C 54 46 54 46 55 44 C 56 46 56 46 57 48 C 58 50 58 53 58 54 C 58 56 56 58 55 58 C 54 58 54 58 53 58 Z M 20 64 C 20 55 20 45 20 36 C 20 33 23 30 26 30 C 42 30 58 30 74 30 C 77 30 80 33 80 36 C 80 45 80 55 80 64 C 80 67 77 70 74 70 C 58 70 42 70 26 70 C 23 70 20 67 20 64 Z"></path></svg>