<svg version="1.1" xmlns="http://www.w3.org/2000/svg" viewBox="0 0 100 100"><path stroke="#000000" stroke-width="0" stroke-linejoin="round" stroke-linecap="round" fill="#000000" d="M 20 47 C 20 46 20 45 20 41 C 20 39 30 40 40 30 C 43 27 50 30 47 27 C 46 26 45 26 48 23 C 51 20 49 20 52 23 C 55 26 54 26 53 27 C 50 30 57 27 60 30 C 70 40 80 39 80 41 C 80 45 80 46 80 47 C 80 50 90 58 90 60 C 90 65 90 72 90 78 C 90 79 89 80 88 80 C 63 80 37 80 12 80 C 11 80 10 79 10 78 C 10 72 10 65 10 60 C 10 58 20 50 20 47 Z"></path></svg>