<svg version="1.1" xmlns="http://www.w3.org/2000/svg" viewBox="0 0 100 100"><path stroke="#000000" stroke-width="0" stroke-linejoin="round" stroke-linecap="round" fill="#000000" d="M 52 46 C 52 55 52 67 52 74 C 52 77 53 78 57 78 C 60 78 60 80 59 80 C 52 80 48 80 41 80 C 40 80 40 78 43 78 C 47 78 48 77 48 74 C 48 67 48 55 48 46 C 48 45 48 45 47 45 C 42 45 38 45 36 45 C 35 45 34 44 34 43 C 34 40 37 40 40 30 C 43 20 40 20 50 20 C 60 20 57 20 60 30 C 63 40 66 40 66 43 C 66 44 65 45 64 45 C 62 45 58 45 53 45 C 52 45 52 45 52 46 Z"></path></svg>