<svg version="1.1" xmlns="http://www.w3.org/2000/svg" viewBox="0 0 100 100"><path stroke="#000000" stroke-width="0" stroke-linejoin="round" stroke-linecap="round" fill="#000000" d="M 49 55 C 44 55 41 55 39.5 56 C 41 57 44 57 49 57 C 49 56 49 56 49 55 Z M 39.5 54 C 39.5 54 42 53 49 53 C 49 48 49 40 49 34 C 45 34 42 33 42 33 C 41 39 40 49 39.5 54 Z M 51 53 C 58 53 60.5 54 60.5 54 C 60 49 59 39 58 33 C 58 33 55 34 51 34 C 51 40 51 48 51 53 Z M 51 57 C 56 57 59 57 60.5 56 C 59 55 56 55 51 55 C 51 56 51 56 51 57 Z M 61 58 C 61 58 58 59 51 59 C 51 64 51 73 51 79 C 51 80 51 80 50 80 C 49 80 49 80 49 79 C 49 73 49 64 49 59 C 42 59 39 58 39 58 C 38 63 37 73 36 79 C 36 80 36 80 35 80 C 34 80 34 80 34 79 C 36 63 38 49 40 33 C 40 33 40 32 40 32 C 40 31 44 30 50 30 C 56 30 60 31 60 32 C 60 32 60 33 60 33 C 62 49 64 63 66 79 C 66 80 66 80 65 80 C 64 80 64 80 64 79 C 63 73 62 63 61 58 Z"></path></svg>