<svg version="1.1" xmlns="http://www.w3.org/2000/svg" viewBox="0 0 100 100"><path stroke="#000000" stroke-width="0" stroke-linejoin="round" stroke-linecap="round" fill="#000000" d="M 50 75 C 58 75 65 63 65 50 C 65 37 58 25 50 25 C 42 25 35 37 35 50 C 35 63 42 75 50 75 Z M 43 48 C 46 45 50 41 53 38 C 55 36 57 38 55 40 C 52 43 48 47 45 50 C 43 52 41 50 43 48 Z M 41 41 C 44 38 48 34 51 31 C 53 29 55 31 53 33 C 50 36 46 40 43 43 C 41 45 39 43 41 41 Z M 50 80 C 39 80 30 66 30 50 C 30 34 39 20 50 20 C 61 20 70 34 70 50 C 70 66 61 80 50 80 Z"></path></svg>