<svg version="1.1" xmlns="http://www.w3.org/2000/svg" viewBox="0 0 100 100"><path stroke="#000000" stroke-width="0" stroke-linejoin="round" stroke-linecap="round" fill="#000000" d="M 90 80 C 90 83 88 85 85 85 C 60 85 40 85 15 85 C 12 85 10 83 10 80 C 10 77 12 75 15 75 C 40 75 60 75 85 75 C 88 75 90 77 90 80 Z M 90 20 C 90 23 88 25 85 25 C 60 25 40 25 15 25 C 12 25 10 23 10 20 C 10 17 12 15 15 15 C 40 15 60 15 85 15 C 88 15 90 17 90 20 Z M 90 65 C 90 68 88 70 85 70 C 60 70 40 70 15 70 C 12 70 10 68 10 65 C 10 62 12 60 15 60 C 40 60 60 60 85 60 C 88 60 90 62 90 65 Z M 90 35 C 90 38 88 40 85 40 C 60 40 40 40 15 40 C 12 40 10 38 10 35 C 10 32 12 30 15 30 C 40 30 60 30 85 30 C 88 30 90 32 90 35 Z M 90 50 C 90 53 88 55 85 55 C 60 55 40 55 15 55 C 12 55 10 53 10 50 C 10 47 12 45 15 45 C 40 45 60 45 85 45 C 88 45 90 47 90 50 Z"></path></svg>