<svg version="1.1" xmlns="http://www.w3.org/2000/svg" viewBox="0 0 100 100"><path stroke="#000000" stroke-width="0" stroke-linejoin="round" stroke-linecap="round" fill="#000000" d="M 35 38 C 35 35 35 31 35 28 C 35 25 35 23 40 22 C 45 21 45 23 45 26 C 45 29 45 33 45 36 C 50 35 50 35 55 34 C 55 31 55 27 55 24 C 55 21 55 19 60 18 C 65 17 65 19 65 22 C 65 25 65 29 65 32 C 70 31 70 31 75 30 C 80 29 80 31 80 34 C 80 37 80 39 75 40 C 70 41 70 41 65 42 C 65 45 65 49 65 52 C 70 51 70 51 75 50 C 80 49 80 51 80 54 C 80 57 80 59 75 60 C 70 61 70 61 65 62 C 65 65 65 69 65 72 C 65 75 65 77 60 78 C 55 79 55 77 55 74 C 55 71 55 67 55 64 C 50 65 50 65 45 66 C 45 66 45 66 45 66 C 45 69 45 73 45 76 C 45 79 45 81 40 82 C 35 83 35 81 35 78 C 35 75 35 71 35 68 C 35 68 35 68 35 68 C 35 68 35 68 35 68 C 35 68 35 68 35 68 C 30 69 30 69 25 70 C 20 71 20 69 20 66 C 20 63 20 61 25 60 C 30 59 30 59 35 58 C 35 58 35 58 35 58 C 35 55 35 51 35 48 C 30 49 30 49 25 50 C 20 51 20 49 20 46 C 20 43 20 41 25 40 C 30 39 30 39 35 38 Z M 45 46 C 45 49 45 53 45 56 C 45 56 45 56 45 56 C 45 56 45 56 45 56 C 50 55 50 55 55 54 C 55 54 55 54 55 54 C 55 51 55 47 55 44 C 50 45 50 45 45 46 Z"></path></svg>