<svg version="1.1" xmlns="http://www.w3.org/2000/svg" viewBox="0 0 100 100"><path stroke="#000000" stroke-width="0" stroke-linejoin="round" stroke-linecap="round" fill="#000000" d="M 45 46 C 45 49 45 53 45 56 C 45 56 45 56 45 56 C 45 56 45 56 45 56 C 50 55 50 55 55 54 C 55 54 55 54 55 54 C 55 51 55 47 55 44 C 50 45 50 45 45 46 Z M 45 66 C 40 67 40 67 40 67 C 35 68 35 68 35 66 C 35 60 35 40 35 38 C 35 35 35 31 35 28 C 35 25 35 23 40 22 C 45 21 45 23 45 26 C 45 29 45 33 45 36 C 50 35 50 35 55 34 C 60 33 60 33 60 33 C 65 32 65 32 65 34 C 65 40 65 60 65 62 C 65 65 65 69 65 72 C 65 75 65 77 60 78 C 55 79 55 77 55 74 C 55 71 55 67 55 64 C 50 65 50 65 45 66 Z"></path></svg>