<svg version="1.1" xmlns="http://www.w3.org/2000/svg" viewBox="0 0 100 100"><path stroke="#000000" stroke-width="0" stroke-linejoin="round" stroke-linecap="round" fill="#000000" d="M 48 54 C 46 55 45 56 45 58 C 45 62 45 66 45 74 C 45 76 45 77 48 76 C 51 75 51 75 54 74 C 60 72 67 65 67 57 C 67 48 58 50 55 51 C 52 52 50 53 48 54 Z M 47 45 C 49 44 51 43 54 42 C 60 40 75 40 75 57 C 75 69 66 79 54 83 C 51 84 45 86 38 86 C 35 86 35 83 35 80 C 35 56 35 36 35 20 C 35 17 37 15 40 15 C 43 15 45 17 45 20 C 45 36 45 41 45 43 C 45 46 45 46 47 45 Z"></path></svg>