<svg version="1.1" xmlns="http://www.w3.org/2000/svg" viewBox="0 0 100 100"><path stroke="#000000" stroke-width="0" stroke-linejoin="round" stroke-linecap="round" fill="#000000" d="M 55 80 C 55 83 54 85 52 87 C 50 89 48 90 45 90 C 42 90 38 90 35 88 C 31 85 31 80 35 80 C 36 80 38 80 39 81 C 40 82 41 83 43 84 C 45 85 47 84 48 83 C 49 82 50 81 50 79 C 50 78 50 77 50 75 C 50 70 50 62 50 61 C 50 60 55 58 55 59 C 55 60 55 70 55 75 C 55 77 55 79 55 80 Z M 54 52 C 60 50 64 49 68 52 C 72 55 73 58 73 62 C 73 66 69 72 61 74 C 57 75 56 75 56 74 C 56 71 56 71 59 70 C 62 69 64 68 65 66 C 66 64 66 62 66 61 C 66 59 63 56 60 56 C 57 56 52 58 46 61 C 44 62 43 62 43 61 C 43 60 45 56 54 52 Z M 42 38 C 49 34 49 37 49 38 C 49 39 48 40 47 41 C 45 43 36 53 36 59 C 36 64 37 67 40 69 C 43 71 46 71 46 71 C 47 71 49 71 49 72 C 49 75 49 75 46 75 C 39 75 34 74 31 71 C 28 68 27 64 27 59 C 27 53 29 50 32 46 C 35 42 39 40 42 38 Z M 50 12 C 50 9 54 10 58 12 C 62 14 63 16 64 17 C 66 20 66 21 66 22 C 66 26 63 30 58 35 C 56 37 55 33 57 30 C 59 27 61 24 61 22 C 61 22 61 20 58 18 C 55 16 55 18 55 19 C 55 20 55 49 55 50 C 55 51 50 53 50 52 C 50 51 50 18 50 16 C 50 13 50 15 50 12 Z"></path></svg>