<svg version="1.1" xmlns="http://www.w3.org/2000/svg" viewBox="0 0 100 100"><path stroke="#000000" stroke-width="0" stroke-linejoin="round" stroke-linecap="round" fill="#000000" d="M 55 80 C 55 81 56 82 56 84 C 56 87 53 90 50 90 C 47 90 44 87 44 84 C 44 82 45 81 45 80 C 45 77 45 69 45 60 C 36 58 30 50 30 41 C 30 35 30 30 30 24 C 30 18 40 18 40 24 C 40 30 40 35 40 41 C 40 47 44 51 50 51 C 56 51 60 47 60 41 C 60 35 60 30 60 24 C 60 18 70 18 70 24 C 70 30 70 35 70 41 C 70 50 64 58 55 60 C 55 69 55 77 55 80 Z"></path></svg>