<svg version="1.1" xmlns="http://www.w3.org/2000/svg" viewBox="0 0 100 100"><path stroke="#000000" stroke-width="0" stroke-linejoin="round" stroke-linecap="round" fill="#000000" d="M 67 35 C 66 35 65 35 64 35 C 64 42 64 48 64 54 C 64 57 59 57 59 54 C 59 48 59 42 59 35 C 58 35 57 35 56 35 C 56 42 56 48 56 54 C 56 57 51 57 51 54 C 51 48 51 42 51 35 C 50 35 42 35 41 35 C 41 42 41 48 41 54 C 41 57 36 57 36 54 C 36 48 36 42 36 35 C 35 35 34 35 33 35 C 33 42 33 48 33 54 C 33 57 28 57 28 54 C 28 48 28 42 28 35 C 27 35 27 35 27 35 C 26 35 25 36 25 37 C 25 45 25 55 25 63 C 25 64 26 65 27 65 C 42 65 58 65 73 65 C 74 65 75 64 75 63 C 75 55 75 45 75 37 C 75 36 74 35 73 35 C 73 35 72 35 72 35 C 72 42 72 48 72 54 C 72 57 67 57 67 54 C 67 48 67 42 67 35 Z M 20 64 C 20 55 20 45 20 36 C 20 33 23 30 26 30 C 42 30 58 30 74 30 C 77 30 80 33 80 36 C 80 45 80 55 80 64 C 80 67 77 70 74 70 C 58 70 42 70 26 70 C 23 70 20 67 20 64 Z"></path></svg>