<svg version="1.1" xmlns="http://www.w3.org/2000/svg" viewBox="0 0 100 100"><path stroke="#000000" stroke-width="0" stroke-linejoin="round" stroke-linecap="round" fill="#000000" d="M 60 20 C 60 26 56 30 50 30 C 44 30 40 26 40 20 C 40 14 44 10 50 10 C 70 10 80 20 80 33 C 80 40 73 48 67 49 C 62 50 62 50 67 51 C 73 52 80 60 80 67 C 80 80 70 90 50 90 C 44 90 40 86 40 80 C 40 74 44 70 50 70 C 56 70 60 74 60 80 C 65 79 68 75 68 69 C 68 61 64 57 57 57 C 53 57 50 58 48 60 C 48 54 43 51 40 50 C 43 49 48 46 48 40 C 50 42 53 43 57 43 C 64 43 68 39 68 31 C 68 25 65 21 60 20 C 60 20 60 20 60 20 Z M 37 90 C 36 90 35 90 35 89 C 35 60 35 40 35 11 C 35 10 36 10 37 10 C 38 10 39 10 39 11 C 39 40 39 60 39 89 C 39 90 38 90 37 90 Z M 25 90 C 21 90 20 89 20 88 C 20 60 20 40 20 12 C 20 11 21 10 25 10 C 29 10 30 11 30 12 C 30 40 30 60 30 88 C 30 89 29 90 25 90 Z"></path></svg>