<svg version="1.1" xmlns="http://www.w3.org/2000/svg" viewBox="0 0 100 100"><path stroke="#000000" stroke-width="0" stroke-linejoin="round" stroke-linecap="round" fill="#000000" d="M 55 70 C 55 73 53 75 50 75 C 47 75 45 73 45 70 C 34 70 28 70 26 70 C 24 70 23 69 23 68 C 23 62 25 55 30 51 C 30 44 34 37 40 33 C 41 28 45 25 50 25 C 55 25 59 28 60 33 C 66 37 70 44 70 51 C 75 55 77 62 77 68 C 77 69 76 70 74 70 C 72 70 66 70 55 70 Z M 25 42 C 22 42 20 40 20 37 C 20 34 22 32 25 32 C 26 32 26 34 25 34 C 24 34 22 35 22 37 C 22 39 24 40 25 40 C 26 40 26 42 25 42 Z M 24 47 C 20 47 15 43 15 37 C 15 31 20 27 24 27 C 26 27 26 30 24 30 C 21 30 18 33 18 37 C 18 41 21 44 24 44 C 26 44 26 47 24 47 Z M 75 32 C 78 32 80 34 80 37 C 80 40 78 42 75 42 C 74 42 74 40 75 40 C 76 40 78 39 78 37 C 78 35 76 34 75 34 C 74 34 74 32 75 32 Z M 76 27 C 80 27 85 31 85 37 C 85 43 80 47 76 47 C 74 47 74 44 76 44 C 79 44 82 41 82 37 C 82 33 79 30 76 30 C 74 30 74 27 76 27 Z"></path></svg>