<svg version="1.1" xmlns="http://www.w3.org/2000/svg" viewBox="0 0 100 100"><path stroke="#000000" stroke-width="0" stroke-linejoin="round" stroke-linecap="round" fill="#000000" d="M 53 30 C 57 31 59 33 61 38 C 63 43 66 56 70 62 C 72 65 80 65 80 70 C 80 73 78 75 75 75 C 72 75 66 75 55 75 C 55 78 53 80 50 80 C 47 80 45 78 45 75 C 34 75 28 75 25 75 C 22 75 20 73 20 70 C 20 65 28 65 30 62 C 34 56 37 43 39 38 C 41 33 43 31 47 30 C 47 27 47 25 47 23 C 47 19 53 19 53 23 C 53 25 53 27 53 30 Z M 30 45 C 27 45 25 43 25 40 C 25 37 27 35 30 35 C 31 35 31 37 30 37 C 29 37 27 38 27 40 C 27 42 29 43 30 43 C 31 43 31 45 30 45 Z M 29 50 C 25 50 20 46 20 40 C 20 34 25 30 29 30 C 31 30 31 33 29 33 C 26 33 23 36 23 40 C 23 44 26 47 29 47 C 31 47 31 50 29 50 Z M 70 35 C 73 35 75 37 75 40 C 75 43 73 45 70 45 C 69 45 69 43 70 43 C 71 43 73 42 73 40 C 73 38 71 37 70 37 C 69 37 69 35 70 35 Z M 71 30 C 75 30 80 34 80 40 C 80 46 75 50 71 50 C 69 50 69 47 71 47 C 74 47 77 44 77 40 C 77 36 74 33 71 33 C 69 33 69 30 71 30 Z"></path></svg>