<svg version="1.1" xmlns="http://www.w3.org/2000/svg" viewBox="0 0 100 100"><path stroke="#000000" stroke-width="0" stroke-linejoin="round" stroke-linecap="round" fill="#000000" d="M 67 60 C 63 60 54 60 48 64 C 42 69 42 77 48 82 C 54 86 60 90 56 90 C 51 90 40 90 34 85 C 28 80 28 65 34 60 C 40 55 45 54 51 54 C 52 54 53 54 51 53 C 51 53 51 53 51 53 C 51 53 51 53 51 53 C 47 51 43 49 39 47 C 37 46 37 46 40 42 C 43 38 46 34 49 30 C 55 22 41 13 38 11 C 36 10 40 9 46 12 C 50 14 54 16 58 18 C 62 20 64 21 68 23 C 70 24 70 24 67 28 C 64 32 61 36 58 40 C 53 47 63 54 67 57 C 70 59 70 60 67 60 Z"></path></svg>