<svg version="1.1" xmlns="http://www.w3.org/2000/svg" viewBox="0 0 100 100"><path stroke="#000000" stroke-width="0" stroke-linejoin="round" stroke-linecap="round" fill="#000000" d="M 53 30 C 57 31 59 33 61 38 C 63 43 66 56 70 62 C 72 65 80 65 80 70 C 80 73 78 75 75 75 C 72 75 66 75 55 75 C 55 78 53 80 50 80 C 47 80 45 78 45 75 C 34 75 28 75 25 75 C 22 75 20 73 20 70 C 20 65 28 65 30 62 C 34 56 37 43 39 38 C 41 33 43 31 47 30 C 47 27 47 25 47 23 C 47 19 53 19 53 23 C 53 25 53 27 53 30 Z"></path></svg>