<svg version="1.1" xmlns="http://www.w3.org/2000/svg" viewBox="0 0 100 100"><path stroke="#000000" stroke-width="0" stroke-linejoin="round" stroke-linecap="round" fill="#000000" d="M 30 14 C 30 12 32 10 34 10 C 50 10 70 10 86 10 C 88 10 90 12 90 14 C 90 30 90 60 90 75 C 90 83 83 90 75 90 C 67 90 60 83 60 75 C 60 67 67 60 75 60 C 77 60 77 60 79 60.5 C 80 61 80 60 80 58 C 80 50 80 30 80 22 C 80 21 79 20 78 20 C 70 20 50 20 42 20 C 41 20 40 21 40 22 C 40 30 40 60 40 75 C 40 83 33 90 25 90 C 17 90 10 83 10 75 C 10 67 17 60 25 60 C 27 60 27 60 29 60.5 C 30 61 30 60 30 58 C 30 50 30 40 30 14 Z"></path></svg>