<svg version="1.1" xmlns="http://www.w3.org/2000/svg" viewBox="0 0 100 100"><path stroke="#000000" stroke-width="0" stroke-linejoin="round" stroke-linecap="round" fill="#000000" d="M 46 70 C 44 63 42 56 40 49 C 37 62 36 75 40 75 C 41 75 41 75 42 73 C 43 71 46 70 46 70 Z M 50 69 C 54 69 57 71 58 73 C 59 75 59 75 60 75 C 68 75 56 25 52 25 C 50 25 50 25 48 25 C 47 25 45 29 42 40 C 44 48 48 62 50 69 Z M 40 32 C 43 22 44 20 45 20 C 49 20 51 20 55 20 C 60 20 75 80 65 80 C 56 80 44 80 35 80 C 28 80 33 54 37 40 C 37 40 35 33 33 26 C 32 22 37 21 38 25 C 38 25 40 32 40 32 Z"></path></svg>