<svg version="1.1" xmlns="http://www.w3.org/2000/svg" viewBox="0 0 100 100"><path stroke="#000000" stroke-width="0" stroke-linejoin="round" stroke-linecap="round" fill="#000000" d="M 54 70 C 54 70 57 71 58 73 C 59 75 59 75 60 75 C 64 75 63 62 60 49 C 58 56 56 63 54 70 Z M 50 69 C 52 62 56 48 58 40 C 55 29 53 25 52 25 C 50 25 50 25 48 25 C 44 25 32 75 40 75 C 41 75 41 75 42 73 C 43 71 46 69 50 69 Z M 60 32 C 60 32 62 25 62 25 C 63 21 68 22 67 26 C 65 33 63 40 63 40 C 67 54 72 80 65 80 C 56 80 44 80 35 80 C 25 80 40 20 45 20 C 49 20 51 20 55 20 C 56 20 57 22 60 32 Z"></path></svg>