<svg version="1.1" xmlns="http://www.w3.org/2000/svg" viewBox="0 0 100 100"><path stroke="#000000" stroke-width="0" stroke-linejoin="round" stroke-linecap="round" fill="#000000" d="M 20 23 C 20 17 23 14 28 12 C 37 9 47 10 54 13 C 61 16 66 20 66 30 C 66 42 57 53 50 62 C 44 70 35 79 28 86 C 22 92 20 90 20 88 C 20 87 22 85 23 84 C 27 80 50 47 50 36 C 50 28 46 20 40 18 C 39 18 40 21 40 23 C 40 29 36 33 30 33 C 24 33 20 29 20 23 Z M 70 20 C 70 17 72 15 75 15 C 78 15 80 17 80 20 C 80 23 78 25 75 25 C 72 25 70 23 70 20 Z M 70 40 C 70 37 72 35 75 35 C 78 35 80 37 80 40 C 80 43 78 45 75 45 C 72 45 70 43 70 40 Z"></path></svg>