<svg version="1.1" xmlns="http://www.w3.org/2000/svg" viewBox="0 0 100 100"><path stroke="#000000" stroke-width="0" stroke-linejoin="round" stroke-linecap="round" fill="#000000" d="M 40 50 C 40 55 45 60 50 60 C 55 60 60 55 60 50 C 60 45 55 40 50 40 C 45 40 40 45 40 50 Z M 68 68 C 68 72 65 75 61 77 C 57 79 53 78 50 76 C 47 78 43 79 39 77 C 35 75 32 72 32 68 C 28 68 25 65 23 61 C 21 57 22 53 24 50 C 22 47 21 43 23 39 C 25 35 28 32 32 32 C 32 28 35 25 39 23 C 43 21 47 22 50 24 C 53 22 57 21 61 23 C 65 25 68 28 68 32 C 72 32 75 35 77 39 C 79 43 78 47 76 50 C 78 53 79 57 77 61 C 75 65 72 68 68 68 Z"></path></svg>