<svg version="1.1" xmlns="http://www.w3.org/2000/svg" viewBox="0 0 100 100"><path stroke="#000000" stroke-width="0" stroke-linejoin="round" stroke-linecap="round" fill="#000000" d="M 54 17 C 52 19 52 19 53 22 C 50 20 50 20 47 22 C 48 19 48 19 46 17 C 49 17 49 17 50 14 C 51 17 51 17 54 17 Z M 34 80 C 32 80 29 80 29 79 C 32 75 35 70 38 62 C 38 62 38 62 38 62 C 37 62 34 62 34 61 C 37 56 40 51 43 43 C 43 43 40 43 40 42 C 44 35 47 30 50 21 C 53 30 56 35 60 42 C 60 43 57 43 57 43 C 60 51 63 56 66 61 C 66 62 63 62 62 62 C 65 70 68 75 71 79 C 71 80 68 80 66 80 C 63 80 57 80 53 80 C 53 84 55 90 53 90 C 51 90 49 90 47 90 C 45 90 47 84 47 80 C 43 80 37 80 34 80 Z"></path></svg>