<svg version="1.1" xmlns="http://www.w3.org/2000/svg" viewBox="0 0 100 100"><path stroke="#000000" stroke-width="0" stroke-linejoin="round" stroke-linecap="round" fill="#000000" d="M 65 70 C 65 74 65 75 65 77 C 65 80 65 80 60 80 C 55 80 55 80 55 77 C 55 73 55 71 55 69 C 51 70 48 70 43 70 C 39 70 35 65 34 62 C 33 59 35 59 38 58 C 44 56 45 55 39 57 C 36 58 35 58 32 59 C 28 60 22 57 22 52 C 16 50 15 46 15 43 C 15 39 18 34 22 33 C 23 29 26 27 31 27 C 34 25 37 24 41 25 C 43 22 47 20 50 20 C 52 20 54 21 55 21 C 57 21 58 20 60 20 C 64 20 67 22 70 25 C 74 25 78 27 79 30 C 82 32 83 34 84 40 C 85 43 85 46 84 50 C 84 53 84 57 77 60 C 78 62 78 63 78 65 C 78 67 75 71 71 71 C 69 71 67 71 65 70 Z"></path></svg>