<svg version="1.1" xmlns="http://www.w3.org/2000/svg" viewBox="0 0 100 100"><path stroke="#000000" stroke-width="0" stroke-linejoin="round" stroke-linecap="round" fill="#000000" d="M 25 40 C 22 34 24 32 30 35 C 40 40 40 40 44 30 C 44 30 46 25 46 25 C 48 20 52 20 54 25 C 54 25 56 30 56 30 C 60 40 60 40 70 35 C 76 32 78 34 75 40 C 70 50 70 50 76 50 C 83 50 83 52 80 55 C 80 55 75 60 75 60 C 72 64 72 64 74 70 C 76 77 70 72 66 70 C 62 68 57 69 54 72 C 51 75 57 90 53 90 C 51 90 49 90 47 90 C 43 90 49 75 46 72 C 43 69 38 68 34 70 C 30 72 24 76 26 70 C 28 64 28 64 25 60 C 25 60 20 55 20 55 C 17 52 17 50 25 50 C 30 50 30 50 25 40 Z"></path></svg>