<svg version="1.1" xmlns="http://www.w3.org/2000/svg" viewBox="0 0 100 100"><path stroke="#000000" stroke-width="0" stroke-linejoin="round" stroke-linecap="round" fill="#000000" d="M 40 61 C 40 60 38 60 36 61 C 34 62 32 62 30 62 C 24 62 20 58 20 53 C 20 47 24 43 30 45 C 35 47 38 47 39 47 C 41 47 48 40 57 40 C 72 40 78 48 78 58 C 81 58 82 62 72 62 C 70 62 70 64 70 65 C 70 68 68 70 65 70 C 62 70 60 68 60 65 C 60 64 60 64 60 63 C 60 62 50 62 50 63 C 50 64 50 64 50 65 C 50 68 48 70 45 70 C 42 70 40 68 40 65 C 40 64 40 63 40 61 Z"></path></svg>