<svg version="1.1" xmlns="http://www.w3.org/2000/svg" viewBox="0 0 100 100"><path stroke="#000000" stroke-width="0" stroke-linejoin="round" stroke-linecap="round" fill="#000000" d="M 44 35 C 41 36 41 34 41 33 C 41 31 43 29 44 29 C 46 29 46 29 47 27 C 48 25 48 25 49 23 C 50 21 50 21 51 23 C 52 25 52 25 53 27 C 54 29 54 29 56 29 C 57 29 59 31 59 33 C 59 34 59 36 56 35 C 53 34 54 35 56 39 C 58 43 60 46 60 51 C 60 56 56 60 51 61 C 50 61 50 66 51 68 C 52 70 52 71 52 73 C 52 75 52 76 51 78 C 50 80 49 81 50 78 C 51 75 51 75 51 73 C 51 71 51 71 50 68 C 49 65 49 65 49 63 C 49 61 48 61 48 61 C 44 60 40 56 40 51 C 40 46 42 43 44 39 C 46 35 47 34 44 35 Z"></path></svg>