<svg version="1.1" xmlns="http://www.w3.org/2000/svg" viewBox="0 0 100 100"><path stroke="#000000" stroke-width="0" stroke-linejoin="round" stroke-linecap="round" fill="#000000" d="M 53 28 C 53 30 54 31 56 31 C 58 31 59 30 59 28 C 59 26 58 25 56 25 C 54 25 53 26 53 28 Z M 48 50 C 48 53 50 55 53 55 C 56 55 58 53 58 50 C 58 47 56 45 53 45 C 50 45 48 47 48 50 Z M 65 42 C 65 45 67 47 70 47 C 73 47 75 45 75 42 C 75 39 73 37 70 37 C 67 37 65 39 65 42 Z M 32 33 C 32 36 34 38 37 38 C 40 38 42 36 42 33 C 42 30 40 28 37 28 C 34 28 32 30 32 33 Z M 28 50 C 28 52 29 53 31 53 C 33 53 34 52 34 50 C 34 48 33 47 31 47 C 29 47 28 48 28 50 Z M 41 58 C 35 59 31 59 26 59 C 20 59 20 53 20 50 C 20 34 34 20 50 20 C 67 20 80 34 80 50 C 80 53 80 59 74 59 C 69 59 65 59 59 58 C 53 57 60 77 60 85 C 60 88 58 90 56 90 C 53 90 47 90 45 90 C 42 90 40 88 40 85 C 40 77 47 57 41 58 Z"></path></svg>