<svg version="1.1" xmlns="http://www.w3.org/2000/svg" viewBox="0 0 100 100"><path stroke="#000000" stroke-width="0" stroke-linejoin="round" stroke-linecap="round" fill="#000000" d="M 29 6 C 29.167 5.667 29.333 5.333 29.5 5 C 29.833 4.667 30.167 4.333 30.5 4 C 30.667 4 30.833 4 31 4 C 32 5 33 6 34 7 C 34.667 8.333 35.333 9.667 36 11 C 37 13.333 38 15.667 39 18 C 40.333 21 41.667 24 43 27 C 43.333 28.667 43.667 30.333 44 32 C 44.333 34.333 44.667 36.667 45 39 C 45.333 41 45.667 43 46 45 C 46.333 44.833 46.667 44.667 47 44.5 C 48 44.333 49 44.167 50 44 C 51 44.167 52 44.333 53 44.5 C 53.333 44.667 53.667 44.833 54 45 C 54.333 43 54.667 41 55 39 C 55.333 36.667 55.667 34.333 56 32 C 56.333 30.333 56.667 28.667 57 27 C 58.333 24 59.667 21 61 18 C 62 15.667 63 13.333 64 11 C 64.667 9.667 65.333 8.333 66 7 C 67 6 68 5 69 4 C 69.167 4 69.333 4 69.5 4 C 69.833 4.333 70.167 4.667 70.5 5 C 70.667 5.333 70.833 5.667 71 6 C 70.667 8.333 70.333 10.667 70 13 C 70 14.667 70 16.333 70 18 C 70 19.667 70 21.333 70 23 C 70 25.333 70 27.667 70 30 C 69.667 32 69.333 34 69 36 C 68 38 67 40 66 42 C 65.333 44.333 64.667 46.667 64 49 C 64.667 51.667 65.333 54.333 66 57 C 67 59.667 68 62.333 69 65 C 69.333 67.333 69.667 69.667 70 72 C 69.667 74.667 69.333 77.333 69 80 C 68 82 67 84 66 86 C 64.333 87.333 62.667 88.667 61 90 C 59 91.333 57 92.667 55 94 C 53.333 94.333 51.667 94.667 50 95 C 48.333 94.667 46.667 94.333 45 94 C 43 92.667 41 91.333 39 90 C 37.333 88.667 35.667 87.333 34 86 C 33 84 32 82 31 80 C 30.667 77.333 30.333 74.667 30 72 C 30.333 69.667 30.667 67.333 31 65 C 32 62.333 33 59.667 34 57 C 34.667 54.333 35.333 51.667 36 49 C 35.333 46.667 34.667 44.333 34 42 C 33 40 32 38 31 36 C 30.667 34 30.333 32 30 30 C 30 27.667 30 25.333 30 23 C 30 21.333 30 19.667 30 18 C 30 16.333 30 14.667 30 13 C 29.667 10.667 29.333 8.333 29 6 Z"></path></svg>