<svg version="1.1" xmlns="http://www.w3.org/2000/svg" viewBox="0 0 100 100"><path stroke="#000000" stroke-width="0" stroke-linejoin="round" stroke-linecap="round" fill="#000000" d="M 49 25 C 50 19 50 19 51 25 C 51 25 51 25 53 27 C 60 34 48 41 59 36 C 62 35 63 34 65 33 C 67 32 71 33 74 39 C 74 39 77 44 77 44 C 80 49 80 53 79 59 C 78 65 77 64 74 62 C 71 60 68 58 65 56 C 62 54 60 55 58 60 C 56 65 55 65 57 68 C 65 80 65 80 50 80 C 35 80 35 80 43 68 C 45 65 44 65 42 60 C 40 55 38 54 35 56 C 32 58 29 60 26 62 C 23 64 22 65 21 59 C 20 53 20 49 23 44 C 23 44 26 39 26 39 C 29 34 33 33 35 34 C 37 35 38 36 41 37 C 52 41 40 34 47 27 C 49 25 49 25 49 25 Z"></path></svg>