<svg version="1.1" xmlns="http://www.w3.org/2000/svg" viewBox="0 0 100 100"><path stroke="#000000" stroke-width="0" stroke-linejoin="round" stroke-linecap="round" fill="#000000" d="M 71 43 C 71 46 71 49 68 52 C 65 55 55 55 55 62 C 55 65 55 80 55 85 C 55 90 55 90 50 90 C 45 90 45 90 45 85 C 45 80 45 73 45 70 C 45 63 35 63 32 60 C 29 57 29 54 29 51 C 29 48 29 45 29 42 C 29 38 31 36 34 36 C 37 36 39 38 39 42 C 39 45 39 45 39 48 C 39 50 39 53 42 53 C 45 53 45 50 45 48 C 45 45 45 30 45 25 C 45 22 47 20 50 20 C 53 20 55 22 55 25 C 55 30 55 34 55 40 C 55 42 55 45 58 45 C 61 45 61 42 61 40 C 61 37 61 37 61 34 C 61 30 63 28 66 28 C 69 28 71 30 71 34 C 71 37 71 40 71 43 Z"></path></svg>