<svg version="1.1" xmlns="http://www.w3.org/2000/svg" viewBox="0 0 100 100"><path stroke="#000000" stroke-width="0" stroke-linejoin="round" stroke-linecap="round" fill="#000000" d="M 58 50 C 59 51 61 53 62 54 C 64 56 71 53 76 57 C 81 61 81 66 77 70 C 76 71 73 71 72 72 C 71 73 71 76 70 77 C 66 81 61 81 57 76 C 53 71 56 64 54 62 C 53 61 51 59 50 58 C 49 59 47 61 46 62 C 44 64 47 71 43 76 C 39 81 34 81 30 77 C 29 76 29 73 28 72 C 27 71 24 71 23 70 C 19 66 19 61 24 57 C 29 53 36 56 38 54 C 39 53 41 51 42 50 C 41 49 39 47 38 46 C 36 44 29 47 24 43 C 19 39 19 34 23 30 C 24 29 27 29 28 28 C 29 27 29 24 30 23 C 34 19 39 19 43 24 C 47 29 44 36 46 38 C 47 39 49 41 50 42 C 51 41 53 39 54 38 C 56 36 53 29 57 24 C 61 19 67 19 70 22 C 71 23 71 27 72 28 C 73 29 77 29 78 30 C 81 33 81 39 76 43 C 71 47 64 44 62 46 C 61 47 59 49 58 50 Z"></path></svg>