<svg version="1.1" xmlns="http://www.w3.org/2000/svg" viewBox="0 0 100 100"><path stroke="#000000" stroke-width="0" stroke-linejoin="round" stroke-linecap="round" fill="#000000" d="M 22 37 C 20 35 20 35 22 35 C 24 35 30 37 33 39 C 36 41 38 42 40 42 C 42 42 44 42 45 40 C 46 38 44 34 42 32 C 41 31 40 30 42 30 C 55 30 58 40 62 40 C 70 40 75 44 78 46 C 81 48 81 52 78 54 C 75 56 70 60 62 60 C 58 60 55 70 42 70 C 40 70 41 69 42 68 C 44 66 46 62 45 60 C 44 58 42 58 40 58 C 38 58 36 59 33 61 C 30 63 24 66 22 66 C 20 66 20 66 22 64 C 24 62 30 53 30 50 C 30 47 24 39 22 37 Z"></path></svg>