<svg version="1.1" xmlns="http://www.w3.org/2000/svg" viewBox="0 0 100 100"><path stroke="#000000" stroke-width="0" stroke-linejoin="round" stroke-linecap="round" fill="#000000" d="M 51 40 C 49 36 52 28 51 25 C 50 23 46 25 44 25 C 41 25 40 27 38 28 C 33 30 32 33 32 38 C 28 41 24 46 27 48 C 30 50 33 54 35 54 C 37 54 39 49 41 49 C 43 47 44 45 47 46 C 51 48 54 42 51 40 Z M 61 42 C 58 42 56 45 56 48 C 56 50 54 52 56 52 C 58 52 58 54 60 54 C 62 54 66 54 67 52 C 68 50 70 51 71 51 C 73 52 76 49 76 48 C 75 47 75 45 75 43 C 75 40 72 40 70 40 C 68 39 67 41 61 42 Z M 66 37 C 66 37 71 37 72 33 C 71 32 70 32 72 31 C 72 31 72 29 70 27 C 68 26 66 29 63 27 C 60 25 59 28 57 26 C 55 23 54 26 53 33 C 53 36 54 34 54 37 C 54 40 58 36 58 38 C 58 40 62 39 66 37 Z M 36 58 C 32 58 27 52 27 57 C 27 58 28 60 27 60 C 26 60 26 60 26 62 C 26 63 30 66 30 70 C 31 72 31 74 32 75 C 33 76 37 74 39 74 C 41 74 43 73 45 72 C 47 70 44 67 42 65 C 40 64 39 59 36 58 Z M 61 71 C 63 70 71 73 73 69 C 74 65 74 61 75 57 C 76 53 70 58 67 57 C 65 56 59 57 55 57 C 52 55 52 47 45 51 C 40 54 42 57 43 61 C 44 65 49 65 50 67 C 51 69 53 69 52 70 C 53 71 59 72 61 71 Z M 46 74 C 45 74 44 76 42 76 C 39 77 34 83 29 77 C 26 74 28 68 27 68 C 24 67 21 68 21 59 C 20 58 22 57 24 54 C 25 53 23 53 22 48 C 22 45 28 34 28 32 C 28 21 36 29 37 25 C 37 22 40 22 42 22 C 44 22 45 23 48 22 C 54 17 58 24 62 22 C 64 21 64 24 70 24 C 74 23 77 29 76 32 C 74 36 82 43 79 49 C 78 51 79 52 79 54 C 79 57 78 62 78 64 C 78 66 81 67 74 76 C 73 78 64 75 62 76 C 52 84 53 74 48 74 C 50 74 47 74 46 74 Z"></path></svg>