<svg version="1.1" xmlns="http://www.w3.org/2000/svg" viewBox="0 0 100 100"><path stroke="#000000" stroke-width="0" stroke-linejoin="round" stroke-linecap="round" fill="#000000" d="M 49 59 C 48 63 48 63 47 67 C 46 71 45 73 42 76 C 37 81 29 81 24 76 C 19 71 19 63 24 58 C 27 55 29 54 33 53 C 37 52 37 52 41 51 C 45 50 45 50 41 49 C 37 48 37 48 33 47 C 29 46 27 45 24 42 C 19 37 19 29 24 24 C 29 19 37 19 42 24 C 45 27 46 29 47 33 C 48 37 48 37 49 41 C 50 45 50 45 51 41 C 52 37 52 37 53 33 C 54 29 55 27 58 24 C 63 19 71 19 76 24 C 81 29 81 37 76 42 C 73 45 71 46 67 47 C 63 48 63 48 59 49 C 55 50 55 50 59 51 C 63 52 63 52 67 53 C 71 54 73 55 76 58 C 81 63 81 71 76 76 C 71 81 63 81 58 76 C 55 73 54 71 53 67 C 52 63 52 63 51 59 C 50 55 50 55 49 59 Z"></path></svg>