<svg version="1.1" xmlns="http://www.w3.org/2000/svg" viewBox="0 0 100 100"><path stroke="#000000" stroke-width="0" stroke-linejoin="round" stroke-linecap="round" fill="#000000" d="M 78 37 C 76 39 70 47 70 50 C 70 53 76 62 78 64 C 80 66 80 66 78 66 C 76 66 70 63 67 61 C 64 59 62 58 60 58 C 58 58 56 58 55 60 C 54 62 56 66 58 68 C 59 69 60 70 58 70 C 45 70 42 60 38 60 C 30 60 25 56 22 54 C 19 52 19 48 22 46 C 25 44 30 40 38 40 C 42 40 45 30 58 30 C 60 30 59 31 58 32 C 56 34 54 38 55 40 C 56 42 58 42 60 42 C 62 42 64 41 67 39 C 70 37 76 35 78 35 C 80 35 80 35 78 37 Z"></path></svg>