<svg version="1.1" xmlns="http://www.w3.org/2000/svg" viewBox="0 0 100 100"><path stroke="#000000" stroke-width="0" stroke-linejoin="round" stroke-linecap="round" fill="#000000" d="M 27 49 C 27 49 39 51 39 51 C 39 51 30 43 30 43 C 30 43 27 49 27 49 Z M 67 54 C 67 54 72 55 72 55 C 72 55 70 52 70 52 C 70 52 67 54 67 54 Z M 45 44 C 45 44 60 48 60 48 C 60 48 50 33 50 33 C 50 33 45 44 45 44 Z M 20 80 C 17 80 13 80 10 80 C 10 80 30 40 30 40 C 30 40 40 50 40 50 C 40 50 50 30 50 30 C 50 30 65 53 65 53 C 65 53 70 50 70 50 C 70 50 90 80 90 80 C 87 80 83 80 80 80 C 80 80 80 80 80 80 C 70 80 60 80 50 80 C 50 80 50 80 50 80 C 40 80 30 80 20 80 Z"></path></svg>