<svg version="1.1" xmlns="http://www.w3.org/2000/svg" viewBox="0 0 100 100"><path stroke="#000000" stroke-width="0" stroke-linejoin="round" stroke-linecap="round" fill="#000000" d="M 57 69 C 60 64 63 59 67 53 C 63 55 63 55 59 57 C 59 55 59 52 59 49 C 57 52 55 55 53 58 C 52 54 51 49 50 44 C 49 49 48 54 47 58 C 45 55 43 52 41 49 C 41 52 41 55 41 57 C 37 55 37 55 33 53 C 37 59 40 64 43 69 C 46 73 54 73 57 69 Z M 55 68 C 52 71 48 71 45 68 C 43 66 41 63 38 58 C 40 59 42 60 44 61 C 44 60 44 59 44 57 C 46 59 46 59 48 61 C 49 58 49 58 50 54 C 51 58 51 58 52 61 C 54 59 54 59 56 57 C 56 59 56 60 56 61 C 58 60 60 59 62 58 C 59 63 57 66 55 68 Z M 63 71 C 57 80 43 80 37 71 C 30 60 24 50 16 38 C 24 42 24 42 32 46 C 32 42 32 36 32 30 C 36 36 40 42 44 48 C 46 40 48 31 50 22 C 52 31 54 40 56 48 C 60 42 64 36 68 30 C 68 36 68 42 68 46 C 76 42 76 42 84 38 C 76 50 70 60 63 71 Z"></path></svg>