<svg version="1.1" xmlns="http://www.w3.org/2000/svg" viewBox="0 0 100 100"><path stroke="#000000" stroke-width="0" stroke-linejoin="round" stroke-linecap="round" fill="#000000" d="M 15 50 C 15 44 19 40 25 40 C 31 40 35 44 35 50 C 35 56 31 60 25 60 C 19 60 15 56 15 50 Z M 65 50 C 65 44 69 40 75 40 C 81 40 85 44 85 50 C 85 56 81 60 75 60 C 69 60 65 56 65 50 Z M 52 30 C 52 24 56 20 62 20 C 68 20 72 24 72 30 C 72 36 68 40 62 40 C 56 40 52 36 52 30 Z M 28 30 C 28 24 32 20 38 20 C 44 20 48 24 48 30 C 48 36 44 40 38 40 C 32 40 28 36 28 30 Z M 33 63 C 33 54 41 46 50 46 C 59 46 67 54 67 63 C 67 72 59 80 50 80 C 41 80 33 72 33 63 Z"></path></svg>