<svg version="1.1" xmlns="http://www.w3.org/2000/svg" viewBox="0 0 100 100"><path stroke="#000000" stroke-width="0" stroke-linejoin="round" stroke-linecap="round" fill="#000000" d="M 61 56 C 63 61 74 62 74 72 C 74 84 53 78 50 78 C 47 78 26 84 26 72 C 26 62 37 61 39 56 C 41 50 43 44 50 44 C 57 44 59 50 61 56 Z M 20 48 C 20 43 21 39 26 39 C 32 39 38 43 38 48 C 38 53 33 57 30 57 C 23 57 20 53 20 48 Z M 62 48 C 62 43 68 39 74 39 C 79 39 80 43 80 48 C 80 53 77 57 70 57 C 67 57 62 53 62 48 Z M 52 33 C 52 25 55 21 61 21 C 68 21 70 25 70 33 C 70 37 67 41 57 41 C 53 41 52 37 52 33 Z M 30 33 C 30 25 32 21 39 21 C 45 21 48 25 48 33 C 48 37 47 41 43 41 C 33 41 30 37 30 33 Z"></path></svg>