<svg version="1.1" xmlns="http://www.w3.org/2000/svg" viewBox="0 0 100 100"><path stroke="#000000" stroke-width="0" stroke-linejoin="round" stroke-linecap="round" fill="#000000" d="M 57 45 C 57 47 58 48 60 48 C 62 48 63 47 63 45 C 63 43 62 42 60 42 C 58 42 57 43 57 45 Z M 53 70 C 53 72 54 73 56 73 C 58 73 59 72 59 70 C 59 68 58 67 56 67 C 54 67 53 68 53 70 Z M 42 53 C 42 55 43 56 45 56 C 47 56 48 55 48 53 C 48 51 47 50 45 50 C 43 50 42 51 42 53 Z M 58 61 C 58 63 59 64 61 64 C 63 64 64 63 64 61 C 64 59 63 58 61 58 C 59 58 58 59 58 61 Z M 36 61 C 36 63 37 64 39 64 C 41 64 42 63 42 61 C 42 59 41 58 39 58 C 37 58 36 59 36 61 Z M 41 70 C 41 72 42 73 44 73 C 46 73 47 72 47 70 C 47 68 46 67 44 67 C 42 67 41 68 41 70 Z M 52 53 C 52 55 53 56 55 56 C 57 56 58 55 58 53 C 58 51 57 50 55 50 C 53 50 52 51 52 53 Z M 37 45 C 37 47 38 48 40 48 C 42 48 43 47 43 45 C 43 43 42 42 40 42 C 38 42 37 43 37 45 Z M 34 40 C 36 38 36 38 38 37 C 40 36 38 36 38 31 C 38 29 39 27 40 25 C 34 18 33 18 34 17 C 35 16 35 17 42 23 C 44 21 48 20 50 20 C 52 20 56 21 58 23 C 65 17 65 16 66 17 C 67 18 66 18 60 25 C 61 27 62 29 62 31 C 62 36 60 36 62 37 C 64 38 64 38 66 40 C 69 38 72 36 75 34 C 77 33 79 36 77 37 C 74 39 71 41 68 43 C 69 45 70 48 70 52 C 73 52 76 52 79 52 C 81 52 81 55 79 55 C 76 55 73 55 70 55 C 70 59 69 63 67 67 C 70 69 73 71 76 73 C 78 74 76 77 74 76 C 71 74 68 72 65 70 C 61 77 55 80 50 80 C 45 80 39 77 35 70 C 32 72 29 74 26 76 C 24 77 22 74 24 73 C 27 71 30 69 33 67 C 31 63 30 59 30 55 C 27 55 24 55 21 55 C 19 55 19 52 21 52 C 24 52 27 52 30 52 C 30 48 31 45 32 43 C 29 41 26 39 23 37 C 21 36 23 33 25 34 C 28 36 31 38 34 40 Z"></path></svg>