<svg version="1.1" xmlns="http://www.w3.org/2000/svg" viewBox="0 0 100 100"><path stroke="#000000" stroke-width="0" stroke-linejoin="round" stroke-linecap="round" fill="#000000" d="M 42.2 20.013 C 43.467 19.675 44.734 19.338 46 19 C 48.667 19 51.333 19 54 19 C 55.253 19.334 56.505 19.668 57.758 20.002 C 57.917 20.5 57.833 20.25 57.75 20 C 57.756 19.989 57.761 19.977 57.767 19.965 C 57.844 19.81 57.923 19.656 58 19.5 C 58.667 19.083 59.333 18.667 60 18.25 C 60.333 18.167 60.667 18.083 61 18 C 65.333 18.5 69.667 19 74 19.5 C 77.667 19 81.333 18.5 85 18 C 86 18.667 87 19.333 88 20 C 88.583 20.667 89.167 21.333 89.75 22 C 88.833 28 87.917 34 87 40 C 87.333 44.667 87.667 49.333 88 54 C 87.667 55 87.333 56 87 57 C 86.333 57.333 85.667 57.667 85 58 C 83.917 57.833 82.833 57.667 81.75 57.5 C 80.849 56.807 79.947 56.113 79.046 55.42 C 79.031 55.394 79.015 55.368 79 55.342 C 79 56.561 79 57.781 79 59 C 78.833 60 78.667 61 78.5 62 C 76 67 73.5 72 71 77 C 70.667 78 70.333 79 70 80 C 69.667 81.333 69.333 82.667 69 84 C 68.333 85 67.667 86 67 87 C 66 87.5 65 88 64 88.5 C 63.333 88.6 62.667 88.7 62 88.8 C 61.667 88.867 61.333 88.933 61 89 C 60.1 88.82 59.2 88.64 58.3 88.46 C 56.836 88.791 55.418 89.146 54 89.5 C 52.667 89.667 51.333 89.833 50 90 C 48.667 89.833 47.333 89.667 46 89.5 C 44.625 89.156 43.249 88.812 41.874 88.468 C 41.852 88.458 41.831 88.448 41.809 88.438 C 40.872 88.626 39.936 88.813 39 89 C 38.667 88.933 38.333 88.867 38 88.8 C 37.333 88.7 36.667 88.6 36 88.5 C 35 88 34 87.5 33 87 C 32.333 86 31.667 85 31 84 C 30.667 82.667 30.333 81.333 30 80 C 29.667 79 29.333 78 29 77 C 26.5 72 24 67 21.5 62 C 21.333 61 21.167 60 21 59 C 21 57.862 21 56.723 21 55.585 C 21.347 55.17 21.195 55.339 21.041 55.51 C 20.445 56.173 19.847 56.837 19.25 57.5 C 17.833 57.667 16.417 57.833 15 58 C 14.333 57.667 13.667 57.333 13 57 C 12.667 56 12.333 55 12 54 C 12.333 49.333 12.667 44.667 13 40 C 12.083 34 11.167 28 10.25 22 C 10.833 21.333 11.417 20.667 12 20 C 13 19.333 14 18.667 15 18 C 18.667 18.5 22.333 19 26 19.5 C 30.333 19 34.667 18.5 39 18 C 39.333 18.083 39.667 18.167 40 18.25 C 40.667 18.667 41.333 19.083 42 19.5 C 42.077 19.654 42.154 19.808 42.231 19.963 Z"></path></svg>