<svg version="1.1" xmlns="http://www.w3.org/2000/svg" viewBox="0 0 100 100"><path stroke="#000000" stroke-width="0" stroke-linejoin="round" stroke-linecap="round" fill="#000000" d="M 54 63 C 52 60 60 90 54 90 C 52 90 48 90 46 90 C 40 90 48 60 46 63 C 44 65 42 65 41 65 C 40 65 37 63 36 63 C 35 63 32 65 29 65 C 25 65 20 60 20 54 C 20 50 23 46 23 43 C 23 33 30 25 37 26 C 42 27 43 20 50 20 C 57 20 58 27 63 26 C 70 25 77 33 77 43 C 77 46 80 50 80 54 C 80 60 75 65 71 65 C 68 65 65 63 64 63 C 63 63 60 65 59 65 C 58 65 56 65 54 63 Z"></path></svg>