<svg version="1.1" xmlns="http://www.w3.org/2000/svg" viewBox="0 0 100 100"><path stroke="#000000" stroke-width="0" stroke-linejoin="round" stroke-linecap="round" fill="#000000" d="M 40 50 C 40 55 45 60 50 60 C 55 60 60 55 60 50 C 60 45 55 40 50 40 C 45 40 40 45 40 50 Z M 60 74 C 58 77 54 80 50 80 C 46 80 42 77 40 74 C 36 75 32 74 29 71 C 26 68 25 64 26 60 C 23 58 20 54 20 50 C 20 46 23 42 26 40 C 25 36 26 32 29 29 C 32 26 36 25 40 26 C 42 23 46 20 50 20 C 54 20 58 23 60 26 C 64 25 68 26 71 29 C 74 32 75 36 74 40 C 77 42 80 46 80 50 C 80 54 77 58 74 60 C 75 64 74 68 71 71 C 68 74 64 75 60 74 Z"></path></svg>