<svg version="1.1" xmlns="http://www.w3.org/2000/svg" viewBox="0 0 100 100"><path stroke="#000000" stroke-width="0" stroke-linejoin="round" stroke-linecap="round" fill="#000000" d="M 34 40 C 36 38 36 38 38 37 C 40 36 38 36 38 31 C 38 29 39 27 40 25 C 34 18 33 18 34 17 C 35 16 35 17 42 23 C 44 21 48 20 50 20 C 52 20 56 21 58 23 C 65 17 65 16 66 17 C 67 18 66 18 60 25 C 61 27 62 29 62 31 C 62 36 60 36 62 37 C 64 38 64 38 66 40 C 69 38 72 36 75 34 C 77 33 79 36 77 37 C 74 39 71 41 68 43 C 69 45 70 48 70 52 C 73 52 76 52 79 52 C 81 52 81 55 79 55 C 76 55 73 55 70 55 C 70 59 69 63 67 67 C 70 69 73 71 76 73 C 78 74 76 77 74 76 C 71 74 68 72 65 70 C 61 77 55 80 50 80 C 45 80 39 77 35 70 C 32 72 29 74 26 76 C 24 77 22 74 24 73 C 27 71 30 69 33 67 C 31 63 30 59 30 55 C 27 55 24 55 21 55 C 19 55 19 52 21 52 C 24 52 27 52 30 52 C 30 48 31 45 32 43 C 29 41 26 39 23 37 C 21 36 23 33 25 34 C 28 36 31 38 34 40 Z"></path></svg>