<svg version="1.1" xmlns="http://www.w3.org/2000/svg" viewBox="0 0 100 100"><path stroke="#000000" stroke-width="0" stroke-linejoin="round" stroke-linecap="round" fill="#000000" d="M 50 77 C 45 78 45 78 40 79 C 31 81 31 81 30 79 C 29 77 29 77 41 75 C 41 75 41 75 41 75 C 29 73 29 73 30 71 C 31 69 31 69 40 71 C 45 72 45 72 50 73 C 55 72 55 72 60 71 C 69 69 69 69 70 71 C 71 73 71 73 59 75 C 59 75 59 75 59 75 C 71 77 71 77 70 79 C 69 81 69 81 60 79 C 55 78 55 78 50 77 Z M 53 69 C 50 71 50 71 47 69 C 44 67 44 67 41 68 C 38 69 38 69 35 68 C 32 67 27 63 27 55 C 27 49 29 42 30 39 C 32 33 34 28 35 25 C 36 22 36 22 37 25 C 38 28 40 33 41 36 C 42 39 43 39 44 36 C 45 33 48 25 49 22 C 50 19 50 19 51 22 C 52 25 55 33 56 36 C 57 39 58 39 59 36 C 60 33 62 28 63 25 C 64 22 64 22 65 25 C 66 28 68 33 70 39 C 71 42 73 49 73 55 C 73 63 68 67 65 68 C 62 69 62 69 59 68 C 56 67 56 67 53 69 Z"></path></svg>