<svg version="1.1" xmlns="http://www.w3.org/2000/svg" viewBox="0 0 100 100"><path stroke="#000000" stroke-width="0" stroke-linejoin="round" stroke-linecap="round" fill="#000000" d="M 24 10 C 29.333 17 34.667 24 40 31 C 46.667 31 53.333 31 60 31 C 65.333 24 70.667 17 76 10 C 78.333 19.333 80.667 28.667 83 38 C 84.333 40.667 85.667 43.333 87 46 C 87 49.667 87 53.333 87 57 C 85.667 59.667 84.333 62.333 83 65 C 80.333 68 77.667 71 75 74 C 71.667 76.667 68.333 79.333 65 82 C 61 83 57 84 53 85 C 51 85 49 85 47 85 C 43 84 39 83 35 82 C 31.667 79.333 28.333 76.667 25 74 C 22.333 71 19.667 68 17 65 C 15.667 62.333 14.333 59.667 13 57 C 13 53.333 13 49.667 13 46 C 14.333 43.333 15.667 40.667 17 38 C 19.333 28.667 21.667 19.333 24 10 Z"></path></svg>