<svg version="1.1" xmlns="http://www.w3.org/2000/svg" viewBox="0 0 100 100"><path stroke="#000000" stroke-width="0" stroke-linejoin="round" stroke-linecap="round" fill="#000000" d="M 47 40 C 43 38 40 35 40 30 C 40 24 44 20 50 20 C 56 20 60 24 60 30 C 60 35 57 38 53 40 C 53 41 53 41 53 42 C 56 42 57 42 60 42 C 64 42 72 50 75 53 C 78 56 73 61 70 58 C 67 55 62 50 60 50 C 60 55 60 83 60 86 C 60 88 58 90 56 90 C 54 90 52 88 52 86 C 52 83 52 73 52 70 C 51 70 49 70 48 70 C 48 73 48 83 48 86 C 48 88 46 90 44 90 C 42 90 40 88 40 86 C 40 83 40 55 40 50 C 38 50 33 55 30 58 C 27 61 22 56 25 53 C 28 50 36 42 40 42 C 43 42 44 42 47 42 C 47 41 47 41 47 40 Z"></path></svg>