<svg version="1.1" xmlns="http://www.w3.org/2000/svg" viewBox="0 0 100 100"><path stroke="#000000" stroke-width="0" stroke-linejoin="round" stroke-linecap="round" fill="#000000" d="M 43 74 C 46 74 54 74 57 74 C 58 74 58 74 58 73 C 58 66 58 34 58 27 C 58 26 58 26 57 26 C 54 26 46 26 44 26 C 42 26 42 26 40 24 C 38 22 30 14 28 12 C 27 11 26 10 28 10 C 30 10 54 10 56 10 C 58 10 58 10 60 12 C 62 14 69 21 72 24 C 74 26 74 26 74 29 C 74 34 74 66 74 71 C 74 74 74 74 72 76 C 70 78 62 86 60 88 C 58 90 58 90 56 90 C 54 90 46 90 44 90 C 42 90 42 90 40 88 C 38 86 30 78 28 76 C 26 74 26 74 26 71 C 26 70 26 62 26 60 C 26 58 27 59 28 60 C 30 62 38 70 40 72 C 42 74 42 74 43 74 Z"></path></svg>