<svg version="1.1" xmlns="http://www.w3.org/2000/svg" viewBox="0 0 100 100"><path stroke="#000000" stroke-width="0" stroke-linejoin="round" stroke-linecap="round" fill="#000000" d="M 46 80 C 46 74 46 65 46 60 C 46 59 46 57 43 56 C 28 52 28 36 28 26 C 28 21 31 10 35 10 C 40 10 60 10 65 10 C 69 10 72 21 72 26 C 72 36 72 52 57 56 C 54 57 54 59 54 60 C 54 65 54 74 54 80 C 54 81 54 82 56 83 C 60 85 64 86 65 88 C 66 90 65 90 63 90 C 56 90 44 90 37 90 C 35 90 34 90 35 88 C 36 86 40 85 44 83 C 46 82 46 81 46 80 Z"></path></svg>