<svg version="1.1" xmlns="http://www.w3.org/2000/svg" viewBox="0 0 100 100"><path stroke="#000000" stroke-width="0" stroke-linejoin="round" stroke-linecap="round" fill="#000000" d="M 39.335 81.587 C 39.804 81.324 40.744 81.455 41.72 81.925 C 43.43 82.751 44.387 84.103 44.838 86.339 C 45.214 88.291 45.176 88.235 45.795 87.633 C 46.546 86.92 47.148 85.793 47.955 83.633 C 48.782 81.38 48.856 81.305 49.795 81.568 C 50.546 81.775 50.528 81.719 50.227 82.957 C 49.927 84.179 48.838 86.563 48.218 87.352 C 47.26 88.573 46.378 89.08 45.156 89.155 C 43.486 89.231 42.171 88.479 40.8 86.601 C 39.542 84.911 38.678 81.944 39.335 81.587 Z M 40.387 66.563 C 40.612 66.263 40.724 66.281 41.683 66.657 C 42.96 67.145 43.091 67.315 43.11 68.648 C 43.128 69.661 43.222 70.357 43.598 72.065 C 43.73 72.704 44.612 74.789 45.119 75.633 C 45.702 76.629 47.204 78 48.256 78.488 C 48.706 78.695 49.495 78.939 50.002 78.995 C 50.528 79.071 51.542 79.259 52.256 79.389 C 52.988 79.54 54.002 79.709 54.508 79.765 C 55.035 79.84 55.674 79.915 55.974 79.953 C 58.716 80.329 59.636 80.423 61.27 80.517 C 63.598 80.648 65.832 81.061 66.978 81.549 C 68.538 82.244 69.57 83.935 68.988 84.779 C 68.575 85.361 68.368 85.343 67.354 84.611 C 66.471 83.991 64.687 83.089 64.048 82.957 C 63.862 82.92 63.204 82.769 62.584 82.601 C 61.964 82.451 60.988 82.281 60.424 82.207 C 59.862 82.151 59.184 82.075 58.922 82.037 C 58.659 81.981 57.87 81.907 57.138 81.831 C 56.424 81.756 55.786 81.681 55.73 81.643 C 55.674 81.625 54.96 81.531 54.134 81.455 C 53.307 81.38 52.594 81.305 52.538 81.268 C 52.48 81.231 52.068 81.155 51.598 81.099 C 50.284 80.929 46.922 79.897 46.171 79.447 C 43.804 78.037 42.696 76.873 41.664 74.695 C 41.044 73.361 40.932 72.929 40.594 70.281 C 40.199 67.277 40.18 66.864 40.387 66.563 Z M 50.246 52.309 C 50.478 52.179 50.71 52.047 50.94 51.915 C 50.978 52.203 51.016 52.491 51.054 52.779 C 51.11 53.268 51.148 59.145 51.148 65.869 C 51.142 69.937 51.135 74.007 51.128 78.075 C 50.91 78.093 50.69 78.113 50.471 78.131 C 50.114 78.169 49.646 78.056 49.438 77.907 C 49.063 77.643 49.063 77.417 49.063 65.625 C 49.082 56.329 49.119 53.512 49.307 53.155 C 49.438 52.929 49.852 52.535 50.246 52.309 Z M 51.674 47.633 C 52.8 47.259 54.058 47.183 54.978 47.447 C 56.368 47.859 58.246 48.967 59.486 50.131 C 61.87 52.347 63.054 54.62 63.148 57.211 C 63.298 61.173 60.312 63.991 53.852 65.925 C 52.443 66.357 52.236 66.319 52.124 65.625 C 51.974 64.553 52.199 64.235 53.664 63.465 C 55.936 62.281 57.927 60.553 59.128 58.732 C 59.786 57.737 59.88 57.512 59.842 56.611 C 59.804 55.784 59.674 55.427 59.091 54.639 C 57.664 52.648 54.078 50.563 52.124 50.563 C 50.227 50.563 48.068 52.235 46.04 55.259 C 45.006 56.779 43.654 60.009 43.486 61.305 C 43.372 62.056 43.279 62.075 42.34 61.643 C 41.044 61.043 40.95 60.836 41.326 59.765 C 41.495 59.277 41.646 58.769 41.646 58.639 C 41.646 58.507 41.908 57.849 42.227 57.173 C 44.312 52.761 48.199 48.836 51.674 47.633 Z M 46.246 34.695 C 46.978 34.113 47.692 33.681 47.842 33.699 C 48.236 33.775 48.236 35.315 47.862 35.915 C 47.692 36.179 47.298 36.629 46.998 36.948 C 46.471 37.455 44.274 39.991 43.467 40.967 C 42.791 41.812 40.97 44.309 40.462 45.08 C 39.242 46.995 37.551 50.732 37.214 52.272 C 36.97 53.417 36.912 55.671 37.119 56.517 C 37.814 59.352 39.467 61.173 42.96 62.901 C 44.256 63.54 45.776 64.16 46.34 64.291 C 48.011 64.648 48.048 64.704 47.992 65.925 C 47.974 66.281 47.955 66.639 47.936 66.995 C 47.435 66.989 46.935 66.983 46.434 66.977 C 45.4 66.977 44.518 66.827 43.616 66.525 C 42.152 66.056 39.316 64.704 38.396 64.047 C 36.312 62.601 34.471 60.123 33.646 57.661 C 32.95 55.615 32.912 53.117 33.57 50.845 C 34.34 48.103 36.406 44.423 38.584 41.925 C 39.767 40.553 43.242 37.099 44.18 36.347 C 44.594 36.009 45.532 35.277 46.246 34.695 Z M 49.382 12.009 C 49.626 11.371 50.02 11.371 50.96 11.991 C 52.575 13.08 54.227 14.601 55.992 16.629 C 57.026 17.812 57.344 18.319 58.322 20.216 C 58.96 21.475 58.998 21.643 58.998 23.333 C 58.978 24.929 58.922 25.211 58.471 26 C 57.664 27.389 56.368 28.704 54.246 30.319 C 52.312 31.765 51.992 31.877 52.086 30.977 C 52.106 30.751 52.143 30.469 52.143 30.375 C 52.162 30.263 52.631 29.681 53.194 29.061 C 53.758 28.441 54.528 27.315 54.922 26.545 C 55.56 25.305 55.636 24.985 55.674 23.615 C 55.711 21.944 55.486 20.817 54.734 19.183 C 54.152 17.869 52.594 15.54 51.804 14.807 C 51.611 14.62 51.416 14.432 51.222 14.244 C 51.216 15.465 51.21 16.685 51.204 17.907 C 51.148 31.728 51.091 45.324 51.054 45.907 C 51.035 46.507 50.922 46.695 50.246 47.183 C 49.832 47.483 49.42 47.747 49.344 47.747 C 49.138 47.747 49.119 46.451 49.119 29.907 C 49.119 12.911 49.119 12.741 49.382 12.009 Z"></path></svg>