<svg version="1.1" xmlns="http://www.w3.org/2000/svg" viewBox="0 0 100 100"><path stroke="#000000" stroke-width="0" stroke-linejoin="round" stroke-linecap="round" fill="#000000" d="M 77 40 C 76 37 72 33 68 33 C 66 38 63 36 65 33 C 64 33 61.5 33.5 59.5 35.5 C 60 37 60 39 60 40 C 65 40 70 40 77 40 Z M 57 40 C 57 31 49 23 41 23 C 42 24 44 26 45 27 C 46 28 46 28 45 29 C 44 30 42 32 41 33 C 40 34 40 34 41 35 C 42 36 42 36 43 37 C 45 39 43 40 42 39 C 39 36 39 36 38 35 C 37 34 37 34 38 33 C 39 32 41 30 42 29 C 43 28 43 28 42 27 C 41 26 39 24 38 23 C 31 23 23 31 23 40 C 34 40 46 40 57 40 Z M 20 43 C 16 43 13 46 13 50 C 13 54 16 57 20 57 C 40 57 60 57 80 57 C 84 57 87 54 87 50 C 87 46 84 43 80 43 C 60 43 40 43 20 43 Z M 80 60 C 60 60 40 60 20 60 C 14 60 10 56 10 50 C 10 44 14 40 20 40 C 20 29 29 20 40 20 C 48 20 55.5 24.5 58.5 32.5 C 61 31 63 30 66 30 C 73 30 79 35 80 40 C 86 40 90 44 90 50 C 90 56 86 60 80 60 Z M 57 80 C 57 81.667 58.333 83 60 83 C 61.667 83 63 81.667 63 80 C 63 78.333 61.667 77 60 77 C 58.333 77 57 78.333 57 80 Z M 54 80 C 54 76.5 56.5 74 60 74 C 63.5 74 66 76.5 66 80 C 66 83.5 63.5 86 60 86 C 56.5 86 54 83.5 54 80 Z M 67 70 C 67 71.667 68.333 73 70 73 C 71.667 73 73 71.667 73 70 C 73 68.333 71.667 67 70 67 C 68.333 67 67 68.333 67 70 Z M 64 70 C 64 66.5 66.5 64 70 64 C 73.5 64 76 66.5 76 70 C 76 73.5 73.5 76 70 76 C 66.5 76 64 73.5 64 70 Z"></path></svg>