<svg version="1.1" xmlns="http://www.w3.org/2000/svg" viewBox="0 0 100 100"><path stroke="#000000" stroke-width="0" stroke-linejoin="round" stroke-linecap="round" fill="#000000" d="M 31 71 C 38 71 42 71 49 71 C 49 78 49 82 49 89 C 42 89 38 89 31 89 C 31 82 31 78 31 71 Z M 11 71 C 18 71 22 71 29 71 C 29 78 29 82 29 89 C 22 89 18 89 11 89 C 11 82 11 78 11 71 Z M 31 51 C 38 51 42 51 49 51 C 49 58 49 62 49 69 C 42 69 38 69 31 69 C 31 62 31 58 31 51 Z M 11 51 C 18 51 22 51 29 51 C 29 58 29 62 29 69 C 22 69 18 69 11 69 C 11 62 11 58 11 51 Z M 71 71 C 78 71 82 71 89 71 C 89 78 89 82 89 89 C 82 89 78 89 71 89 C 71 82 71 78 71 71 Z M 51 71 C 58 71 62 71 69 71 C 69 78 69 82 69 89 C 62 89 58 89 51 89 C 51 82 51 78 51 71 Z M 71 51 C 78 51 82 51 89 51 C 89 58 89 62 89 69 C 82 69 78 69 71 69 C 71 62 71 58 71 51 Z M 51 51 C 58 51 62 51 69 51 C 69 58 69 62 69 69 C 62 69 58 69 51 69 C 51 62 51 58 51 51 Z M 71 31 C 78 31 82 31 89 31 C 89 38 89 42 89 49 C 82 49 78 49 71 49 C 71 42 71 38 71 31 Z M 51 31 C 58 31 62 31 69 31 C 69 38 69 42 69 49 C 62 49 58 49 51 49 C 51 42 51 38 51 31 Z M 71 11 C 78 11 82 11 89 11 C 89 18 89 22 89 29 C 82 29 78 29 71 29 C 71 22 71 18 71 11 Z M 51 11 C 58 11 62 11 69 11 C 69 18 69 22 69 29 C 62 29 58 29 51 29 C 51 22 51 18 51 11 Z M 31 31 C 38 31 42 31 49 31 C 49 38 49 42 49 49 C 42 49 38 49 31 49 C 31 42 31 38 31 31 Z M 11 31 C 18 31 22 31 29 31 C 29 38 29 42 29 49 C 22 49 18 49 11 49 C 11 42 11 38 11 31 Z M 31 11 C 38 11 42 11 49 11 C 49 18 49 22 49 29 C 42 29 38 29 31 29 C 31 22 31 18 31 11 Z M 11 11 C 18 11 22 11 29 11 C 29 18 29 22 29 29 C 22 29 18 29 11 29 C 11 22 11 18 11 11 Z"></path></svg>