<svg version="1.1" xmlns="http://www.w3.org/2000/svg" viewBox="0 0 100 100"><path stroke="#000000" stroke-width="0" stroke-linejoin="round" stroke-linecap="round" fill="#000000" d="M 87 71 C 88 71 89 72 89 73 C 89 77 89 83 89 87 C 89 88 88 89 87 89 C 83 89 77 89 73 89 C 72 89 71 88 71 87 C 71 83 71 77 71 73 C 71 72 72 71 73 71 C 77 71 83 71 87 71 Z M 67 71 C 68 71 69 72 69 73 C 69 77 69 83 69 87 C 69 88 68 89 67 89 C 63 89 57 89 53 89 C 52 89 51 88 51 87 C 51 83 51 77 51 73 C 51 72 52 71 53 71 C 57 71 63 71 67 71 Z M 47 71 C 48 71 49 72 49 73 C 49 77 49 83 49 87 C 49 88 48 89 47 89 C 43 89 37 89 33 89 C 32 89 31 88 31 87 C 31 83 31 77 31 73 C 31 72 32 71 33 71 C 37 71 43 71 47 71 Z M 27 71 C 28 71 29 72 29 73 C 29 77 29 83 29 87 C 29 88 28 89 27 89 C 23 89 17 89 13 89 C 12 89 11 88 11 87 C 11 83 11 77 11 73 C 11 72 12 71 13 71 C 17 71 23 71 27 71 Z M 87 51 C 88 51 89 52 89 53 C 89 57 89 63 89 67 C 89 68 88 69 87 69 C 83 69 77 69 73 69 C 72 69 71 68 71 67 C 71 63 71 57 71 53 C 71 52 72 51 73 51 C 77 51 83 51 87 51 Z M 67 51 C 68 51 69 52 69 53 C 69 57 69 63 69 67 C 69 68 68 69 67 69 C 63 69 57 69 53 69 C 52 69 51 68 51 67 C 51 63 51 57 51 53 C 51 52 52 51 53 51 C 57 51 63 51 67 51 Z M 47 51 C 48 51 49 52 49 53 C 49 57 49 63 49 67 C 49 68 48 69 47 69 C 43 69 37 69 33 69 C 32 69 31 68 31 67 C 31 63 31 57 31 53 C 31 52 32 51 33 51 C 37 51 43 51 47 51 Z M 27 51 C 28 51 29 52 29 53 C 29 57 29 63 29 67 C 29 68 28 69 27 69 C 23 69 17 69 13 69 C 12 69 11 68 11 67 C 11 63 11 57 11 53 C 11 52 12 51 13 51 C 17 51 23 51 27 51 Z M 87 31 C 88 31 89 32 89 33 C 89 37 89 43 89 47 C 89 48 88 49 87 49 C 83 49 77 49 73 49 C 72 49 71 48 71 47 C 71 43 71 37 71 33 C 71 32 72 31 73 31 C 77 31 83 31 87 31 Z M 67 31 C 68 31 69 32 69 33 C 69 37 69 43 69 47 C 69 48 68 49 67 49 C 63 49 57 49 53 49 C 52 49 51 48 51 47 C 51 43 51 37 51 33 C 51 32 52 31 53 31 C 57 31 63 31 67 31 Z M 47 31 C 48 31 49 32 49 33 C 49 37 49 43 49 47 C 49 48 48 49 47 49 C 43 49 37 49 33 49 C 32 49 31 48 31 47 C 31 43 31 37 31 33 C 31 32 32 31 33 31 C 37 31 43 31 47 31 Z M 27 31 C 28 31 29 32 29 33 C 29 37 29 43 29 47 C 29 48 28 49 27 49 C 23 49 17 49 13 49 C 12 49 11 48 11 47 C 11 43 11 37 11 33 C 11 32 12 31 13 31 C 17 31 23 31 27 31 Z M 87 11 C 88 11 89 12 89 13 C 89 17 89 23 89 27 C 89 28 88 29 87 29 C 83 29 77 29 73 29 C 72 29 71 28 71 27 C 71 23 71 17 71 13 C 71 12 72 11 73 11 C 77 11 83 11 87 11 Z M 67 11 C 68 11 69 12 69 13 C 69 17 69 23 69 27 C 69 28 68 29 67 29 C 63 29 57 29 53 29 C 52 29 51 28 51 27 C 51 23 51 17 51 13 C 51 12 52 11 53 11 C 57 11 63 11 67 11 Z M 47 11 C 48 11 49 12 49 13 C 49 17 49 23 49 27 C 49 28 48 29 47 29 C 43 29 37 29 33 29 C 32 29 31 28 31 27 C 31 23 31 17 31 13 C 31 12 32 11 33 11 C 37 11 43 11 47 11 Z M 27 11 C 28 11 29 12 29 13 C 29 17 29 23 29 27 C 29 28 28 29 27 29 C 23 29 17 29 13 29 C 12 29 11 28 11 27 C 11 23 11 17 11 13 C 11 12 12 11 13 11 C 17 11 23 11 27 11 Z"></path></svg>