<svg version="1.1" xmlns="http://www.w3.org/2000/svg" viewBox="0 0 100 100"><path stroke="#000000" stroke-width="0" stroke-linejoin="round" stroke-linecap="round" fill="#000000" d="M 69 52 C 70 51 70 49 69 48 C 63 42 58 37 52 31 C 51 30 49 30 48 31 C 42 37 37 42 31 48 C 30 49 30 51 31 52 C 37 58 42 63 48 69 C 49 70 51 70 52 69 C 57 64 64 57 69 52 Z M 78 47 C 80 49 80 51 78 53 C 70 61 61 70 53 78 C 51 80 49 80 47 78 C 39 70 30 61 22 53 C 20 51 20 49 22 47 C 30 39 39 30 47 22 C 49 20 51 20 53 22 C 61 30 70 39 78 47 Z"></path></svg>