<svg version="1.1" xmlns="http://www.w3.org/2000/svg" viewBox="0 0 100 100"><path stroke="#000000" stroke-width="0" stroke-linejoin="round" stroke-linecap="round" fill="#000000" d="M 60 43 C 56 41 56 41 51 38 C 51 34 51 32 51 28 C 56 25 56 25 60 23 C 64 25 64 25 69 28 C 69 32 69 34 69 38 C 69 38 69 38 69 38 C 64 41 64 41 60 43 Z M 40 43 C 36 41 36 41 31 38 C 31 34 31 32 31 28 C 36 25 36 25 40 23 C 44 25 44 25 49 28 C 49 32 49 34 49 38 C 49 38 49 38 49 38 C 44 41 44 41 40 43 Z M 30 60 C 26 58 26 58 21 55 C 21 51 21 49 21 45 C 26 42 26 42 30 40 C 34 42 34 42 39 45 C 39 49 39 51 39 55 C 39 55 39 55 39 55 C 34 58 34 58 30 60 Z M 40 77 C 36 75 36 75 31 72 C 31 68 31 66 31 62 C 36 59 36 59 40 57 C 44 59 44 59 49 62 C 49 66 49 68 49 72 C 49 72 49 72 49 72 C 44 75 44 75 40 77 Z M 60 77 C 56 75 56 75 51 72 C 51 68 51 66 51 62 C 56 59 56 59 60 57 C 64 59 64 59 69 62 C 69 66 69 68 69 72 C 69 72 69 72 69 72 C 64 75 64 75 60 77 Z M 70 60 C 66 58 66 58 61 55 C 61 51 61 49 61 45 C 66 42 66 42 70 40 C 74 42 74 42 79 45 C 79 49 79 51 79 55 C 79 55 79 55 79 55 C 74 58 74 58 70 60 Z M 50 60 C 46 58 46 58 41 55 C 41 51 41 49 41 45 C 46 42 46 42 50 40 C 54 42 54 42 59 45 C 59 49 59 51 59 55 C 59 55 59 55 59 55 C 54 58 54 58 50 60 Z"></path></svg>