<svg version="1.1" xmlns="http://www.w3.org/2000/svg" viewBox="0 0 100 100"><path stroke="#000000" stroke-width="0" stroke-linejoin="round" stroke-linecap="round" fill="#000000" d="M 52 51 C 59 51 65 51 72 51 C 69 57 68 59 62 70 C 56 59 55 57 52 51 Z M 28 51 C 35 51 41 51 48 51 C 45 57 44 59 38 70 C 32 59 31 57 28 51 Z M 40 29 C 47 29 53 29 60 29 C 57 35 56 37 50 48 C 44 37 43 35 40 29 Z M 48 49 C 41 49 35 49 28 49 C 31 43 32 41 38 30 C 44 41 45 43 48 49 Z M 72 49 C 65 49 59 49 52 49 C 55 43 56 41 62 30 C 68 41 69 43 72 49 Z M 60 71 C 53 71 47 71 40 71 C 43 65 44 63 50 52 C 56 63 57 65 60 71 Z"></path></svg>