<svg version="1.1" xmlns="http://www.w3.org/2000/svg" viewBox="0 0 100 100"><path stroke="#000000" stroke-width="0" stroke-linejoin="round" stroke-linecap="round" fill="#000000" d="M 43 30 C 41 30 40 31 40 33 C 40 45 40 55 40 67 C 40 69 41 70 43 70 C 48 70 52 70 57 70 C 59 70 60 69 60 67 C 60 55 60 45 60 33 C 60 31 59 30 57 30 C 52 30 48 30 43 30 Z M 36 20 C 45 20 55 20 64 20 C 67 20 70 23 70 26 C 70 42 70 58 70 74 C 70 77 67 80 64 80 C 55 80 45 80 36 80 C 33 80 30 77 30 74 C 30 58 30 42 30 26 C 30 23 33 20 36 20 Z"></path></svg>