<svg version="1.1" xmlns="http://www.w3.org/2000/svg" viewBox="0 0 100 100"><path stroke="#000000" stroke-width="0" stroke-linejoin="round" stroke-linecap="round" fill="#000000" d="M 51 48 C 51 41 51 35 51 28 C 57 31 59 32 70 38 C 59 44 57 45 51 48 Z M 51 72 C 51 65 51 59 51 52 C 57 55 59 56 70 62 C 59 68 57 69 51 72 Z M 29 60 C 29 53 29 47 29 40 C 35 43 37 44 48 50 C 37 56 35 57 29 60 Z M 49 52 C 49 59 49 65 49 72 C 43 69 41 68 30 62 C 41 56 43 55 49 52 Z M 49 28 C 49 35 49 41 49 48 C 43 45 41 44 30 38 C 41 32 43 31 49 28 Z M 71 40 C 71 47 71 53 71 60 C 65 57 63 56 52 50 C 63 44 65 43 71 40 Z"></path></svg>