<svg version="1.1" xmlns="http://www.w3.org/2000/svg" viewBox="0 0 100 100"><path stroke="#000000" stroke-width="0" stroke-linejoin="round" stroke-linecap="round" fill="#000000" d="M 15 52 C 15 63 15 77 15 85 C 23 85 37 85 48 85 C 48 77 48 63 48 52 C 37 52 23 52 15 52 Z M 10 50 C 23 50 37 50 50 50 C 50 63 50 77 50 90 C 37 90 23 90 10 90 C 10 77 10 63 10 50 Z M 52 52 C 52 63 52 77 52 85 C 63 85 77 85 85 85 C 85 77 85 63 85 52 C 77 52 63 52 52 52 Z M 50 50 C 63 50 77 50 90 50 C 90 63 90 77 90 90 C 77 90 63 90 50 90 C 50 77 50 63 50 50 Z M 52 15 C 52 23 52 37 52 48 C 63 48 77 48 85 48 C 85 37 85 23 85 15 C 77 15 63 15 52 15 Z M 50 10 C 63 10 77 10 90 10 C 90 23 90 37 90 50 C 77 50 63 50 50 50 C 50 37 50 23 50 10 Z M 15 15 C 15 23 15 37 15 48 C 23 48 37 48 48 48 C 48 37 48 23 48 15 C 37 15 23 15 15 15 Z M 10 10 C 23 10 37 10 50 10 C 50 23 50 37 50 50 C 37 50 23 50 10 50 C 10 37 10 23 10 10 Z"></path></svg>