<svg version="1.1" xmlns="http://www.w3.org/2000/svg" viewBox="0 0 100 100"><path stroke="#000000" stroke-width="0" stroke-linejoin="round" stroke-linecap="round" fill="#000000" d="M 80 62 C 81 62 82 63 82 64 C 82 69 82 75 82 80 C 82 81 81 82 80 82 C 75 82 69 82 64 82 C 63 82 62 81 62 80 C 62 75 62 69 62 64 C 62 63 63 62 64 62 C 69 62 75 62 80 62 Z M 80 40 C 81 40 82 41 82 42 C 82 47 82 53 82 58 C 82 59 81 60 80 60 C 75 60 69 60 64 60 C 63 60 62 59 62 58 C 62 53 62 47 62 42 C 62 41 63 40 64 40 C 69 40 75 40 80 40 Z M 80 18 C 81 18 82 19 82 20 C 82 25 82 31 82 36 C 82 37 81 38 80 38 C 75 38 69 38 64 38 C 63 38 62 37 62 36 C 62 31 62 25 62 20 C 62 19 63 18 64 18 C 69 18 75 18 80 18 Z M 58 62 C 59 62 60 63 60 64 C 60 69 60 75 60 80 C 60 81 59 82 58 82 C 53 82 47 82 42 82 C 41 82 40 81 40 80 C 40 75 40 69 40 64 C 40 63 41 62 42 62 C 47 62 53 62 58 62 Z M 36 62 C 37 62 38 63 38 64 C 38 69 38 75 38 80 C 38 81 37 82 36 82 C 31 82 25 82 20 82 C 19 82 18 81 18 80 C 18 75 18 69 18 64 C 18 63 19 62 20 62 C 25 62 31 62 36 62 Z M 36 40 C 37 40 38 41 38 42 C 38 47 38 53 38 58 C 38 59 37 60 36 60 C 31 60 25 60 20 60 C 19 60 18 59 18 58 C 18 53 18 47 18 42 C 18 41 19 40 20 40 C 25 40 31 40 36 40 Z M 58 40 C 59 40 60 41 60 42 C 60 47 60 53 60 58 C 60 59 59 60 58 60 C 53 60 47 60 42 60 C 41 60 40 59 40 58 C 40 53 40 47 40 42 C 40 41 41 40 42 40 C 47 40 53 40 58 40 Z M 58 18 C 59 18 60 19 60 20 C 60 25 60 31 60 36 C 60 37 59 38 58 38 C 53 38 47 38 42 38 C 41 38 40 37 40 36 C 40 31 40 25 40 20 C 40 19 41 18 42 18 C 47 18 53 18 58 18 Z M 36 18 C 37 18 38 19 38 20 C 38 25 38 31 38 36 C 38 37 37 38 36 38 C 31 38 25 38 20 38 C 19 38 18 37 18 36 C 18 31 18 25 18 20 C 18 19 19 18 20 18 C 25 18 31 18 36 18 Z"></path></svg>