<svg version="1.1" xmlns="http://www.w3.org/2000/svg" viewBox="0 0 100 100"><path stroke="#000000" stroke-width="0" stroke-linejoin="round" stroke-linecap="round" fill="#000000" d="M 67 30 C 55 30 45 30 33 30 C 31 30 30 31 30 33 C 30 45 30 55 30 67 C 30 69 31 70 33 70 C 45 70 55 70 67 70 C 69 70 70 69 70 67 C 70 55 70 45 70 33 C 70 31 69 30 67 30 Z M 74 20 C 77 20 80 23 80 26 C 80 42 80 58 80 74 C 80 77 77 80 74 80 C 58 80 42 80 26 80 C 23 80 20 77 20 74 C 20 58 20 42 20 26 C 20 23 23 20 26 20 C 42 20 58 20 74 20 Z"></path></svg>