<svg version="1.1" xmlns="http://www.w3.org/2000/svg" viewBox="0 0 100 100"><path stroke="#000000" stroke-width="0" stroke-linejoin="round" stroke-linecap="round" fill="#000000" d="M 51 51 C 58 51 64 51 71 51 C 71 58 71 64 71 71 C 64 71 58 71 51 71 C 51 64 51 58 51 51 Z M 29 51 C 36 51 42 51 49 51 C 49 58 49 64 49 71 C 42 71 36 71 29 71 C 29 64 29 58 29 51 Z M 51 29 C 58 29 64 29 71 29 C 71 36 71 42 71 49 C 64 49 58 49 51 49 C 51 42 51 36 51 29 Z M 29 29 C 36 29 42 29 49 29 C 49 36 49 42 49 49 C 42 49 36 49 29 49 C 29 42 29 36 29 29 Z"></path></svg>