<svg version="1.1" xmlns="http://www.w3.org/2000/svg" viewBox="0 0 100 100"><path stroke="#000000" stroke-width="0" stroke-linejoin="round" stroke-linecap="round" fill="#000000" d="M 49 63 C 50 63 50 71 47 75 C 44 78 56 78 53 75 C 50 71 50 63 51 63 C 52 63 57 65 61 65 C 66 65 71 60 71 55 C 71 49 66 44 58 46 C 60 44 60 42 60 40 C 60 34 56 30 50 30 C 44 30 40 35 40 40 C 40 42 40 44 42 46 C 34 44 29 49 29 55 C 29 60 34 65 40 65 C 43 65 48 63 49 63 Z M 46 66 C 44 68 40 70 35 70 C 27 70 20 63 20 55 C 20 47 27 40 35 40 C 38 40 35 43 35 35 C 35 27 42 20 50 20 C 58 20 65 27 65 35 C 65 43 62 40 65 40 C 73 40 80 47 80 55 C 80 63 73 70 65 70 C 60 70 56 68 54 66 C 53 65 53 65 53 66 C 53 68 65 80 59 80 C 53 80 47 80 41 80 C 35 80 47 68 47 66 C 47 65 47 65 46 66 Z"></path></svg>