<svg version="1.1" xmlns="http://www.w3.org/2000/svg" viewBox="0 0 100 100"><path stroke="#000000" stroke-width="0" stroke-linejoin="round" stroke-linecap="round" fill="#000000" d="M 51 62 C 54 62 56 64 60 64 C 66 64 70 60 70 54 C 70 44 52 30 50 30 C 48 30 30 44 30 54 C 30 60 34 64 40 64 C 44 64 46 62 49 62 C 50 62 50 70 47 74 C 44 77 56 77 53 74 C 50 70 50 62 51 62 Z M 51 55 C 51 56 55 60 53 60 C 51 60 49 60 47 60 C 45 60 49 56 49 55 C 49 54 47 57 45 57 C 42 57 40 55 40 52 C 40 47 49 40 50 40 C 51 40 60 47 60 52 C 60 55 58 57 55 57 C 53 57 51 54 51 55 Z M 53 65 C 53 68 65 80 59 80 C 53 80 47 80 41 80 C 35 80 47 68 47 65 C 47 62 41 71 35 71 C 26 71 20 65 20 56 C 20 41 47 20 50 20 C 53 20 80 41 80 56 C 80 65 74 71 65 71 C 59 71 53 62 53 65 Z"></path></svg>