<svg version="1.1" xmlns="http://www.w3.org/2000/svg" viewBox="0 0 100 100"><path stroke="#000000" stroke-width="0" stroke-linejoin="round" stroke-linecap="round" fill="#000000" d="M 55 52 C 55 52 55 52 57 57 C 52 55 52 55 52 55 C 52 55 52 55 50 60 C 48 55 48 55 48 55 C 48 55 48 55 43 57 C 45 52 45 52 45 52 C 45 52 45 52 40 50 C 45 48 45 48 45 48 C 45 48 45 48 43 43 C 48 45 48 45 48 45 C 48 45 48 45 50 40 C 52 45 52 45 52 45 C 52 45 52 45 57 43 C 55 48 55 48 55 48 C 55 48 55 48 60 50 C 55 52 55 52 55 52 Z"></path></svg>