<svg version="1.1" xmlns="http://www.w3.org/2000/svg" viewBox="0 0 100 100"><path stroke="#000000" stroke-width="0" stroke-linejoin="round" stroke-linecap="round" fill="#000000" d="M 60 20 C 57 20 53 20 50 20 C 50 17 50 13 50 10 C 53 10 57 10 60 10 C 60 13 60 17 60 20 Z M 80 20 C 77 20 73 20 70 20 C 70 17 70 13 70 10 C 73 10 77 10 80 10 C 80 13 80 17 80 20 Z M 70 30 C 67 30 63 30 60 30 C 60 27 60 23 60 20 C 63 20 67 20 70 20 C 70 23 70 27 70 30 Z M 90 30 C 87 30 83 30 80 30 C 80 27 80 23 80 20 C 83 20 87 20 90 20 C 90 23 90 27 90 30 Z M 60 40 C 57 40 53 40 50 40 C 50 37 50 33 50 30 C 53 30 57 30 60 30 C 60 33 60 37 60 40 Z M 80 40 C 77 40 73 40 70 40 C 70 37 70 33 70 30 C 73 30 77 30 80 30 C 80 33 80 37 80 40 Z M 70 50 C 67 50 63 50 60 50 C 60 47 60 43 60 40 C 63 40 67 40 70 40 C 70 43 70 47 70 50 Z M 90 50 C 87 50 83 50 80 50 C 80 47 80 43 80 40 C 83 40 87 40 90 40 C 90 43 90 47 90 50 Z M 60 60 C 57 60 53 60 50 60 C 50 57 50 53 50 50 C 53 50 57 50 60 50 C 60 53 60 57 60 60 Z M 80 60 C 77 60 73 60 70 60 C 70 57 70 53 70 50 C 73 50 77 50 80 50 C 80 53 80 57 80 60 Z M 70 70 C 67 70 63 70 60 70 C 60 67 60 63 60 60 C 63 60 67 60 70 60 C 70 63 70 67 70 70 Z M 90 70 C 87 70 83 70 80 70 C 80 67 80 63 80 60 C 83 60 87 60 90 60 C 90 63 90 67 90 70 Z M 60 80 C 57 80 53 80 50 80 C 50 77 50 73 50 70 C 53 70 57 70 60 70 C 60 73 60 77 60 80 Z M 80 80 C 77 80 73 80 70 80 C 70 77 70 73 70 70 C 73 70 77 70 80 70 C 80 73 80 77 80 80 Z M 70 90 C 67 90 63 90 60 90 C 60 87 60 83 60 80 C 63 80 67 80 70 80 C 70 83 70 87 70 90 Z M 90 90 C 87 90 83 90 80 90 C 80 87 80 83 80 80 C 83 80 87 80 90 80 C 90 83 90 87 90 90 Z M 20 20 C 17 20 13 20 10 20 C 10 17 10 13 10 10 C 13 10 17 10 20 10 C 20 13 20 17 20 20 Z M 40 20 C 37 20 33 20 30 20 C 30 17 30 13 30 10 C 33 10 37 10 40 10 C 40 13 40 17 40 20 Z M 30 30 C 27 30 23 30 20 30 C 20 27 20 23 20 20 C 23 20 27 20 30 20 C 30 23 30 27 30 30 Z M 50 30 C 47 30 43 30 40 30 C 40 27 40 23 40 20 C 43 20 47 20 50 20 C 50 23 50 27 50 30 Z M 20 40 C 17 40 13 40 10 40 C 10 37 10 33 10 30 C 13 30 17 30 20 30 C 20 33 20 37 20 40 Z M 40 40 C 37 40 33 40 30 40 C 30 37 30 33 30 30 C 33 30 37 30 40 30 C 40 33 40 37 40 40 Z M 30 50 C 27 50 23 50 20 50 C 20 47 20 43 20 40 C 23 40 27 40 30 40 C 30 43 30 47 30 50 Z M 50 50 C 47 50 43 50 40 50 C 40 47 40 43 40 40 C 43 40 47 40 50 40 C 50 43 50 47 50 50 Z M 20 60 C 17 60 13 60 10 60 C 10 57 10 53 10 50 C 13 50 17 50 20 50 C 20 53 20 57 20 60 Z M 40 60 C 37 60 33 60 30 60 C 30 57 30 53 30 50 C 33 50 37 50 40 50 C 40 53 40 57 40 60 Z M 30 70 C 27 70 23 70 20 70 C 20 67 20 63 20 60 C 23 60 27 60 30 60 C 30 63 30 67 30 70 Z M 50 70 C 47 70 43 70 40 70 C 40 67 40 63 40 60 C 43 60 47 60 50 60 C 50 63 50 67 50 70 Z M 20 80 C 17 80 13 80 10 80 C 10 77 10 73 10 70 C 13 70 17 70 20 70 C 20 73 20 77 20 80 Z M 40 80 C 37 80 33 80 30 80 C 30 77 30 73 30 70 C 33 70 37 70 40 70 C 40 73 40 77 40 80 Z M 30 90 C 27 90 23 90 20 90 C 20 87 20 83 20 80 C 23 80 27 80 30 80 C 30 83 30 87 30 90 Z M 50 90 C 47 90 43 90 40 90 C 40 87 40 83 40 80 C 43 80 47 80 50 80 C 50 83 50 87 50 90 Z"></path></svg>