<svg version="1.1" xmlns="http://www.w3.org/2000/svg" viewBox="0 0 100 100"><path stroke="#000000" stroke-width="0" stroke-linejoin="round" stroke-linecap="round" fill="#000000" d="M 70 70 C 77 70 83 70 90 70 C 90 77 90 83 90 90 C 83 90 77 90 70 90 C 70 83 70 77 70 70 Z M 30 70 C 37 70 43 70 50 70 C 50 77 50 83 50 90 C 43 90 37 90 30 90 C 30 83 30 77 30 70 Z M 50 50 C 57 50 63 50 70 50 C 70 57 70 63 70 70 C 63 70 57 70 50 70 C 50 63 50 57 50 50 Z M 10 50 C 17 50 23 50 30 50 C 30 57 30 63 30 70 C 23 70 17 70 10 70 C 10 63 10 57 10 50 Z M 70 30 C 77 30 83 30 90 30 C 90 37 90 43 90 50 C 83 50 77 50 70 50 C 70 43 70 37 70 30 Z M 30 30 C 37 30 43 30 50 30 C 50 37 50 43 50 50 C 43 50 37 50 30 50 C 30 43 30 37 30 30 Z M 50 10 C 57 10 63 10 70 10 C 70 17 70 23 70 30 C 63 30 57 30 50 30 C 50 23 50 17 50 10 Z M 10 10 C 17 10 23 10 30 10 C 30 17 30 23 30 30 C 23 30 17 30 10 30 C 10 23 10 17 10 10 Z"></path></svg>