<svg version="1.1" xmlns="http://www.w3.org/2000/svg" viewBox="0 0 100 100"><path stroke="#000000" stroke-width="0" stroke-linejoin="round" stroke-linecap="round" fill="#000000" d="M 60 54 C 60 54 65 52 70 50 C 65 48 60 46 60 46 C 60 46 62 41 64 36 C 59 38 54 40 54 40 C 54 40 52 35 50 30 C 48 35 46 40 46 40 C 46 40 41 38 36 36 C 38 41 40 46 40 46 C 40 46 35 48 30 50 C 35 52 40 54 40 54 C 40 54 38 59 36 64 C 41 62 46 60 46 60 C 46 60 48 65 50 70 C 52 65 54 60 54 60 C 54 60 59 62 64 64 C 62 59 60 54 60 54 Z M 65 56 C 65 56 67 61 71 71 C 61 67 56 65 56 65 C 56 65 52 75 50 80 C 48 75 44 65 44 65 C 44 65 39 67 29 71 C 33 61 35 56 35 56 C 35 56 25 52 20 50 C 25 48 35 44 35 44 C 35 44 33 39 29 29 C 39 33 44 35 44 35 C 44 35 48 25 50 20 C 52 25 56 35 56 35 C 56 35 61 33 71 29 C 67 39 65 44 65 44 C 65 44 75 48 80 50 C 75 52 65 56 65 56 Z"></path></svg>