<svg version="1.1" xmlns="http://www.w3.org/2000/svg" viewBox="0 0 100 100"><path stroke="#000000" stroke-width="0" stroke-linejoin="round" stroke-linecap="round" fill="#000000" d="M 56 56 C 63 53 63 53 70 50 C 63 47 63 47 56 44 C 53 37 53 37 50 30 C 47 37 47 37 44 44 C 37 47 37 47 30 50 C 37 53 37 53 44 56 C 47 63 47 63 50 70 C 53 63 53 63 56 56 Z M 41 41 C 44 34 47 27 50 20 C 53 27 56 34 59 41 C 66 44 73 47 80 50 C 73 53 66 56 59 59 C 56 66 53 73 50 80 C 47 73 44 66 41 59 C 34 56 27 53 20 50 C 27 47 34 44 41 41 Z"></path></svg>