<svg version="1.1" xmlns="http://www.w3.org/2000/svg" viewBox="0 0 100 100"><path stroke="#000000" stroke-width="0" stroke-linejoin="round" stroke-linecap="round" fill="#000000" d="M 56 42 C 53 36 53 36 50 30 C 47 36 47 36 44 42 C 37 43 37 43 30 44 C 31 45 39 52 40 53 C 39 59 39 59 38 67 C 40 66 48 62 50 61 C 52 62 60 66 62 67 C 61 59 61 59 60 53 C 61 52 69 45 70 44 C 63 43 63 43 56 42 Z M 53 46 C 56.5 46.5 56.5 46.5 60 47 C 58 49 57 50 55 52 C 55.5 55.5 55.5 55.5 56 59 C 54 58 52 57 50 56 C 48 57 46 58 44 59 C 44.5 55.5 44.5 55.5 45 52 C 43 50 42 49 40 47 C 44.5 46.5 44.5 46.5 47 46 C 48 44 49 42 50 40 C 51 42 52 44 53 46 Z M 60 37 C 67 38 75 39 82 40 C 77 45 71 51 66 56 C 68 67 68 67 70 78 C 60 73 60 73 50 68 C 40 73 40 73 30 78 C 32 67 32 67 34 56 C 29 51 23 45 18 40 C 25 39 33 38 40 37 C 45 27 45 27 50 17 C 55 27 55 27 60 37 Z"></path></svg>