<svg version="1.1" xmlns="http://www.w3.org/2000/svg" viewBox="0 0 100 100"><path stroke="#000000" stroke-width="0" stroke-linejoin="round" stroke-linecap="round" fill="#000000" d="M 30 43 C 30 47 30 53 30 57 C 30 59 31 60 33 60 C 45 60 55 60 67 60 C 69 60 70 59 70 57 C 70 53 70 47 70 43 C 70 41 69 40 67 40 C 55 40 45 40 33 40 C 31 40 30 41 30 43 Z M 41 49 C 47 49 53 49 59 49 C 60 49 60 49 60 50 C 60 50 60 50 60 50 C 60 51 60 51 59 51 C 53 51 47 51 41 51 C 40 51 40 51 40 50 C 40 50 40 50 40 50 C 40 49 40 49 41 49 Z M 20 36 C 20 33 23 30 26 30 C 42 30 58 30 74 30 C 77 30 80 33 80 36 C 80 45 80 55 80 64 C 80 67 77 70 74 70 C 58 70 42 70 26 70 C 23 70 20 67 20 64 C 20 55 20 45 20 36 Z"></path></svg>