<svg version="1.1" xmlns="http://www.w3.org/2000/svg" viewBox="0 0 100 100"><path stroke="#000000" stroke-width="0" stroke-linejoin="round" stroke-linecap="round" fill="#000000" d="M 18 62 C 25 62 31 62 38 62 C 38 69 38 75 38 82 C 31 82 25 82 18 82 C 18 75 18 69 18 62 Z M 62 62 C 69 62 75 62 82 62 C 82 69 82 75 82 82 C 75 82 69 82 62 82 C 62 75 62 69 62 62 Z M 40 62 C 47 62 53 62 60 62 C 60 69 60 75 60 82 C 53 82 47 82 40 82 C 40 75 40 69 40 62 Z M 62 40 C 69 40 75 40 82 40 C 82 47 82 53 82 60 C 75 60 69 60 62 60 C 62 53 62 47 62 40 Z M 62 18 C 69 18 75 18 82 18 C 82 25 82 31 82 38 C 75 38 69 38 62 38 C 62 31 62 25 62 18 Z M 40 40 C 47 40 53 40 60 40 C 60 47 60 53 60 60 C 53 60 47 60 40 60 C 40 53 40 47 40 40 Z M 18 40 C 25 40 31 40 38 40 C 38 47 38 53 38 60 C 31 60 25 60 18 60 C 18 53 18 47 18 40 Z M 40 18 C 47 18 53 18 60 18 C 60 25 60 31 60 38 C 53 38 47 38 40 38 C 40 31 40 25 40 18 Z M 18 18 C 25 18 31 18 38 18 C 38 25 38 31 38 38 C 31 38 25 38 18 38 C 18 31 18 25 18 18 Z"></path></svg>