<svg version="1.1" xmlns="http://www.w3.org/2000/svg" viewBox="0 0 100 100"><path stroke="#000000" stroke-width="0" stroke-linejoin="round" stroke-linecap="round" fill="#000000" d="M 70 50 C 67 44 64 39 61 33 C 53 33 47 33 39 33 C 36 39 33 44 30 50 C 33 56 36 61 39 67 C 47 67 53 67 61 67 C 61 67 61 67 61 67 C 64 61 67 56 70 50 Z M 40 50 C 42 46 42 46 45 41 C 49 41 51 41 55 41 C 58 46 58 46 60 50 C 58 54 58 54 55 59 C 51 59 49 59 45 59 C 45 59 45 59 45 59 C 42 54 42 54 40 50 Z M 80 50 C 75 59 71 67 66 76 C 66 76 66 76 66 76 C 55 76 45 76 34 76 C 29 67 25 59 20 50 C 25 41 29 33 34 24 C 45 24 55 24 66 24 C 71 33 75 41 80 50 Z"></path></svg>