<svg version="1.1" xmlns="http://www.w3.org/2000/svg" viewBox="0 0 100 100"><path stroke="#000000" stroke-width="0" stroke-linejoin="round" stroke-linecap="round" fill="#000000" d="M 65 56 C 65 56 67 61 71 71 C 61 67 56 65 56 65 C 56 65 52 75 50 80 C 48 75 44 65 44 65 C 44 65 39 67 29 71 C 33 61 35 56 35 56 C 35 56 25 52 20 50 C 25 48 35 44 35 44 C 35 44 33 39 29 29 C 39 33 44 35 44 35 C 44 35 48 25 50 20 C 52 25 56 35 56 35 C 56 35 61 33 71 29 C 67 39 65 44 65 44 C 65 44 75 48 80 50 C 75 52 65 56 65 56 Z"></path></svg>