<svg version="1.1" xmlns="http://www.w3.org/2000/svg" viewBox="0 0 100 100"><path stroke="#000000" stroke-width="0" stroke-linejoin="round" stroke-linecap="round" fill="#000000" d="M 20 40 C 20 43 20 47 20 50 C 17 50 13 50 10 50 C 10 47 10 43 10 40 C 13 40 17 40 20 40 Z M 20 20 C 20 23 20 27 20 30 C 17 30 13 30 10 30 C 10 27 10 23 10 20 C 13 20 17 20 20 20 Z M 30 30 C 30 33 30 37 30 40 C 27 40 23 40 20 40 C 20 37 20 33 20 30 C 23 30 27 30 30 30 Z M 30 10 C 30 13 30 17 30 20 C 27 20 23 20 20 20 C 20 17 20 13 20 10 C 23 10 27 10 30 10 Z M 40 40 C 40 43 40 47 40 50 C 37 50 33 50 30 50 C 30 47 30 43 30 40 C 33 40 37 40 40 40 Z M 40 20 C 40 23 40 27 40 30 C 37 30 33 30 30 30 C 30 27 30 23 30 20 C 33 20 37 20 40 20 Z M 50 30 C 50 33 50 37 50 40 C 47 40 43 40 40 40 C 40 37 40 33 40 30 C 43 30 47 30 50 30 Z M 50 10 C 50 13 50 17 50 20 C 47 20 43 20 40 20 C 40 17 40 13 40 10 C 43 10 47 10 50 10 Z M 60 40 C 60 43 60 47 60 50 C 57 50 53 50 50 50 C 50 47 50 43 50 40 C 53 40 57 40 60 40 Z M 60 20 C 60 23 60 27 60 30 C 57 30 53 30 50 30 C 50 27 50 23 50 20 C 53 20 57 20 60 20 Z M 70 30 C 70 33 70 37 70 40 C 67 40 63 40 60 40 C 60 37 60 33 60 30 C 63 30 67 30 70 30 Z M 70 10 C 70 13 70 17 70 20 C 67 20 63 20 60 20 C 60 17 60 13 60 10 C 63 10 67 10 70 10 Z M 80 40 C 80 43 80 47 80 50 C 77 50 73 50 70 50 C 70 47 70 43 70 40 C 73 40 77 40 80 40 Z M 80 20 C 80 23 80 27 80 30 C 77 30 73 30 70 30 C 70 27 70 23 70 20 C 73 20 77 20 80 20 Z M 90 30 C 90 33 90 37 90 40 C 87 40 83 40 80 40 C 80 37 80 33 80 30 C 83 30 87 30 90 30 Z M 90 10 C 90 13 90 17 90 20 C 87 20 83 20 80 20 C 80 17 80 13 80 10 C 83 10 87 10 90 10 Z M 20 80 C 20 83 20 87 20 90 C 17 90 13 90 10 90 C 10 87 10 83 10 80 C 13 80 17 80 20 80 Z M 20 60 C 20 63 20 67 20 70 C 17 70 13 70 10 70 C 10 67 10 63 10 60 C 13 60 17 60 20 60 Z M 30 70 C 30 73 30 77 30 80 C 27 80 23 80 20 80 C 20 77 20 73 20 70 C 23 70 27 70 30 70 Z M 30 50 C 30 53 30 57 30 60 C 27 60 23 60 20 60 C 20 57 20 53 20 50 C 23 50 27 50 30 50 Z M 40 80 C 40 83 40 87 40 90 C 37 90 33 90 30 90 C 30 87 30 83 30 80 C 33 80 37 80 40 80 Z M 40 60 C 40 63 40 67 40 70 C 37 70 33 70 30 70 C 30 67 30 63 30 60 C 33 60 37 60 40 60 Z M 50 70 C 50 73 50 77 50 80 C 47 80 43 80 40 80 C 40 77 40 73 40 70 C 43 70 47 70 50 70 Z M 50 50 C 50 53 50 57 50 60 C 47 60 43 60 40 60 C 40 57 40 53 40 50 C 43 50 47 50 50 50 Z M 60 80 C 60 83 60 87 60 90 C 57 90 53 90 50 90 C 50 87 50 83 50 80 C 53 80 57 80 60 80 Z M 60 60 C 60 63 60 67 60 70 C 57 70 53 70 50 70 C 50 67 50 63 50 60 C 53 60 57 60 60 60 Z M 70 70 C 70 73 70 77 70 80 C 67 80 63 80 60 80 C 60 77 60 73 60 70 C 63 70 67 70 70 70 Z M 70 50 C 70 53 70 57 70 60 C 67 60 63 60 60 60 C 60 57 60 53 60 50 C 63 50 67 50 70 50 Z M 80 80 C 80 83 80 87 80 90 C 77 90 73 90 70 90 C 70 87 70 83 70 80 C 73 80 77 80 80 80 Z M 80 60 C 80 63 80 67 80 70 C 77 70 73 70 70 70 C 70 67 70 63 70 60 C 73 60 77 60 80 60 Z M 90 70 C 90 73 90 77 90 80 C 87 80 83 80 80 80 C 80 77 80 73 80 70 C 83 70 87 70 90 70 Z M 90 50 C 90 53 90 57 90 60 C 87 60 83 60 80 60 C 80 57 80 53 80 50 C 83 50 87 50 90 50 Z"></path></svg>