<svg version="1.1" xmlns="http://www.w3.org/2000/svg" viewBox="0 0 100 100"><path stroke="#000000" stroke-width="0" stroke-linejoin="round" stroke-linecap="round" fill="#000000" d="M 59 30 C 53 30 47 30 41 30 C 38 33 33 38 30 41 C 30 47 30 53 30 59 C 33 62 38 67 41 70 C 47 70 53 70 59 70 C 62 67 67 62 70 59 C 70 53 70 47 70 41 C 67 38 62 33 59 30 Z M 54 40 C 56 42 58 44 60 46 C 60 49 60 51 60 54 C 58 56 56 58 54 60 C 51 60 49 60 46 60 C 44 58 42 56 40 54 C 40 51 40 49 40 46 C 42 44 44 42 46 40 C 49 40 51 40 54 40 Z M 63 20 C 68 25 75 32 80 37 C 80 46 80 54 80 63 C 75 68 68 75 63 80 C 54 80 46 80 37 80 C 32 75 25 68 20 63 C 20 54 20 46 20 37 C 25 32 32 25 37 20 C 46 20 54 20 63 20 Z"></path></svg>