<svg version="1.1" xmlns="http://www.w3.org/2000/svg" viewBox="0 0 100 100"><path stroke="#000000" stroke-width="0" stroke-linejoin="round" stroke-linecap="round" fill="#000000" d="M 47 51 C 48 51 49 52 49 53 C 49 58 49 64 49 69 C 49 70 48 71 47 71 C 42 71 36 71 31 71 C 30 71 29 70 29 69 C 29 64 29 58 29 53 C 29 52 30 51 31 51 C 36 51 42 51 47 51 Z M 69 51 C 70 51 71 52 71 53 C 71 58 71 64 71 69 C 71 70 70 71 69 71 C 64 71 58 71 53 71 C 52 71 51 70 51 69 C 51 64 51 58 51 53 C 51 52 52 51 53 51 C 58 51 64 51 69 51 Z M 69 29 C 70 29 71 30 71 31 C 71 36 71 42 71 47 C 71 48 70 49 69 49 C 64 49 58 49 53 49 C 52 49 51 48 51 47 C 51 42 51 36 51 31 C 51 30 52 29 53 29 C 58 29 64 29 69 29 Z M 47 29 C 48 29 49 30 49 31 C 49 36 49 42 49 47 C 49 48 48 49 47 49 C 42 49 36 49 31 49 C 30 49 29 48 29 47 C 29 42 29 36 29 31 C 29 30 30 29 31 29 C 36 29 42 29 47 29 Z"></path></svg>