<svg version="1.1" xmlns="http://www.w3.org/2000/svg" viewBox="0 0 100 100"><path stroke="#000000" stroke-width="0" stroke-linejoin="round" stroke-linecap="round" fill="#000000" d="M 50 30 C 44 33 39 36 33 39 C 33 47 33 53 33 61 C 39 64 44 67 50 70 C 56 67 61 64 67 61 C 67 53 67 47 67 39 C 67 39 67 39 67 39 C 61 36 56 33 50 30 Z M 50 60 C 46 58 46 58 41 55 C 41 51 41 49 41 45 C 46 42 46 42 50 40 C 54 42 54 42 59 45 C 59 49 59 51 59 55 C 59 55 59 55 59 55 C 54 58 54 58 50 60 Z M 50 20 C 59 25 67 29 76 34 C 76 34 76 34 76 34 C 76 45 76 55 76 66 C 67 71 59 75 50 80 C 41 75 33 71 24 66 C 24 55 24 45 24 34 C 33 29 41 25 50 20 Z"></path></svg>