<svg version="1.1" xmlns="http://www.w3.org/2000/svg" viewBox="0 0 100 100"><path stroke="#000000" stroke-width="0" stroke-linejoin="round" stroke-linecap="round" fill="#000000" d="M 64.5 35.5 C 55 32 55 32 50 30 C 45 32 45 32 35.5 35.5 C 32 45 32 45 30 50 C 34 60 34 60 35.5 64.5 C 40 66 40 66 50 70 C 60 66 60 66 64.5 64.5 C 66 60 66 60 70 50 C 68 45 68 45 64.5 35.5 Z M 42.75 42.75 C 47 41 47 41 50 40 C 53 41 53 41 57.25 42.75 C 59 47 59 47 60 50 C 59 53 59 53 57.25 57.25 C 53 59 53 59 50 60 C 47 59 47 59 42.75 57.25 C 41 53 41 53 40 50 C 41 47 41 47 42.75 42.75 Z M 71.5 28.5 C 75 38 77 43 80 50 C 77 57 75 62 71.5 71.5 C 62 75 57 77 50 80 C 43 77 38 75 28.5 71.5 C 25 62 23 57 20 50 C 23 43 25 38 28.5 28.5 C 38 25 43 23 50 20 C 57 23 62 25 71.5 28.5 Z"></path></svg>