<svg version="1.1" xmlns="http://www.w3.org/2000/svg" viewBox="0 0 100 100"><path stroke="#000000" stroke-width="0" stroke-linejoin="round" stroke-linecap="round" fill="#000000" d="M 80 75 C 78 73 76 74 76 77 C 77 81 73 81 74 77 C 74 74 72 73 70 75 C 68 77 66 74 69 73 C 72 72 72 70 69 69 C 66 68 68 65 70 67 C 72 69 74 68 74 65 C 73 61 77 61 76 65 C 76 68 78 69 80 67 C 82 65 84 68 81 69 C 78 70 78 72 81 73 C 84 74 82 77 80 75 Z M 30 75 C 28 73 26 74 26 77 C 27 81 23 81 24 77 C 24 74 22 73 20 75 C 18 77 16 74 19 73 C 22 72 22 70 19 69 C 16 68 18 65 20 67 C 22 69 24 68 24 65 C 23 61 27 61 26 65 C 26 68 28 69 30 67 C 32 65 34 68 31 69 C 28 70 28 72 31 73 C 34 74 32 77 30 75 Z M 51 64 C 55 60 58 59 54 65 C 54 65 52 68 52 68 C 50 71 50 71 52 73 C 53 74 54 75 55 76 C 57 78 57 78 55 80 C 53 82 51 84 49 86 C 45 90 42 91 46 85 C 46 85 48 82 48 82 C 50 79 50 79 48 77 C 47 76 46 75 45 74 C 43 72 43 72 45 70 C 47 68 49 66 51 64 Z M 80 60 C 60 60 40 60 20 60 C 14 60 10 56 10 50 C 10 44 14 40 20 40 C 20 29 29 20 40 20 C 48 20 55.5 24.5 58.5 32.5 C 61 31 63 30 66 30 C 73 30 79 35 80 40 C 86 40 90 44 90 50 C 90 56 86 60 80 60 Z"></path></svg>