<svg version="1.1" xmlns="http://www.w3.org/2000/svg" viewBox="0 0 100 100"><path stroke="#000000" stroke-width="0" stroke-linejoin="round" stroke-linecap="round" fill="#000000" d="M 12 50 C 12 51 13 52 14 53 C 15 54 14 55 13 54 C 12 53 10 51 10 50 C 10 49 12 47 13 46 C 14 45 15 46 14 47 C 13 48 12 49 12 50 Z M 46 51 C 41 51 35 51 29 52 C 22 53 20 56 20 60 C 20 64 22 66 25 67 C 28 68 30 67 30 65 C 30 64 28 63 27 64 C 26 65 27 61 31 61 C 34 61 36 63 36 66 C 36 69 33 72 28 72 C 19 72 14 67 14 60 C 14 55 17 52 19 51 C 21 50 21 50 19 49 C 17 48 14 45 14 40 C 14 33 19 28 28 28 C 33 28 36 31 36 34 C 36 37 34 39 31 39 C 27 39 26 35 27 36 C 28 37 30 36 30 35 C 30 33 28 32 25 33 C 22 34 20 36 20 40 C 20 44 22 47 29 48 C 35 49 41 49 46 49 C 45 47 40 43 40 36 C 40 27 46 20 59 20 C 65 20 69 24 69 28 C 69 32 66 35 62 35 C 58 35 55 30 57 31 C 59 32 61 31 61 29 C 61 27 59 26 55 27 C 51 28 48 31 48 36 C 48 42 50 46 60 47 C 70 48 75 48 84 47 C 89 46 90 47 90 50 C 90 53 89 54 84 53 C 75 52 70 52 60 53 C 50 54 48 58 48 64 C 48 69 51 72 55 73 C 59 74 61 73 61 71 C 61 69 59 68 57 69 C 55 70 58 65 62 65 C 66 65 69 68 69 72 C 69 76 65 80 59 80 C 46 80 40 73 40 64 C 40 57 45 53 46 51 Z"></path></svg>