<svg version="1.1" xmlns="http://www.w3.org/2000/svg" viewBox="0 0 100 100"><path stroke="#000000" stroke-width="0" stroke-linejoin="round" stroke-linecap="round" fill="#000000" d="M 22 50 C 22 51 24 54 25 55 C 26 56 25 57 23 55 C 22 54 20 52 20 50 C 20 48 22 46 23 45 C 25 43 26 44 25 45 C 24 46 22 49 22 50 Z M 42 31 C 44 32 46 31 46 29 C 46 27 44 26 40 27 C 36 28 33 31 33 36 C 33 42 35 46 45 47 C 55 48 65 48 74 47 C 79 46 80 47 80 50 C 80 53 79 54 74 53 C 65 52 55 52 45 53 C 35 54 33 58 33 64 C 33 69 36 72 40 73 C 44 74 46 73 46 71 C 46 69 44 68 42 69 C 40 70 43 65 47 65 C 51 65 54 68 54 72 C 54 76 50 80 44 80 C 31 80 25 73 25 64 C 25 57 30 52 32 51 C 34 50 34 50 32 49 C 30 48 25 43 25 36 C 25 27 31 20 44 20 C 50 20 54 24 54 28 C 54 32 51 35 47 35 C 43 35 40 30 42 31 Z"></path></svg>