<svg version="1.1" xmlns="http://www.w3.org/2000/svg" viewBox="0 0 100 100"><path stroke="#000000" stroke-width="0" stroke-linejoin="round" stroke-linecap="round" fill="#000000" d="M 55 35 C 55 32 57 30 60 30 C 63 30 72 30 75 30 C 78 30 80 32 80 35 C 80 38 78 40 75 40 C 72 40 63 40 60 40 C 57 40 55 38 55 35 Z M 75 75 C 73 77 70 77 68 75 C 66 73 52 59 50 57 C 48 55 48 52 50 50 C 52 48 55 48 57 50 C 59 52 73 66 75 68 C 77 70 77 73 75 75 Z M 35 80 C 32 80 30 78 30 75 C 30 72 30 63 30 60 C 30 57 32 55 35 55 C 38 55 40 57 40 60 C 40 63 40 72 40 75 C 40 78 38 80 35 80 Z M 20 36 C 20 27 27 20 36 20 C 44 20 50 26 50 37 C 50 47 47 50 37 50 C 26 50 20 44 20 36 Z"></path></svg>