<svg version="1.1" xmlns="http://www.w3.org/2000/svg" viewBox="0 0 100 100"><path stroke="#000000" stroke-width="0" stroke-linejoin="round" stroke-linecap="round" fill="#000000" d="M 54 51 C 55 53 60 57 60 64 C 60 73 54 80 41 80 C 35 80 31 76 31 72 C 31 68 34 65 38 65 C 42 65 45 70 43 69 C 41 68 39 69 39 71 C 39 73 41 74 45 73 C 49 72 52 69 52 64 C 52 58 50 54 40 53 C 30 52 25 52 16 53 C 11 54 10 53 10 50 C 10 47 11 46 16 47 C 25 48 30 48 40 47 C 50 46 52 42 52 36 C 52 31 49 28 45 27 C 41 26 39 27 39 29 C 39 31 41 32 43 31 C 45 30 42 35 38 35 C 34 35 31 32 31 28 C 31 24 35 20 41 20 C 54 20 60 27 60 36 C 60 43 55 47 54 49 C 59 49 65 49 71 48 C 78 47 80 44 80 40 C 80 36 78 34 75 33 C 72 32 70 33 70 35 C 70 36 72 37 73 36 C 74 35 73 39 69 39 C 66 39 64 37 64 34 C 64 31 67 28 72 28 C 81 28 86 33 86 40 C 86 45 83 48 81 49 C 79 50 79 50 81 51 C 83 52 86 55 86 60 C 86 67 81 72 72 72 C 67 72 64 69 64 66 C 64 63 66 61 69 61 C 73 61 74 65 73 64 C 72 63 70 64 70 65 C 70 67 72 68 75 67 C 78 66 80 64 80 60 C 80 56 78 53 71 52 C 65 51 59 51 54 51 Z M 88 50 C 88 49 87 48 86 47 C 85 46 86 45 87 46 C 88 47 90 49 90 50 C 90 51 88 53 87 54 C 86 55 85 54 86 53 C 87 52 88 51 88 50 Z"></path></svg>