<svg version="1.1" xmlns="http://www.w3.org/2000/svg" viewBox="0 0 100 100"><path stroke="#000000" stroke-width="0" stroke-linejoin="round" stroke-linecap="round" fill="#000000" d="M 48 25 C 48 25 48 25 50 25 C 52 25 52 25 52 25 C 52 24 51 20 50 20 C 49 20 48 24 48 25 Z M 48 75 C 48 76 49 80 50 80 C 51 80 52 76 52 75 C 52 75 52 75 50 75 C 48 75 48 75 48 75 Z M 42 26 C 43 20 46 10 50 10 C 54 10 57 20 58 26 C 68 30 75 39 75 50 C 75 61 67 71 58 74 C 57 80 54 90 50 90 C 46 90 43 80 42 74 C 32 70 25 61 25 50 C 25 39 32 30 42 26 Z"></path></svg>