<svg version="1.1" xmlns="http://www.w3.org/2000/svg" viewBox="0 0 100 100"><path stroke="#000000" stroke-width="0" stroke-linejoin="round" stroke-linecap="round" fill="#000000" d="M 32 50 C 32 60 40 68 50 68 C 60 68 68 60 68 50 C 68 40 60 32 50 32 C 40 32 32 40 32 50 Z M 68 41 C 68 41 68 43 69 44 C 72 46 76 48 80 50 C 76 52 72 54 69 56 C 68 57 68 59 68 59 C 68 62 70 68 71 71 C 68 70 62 68 59 68 C 59 68 57 68 56 69 C 54 72 52 76 50 80 C 48 76 46 72 44 69 C 43 68 41 68 41 68 C 38 68 32 70 29 71 C 30 68 32 62 32 59 C 32 59 32 57 31 56 C 28 54 24 52 20 50 C 24 48 28 46 31 44 C 32 43 32 41 32 41 C 32 38 30 32 29 29 C 32 30 38 32 41 32 C 41 32 43 32 44 31 C 46 28 48 24 50 20 C 52 24 54 28 56 31 C 57 32 59 32 59 32 C 62 32 68 30 71 29 C 70 32 68 38 68 41 Z"></path></svg>