<svg version="1.1" xmlns="http://www.w3.org/2000/svg" viewBox="0 0 100 100"><path stroke="#000000" stroke-width="0" stroke-linejoin="round" stroke-linecap="round" fill="#000000" d="M 38 39 C 43 42 47 39 47 33 C 47 30 45 27 45 25 C 45 22 47 20 50 20 C 53 20 55 22 55 25 C 55 27 53 30 53 33 C 53 39 57 42 62 39 C 66 37 66 34 70 32 C 72 31 74 31 76 34 C 78 37 76 40 74 41 C 72 42 69 42 67 43 C 60 47 60 53 67 57 C 69 58 72 58 74 59 C 76 60 78 63 76 66 C 74 69 72 69 70 68 C 66 66 66 63 62 61 C 57 58 53 61 53 67 C 53 70 55 73 55 75 C 55 78 53 80 50 80 C 47 80 45 78 45 75 C 45 73 47 70 47 67 C 47 61 43 58 38 61 C 34 63 34 66 30 68 C 28 69 26 69 24 66 C 22 63 24 60 26 59 C 28 58 31 58 33 57 C 40 53 40 47 33 43 C 31 42 28 42 26 41 C 24 40 22 37 24 34 C 26 31 28 31 30 32 C 34 34 34 37 38 39 Z"></path></svg>