<svg version="1.1" xmlns="http://www.w3.org/2000/svg" viewBox="0 0 100 100"><path stroke="#000000" stroke-width="0" stroke-linejoin="round" stroke-linecap="round" fill="#000000" d="M 80 60 C 60 60 40 60 20 60 C 14 60 10 56 10 50 C 10 44 14 40 20 40 C 20 29 29 20 40 20 C 48 20 55.5 24.5 58.5 32.5 C 61 31 63 30 66 30 C 73 30 79 35 80 40 C 86 40 90 44 90 50 C 90 56 86 60 80 60 Z M 21 61 C 22 61 23 62 24 63 C 25 64 27 66 30 69 C 31 70 30 71 29 70 C 26 67 24 65 23 64 C 22 63 21 62 21 61 Z M 40 75 C 40 78 38 80 35 80 C 32 80 30 78 30 73 C 30 71 31 70 33 70 C 38 70 40 72 40 75 Z M 71 61 C 72 61 73 62 74 63 C 75 64 77 66 80 69 C 81 70 80 71 79 70 C 76 67 74 65 73 64 C 72 63 71 62 71 61 Z M 90 75 C 90 78 88 80 85 80 C 82 80 80 78 80 73 C 80 71 81 70 83 70 C 88 70 90 72 90 75 Z"></path></svg>