<svg version="1.1" xmlns="http://www.w3.org/2000/svg" viewBox="0 0 100 100"><path stroke="#000000" stroke-width="0" stroke-linejoin="round" stroke-linecap="round" fill="#000000" d="M 40 72 C 48 72 53 71 58 70 C 54 75 51 80 50 80 C 49 80 42 76 40 72 Z M 35 63 C 36 63 36 63 34 63 C 46 63 55 60 65 59 C 64 63 61 64 59 68 C 53 69 47 70 39 70 C 37 67 35 65 34 63 C 34.333 63 34.667 63 35 63 Z M 30 52 C 42 51 58 47 70 45 C 67 50 67 54 65 57 C 58 58 43 61 33 61 C 32 58 31 55 30 52 Z M 23 39 C 43 39 59 36 77 32 C 76 37 73 40 71 43 C 59 45 44 48 29 50 C 27 46 24 43 23 39 Z M 22 37 C 20 33 20 29 20 25 C 20 23 80 18 80 20 C 80 25 79 27 78 30 C 60 33 42 36 22 37 Z"></path></svg>