<svg version="1.1" xmlns="http://www.w3.org/2000/svg" viewBox="0 0 100 100"><path stroke="#000000" stroke-width="0" stroke-linejoin="round" stroke-linecap="round" fill="#000000" d="M 80 60 C 60 60 40 60 20 60 C 14 60 10 56 10 50 C 10 44 14 40 20 40 C 20 29 29 20 40 20 C 48 20 55.5 24.5 58.5 32.5 C 61 31 63 30 66 30 C 73 30 79 35 80 40 C 86 40 90 44 90 50 C 90 56 86 60 80 60 Z M 46 61 C 47 61 48 62 49 63 C 50 64 52 66 55 69 C 56 70 55 71 54 70 C 51 67 49 65 48 64 C 47 63 46 62 46 61 Z M 65 75 C 65 78 63 80 60 80 C 57 80 55 78 55 73 C 55 71 56 70 58 70 C 63 70 65 72 65 75 Z"></path></svg>