<svg version="1.1" xmlns="http://www.w3.org/2000/svg" viewBox="0 0 100 100"><path stroke="#000000" stroke-width="0" stroke-linejoin="round" stroke-linecap="round" fill="#000000" d="M 51 64 C 55 60 58 59 54 65 C 54 65 52 68 52 68 C 50 71 50 71 52 73 C 53 74 54 75 55 76 C 57 78 57 78 55 80 C 53 82 51 84 49 86 C 45 90 42 91 46 85 C 46 85 48 82 48 82 C 50 79 50 79 48 77 C 47 76 46 75 45 74 C 43 72 43 72 45 70 C 47 68 49 66 51 64 Z M 80 60 C 60 60 40 60 20 60 C 14 60 10 56 10 50 C 10 44 14 40 20 40 C 20 29 29 20 40 20 C 48 20 55.5 24.5 58.5 32.5 C 61 31 63 30 66 30 C 73 30 79 35 80 40 C 86 40 90 44 90 50 C 90 56 86 60 80 60 Z"></path></svg>