<svg version="1.1" xmlns="http://www.w3.org/2000/svg" viewBox="0 0 100 100"><path stroke="#000000" stroke-width="0" stroke-linejoin="round" stroke-linecap="round" fill="#000000" d="M 73 40 C 70 31 61 25 50 25 C 45 25 40 26 36 29 C 39 30 41 33 43 32 C 45 31 46 31 47 31 C 49 31 51 33 51 35 C 51 37 49 39 47 39 C 46 39 42 40 40 44 C 39 48 36 51 32 51 C 29 51 27 49 25 47 C 25 48 25 49 25 50 C 25 64 36 75 50 75 C 64 75 75 64 75 50 C 75 50 74 50 72 52 C 70 54 68 55 65 54 C 62 53 59 49 57 48 C 55 47 52 44 52 41 C 52 38 55 35 58 35 C 61 35 64 37 65 39 C 66 41 66 42 70 42 C 73 42 73 40 73 40 Z M 60 62 C 60 60 62 58 64 58 C 66 58 68 60 68 62 C 68 64 66 66 64 66 C 62 66 60 64 60 62 Z M 20 50 C 20 33 33 20 50 20 C 67 20 80 34 80 50 C 80 67 67 80 50 80 C 33 80 20 67 20 50 Z M 47 48 C 47 46 48 45 50 45 C 52 45 53 46 53 48 C 53 50 52 51 50 51 C 48 51 47 50 47 48 Z M 33 57 C 33 55 35 53 37 53 C 39 53 41 55 41 57 C 41 59 39 61 37 61 C 35 61 33 59 33 57 Z"></path></svg>