<svg version="1.1" xmlns="http://www.w3.org/2000/svg" viewBox="0 0 100 100"><path stroke="#000000" stroke-width="0" stroke-linejoin="round" stroke-linecap="round" fill="#000000" d="M 55 75 C 53 73 51 74 51 77 C 52 81 48 81 49 77 C 49 74 47 73 45 75 C 43 77 41 74 44 73 C 47 72 47 70 44 69 C 41 68 43 65 45 67 C 47 69 49 68 49 65 C 48 61 52 61 51 65 C 51 68 53 69 55 67 C 57 65 59 68 56 69 C 53 70 53 72 56 73 C 59 74 57 77 55 75 Z M 80 60 C 60 60 40 60 20 60 C 14 60 10 56 10 50 C 10 44 14 40 20 40 C 20 29 29 20 40 20 C 48 20 55.5 24.5 58.5 32.5 C 61 31 63 30 66 30 C 73 30 79 35 80 40 C 86 40 90 44 90 50 C 90 56 86 60 80 60 Z"></path></svg>