<svg version="1.1" xmlns="http://www.w3.org/2000/svg" viewBox="0 0 100 100"><path stroke="#000000" stroke-width="0" stroke-linejoin="round" stroke-linecap="round" fill="#000000" d="M 75 48 C 75 48 75 48 75 50 C 75 52 75 52 75 52 C 76 52 80 51 80 50 C 80 49 76 48 75 48 Z M 25 48 C 24 48 20 49 20 50 C 20 51 24 52 25 52 C 25 52 25 52 25 50 C 25 48 25 48 25 48 Z M 74 42 C 80 43 90 46 90 50 C 90 54 80 57 74 58 C 70 68 61 75 50 75 C 39 75 29 67 26 58 C 20 57 10 54 10 50 C 10 46 20 43 26 42 C 30 32 39 25 50 25 C 61 25 70 32 74 42 Z"></path></svg>