<svg version="1.1" xmlns="http://www.w3.org/2000/svg" viewBox="0 0 100 100"><path stroke="#000000" stroke-width="0" stroke-linejoin="round" stroke-linecap="round" fill="#000000" d="M 50 25 C 45 25 40 27 36 29 C 38 29 41 35 42 33 C 43 31 45 25 48 30 C 51 35 44 37 44 39 C 44 41 44 45 42 43 C 39 40 37 48 40 47 C 44 45 43 49 41 50 C 40 51 40 51 41 51 C 44 51 46 48 48 51 C 50 54 50 54 49 56 C 48 58 48 60 49 62 C 49 64 50 65 46 69 C 43 70 44 63 43 62 C 41 60 40 60 39 58 C 38 56 38 54 39 53 C 40 52 36 50 34 47 C 31 42 29 52 29 46 C 29 42 31 39 31 37 C 31 37 31 36 30 34 C 27 39 25 44 25 50 C 25 59 30 67 37 72 C 41 71 43 71 45 71 C 47 71 50 70 53 70 C 60 70 62 71 64 71 C 70 67 74 60 75 52 C 74 53 74 55 72 54 C 70 53 69 52 70 51 C 71 50 69 49 68 50 C 69 52 69 53 69 54 C 69 56 69 58 69 60 C 69 63 68 64 67 66 C 66 68 62 67 62 65 C 62 62 62 59 60 58 C 58 59 55 59 55 56 C 54 54 55 50 56 50 C 58 50 56 45 60 47 C 62 48 66 46 67 48 C 67 48 68 47 69 46 C 70 45 69 44 68 43 C 67 42 63 46 64 43 C 66 39 62 44 58 45 C 55 46 56 41 59 39 C 60 37 56 31 59 33 C 65 37 65 32 64 33 C 62 35 62 31 64 31 C 66 31 68 34 69 34 C 69 34 70 34 70 34 C 66 30 60 26 53 25 C 54 26 54 26 54 27 C 54 28 53 28 53 29 C 53 31 51 30 51 29 C 51 27 50 27 50 25 Z M 73 45 C 74 44 74 43 74 42 C 74 41 73 43 72 44 C 71 45 72 46 73 45 Z M 20 50 C 20 33 33 20 50 20 C 67 20 80 33 80 50 C 80 67 67 80 50 80 C 33 80 20 67 20 50 Z"></path></svg>