<svg version="1.1" xmlns="http://www.w3.org/2000/svg" viewBox="0 0 100 100"><path stroke="#000000" stroke-width="0" stroke-linejoin="round" stroke-linecap="round" fill="#000000" d="M 74 52 C 77 54 79 56 80 60 C 86 60 90 64 90 70 C 90 76 86 80 80 80 C 60 80 40 80 20 80 C 14 80 10 76 10 70 C 10 64 14 60 20 60 C 20 49 29 40 40 40 C 41 40 41 40 42 40 C 45 39 45 39 46 38 C 47 37 47 36 47 36 C 47 34 45 29 44 27 C 47 28 51 29 53 29 C 53 29 55 29 56 28 C 57 26 59 22 60 20 C 61 22 63 26 64 28 C 65 29 67 29 67 29 C 69 29 73 28 76 27 C 75 29 73 34 73 36 C 73 36 73 37 74 38 C 79 41 79 41 82.5 42.5 C 79 44 79 44 74 47 C 73 48 73 51 74 52 Z"></path></svg>