<svg version="1.1" xmlns="http://www.w3.org/2000/svg" viewBox="0 0 100 100"><path stroke="#000000" stroke-width="0" stroke-linejoin="round" stroke-linecap="round" fill="#000000" d="M 66 54 C 63 61 63 61 60 68 C 57 61 57 61 54 54 C 47 51 47 51 40 48 C 47 45 47 45 54 42 C 57 35 57 35 60 28 C 63 35 63 35 66 42 C 73 45 73 45 80 48 C 73 51 73 51 66 54 Z M 38 73 C 37 75 37 75 35 80 C 33 75 33 75 32 73 C 30 72 30 72 25 70 C 30 68 30 68 32 67 C 33 65 33 65 35 60 C 37 65 37 65 38 67 C 40 68 40 68 45 70 C 40 72 40 72 38 73 Z M 33 33 C 32 35 32 35 30 40 C 28 35 28 35 27 33 C 25 32 25 32 20 30 C 25 28 25 28 27 27 C 28 25 28 25 30 20 C 32 25 32 25 33 27 C 35 28 35 28 40 30 C 35 32 35 32 33 33 Z"></path></svg>