<svg version="1.1" xmlns="http://www.w3.org/2000/svg" viewBox="0 0 100 100"><path stroke="#000000" stroke-width="0" stroke-linejoin="round" stroke-linecap="round" fill="#000000" d="M 71 72 C 72 70 73 68 74 66 C 75 64 75 64 76 66 C 77 68 78 70 79 72 C 79 72 80 74 80 75 C 80 78 78 80 75 80 C 72 80 70 78 70 75 C 70 74 71 72 71 72 Z M 46 72 C 47 70 48 68 49 66 C 50 64 50 64 51 66 C 52 68 53 70 54 72 C 54 72 55 74 55 75 C 55 78 53 80 50 80 C 47 80 45 78 45 75 C 45 74 46 72 46 72 Z M 21 72 C 22 70 23 68 24 66 C 25 64 25 64 26 66 C 27 68 28 70 29 72 C 29 72 30 74 30 75 C 30 78 28 80 25 80 C 22 80 20 78 20 75 C 20 74 21 72 21 72 Z M 80 60 C 60 60 40 60 20 60 C 14 60 10 56 10 50 C 10 44 14 40 20 40 C 20 29 29 20 40 20 C 48 20 55.5 24.5 58.5 32.5 C 61 31 63 30 66 30 C 73 30 79 35 80 40 C 86 40 90 44 90 50 C 90 56 86 60 80 60 Z"></path></svg>