<svg version="1.1" xmlns="http://www.w3.org/2000/svg" viewBox="0 0 100 100"><path stroke="#000000" stroke-width="0" stroke-linejoin="round" stroke-linecap="round" fill="#000000" d="M 46 72 C 47 70 48 68 49 66 C 50 64 50 64 51 66 C 52 68 53 70 54 72 C 54 72 55 74 55 75 C 55 78 53 80 50 80 C 47 80 45 78 45 75 C 45 74 46 72 46 72 Z M 80 60 C 60 60 40 60 20 60 C 14 60 10 56 10 50 C 10 44 14 40 20 40 C 20 29 29 20 40 20 C 48 20 55.5 24.5 58.5 32.5 C 61 31 63 30 66 30 C 73 30 79 35 80 40 C 86 40 90 44 90 50 C 90 56 86 60 80 60 Z"></path></svg>