<svg version="1.1" xmlns="http://www.w3.org/2000/svg" viewBox="0 0 100 100"><path stroke="#000000" stroke-width="0" stroke-linejoin="round" stroke-linecap="round" fill="#000000" d="M 78 50 C 78 49 76 46 75 45 C 74 44 75 43 77 45 C 78 46 80 48 80 50 C 80 52 78 54 77 55 C 75 57 74 56 75 55 C 76 54 78 51 78 50 Z M 58 31 C 60 30 57 35 53 35 C 49 35 46 32 46 28 C 46 24 50 20 56 20 C 69 20 75 27 75 36 C 75 43 70 48 68 49 C 66 50 66 50 68 51 C 70 52 75 57 75 64 C 75 73 69 80 56 80 C 50 80 46 76 46 72 C 46 68 49 65 53 65 C 57 65 60 70 58 69 C 56 68 54 69 54 71 C 54 73 56 74 60 73 C 64 72 67 69 67 64 C 67 58 65 54 55 53 C 45 52 35 52 26 53 C 21 54 20 53 20 50 C 20 47 21 46 26 47 C 35 48 45 48 55 47 C 65 46 67 42 67 36 C 67 31 64 28 60 27 C 56 26 54 27 54 29 C 54 31 56 32 58 31 Z"></path></svg>