<svg version="1.1" xmlns="http://www.w3.org/2000/svg" viewBox="0 0 100 100"><path stroke="#000000" stroke-width="0" stroke-linejoin="round" stroke-linecap="round" fill="#000000" d="M 56 71 C 53 74 52 75 51 76 C 47 80 45 81 42 78 C 38 74 42 71 45 68 C 47 66 50 63 50 60 C 50 57 47 54 45 52 C 43 50 40 46 40 40 C 40 35 41 34 41 34 C 40 35 38 37 31 44 C 28 47 30 45 30 49 C 30 52 28 54 25 54 C 22 54 20 52 20 49 C 20 46 22 44 25 44 C 29 44 27 46 30 43 C 37 36 43 30 44 29 C 47 26 48 25 49 24 C 53 20 55 19 58 22 C 62 26 58 29 55 32 C 53 34 50 37 50 40 C 50 43 53 46 55 48 C 57 50 60 54 60 60 C 60 65 59 66 59 66 C 60 65 62 63 69 56 C 72 53 70 55 70 51 C 70 48 72 46 75 46 C 78 46 80 48 80 51 C 80 54 78 56 75 56 C 71 56 73 54 70 57 C 63 64 57 70 56 71 Z"></path></svg>