<svg version="1.1" xmlns="http://www.w3.org/2000/svg" viewBox="0 0 100 100"><path stroke="#000000" stroke-width="0" stroke-linejoin="round" stroke-linecap="round" fill="#000000" d="M 71 56 C 70 57 64 63 57 70 C 54 73 56 71 56 75 C 56 78 54 80 51 80 C 48 80 46 78 46 75 C 46 72 48 70 51 70 C 55 70 53 72 56 69 C 63 62 65 60 66 59 C 66 59 65 60 60 60 C 54 60 50 57 48 55 C 46 53 43 50 40 50 C 37 50 34 53 32 55 C 29 58 26 62 22 58 C 19 55 20 53 24 49 C 25 48 26 47 29 44 C 30 43 36 37 43 30 C 46 27 44 29 44 25 C 44 22 46 20 49 20 C 52 20 54 22 54 25 C 54 28 52 30 49 30 C 45 30 47 28 44 31 C 37 38 35 40 34 41 C 34 41 35 40 40 40 C 46 40 50 43 52 45 C 54 47 57 50 60 50 C 63 50 66 47 68 45 C 71 42 74 38 78 42 C 81 45 80 47 76 51 C 75 52 74 53 71 56 Z"></path></svg>