<svg version="1.1" xmlns="http://www.w3.org/2000/svg" viewBox="0 0 100 100"><path stroke="#000000" stroke-width="0" stroke-linejoin="round" stroke-linecap="round" fill="#000000" d="M 34 70 C 39 73 41 74 47 75 C 47 69 47 63 47 57 C 43 61 38 66 34 70 Z M 53 75 C 59 74 61 73 66 70 C 62 66 57 61 53 57 C 53 63 53 69 53 75 Z M 70 66 C 73 62 75 56 75 50 C 75 37 66 27 53 25 C 53 33 53 41 53 49 C 59 55 64 60 70 66 Z M 47 25 C 34 27 25 37 25 50 C 25 56 27 62 30 66 C 36 60 41 55 47 49 C 47 41 47 33 47 25 Z M 20 50 C 20 33 33 20 50 20 C 67 20 80 33 80 50 C 80 67 67 80 50 80 C 33 80 20 67 20 50 Z"></path></svg>