<svg version="1.1" xmlns="http://www.w3.org/2000/svg" viewBox="0 0 100 100"><path stroke="#000000" stroke-width="0" stroke-linejoin="round" stroke-linecap="round" fill="#000000" d="M 43 70 C 43 66 46 63 50 63 C 54 63 57 66 57 70 C 57 74 54 77 50 77 C 46 77 43 74 43 70 Z M 43 30 C 43 26 46 23 50 23 C 54 23 57 26 57 30 C 57 34 54 37 50 37 C 46 37 43 34 43 30 Z M 20 50 C 20 47 22 45 25 45 C 40 45 60 45 75 45 C 78 45 80 47 80 50 C 80 53 78 55 75 55 C 60 55 40 55 25 55 C 22 55 20 53 20 50 Z"></path></svg>