<svg version="1.1" xmlns="http://www.w3.org/2000/svg" viewBox="0 0 100 100"><path stroke="#000000" stroke-width="0" stroke-linejoin="round" stroke-linecap="round" fill="#000000" d="M 62.5 48 C 59 40 56 35 52 34 C 52 38 52 44 52 48 C 55 48 58 48 62.5 48 Z M 48 34 C 44 35 41 40 37.5 48 C 42 48 45 48 48 48 C 48 44 48 38 48 34 Z M 36 52 C 33 60 32 68 32 73 C 32 74 31 75 30 75 C 29 75 28 74 28 73 C 28 68 29 61 32 52 C 28 52 25 52 22 52 C 21 52 20 51 20 50 C 20 49 21 48 22 48 C 25 48 28 48 33.5 48 C 37 39 42 31 48 30 C 48 28 48 25 48 22 C 48 21 49 20 50 20 C 51 20 52 21 52 22 C 52 25 52 28 52 30 C 58 31 63 39 66.5 48 C 72 48 75 48 78 48 C 79 48 80 49 80 50 C 80 51 79 52 78 52 C 75 52 72 52 68 52 C 71 61 72 68 72 73 C 72 74 71 75 70 75 C 69 75 68 74 68 73 C 68 68 67 60 64 52 C 58 52 55 52 52 52 C 52 60 52 70 52 78 C 52 79 51 80 50 80 C 49 80 48 79 48 78 C 48 70 48 60 48 52 C 45 52 42 52 36 52 Z"></path></svg>