<svg version="1.1" xmlns="http://www.w3.org/2000/svg" viewBox="0 0 100 100"><path stroke="#000000" stroke-width="0" stroke-linejoin="round" stroke-linecap="round" fill="#000000" d="M 40 30 C 40 33 38 35 35 35 C 32 35 30 33 30 30 C 30 19 39 10 50 10 C 61 10 70 19 70 30 C 70 39 63 45 57 51 C 55 53 55 56 55 57 C 55 58 55 62 55 65 C 55 68 53 70 50 70 C 47 70 45 68 45 65 C 45 62 45 58 45 55 C 45 50 47 48 50 45 C 55 40 60 35 60 30 C 60 25 55 20 50 20 C 45 20 40 25 40 30 Z M 45 85 C 45 82 47 80 50 80 C 53 80 55 82 55 85 C 55 88 53 90 50 90 C 47 90 45 88 45 85 Z"></path></svg>