<svg version="1.1" xmlns="http://www.w3.org/2000/svg" viewBox="0 0 100 100"><path stroke="#000000" stroke-width="0" stroke-linejoin="round" stroke-linecap="round" fill="#000000" d="M 58 30 C 53 30 47 30 42 30 C 42 44 42 62 42 75 C 42 78 40 80 37 80 C 34 80 32 78 32 75 C 32 62 32 44 32 30 C 29 30 27 30 25 30 C 22 30 20 28 20 25 C 20 22 22 20 25 20 C 40 20 60 20 75 20 C 78 20 80 22 80 25 C 80 28 78 30 75 30 C 73 30 71 30 68 30 C 68 44 68 62 68 75 C 68 78 66 80 63 80 C 60 80 58 78 58 75 C 58 62 58 44 58 30 Z"></path></svg>