<svg version="1.1" xmlns="http://www.w3.org/2000/svg" viewBox="0 0 100 100"><path stroke="#000000" stroke-width="0" stroke-linejoin="round" stroke-linecap="round" fill="#000000" d="M 52 48 C 60 48 70 48 78 48 C 79 48 80 49 80 50 C 80 51 79 52 78 52 C 70 52 60 52 52 52 C 52 60 52 70 52 78 C 52 79 51 80 50 80 C 49 80 48 79 48 78 C 48 70 48 60 48 52 C 40 52 30 52 22 52 C 21 52 20 51 20 50 C 20 49 21 48 22 48 C 30 48 40 48 48 48 C 48 40 48 30 48 22 C 48 21 49 20 50 20 C 51 20 52 21 52 22 C 52 30 52 40 52 48 Z"></path></svg>