<svg version="1.1" xmlns="http://www.w3.org/2000/svg" viewBox="0 0 100 100"><path stroke="#000000" stroke-width="0" stroke-linejoin="round" stroke-linecap="round" fill="#000000" d="M 50 43 C 55 38 60 33 64 29 C 66 27 69 27 71 29 C 73 31 73 34 71 36 C 67 40 62 45 57 50 C 62 55 67 60 71 64 C 73 66 73 69 71 71 C 69 73 66 73 64 71 C 60 67 55 62 50 57 C 45 62 40 67 36 71 C 34 73 31 73 29 71 C 27 69 27 66 29 64 C 33 60 38 55 43 50 C 38 45 33 40 29 36 C 27 34 27 31 29 29 C 31 27 34 27 36 29 C 40 33 45 38 50 43 Z"></path></svg>