<svg version="1.1" xmlns="http://www.w3.org/2000/svg" viewBox="0 0 100 100"><path stroke="#000000" stroke-width="0" stroke-linejoin="round" stroke-linecap="round" fill="#000000" d="M 24 55 C 22 55 20 53 20 50 C 20 47 22 45 24 45 C 24 45 24 45 24 45 C 24 45 24 45 24 45 C 24 38 24 31 24 25 C 24 22 26 20 29 20 C 32 20 34 22 34 25 C 34 31 34 38 34 45 C 34 45 34 45 34 45 C 35 45 37 45 38 45 C 38 45 38 45 38 45 C 38 38 38 31 38 25 C 38 22 40 20 43 20 C 46 20 48 22 48 25 C 48 31 48 38 48 45 C 48 45 48 45 48 45 C 49 45 51 45 52 45 C 52 45 52 45 52 45 C 52 38 52 31 52 25 C 52 22 54 20 57 20 C 60 20 62 22 62 25 C 62 31 62 38 62 45 C 62 45 62 45 62 45 C 63 45 65 45 66 45 C 66 38 66 31 66 25 C 66 22 68 20 71 20 C 74 20 76 22 76 25 C 76 31 76 38 76 45 C 76 45 76 45 76 45 C 78 45 80 47 80 50 C 80 53 78 55 76 55 C 76 55 76 55 76 55 C 76 62 76 69 76 75 C 76 78 74 80 71 80 C 68 80 66 78 66 75 C 66 69 66 62 66 55 C 66 55 66 55 66 55 C 65 55 63 55 62 55 C 62 55 62 55 62 55 C 62 62 62 69 62 75 C 62 78 60 80 57 80 C 54 80 52 78 52 75 C 52 69 52 62 52 55 C 52 55 52 55 52 55 C 52 55 52 55 52 55 C 51 55 49 55 48 55 C 48 55 48 55 48 55 C 48 62 48 69 48 75 C 48 78 46 80 43 80 C 40 80 38 78 38 75 C 38 69 38 62 38 55 C 38 55 38 55 38 55 C 37 55 35 55 34 55 C 34 55 34 55 34 55 C 34 62 34 69 34 75 C 34 78 32 80 29 80 C 26 80 24 78 24 75 C 24 69 24 62 24 55 C 24 55 24 55 24 55 Z"></path></svg>