<svg version="1.1" xmlns="http://www.w3.org/2000/svg" viewBox="0 0 100 100"><path stroke="#000000" stroke-width="0" stroke-linejoin="round" stroke-linecap="round" fill="#000000" d="M 55 59 C 55 60 55 60 56 60 C 60 60 65 60 69 60 C 70 60 70 60 70 59 C 70 50 70 40 70 32 C 70 30 70 30 72 30 C 74 30 76 30 78 30 C 80 30 80 30 80 32 C 80 40 80 60 80 68 C 80 70 80 70 78 70 C 72.857 70 63.163 70 47 70 C 45 70 45 70 45 68 C 45 60 45 50 45 41 C 45 40 45 40 44 40 C 40 40 35 40 31 40 C 30 40 30 40 30 41 C 30 50 30 60 30 68 C 30 70 30 70 28 70 C 26 70 24 70 22 70 C 20 70 20 70 20 68 C 20 60 20 40 20 32 C 20 30 20 30 22 30 C 30 30 45 30 53 30 C 55 30 55 30 55 32 C 55 37.5 55 50.625 55 59 Z"></path></svg>