<svg version="1.1" xmlns="http://www.w3.org/2000/svg" viewBox="0 0 100 100"><path stroke="#000000" stroke-width="0" stroke-linejoin="round" stroke-linecap="round" fill="#000000" d="M 50 46 C 50 55 50 65 50 73 C 47 73 43 73 40 73 C 40 65 40 55 40 46 C 43 46 47 46 50 46 Z M 76 27 C 76 41 76 58 76 73 C 73 73 69 73 66 73 C 66 58 66 41 66 27 C 69 27 73 27 76 27 Z M 53 39 C 56 39 60 39 63 39 C 63 50 63 62 63 73 C 60 73 56 73 53 73 C 53 62 53 50 53 39 Z M 37 34 C 37 46 37 60 37 73 C 34 73 30 73 27 73 C 27 60 27 46 27 34 C 30 34 34 34 37 34 Z M 24 76 C 40 76 60 76 78 76 C 79 76 80 77 80 78 C 80 79 79 80 78 80 C 60 80 40 80 24 80 C 20 80 20 80 20 76 C 20 60 20 40 20 22 C 20 21 21 20 22 20 C 23 20 24 21 24 22 C 24 40 24 60 24 76 Z"></path></svg>