<svg version="1.1" xmlns="http://www.w3.org/2000/svg" viewBox="0 0 100 100"><path stroke="#000000" stroke-width="0" stroke-linejoin="round" stroke-linecap="round" fill="#000000" d="M 45 40 C 48 40 50 38 50 35 C 50 32 48 30 45 30 C 42 30 40 32 40 35 C 40 38 42 40 45 40 Z M 45 70 C 51 70 55 67 58 63 C 59 61 59 60 58 58 C 55 54 51 50 45 50 C 39 50 35 54 35 60 C 35 66 39 70 45 70 Z M 66 52 C 68 50 71 47 73 45 C 75 43 77 43 79 45 C 81 47 81 49 79 51 C 75 55 72 58 71 59 C 70 60 70 60 71 61 C 72 62 74 64 78 68 C 81 71 81 73 79 75 C 77 77 75 77 73 75 C 71 73 69 71 67 69 C 66 68 65 68 64 69 C 62 72 57 80 45 80 C 34 80 25 71 25 60 C 25 52 30 47 34 44 C 32 42 30 40 30 35 C 30 27 38 20 45 20 C 52 20 60 27 60 35 C 60 40 58 42 56 44 C 60 47 61 48 64 52 C 65 53 65 53 66 52 Z"></path></svg>