<svg version="1.1" xmlns="http://www.w3.org/2000/svg" viewBox="-2 5 91 91"><path stroke="#000000" stroke-width="0" stroke-linejoin="round" stroke-linecap="round" fill="#000000" d="M 39 68 C 39 68 39 68 39 68 C 34 73 31 76 29 78 C 27 80 24 80 22 78 C 20 76 20 73 22 71 C 23 70 24 69 25 68 C 25 68 25 68 25 68 C 25 68 25 68 25 68 C 25 68 25 68 25 68 C 22 68 20 66 20 63 C 20 60 22 58 25 58 C 28 58 31 58 35 58 C 35 58 35 58 35 58 C 40 53 46 47 51 42 C 42 42 33 42 25 42 C 22 42 20 40 20 37 C 20 34 22 32 25 32 C 36 32 49 32 61 32 C 61 32 61 32 61 32 C 66 27 69 24 71 22 C 73 20 76 20 78 22 C 80 24 80 27 78 29 C 77 30 76 31 75 32 C 75 32 75 32 75 32 C 78 32 80 34 80 37 C 80 40 78 42 75 42 C 72 42 69 42 65 42 C 60 47 54 53 49 58 C 49 58 49 58 49 58 C 49 58 49 58 49 58 C 58 58 67 58 75 58 C 78 58 80 60 80 63 C 80 66 78 68 75 68 C 64 68 51 68 39 68 C 39 68 39 68 39 68 Z"></path></svg>