<svg version="1.1" xmlns="http://www.w3.org/2000/svg" viewBox="0 0 100 100"><path stroke="#000000" stroke-width="0" stroke-linejoin="round" stroke-linecap="round" fill="#000000" d="M 26.419 79.409 C 24.855 79.708 23.236 79.236 22 78 C 20 76 20 73 22 71 C 22.442 70.558 22.909 70.091 23.967 69.033 C 23.978 69.022 23.99 69.01 24.016 68.984 C 24 69.003 24 68.992 24 68.979 C 24 55.25 24 38.192 24 25 C 24 22 26 20 29 20 C 32 20 34 22 34 25 C 34 35.182 34 47.669 34 58.939 C 33.987 59.013 33.998 59.002 34.008 58.992 C 35.214 57.786 36.49 56.51 37.968 55.032 C 37.984 55.016 38 55 38.016 54.984 C 38 55.04 38 55.011 38 54.983 C 38 44.784 38 33.993 38 25 C 38 22 40 20 43 20 C 46 20 48 22 48 25 C 48 30.983 48 37.76 48 44.939 C 47.995 45.005 48.002 44.998 48.009 44.991 C 49.584 43.416 51.146 41.854 51.969 41.031 C 51.989 41.011 52.009 40.991 52.017 40.983 C 52 41.011 52 40.995 52 40.983 C 52 35.097 52 29.793 52 25 C 52 22 54 20 57 20 C 60 20 62 22 62 25 C 62 26.783 62 28.636 62 30.939 C 62.001 30.999 62.006 30.994 62.01 30.99 C 63.955 29.045 65.539 27.461 65.97 27.03 C 66 26.981 66 26.98 66 26.979 C 66 26.193 66 25.593 66 25 C 66 22 68 20 71 20 C 71.98 20 72.853 20.213 73.511 20.567 C 73.535 20.575 73.559 20.582 73.583 20.59 C 75.147 20.292 76.764 20.764 78 22 C 80 24 80 27 78 29 C 77.547 29.453 77.067 29.933 75.984 31.016 C 76 30.94 76 30.941 76 30.943 C 76 44.687 76 61.784 76 75 C 76 78 74 80 71 80 C 68 80 66 78 66 75 C 66 64.794 66 52.273 66 40.983 C 66 40.982 66 40.98 66 40.979 C 64.802 42.198 63.519 43.481 62.033 44.967 C 62 44.956 62 44.975 62 44.995 C 62 55.201 62 66.001 62 75 C 62 78 60 80 57 80 C 54 80 52 78 52 75 C 52 69.007 52 62.216 52 55.027 C 52 55.012 52 54.997 52 54.983 C 51.997 54.991 51.995 55 51.992 55.008 C 50.413 56.587 48.855 58.145 48.032 58.968 C 48 58.944 48 58.948 48 58.952 C 48 64.86 48 70.187 48 75 C 48 78 46 80 43 80 C 40 80 38 78 38 75 C 38 73.22 38 71.37 38 69.07 C 38 69.043 38 69.016 38 68.983 C 37.997 68.992 37.994 69 37.991 69.009 C 36.04 70.96 34.462 72.538 34.031 72.969 C 34 72.967 34 72.988 34 73.008 C 34 73.799 34 74.403 34 75 C 34 78 32 80 29 80 C 28.001 80 27.114 79.778 26.446 79.411 C 26.437 79.406 26.428 79.401 26.42 79.396 Z"></path></svg>