<svg version="1.1" xmlns="http://www.w3.org/2000/svg" viewBox="0 0 100 100"><path stroke="#000000" stroke-width="0" stroke-linejoin="round" stroke-linecap="round" fill="#000000" d="M 26 80 C 25 80 24 80 22 78 C 20 76 20 73 22 71 C 22 71 23 70 24 69 C 24 69 24 69 24 69 C 24 69 24 69 24 69 C 24 55 24 38 24 25 C 24 22 26 20 29 20 C 32 20 34 22 34 25 C 34 35 34 48 34 59 C 36 57 36 57 38 55 C 38 45 38 34 38 25 C 38 22 40 20 43 20 C 46 20 48 22 48 25 C 48 31 48 38 48 45 C 50 43 50 43 52 41 C 52 35 52 30 52 25 C 52 22 54 20 57 20 C 60 20 62 22 62 25 C 62 27 62 29 62 31 C 64 29 64 29 66 27 C 66 26 66 26 66 25 C 66 22 68 20 71 20 C 73 20 73 20 74 20 C 75 20 76 20 78 22 C 80 24 80 27 78 29 C 78 29 77 30 76 31 C 76 31 76 31 76 31 C 76 45 76 62 76 75 C 76 78 74 80 71 80 C 68 80 66 78 66 75 C 66 65 66 52 66 41 C 64 43 64 43 62 45 C 62 55 62 66 62 75 C 62 78 60 80 57 80 C 54 80 52 78 52 75 C 52 69 52 62 52 55 C 50 57 50 57 48 59 C 48 65 48 70 48 75 C 48 78 46 80 43 80 C 40 80 38 78 38 75 C 38 73 38 71 38 69 C 36 71 36 71 34 73 C 34 74 34 74 34 75 C 34 78 32 80 29 80 C 27 80 27 80 26 80 Z"></path></svg>