<svg version="1.1" xmlns="http://www.w3.org/2000/svg" viewBox="0 0 100 100"><path stroke="#000000" stroke-width="0" stroke-linejoin="round" stroke-linecap="round" fill="#000000" d="M 45 59 C 45 51 45 38 45 32 C 45 30 45 30 47 30 C 55 30 70 30 78 30 C 80 30 80 30 80 32 C 80 40 80 60 80 68 C 80 70 80 70 78 70 C 76 70 74 70 72 70 C 70 70 70 70 70 68 C 70 60 70 50 70 41 C 70 40 70 40 69 40 C 65 40 60 40 56 40 C 55 40 55 40 55 41 C 55 50 55 60 55 68 C 55 70 55 70 53 70 C 37 70 27 70 22 70 C 20 70 20 70 20 68 C 20 60 20 40 20 32 C 20 30 20 30 22 30 C 24 30 26 30 28 30 C 30 30 30 30 30 32 C 30 40 30 50 30 59 C 30 60 30 60 31 60 C 35 60 40 60 44 60 C 45 60 45 60 45 59 Z"></path></svg>