<svg version="1.1" xmlns="http://www.w3.org/2000/svg" viewBox="0 0 100 100"><path stroke="#000000" stroke-width="0" stroke-linejoin="round" stroke-linecap="round" fill="#000000" d="M 73 25 C 74 25 74 25 75 25 C 78 25 80 27 80 30 C 80 33 78 35 76 35 C 75 35 74 36 73 38 C 68 47 58 64 54 71 C 49 80 45 77 40 73 C 36 70 36 70 32 67 C 29 65 28 65 27 65 C 26 65 26 65 25 65 C 22 65 20 63 20 60 C 20 57 22 55 25 55 C 26 55 28 55 29 55 C 31 55 31 55 35 58 C 39 61 39 61 43 64 C 46 66 46 66 48 63 C 54 53 63 38 69 28 C 70 26 71 25 73 25 Z"></path></svg>