<svg version="1.1" xmlns="http://www.w3.org/2000/svg" viewBox="0 0 100 100"><path stroke="#000000" stroke-width="0" stroke-linejoin="round" stroke-linecap="round" fill="#000000" d="M 52 72 C 56 73 58 73 60 73 C 73 73 83 63 83 50 C 83 37 73 27 60 27 C 58 27 56 27 52 28 C 60 33 65 41 65 50 C 65 59 60 67 52 72 Z M 63 50 C 63 42 58 34 50 29 C 42 34 37 42 37 50 C 37 58 42 66 50 71 C 58 66 63 58 63 50 Z M 50 73 C 47 74 44 75 40 75 C 26 75 15 64 15 50 C 15 36 26 25 40 25 C 44 25 47 26 50 27 C 53 26 56 25 60 25 C 74 25 85 36 85 50 C 85 64 74 75 60 75 C 56 75 53 74 50 73 Z"></path></svg>