<svg version="1.1" xmlns="http://www.w3.org/2000/svg" viewBox="0 0 100 100"><path stroke="#000000" stroke-width="0" stroke-linejoin="round" stroke-linecap="round" fill="#000000" d="M 71 20 C 74 20 76 22 76 25 C 76 40 76 60 76 75 C 76 78 74 80 71 80 C 68 80 66 78 66 75 C 66 60 66 40 66 25 C 66 22 68 20 71 20 Z M 57 20 C 60 20 62 22 62 25 C 62 40 62 60 62 75 C 62 78 60 80 57 80 C 54 80 52 78 52 75 C 52 60 52 40 52 25 C 52 22 54 20 57 20 Z M 43 20 C 46 20 48 22 48 25 C 48 40 48 60 48 75 C 48 78 46 80 43 80 C 40 80 38 78 38 75 C 38 60 38 40 38 25 C 38 22 40 20 43 20 Z M 29 20 C 32 20 34 22 34 25 C 34 40 34 60 34 75 C 34 78 32 80 29 80 C 26 80 24 78 24 75 C 24 60 24 40 24 25 C 24 22 26 20 29 20 Z"></path></svg>