<svg version="1.1" xmlns="http://www.w3.org/2000/svg" viewBox="0 0 100 100"><path stroke="#000000" stroke-width="0" stroke-linejoin="round" stroke-linecap="round" fill="#000000" d="M 55 45 C 62 45 69 45 75 45 C 78 45 80 47 80 50 C 80 53 78 55 75 55 C 69 55 62 55 55 55 C 55 62 55 69 55 75 C 55 78 53 80 50 80 C 47 80 45 78 45 75 C 45 69 45 62 45 55 C 38 55 31 55 25 55 C 22 55 20 53 20 50 C 20 47 22 45 25 45 C 31 45 38 45 45 45 C 45 38 45 31 45 25 C 45 22 47 20 50 20 C 53 20 55 22 55 25 C 55 31 55 38 55 45 Z"></path></svg>