<svg version="1.1" xmlns="http://www.w3.org/2000/svg" viewBox="0 0 100 100"><path stroke="#000000" stroke-width="0" stroke-linejoin="round" stroke-linecap="round" fill="#000000" d="M 22 38 C 18 34 22 31 28 25 C 30 23 34 20 40 20 C 46 20 50 23 52 25 C 54 27 57 30 60 30 C 63 30 66 27 68 25 C 71 22 74 18 78 22 C 82 26 78 29 72 35 C 70 37 66 40 60 40 C 54 40 50 37 48 35 C 46 33 43 30 40 30 C 37 30 34 33 32 35 C 29 38 26 42 22 38 Z M 22 58 C 18 54 22 51 28 45 C 30 43 34 40 40 40 C 46 40 50 43 52 45 C 54 47 57 50 60 50 C 63 50 66 47 68 45 C 71 42 74 38 78 42 C 82 46 78 49 72 55 C 70 57 66 60 60 60 C 54 60 50 57 48 55 C 46 53 43 50 40 50 C 37 50 34 53 32 55 C 29 58 26 62 22 58 Z M 22 78 C 18 74 22 71 28 65 C 30 63 34 60 40 60 C 46 60 50 63 52 65 C 54 67 57 70 60 70 C 63 70 66 67 68 65 C 71 62 74 58 78 62 C 82 66 78 69 72 75 C 70 77 66 80 60 80 C 54 80 50 77 48 75 C 46 73 43 70 40 70 C 37 70 34 73 32 75 C 29 78 26 82 22 78 Z"></path></svg>