<svg version="1.1" xmlns="http://www.w3.org/2000/svg" viewBox="0 0 100 100"><path stroke="#000000" stroke-width="0" stroke-linejoin="round" stroke-linecap="round" fill="#000000" d="M 45 38 C 45 33 45 29 45 25 C 45 22 47 20 50 20 C 53 20 55 22 55 25 C 55 29 55 33 55 38 C 58 35 61 32 64 29 C 66 27 69 27 71 29 C 73 31 73 34 71 36 C 68 39 65 42 62 45 C 67 45 71 45 75 45 C 78 45 80 47 80 50 C 80 53 78 55 75 55 C 71 55 67 55 62 55 C 65 58 68 61 71 64 C 73 66 73 69 71 71 C 69 73 66 73 64 71 C 61 68 58 65 55 62 C 55 67 55 71 55 75 C 55 78 53 80 50 80 C 47 80 45 78 45 75 C 45 71 45 67 45 62 C 42 65 39 68 36 71 C 34 73 31 73 29 71 C 27 69 27 66 29 64 C 32 61 35 58 38 55 C 33 55 29 55 25 55 C 22 55 20 53 20 50 C 20 47 22 45 25 45 C 29 45 33 45 38 45 C 35 42 32 39 29 36 C 27 34 27 31 29 29 C 31 27 34 27 36 29 C 39 32 42 35 45 38 Z"></path></svg>