<svg version="1.1" xmlns="http://www.w3.org/2000/svg" viewBox="0 0 100 100"><path stroke="#000000" stroke-width="0" stroke-linejoin="round" stroke-linecap="round" fill="#000000" d="M 65 50 C 65 48 64 47 62 45 C 59 42 57 40 55 38 C 53 36 53 33 55 31 C 57 29 60 29 62 31 C 66 35 71 40 76 45 C 78 47 79 48 79 50 C 79 52 78 53 76 55 C 71 60 66 65 62 69 C 60 71 57 71 55 69 C 53 67 53 64 55 62 C 57 60 59 58 62 55 C 64 53 65 52 65 50 Z M 33 50 C 33 48 32 47 30 45 C 27 42 25 40 23 38 C 21 36 21 33 23 31 C 25 29 28 29 30 31 C 34 35 39 40 44 45 C 46 47 47 48 47 50 C 47 52 46 53 44 55 C 39 60 34 65 30 69 C 28 71 25 71 23 69 C 21 67 21 64 23 62 C 25 60 27 58 30 55 C 32 53 33 52 33 50 Z"></path></svg>