<svg version="1.1" xmlns="http://www.w3.org/2000/svg" viewBox="0 0 100 100"><path stroke="#000000" stroke-width="0" stroke-linejoin="round" stroke-linecap="round" fill="#000000" d="M 78 22 C 80 24 80 27 78 29 C 67 40 40 67 29 78 C 27 80 24 80 22 78 C 20 76 20 73 22 71 C 33 60 60 33 71 22 C 73 20 76 20 78 22 Z M 30 20 C 36 20 40 24 40 30 C 40 36 36 40 30 40 C 24 40 20 36 20 30 C 20 24 24 20 30 20 Z M 70 60 C 76 60 80 64 80 70 C 80 76 76 80 70 80 C 64 80 60 76 60 70 C 60 64 64 60 70 60 Z M 30 25 C 27 25 25 27 25 30 C 25 33 27 35 30 35 C 33 35 35 33 35 30 C 35 27 33 25 30 25 Z M 70 65 C 67 65 65 67 65 70 C 65 73 67 75 70 75 C 73 75 75 73 75 70 C 75 67 73 65 70 65 Z"></path></svg>