<svg version="1.1" xmlns="http://www.w3.org/2000/svg" viewBox="0 0 100 100"><path stroke="#000000" stroke-width="0" stroke-linejoin="round" stroke-linecap="round" fill="#000000" d="M 74 80 C 73 80 73 80 71 80 C 68 80 66 78 66 75 C 66 74 66 74 66 73 C 64 71 64 71 62 69 C 62 71 62 73 62 75 C 62 78 60 80 57 80 C 54 80 52 78 52 75 C 52 70 52 65 52 59 C 50 57 50 57 48 55 C 48 62 48 69 48 75 C 48 78 46 80 43 80 C 40 80 38 78 38 75 C 38 66 38 55 38 45 C 36 43 36 43 34 41 C 34 52 34 65 34 75 C 34 78 32 80 29 80 C 26 80 24 78 24 75 C 24 62 24 45 24 31 C 24 31 24 31 24 31 C 23 30 22 29 22 29 C 20 27 20 24 22 22 C 24 20 25 20 26 20 C 27 20 27 20 29 20 C 32 20 34 22 34 25 C 34 26 34 26 34 27 C 36 29 36 29 38 31 C 38 29 38 27 38 25 C 38 22 40 20 43 20 C 46 20 48 22 48 25 C 48 30 48 35 48 41 C 50 43 50 43 52 45 C 52 38 52 31 52 25 C 52 22 54 20 57 20 C 60 20 62 22 62 25 C 62 34 62 45 62 55 C 64 57 64 57 66 59 C 66 48 66 35 66 25 C 66 22 68 20 71 20 C 74 20 76 22 76 25 C 76 38 76 55 76 69 C 76 69 76 69 76 69 C 76 69 76 69 76 69 C 77 70 78 71 78 71 C 80 73 80 76 78 78 C 76 80 75 80 74 80 Z"></path></svg>