<svg version="1.1" xmlns="http://www.w3.org/2000/svg" viewBox="0 0 100 100"><path stroke="#000000" stroke-width="0" stroke-linejoin="round" stroke-linecap="round" fill="#000000" d="M 37.5 52 C 41 60 44 65 48 66 C 48 62 48 56 48 52 C 45 52 42 52 37.5 52 Z M 52 66 C 56 65 59 60 62.5 52 C 58 52 55 52 52 52 C 52 56 52 62 52 66 Z M 64 48 C 67 40 68 32 68 27 C 68 26 69 25 70 25 C 71 25 72 26 72 27 C 72 32 71 39 68 48 C 72 48 75 48 78 48 C 79 48 80 49 80 50 C 80 51 79 52 78 52 C 75 52 72 52 66.5 52 C 63 61 58 69 52 70 C 52 72 52 75 52 78 C 52 79 51 80 50 80 C 49 80 48 79 48 78 C 48 75 48 72 48 70 C 42 69 37 61 33.5 52 C 28 52 25 52 22 52 C 21 52 20 51 20 50 C 20 49 21 48 22 48 C 25 48 28 48 32 48 C 29 39 28 32 28 27 C 28 26 29 25 30 25 C 31 25 32 26 32 27 C 32 32 33 40 36 48 C 42 48 45 48 48 48 C 48 40 48 30 48 22 C 48 21 49 20 50 20 C 51 20 52 21 52 22 C 52 30 52 40 52 48 C 55 48 58 48 64 48 Z"></path></svg>