<svg version="1.1" xmlns="http://www.w3.org/2000/svg" viewBox="0 0 100 100"><path stroke="#000000" stroke-width="0" stroke-linejoin="round" stroke-linecap="round" fill="#000000" d="M 45 38 C 45 33.223 45 28.9 45 25 C 45 22 47 20 50 20 C 53 20 55 22 55 25 C 55 28.893 55 33.208 55 37.978 C 58.411 34.589 61.414 31.586 64 29 C 66 27 69 27 71 29 C 73 31 73 34 71 36 C 68.441 38.559 65.473 41.527 62.044 44.956 C 66.763 45 71.093 45 75 45 C 78 45 80 47 80 50 C 80 53 78 55 75 55 C 71.113 55 66.807 55 62.044 55 C 65.442 58.442 68.428 61.428 71 64 C 73 66 73 69 71 71 C 69 73 66 73 64 71 C 61.428 68.428 58.442 65.442 54.997 61.997 C 55 66.748 55 71.087 55 75 C 55 78 53 80 50 80 C 47 80 45 78 45 75 C 45 71.12 45 66.821 45 62.066 C 41.574 65.426 38.579 68.421 36 71 C 34 73 31 73 29 71 C 27 69 27 66 29 64 C 31.565 61.435 34.542 58.458 37.98 55.02 C 33.266 55 28.92 55 25 55 C 22 55 20 53 20 50 C 20 47 22 45 25 45 C 28.904 45 33.23 45 38.012 45 C 34.59 41.59 31.586 38.586 29 36 C 27 34 27 31 29 29 C 31 27 34 27 36 29 C 38.558 31.558 41.526 34.526 44.956 37.956 Z"></path></svg>