<svg version="1.1" xmlns="http://www.w3.org/2000/svg" viewBox="0 0 100 100"><path stroke="#000000" stroke-width="0" stroke-linejoin="round" stroke-linecap="round" fill="#000000" d="M 55 22 C 55 27 55 34 55 40 C 55 40 55 40 55 40 C 58 36 60 33 60 30 C 60 27 58 23 55 22 C 55 22 55 22 55 22 C 55 22 55 22 55 22 Z M 45 51 C 45 40 45 30 45 22 C 45 22 45 22 45 22 C 42 23 40 27 40 30 C 40 33 38 35 35 35 C 32 35 30 33 30 30 C 30 19 39 10 50 10 C 61 10 70 19 70 30 C 70 39 63 45 57 51 C 55 53 55 55 55 56 C 55 58 55 62 55 65 C 55 68 53 70 50 70 C 47 70 45 68 45 65 C 45 62 45 58 45 51 Z M 45 85 C 45 82 47 80 50 80 C 53 80 55 82 55 85 C 55 88 53 90 50 90 C 47 90 45 88 45 85 Z"></path></svg>