<svg version="1.1" xmlns="http://www.w3.org/2000/svg" viewBox="0 0 100 100"><path stroke="#000000" stroke-width="0" stroke-linejoin="round" stroke-linecap="round" fill="#000000" d="M 35 50 C 35 52 36 53 38 55 C 41 58 43 60 45 62 C 47 64 47 67 45 69 C 43 71 40 71 38 69 C 34 65 29 60 24 55 C 22 53 21 52 21 50 C 21 48 22 47 24 45 C 29 40 34 35 38 31 C 40 29 43 29 45 31 C 47 33 47 36 45 38 C 43 40 41 42 38 45 C 36 47 35 48 35 50 Z M 67 50 C 67 52 68 53 70 55 C 73 58 75 60 77 62 C 79 64 79 67 77 69 C 75 71 72 71 70 69 C 66 65 61 60 56 55 C 54 53 53 52 53 50 C 53 48 54 47 56 45 C 61 40 66 35 70 31 C 72 29 75 29 77 31 C 79 33 79 36 77 38 C 75 40 73 42 70 45 C 68 47 67 48 67 50 Z"></path></svg>