<svg version="1.1" xmlns="http://www.w3.org/2000/svg" viewBox="0 0 100 100"><path stroke="#000000" stroke-width="0" stroke-linejoin="round" stroke-linecap="round" fill="#000000" d="M 44 71 C 43 70 37 64 30 57 C 27 54 29 56 25 56 C 22 56 20 54 20 51 C 20 48 22 46 25 46 C 28 46 30 48 30 51 C 30 55 28 53 31 56 C 38 63 40 65 41 66 C 41 66 40 65 40 60 C 40 54 43 50 45 48 C 47 46 50 43 50 40 C 50 37 47 34 45 32 C 42 29 38 26 42 22 C 45 19 47 20 51 24 C 52 25 53 26 56 29 C 57 30 63 36 70 43 C 73 46 71 44 75 44 C 78 44 80 46 80 49 C 80 52 78 54 75 54 C 72 54 70 52 70 49 C 70 45 72 47 69 44 C 62 37 60 35 59 34 C 59 34 60 35 60 40 C 60 46 57 50 55 52 C 53 54 50 57 50 60 C 50 63 53 66 55 68 C 58 71 62 74 58 78 C 55 81 53 80 49 76 C 48 75 47 74 44 71 Z"></path></svg>