<svg version="1.1" xmlns="http://www.w3.org/2000/svg" viewBox="0 0 100 100"><path stroke="#000000" stroke-width="0" stroke-linejoin="round" stroke-linecap="round" fill="#000000" d="M 43 10 C 48 10 58 10 69 10 C 71 10 73 12 73 14 C 73 40 73 60 73 85 C 73 88 71 90 68 90 C 65 90 63 88 63 85 C 63 60 63 40 63 21 C 63 20 63 20 62 20 C 61 20 60 20 59 20 C 58 20 58 20 58 21 C 58 40 58 60 58 85 C 58 88 56 90 53 90 C 50 90 48 88 48 85 C 48 60 48 53 48 52 C 48 51 47 50 46 50 C 45 50 44 50 43 50 C 32 50 23 41 23 30 C 23 19 32 10 43 10 Z"></path></svg>