<svg version="1.1" xmlns="http://www.w3.org/2000/svg" viewBox="0 0 100 100"><path stroke="#000000" stroke-width="0" stroke-linejoin="round" stroke-linecap="round" fill="#000000" d="M 54 64 C 56 65 58 65 60 65 C 68 65 75 58 75 50 C 75 42 68 35 60 35 C 58 35 56 35 54 36 C 54 36 54 36 54 36 C 58 40 60 44 60 50 C 60 55 58 60 54 64 Z M 46 36 C 44 35 42 35 40 35 C 32 35 25 42 25 50 C 25 58 32 65 40 65 C 42 65 44 65 46 64 C 42 60 40 55 40 50 C 40 44 42 40 46 36 Z M 55 50 C 55 46 53 42 50 39 C 47 42 45 46 45 50 C 45 54 47 58 50 61 C 53 58 55 54 55 50 Z M 50 32 C 50 32 50 32 50 32 C 53 31 56 30 60 30 C 71 30 80 39 80 50 C 80 61 71 70 60 70 C 56 70 53 69 50 68 C 47 69 44 70 40 70 C 29 70 20 61 20 50 C 20 39 29 30 40 30 C 44 30 47 31 50 32 C 50 32 50 32 50 32 C 50 32 50 32 50 32 Z"></path></svg>