<svg version="1.1" xmlns="http://www.w3.org/2000/svg" viewBox="0 0 100 100"><path stroke="#000000" stroke-width="0" stroke-linejoin="round" stroke-linecap="round" fill="#000000" d="M 33 46 C 33 37 40 30 48 30 C 57 30 67 39 67 50 C 67 60 58 69 47 69 C 32 69 23 60 23 45 C 23 30 33 20 49 20 C 65 20 77 32 77 51 C 77 68 64 80 48 80 C 44 80 44 74 48 74 C 61 74 72 64 72 51 C 72 36 62 25 49 25 C 36 25 28 33 28 45 C 28 56 35 63 47 63 C 56 63 62 56 62 50 C 62 42 56 36 48 36 C 43 36 38 41 38 46 C 38 51 43 53 45 51 C 47 49 46 47 48 45 C 51 42 57 45 57 50 C 57 54 53 57 47 58 C 40 59 33 54 33 46 Z"></path></svg>