<svg version="1.1" xmlns="http://www.w3.org/2000/svg" viewBox="0 0 100 100"><path stroke="#000000" stroke-width="0" stroke-linejoin="round" stroke-linecap="round" fill="#000000" d="M 0 37 C 0 36 1 35 2 35 C 10 35 20 35 25 35 C 22 32 20 30 18 28 C 16 26 16 23 18 21 C 20 19 23 19 25 21 C 29 25 34 30 39 35 C 41 37 42 38 42 40 C 42 42 41 43 39 45 C 34 50 29 55 25 59 C 23 61 20 61 18 59 C 16 57 16 54 18 52 C 20 50 22 48 25 45 C 20 45 10 45 2 45 C 1 45 0 44 0 43 C 0 41 0 39 0 37 Z M 53 44 C 53 46 53 56 53 58 C 55 59 62 62 64 63 C 64 61 64 51 64 49 C 62 48 55 45 53 44 Z M 77 44 C 75 45 68 48 66 49 C 66 51 66 61 66 63 C 68 62 75 59 77 58 C 77 56 77 46 77 44 Z M 65 34 C 69 36 75 39 79 41 C 79 47 79 53 79 59 C 75 61 69 64 65 66 C 61 64 55 61 51 59 C 51 53 51 47 51 41 C 55 39 61 36 65 34 Z M 38 70 C 38 72 38 82 38 84 C 40 85 47 88 49 89 C 49 87 49 77 49 75 C 47 74 40 71 38 70 Z M 62 70 C 60 71 53 74 51 75 C 51 77 51 87 51 89 C 53 88 60 85 62 84 C 62 82 62 72 62 70 Z M 50 60 C 54 62 60 65 64 67 C 64 73 64 79 64 85 C 60 87 54 90 50 92 C 46 90 40 87 36 85 C 36 79 36 73 36 67 C 40 65 46 62 50 60 Z M 68 70 C 68 72 68 82 68 84 C 70 85 77 88 79 89 C 79 87 79 77 79 75 C 77 74 70 71 68 70 Z M 92 70 C 90 71 83 74 81 75 C 81 77 81 87 81 89 C 83 88 90 85 92 84 C 92 82 92 72 92 70 Z M 80 60 C 84 62 90 65 94 67 C 94 73 94 79 94 85 C 90 87 84 90 80 92 C 76 90 70 87 66 85 C 66 79 66 73 66 67 C 70 65 76 62 80 60 Z"></path></svg>