<svg version="1.1" xmlns="http://www.w3.org/2000/svg" viewBox="0 0 100 100"><path stroke="#000000" stroke-width="0" stroke-linejoin="round" stroke-linecap="round" fill="#000000" d="M 54 75 C 54 76 54 77 54 78 C 54 79 53 80 52 80 C 51 80 49 80 48 80 C 47 80 46 79 46 78 C 46 77 46 77 46 76 C 41 75 36 72 36 69 C 36 66 39 64 43 66 C 45 67 47 68 50 68 C 54 68 57 65 57 61 C 57 57 55 55 49 53 C 41 51 36 46 36 39 C 36 33 40 27 46 25 C 46 25 46 25 46 25 C 46 24 46 23 46 22 C 46 21 47 20 48 20 C 49 20 51 20 52 20 C 53 20 54 21 54 22 C 54 23 54 23 54 24 C 60 25 65 28 65 31 C 65 34 62 36 58 34 C 56 33 54 32 51 32 C 47 32 44 35 44 39 C 44 43 46 45 52 47 C 60 49 65 54 65 61 C 65 68 60 74 54 75 Z"></path></svg>