<svg version="1.1" xmlns="http://www.w3.org/2000/svg" viewBox="0 0 100 100"><path stroke="#000000" stroke-width="0" stroke-linejoin="round" stroke-linecap="round" fill="#000000" d="M 67 55 C 70 55 70 53 70 50 C 70 39 61 30 50 30 C 39 30 30 39 30 50 C 30 61 39 70 50 70 C 57 70 61 68 64 66 C 67 64 68 62 67 62 C 65 62 62 61 60 59 C 59 58 59 58 58 59 C 55 62 52 62 50 62 C 43 62 38 57 38 50 C 38 43 43 38 50 38 C 57 38 62 43 62 50 C 62 53 65 55 67 55 Z M 50 55 C 53 55 55 53 55 50 C 55 47 53 45 50 45 C 47 45 45 47 45 50 C 45 53 47 55 50 55 Z M 20 50 C 20 34 34 20 50 20 C 67 20 80 34 80 50 C 80 67 67 80 50 80 C 34 80 20 67 20 50 Z"></path></svg>