<svg version="1.1" xmlns="http://www.w3.org/2000/svg" viewBox="0 0 100 100"><path stroke="#000000" stroke-width="0" stroke-linejoin="round" stroke-linecap="round" fill="#000000" d="M 31 40 C 29 36 32 28 31 25 C 30 23 26 25 24 25 C 21 25 20 27 18 28 C 13 30 12 33 12 38 C 8 41 4 46 7 48 C 10 50 13 54 15 54 C 17 54 19 49 21 49 C 23 47 24 45 27 46 C 31 48 34 42 31 40 Z M 41 42 C 38 42 36 45 36 48 C 36 50 34 52 36 52 C 38 52 38 54 40 54 C 42 54 46 54 47 52 C 48 50 50 51 51 51 C 53 52 56 49 56 48 C 55 47 55 45 55 43 C 55 40 52 40 50 40 C 48 39 47 41 41 42 Z M 46 37 C 46 37 51 37 52 33 C 51 32 50 32 52 31 C 52 31 52 29 50 27 C 48 26 46 29 43 27 C 40 25 39 28 37 26 C 35 23 34 26 33 33 C 33 36 34 34 34 37 C 34 40 38 36 38 38 C 38 40 42 39 46 37 Z M 16 58 C 12 58 7 52 7 57 C 7 58 8 60 7 60 C 6 60 6 60 6 62 C 6 63 10 66 10 70 C 11 72 11 74 12 75 C 13 76 17 74 19 74 C 21 74 23 73 25 72 C 27 70 24 67 22 65 C 20 64 19 59 16 58 Z M 41 71 C 43 70 51 73 53 69 C 54 65 54 61 55 57 C 56 53 50 58 47 57 C 45 56 39 57 35 57 C 32 55 32 47 25 51 C 20 54 22 57 23 61 C 24 65 29 65 30 67 C 31 69 33 69 32 70 C 33 71 39 72 41 71 Z M 26 74 C 25 74 24 76 22 76 C 19 77 14 83 9 77 C 6 74 8 68 7 68 C 4 67 1 68 1 59 C 0 58 2 57 4 54 C 5 53 3 53 2 48 C 2 45 8 34 8 32 C 8 21 16 29 17 25 C 17 22 20 22 22 22 C 24 22 25 23 28 22 C 34 17 38 24 42 22 C 44 21 44 24 50 24 C 54 23 57 29 56 32 C 54 36 62 43 59 49 C 58 51 59 52 59 54 C 59 57 58 62 58 64 C 58 66 61 67 54 76 C 53 78 44 75 42 76 C 32 84 33 74 28 74 C 30 74 27 74 26 74 Z M 61 84 C 58 84 56 86 56 89 C 56 92 58 94 61 94 C 64 94 66 92 66 89 C 66 86 64 84 61 84 Z M 89 84 C 86 84 84 86 84 89 C 84 92 86 94 89 94 C 92 94 94 92 94 89 C 94 86 92 84 89 84 Z M 71 89 C 68 99 64 99 61 99 C 55 99 51 95 51 89 C 51 83 55 79 61 79 C 66 79 68 84 70 79 C 72 74 73 74 71 69 C 69 64 67 59 65 54 C 63 49 63 43 64 41 C 65 39 65 39 67 44 C 69 50 72 58 75 66 C 78 58 81 50 83 44 C 85 39 85 39 86 41 C 87 43 87 49 85 54 C 83 59 81 64 79 69 C 77 74 78 74 80 79 C 82 84 84 79 89 79 C 95 79 99 83 99 89 C 99 95 95 99 89 99 C 86 99 82 99 79 89 C 77 84 77 84 75 79 C 73 84 73 84 71 89 Z M 65 6 C 64 6 63 7 63 8 C 63 23 63 39 63 54 C 63 55 64 56 65 56 C 73 56 83 56 91 56 C 92 56 93 55 93 54 C 93 39 93 21 93 17 C 93 16 93 16 92 16 C 91 16 89 16 87 16 C 85 16 83 14 83 12 C 83 10 83 8 83 7 C 83 6 83 6 82 6 C 78 6 68 6 65 6 Z M 89 11 C 91 11 92 11 93 11 C 93 11 88 6 88 6 C 88 7 88 8 88 10 C 88 11 88 11 89 11 Z M 64 1 C 73 1 83 1 86 1 C 89 1 98 10 98 13 C 98 23 98 39 98 55 C 98 58 95 61 92 61 C 83 61 73 61 64 61 C 61 61 58 58 58 55 C 58 39 58 23 58 7 C 58 4 61 1 64 1 Z"></path></svg>