<svg version="1.1" xmlns="http://www.w3.org/2000/svg" viewBox="0 0 100 100"><path stroke="#000000" stroke-width="0" stroke-linejoin="round" stroke-linecap="round" fill="#000000" d="M 20 85 C 20 82 22 80 25 80 C 40 80 60 80 75 80 C 78 80 80 82 80 85 C 80 88 78 90 75 90 C 60 90 40 90 25 90 C 22 90 20 88 20 85 Z M 55 35 C 62 35 69 35 75 35 C 78 35 80 37 80 40 C 80 43 78 45 75 45 C 69 45 62 45 55 45 C 55 52 55 59 55 65 C 55 68 53 70 50 70 C 47 70 45 68 45 65 C 45 59 45 52 45 45 C 38 45 31 45 25 45 C 22 45 20 43 20 40 C 20 37 22 35 25 35 C 31 35 38 35 45 35 C 45 28 45 21 45 15 C 45 12 47 10 50 10 C 53 10 55 12 55 15 C 55 21 55 28 55 35 Z"></path></svg>