<svg version="1.1" xmlns="http://www.w3.org/2000/svg" viewBox="0 0 100 100"><path stroke="#000000" stroke-width="0" stroke-linejoin="round" stroke-linecap="round" fill="#000000" d="M 71 44 C 74 47 75 48 76 49 C 80 53 81 55 78 58 C 74 62 71 58 68 55 C 66 53 63 50 60 50 C 57 50 54 53 52 55 C 50 57 46 60 40 60 C 35 60 34 59 34 59 C 35 60 37 62 44 69 C 47 72 45 70 49 70 C 52 70 54 72 54 75 C 54 78 52 80 49 80 C 46 80 44 78 44 75 C 44 71 46 73 43 70 C 36 63 30 57 29 56 C 26 53 25 52 24 51 C 20 47 19 45 22 42 C 26 38 29 42 32 45 C 34 47 37 50 40 50 C 43 50 46 47 48 45 C 50 43 54 40 60 40 C 65 40 66 41 66 41 C 65 40 63 38 56 31 C 53 28 55 30 51 30 C 48 30 46 28 46 25 C 46 22 48 20 51 20 C 54 20 56 22 56 25 C 56 29 54 27 57 30 C 64 37 70 43 71 44 Z"></path></svg>