<svg version="1.1" xmlns="http://www.w3.org/2000/svg" viewBox="0 0 100 100"><path stroke="#000000" stroke-width="0" stroke-linejoin="round" stroke-linecap="round" fill="#000000" d="M 60 70 C 60 67 62 65 65 65 C 68 65 70 67 70 70 C 70 81 61 90 50 90 C 39 90 30 81 30 70 C 30 61 37 55 43 49 C 45 47 45 44 45 43 C 45 42 45 38 45 35 C 45 32 47 30 50 30 C 53 30 55 32 55 35 C 55 38 55 42 55 45 C 55 50 53 52 50 55 C 45 60 40 65 40 70 C 40 75 45 80 50 80 C 55 80 60 75 60 70 Z M 55 15 C 55 18 53 20 50 20 C 47 20 45 18 45 15 C 45 12 47 10 50 10 C 53 10 55 12 55 15 Z"></path></svg>