<svg version="1.1" xmlns="http://www.w3.org/2000/svg" viewBox="0 0 100 100"><path stroke="#000000" stroke-width="0" stroke-linejoin="round" stroke-linecap="round" fill="#000000" d="M 30 50 C 30 61 39 70 50 70 C 61 70 70 61 70 50 C 70 39 61 30 50 30 C 39 30 30 39 30 50 Z M 38 50 C 38 43 43 38 50 38 C 51 38 53 38 54 38 C 56 38 58 40 58 42 C 58 44 56 46 54 46 C 53 46 51 46 50 46 C 48 46 46 48 46 50 C 46 52 48 54 50 54 C 51 54 53 54 54 54 C 56 54 58 56 58 58 C 58 60 56 62 54 62 C 53 62 51 62 50 62 C 43 62 38 57 38 50 Z M 20 50 C 20 34 34 20 50 20 C 67 20 80 34 80 50 C 80 67 67 80 50 80 C 34 80 20 67 20 50 Z"></path></svg>