<svg version="1.1" xmlns="http://www.w3.org/2000/svg" viewBox="0 0 100 100"><path stroke="#000000" stroke-width="0" stroke-linejoin="round" stroke-linecap="round" fill="#000000" d="M 23.989 30.989 C 22.919 29.919 22.446 29.446 22 29 C 20 27 20 24 22 22 C 23.22 20.78 24.813 20.304 26.355 20.578 C 26.386 20.584 26.417 20.59 26.455 20.597 C 26.43 20.597 26.439 20.592 26.453 20.585 C 27.122 20.219 28.007 20 29 20 C 32 20 34 22 34 25 C 34 25.582 34 26.172 34 26.939 C 33.986 26.986 33.986 26.986 33.987 26.987 C 35.025 28.025 36.16 29.16 38.016 31.016 C 38.016 31.016 38.017 31.017 38.017 31.017 C 38 31.036 38 31.003 38 30.983 C 38 28.66 38 26.794 38 25 C 38 22 40 20 43 20 C 46 20 48 22 48 25 C 48 29.782 48 35.072 48 40.939 C 47.987 40.987 47.987 40.987 47.987 40.987 C 49.404 42.404 50.859 43.859 52.017 45.017 C 52 45.011 52 44.995 52 44.983 C 52 37.785 52 30.994 52 25 C 52 22 54 20 57 20 C 60 20 62 22 62 25 C 62 33.982 62 44.759 62 54.939 C 61.987 54.987 61.987 54.987 61.988 54.988 C 63.779 56.779 65.456 58.456 66.017 59.017 C 66 58.982 66 58.981 66 58.979 C 66 47.694 66 35.192 66 25 C 66 22 68 20 71 20 C 74 20 76 22 76 25 C 76 38.182 76 55.225 76 68.939 C 77.071 70.071 77.549 70.549 78 71 C 80 73 80 76 78 78 C 76.772 79.228 75.167 79.702 73.614 79.416 C 73.619 79.377 73.618 79.377 73.616 79.378 C 72.932 79.767 72.024 80 71 80 C 68 80 66 78 66 75 C 66 74.394 66 73.78 66 72.983 C 66 72.982 66 72.981 66 72.979 C 65.997 72.983 65.995 72.988 65.992 72.992 C 64.971 71.971 63.857 70.857 62.032 69.032 C 62 68.962 62 68.979 62 68.995 C 62 71.327 62 73.2 62 75 C 62 78 60 80 57 80 C 54 80 52 78 52 75 C 52 70.207 52 64.904 52 59.027 C 52 59.012 52 58.998 52 58.983 C 51.997 58.986 51.994 58.988 51.991 58.991 C 50.6 57.6 49.171 56.171 48.032 55.032 C 48.032 55.032 48.031 55.031 48.031 55.031 C 48 54.944 48 54.948 48 54.952 C 48 62.169 48 68.986 48 75 C 48 78 46 80 43 80 C 40 80 38 78 38 75 C 38 66.02 38 55.249 38 45.07 C 38 45.039 38 45.007 38 44.983 C 37.997 44.985 37.993 44.988 37.99 44.99 C 36.229 43.229 34.58 41.58 34.031 41.031 C 34.031 41.031 34.03 41.03 34.03 41.03 C 34 40.958 34 40.983 34 41.008 C 34 52.296 34 64.803 34 75 C 34 78 32 80 29 80 C 26 80 24 78 24 75 C 24 61.804 24 44.737 24 31.014 C 24 31.002 24 30.99 24 30.983 Z"></path></svg>