<svg version="1.1" xmlns="http://www.w3.org/2000/svg" viewBox="0 0 100 100"><path stroke="#000000" stroke-width="0" stroke-linejoin="round" stroke-linecap="round" fill="#000000" d="M 67 46 C 67 54 60 59 53 58 C 47 57 43 54 43 50 C 43 45 49 42 52 45 C 54 47 53 49 55 51 C 57 53 62 51 62 46 C 62 41 57 36 52 36 C 44 36 38 42 38 50 C 38 56 44 63 53 63 C 65 63 72 56 72 45 C 72 33 64 25 51 25 C 38 25 28 36 28 51 C 28 64 39 74 52 74 C 56 74 56 80 52 80 C 36 80 23 68 23 51 C 23 32 35 20 51 20 C 67 20 77 30 77 45 C 77 60 68 69 53 69 C 42 69 33 60 33 50 C 33 39 43 30 52 30 C 60 30 67 37 67 46 Z"></path></svg>