<svg version="1.1" xmlns="http://www.w3.org/2000/svg" viewBox="0 0 100 100"><path stroke="#000000" stroke-width="0" stroke-linejoin="round" stroke-linecap="round" fill="#000000" d="M 78 78 C 74 82 71 78 68 75 C 66 73 63 70 60 70 C 57 70 54 73 52 75 C 50 77 46 80 40 80 C 34 80 30 77 28 75 C 22 69 18 66 22 62 C 26 58 29 62 32 65 C 34 67 37 70 40 70 C 43 70 46 67 48 65 C 50 63 54 60 60 60 C 66 60 70 63 72 65 C 78 71 82 74 78 78 Z M 78 58 C 74 62 71 58 68 55 C 66 53 63 50 60 50 C 57 50 54 53 52 55 C 50 57 46 60 40 60 C 34 60 30 57 28 55 C 22 49 18 46 22 42 C 26 38 29 42 32 45 C 34 47 37 50 40 50 C 43 50 46 47 48 45 C 50 43 54 40 60 40 C 66 40 70 43 72 45 C 78 51 82 54 78 58 Z M 78 38 C 74 42 71 38 68 35 C 66 33 63 30 60 30 C 57 30 54 33 52 35 C 50 37 46 40 40 40 C 34 40 30 37 28 35 C 22 29 18 26 22 22 C 26 18 29 22 32 25 C 34 27 37 30 40 30 C 43 30 46 27 48 25 C 50 23 54 20 60 20 C 66 20 70 23 72 25 C 78 31 82 34 78 38 Z Z"></path></svg>