<svg version="1.1" xmlns="http://www.w3.org/2000/svg" viewBox="0 0 100 100"><path stroke="#000000" stroke-width="0" stroke-linejoin="round" stroke-linecap="round" fill="#000000" d="M 65 32 C 65 32 60 35 60 35 C 60 30 60 27 60 25 C 60 22 58 20 55 20 C 45 20 45 20 35 20 C 32 20 30 22 30 25 C 30 30 30 35 30 38 C 33 35 35 33 37 31 C 39 29 42 29 44 31 C 46 33 46 36 44 38 C 40 42 35 47 30 52 C 28 54 27 55 25 55 C 23 55 22 54 20 52 C 15 47 10 42 6 38 C 4 36 4 33 6 31 C 8 29 11 29 13 31 C 15 33 17 35 20 38 C 20 35 20 30 20 25 C 20 16 26 10 35 10 C 45 10 45 10 55 10 C 64 10 70 16 70 25 C 70 27 70 30 70 35 C 70 35 65 32 65 32 Z M 53 44 C 53 46 53 56 53 58 C 55 59 62 62 64 63 C 64 61 64 51 64 49 C 62 48 55 45 53 44 Z M 77 44 C 75 45 68 48 66 49 C 66 51 66 61 66 63 C 68 62 75 59 77 58 C 77 56 77 46 77 44 Z M 65 34 C 69 36 75 39 79 41 C 79 47 79 53 79 59 C 75 61 69 64 65 66 C 61 64 55 61 51 59 C 51 53 51 47 51 41 C 55 39 61 36 65 34 Z M 38 70 C 38 72 38 82 38 84 C 40 85 47 88 49 89 C 49 87 49 77 49 75 C 47 74 40 71 38 70 Z M 62 70 C 60 71 53 74 51 75 C 51 77 51 87 51 89 C 53 88 60 85 62 84 C 62 82 62 72 62 70 Z M 50 60 C 54 62 60 65 64 67 C 64 73 64 79 64 85 C 60 87 54 90 50 92 C 46 90 40 87 36 85 C 36 79 36 73 36 67 C 40 65 46 62 50 60 Z M 68 70 C 68 72 68 82 68 84 C 70 85 77 88 79 89 C 79 87 79 77 79 75 C 77 74 70 71 68 70 Z M 92 70 C 90 71 83 74 81 75 C 81 77 81 87 81 89 C 83 88 90 85 92 84 C 92 82 92 72 92 70 Z M 80 60 C 84 62 90 65 94 67 C 94 73 94 79 94 85 C 90 87 84 90 80 92 C 76 90 70 87 66 85 C 66 79 66 73 66 67 C 70 65 76 62 80 60 Z"></path></svg>