<svg version="1.1" xmlns="http://www.w3.org/2000/svg" viewBox="0 0 100 100"><path stroke="#000000" stroke-width="0" stroke-linejoin="round" stroke-linecap="round" fill="#000000" d="M 35 35 C 35 32 35 28 35 25 C 35 22 37 20 40 20 C 43 20 45 22 45 25 C 45 28 45 32 45 35 C 48 35 52 35 55 35 C 55 32 55 28 55 25 C 55 22 57 20 60 20 C 63 20 65 22 65 25 C 65 28 65 32 65 35 C 68 35 72 35 75 35 C 78 35 80 37 80 40 C 80 43 78 45 75 45 C 72 45 68 45 65 45 C 65 48 65 52 65 55 C 68 55 72 55 75 55 C 78 55 80 57 80 60 C 80 63 78 65 75 65 C 72 65 68 65 65 65 C 65 68 65 72 65 75 C 65 78 63 80 60 80 C 57 80 55 78 55 75 C 55 72 55 68 55 65 C 52 65 48 65 45 65 C 45 65 45 65 45 65 C 45 68 45 72 45 75 C 45 78 43 80 40 80 C 37 80 35 78 35 75 C 35 72 35 68 35 65 C 35 65 35 65 35 65 C 35 65 35 65 35 65 C 35 65 35 65 35 65 C 32 65 28 65 25 65 C 22 65 20 63 20 60 C 20 57 22 55 25 55 C 28 55 32 55 35 55 C 35 55 35 55 35 55 C 35 52 35 48 35 45 C 32 45 28 45 25 45 C 22 45 20 43 20 40 C 20 37 22 35 25 35 C 28 35 32 35 35 35 Z M 45 45 C 45 48 45 52 45 55 C 45 55 45 55 45 55 C 45 55 45 55 45 55 C 48 55 52 55 55 55 C 55 55 55 55 55 55 C 55 52 55 48 55 45 C 52 45 48 45 45 45 Z"></path></svg>