<svg version="1.1" xmlns="http://www.w3.org/2000/svg" viewBox="0 0 100 100"><path stroke="#000000" stroke-width="0" stroke-linejoin="round" stroke-linecap="round" fill="#000000" d="M 25 50 C 25 56 29 60 35 60 C 41 60 45 56 45 50 C 45 44 41 40 35 40 C 29 40 25 44 25 50 Z M 55 50 C 55 56 59 60 65 60 C 71 60 75 56 75 50 C 75 44 71 40 65 40 C 59 40 55 44 55 50 Z M 50 37 C 50 37 50 37 50 37 C 54 33 59 30 65 30 C 76 30 85 39 85 50 C 85 61 76 70 65 70 C 59 70 54 67 50 63 C 50 63 50 63 50 63 C 46 67 41 70 35 70 C 24 70 15 61 15 50 C 15 39 24 30 35 30 C 41 30 46 33 50 37 C 50 37 50 37 50 37 Z"></path></svg>