<svg version="1.1" xmlns="http://www.w3.org/2000/svg" viewBox="0 0 100 100"><path stroke="#000000" stroke-width="0" stroke-linejoin="round" stroke-linecap="round" fill="#000000" d="M 27 58 C 25 57 20 55 20 50 C 20 41 31 40 43 39 C 56 38 56 34 60 34 C 61 34 62 35 62 36 C 62 37 62 40 62 47 C 64 47 65 48 65 50 C 65 52 64 53 62 53 C 62 60 62 63 62 64 C 62 65 61 66 60 66 C 55 66 55 62 42 61 C 40 61 40 61 40 63 C 40 65 40 68 40 72 C 40 74 39 75 37 75 C 36 75 34 75 33 75 C 31 75 30 74 30 72 C 30 68 30 65 30 62 C 30 59 29 59 27 58 Z"></path></svg>