<svg version="1.1" xmlns="http://www.w3.org/2000/svg" viewBox="0 0 100 100"><path stroke="#000000" stroke-width="0" stroke-linejoin="round" stroke-linecap="round" fill="#000000" d="M 35 53 C 34 53 32 54 30 55 C 28 56 28 56 24 58 C 20 60 20 60 22 57 C 22 57 24 54 24 54 C 26 51 24 50 21 48 C 18 46 15 43 15 37 C 15 27 26 20 40 20 C 55 20 66 27 66 36 C 66 38 65 40 65 40 C 78 42 85 48 85 57 C 85 63 82 66 79 68 C 76 70 74 71 76 74 C 76 74 78 77 78 77 C 80 80 80 80 78 79 C 74 77 70 75 68 74 C 66 73 63 73 60 73 C 46 73 34 67 34 57 C 34 56 34 55 35 53 Z"></path></svg>