<svg version="1.1" xmlns="http://www.w3.org/2000/svg" viewBox="0 0 100 100"><path stroke="#000000" stroke-width="0" stroke-linejoin="round" stroke-linecap="round" fill="#000000" d="M 45 80 C 36 80 28 79 28 75 C 28 68 24 71 24 65 C 24 59 20 61 20 55 C 20 49 24 51 24 45 C 24 38 35 40 38 40 C 42 40 44 39 44 38 C 44 36 41 33 41 28 C 41 23 44 20 47 20 C 51 20 52 26 53 29 C 54 32 56 36 58 40 C 60 44 63 44 64 44 C 65 44 65 44 65 42 C 65 41 66 40 67 40 C 71 40 75 40 79 40 C 80 40 80 40 80 41 C 80 45 80 75 80 79 C 80 80 80 80 79 80 C 75 80 71 80 67 80 C 66 80 65 79 65 78 C 65 76 65 76 64 76 C 63 76 55 80 45 80 Z"></path></svg>