<svg version="1.1" xmlns="http://www.w3.org/2000/svg" viewBox="0 0 100 100"><path stroke="#000000" stroke-width="0" stroke-linejoin="round" stroke-linecap="round" fill="#000000" d="M 40 50 C 43 53 47 57 50 60 C 53 57 57 53 60 50 C 57 47 53 43 50 40 C 47 43 43 47 40 50 Z M 30 60 C 34 60 38 60 42 60 C 40 58 38 56 36 54 C 34 56 32 58 30 60 Z M 64 54 C 62 56 60 58 58 60 C 62 60 66 60 70 60 C 68 58 66 56 64 54 Z M 20 30 C 40 30 60 30 80 30 C 81 30 82 31 82 32 C 82 34 82 36 82 38 C 82 39 81 40 80 40 C 79 40 79 40 78 40 C 75 43 71 47 68 50 C 71 53 75 57 78 60 C 79 60 79 60 80 60 C 81 60 82 61 82 62 C 82 64 82 66 82 68 C 82 69 81 70 80 70 C 60 70 40 70 20 70 C 19 70 18 69 18 68 C 18 66 18 64 18 62 C 18 61 19 60 20 60 C 21 60 21 60 22 60 C 25 57 29 53 32 50 C 29 47 25 43 22 40 C 21 40 21 40 20 40 C 19 40 18 39 18 38 C 18 36 18 34 18 32 C 18 31 19 30 20 30 Z M 30 40 C 32 42 34 44 36 46 C 38 44 40 42 42 40 C 38 40 34 40 30 40 Z M 58 40 C 60 42 62 44 64 46 C 66 44 68 42 70 40 C 66 40 62 40 58 40 Z"></path></svg>