<svg version="1.1" xmlns="http://www.w3.org/2000/svg" viewBox="0 0 100 100"><path stroke="#000000" stroke-width="0" stroke-linejoin="round" stroke-linecap="round" fill="#000000" d="M 25 75 C 25 78 23 80 20 80 C 17 80 15 78 15 75 C 15 72 15 50 15 45 C 15 35 30 20 50 20 C 70 20 85 35 85 45 C 85 50 85 72 85 75 C 85 78 83 80 80 80 C 77 80 75 78 75 75 C 73 79 70 80 67 80 C 65 80 65 79 65 77 C 65 70 65 60 65 53 C 65 51 65 50 67 50 C 70 50 73 51 75 55 C 75 50 75 47 75 45 C 75 40 65 30 50 30 C 35 30 25 40 25 45 C 25 47 25 50 25 55 C 27 51 30 50 33 50 C 35 50 35 51 35 53 C 35 60 35 70 35 77 C 35 79 35 80 33 80 C 30 80 27 79 25 75 Z"></path></svg>