<svg version="1.1" xmlns="http://www.w3.org/2000/svg" viewBox="0 0 100 100"><path stroke="#000000" stroke-width="0" stroke-linejoin="round" stroke-linecap="round" fill="#000000" d="M 33 35 C 30 35 28 35 25 35 C 22 35 20 33 20 30 C 20 27 22 25 25 25 C 40 25 60 25 74 25 C 78 25 80 27 80 30 C 80 33 78 35 75 35 C 64 35 50 35 37 35 C 37 39 37 43 37 48 C 38 48 39 48 40 48 C 40 48 41 45 45 45 C 55 45 65 45 75 45 C 78 45 80 47 80 50 C 80 53 78 55 75 55 C 65 55 55 55 45 55 C 41 55 40 52 40 52 C 39 52 38 52 37 52 C 37 58 37 63 37 68 C 38 68 39 68 40 68 C 40 68 41 65 45 65 C 55 65 65 65 75 65 C 78 65 80 67 80 70 C 80 73 78 75 75 75 C 65 75 55 75 45 75 C 41 75 40 72 40 72 C 38 72 37 72 35 72 C 34 72 33 71 33 70 C 33 70 33 70 33 70 C 33 70 33 69 33 69 C 33 59 33 46 33 35 Z"></path></svg>