<svg version="1.1" xmlns="http://www.w3.org/2000/svg" viewBox="0 0 100 100"><path stroke="#000000" stroke-width="0" stroke-linejoin="round" stroke-linecap="round" fill="#000000" d="M 50 50 C 53 47 55 45 57 43 C 55 41 52 38 56 35 C 58 33 63 28 67 24 C 70 21 73 23 76 26 C 79 29 81 32 78 35 C 74 39 69 44 67 46 C 64 50 61 47 59 45 C 57 47 55 49 52 52 C 55 55 65 65 72 72 C 73 72 73 72 74 72 C 76 72 77 73 74 76 C 71 79 70 78 70 76 C 70 75 70 75 70 74 C 63 67 53 57 50 54 C 47 57 37 67 30 74 C 30 75 30 75 30 76 C 30 78 29 79 26 76 C 23 73 24 72 26 72 C 27 72 27 72 28 72 C 35 65 45 55 48 52 C 45 49 43 47 41 45 C 39 47 36 50 33 46 C 31 44 26 39 22 35 C 19 32 21 29 24 26 C 27 23 30 21 33 24 C 37 28 42 33 44 35 C 48 38 45 41 43 43 C 45 45 47 47 50 50 Z"></path></svg>