<svg version="1.1" xmlns="http://www.w3.org/2000/svg" viewBox="0 0 100 100"><path stroke="#000000" stroke-width="0" stroke-linejoin="round" stroke-linecap="round" fill="#000000" d="M 47 63 C 47 63 47 63 47 63 C 49 62 51 61 53 59 C 53 62 53 65 52 68 C 50 69 50 69 48 70 C 47 67 47 65 47 63 Z M 47 53 C 49 52 51 51 53 49 C 53 52 53 54 53 57 C 51 59 49 60 47 61 C 47 58 47 56 47 53 Z M 47 43 C 49 42 51 41 53 39 C 53 42 53 44 53 47 C 51 49 49 50 47 51 C 47 48 47 46 47 43 Z M 47 41 C 47 38 47 36 47 33 C 49 32 51 31 53 29 C 53 32 53 34 53 37 C 51 39 49 40 47 41 Z M 53 27 C 51 29 49 30 47 31 C 47 29 47 27 47 26 C 47 23 30 23 30 21 C 30 20 30 19 34 18 C 38 17 43 18 45 18 C 46 18 45 19 46 19 C 47 19 47 19 48 19 C 49 19 48 20 49 20 C 50 20 50 20 51 20 C 52 20 51 19 52 19 C 53 19 53 19 54 19 C 55 19 54 18 55 18 C 57 18 62 17 66 18 C 70 19 70 20 70 21 C 70 23 53 23 53 26 C 53 26 53 26 53 27 Z M 48 72 C 50 71 50 71 52 70 C 51 78 50 80 50 80 C 50 80 49 78 48 72 Z"></path></svg>