<svg version="1.1" xmlns="http://www.w3.org/2000/svg" viewBox="0 0 100 100"><path stroke="#000000" stroke-width="0" stroke-linejoin="round" stroke-linecap="round" fill="#000000" d="M 35 65 C 36 66 36 68 35 69 C 34 70 30 74 29 75 C 28 76 26 76 25 75 C 24 74 24 72 25 71 C 26 70 30 66 31 65 C 32 64 34 64 35 65 Z M 26 47 C 30 47 30 53 26 53 C 23 53 21 53 18 53 C 14 53 14 47 18 47 C 21 47 23 47 26 47 Z M 44 77 C 44 74 42 71 40 69 C 38 67 38 67 35 63 C 32 59 30 55 30 50 C 30 39 39 30 50 30 C 61 30 70 39 70 50 C 70 55 68 59 65 63 C 62 67 62 67 60 69 C 58 71 56 74 56 77 C 56 78 56 79 56 80 C 56 82 54 85 52 85 C 50 85 50 85 48 85 C 46 85 44 82 44 80 C 44 79 44 78 44 77 Z M 75 75 C 74 76 72 76 71 75 C 70 74 66 70 65 69 C 64 68 64 66 65 65 C 66 64 68 64 69 65 C 70 66 74 70 75 71 C 76 72 76 74 75 75 Z M 74 53 C 70 53 70 47 74 47 C 77 47 79 47 82 47 C 86 47 86 53 82 53 C 79 53 77 53 74 53 Z M 75 25 C 76 26 76 28 75 29 C 74 30 70 34 69 35 C 68 36 66 36 65 35 C 64 34 64 32 65 31 C 66 30 70 26 71 25 C 72 24 74 24 75 25 Z M 53 26 C 53 30 47 30 47 26 C 47 23 47 21 47 18 C 47 14 53 14 53 18 C 53 21 53 23 53 26 Z M 35 35 C 34 36 32 36 31 35 C 30 34 26 30 25 29 C 24 28 24 26 25 25 C 26 24 28 24 29 25 C 30 26 34 30 35 31 C 36 32 36 34 35 35 Z"></path></svg>