<svg version="1.1" xmlns="http://www.w3.org/2000/svg" viewBox="0 0 100 100"><path stroke="#000000" stroke-width="0" stroke-linejoin="round" stroke-linecap="round" fill="#000000" d="M 18 75 C 30 75 50 75 61 75 C 68 75 79 58 82 54 C 85 50 85 50 82 46 C 79 42 68 25 61 25 C 50 25 30 25 18 25 C 16 25 15 26 15 28 C 15 40 15 60 15 72 C 15 74 16 75 18 75 Z M 16 80 C 13 80 10 77 10 74 C 10 60 10 40 10 26 C 10 23 13 20 16 20 C 30 20 50 20 62 20 C 71 20 81 36 84 40 C 87 44 90 48 90 50 C 90 52 87 56 84 60 C 81 64 71 80 62 80 C 50 80 30 80 16 80 Z"></path></svg>