<svg version="1.1" xmlns="http://www.w3.org/2000/svg" viewBox="0 0 100 100"><path stroke="#000000" stroke-width="0" stroke-linejoin="round" stroke-linecap="round" fill="#000000" d="M 61 31 C 60 31 59 30 59 29 C 59 25 55 21 50 21 C 45 21 41 25 41 31 C 41 33 41 42 41 44 C 41 45 41 45 42 45 C 60 45 50 45 66 45 C 68 45 70 47 70 49 C 70 61 70 69 70 76 C 70 78 68 80 66 80 C 55 80 45 80 34 80 C 32 80 30 78 30 76 C 30 69 30 61 30 49 C 30 47 32 45 34 45 C 35 45 35 45 35 44 C 35 42 35 33 35 31 C 35 21 42 15 50 15 C 58 15 65 21 65 29 C 65 30 64 31 63 31 C 62 31 62 31 61 31 Z"></path></svg>