<svg version="1.1" xmlns="http://www.w3.org/2000/svg" viewBox="0 0 100 100"><path stroke="#000000" stroke-width="0" stroke-linejoin="round" stroke-linecap="round" fill="#000000" d="M 28 65 C 28 69 31 72 35 72 C 39 72 42 69 42 65 C 42 61 39 58 35 58 C 31 58 28 61 28 65 Z M 68 38 C 67 39 67 40 68 41 C 68 41 68 41 69 42 C 70 43 70 45 69 46 C 68 47 67 48 66 49 C 65 50 63 50 62 49 C 61 48 61 48 60 47 C 59 46 59 46 57 48 C 56 49 54 51 52 53 C 50 55 50 60 50 65 C 50 73 43 80 35 80 C 27 80 20 73 20 65 C 20 57 27 50 35 50 C 40 50 45 50 47 48 C 49 46 65 30 73 22 C 75 20 76 20 78 22 C 80 24 80 25 78 27 C 76 29 76 29 77 30 C 78 31 78 31 79 32 C 80 33 80 35 79 36 C 78 37 77 38 76 39 C 75 40 73 40 72 39 C 71 38 71 38 71 38 C 70 37 69 37 68 38 Z"></path></svg>