<svg version="1.1" xmlns="http://www.w3.org/2000/svg" viewBox="0 0 100 100"><path stroke="#000000" stroke-width="0" stroke-linejoin="round" stroke-linecap="round" fill="#000000" d="M 71 63 C 72 63 73 62 73 61 C 73 53 73 43 73 37 C 73 36 72 35 71 35 C 58 35 42 35 29 35 C 28 35 27 36 27 37 C 27 43 27 53 27 61 C 27 62 28 63 29 63 C 42 63 58 63 71 63 Z M 49 42 C 55 42 59 42 62 42 C 63 42 64 43 64 44 C 64 46 64 49 64 53 C 64 54 63 55 62 55 C 57 55 51 55 46 55 C 45 55 44 54 44 53 C 44 53 44 52 44 52 C 40 52 36 52 33 52 C 32 52 31 51 31 50 C 31 46 31 43 31 41 C 31 40 32 39 33 39 C 36 39 42 39 47 39 C 48 39 49 40 49 41 C 49 41 49 42 49 42 Z M 40 62 C 38 62 38 59 40 59 C 48 59 52 59 60 59 C 62 59 62 62 60 62 C 52 62 48 62 40 62 Z M 80 74 C 83 80 83 80 76 80 C 70 80 30 80 24 80 C 17 80 17 80 20 74 C 21 72 23 68 24 66 C 26 62 24 66 24 60 C 24 53 24 43 24 36 C 24 33 27 30 30 30 C 42 30 58 30 70 30 C 73 30 76 33 76 36 C 76 43 76 53 76 60 C 76 66 74 62 76 66 C 77 68 79 72 80 74 Z M 69 48 C 68 48 68 48 67 48 C 66 48 66 48 66 49 C 66 50 66 50 66 51 C 66 52 66 52 67 52 C 68 52 68 52 69 52 C 70 52 70 52 70 51 C 70 50 70 50 70 49 C 70 48 70 48 69 48 Z M 69 43 C 68 43 68 43 67 43 C 66 43 66 43 66 44 C 66 45 66 45 66 46 C 66 47 66 47 67 47 C 68 47 68 47 69 47 C 70 47 70 47 70 46 C 70 45 70 45 70 44 C 70 43 70 43 69 43 Z M 69 38 C 68 38 68 38 67 38 C 66 38 66 38 66 39 C 66 40 66 40 66 41 C 66 42 66 42 67 42 C 68 42 68 42 69 42 C 70 42 70 42 70 41 C 70 40 70 40 70 39 C 70 38 70 38 69 38 Z M 50 31 C 48 31 48 34 50 34 C 52 34 52 31 50 31 Z M 50 74 C 46 74 46 74 45.5 76 C 45 78 45 78 48 78 C 49 78 51 78 52 78 C 55 78 55 78 54.5 76 C 54 74 54 74 50 74 Z"></path></svg>