<svg version="1.1" xmlns="http://www.w3.org/2000/svg" viewBox="0 0 100 100"><path stroke="#000000" stroke-width="0" stroke-linejoin="round" stroke-linecap="round" fill="#000000" d="M 21 61 C 21 68 27 74 34 74 C 41 74 47 68 47 61 C 47 54 41 48 34 48 C 27 48 21 54 21 61 Z M 53 61 C 53 68 59 74 66 74 C 73 74 79 68 79 61 C 79 54 73 48 66 48 C 59 48 53 54 53 61 Z M 79 47 C 79 40 79 30 79 27 C 79 26 79 26 78 26 C 76 26 75 25 75 23 C 75 21 76 20 78 20 C 79 20 80 20 81 20 C 83 20 85 22 85 24 C 85 30 85 50 85 61 C 85 71 76 80 66 80 C 59 80 55 77 50 71 C 45 77 41 80 34 80 C 24 80 15 71 15 60 C 15 50 15 30 15 24 C 15 22 17 20 19 20 C 20 20 21 20 22 20 C 24 20 25 21 25 23 C 25 25 24 26 22 26 C 21 26 21 26 21 27 C 21 30 21 40 21 48 C 24 44 29 42 34 42 C 40 42 46 45 50 51 C 54 45 60 42 66 42 C 71 42 75 44 79 47 Z"></path></svg>