<svg version="1.1" xmlns="http://www.w3.org/2000/svg" viewBox="0 0 100 100"><path stroke="#000000" stroke-width="0" stroke-linejoin="round" stroke-linecap="round" fill="#000000" d="M 35 50 C 36 50 38 50 39 50 C 40 50 41 51 41 52 C 41 61 41 69 41 78 C 41 79 40 80 39 80 C 38 80 36 80 35 80 C 34 80 33 79 33 78 C 33 69 33 61 33 52 C 33 51 34 50 35 50 Z M 22 60 C 23 60 25 60 26 60 C 27 60 28 61 28 62 C 28 67 28 73 28 78 C 28 79 27 80 26 80 C 25 80 23 80 22 80 C 21 80 20 79 20 78 C 20 73 20 67 20 62 C 20 61 21 60 22 60 Z"></path></svg>