<svg version="1.1" xmlns="http://www.w3.org/2000/svg" viewBox="0 0 100 100"><path stroke="#000000" stroke-width="0" stroke-linejoin="round" stroke-linecap="round" fill="#000000" d="M 20 47 C 25 50 46 62 48 63 C 43 66 36 70 31 73 C 25 69 19 58 20 47 Z M 38 23 C 38 34 38 44 38 55 C 29 50 29 50 20 45 C 22 35 29 27 38 23 Z M 67 26 C 62 29 45 39 40 42 C 40 35 40 28 40 22 C 43 21 46 20 50 20 C 56 20 62 22 67 26 Z M 80 53 C 80 53 80 53 80 53 C 75 50 57 40 52 37 C 57 34 64 30 69 27 C 75 31 81 42 80 53 Z M 62 77 C 62 77 62 77 62 77 C 62 66 62 56 62 45 C 71 50 71 50 80 55 C 78 65 71 73 62 77 Z M 60 58 C 60 64 60 71 60 78 C 57 79 54 80 50 80 C 44 80 38 78 33 74 C 38 71 55 61 60 58 Z"></path></svg>