<svg version="1.1" xmlns="http://www.w3.org/2000/svg" viewBox="0 0 100 100"><path stroke="#000000" stroke-width="0" stroke-linejoin="round" stroke-linecap="round" fill="#000000" d="M 46 55 C 49 55 53 55 56 55 C 56 55 56 55 56 55 C 56 55 56 55 56 55 C 55 50 55 50 54 45 C 54 45 54 45 54 45 C 51 45 47 45 44 45 C 45 50 45 50 46 55 Z M 66 55 C 67 60 67 60 67 60 C 68 65 68 65 66 65 C 60 65 40 65 38 65 C 35 65 31 65 28 65 C 25 65 23 65 22 60 C 21 55 23 55 26 55 C 29 55 33 55 36 55 C 35 50 35 50 34 45 C 33 40 33 40 33 40 C 32 35 32 35 34 35 C 40 35 60 35 62 35 C 65 35 69 35 72 35 C 75 35 77 35 78 40 C 79 45 77 45 74 45 C 71 45 67 45 64 45 C 65 50 65 50 66 55 Z"></path></svg>