<svg version="1.1" xmlns="http://www.w3.org/2000/svg" viewBox="0 0 100 100"><path stroke="#000000" stroke-width="0" stroke-linejoin="round" stroke-linecap="round" fill="#000000" d="M 69 44 C 73 42 75 41 79 39 C 79 39 80 38 80 41 C 80 48 80 58 80 65 C 80 69 79 68 79 68 C 75 66 73 65 69 63 C 69 67 66 70 63 70 C 55 70 39 70 31 70 C 28 70 25 67 25 64 C 25 58 25 50 25 43 C 25 42 25 42 24 42 C 23 42 23 42 22 42 C 21 42 20 41 20 40 C 20 38 20 34 20 32 C 20 31 21 30 22 30 C 27 30 37 30 38 30 C 39 30 40 31 40 32 C 40 34 40 36 40 37 C 40 38 40 38 41 38 C 43 38 48 38 51 38 C 52 38 52 38 52 37 C 52 36 52 36 52 35 C 52 34 52 34 51 34 C 50 34 50 32 51 32 C 54 32 58 32 60 32 C 60 31 61 30 63 30 C 65 30 70 30 72 30 C 74 30 75 31 75 33 C 75 35 74 36 72 36 C 70 36 65 36 63 36 C 61 36 60 35 60 34 C 60 34 60 34 59 34 C 58 34 58 34 58 35 C 58 36 58 36 58 37 C 58 38 58 38 59 38 C 60 38 61 38 63 38 C 66 38 69 41 69 44 Z"></path></svg>