<svg version="1.1" xmlns="http://www.w3.org/2000/svg" viewBox="0 0 100 100"><path stroke="#000000" stroke-width="0" stroke-linejoin="round" stroke-linecap="round" fill="#000000" d="M 44 30 C 44 36 44 44 44 49 C 44 52 48 52 48 49 C 48 44 48 36 48 30 C 49 30 51 30 52 30 C 52 36 52 44 52 49 C 52 52 56 52 56 49 C 56 44 56 36 56 30 C 57 30 59 30 60 30 C 60 36 60 44 60 49 C 60 52 64 52 64 49 C 64 44 64 36 64 30 C 65 30 67 30 68 30 C 68 36 68 44 68 49 C 68 52 72 52 72 49 C 72 44 72 36 72 30 C 73 30 74 30 75 30 C 76 30 77 31 77 32 C 77 44 77 56 77 68 C 77 69 76 70 75 70 C 57 70 34 70 25 70 C 24 70 23 69 23 68 C 23 56 23 44 23 32 C 23 31 24 30 25 30 C 26 30 27 30 28 30 C 28 36 28 44 28 49 C 28 52 32 52 32 49 C 32 44 32 36 32 30 C 33 30 35 30 36 30 C 36 36 36 44 36 49 C 36 52 40 52 40 49 C 40 44 40 36 40 30 C 41 30 43 30 44 30 Z"></path></svg>