<svg version="1.1" xmlns="http://www.w3.org/2000/svg" viewBox="0 0 100 100"><path stroke="#000000" stroke-width="0" stroke-linejoin="round" stroke-linecap="round" fill="#000000" d="M 35 70 C 21 70 10 59 10 45 C 10 31 21 20 35 20 C 38 20 42 20 45 20 C 48 20 50 22 50 25 C 50 28 48 30 45 30 C 42 30 38 30 35 30 C 28 30 20 38 20 45 C 20 52 28 60 35 60 C 40 60 70 60 73 60 C 70 57 68 55 66 53 C 64 51 64 48 66 46 C 68 44 71 44 73 46 C 77 50 82 55 87 60 C 89 62 90 63 90 65 C 90 67 89 68 87 70 C 82 75 77 80 73 84 C 71 86 68 86 66 84 C 64 82 64 79 66 77 C 68 75 70 73 73 70 C 70 70 40 70 35 70 Z"></path></svg>