<svg version="1.1" xmlns="http://www.w3.org/2000/svg" viewBox="0 0 100 100"><path stroke="#000000" stroke-width="0" stroke-linejoin="round" stroke-linecap="round" fill="#000000" d="M 67 76 C 72 76 72 76 69 72 C 66 68 66 68 63 64 C 60 60 53 53 53 50 C 53 47 60 40 63 36 C 66 32 66 32 69 28 C 72 24 72 24 67 24 C 56 24 44 24 33 24 C 28 24 28 24 31 28 C 34 32 34 32 37 36 C 40 40 47 47 47 50 C 47 53 40 60 37 64 C 34 68 34 68 31 72 C 28 76 28 76 33 76 C 44 76 56 76 67 76 Z M 74 80 C 59 80 41 80 26 80 C 19 80 19 80 22 76 C 26 71 26 71 30 66 C 33 62 42 52 42 50 C 42 48 33 38 30 34 C 26 29 26 29 22 24 C 19 20 19 20 26 20 C 41 20 59 20 74 20 C 81 20 81 20 78 24 C 74 29 74 29 70 34 C 67 38 58 48 58 50 C 58 52 67 62 70 66 C 74 71 74 71 78 76 C 81 80 81 80 74 80 Z"></path></svg>