<svg version="1.1" xmlns="http://www.w3.org/2000/svg" viewBox="0 0 100 100"><path stroke="#000000" stroke-width="0" stroke-linejoin="round" stroke-linecap="round" fill="#000000" d="M 20 70 C 20 67 22 65 25 65 C 28 65 30 67 30 70 C 30 73 28 75 25 75 C 22 75 20 73 20 70 Z M 20 50 C 20 47 22 45 25 45 C 28 45 30 47 30 50 C 30 53 28 55 25 55 C 22 55 20 53 20 50 Z M 20 30 C 20 27 22 25 25 25 C 28 25 30 27 30 30 C 30 33 28 35 25 35 C 22 35 20 33 20 30 Z M 40 70 C 40 67 42 65 45 65 C 50 65 70 65 75 65 C 78 65 80 67 80 70 C 80 73 78 75 75 75 C 70 75 50 75 45 75 C 42 75 40 73 40 70 Z M 40 50 C 40 47 42 45 45 45 C 50 45 70 45 75 45 C 78 45 80 47 80 50 C 80 53 78 55 75 55 C 70 55 50 55 45 55 C 42 55 40 53 40 50 Z M 40 30 C 40 27 42 25 45 25 C 50 25 70 25 75 25 C 78 25 80 27 80 30 C 80 33 78 35 75 35 C 70 35 50 35 45 35 C 42 35 40 33 40 30 Z"></path></svg>