<svg version="1.1" xmlns="http://www.w3.org/2000/svg" viewBox="0 0 100 100"><path stroke="#000000" stroke-width="0" stroke-linejoin="round" stroke-linecap="round" fill="#000000" d="M 63 32 C 63 30 63 27 63 24 C 63 23 62 22 61 22 C 54 22 46 22 39 22 C 38 22 37 23 37 24 C 37 27 37 30 37 32 C 40 32 60 32 63 32 Z M 37 60 C 37 62 37 70 37 76 C 37 77 38 78 39 78 C 46 78 54 78 61 78 C 62 78 63 77 63 76 C 63 70 63 62 63 60 C 59 60 41 60 37 60 Z M 65 71 C 65 73 65 74 65 76 C 65 78 63 80 61 80 C 55 80 45 80 39 80 C 37 80 35 78 35 76 C 35 74 35 73 35 71 C 32 71 29 71 26 71 C 23 71 20 69 20 66 C 20 57 20 47 20 38 C 20 35 23 32 26 32 C 30 32 33 32 35 32 C 35 30 35 27 35 24 C 35 22 37 20 39 20 C 45 20 55 20 61 20 C 63 20 65 22 65 24 C 65 27 65 30 65 32 C 67 32 70 32 74 32 C 77 32 80 35 80 38 C 80 47 80 57 80 66 C 80 69 77 71 74 71 C 71 71 68 71 65 71 Z M 40 74 C 47 74 53 74 60 74 C 60 74 61 74 61 75 C 61 75 61 75 61 75 C 61 76 60 76 60 76 C 53 76 47 76 40 76 C 40 76 39 76 39 75 C 39 75 39 75 39 75 C 39 74 40 74 40 74 Z M 40 70 C 47 70 53 70 60 70 C 60 70 61 70 61 71 C 61 71 61 71 61 71 C 61 72 60 72 60 72 C 53 72 47 72 40 72 C 40 72 39 72 39 71 C 39 71 39 71 39 71 C 39 70 40 70 40 70 Z M 40 66 C 47 66 53 66 60 66 C 60 66 61 66 61 67 C 61 67 61 67 61 67 C 61 68 60 68 60 68 C 53 68 47 68 40 68 C 40 68 39 68 39 67 C 39 67 39 67 39 67 C 39 66 40 66 40 66 Z M 40 62 C 47 62 53 62 60 62 C 60 62 61 62 61 63 C 61 63 61 63 61 63 C 61 64 60 64 60 64 C 53 64 47 64 40 64 C 40 64 39 64 39 63 C 39 63 39 63 39 63 C 39 62 40 62 40 62 Z M 28 38 C 28 37 27 36 26 36 C 25 36 24 37 24 38 C 24 39 25 40 26 40 C 27 40 28 39 28 38 Z"></path></svg>