<svg version="1.1" xmlns="http://www.w3.org/2000/svg" viewBox="0 0 100 100"><path stroke="#000000" stroke-width="0" stroke-linejoin="round" stroke-linecap="round" fill="#000000" d="M 60 42 C 63 42 67 42 70 42 C 70 44 70 45 70 47 C 70 48 70 49 70 50 C 70 61 61 70 50 70 C 39 70 30 61 30 50 C 30 49 30 48 30 47 C 30 45 30 44 30 42 C 33 42 37 42 40 42 C 40 44 40 45 40 47 C 40 48 40 49 40 50 C 40 56 44 60 50 60 C 56 60 60 56 60 50 C 60 49 60 48 60 47 C 60 45 60 44 60 42 Z M 60 40 C 60 38 60 37 60 35 C 60 30 60 30 65 30 C 70 30 70 30 70 35 C 70 37 70 38 70 40 C 67 40 63 40 60 40 Z M 30 40 C 30 38 30 37 30 35 C 30 30 30 30 35 30 C 40 30 40 30 40 35 C 40 36 40 38 40 40 C 37 40 33 40 30 40 Z"></path></svg>