<svg version="1.1" xmlns="http://www.w3.org/2000/svg" viewBox="0 0 100 100"><path stroke="#000000" stroke-width="0" stroke-linejoin="round" stroke-linecap="round" fill="#000000" d="M 29 53 C 29 56 31 60 33 62 C 38 57 40 55 42 53 C 38 53 35 53 29 53 Z M 38 67 C 40 69 44 71 47 71 C 47 65 47 62 47 58 C 45 60 43 62 38 67 Z M 53 71 C 56 71 60 69 62 67 C 57 62 55 60 53 58 C 53 62 53 65 53 71 Z M 67 62 C 69 60 71 56 71 53 C 65 53 62 53 58 53 C 60 55 62 57 67 62 Z M 58 47 C 62 47 65 47 71 47 C 71 44 69 40 67 38 C 62 43 60 45 58 47 Z M 62 33 C 60 31 56 29 53 29 C 53 35 53 38 53 42 C 55 40 57 38 62 33 Z M 47 29 C 44 29 40 31 38 33 C 43 38 45 40 47 42 C 47 38 47 35 47 29 Z M 33 38 C 31 40 29 44 29 47 C 35 47 38 47 42 47 C 40 45 38 43 33 38 Z M 20 50 C 20 33 33 20 50 20 C 67 20 80 33 80 50 C 80 67 67 80 50 80 C 33 80 20 67 20 50 Z"></path></svg>