<svg version="1.1" xmlns="http://www.w3.org/2000/svg" viewBox="0 0 100 100"><path stroke="#000000" stroke-width="0" stroke-linejoin="round" stroke-linecap="round" fill="#000000" d="M 48 65 C 57 65 65 65 73 65 C 74 65 75 64 75 63 C 75 55 75 45 75 37 C 75 36 74 35 73 35 C 58 35 42 35 27 35 C 26 35 25 36 25 37 C 25 45 25 55 25 63 C 26 61 28 61 30 60 C 32 59 31 59 30 58 C 29 57 27 54 27 49 C 27 44 31 40 36 40 C 41 40 45 44 45 49 C 45 54 43 57 42 58 C 41 59 40 59 42 60 C 44 61 46 61 48 65 C 48 65 48 65 48 65 C 48 65 48 65 48 65 Z M 52 60 C 49 60 49 56 52 56 C 58 56 62 56 68 56 C 71 56 71 60 68 60 C 62 60 58 60 52 60 Z M 52 52 C 49 52 49 48 52 48 C 58 48 62 48 68 48 C 71 48 71 52 68 52 C 62 52 58 52 52 52 Z M 52 44 C 49 44 49 40 52 40 C 58 40 62 40 68 40 C 71 40 71 44 68 44 C 62 44 58 44 52 44 Z M 20 64 C 20 55 20 45 20 36 C 20 33 23 30 26 30 C 42 30 58 30 74 30 C 77 30 80 33 80 36 C 80 45 80 55 80 64 C 80 67 77 70 74 70 C 58 70 42 70 26 70 C 23 70 20 67 20 64 Z"></path></svg>