<svg version="1.1" xmlns="http://www.w3.org/2000/svg" viewBox="0 0 100 100"><path stroke="#000000" stroke-width="0" stroke-linejoin="round" stroke-linecap="round" fill="#000000" d="M 75 82 C 75 70 75 50 75 39 C 75 32 58 21 54 18 C 50 15 50 15 46 18 C 42 21 25 32 25 39 C 25 50 25 70 25 82 C 25 84 26 85 28 85 C 40 85 60 85 72 85 C 74 85 75 84 75 82 Z M 80 84 C 80 87 77 90 74 90 C 60 90 40 90 26 90 C 23 90 20 87 20 84 C 20 70 20 50 20 38 C 20 29 36 19 40 16 C 44 13 48 10 50 10 C 52 10 56 13 60 16 C 64 19 80 29 80 38 C 80 50 80 70 80 84 Z"></path></svg>