<svg version="1.1" xmlns="http://www.w3.org/2000/svg" viewBox="0 0 100 100"><path stroke="#000000" stroke-width="0" stroke-linejoin="round" stroke-linecap="round" fill="#000000" d="M 37 25 C 36 25 35 26 35 27 C 35 42 35 58 35 73 C 35 74 36 75 37 75 C 45 75 55 75 63 75 C 64 75 65 74 65 73 C 65 58 65 40 65 36 C 65 35 65 35 64 35 C 63 35 61 35 59 35 C 57 35 55 33 55 31 C 55 29 55 27 55 26 C 55 25 55 25 54 25 C 50 25 40 25 37 25 Z M 61 30 C 63 30 64 30 65 30 C 65 30 60 25 60 25 C 60 26 60 27 60 29 C 60 30 60 30 61 30 Z M 36 20 C 45 20 55 20 58 20 C 61 20 70 29 70 32 C 70 42 70 58 70 74 C 70 77 67 80 64 80 C 55 80 45 80 36 80 C 33 80 30 77 30 74 C 30 58 30 42 30 26 C 30 23 33 20 36 20 Z"></path></svg>