<svg version="1.1" xmlns="http://www.w3.org/2000/svg" viewBox="0 0 100 100"><path stroke="#000000" stroke-width="0" stroke-linejoin="round" stroke-linecap="round" fill="#000000" d="M 73 25 C 70 25 62 25 59 25 C 58 25 57 26 57 27 C 57 30 57 43 57 46 C 57 47 58 48 59 48 C 62 48 70 48 73 48 C 74 48 75 47 75 46 C 75 43 75 30 75 27 C 75 26 74 25 73 25 Z M 41 25 C 38 25 30 25 27 25 C 26 25 25 26 25 27 C 25 30 25 33 25 36 C 25 37 26 38 27 38 C 30 38 38 38 41 38 C 42 38 43 37 43 36 C 43 33 43 30 43 27 C 43 26 42 25 41 25 Z M 41 52 C 38 52 30 52 27 52 C 26 52 25 53 25 54 C 25 57 25 70 25 73 C 25 74 26 75 27 75 C 30 75 38 75 41 75 C 42 75 43 74 43 73 C 43 70 43 57 43 54 C 43 53 42 52 41 52 Z M 73 62 C 70 62 62 62 59 62 C 58 62 57 63 57 64 C 57 67 57 70 57 73 C 57 74 58 75 59 75 C 62 75 70 75 73 75 C 74 75 75 74 75 73 C 75 70 75 67 75 64 C 75 63 74 62 73 62 Z M 42 47 C 45 47 48 50 48 53 C 48 57 48 70 48 74 C 48 77 45 80 42 80 C 38 80 30 80 26 80 C 23 80 20 77 20 74 C 20 70 20 57 20 53 C 20 50 23 47 26 47 C 30 47 38 47 42 47 Z M 42 20 C 45 20 48 23 48 26 C 48 30 48 33 48 37 C 48 40 45 43 42 43 C 38 43 30 43 26 43 C 23 43 20 40 20 37 C 20 33 20 30 20 26 C 20 23 23 20 26 20 C 30 20 38 20 42 20 Z M 74 57 C 77 57 80 60 80 63 C 80 67 80 70 80 74 C 80 77 77 80 74 80 C 70 80 62 80 58 80 C 55 80 52 77 52 74 C 52 70 52 67 52 63 C 52 60 55 57 58 57 C 62 57 70 57 74 57 Z M 74 20 C 77 20 80 23 80 26 C 80 30 80 43 80 47 C 80 50 77 53 74 53 C 70 53 62 53 58 53 C 55 53 52 50 52 47 C 52 43 52 30 52 26 C 52 23 55 20 58 20 C 62 20 70 20 74 20 Z"></path></svg>