<svg version="1.1" xmlns="http://www.w3.org/2000/svg" viewBox="0 0 100 100"><path stroke="#000000" stroke-width="0" stroke-linejoin="round" stroke-linecap="round" fill="#000000" d="M 62 77 C 62 79 62 81 62 83 C 62 85 62 85 64 85 C 69 85 75 85 80 85 C 82 85 82 85 82 83 C 82 81 82 79 82 77 C 82 75 82 75 80 75 C 75 75 69 75 64 75 C 62 75 62 75 62 77 Z M 17 57 C 17 59 17 61 17 63 C 17 65 17 65 19 65 C 24 65 30 65 35 65 C 37 65 37 65 37 63 C 37 61 37 59 37 57 C 37 55 37 55 35 55 C 30 55 24 55 19 55 C 17 55 17 55 17 57 Z M 32 37 C 32 39 32 41 32 43 C 32 45 32 45 34 45 C 39 45 45 45 50 45 C 52 45 52 45 52 43 C 52 41 52 39 52 37 C 52 35 52 35 50 35 C 45 35 39 35 34 35 C 32 35 32 35 32 37 Z M 17 17 C 17 19 17 21 17 23 C 17 25 17 25 19 25 C 24 25 30 25 35 25 C 37 25 37 25 37 23 C 37 21 37 19 37 17 C 37 15 37 15 35 15 C 30 15 24 15 19 15 C 17 15 17 15 17 17 Z M 47 17 C 47 19 47 21 47 23 C 47 25 47 25 49 25 C 54 25 60 25 65 25 C 67 25 67 25 67 23 C 67 21 67 19 67 17 C 67 15 67 15 65 15 C 60 15 54 15 49 15 C 47 15 47 15 47 17 Z M 62 37 C 62 39 62 41 62 43 C 62 45 62 45 64 45 C 69 45 75 45 80 45 C 82 45 82 45 82 43 C 82 41 82 39 82 37 C 82 35 82 35 80 35 C 75 35 69 35 64 35 C 62 35 62 35 62 37 Z M 47 57 C 47 59 47 61 47 63 C 47 65 47 65 49 65 C 54 65 60 65 65 65 C 67 65 67 65 67 63 C 67 61 67 59 67 57 C 67 55 67 55 65 55 C 60 55 54 55 49 55 C 47 55 47 55 47 57 Z M 12 13 C 12 11 13 10 15 10 C 23 10 31 10 39 10 C 41 10 42 11 42 13 C 42 18 42 23 42 27 C 42 29 41 30 39 30 C 31 30 23 30 15 30 C 13 30 12 29 12 27 C 12 23 12 18 12 13 Z M 42 13 C 42 11 43 10 45 10 C 53 10 61 10 69 10 C 71 10 72 11 72 13 C 72 18 72 23 72 27 C 72 29 71 30 69 30 C 61 30 53 30 45 30 C 43 30 42 29 42 27 C 42 23 42 18 42 13 Z M 27 33 C 27 31 28 30 30 30 C 38 30 46 30 54 30 C 56 30 57 31 57 33 C 57 38 57 43 57 47 C 57 49 56 50 54 50 C 46 50 38 50 30 50 C 28 50 27 49 27 47 C 27 43 27 38 27 33 Z M 57 33 C 57 31 58 30 60 30 C 68 30 76 30 84 30 C 86 30 87 31 87 33 C 87 38 87 43 87 47 C 87 49 86 50 84 50 C 76 50 68 50 60 50 C 58 50 57 49 57 47 C 57 43 57 38 57 33 Z M 12 53 C 12 51 13 50 15 50 C 23 50 31 50 39 50 C 41 50 42 51 42 53 C 42 58 42 63 42 67 C 42 69 41 70 39 70 C 31 70 23 70 15 70 C 13 70 12 69 12 67 C 12 63 12 58 12 53 Z M 42 53 C 42 51 43 50 45 50 C 53 50 61 50 69 50 C 71 50 72 51 72 53 C 72 58 72 63 72 67 C 72 69 71 70 69 70 C 61 70 53 70 45 70 C 43 70 42 69 42 67 C 42 63 42 58 42 53 Z M 57 73 C 57 71 58 70 60 70 C 68 70 76 70 84 70 C 86 70 87 71 87 73 C 87 78 87 83 87 87 C 87 89 86 90 84 90 C 76 90 68 90 60 90 C 58 90 57 89 57 87 C 57 83 57 78 57 73 Z M 32 77 C 32 79 32 81 32 83 C 32 85 32 85 34 85 C 39 85 45 85 50 85 C 52 85 52 85 52 83 C 52 81 52 79 52 77 C 52 75 52 75 50 75 C 45 75 39 75 34 75 C 32 75 32 75 32 77 Z M 27 73 C 27 71 28 70 30 70 C 38 70 46 70 54 70 C 56 70 57 71 57 73 C 57 78 57 83 57 87 C 57 89 56 90 54 90 C 46 90 38 90 30 90 C 28 90 27 89 27 87 C 27 83 27 78 27 73 Z"></path></svg>