<svg version="1.1" xmlns="http://www.w3.org/2000/svg" viewBox="0 0 100 100"><path stroke="#000000" stroke-width="0" stroke-linejoin="round" stroke-linecap="round" fill="#000000" d="M 26 20 C 27 20 28 21 28 22 C 28 40 28 60 28 78 C 28 79 27 80 26 80 C 25 80 23 80 22 80 C 21 80 20 79 20 78 C 20 60 20 40 20 22 C 20 21 21 20 22 20 C 23 20 25 20 26 20 Z M 39 30 C 40 30 41 31 41 32 C 41 47 41 63 41 78 C 41 79 40 80 39 80 C 38 80 36 80 35 80 C 34 80 33 79 33 78 C 33 63 33 47 33 32 C 33 31 34 30 35 30 C 36 30 38 30 39 30 Z M 52 40 C 53 40 54 41 54 42 C 54 54 54 66 54 78 C 54 79 53 80 52 80 C 51 80 49 80 48 80 C 47 80 46 79 46 78 C 46 66 46 54 46 42 C 46 41 47 40 48 40 C 49 40 51 40 52 40 Z M 65 50 C 66 50 67 51 67 52 C 67 61 67 69 67 78 C 67 79 66 80 65 80 C 64 80 62 80 61 80 C 60 80 59 79 59 78 C 59 69 59 61 59 52 C 59 51 60 50 61 50 C 62 50 64 50 65 50 Z M 78 60 C 79 60 80 61 80 62 C 80 67 80 73 80 78 C 80 79 79 80 78 80 C 77 80 75 80 74 80 C 73 80 72 79 72 78 C 72 73 72 67 72 62 C 72 61 73 60 74 60 C 75 60 77 60 78 60 Z"></path></svg>