<svg version="1.1" xmlns="http://www.w3.org/2000/svg" viewBox="0 0 100 100"><path stroke="#000000" stroke-width="0" stroke-linejoin="round" stroke-linecap="round" fill="#000000" d="M 67 61 C 67 63 69 65 71 65 C 73 65 75 63 75 61 C 75 59 73 57 71 57 C 69 57 67 59 67 61 Z M 46 39 C 46 41 48 43 50 43 C 52 43 54 41 54 39 C 54 37 52 35 50 35 C 48 35 46 37 46 39 Z M 25 61 C 25 63 27 65 29 65 C 31 65 33 63 33 61 C 33 59 31 57 29 57 C 27 57 25 59 25 61 Z M 31 47 C 31 49 33 51 35 51 C 37 51 39 49 39 47 C 39 45 37 43 35 43 C 33 43 31 45 31 47 Z M 61 47 C 61 49 63 51 65 51 C 67 51 69 49 69 47 C 69 45 67 43 65 43 C 63 43 61 45 61 47 Z M 41 53 C 46 64 48 65 50 65 C 52 65 54 63 54 61 C 54 59 53 57 42 52 C 40 51 40 51 41 53 Z M 79 68 C 78 70 75 70 70 70 C 60 70 40 70 30 70 C 25 70 22 70 21 68 C 20 66 20 62 20 60 C 20 43 33 30 50 30 C 67 30 80 43 80 60 C 80 62 80 66 79 68 Z"></path></svg>