<svg version="1.1" xmlns="http://www.w3.org/2000/svg" viewBox="0 0 100 100"><path stroke="#000000" stroke-width="0" stroke-linejoin="round" stroke-linecap="round" fill="#000000" d="M 50 57 C 54 57 57 54 57 50 C 57 46 54 43 50 43 C 46 43 43 46 43 50 C 43 54 46 57 50 57 Z M 32 57 C 36 57 39 54 39 50 C 39 46 36 43 32 43 C 28 43 25 46 25 50 C 25 54 28 57 32 57 Z M 69 57 C 73 57 76 54 76 50 C 76 46 73 43 69 43 C 65 43 62 46 62 50 C 62 54 65 57 69 57 Z M 20 59 C 20 55 20 45 20 41 C 20 38 23 35 26 35 C 42 35 58 35 74 35 C 77 35 80 38 80 41 C 80 45 80 55 80 59 C 80 62 77 65 74 65 C 58 65 42 65 26 65 C 23 65 20 62 20 59 Z"></path></svg>