<svg version="1.1" xmlns="http://www.w3.org/2000/svg" viewBox="0 0 100 100"><path stroke="#000000" stroke-width="0" stroke-linejoin="round" stroke-linecap="round" fill="#000000" d="M 49 55 C 48 55 45 52 45 51 C 42 52 42 52 39 53 C 36 54 33 55 30 55 C 22 55 20 53 20 50 C 20 47 22 45 30 45 C 33 45 36 46 39 47 C 42 48 42 48 45 49 C 45 48 48 45 49 45 C 48 42 48 42 47 39 C 46 36 45 33 45 30 C 45 22 47 20 50 20 C 53 20 55 22 55 30 C 55 33 54 36 53 39 C 52 42 52 42 51 45 C 52 45 55 48 55 49 C 58 48 58 48 61 47 C 64 46 67 45 70 45 C 78 45 80 47 80 50 C 80 53 78 55 70 55 C 67 55 64 54 61 53 C 58 52 58 52 55 51 C 55 52 52 55 51 55 C 52 58 52 58 53 61 C 54 64 55 67 55 70 C 55 78 53 80 50 80 C 47 80 45 78 45 70 C 45 67 46 64 47 61 C 48 58 48 58 49 55 Z"></path></svg>