<svg version="1.1" xmlns="http://www.w3.org/2000/svg" viewBox="0 0 100 100"><path stroke="#000000" stroke-width="0" stroke-linejoin="round" stroke-linecap="round" fill="#000000" d="M 41 23 C 35 23 31 23 25 23 C 23 23 23 23 23 25 C 23 31 23 35 23 41 C 23 43 23 43 25 43 C 31 43 35 43 41 43 C 43 43 43 43 43 41 C 43 35 43 31 43 25 C 43 23 43 23 41 23 Z M 37 39 C 34 39 32 39 29 39 C 27 39 27 39 27 37 C 27 34 27 32 27 29 C 27 27 27 27 29 27 C 32 27 34 27 37 27 C 39 27 39 27 39 29 C 39 32 39 34 39 37 C 39 39 39 39 37 39 Z M 44 20 C 45 20 46 21 46 22 C 46 29 46 37 46 44 C 46 45 45 46 44 46 C 37 46 29 46 22 46 C 21 46 20 45 20 44 C 20 37 20 29 20 22 C 20 21 21 20 22 20 C 29 20 37 20 44 20 Z M 75 23 C 69 23 65 23 59 23 C 57 23 57 23 57 25 C 57 31 57 35 57 41 C 57 43 57 43 59 43 C 65 43 69 43 75 43 C 77 43 77 43 77 41 C 77 35 77 31 77 25 C 77 23 77 23 75 23 Z M 71 39 C 68 39 66 39 63 39 C 61 39 61 39 61 37 C 61 34 61 32 61 29 C 61 27 61 27 63 27 C 66 27 68 27 71 27 C 73 27 73 27 73 29 C 73 32 73 34 73 37 C 73 39 73 39 71 39 Z M 78 20 C 79 20 80 21 80 22 C 80 29 80 37 80 44 C 80 45 79 46 78 46 C 71 46 63 46 56 46 C 55 46 54 45 54 44 C 54 37 54 29 54 22 C 54 21 55 20 56 20 C 63 20 71 20 78 20 Z M 41 57 C 35 57 31 57 25 57 C 23 57 23 57 23 59 C 23 65 23 69 23 75 C 23 77 23 77 25 77 C 31 77 35 77 41 77 C 43 77 43 77 43 75 C 43 69 43 65 43 59 C 43 57 43 57 41 57 Z M 37 73 C 34 73 32 73 29 73 C 27 73 27 73 27 71 C 27 68 27 66 27 63 C 27 61 27 61 29 61 C 32 61 34 61 37 61 C 39 61 39 61 39 63 C 39 66 39 68 39 71 C 39 73 39 73 37 73 Z M 44 54 C 45 54 46 55 46 56 C 46 63 46 71 46 78 C 46 79 45 80 44 80 C 37 80 29 80 22 80 C 21 80 20 79 20 78 C 20 71 20 63 20 56 C 20 55 21 54 22 54 C 29 54 37 54 44 54 Z M 66 56 C 68 56 68 56 68 58 C 68 61 68 63 68 66 C 68 68 68 68 66 68 C 63 68 61 68 58 68 C 56 68 56 68 56 66 C 56 63 56 61 56 58 C 56 56 56 56 58 56 C 61 56 63 56 66 56 Z"></path></svg>