<svg version="1.1" xmlns="http://www.w3.org/2000/svg" viewBox="0 0 100 100"><path stroke="#000000" stroke-width="0" stroke-linejoin="round" stroke-linecap="round" fill="#000000" d="M 68 40 C 67 39 67 38 68 37 C 72 33 73 32 77 28 C 78 27 79 27 80 28 C 81 29 81 30 80 31 C 76 35 75 36 71 40 C 70 41 69 41 68 40 Z M 80 72 C 79 73 78 73 77 72 C 73 68 72 67 68 63 C 67 62 67 61 68 60 C 69 59 70 59 71 60 C 75 64 76 65 80 69 C 81 70 81 71 80 72 Z M 70 50 C 70 49 71 48 72 48 C 76 48 79 48 83 48 C 84 48 85 49 85 50 C 85 51 84 52 83 52 C 79 52 76 52 72 52 C 71 52 70 51 70 50 Z M 45 55 C 40 55 30 55 22 55 C 19 55 19 45 22 45 C 30 45 40 45 45 45 C 50 45 50 45 55 40 C 60 35 65 35 65 38 C 65 45 65 55 65 62 C 65 65 60 65 55 60 C 50 55 50 55 45 55 Z"></path></svg>