<svg version="1.1" xmlns="http://www.w3.org/2000/svg" viewBox="0 0 100 100"><path stroke="#000000" stroke-width="0" stroke-linejoin="round" stroke-linecap="round" fill="#000000" d="M 36 70 C 36 70 34 75 34 75 C 32 80 32 80 31 75 C 30 70 30 60 30 40 C 30 29 39 20 50 20 C 61 20 70 29 70 40 C 70 60 70 70 69 75 C 68 80 68 80 66 75 C 66 75 64 70 64 70 C 62 65 62 65 60 70 C 60 70 58 75 58 75 C 56 80 56 80 54 75 C 54 75 52 70 52 70 C 50 65 50 65 48 70 C 48 70 48 70 46 75 C 44 80 44 80 42 75 C 42 75 40 70 40 70 C 38 65 38 65 36 70 Z"></path></svg>