<svg version="1.1" xmlns="http://www.w3.org/2000/svg" viewBox="0 0 100 100"><path stroke="#111111" stroke-width="0" stroke-linejoin="round" stroke-linecap="round" fill="#000000" d="M 24 30 C 28 30 32 30 36 30 C 38 30 40 32 40 34 C 40 38 40 42 40 46 C 40 48 38 50 36 50 C 32 50 28 50 24 50 C 22 50 20 48 20 46 C 20 42 20 38 20 34 C 20 32 22 30 24 30 Z M 44 30 C 48 30 52 30 56 30 C 58 30 60 32 60 34 C 60 38 60 42 60 46 C 60 48 58 50 56 50 C 52 50 48 50 44 50 C 42 50 40 48 40 46 C 40 42 40 38 40 34 C 40 32 42 30 44 30 Z M 64 30 C 68 30 72 30 76 30 C 78 30 80 32 80 34 C 80 38 80 42 80 46 C 80 48 78 50 76 50 C 72 50 68 50 64 50 C 62 50 60 48 60 46 C 60 42 60 38 60 34 C 60 32 62 30 64 30 Z M 44 50 C 48 50 52 50 56 50 C 58 50 60 52 60 54 C 60 58 60 62 60 66 C 60 68 58 70 56 70 C 52 70 48 70 44 70 C 42 70 40 68 40 66 C 40 62 40 58 40 54 C 40 52 42 50 44 50 Z"></path></svg>