<svg version="1.1" xmlns="http://www.w3.org/2000/svg" viewBox="0 0 100 100"><path stroke="#000000" stroke-width="0" stroke-linejoin="round" stroke-linecap="round" fill="#000000" d="M 65 49 C 67 49 70 46 72 46 C 71 41 67 34 59 21 C 45 23 35 35 35 49 C 40 49 60 49 65 49 Z M 72 54 C 70 54 67 51 65 51 C 60 51 40 51 35 51 C 35 67 45 77 59 79 C 67 66 71 59 72 54 Z M 31 49 C 32 32 44 20 59 20 C 67 32 72 40 73 46 C 78 46 80 49 78 48 C 75 48 72 52 73 46 C 74 49 74 51 73 54 C 72 48 75 52 78 52 C 80 51 78 54 73 54 C 72 60 67 68 59 80 C 44 80 32 68 31 51 C 30 51 30 51 29 51 C 29 53 30 55 28 54 C 26 53 24 52 22 51 C 20 50 20 50 22 49 C 24 48 26 47 28 46 C 30 45 29 47 29 49 C 30 49 30 49 31 49 Z"></path></svg>