<svg version="1.1" xmlns="http://www.w3.org/2000/svg" viewBox="0 0 100 100"><path stroke="#000000" stroke-width="0" stroke-linejoin="round" stroke-linecap="round" fill="#000000" d="M 23 80 C 21 80 20 79 20 77 C 20 58 20 48 20 28 C 20 26 21 25 23 25 C 24 25 26 25 27 25 C 29 25 30 26 30 28 C 30 48 30 58 30 77 C 30 79 29 80 27 80 C 26 80 24 80 23 80 Z M 33 80 C 31 80 30 79 30 77 C 30 55 30 45 30 23 C 30 21 31 20 33 20 C 34 20 36 20 37 20 C 39 20 40 21 40 23 C 40 45 40 55 40 77 C 40 79 39 80 37 80 C 36 80 34 80 33 80 Z M 43 80 C 41 80 40 79 40 77 C 40 60 40 50 40 33 C 40 31 41 30 43 30 C 44 30 46 30 47 30 C 49 30 50 31 50 33 C 50 50 50 60 50 77 C 50 79 49 80 47 80 C 46 80 44 80 43 80 Z M 53 80 C 51 80 50 79 50 77 C 50 58 50 48 50 28 C 50 26 51 25 53 25 C 54 25 56 25 57 25 C 59 25 60 26 60 28 C 60 48 60 58 60 77 C 60 79 59 80 57 80 C 56 80 54 80 53 80 Z M 63 80 C 61 80 60 79 60 77 C 60 60 60 50 60 33 C 60 31 61 30 63 30 C 64 30 66 30 67 30 C 69 30 70 31 70 33 C 70 50 70 60 70 77 C 70 79 69 80 67 80 C 66 80 64 80 63 80 Z M 73 80 C 71 80 70 79 70 77 C 70 55 70 45 70 23 C 70 21 71 20 73 20 C 74 20 76 20 77 20 C 79 20 80 21 80 23 C 80 45 80 55 80 77 C 80 79 79 80 77 80 C 76 80 74 80 73 80 Z"></path></svg>