<svg version="1.1" xmlns="http://www.w3.org/2000/svg" viewBox="0 0 100 100"><path stroke="#000000" stroke-width="0" stroke-linejoin="round" stroke-linecap="round" fill="#000000" d="M 42 56 C 44 58 45 59 47 59 C 49 59 50 59 48 57 C 46 55 45 54 43 54 C 41 54 41 55 42 56 Z M 37 59 C 36 60 36 60 35 61 C 32 64 29 67 33 71 C 37 75 40 72 44 68 C 46 66 47 65 48 64 C 44 64 42 64 39 61 C 38 60 38 60 37 59 Z M 61 39 C 62 40 62 40 63 41 C 64 40 64 40 65 39 C 68 36 71 33 67 29 C 63 25 60 28 56 32 C 54 34 53 35 52 36 C 57 35 59 37 61 39 Z M 51 53 C 52 54 52 54 53 55 C 54 54 54 54 55 53 C 56 52 57 51 58 50 C 54 50 52 50 49 47 C 48 46 48 46 47 45 C 46 46 46 46 45 47 C 44 48 43 49 42 50 C 47 49 49 51 51 53 Z M 52 42 C 54 44 55 45 57 45 C 59 45 60 45 58 43 C 56 41 55 40 53 40 C 51 40 51 41 52 42 Z M 36 54 C 36 51 39 47 43 43 C 44 42 45 41 46 40 C 46 37 49 33 53 29 C 60 22 65 19 71 25 C 77 31 74 36 67 43 C 66 44 65 45 64 46 C 64 49 61 53 57 57 C 56 58 55 59 54 60 C 54 63 51 67 47 71 C 40 78 35 81 29 75 C 23 69 26 64 33 57 C 34 56 35 55 36 54 Z"></path></svg>