<svg version="1.1" xmlns="http://www.w3.org/2000/svg" viewBox="0 0 100 100"><path stroke="#000000" stroke-width="0" stroke-linejoin="round" stroke-linecap="round" fill="#000000" d="M 45 50 C 45 47 47 45 50 45 C 53 45 55 47 55 50 C 55 53 53 55 50 55 C 47 55 45 53 45 50 Z M 53 36 C 53 40 47 40 47 36 C 47 33 47 31 47 28 C 47 24 53 24 53 28 C 53 31 53 33 53 36 Z M 68 68 C 67 69 65 69 64 68 C 63 67 59 63 58 62 C 57 61 57 59 58 58 C 59 57 61 57 62 58 C 63 59 67 63 68 64 C 69 65 69 67 68 68 Z M 42 58 C 43 59 43 61 42 62 C 41 63 37 67 36 68 C 35 69 33 69 32 68 C 31 67 31 65 32 64 C 33 63 37 59 38 58 C 39 57 41 57 42 58 Z M 68 32 C 69 33 69 35 68 36 C 67 37 63 41 62 42 C 61 43 59 43 58 42 C 57 41 57 39 58 38 C 59 37 63 33 64 32 C 65 31 67 31 68 32 Z M 42 42 C 41 43 39 43 38 42 C 37 41 33 37 32 36 C 31 35 31 33 32 32 C 33 31 35 31 36 32 C 37 33 41 37 42 38 C 43 39 43 41 42 42 Z M 64 53 C 60 53 60 47 64 47 C 67 47 69 47 72 47 C 76 47 76 53 72 53 C 69 53 67 53 64 53 Z M 53 72 C 53 76 47 76 47 72 C 47 69 47 67 47 64 C 47 60 53 60 53 64 C 53 67 53 69 53 72 Z M 36 47 C 40 47 40 53 36 53 C 33 53 31 53 28 53 C 24 53 24 47 28 47 C 31 47 33 47 36 47 Z"></path></svg>