<svg version="1.1" xmlns="http://www.w3.org/2000/svg" viewBox="0 0 100 100"><path stroke="#000000" stroke-width="0" stroke-linejoin="round" stroke-linecap="round" fill="#000000" d="M 21 20 C 22 20 23 21 23 22 C 23 40 23 60 23 78 C 23 79 22 80 21 80 C 20 80 18 80 17 80 C 16 80 15 79 15 78 C 15 60 15 40 15 22 C 15 21 16 20 17 20 C 18 20 20 20 21 20 Z M 28 20 C 29 20 30 21 30 22 C 30 40 30 60 30 78 C 30 79 29 80 28 80 C 27 80 26 79 26 78 C 26 60 26 40 26 22 C 26 21 27 20 28 20 Z M 40 20 C 41 20 42 21 42 22 C 42 40 42 60 42 78 C 42 79 41 80 40 80 C 39 80 38 79 38 78 C 38 60 38 40 38 22 C 38 21 39 20 40 20 Z M 47 20 C 48 20 49 21 49 22 C 49 40 49 60 49 78 C 49 79 48 80 47 80 C 46 80 45 79 45 78 C 45 60 45 40 45 22 C 45 21 46 20 47 20 Z M 56 20 C 57 20 58 21 58 22 C 58 40 58 60 58 78 C 58 79 57 80 56 80 C 55 80 55 80 54 80 C 53 80 52 79 52 78 C 52 60 52 40 52 22 C 52 21 53 20 54 20 C 55 20 55 20 56 20 Z M 69 20 C 70 20 71 21 71 22 C 71 40 71 60 71 78 C 71 79 70 80 69 80 C 68 80 68 80 67 80 C 66 80 65 79 65 78 C 65 60 65 40 65 22 C 65 21 66 20 67 20 C 68 20 68 20 69 20 Z M 76 20 C 77 20 78 21 78 22 C 78 40 78 60 78 78 C 78 79 77 80 76 80 C 75 80 74 79 74 78 C 74 60 74 40 74 22 C 74 21 75 20 76 20 Z M 83 20 C 84 20 85 21 85 22 C 85 40 85 60 85 78 C 85 79 84 80 83 80 C 82 80 81 79 81 78 C 81 60 81 40 81 22 C 81 21 82 20 83 20 Z"></path></svg>