<svg version="1.1" xmlns="http://www.w3.org/2000/svg" viewBox="0 0 100 100"><path stroke="#000000" stroke-width="0" stroke-linejoin="round" stroke-linecap="round" fill="#000000" d="M 60 50 C 63 50 67 50 70 50 C 70 52 70 53 70 55 C 70 56 70 57 70 58 C 70 69 61 78 50 78 C 39 78 30 69 30 58 C 30 57 30 56 30 55 C 30 53 30 52 30 50 C 33 50 37 50 40 50 C 40 52 40 53 40 55 C 40 56 40 57 40 58 C 40 64 44 68 50 68 C 56 68 60 64 60 58 C 60 57 60 56 60 55 C 60 53 60 52 60 50 Z M 60 48 C 60 46 60 45 60 43 C 60 38 60 38 65 38 C 70 38 70 38 70 43 C 70 45 70 46 70 48 C 67 48 63 48 60 48 Z M 30 48 C 30 46 30 45 30 43 C 30 38 30 38 35 38 C 40 38 40 38 40 43 C 40 44 40 46 40 48 C 37 48 33 48 30 48 Z M 30 33 C 30 30 32 28 35 28 C 38 28 40 30 40 33 C 40 34 38 34 38 33 C 38 32 37 30 35 30 C 33 30 32 32 32 33 C 32 34 30 34 30 33 Z M 60 33 C 60 30 62 28 65 28 C 68 28 70 30 70 33 C 70 34 68 34 68 33 C 68 32 67 30 65 30 C 63 30 62 32 62 33 C 62 34 60 34 60 33 Z M 25 31 C 25 27 29 22 35 22 C 41 22 45 27 45 31 C 45 33 42 33 42 31 C 42 28 39 25 35 25 C 31 25 28 28 28 31 C 28 33 25 33 25 31 Z M 55 31 C 55 27 59 22 65 22 C 71 22 75 27 75 31 C 75 33 72 33 72 31 C 72 28 69 25 65 25 C 61 25 58 28 58 31 C 58 33 55 33 55 31 Z"></path></svg>