<svg version="1.1" xmlns="http://www.w3.org/2000/svg" viewBox="0 0 100 100"><path stroke="#000000" stroke-width="0" stroke-linejoin="round" stroke-linecap="round" fill="#000000" d="M 38 51 C 38 58 43 63 50 63 C 57 63 62 58 62 51 C 62 44 57 39 50 39 C 43 39 38 44 38 51 Z M 41 51 C 41 46 45 42 50 42 C 55 42 59 46 59 51 C 59 56 55 60 50 60 C 45 60 41 56 41 51 Z M 38 31 C 39 31 40 30 40 29 C 40 27 41 26 43 26 C 46 26 54 26 57 26 C 59 26 60 27 60 29 C 60 30 61 31 62 31 C 65 31 69 31 74 31 C 77 31 80 34 80 37 C 80 46 80 56 80 65 C 80 68 77 70 74 70 C 58 70 42 70 26 70 C 23 70 20 68 20 65 C 20 56 20 46 20 37 C 20 34 23 31 26 31 C 31 31 35 31 38 31 Z"></path></svg>