<svg version="1.1" xmlns="http://www.w3.org/2000/svg" viewBox="0 0 100 100"><path stroke="#000000" stroke-width="0" stroke-linejoin="round" stroke-linecap="round" fill="#000000" d="M 39 50 C 39 52.333 37.333 54 35 54 C 32.667 54 31 52.333 31 50 C 31 47.667 32.667 46 35 46 C 37.333 46 39 47.667 39 50 Z M 43 61 C 43 63.333 41.333 65 39 65 C 36.667 65 35 63.333 35 61 C 35 58.667 36.667 57 39 57 C 41.333 57 43 58.667 43 61 Z M 54 65 C 54 67.333 52.333 69 50 69 C 47.667 69 46 67.333 46 65 C 46 62.667 47.667 61 50 61 C 52.333 61 54 62.667 54 65 Z M 65 61 C 65 63.333 63.333 65 61 65 C 58.667 65 57 63.333 57 61 C 57 58.667 58.667 57 61 57 C 63.333 57 65 58.667 65 61 Z M 69 50 C 69 52.333 67.333 54 65 54 C 62.667 54 61 52.333 61 50 C 61 47.667 62.667 46 65 46 C 67.333 46 69 47.667 69 50 Z M 80 50 C 80 66 66 80 50 80 C 34 80 20 66 20 50 C 20 34 34 20 50 20 C 66 20 80 34 80 50 Z M 56 26 C 56 27 56 29 56 30 C 56 31.097 55.097 32 54 32 C 51.333 32 48.667 32 46 32 C 44.903 32 44 31.097 44 30 C 44 29 44 27 44 26 C 33 28 25 38 25 50 C 25 64 36 75 50 75 C 64 75 75 64 75 50 C 75 38 67 28 56 26 Z"></path></svg>