<svg version="1.1" xmlns="http://www.w3.org/2000/svg" viewBox="0 0 100 100"><path stroke="#000000" stroke-width="0" stroke-linejoin="round" stroke-linecap="round" fill="#000000" d="M 42 47 C 45 47 48 50 48 53 C 48 57 48 70 48 74 C 48 77 45 80 42 80 C 38 80 30 80 26 80 C 23 80 20 77 20 74 C 20 70 20 57 20 53 C 20 50 23 47 26 47 C 30 47 38 47 42 47 Z M 42 20 C 45 20 48 23 48 26 C 48 30 48 33 48 37 C 48 40 45 43 42 43 C 38 43 30 43 26 43 C 23 43 20 40 20 37 C 20 33 20 30 20 26 C 20 23 23 20 26 20 C 30 20 38 20 42 20 Z M 74 57 C 77 57 80 60 80 63 C 80 67 80 70 80 74 C 80 77 77 80 74 80 C 70 80 62 80 58 80 C 55 80 52 77 52 74 C 52 70 52 67 52 63 C 52 60 55 57 58 57 C 62 57 70 57 74 57 Z M 74 20 C 77 20 80 23 80 26 C 80 30 80 43 80 47 C 80 50 77 53 74 53 C 70 53 62 53 58 53 C 55 53 52 50 52 47 C 52 43 52 30 52 26 C 52 23 55 20 58 20 C 62 20 70 20 74 20 Z"></path></svg>