<svg version="1.1" xmlns="http://www.w3.org/2000/svg" viewBox="0 0 100 100"><path stroke="#000000" stroke-width="0" stroke-linejoin="round" stroke-linecap="round" fill="#000000" d="M 47 63 C 46 64 43 66 43 70 C 43 74 46 77 50 77 C 53 77 57 74 57 70 C 57 66 54 64 53 63 C 52 62 52 62 52 59 C 52 50 52 35 52 25 C 52 24 51 23 50 23 C 49 23 48 24 48 25 C 48 35 48 50 48 59 C 48 62 48 62 47 63 Z M 45 61 C 45 50 45 35 45 25 C 45 22 47 20 50 20 C 53 20 55 22 55 25 C 55 35 55 50 55 61 C 58 63 60 66 60 70 C 60 76 56 80 50 80 C 44 80 40 76 40 70 C 40 66 42 63 45 61 Z"></path></svg>