<svg version="1.1" xmlns="http://www.w3.org/2000/svg" viewBox="0 0 100 100"><path stroke="#000000" stroke-width="0" stroke-linejoin="round" stroke-linecap="round" fill="#000000" d="M 55 38 C 56 39 57 40 58 40 C 64 40 68 40 74 40 C 75 40 75 40 75 39 C 75 38 75 38 75 37 C 75 36 74 35 73 35 C 68 35 60 35 52 35 C 53 36 54 37 55 38 Z M 47 30 C 58 30 67 30 75 30 C 77 30 80 33 80 35 C 80 40 80 60 80 69 C 80 72 77 75 74 75 C 58 75 42 75 26 75 C 23 75 20 72 20 69 C 20 60 20 40 20 29 C 20 27 22 25 24 25 C 27 25 35 25 40 25 C 42 25 44 27 47 30 Z"></path></svg>