<svg version="1.1" xmlns="http://www.w3.org/2000/svg" viewBox="0 0 100 100"><path stroke="#111111" stroke-width="0" stroke-linejoin="round" stroke-linecap="round" fill="#000000" d="M 44 10 C 48 10 52 10 56 10 C 58 10 60 12 60 14 C 60 18 60 22 60 26 C 60 28 58 30 56 30 C 52 30 48 30 44 30 C 42 30 40 28 40 26 C 40 22 40 18 40 14 C 40 12 42 10 44 10 Z M 44 30 C 48 30 52 30 56 30 C 58 30 60 32 60 34 C 60 38 60 42 60 46 C 60 48 58 50 56 50 C 52 50 48 50 44 50 C 42 50 40 48 40 46 C 40 42 40 38 40 34 C 40 32 42 30 44 30 Z M 44 50 C 48 50 52 50 56 50 C 58 50 60 52 60 54 C 60 58 60 62 60 66 C 60 68 58 70 56 70 C 52 70 48 70 44 70 C 42 70 40 68 40 66 C 40 62 40 58 40 54 C 40 52 42 50 44 50 Z M 44 70 C 48 70 52 70 56 70 C 58 70 60 72 60 74 C 60 78 60 82 60 86 C 60 88 58 90 56 90 C 52 90 48 90 44 90 C 42 90 40 88 40 86 C 40 82 40 78 40 74 C 40 72 42 70 44 70 Z"></path></svg>