<svg version="1.1" xmlns="http://www.w3.org/2000/svg" viewBox="0 0 100 100"><path stroke="#000000" stroke-width="0" stroke-linejoin="round" stroke-linecap="round" fill="#000000" d="M 54 30 C 53 30 52 31 52 32 C 52 42 52 58 52 68 C 52 69 53 70 54 70 C 59 70 69 70 73 70 C 74 70 75 69 75 68 C 75 58 75 42 75 32 C 75 31 74 30 73 30 C 69 30 59 30 54 30 Z M 73 36 C 73 37 72 38 71 38 C 65 38 62 38 56 38 C 55 38 54 37 54 36 C 54 35 55 34 56 34 C 62 34 65 34 71 34 C 72 34 73 35 73 36 Z M 73 43 C 73 44 72 45 71 45 C 65 45 62 45 56 45 C 55 45 54 44 54 43 C 54 42 55 41 56 41 C 62 41 65 41 71 41 C 72 41 73 42 73 43 Z M 73 50 C 73 51 72 52 71 52 C 65 52 62 52 56 52 C 55 52 54 51 54 50 C 54 49 55 48 56 48 C 62 48 65 48 71 48 C 72 48 73 49 73 50 Z M 73 57 C 73 58 72 59 71 59 C 65 59 62 59 56 59 C 55 59 54 58 54 57 C 54 56 55 55 56 55 C 62 55 65 55 71 55 C 72 55 73 56 73 57 Z M 73 64 C 73 65 72 66 71 66 C 65 66 62 66 56 66 C 55 66 54 65 54 64 C 54 63 55 62 56 62 C 62 62 65 62 71 62 C 72 62 73 63 73 64 Z M 27 30 C 26 30 25 31 25 32 C 25 42 25 58 25 68 C 25 69 26 70 27 70 C 31 70 41 70 46 70 C 47 70 48 69 48 68 C 48 58 48 42 48 32 C 48 31 47 30 46 30 C 41 30 31 30 27 30 Z M 46 36 C 46 37 45 38 44 38 C 38 38 35 38 29 38 C 28 38 27 37 27 36 C 27 35 28 34 29 34 C 35 34 38 34 44 34 C 45 34 46 35 46 36 Z M 46 43 C 46 44 45 45 44 45 C 38 45 35 45 29 45 C 28 45 27 44 27 43 C 27 42 28 41 29 41 C 35 41 38 41 44 41 C 45 41 46 42 46 43 Z M 46 50 C 46 51 45 52 44 52 C 38 52 35 52 29 52 C 28 52 27 51 27 50 C 27 49 28 48 29 48 C 35 48 38 48 44 48 C 45 48 46 49 46 50 Z M 46 57 C 46 58 45 59 44 59 C 38 59 35 59 29 59 C 28 59 27 58 27 57 C 27 56 28 55 29 55 C 35 55 38 55 44 55 C 45 55 46 56 46 57 Z M 46 64 C 46 65 45 66 44 66 C 38 66 35 66 29 66 C 28 66 27 65 27 64 C 27 63 28 62 29 62 C 35 62 38 62 44 62 C 45 62 46 63 46 64 Z M 50 27 C 51 26 52 25 54 25 C 59 25 69 25 74 25 C 77 25 80 28 80 31 C 80 42 80 58 80 69 C 80 72 77 75 74 75 C 69 75 59 75 54 75 C 52 75 51 74 50 73 C 49 74 48 75 46 75 C 41 75 31 75 26 75 C 23 75 20 72 20 69 C 20 58 20 42 20 31 C 20 28 23 25 26 25 C 31 25 41 25 46 25 C 48 25 49 26 50 27 Z"></path></svg>