<svg version="1.1" xmlns="http://www.w3.org/2000/svg" viewBox="0 0 100 100"><path stroke="#000000" stroke-width="0" stroke-linejoin="round" stroke-linecap="round" fill="#000000" d="M 40 59 C 42 59 45 59 47 59 C 45 55 43 51 40 46 C 38 49 38 49 36 51.5 C 38 53 40 56 40 59 Z M 62 45 C 52 45 48 45 42 45 C 45 50 47 54 49 58 C 53 54 58 49 62 45 Z M 68 50 C 67 47 66 44 64 46 C 58 52 55 55 50 60 C 49 61 48 61 46 61 C 44 61 42 61 40 61 C 40 66 36 70 30 70 C 24 70 20 66 20 60 C 20 54 24 50 29 50 C 32 50 32 50 34 50.5 C 36 48 36 48 38 45 C 39 43 39 41 38 41 C 36 41 35 40 35 39 C 35 38 36 37 38 37 C 39 37 41 37 42 37 C 44 37 45 38 45 39 C 45 40 44 41 42 41 C 41 41 41 43 42 43 C 48 43 54 43 60 43 C 62 43 63 43 64 42 C 65 41 64 38 63 35 C 62 33 59 33 57 33 C 55 33 55 30 57 30 C 60 30 64 30 65 34 C 67 41 67 41 68 44 C 69 47 69 47 70 50 C 76 50 80 54 80 60 C 80 66 76 70 70 70 C 64 70 60 66 60 60 C 60 54 63 51 68 50 Z"></path></svg>