<svg version="1.1" xmlns="http://www.w3.org/2000/svg" viewBox="0 0 100 100"><path stroke="#000000" stroke-width="0" stroke-linejoin="round" stroke-linecap="round" fill="#000000" d="M 68 64 C 69 65 69.5 65.5 71 64 C 73 61 75 56 75 50 C 75 37 63 25 50 25 C 44 25 39 27 36 29 C 34.5 30.5 35 31 36 32 C 47 43 57 53 68 64 Z M 32 36 C 31 35 30.5 34.5 29 36 C 27 39 25 44 25 50 C 25 63 37 75 50 75 C 55 75 61 73 64 71 C 65.5 69.5 65 69 64 68 C 53 57 43 47 32 36 Z M 20 50 C 20 33 33 20 50 20 C 67 20 80 33 80 50 C 80 67 67 80 50 80 C 33 80 20 67 20 50 Z"></path></svg>