<svg version="1.1" xmlns="http://www.w3.org/2000/svg" viewBox="0 0 100 100"><path stroke="#000000" stroke-width="0" stroke-linejoin="round" stroke-linecap="round" fill="#000000" d="M 45 40 C 48 40 51 40 54 40 C 57 40 60 43 60 46 C 60 49 60 52 60 55 C 65 55 70 55 73 55 C 74 55 75 54 75 53 C 75 45 75 35 75 27 C 75 26 74 25 73 25 C 65 25 55 25 47 25 C 46 25 45 26 45 27 C 45 30 45 35 45 40 C 45 40 45 40 45 40 Z M 27 45 C 26 45 25 46 25 47 C 25 55 25 65 25 73 C 25 74 26 75 27 75 C 35 75 45 75 53 75 C 54 75 55 74 55 73 C 55 65 55 55 55 47 C 55 46 54 45 53 45 C 45 45 35 45 27 45 Z M 60 60 C 60 65 60 70 60 74 C 60 77 57 80 54 80 C 45 80 35 80 26 80 C 23 80 20 77 20 74 C 20 65 20 55 20 46 C 20 43 23 40 26 40 C 30 40 35 40 40 40 C 40 35 40 30 40 26 C 40 23 43 20 46 20 C 55 20 65 20 74 20 C 77 20 80 23 80 26 C 80 35 80 45 80 54 C 80 57 77 60 74 60 C 70 60 65 60 60 60 C 60 60 60 60 60 60 Z"></path></svg>