<svg version="1.1" xmlns="http://www.w3.org/2000/svg" viewBox="0 0 100 100"><path stroke="#000000" stroke-width="0" stroke-linejoin="round" stroke-linecap="round" fill="#000000" d="M 43 50 C 43 54 46 57 50 57 C 54 57 57 54 57 50 C 57 46 54 43 50 43 C 46 43 43 46 43 50 Z M 43 32 C 43 36 46 39 50 39 C 54 39 57 36 57 32 C 57 28 54 25 50 25 C 46 25 43 28 43 32 Z M 43 69 C 43 73 46 76 50 76 C 54 76 57 73 57 69 C 57 65 54 62 50 62 C 46 62 43 65 43 69 Z M 41 20 C 45 20 55 20 59 20 C 62 20 65 23 65 26 C 65 42 65 58 65 74 C 65 77 62 80 59 80 C 55 80 45 80 41 80 C 38 80 35 77 35 74 C 35 58 35 42 35 26 C 35 23 38 20 41 20 Z"></path></svg>