<svg version="1.1" xmlns="http://www.w3.org/2000/svg" viewBox="0 0 100 100"><path stroke="#000000" stroke-width="0" stroke-linejoin="round" stroke-linecap="round" fill="#000000" d="M 37 25 C 36 25 35 26 35 27 C 35 42 35 58 35 73 C 35 74 36 75 37 75 C 45 75 55 75 63 75 C 64 75 65 74 65 73 C 65 58 65 40 65 36 C 65 35 65 35 64 35 C 63 35 61 35 59 35 C 57 35 55 33 55 31 C 55 29 55 28 55 27 C 52 27 45 27 42 27 C 41 27 40 26 40 25 C 39 25 38 25 37 25 Z M 60 65 C 60 66 59 67 58 67 C 52 67 48 67 42 67 C 41 67 40 66 40 65 C 40 64 41 63 42 63 C 48 63 52 63 58 63 C 59 63 60 64 60 65 Z M 40 19 C 37 19 34 19 31 19 C 30 19 29 20 29 21 C 29 42 29 58 29 79 C 29 80 30 81 31 81 C 45 81 55 81 69 81 C 70 81 71 80 71 79 C 71 58 71 42 71 21 C 71 20 70 19 69 19 C 65 19 62 19 60 19 C 60 20 60 20 60 21 C 63 22 70 29 70 32 C 70 42 70 58 70 74 C 70 77 67 80 64 80 C 55 80 45 80 36 80 C 33 80 30 77 30 74 C 30 58 30 42 30 26 C 30 23 33 20 36 20 C 37 20 39 20 40 20 C 40 20 40 20 40 19 Z M 61 30 C 63 30 64 30 65 30 C 65 30 60 25 60 25 C 60 26 60 27 60 29 C 60 30 60 30 61 30 Z M 40 14 C 40 13 40 13 40 12 C 40 11 41 10 42 10 C 45 10 55 10 58 10 C 59 10 60 11 60 12 C 60 13 60 13 60 14 C 63 14 66 14 70 14 C 73 14 76 17 76 20 C 76 42 76 58 76 80 C 76 83 73 86 70 86 C 55 86 45 86 30 86 C 27 86 24 83 24 80 C 24 58 24 42 24 20 C 24 17 27 14 30 14 C 34 14 37 14 40 14 Z M 60 55 C 60 56 59 57 58 57 C 52 57 48 57 42 57 C 41 57 40 56 40 55 C 40 54 41 53 42 53 C 48 53 52 53 58 53 C 59 53 60 54 60 55 Z M 60 45 C 60 46 59 47 58 47 C 52 47 48 47 42 47 C 41 47 40 46 40 45 C 40 44 41 43 42 43 C 48 43 52 43 58 43 C 59 43 60 44 60 45 Z M 50 35 C 50 36 49 37 48 37 C 46 37 44 37 42 37 C 41 37 40 36 40 35 C 40 34 41 33 42 33 C 44 33 46 33 48 33 C 49 33 50 34 50 35 Z"></path></svg>