<svg version="1.1" xmlns="http://www.w3.org/2000/svg" viewBox="0 0 100 100"><path stroke="#000000" stroke-width="0" stroke-linejoin="round" stroke-linecap="round" fill="#000000" d="M 45 20 C 55 20 63 24 64 24 C 65 24 65 24 65 22 C 65 21 66 20 67 20 C 71 20 75 20 79 20 C 80 20 80 20 80 21 C 80 25 80 55 80 59 C 80 60 80 60 79 60 C 75 60 71 60 67 60 C 66 60 65 59 65 58 C 65 56 65 56 64 56 C 63 56 60 56 58 60 C 56 64 54 68 53 71 C 52 74 51 80 47 80 C 44 80 41 77 41 72 C 41 67 44 64 44 62 C 44 61 42 60 38 60 C 35 60 24 62 24 55 C 24 49 20 51 20 45 C 20 39 24 41 24 35 C 24 29 28 32 28 25 C 28 21 36 20 45 20 Z"></path></svg>