<svg version="1.1" xmlns="http://www.w3.org/2000/svg" viewBox="0 0 100 100"><path stroke="#000000" stroke-width="0" stroke-linejoin="round" stroke-linecap="round" fill="#000000" d="M 45 40 C 42 40 40 42 40 45 C 40 48 40 52 40 55 C 40 58 42 60 45 60 C 48 60 52 60 55 60 C 58 60 60 58 60 55 C 60 52 60 48 60 45 C 60 42 58 40 55 40 C 52 40 48 40 45 40 Z M 80 35 C 80 37 80 38 80 40 C 78 40 77 40 75 40 C 72 40 70 42 70 45 C 70 48 70 52 70 55 C 70 58 72 60 75 60 C 77 60 78 60 80 60 C 80 62 80 63 80 65 C 80 68 78 70 75 70 C 58 70 42 70 25 70 C 22 70 20 68 20 65 C 20 63 20 62 20 60 C 22 60 23 60 25 60 C 28 60 30 58 30 55 C 30 52 30 48 30 45 C 30 42 28 40 25 40 C 23 40 22 40 20 40 C 20 38 20 37 20 35 C 20 32 22 30 25 30 C 42 30 58 30 75 30 C 78 30 80 32 80 35 Z"></path></svg>