<svg version="1.1" xmlns="http://www.w3.org/2000/svg" viewBox="0 0 100 100"><path stroke="#000000" stroke-width="0" stroke-linejoin="round" stroke-linecap="round" fill="#000000" d="M 53 50 C 53 53 53 72 53 77 C 53 80 53 80 50 80 C 47 80 47 80 47 77 C 47 72 47 53 47 50 C 35 50 35 50 35 40 C 35 37 35 26 35 23 C 35 20 40 20 40 23 C 40 26 40 37 40 40 C 40 44 41 45 44 45 C 48 45 52 45 56 45 C 59 45 60 44 60 40 C 60 37 60 26 60 23 C 60 20 65 20 65 23 C 65 26 65 37 65 40 C 65 50 65 50 53 50 Z"></path></svg>