<svg version="1.1" xmlns="http://www.w3.org/2000/svg" viewBox="0 0 100 100"><path stroke="#000000" stroke-width="0" stroke-linejoin="round" stroke-linecap="round" fill="#000000" d="M 36 50 C 36 51 37 52 38 52 C 44 52 56 52 62 52 C 63 52 64 51 64 50 C 64 49 63 48 62 48 C 56 48 44 48 38 48 C 37 48 36 49 36 50 Z M 36 60 C 36 61 37 62 38 62 C 44 62 56 62 62 62 C 63 62 64 61 64 60 C 64 59 63 58 62 58 C 56 58 44 58 38 58 C 37 58 36 59 36 60 Z M 36 40 C 36 41 37 42 38 42 C 44 42 56 42 62 42 C 63 42 64 41 64 40 C 64 39 63 38 62 38 C 56 38 44 38 38 38 C 37 38 36 39 36 40 Z M 30 78 C 30 60 30 50 30 40 C 30 29 39 20 50 20 C 61 20 70 29 70 40 C 70 50 70 60 70 78 C 70 80 70 80 68 80 C 60 80 40 80 32 80 C 30 80 30 80 30 78 Z"></path></svg>