<svg version="1.1" xmlns="http://www.w3.org/2000/svg" viewBox="0 0 100 100"><path stroke="#000000" stroke-width="0" stroke-linejoin="round" stroke-linecap="round" fill="#000000" d="M 44 35 C 44 41 44 49 44 54 C 44 57 48 57 48 54 C 48 49 48 41 48 35 C 49 35 51 35 52 35 C 52 41 52 49 52 54 C 52 57 56 57 56 54 C 56 49 56 41 56 35 C 57 35 59 35 60 35 C 60 41 60 49 60 54 C 60 57 64 57 64 54 C 64 49 64 41 64 35 C 65 35 67 35 68 35 C 68 41 68 49 68 54 C 68 57 72 57 72 54 C 72 49 72 41 72 35 C 73 35 74 35 75 35 C 76 35 77 36 77 37 C 77 49 77 61 77 73 C 77 74 76 75 75 75 C 57 75 34 75 25 75 C 24 75 23 74 23 73 C 23 61 23 49 23 37 C 23 36 24 35 25 35 C 26 35 27 35 28 35 C 28 41 28 49 28 54 C 28 57 32 57 32 54 C 32 49 32 41 32 35 C 33 35 35 35 36 35 C 36 41 36 49 36 54 C 36 57 40 57 40 54 C 40 49 40 41 40 35 C 41 35 43 35 44 35 Z"></path></svg>