<svg version="1.1" xmlns="http://www.w3.org/2000/svg" viewBox="0 0 100 100"><path stroke="#000000" stroke-width="0" stroke-linejoin="round" stroke-linecap="round" fill="#000000" d="M 38 25 C 36 25 35 26 35 28 C 35 42 35 58 35 73 C 35 74 35 75 36 75 C 38 75 44 64 48 55 C 49 52 51 52 52 55 C 56 64 62 75 64 75 C 65 75 65 74 65 73 C 65 58 65 42 65 28 C 65 26 64 25 62 25 C 55 25 45 25 38 25 Z M 36 20 C 45 20 55 20 64 20 C 67 20 70 23 70 26 C 70 42 70 58 70 75 C 70 78 68 80 65 80 C 60 80 55 72 52 66 C 50 61 50 61 48 66 C 45 72 40 80 35 80 C 32 80 30 78 30 75 C 30 58 30 42 30 26 C 30 23 33 20 36 20 Z"></path></svg>