<svg version="1.1" xmlns="http://www.w3.org/2000/svg" viewBox="0 0 100 100"><path stroke="#000000" stroke-width="0" stroke-linejoin="round" stroke-linecap="round" fill="#000000" d="M 46 63 C 45 64 42 65 42 70 C 42 75 45 78 50 78 C 55 78 58 75 58 70 C 58 65 55 64 54 63 C 53 62 53 62 53 60 C 53 50 53 37 53 25 C 53 23 52 22 50 22 C 48 22 47 23 47 25 C 47 37 47 50 47 60 C 47 62 47 62 46 63 Z M 45 61 C 45 50 45 35 45 25 C 45 22 47 20 50 20 C 53 20 55 22 55 25 C 55 35 55 50 55 61 C 58 63 60 66 60 70 C 60 76 56 80 50 80 C 44 80 40 76 40 70 C 40 66 42 63 45 61 Z"></path></svg>