<svg version="1.1" xmlns="http://www.w3.org/2000/svg" viewBox="0 0 100 100"><path stroke="#000000" stroke-width="0" stroke-linejoin="round" stroke-linecap="round" fill="#000000" d="M 65 30 C 79 30 90 41 90 55 C 90 69 79 80 65 80 C 62 80 58 80 55 80 C 52 80 50 78 50 75 C 50 72 52 70 55 70 C 58 70 62 70 65 70 C 72 70 80 62 80 55 C 80 48 72 40 65 40 C 60 40 30 40 27 40 C 30 43 32 45 34 47 C 36 49 36 52 34 54 C 32 56 29 56 27 54 C 23 50 18 45 13 40 C 11 38 10 37 10 35 C 10 33 11 32 13 30 C 18 25 23 20 27 16 C 29 14 32 14 34 16 C 36 18 36 21 34 23 C 32 25 30 27 27 30 C 30 30 60 30 65 30 Z"></path></svg>