<svg version="1.1" xmlns="http://www.w3.org/2000/svg" viewBox="0 0 100 100"><path stroke="#000000" stroke-width="0" stroke-linejoin="round" stroke-linecap="round" fill="#000000" d="M 37 50 C 37 57 43 63 50 63 C 57 63 63 57 63 50 C 63 43 57 37 50 37 C 43 37 37 43 37 50 Z M 32 39 C 31 38 30 37 29 36 C 26 33 27 31 29 29 C 31 27 33 26 36 29 C 37 30 38 31 39 32 C 41 34 45 32 45 30 C 45 29 45 27 45 25 C 45 20 47 20 50 20 C 53 20 55 20 55 25 C 55 27 55 29 55 30 C 55 32 59 34 61 32 C 62 31 63 30 64 29 C 67 26 69 27 71 29 C 73 31 74 33 71 36 C 70 37 69 38 68 39 C 66 41 68 45 70 45 C 71 45 73 45 75 45 C 80 45 80 47 80 50 C 80 53 80 55 75 55 C 73 55 71 55 70 55 C 68 55 66 59 68 61 C 69 62 70 63 71 64 C 74 67 73 69 71 71 C 69 73 67 74 64 71 C 63 70 62 69 61 68 C 59 66 55 68 55 70 C 55 71 55 73 55 75 C 55 80 53 80 50 80 C 47 80 45 80 45 75 C 45 73 45 71 45 70 C 45 68 41 66 39 68 C 38 69 37 70 36 71 C 33 74 31 73 29 71 C 27 69 26 67 29 64 C 30 63 31 62 32 61 C 34 59 32 55 30 55 C 29 55 27 55 25 55 C 20 55 20 53 20 50 C 20 47 20 45 25 45 C 27 45 29 45 30 45 C 32 45 34 41 32 39 Z"></path></svg>