<svg version="1.1" xmlns="http://www.w3.org/2000/svg" viewBox="0 0 100 100"><path stroke="#000000" stroke-width="0" stroke-linejoin="round" stroke-linecap="round" fill="#000000" d="M 46 50 C 48 52 51 54 54 54 C 56 54 57 53 54 50 C 52 48 49 46 46 46 C 44 46 43 47 46 50 Z M 39 52 C 37 54 36 55 35 56 C 31 60 27 64 32 70 C 37 75 43 70 46 67 C 50 63 51 62 52 61 C 50 61 46 60 43 57 C 41 55 41 55 39 52 Z M 57 43 C 59 45 59 45 61 48 C 63 46 64 45 65 44 C 69 40 73 36 68 30 C 63 25 57 30 54 33 C 50 37 49 38 48 39 C 50 39 54 40 57 43 Z M 37 44 C 38 40 41 36 47 30 C 57 20 66 17 74 25 C 80 31 79 40 73 46 C 67 52 65 54 63 56 C 62 60 59 64 53 70 C 43 80 34 83 26 75 C 20 69 21 60 27 54 C 33 48 35 46 37 44 Z"></path></svg>