<svg version="1.1" xmlns="http://www.w3.org/2000/svg" viewBox="0 0 100 100"><path stroke="#000000" stroke-width="0" stroke-linejoin="round" stroke-linecap="round" fill="#000000" d="M 68 35 C 55 35 45 35 32 35 C 30 35 30 35 32 36 C 34 37 42 41 44 42 C 46 43 48 44 50 45 C 52 44 54 43 56 42 C 58 41 66 37 68 36 C 70 35 70 35 68 35 Z M 25 39 C 25 46 25 56 25 63 C 25 64 26 65 27 65 C 42 65 58 65 73 65 C 74 65 75 64 75 63 C 75 56 75 47 75 39 C 75 38 75 38 73 39 C 71 40 57 47 55 48 C 53 49 51 50 50 50 C 49 50 47 49 45 48 C 43 47 29 40 27 39 C 25 38 25 38 25 39 Z M 20 64 C 20 55 20 45 20 36 C 20 33 23 30 26 30 C 42 30 58 30 74 30 C 77 30 80 33 80 36 C 80 45 80 55 80 64 C 80 67 77 70 74 70 C 58 70 42 70 26 70 C 23 70 20 67 20 64 Z"></path></svg>