<svg version="1.1" xmlns="http://www.w3.org/2000/svg" viewBox="0 0 100 100"><path stroke="#000000" stroke-width="0" stroke-linejoin="round" stroke-linecap="round" fill="#000000" d="M 32 70 C 36 70 40 70 43 70 C 44 70 45 69 45 68 C 45 55 45 45 45 32 C 45 31 44 30 43 30 C 40 30 36 30 32 30 C 31 30 30 29 30 28 C 30 26 30 24 30 22 C 30 21 31 20 32 20 C 40 20 60 20 68 20 C 69 20 70 21 70 22 C 70 24 70 26 70 28 C 70 29 69 30 68 30 C 64 30 60 30 57 30 C 56 30 55 31 55 32 C 55 45 55 55 55 68 C 55 69 56 70 57 70 C 60 70 64 70 68 70 C 69 70 70 71 70 72 C 70 74 70 76 70 78 C 70 79 69 80 68 80 C 60 80 40 80 32 80 C 31 80 30 79 30 78 C 30 76 30 74 30 72 C 30 71 31 70 32 70 Z"></path></svg>