<svg version="1.1" xmlns="http://www.w3.org/2000/svg" viewBox="0 0 100 100"><path stroke="#000000" stroke-width="0" stroke-linejoin="round" stroke-linecap="round" fill="#000000" d="M 41 67 C 41 68 42 69 43 69 C 48 69 52 69 57 69 C 58 69 59 68 59 67 C 59 62 59 58 59 53 C 59 52 58 51 57 51 C 52 51 48 51 43 51 C 42 51 41 52 41 53 C 41 58 41 62 41 67 Z M 41 47 C 41 48 42 49 43 49 C 48 49 52 49 57 49 C 58 49 59 48 59 47 C 59 42 59 38 59 33 C 59 32 58 31 57 31 C 52 31 48 31 43 31 C 42 31 41 32 41 33 C 41 38 41 42 41 47 Z M 36 80 C 36 70 36 30 36 20 C 36 19 36 19 37 19 C 38 19 39 19 40 19 C 41 19 41 19 41 20 C 41 23 41 25 41 27 C 41 28 42 29 43 29 C 48 29 52 29 57 29 C 58 29 59 28 59 27 C 59 25 59 23 59 20 C 59 19 59 19 60 19 C 61 19 62 19 63 19 C 64 19 64 19 64 20 C 64 30 64 70 64 80 C 64 81 64 81 63 81 C 62 81 61 81 60 81 C 59 81 59 81 59 80 C 59 77 59 75 59 73 C 59 72 58 71 57 71 C 52 71 48 71 43 71 C 42 71 41 72 41 73 C 41 75 41 77 41 80 C 41 81 41 81 40 81 C 39 81 38 81 37 81 C 36 81 36 81 36 80 Z M 37 23 C 37 24 40 24 40 23 C 40 22 40 22 40 21 C 40 20 37 20 37 21 C 37 22 37 22 37 23 Z M 37 27 C 37 28 40 28 40 27 C 40 26 40 26 40 25 C 40 24 37 24 37 25 C 37 26 37 26 37 27 Z M 37 31 C 37 32 40 32 40 31 C 40 30 40 30 40 29 C 40 28 37 28 37 29 C 37 30 37 30 37 31 Z M 37 35 C 37 36 40 36 40 35 C 40 34 40 34 40 33 C 40 32 37 32 37 33 C 37 34 37 34 37 35 Z M 37 39 C 37 40 40 40 40 39 C 40 38 40 38 40 37 C 40 36 37 36 37 37 C 37 38 37 38 37 39 Z M 37 43 C 37 44 40 44 40 43 C 40 42 40 42 40 41 C 40 40 37 40 37 41 C 37 42 37 42 37 43 Z M 37 47 C 37 48 40 48 40 47 C 40 46 40 46 40 45 C 40 44 37 44 37 45 C 37 46 37 46 37 47 Z M 37 51 C 37 52 40 52 40 51 C 40 50 40 50 40 49 C 40 48 37 48 37 49 C 37 50 37 50 37 51 Z M 37 55 C 37 56 40 56 40 55 C 40 54 40 54 40 53 C 40 52 37 52 37 53 C 37 54 37 54 37 55 Z M 37 59 C 37 60 40 60 40 59 C 40 58 40 58 40 57 C 40 56 37 56 37 57 C 37 58 37 58 37 59 Z M 37 63 C 37 64 40 64 40 63 C 40 62 40 62 40 61 C 40 60 37 60 37 61 C 37 62 37 62 37 63 Z M 37 67 C 37 68 40 68 40 67 C 40 66 40 66 40 65 C 40 64 37 64 37 65 C 37 66 37 66 37 67 Z M 37 71 C 37 72 40 72 40 71 C 40 70 40 70 40 69 C 40 68 37 68 37 69 C 37 70 37 70 37 71 Z M 37 75 C 37 76 40 76 40 75 C 40 74 40 74 40 73 C 40 72 37 72 37 73 C 37 74 37 74 37 75 Z M 37 79 C 37 80 40 80 40 79 C 40 78 40 78 40 77 C 40 76 37 76 37 77 C 37 78 37 78 37 79 Z M 60 23 C 60 24 63 24 63 23 C 63 22 63 22 63 21 C 63 20 60 20 60 21 C 60 22 60 22 60 23 Z M 60 27 C 60 28 63 28 63 27 C 63 26 63 26 63 25 C 63 24 60 24 60 25 C 60 26 60 26 60 27 Z M 60 31 C 60 32 63 32 63 31 C 63 30 63 30 63 29 C 63 28 60 28 60 29 C 60 30 60 30 60 31 Z M 60 35 C 60 36 63 36 63 35 C 63 34 63 34 63 33 C 63 32 60 32 60 33 C 60 34 60 34 60 35 Z M 60 39 C 60 40 63 40 63 39 C 63 38 63 38 63 37 C 63 36 60 36 60 37 C 60 38 60 38 60 39 Z M 60 43 C 60 44 63 44 63 43 C 63 42 63 42 63 41 C 63 40 60 40 60 41 C 60 42 60 42 60 43 Z M 60 47 C 60 48 63 48 63 47 C 63 46 63 46 63 45 C 63 44 60 44 60 45 C 60 46 60 46 60 47 Z M 60 51 C 60 52 63 52 63 51 C 63 50 63 50 63 49 C 63 48 60 48 60 49 C 60 50 60 50 60 51 Z M 60 55 C 60 56 63 56 63 55 C 63 54 63 54 63 53 C 63 52 60 52 60 53 C 60 54 60 54 60 55 Z M 60 59 C 60 60 63 60 63 59 C 63 58 63 58 63 57 C 63 56 60 56 60 57 C 60 58 60 58 60 59 Z M 60 63 C 60 64 63 64 63 63 C 63 62 63 62 63 61 C 63 60 60 60 60 61 C 60 62 60 62 60 63 Z M 60 67 C 60 68 63 68 63 67 C 63 66 63 66 63 65 C 63 64 60 64 60 65 C 60 66 60 66 60 67 Z M 60 71 C 60 72 63 72 63 71 C 63 70 63 70 63 69 C 63 68 60 68 60 69 C 60 70 60 70 60 71 Z M 60 75 C 60 76 63 76 63 75 C 63 74 63 74 63 73 C 63 72 60 72 60 73 C 60 74 60 74 60 75 Z M 60 79 C 60 80 63 80 63 79 C 63 78 63 78 63 77 C 63 76 60 76 60 77 C 60 78 60 78 60 79 Z"></path></svg>