<svg version="1.1" xmlns="http://www.w3.org/2000/svg" viewBox="0 0 100 100"><path stroke="#000000" stroke-width="0" stroke-linejoin="round" stroke-linecap="round" fill="#000000" d="M 53 54 C 52 55 48 55 47 54 C 46 57 46 57 44 60 C 42 63 41 66 39 68 C 34 73 31 73 29 71 C 27 69 27 66 32 61 C 34 59 37 58 40 56 C 43 54 43 54 46 53 C 45 52 45 48 46 47 C 43 46 43 46 40 44 C 37 42 34 41 32 39 C 27 34 27 31 29 29 C 31 27 34 27 39 32 C 41 34 42 37 44 40 C 46 43 46 43 47 46 C 48 45 52 45 53 46 C 54 43 54 43 56 40 C 58 37 59 34 61 32 C 66 27 69 27 71 29 C 73 31 73 34 68 39 C 66 41 63 42 60 44 C 57 46 57 46 54 47 C 55 48 55 52 54 53 C 57 54 57 54 60 56 C 63 58 66 59 68 61 C 73 66 73 69 71 71 C 69 73 66 73 61 68 C 59 66 58 63 56 60 C 54 57 54 57 53 54 Z"></path></svg>