<svg version="1.1" xmlns="http://www.w3.org/2000/svg" viewBox="0 0 100 100"><path stroke="#000000" stroke-width="0" stroke-linejoin="round" stroke-linecap="round" fill="#000000" d="M 52 40 C 52 40 60 45 60 45 C 70 45 65 45 73 45 C 77 45 90 47 90 50 C 90 54 85 55 80 55 C 74 55 70 55 62 55 C 62 55 51 63 51 63 C 40 71 40 71 49 55 C 30 55 19 55 16 50 C 15 48 14 46 13 44 C 10 44 10 44 12 42 C 12 42 10 35 13 38 C 14 39 15 40 15 40 C 16 39 16 40 16 41 C 20 45 20 45 25 45 C 30 45 40 45 51 45 C 47 37 47 37 52 40 Z"></path></svg>