<svg version="1.1" xmlns="http://www.w3.org/2000/svg" viewBox="0 0 100 100"><path stroke="#000000" stroke-width="0" stroke-linejoin="round" stroke-linecap="round" fill="#000000" d="M 67 30 C 70 30 73 30 76 30 C 78 30 80 32 80 34 C 80 35 80 35 80 36 C 80 38 78 40 76 40 C 72 40 70 40 70 41 C 70 51 70 63 70 74 C 70 77 67 80 64 80 C 55 80 45 80 36 80 C 33 80 30 77 30 74 C 30 63 30 51 30 41 C 30 40 28 40 24 40 C 22 40 20 38 20 36 C 20 35 20 35 20 34 C 20 32 22 30 24 30 C 27 30 30 30 33 30 C 36 30 37 29 37 26 C 37 23 40 20 43 20 C 47 20 53 20 57 20 C 60 20 63 23 63 26 C 63 29 64 30 67 30 Z"></path></svg>