<svg version="1.1" xmlns="http://www.w3.org/2000/svg" viewBox="0 0 100 100"><path stroke="#000000" stroke-width="0" stroke-linejoin="round" stroke-linecap="round" fill="#000000" d="M 50 71 C 57 67 57 67 66 62 C 59 58 59 58 50 53 C 50 60 50 66 50 71 Z M 50 47 C 59 42 59 42 66 38 C 57 33 57 33 50 29 C 50 34 50 40 50 47 Z M 45 50 C 40 47 35 44 30 41 C 28 40 30 37 32 38 C 37 41 42 44 47 47 C 47 40 47 30 47 27 C 47 23 47 23 52 26 C 57 29 62 32 67 35 C 72 38 72 38 67 41 C 62 44 57 47 52 50 C 57 53 62 56 67 59 C 72 62 72 62 67 65 C 62 68 57 71 52 74 C 47 77 47 77 47 73 C 47 70 47 60 47 53 C 42 56 37 59 32 62 C 30 63 28 60 30 59 C 35 56 40 53 45 50 C 45 50 45 50 45 50 Z"></path></svg>