<svg version="1.1" xmlns="http://www.w3.org/2000/svg" viewBox="0 0 100 100"><path stroke="#000000" stroke-width="0" stroke-linejoin="round" stroke-linecap="round" fill="#000000" d="M 72 37 C 74 39 76 41 78 43 C 81 46 81 48 78 51 C 75 54 70 59 67 62 C 64 65 62 65 59 62 C 57 60 55 58 53 56 C 52 55 52 55 51 56 C 45 62 35 72 29 78 C 27 80 24 80 22 78 C 20 76 20 73 22 71 C 28 65 38 55 44 49 C 45 48 45 48 44 47 C 42 45 40 43 38 41 C 35 38 35 36 38 33 C 41 30 46 25 49 22 C 52 19 54 19 57 22 C 59 24 61 26 63 28 C 64 29 64 29 65 28 C 67 26 70 26 72 28 C 74 30 74 33 72 35 C 71 36 71 36 72 37 Z"></path></svg>