<svg version="1.1" xmlns="http://www.w3.org/2000/svg" viewBox="0 0 100 100"><path stroke="#000000" stroke-width="0" stroke-linejoin="round" stroke-linecap="round" fill="#000000" d="M 25 40 C 25 48 32 55 40 55 C 48 55 55 48 55 40 C 55 32 48 25 40 25 C 32 25 25 32 25 40 Z M 61 54 C 62 55 76 69 78 71 C 80 73 80 76 78 78 C 76 80 73 80 71 78 C 69 76 55 62 54 61 C 51 58 53 56 49 58 C 47 59 44 60 40 60 C 29 60 20 51 20 40 C 20 29 29 20 40 20 C 51 20 60 29 60 40 C 60 44 59 47 58 49 C 56 53 58 51 61 54 Z"></path></svg>