<svg version="1.1" xmlns="http://www.w3.org/2000/svg" viewBox="0 0 100 100"><path stroke="#000000" stroke-width="0" stroke-linejoin="round" stroke-linecap="round" fill="#000000" d="M 38 35 C 36 35 35 36 35 38 C 35 48 35 52 35 62 C 35 64 36 65 38 65 C 48 65 52 65 62 65 C 64 65 65 64 65 62 C 65 52 65 48 65 38 C 65 36 64 35 62 35 C 52 35 48 35 38 35 Z M 80 32 C 80 33 80 34 80 35 C 78 35 75 35 73 35 C 71 35 70 36 70 38 C 70 48 70 52 70 62 C 70 64 71 65 73 65 C 75 65 78 65 80 65 C 80 66 80 67 80 68 C 80 69 79 70 78 70 C 58 70 42 70 22 70 C 21 70 20 69 20 68 C 20 67 20 66 20 65 C 22 65 25 65 27 65 C 29 65 30 64 30 62 C 30 52 30 48 30 38 C 30 36 29 35 27 35 C 25 35 22 35 20 35 C 20 34 20 33 20 32 C 20 31 21 30 22 30 C 42 30 58 30 78 30 C 79 30 80 31 80 32 Z"></path></svg>