<svg version="1.1" xmlns="http://www.w3.org/2000/svg" viewBox="0 0 100 100"><path stroke="#000000" stroke-width="0" stroke-linejoin="round" stroke-linecap="round" fill="#000000" d="M 52 40 C 52 50 52 70 52 74 C 52 77 49 80 46 80 C 43 80 40 77 40 74 C 40 73 40 73 40 72 C 40 71 41 70 42 70 C 43 70 44 71 44 72 C 44 73 44 73 44 74 C 44 75 45 76 46 76 C 47 76 48 75 48 74 C 48 70 48 50 48 40 C 40 40 30 40 22 40 C 15 40 30 23 47 21 C 49 20 51 20 53 21 C 70 23 85 40 78 40 C 70 40 60 40 52 40 Z"></path></svg>