<svg version="1.1" xmlns="http://www.w3.org/2000/svg" viewBox="0 0 100 100"><path stroke="#000000" stroke-width="0" stroke-linejoin="round" stroke-linecap="round" fill="#000000" d="M 55 20 C 64 20 72 21 72 25 C 72 32 76 29 76 35 C 76 41 80 39 80 45 C 80 51 76 49 76 55 C 76 62 65 60 62 60 C 58 60 56 61 56 62 C 56 64 59 67 59 72 C 59 77 56 80 53 80 C 49 80 48 74 47 71 C 46 68 44 64 42 60 C 40 56 37 56 36 56 C 35 56 35 56 35 58 C 35 59 34 60 33 60 C 29 60 25 60 21 60 C 20 60 20 60 20 59 C 20 55 20 25 20 21 C 20 20 20 20 21 20 C 25 20 29 20 33 20 C 34 20 35 21 35 22 C 35 24 35 24 36 24 C 37 24 45 20 55 20 Z"></path></svg>