<svg version="1.1" xmlns="http://www.w3.org/2000/svg" viewBox="0 0 100 100"><path stroke="#000000" stroke-width="0" stroke-linejoin="round" stroke-linecap="round" fill="#000000" d="M 30 25 C 28 25 25 27 25 30 C 25 33 28 35 32 36 C 32 32 32 26 32 28 C 32 29 32 25 30 25 Z M 70 75 C 72 75 75 73 75 70 C 75 67 72 65 68 64 C 68 68 68 71 68 72 C 68 74 68 75 70 75 Z M 37 27 C 37 40 37 60 37 70 C 37 72 40 75 42 75 C 50 75 56 75 63 75 C 66 75 63 78 63 73 C 63 60 63 40 63 30 C 63 28 60 25 58 25 C 50 25 44 25 37 25 C 34 25 37 22 37 27 Z M 68 80 C 63 80 50 80 42 80 C 37 80 32 75 32 70 C 32 60 32 50 32 38 C 25 40 20 35 20 30 C 20 25 25 20 32 20 C 37 20 50 20 58 20 C 63 20 68 25 68 30 C 68 40 68 50 68 62 C 75 60 80 65 80 70 C 80 75 75 80 68 80 Z"></path></svg>