<svg version="1.1" xmlns="http://www.w3.org/2000/svg" viewBox="0 0 100 100"><path stroke="#000000" stroke-width="0" stroke-linejoin="round" stroke-linecap="round" fill="#000000" d="M 63 49 C 63 52 65 54 68 54 C 71 54 73 52 73 49 C 73 46 71 44 68 44 C 65 44 63 46 63 49 Z M 80 60 C 60 60 40 60 20 60 C 14 60 10 56 10 50 C 10 44 14 40 20 40 C 20 29 29 20 40 20 C 48 20 55.5 24.5 58.5 32.5 C 61 31 63 30 66 30 C 73 30 79 35 80 40 C 86 40 90 44 90 50 C 90 56 86 60 80 60 Z M 55 80 C 55 77 57 75 60 75 C 63 75 65 77 65 80 C 65 83 63 85 60 85 C 57 85 55 83 55 80 Z M 65 70 C 65 67 67 65 70 65 C 73 65 75 67 75 70 C 75 73 73 75 70 75 C 67 75 65 73 65 70 Z"></path></svg>