<svg version="1.1" xmlns="http://www.w3.org/2000/svg" viewBox="0 0 100 100"><path stroke="#000000" stroke-width="0" stroke-linejoin="round" stroke-linecap="round" fill="#000000" d="M 50 36 C 50 48 50 52 50 64 C 50 65 50 65 51 65 C 55 65 65 65 73 65 C 74 65 75 64 75 63 C 75 53 75 47 75 37 C 75 36 74 35 73 35 C 65 35 55 35 51 35 C 50 35 50 35 50 36 Z M 80 61 C 80 62 80 63 80 64 C 80 67 77 70 74 70 C 58 70 42 70 26 70 C 23 70 20 67 20 64 C 20 55 20 45 20 36 C 20 33 23 30 26 30 C 42 30 58 30 74 30 C 77 30 80 33 80 36 C 80 37 80 38 80 39 C 80 40 80 40 81 40 C 83 40 85 42 85 45 C 85 48 85 52 85 55 C 85 58 83 60 81 60 C 80 60 80 60 80 61 Z"></path></svg>