<svg version="1.1" xmlns="http://www.w3.org/2000/svg" viewBox="0 0 100 100"><path stroke="#000000" stroke-width="0" stroke-linejoin="round" stroke-linecap="round" fill="#000000" d="M 25 37 C 25 45 25 55 25 63 C 25 64 26 65 27 65 C 42 65 58 65 73 65 C 74 65 75 64 75 63 C 75 55 75 45 75 37 C 75 36 74 35 73 35 C 58 35 42 35 27 35 C 26 35 25 36 25 37 Z M 51 39 C 55 35 58 34 54 40 C 54 40 52 43 52 43 C 50 46 50 46 52 48 C 53 49 54 50 55 51 C 57 53 57 53 55 55 C 53 57 51 59 49 61 C 45 65 42 66 46 60 C 46 60 48 57 48 57 C 50 54 50 54 48 52 C 47 51 46 50 45 49 C 43 47 43 47 45 45 C 47 43 49 41 51 39 Z M 80 61 C 80 62 80 63 80 64 C 80 67 77 70 74 70 C 58 70 42 70 26 70 C 23 70 20 67 20 64 C 20 55 20 45 20 36 C 20 33 23 30 26 30 C 42 30 58 30 74 30 C 77 30 80 33 80 36 C 80 37 80 38 80 39 C 80 40 80 40 81 40 C 83 40 85 42 85 45 C 85 48 85 52 85 55 C 85 58 83 60 81 60 C 80 60 80 60 80 61 Z"></path></svg>