<svg version="1.1" xmlns="http://www.w3.org/2000/svg" viewBox="0 0 100 100"><path stroke="#000000" stroke-width="0" stroke-linejoin="round" stroke-linecap="round" fill="#000000" d="M 37 25 C 36 25 35 26 35 27 C 35 42 35 58 35 73 C 35 74 36 75 37 75 C 45 75 55 75 63 75 C 64 75 65 74 65 73 C 65 58 65 42 65 27 C 65 26 64 25 63 25 C 55 25 45 25 37 25 Z M 40 60 C 40 54 44 50 50 50 C 56 50 60 54 60 60 C 60 66 56 70 50 70 C 44 70 40 66 40 60 Z M 43 37 C 43 33 46 30 50 30 C 54 30 57 33 57 37 C 57 41 54 44 50 44 C 46 44 43 41 43 37 Z M 36 20 C 45 20 55 20 64 20 C 67 20 70 23 70 26 C 70 42 70 58 70 74 C 70 77 67 80 64 80 C 55 80 45 80 36 80 C 33 80 30 77 30 74 C 30 58 30 42 30 26 C 30 23 33 20 36 20 Z M 24 60 C 20 60 15 56 15 50 C 15 44 20 40 24 40 C 26 40 26 43 24 43 C 21 43 18 46 18 50 C 18 54 21 57 24 57 C 26 57 26 60 24 60 Z M 25 55 C 22 55 20 53 20 50 C 20 47 22 45 25 45 C 26 45 26 47 25 47 C 24 47 22 48 22 50 C 22 52 24 53 25 53 C 26 53 26 55 25 55 Z M 75 45 C 78 45 80 47 80 50 C 80 53 78 55 75 55 C 74 55 74 53 75 53 C 76 53 78 52 78 50 C 78 48 76 47 75 47 C 74 47 74 45 75 45 Z M 76 40 C 80 40 85 44 85 50 C 85 56 80 60 76 60 C 74 60 74 57 76 57 C 79 57 82 54 82 50 C 82 46 79 43 76 43 C 74 43 74 40 76 40 Z"></path></svg>