<svg version="1.1" xmlns="http://www.w3.org/2000/svg" viewBox="0 0 100 100"><path stroke="#111111" stroke-width="0" stroke-linejoin="round" stroke-linecap="round" fill="#000000" d="M 54 20 C 58 20 62 20 66 20 C 68 20 70 22 70 24 C 70 28 70 32 70 36 C 70 38 68 40 66 40 C 62 40 58 40 54 40 C 52 40 50 38 50 36 C 50 32 50 28 50 24 C 50 22 52 20 54 20 Z M 54 40 C 58 40 62 40 66 40 C 68 40 70 42 70 44 C 70 48 70 52 70 56 C 70 58 68 60 66 60 C 62 60 58 60 54 60 C 52 60 50 58 50 56 C 50 52 50 48 50 44 C 50 42 52 40 54 40 Z M 54 60 C 58 60 62 60 66 60 C 68 60 70 62 70 64 C 70 68 70 72 70 76 C 70 78 68 80 66 80 C 62 80 58 80 54 80 C 52 80 50 78 50 76 C 50 72 50 68 50 64 C 50 62 52 60 54 60 Z M 34 60 C 38 60 42 60 46 60 C 48 60 50 62 50 64 C 50 68 50 72 50 76 C 50 78 48 80 46 80 C 42 80 38 80 34 80 C 32 80 30 78 30 76 C 30 72 30 68 30 64 C 30 62 32 60 34 60 Z"></path></svg>