<svg version="1.1" xmlns="http://www.w3.org/2000/svg" viewBox="0 0 100 100"><path stroke="#000000" stroke-width="0" stroke-linejoin="round" stroke-linecap="round" fill="#000000" d="M 59 44 C 59 43 59 42 59 41 C 59 35 55 31 50 31 C 45 31 41 35 41 41 C 41 42 41 43 41 44 C 41 45 41 45 42 45 C 47 45 53 45 58 45 C 59 45 59 45 59 44 Z M 35 44 C 35 43 35 42 35 41 C 35 31 41 25 50 25 C 59 25 65 31 65 41 C 65 42 65 43 65 44 C 65 45 65 45 66 45 C 68 45 70 47 70 49 C 70 61 70 69 70 76 C 70 78 68 80 66 80 C 55 80 45 80 34 80 C 32 80 30 78 30 76 C 30 69 30 61 30 49 C 30 47 32 45 34 45 C 35 45 35 45 35 44 Z"></path></svg>