<svg version="1.1" xmlns="http://www.w3.org/2000/svg" viewBox="0 0 100 100"><path stroke="#000000" stroke-width="0" stroke-linejoin="round" stroke-linecap="round" fill="#000000" d="M 26 38 C 26 40 26 63 26 65 C 28 66 46 75 48 76 C 48 74 48 51 48 49 C 46 48 28 39 26 38 Z M 74 38 C 72 39 54 48 52 49 C 52 51 52 74 52 76 C 54 75 72 66 74 65 C 74 63 74 40 74 38 Z M 50 18 C 60 23 70 28 78 32 C 78 44 78 56 78 68 C 70 72 60 77 50 82 C 40 77 30 72 22 68 C 22 56 22 44 22 32 C 30 28 40 23 50 18 Z"></path></svg>