<svg version="1.1" xmlns="http://www.w3.org/2000/svg" viewBox="0 0 100 100"><path stroke="#000000" stroke-width="0" stroke-linejoin="round" stroke-linecap="round" fill="#000000" d="M 80 47 C 80 45 80 42 80 40 C 80 37 82 35 85 35 C 88 35 90 37 90 40 C 90 44 90 50 90 54 C 90 57 87 60 84 60 C 70 60 39 60 27 60 C 30 63 32 65 34 67 C 36 69 36 72 34 74 C 32 76 29 76 27 74 C 23 70 18 65 13 60 C 11 58 10 57 10 55 C 10 53 11 52 13 50 C 18 45 23 40 27 36 C 29 34 32 34 34 36 C 36 38 36 41 34 43 C 32 45 30 47 27 50 C 39 50 70 50 77 50 C 79 50 80 49 80 47 Z"></path></svg>