<svg version="1.1" xmlns="http://www.w3.org/2000/svg" viewBox="0 0 100 100"><path stroke="#111111" stroke-width="0" stroke-linejoin="round" stroke-linecap="round" fill="#000000" d="M 34 30 C 38 30 42 30 46 30 C 48 30 50 32 50 34 C 50 38 50 42 50 46 C 50 48 48 50 46 50 C 42 50 38 50 34 50 C 32 50 30 48 30 46 C 30 42 30 38 30 34 C 30 32 32 30 34 30 Z M 54 30 C 58 30 62 30 66 30 C 68 30 70 32 70 34 C 70 38 70 42 70 46 C 70 48 68 50 66 50 C 62 50 58 50 54 50 C 52 50 50 48 50 46 C 50 42 50 38 50 34 C 50 32 52 30 54 30 Z M 54 50 C 58 50 62 50 66 50 C 68 50 70 52 70 54 C 70 58 70 62 70 66 C 70 68 68 70 66 70 C 62 70 58 70 54 70 C 52 70 50 68 50 66 C 50 62 50 58 50 54 C 50 52 52 50 54 50 Z M 34 50 C 38 50 42 50 46 50 C 48 50 50 52 50 54 C 50 58 50 62 50 66 C 50 68 48 70 46 70 C 42 70 38 70 34 70 C 32 70 30 68 30 66 C 30 62 30 58 30 54 C 30 52 32 50 34 50 Z"></path></svg>