<svg version="1.1" xmlns="http://www.w3.org/2000/svg" viewBox="0 0 100 100"><path stroke="#000000" stroke-width="0" stroke-linejoin="round" stroke-linecap="round" fill="#000000" d="M 43 72 C 43 72 43 71 44 70 C 40 70 40 70 41 68 C 42 66 44 62 44 60 C 44 50 44 40 44 33 C 44 32 46 28 47 26 C 48 24 49 22 50 20 C 51 22 52 24 53 26 C 54 28 56 32 56 33 C 56 40 56 50 56 60 C 56 62 58 66 59 68 C 60 70 60 70 56 70 C 57 71 57 72 57 72 C 58 73 60 76 62 80 C 60 79 58 78 56 77 C 56 78 56 79 56 81 C 54 79 54 79 52 77 C 51 80 51 80 50 84 C 49 80 49 80 48 77 C 46 79 46 79 44 81 C 44 79 44 78 44 77 C 42 78 40 79 38 80 C 40 76 42 73 43 72 Z"></path></svg>