<svg version="1.1" xmlns="http://www.w3.org/2000/svg" viewBox="0 0 100 100"><path stroke="#000000" stroke-width="0" stroke-linejoin="round" stroke-linecap="round" fill="#000000" d="M 61 42 C 64 39 61 36 58 39 C 50 47 47 50 43 54 C 42 55 45 58 46 57 C 50 53 53 50 61 42 Z M 53 54 C 46 61 35 72 30 77 C 23 84 16 77 23 70 C 28 65 39 54 46 47 C 51 42 56 37 57 36 C 58 35 58 34 57 33 C 55 31 54 29 56 27 C 58 25 60 26 62 28 C 63 29 65 31 65 26 C 65 19 75 19 78 22 C 81 25 81 35 74 35 C 69 35 71 37 72 38 C 74 40 75 42 73 44 C 71 46 69 45 67 43 C 66 42 65 42 64 43 C 63 44 58 49 53 54 Z"></path></svg>