<svg version="1.1" xmlns="http://www.w3.org/2000/svg" viewBox="0 0 100 100"><path stroke="#000000" stroke-width="0" stroke-linejoin="round" stroke-linecap="round" fill="#000000" d="M 50 57 C 46 61 43 64 39 68 C 46 72 54 72 61 68 C 57 64 54 61 50 57 Z M 57 50 C 61 54 64 57 68 61 C 72 54 72 46 68 39 C 64 43 61 46 57 50 Z M 61 32 C 54 28 46 28 39 32 C 43 36 46 39 50 43 C 54 39 57 36 61 32 Z M 32 39 C 28 46 28 54 32 61 C 36 57 39 54 43 50 C 39 46 36 43 32 39 Z M 29 71 C 17 59 17 41 29 29 C 41 17 59 17 71 29 C 83 41 83 59 71 71 C 59 83 41 83 29 71 Z"></path></svg>