<svg version="1.1" xmlns="http://www.w3.org/2000/svg" viewBox="0 0 100 100"><path stroke="#000000" stroke-width="0" stroke-linejoin="round" stroke-linecap="round" fill="#000000" d="M 38 40 C 38 39 40 37 42 35 C 43 34 45 32 48 32 C 51 32 53 34 54 35 C 55 36 56 37 58 37 C 60 37 61 36 62 35 C 63 34 64 33 65 32 C 65 32 65 32 60 30 C 65 28 65 28 65 28 C 65 28 65 28 63 23 C 68 25 68 25 68 25 C 68 25 68 25 70 20 C 72 25 72 25 72 25 C 72 25 72 25 77 23 C 75 28 75 28 75 28 C 75 28 75 28 80 30 C 75 32 75 32 75 32 C 75 32 75 32 77 37 C 72 35 72 35 72 35 C 72 35 72 35 70 40 C 68 35 68 35 68 35 C 65 37 64 38 63 39 C 62 40 60 41 58 41 C 56 41 54 40 53 39 C 52 38 50 36 48 36 C 46 36 45 38 44 40 C 53 42.153 60 49 60 60 C 60 71 51 80 40 80 C 29 80 20 71 20 60 C 20 49 28 41 38 40 Z"></path></svg>