<svg version="1.1" xmlns="http://www.w3.org/2000/svg" viewBox="0 0 100 100"><path stroke="#000000" stroke-width="0" stroke-linejoin="round" stroke-linecap="round" fill="#000000" d="M 43 73 C 43 69 46 66 50 66 C 54 66 57 69 57 73 C 57 77 54 80 50 80 C 46 80 43 77 43 73 Z M 61 65 C 59 63 54 60 50 60 C 46 60 41 63 39 65 C 36 68 30 63 34 59 C 38 55 43 52 50 52 C 57 52 62 55 66 59 C 70 63 64 68 61 65 Z M 75 46 C 79 50 73 56 68 52 C 65 49 58 45 50 45 C 42 45 35 49 32 52 C 27 56 21 50 25 46 C 31 40 42 36 50 36 C 58 36 69 40 75 46 Z M 84 33 C 89 37 82 44 78 40 C 73 36 61 29 50 29 C 39 29 27 36 22 40 C 18 44 11 37 16 33 C 23 26 36 20 50 20 C 64 20 77 26 84 33 Z"></path></svg>