<svg version="1.1" xmlns="http://www.w3.org/2000/svg" viewBox="0 0 100 100"><path stroke="#000000" stroke-width="0" stroke-linejoin="round" stroke-linecap="round" fill="#000000" d="M 27 30 C 26 30 25 31 25 32 C 25 42 25 58 25 68 C 25 69 26 70 27 70 C 31 70 41 70 46 70 C 47 70 48 69 48 68 C 48 58 48 42 48 32 C 48 31 47 30 46 30 C 41 30 31 30 27 30 Z M 54 30 C 53 30 52 31 52 32 C 52 42 52 58 52 68 C 52 69 53 70 54 70 C 59 70 69 70 73 70 C 74 70 75 69 75 68 C 75 58 75 42 75 32 C 75 31 74 30 73 30 C 69 30 59 30 54 30 Z M 50 27 C 51 26 52 25 54 25 C 59 25 69 25 74 25 C 77 25 80 28 80 31 C 80 42 80 58 80 69 C 80 72 77 75 74 75 C 69 75 59 75 54 75 C 52 75 51 74 50 73 C 49 74 48 75 46 75 C 41 75 31 75 26 75 C 23 75 20 72 20 69 C 20 58 20 42 20 31 C 20 28 23 25 26 25 C 31 25 41 25 46 25 C 48 25 49 26 50 27 Z"></path></svg>