<svg version="1.1" xmlns="http://www.w3.org/2000/svg" viewBox="0 0 100 100"><path stroke="#000000" stroke-width="0" stroke-linejoin="round" stroke-linecap="round" fill="#000000" d="M 43 46 C 43 30 43 27 43 24 C 43 22 45 20 47 20 C 49 20 51 22 51 24 C 51 27 51 30 51 45 C 51 46 52 46 52 45 C 52 33 52 30 52 27 C 52 25 54 23 56 23 C 58 23 60 25 60 27 C 60 30 60 33 60 52 C 60 57 62 61 63 59 C 64 57 65 54 66 51 C 67 48 69 45 71 45 C 73 45 75 46 75 49 C 75 51 74 54 73 57 C 72 60 70 65 67 70 C 64 75 60 77 55 79 C 50 81 40 81 35 79 C 30 77 25 70 25 60 C 25 50 25 40 25 34 C 25 32 27 30 29 30 C 31 30 33 32 33 34 C 33 37 33 40 33 48 C 33 49 34 49 34 48 C 34 35 34 32 34 29 C 34 27 36 25 38 25 C 40 25 42 27 42 29 C 42 32 42 35 42 46 C 42 47 43 47 43 46 Z"></path></svg>