<svg version="1.1" xmlns="http://www.w3.org/2000/svg" viewBox="0 0 100 100"><path stroke="#000000" stroke-width="0" stroke-linejoin="round" stroke-linecap="round" fill="#000000" d="M 50 50 C 47 50 45 48 45 45 C 45 40 45 25 45 20 C 45 17 47 15 50 15 C 53 15 55 17 55 20 C 55 25 55 40 55 45 C 55 48 53 50 50 50 Z M 32 31 C 37 28 42 36 38 39 C 34 42 30 48 30 55 C 30 66 39 75 50 75 C 61 75 70 66 70 55 C 70 48 66 42 62 39 C 58 36 63 28 68 31 C 73 34 80 42 80 55 C 80 72 67 85 50 85 C 33 85 20 72 20 55 C 20 42 27 34 32 31 Z"></path></svg>