<svg version="1.1" xmlns="http://www.w3.org/2000/svg" viewBox="0 0 100 100"><path stroke="#000000" stroke-width="0" stroke-linejoin="round" stroke-linecap="round" fill="#000000" d="M 20 70 C 20 67 22 65 25 65 C 40 65 60 65 75 65 C 78 65 80 67 80 70 C 80 73 78 75 75 75 C 60 75 40 75 25 75 C 22 75 20 73 20 70 Z M 20 50 C 20 47 22 45 25 45 C 40 45 60 45 75 45 C 78 45 80 47 80 50 C 80 53 78 55 75 55 C 60 55 40 55 25 55 C 22 55 20 53 20 50 Z M 20 30 C 20 27 22 25 25 25 C 40 25 60 25 75 25 C 78 25 80 27 80 30 C 80 33 78 35 75 35 C 60 35 40 35 25 35 C 22 35 20 33 20 30 Z"></path></svg>