<svg version="1.1" xmlns="http://www.w3.org/2000/svg" viewBox="0 0 100 100"><path stroke="#000000" stroke-width="0" stroke-linejoin="round" stroke-linecap="round" fill="#000000" d="M 37 63 C 37 65 38 66 40 66 C 42 66 43 65 43 63 C 43 61 42 60 40 60 C 38 60 37 61 37 63 Z M 40 35 C 37 35 35 37 35 40 C 35 43 35 47 35 50 C 35 53 37 55 40 55 C 46 55 54 55 60 55 C 63 55 65 53 65 50 C 65 47 65 43 65 40 C 65 37 63 35 60 35 C 54 35 46 35 40 35 Z M 55 79 C 55 78 55 77 55 76 C 52 76 48 76 45 76 C 45 77 45 78 45 79 C 45 81 42 81 42 79 C 42 78 42 77 42 76 C 40 76 37 76 35 76 C 33 76 33 74 35 74 C 37 74 40 74 42 74 C 42 73 42 71 42 70 C 40 70 38 70 36 70 C 33 70 30 67 30 64 C 30 55 30 45 30 40 C 30 35 35 30 40 30 C 45 30 55 30 60 30 C 65 30 70 35 70 40 C 70 45 70 55 70 64 C 70 67 67 70 64 70 C 62 70 60 70 58 70 C 58 71 58 73 58 74 C 60 74 63 74 65 74 C 67 74 67 76 65 76 C 63 76 60 76 58 76 C 58 77 58 78 58 79 C 58 81 55 81 55 79 Z M 45 70 C 45 71 45 73 45 74 C 48 74 52 74 55 74 C 55 73 55 71 55 70 C 51 70 48 70 45 70 Z M 57 63 C 57 65 58 66 60 66 C 62 66 63 65 63 63 C 63 61 62 60 60 60 C 58 60 57 61 57 63 Z"></path></svg>