<svg version="1.1" xmlns="http://www.w3.org/2000/svg" viewBox="0 0 100 100"><path stroke="#000000" stroke-width="0" stroke-linejoin="round" stroke-linecap="round" fill="#000000" d="M 57 46 C 57 47 58 47 58 46 C 58 35 58 32 58 29 C 58 27 60 25 62 25 C 64 25 66 27 66 29 C 66 32 66 35 66 48 C 66 49 67 49 67 48 C 67 40 67 37 67 34 C 67 32 69 30 71 30 C 73 30 75 32 75 34 C 75 40 75 50 75 60 C 75 70 70 77 65 79 C 60 81 50 81 45 79 C 40 77 36 75 33 70 C 30 65 28 60 27 57 C 26 54 25 51 25 49 C 25 46 27 45 29 45 C 31 45 33 48 34 51 C 35 54 36 57 37 59 C 38 61 40 57 40 52 C 40 33 40 30 40 27 C 40 25 42 23 44 23 C 46 23 48 25 48 27 C 48 30 48 33 48 45 C 48 46 49 46 49 45 C 49 30 49 27 49 24 C 49 22 51 20 53 20 C 55 20 57 22 57 24 C 57 27 57 30 57 46 Z"></path></svg>