<svg version="1.1" xmlns="http://www.w3.org/2000/svg" viewBox="0 0 100 100"><path stroke="#000000" stroke-width="0" stroke-linejoin="round" stroke-linecap="round" fill="#000000" d="M 55 80 C 45 80 37 76 36 76 C 35 76 35 76 35 78 C 35 79 34 80 33 80 C 29 80 25 80 21 80 C 20 80 20 80 20 79 C 20 75 20 45 20 41 C 20 40 20 40 21 40 C 25 40 29 40 33 40 C 34 40 35 41 35 42 C 35 44 35 44 36 44 C 37 44 40 44 42 40 C 44 36 46 32 47 29 C 48 26 49 20 53 20 C 56 20 59 23 59 28 C 59 33 56 36 56 38 C 56 39 58 40 62 40 C 65 40 76 38 76 45 C 76 51 80 49 80 55 C 80 61 76 59 76 65 C 76 71 72 68 72 75 C 72 79 64 80 55 80 Z"></path></svg>