<svg version="1.1" xmlns="http://www.w3.org/2000/svg" viewBox="0 0 100 100"><path stroke="#000000" stroke-width="0" stroke-linejoin="round" stroke-linecap="round" fill="#000000" d="M 55 70 C 56 71 56 71 57 72 C 58 71 59 70 61 72 C 62 73 65 76 66 77 C 68 79 63 84 61 82 C 60 81 57 78 56 77 C 54 75 55 74 56 73 C 55 72 54 71 53 70 C 48 70 43 70 40 70 C 32 70 15 62 16 56 C 20 58 20 58 30 59 C 36 60 43 60 43 60 C 42 59 42 59 41 58 C 40 58 40 58 41 57 C 42 56 42 56 42 57 C 43 58 44 59 45 60 C 53 60 64 60 70 59 C 80 58 80 58 84 56 C 85 62 68 70 60 70 C 59 70 57 70 55 70 Z"></path></svg>