<svg version="1.1" xmlns="http://www.w3.org/2000/svg" viewBox="0 0 100 100"><path stroke="#000000" stroke-width="0" stroke-linejoin="round" stroke-linecap="round" fill="#000000" d="M 55 75 C 55 78 60 78 60 82 C 60 84 59 85 57 85 C 53 85 47 85 43 85 C 41 85 40 84 40 82 C 40 78 45 78 45 75 C 45 73 45 73 45 71 C 45 69 45 66 40 64 C 35 62 30 57 30 50 C 30 48 30 47 30 45 C 30 38 40 38 40 45 C 40 47 40 48 40 50 C 40 53 44 57 50 57 C 56 57 60 53 60 50 C 60 48 60 47 60 45 C 60 38 70 38 70 45 C 70 47 70 48 70 50 C 70 57 65 62 60 64 C 55 66 55 69 55 71 C 55 73 55 73 55 75 Z M 43 47 C 43 40 43 30 43 22 C 43 18 46 15 50 15 C 54 15 57 18 57 22 C 57 30 57 40 57 47 C 57 51 54 54 50 54 C 46 54 43 51 43 47 Z"></path></svg>