<svg version="1.1" xmlns="http://www.w3.org/2000/svg" viewBox="0 0 100 100"><path stroke="#000000" stroke-width="0" stroke-linejoin="round" stroke-linecap="round" fill="#000000" d="M 82 25 C 70 25 50 25 39 25 C 32 25 21 42 18 46 C 15 50 15 50 18 54 C 21 58 32 75 39 75 C 50 75 70 75 82 75 C 84 75 85 74 85 72 C 85 60 85 40 85 28 C 85 26 84 25 82 25 Z M 84 20 C 87 20 90 23 90 26 C 90 40 90 60 90 74 C 90 77 87 80 84 80 C 70 80 50 80 38 80 C 29 80 19 64 16 60 C 13 56 10 52 10 50 C 10 48 13 44 16 40 C 19 36 29 20 38 20 C 50 20 70 20 84 20 Z"></path></svg>