<svg version="1.1" xmlns="http://www.w3.org/2000/svg" viewBox="0 0 100 100"><path stroke="#000000" stroke-width="0" stroke-linejoin="round" stroke-linecap="round" fill="#000000" d="M 45 55 C 40 55 35 55 30 55 C 32 63 37 68 45 70 C 45 65 45 60 45 55 Z M 55 55 C 55 60 55 65 55 70 C 63 68 68 63 70 55 C 65 55 60 55 55 55 Z M 70 45 C 68 37 63 32 55 30 C 55 35 55 40 55 45 C 60 45 65 45 70 45 Z M 45 30 C 37 32 32 37 30 45 C 35 45 40 45 45 45 C 45 40 45 35 45 30 Z M 20 50 C 20 33 33 20 50 20 C 67 20 80 33 80 50 C 80 67 67 80 50 80 C 33 80 20 67 20 50 Z"></path></svg>