<svg version="1.1" xmlns="http://www.w3.org/2000/svg" viewBox="0 0 100 100"><path stroke="#000000" stroke-width="0" stroke-linejoin="round" stroke-linecap="round" fill="#000000" d="M 37 45 C 37 42 35 40 32 40 C 29 40 27 42 27 45 C 27 48 29 50 32 50 C 35 50 37 48 37 45 Z M 55 45 C 55 42 53 40 50 40 C 47 40 45 42 45 45 C 45 48 47 50 50 50 C 53 50 55 48 55 45 Z M 73 45 C 73 42 71 40 68 40 C 65 40 63 42 63 45 C 63 48 65 50 68 50 C 71 50 73 48 73 45 Z M 63 71 C 59 69 55 70 50 70 C 28 70 10 60 10 45 C 10 30 28 20 50 20 C 72 20 90 30 90 45 C 90 55 85 59 75 65 C 73 66 74 68 75 70 C 76 72 77 74 78 76 C 80 80 80 80 76 78 C 72 76 65 72 63 71 Z"></path></svg>