<svg version="1.1" xmlns="http://www.w3.org/2000/svg" viewBox="0 0 100 100"><path stroke="#000000" stroke-width="0" stroke-linejoin="round" stroke-linecap="round" fill="#000000" d="M 67 72 C 67 73 68 74 69 74 C 70 74 71 73 71 72 C 71 71 70 70 69 70 C 68 70 67 71 67 72 Z M 67 32 C 67 33 68 34 69 34 C 70 34 71 33 71 32 C 71 31 70 30 69 30 C 68 30 67 31 67 32 Z M 59 72 C 59 73 60 74 61 74 C 62 74 63 73 63 72 C 63 71 62 70 61 70 C 60 70 59 71 59 72 Z M 25 77 C 33 77 43 77 51 77 C 52 77 53 76 53 75 C 53 60 53 44 53 29 C 53 28 52 27 51 27 C 43 27 33 27 25 27 C 24 27 23 28 23 29 C 23 44 23 60 23 75 C 23 76 24 77 25 77 Z M 59 32 C 59 33 60 34 61 34 C 62 34 63 33 63 32 C 63 31 62 30 61 30 C 60 30 59 31 59 32 Z M 75 32 C 75 33 76 34 77 34 C 78 34 79 33 79 32 C 79 31 78 30 77 30 C 76 30 75 31 75 32 Z M 75 72 C 75 73 76 74 77 74 C 78 74 79 73 79 72 C 79 71 78 70 77 70 C 76 70 75 71 75 72 Z M 58 27 C 65 27 72 27 77 27 C 80 27 82 29 82 32 C 82 44 82 60 82 72 C 82 75 80 77 77 77 C 72 77 65 77 58 77 C 58 79 55 82 52 82 C 43 82 33 82 24 82 C 21 82 18 79 18 76 C 18 60 18 44 18 28 C 18 25 21 22 24 22 C 25 22 26 22 27 22 C 28 22 28 22 28 21 C 28 19 30 17 33 17 C 36 17 40 17 43 17 C 46 17 48 19 48 21 C 48 22 48 22 49 22 C 50 22 51 22 52 22 C 55 22 58 25 58 27 Z"></path></svg>