<svg version="1.1" xmlns="http://www.w3.org/2000/svg" viewBox="0 0 100 100"><path stroke="#000000" stroke-width="0" stroke-linejoin="round" stroke-linecap="round" fill="#000000" d="M 50 45 C 47 45 45 43 45 40 C 45 35 45 20 45 15 C 45 12 47 10 50 10 C 53 10 55 12 55 15 C 55 20 55 35 55 40 C 55 43 53 45 50 45 Z M 32 26 C 37 23 42 31 38 34 C 34 37 30 43 30 50 C 30 61 39 70 50 70 C 61 70 70 61 70 50 C 70 43 66 37 62 34 C 58 31 63 23 68 26 C 73 29 80 37 80 50 C 80 67 67 80 50 80 C 33 80 20 67 20 50 C 20 37 27 29 32 26 Z"></path></svg>