<svg version="1.1" xmlns="http://www.w3.org/2000/svg" viewBox="0 0 100 100"><path stroke="#000000" stroke-width="0" stroke-linejoin="round" stroke-linecap="round" fill="#000000" d="M 46 70 C 47 72 47 73 46 73 C 45 73 45 73 44 73 C 43 73 43 72 44 70 C 40 70 40 70 41 68 C 42 66 44 62 44 60 C 44 50 44 40 44 33 C 44 32 46 28 47 26 C 48 24 49 22 50 20 C 51 22 52 24 53 26 C 54 28 56 32 56 33 C 56 40 56 50 56 60 C 56 62 58 66 59 68 C 60 70 60 70 56 70 C 57 72 57 73 56 73 C 55 73 55 73 54 73 C 53 73 53 72 54 70 C 54 70 51 70 51 70 C 52 72 52 73 51 73 C 50 73 50 73 49 73 C 48 73 48 72 49 70 C 49 70 46 70 46 70 Z"></path></svg>