<svg version="1.1" xmlns="http://www.w3.org/2000/svg" viewBox="0 0 100 100"><path stroke="#000000" stroke-width="0" stroke-linejoin="round" stroke-linecap="round" fill="#000000" d="M 60 38 C 51 42 49 43 41 47 C 39 48 40 47 40 50 C 40 53 39 52 41 53 C 49 57 51 58 60 62 C 62 63 62 63 63 62 C 64 61 66 60 70 60 C 76 60 80 64 80 70 C 80 76 76 80 70 80 C 64 80 60 76 60 70 C 60 69 60 68 58 67 C 52 64 46 61 40 58 C 38 57 38 57 37 58 C 36 59 34 60 30 60 C 24 60 20 56 20 50 C 20 44 24 40 30 40 C 34 40 36 41 37 42 C 38 43 38 43 40 42 C 46 39 52 36 58 33 C 60 32 60 31 60 30 C 60 24 64 20 70 20 C 76 20 80 24 80 30 C 80 36 76 40 70 40 C 66 40 64 39 63 38 C 62 37 62 37 60 38 Z"></path></svg>