<svg version="1.1" xmlns="http://www.w3.org/2000/svg" viewBox="0 0 100 100"><path stroke="#000000" stroke-width="0" stroke-linejoin="round" stroke-linecap="round" fill="#000000" d="M 73 65 C 74 65 75 64 75 63 C 75 55 75 45 75 37 C 75 36 74 35 73 35 C 58 35 42 35 27 35 C 26 35 25 36 25 37 C 25 45 25 55 25 63 C 25 64 26 65 27 65 C 42 65 58 65 73 65 Z M 49 42 C 55 42 59 42 62 42 C 63 42 64 43 64 44 C 64 48 64 51 64 55 C 64 56 63 57 62 57 C 57 57 51 57 46 57 C 45 57 44 56 44 55 C 44 55 44 54 44 54 C 40 54 34 54 31 54 C 30 54 29 53 29 52 C 29 48 29 45 29 41 C 29 40 30 39 31 39 C 36 39 42 39 47 39 C 48 39 49 40 49 41 C 49 41 49 42 49 42 Z M 40 64 C 38 64 38 61 40 61 C 48 61 52 61 60 61 C 62 61 62 64 60 64 C 52 64 48 64 40 64 Z M 56 72 C 57 74 58 76 59 78 C 60 80 60 80 57 80 C 53 80 47 80 43 80 C 40 80 40 80 41 78 C 42 76 43 74 44 72 C 45 70 45 70 44 70 C 39 70 32 70 26 70 C 23 70 20 67 20 64 C 20 55 20 45 20 36 C 20 33 23 30 26 30 C 42 30 58 30 74 30 C 77 30 80 33 80 36 C 80 45 80 55 80 64 C 80 67 77 70 74 70 C 68 70 61 70 56 70 C 55 70 55 70 56 72 Z M 71 50 C 70 50 70 50 69 50 C 68 50 68 50 68 51 C 68 52 68 52 68 53 C 68 54 68 54 69 54 C 70 54 70 54 71 54 C 72 54 72 54 72 53 C 72 52 72 52 72 51 C 72 50 72 50 71 50 Z M 71 44 C 70 44 70 44 69 44 C 68 44 68 44 68 45 C 68 46 68 46 68 47 C 68 48 68 48 69 48 C 70 48 70 48 71 48 C 72 48 72 48 72 47 C 72 46 72 46 72 45 C 72 44 72 44 71 44 Z M 71 38 C 70 38 70 38 69 38 C 68 38 68 38 68 39 C 68 40 68 40 68 41 C 68 42 68 42 69 42 C 70 42 70 42 71 42 C 72 42 72 42 72 41 C 72 40 72 40 72 39 C 72 38 72 38 71 38 Z"></path></svg>