<svg version="1.1" xmlns="http://www.w3.org/2000/svg" viewBox="0 0 100 100"><path stroke="#000000" stroke-width="0" stroke-linejoin="round" stroke-linecap="round" fill="#000000" d="M 60 25 C 52 25 45 32 45 40 C 45 48 52 55 60 55 C 68 55 75 48 75 40 C 75 32 68 25 60 25 Z M 48 40 C 48 39 49 38 50 38 C 56 38 64 38 70 38 C 71 38 72 39 72 40 C 72 41 71 42 70 42 C 64 42 56 42 50 42 C 49 42 48 41 48 40 Z M 46 61 C 45 62 31 76 29 78 C 27 80 24 80 22 78 C 20 76 20 73 22 71 C 24 69 38 55 39 54 C 42 51 44 53 42 49 C 41 47 40 44 40 40 C 40 29 49 20 60 20 C 71 20 80 29 80 40 C 80 51 71 60 60 60 C 56 60 53 59 51 58 C 47 56 49 58 46 61 Z"></path></svg>