<svg version="1.1" xmlns="http://www.w3.org/2000/svg" viewBox="0 0 100 100"><path stroke="#000000" stroke-width="0" stroke-linejoin="round" stroke-linecap="round" fill="#000000" d="M 33 41 C 32 41 31 42 31 43 C 31 48 31 52 31 57 C 31 58 32 59 33 59 C 38 59 42 59 47 59 C 48 59 49 58 49 57 C 49 52 49 48 49 43 C 49 42 48 41 47 41 C 42 41 38 41 33 41 Z M 53 41 C 52 41 51 42 51 43 C 51 48 51 52 51 57 C 51 58 52 59 53 59 C 58 59 62 59 67 59 C 68 59 69 58 69 57 C 69 52 69 48 69 43 C 69 42 68 41 67 41 C 62 41 58 41 53 41 Z M 20 36 C 30 36 70 36 80 36 C 81 36 81 36 81 37 C 81 38 81 39 81 40 C 81 41 81 41 80 41 C 77 41 75 41 73 41 C 72 41 71 42 71 43 C 71 48 71 52 71 57 C 71 58 72 59 73 59 C 75 59 77 59 80 59 C 81 59 81 59 81 60 C 81 61 81 62 81 63 C 81 64 81 64 80 64 C 70 64 30 64 20 64 C 19 64 19 64 19 63 C 19 62 19 61 19 60 C 19 59 19 59 20 59 C 23 59 25 59 27 59 C 28 59 29 58 29 57 C 29 52 29 48 29 43 C 29 42 28 41 27 41 C 25 41 23 41 20 41 C 19 41 19 41 19 40 C 19 39 19 38 19 37 C 19 36 19 36 20 36 Z M 77 37 C 76 37 76 40 77 40 C 78 40 78 40 79 40 C 80 40 80 37 79 37 C 78 37 78 37 77 37 Z M 73 37 C 72 37 72 40 73 40 C 74 40 74 40 75 40 C 76 40 76 37 75 37 C 74 37 74 37 73 37 Z M 69 37 C 68 37 68 40 69 40 C 70 40 70 40 71 40 C 72 40 72 37 71 37 C 70 37 70 37 69 37 Z M 65 37 C 64 37 64 40 65 40 C 66 40 66 40 67 40 C 68 40 68 37 67 37 C 66 37 66 37 65 37 Z M 61 37 C 60 37 60 40 61 40 C 62 40 62 40 63 40 C 64 40 64 37 63 37 C 62 37 62 37 61 37 Z M 57 37 C 56 37 56 40 57 40 C 58 40 58 40 59 40 C 60 40 60 37 59 37 C 58 37 58 37 57 37 Z M 53 37 C 52 37 52 40 53 40 C 54 40 54 40 55 40 C 56 40 56 37 55 37 C 54 37 54 37 53 37 Z M 49 37 C 48 37 48 40 49 40 C 50 40 50 40 51 40 C 52 40 52 37 51 37 C 50 37 50 37 49 37 Z M 45 37 C 44 37 44 40 45 40 C 46 40 46 40 47 40 C 48 40 48 37 47 37 C 46 37 46 37 45 37 Z M 41 37 C 40 37 40 40 41 40 C 42 40 42 40 43 40 C 44 40 44 37 43 37 C 42 37 42 37 41 37 Z M 37 37 C 36 37 36 40 37 40 C 38 40 38 40 39 40 C 40 40 40 37 39 37 C 38 37 38 37 37 37 Z M 33 37 C 32 37 32 40 33 40 C 34 40 34 40 35 40 C 36 40 36 37 35 37 C 34 37 34 37 33 37 Z M 29 37 C 28 37 28 40 29 40 C 30 40 30 40 31 40 C 32 40 32 37 31 37 C 30 37 30 37 29 37 Z M 25 37 C 24 37 24 40 25 40 C 26 40 26 40 27 40 C 28 40 28 37 27 37 C 26 37 26 37 25 37 Z M 21 37 C 20 37 20 40 21 40 C 22 40 22 40 23 40 C 24 40 24 37 23 37 C 22 37 22 37 21 37 Z M 77 60 C 76 60 76 63 77 63 C 78 63 78 63 79 63 C 80 63 80 60 79 60 C 78 60 78 60 77 60 Z M 73 60 C 72 60 72 63 73 63 C 74 63 74 63 75 63 C 76 63 76 60 75 60 C 74 60 74 60 73 60 Z M 69 60 C 68 60 68 63 69 63 C 70 63 70 63 71 63 C 72 63 72 60 71 60 C 70 60 70 60 69 60 Z M 65 60 C 64 60 64 63 65 63 C 66 63 66 63 67 63 C 68 63 68 60 67 60 C 66 60 66 60 65 60 Z M 61 60 C 60 60 60 63 61 63 C 62 63 62 63 63 63 C 64 63 64 60 63 60 C 62 60 62 60 61 60 Z M 57 60 C 56 60 56 63 57 63 C 58 63 58 63 59 63 C 60 63 60 60 59 60 C 58 60 58 60 57 60 Z M 53 60 C 52 60 52 63 53 63 C 54 63 54 63 55 63 C 56 63 56 60 55 60 C 54 60 54 60 53 60 Z M 49 60 C 48 60 48 63 49 63 C 50 63 50 63 51 63 C 52 63 52 60 51 60 C 50 60 50 60 49 60 Z M 45 60 C 44 60 44 63 45 63 C 46 63 46 63 47 63 C 48 63 48 60 47 60 C 46 60 46 60 45 60 Z M 41 60 C 40 60 40 63 41 63 C 42 63 42 63 43 63 C 44 63 44 60 43 60 C 42 60 42 60 41 60 Z M 37 60 C 36 60 36 63 37 63 C 38 63 38 63 39 63 C 40 63 40 60 39 60 C 38 60 38 60 37 60 Z M 33 60 C 32 60 32 63 33 63 C 34 63 34 63 35 63 C 36 63 36 60 35 60 C 34 60 34 60 33 60 Z M 29 60 C 28 60 28 63 29 63 C 30 63 30 63 31 63 C 32 63 32 60 31 60 C 30 60 30 60 29 60 Z M 25 60 C 24 60 24 63 25 63 C 26 63 26 63 27 63 C 28 63 28 60 27 60 C 26 60 26 60 25 60 Z M 21 60 C 20 60 20 63 21 63 C 22 63 22 63 23 63 C 24 63 24 60 23 60 C 22 60 22 60 21 60 Z"></path></svg>