<svg version="1.1" xmlns="http://www.w3.org/2000/svg" viewBox="0 0 100 100"><path stroke="#000000" stroke-width="0" stroke-linejoin="round" stroke-linecap="round" fill="#000000" d="M 35 71 C 32 71 30 71 27 71 C 24 71 22 69 22 66 C 22 63 24 61 27 61 C 30 61 32 61 35 61 C 35 59 35 57 35 55 C 32 55 30 55 27 55 C 24 55 22 53 22 50 C 22 47 24 45 27 45 C 30 45 32 45 35 45 C 35 43 35 41 35 39 C 32 39 30 39 27 39 C 24 39 22 37 22 34 C 22 31 24 29 27 29 C 30 29 32 29 35 29 C 35 28 35 26 35 25 C 35 22 37 20 40 20 C 47 20 53 20 60 20 C 63 20 65 22 65 25 C 65 26 65 28 65 29 C 68 29 70 29 73 29 C 76 29 78 31 78 34 C 78 37 76 39 73 39 C 70 39 68 39 65 39 C 65 41 65 43 65 45 C 68 45 70 45 73 45 C 76 45 78 47 78 50 C 78 53 76 55 73 55 C 70 55 68 55 65 55 C 65 57 65 59 65 61 C 68 61 70 61 73 61 C 76 61 78 63 78 66 C 78 69 76 71 73 71 C 70 71 68 71 65 71 C 65 72 65 74 65 75 C 65 78 63 80 60 80 C 53 80 47 80 40 80 C 37 80 35 78 35 75 C 35 74 35 72 35 71 Z"></path></svg>