<svg version="1.1" xmlns="http://www.w3.org/2000/svg" viewBox="0 0 100 100"><path stroke="#000000" stroke-width="0" stroke-linejoin="round" stroke-linecap="round" fill="#000000" d="M 85 50 C 82 50 80 48 80 45 C 80 37 80 23 80 15 C 80 12 82 10 85 10 C 88 10 90 12 90 15 C 90 23 90 37 90 45 C 90 48 88 50 85 50 Z M 15 90 C 12 90 10 88 10 85 C 10 77 10 63 10 55 C 10 52 12 50 15 50 C 18 50 20 52 20 55 C 20 63 20 77 20 85 C 20 88 18 90 15 90 Z M 50 45 C 53 45 55 47 55 50 C 55 53 53 55 50 55 C 47 55 45 53 45 50 C 45 47 47 45 50 45 Z"></path></svg>