<svg version="1.1" xmlns="http://www.w3.org/2000/svg" viewBox="0 0 100 100"><path stroke="#000000" stroke-width="0" stroke-linejoin="round" stroke-linecap="round" fill="#000000" d="M 57 34 C 63 34 71 40 71 50 C 71 60 63 66 57 66 C 54 66 54 62 57 62 C 61 62 67 58 67 50 C 67 42 61 38 57 38 C 54 38 54 34 57 34 Z M 56 40 C 60 40 65 44 65 50 C 65 56 60 60 56 60 C 54 60 54 57 56 57 C 59 57 62 54 62 50 C 62 46 59 43 56 43 C 54 43 54 40 56 40 Z M 55 45 C 58 45 60 47 60 50 C 60 53 58 55 55 55 C 54 55 54 53 55 53 C 56 53 58 52 58 50 C 58 48 56 47 55 47 C 54 47 54 45 55 45 Z M 35 59 C 25 57 25 60 25 50 C 25 40 25 43 35 41 C 45 39 45 34 48 34 C 49 34 50 35 50 36 C 50 40 50 60 50 64 C 50 65 49 66 48 66 C 45 66 45 61 35 59 Z"></path></svg>