<svg version="1.1" xmlns="http://www.w3.org/2000/svg" viewBox="0 0 100 100"><path stroke="#000000" stroke-width="0" stroke-linejoin="round" stroke-linecap="round" fill="#000000" d="M 64 69 C 63 68 55 77 54 76 C 53 75 60 67 58 65 C 57 64 53 60 50 57 C 47 60 43 64 42 65 C 40 67 47 75 46 76 C 45 77 37 68 36 69 C 33 72 30 75 28 77 C 26 79 24 80 22 78 C 20 76 21 74 23 72 C 25 70 28 67 31 64 C 32 63 23 55 24 54 C 25 53 33 60 35 58 C 36 57 40 53 43 50 C 38 45 33 40 29 36 C 27 34 20 24 22 22 C 24 20 34 27 36 29 C 40 33 45 38 50 43 C 55 38 60 33 64 29 C 66 27 76 20 78 22 C 80 24 73 34 71 36 C 67 40 62 45 57 50 C 60 53 64 57 65 58 C 67 60 75 53 76 54 C 77 55 68 63 69 64 C 72 67 75 70 77 72 C 79 74 80 76 78 78 C 76 80 74 79 72 77 C 70 75 67 72 64 69 Z"></path></svg>