<svg version="1.1" xmlns="http://www.w3.org/2000/svg" viewBox="0 0 100 100"><path stroke="#000000" stroke-width="0" stroke-linejoin="round" stroke-linecap="round" fill="#000000" d="M 51 23 C 59 40 69 51 80 57 C 70 58 60 57 51 54 C 51 57 51 58 51 60 C 55 60 60 60 70 59 C 80 58 80 58 84 56 C 85 62 68 70 60 70 C 54 70 45 70 40 70 C 32 70 15 62 16 56 C 20 58 20 58 30 59 C 40 60 45 60 49 60 C 49 58 49 57 49 54 C 40 57 30 58 20 57 C 31 51 41 40 49 23 C 49 22 49 22 49 21 C 50 19 50 19 51 21 C 51 22 51 22 51 23 Z"></path></svg>