<svg version="1.1" xmlns="http://www.w3.org/2000/svg" viewBox="0 0 100 100"><path stroke="#111111" stroke-width="0" stroke-linejoin="round" stroke-linecap="round" fill="#000000" d="M 34 20 C 38 20 42 20 46 20 C 48 20 50 22 50 24 C 50 28 50 32 50 36 C 50 38 48 40 46 40 C 42 40 38 40 34 40 C 32 40 30 38 30 36 C 30 32 30 28 30 24 C 30 22 32 20 34 20 Z M 34 40 C 38 40 42 40 46 40 C 48 40 50 42 50 44 C 50 48 50 52 50 56 C 50 58 48 60 46 60 C 42 60 38 60 34 60 C 32 60 30 58 30 56 C 30 52 30 48 30 44 C 30 42 32 40 34 40 Z M 34 60 C 38 60 42 60 46 60 C 48 60 50 62 50 64 C 50 68 50 72 50 76 C 50 78 48 80 46 80 C 42 80 38 80 34 80 C 32 80 30 78 30 76 C 30 72 30 68 30 64 C 30 62 32 60 34 60 Z M 54 60 C 58 60 62 60 66 60 C 68 60 70 62 70 64 C 70 68 70 72 70 76 C 70 78 68 80 66 80 C 62 80 58 80 54 80 C 52 80 50 78 50 76 C 50 72 50 68 50 64 C 50 62 52 60 54 60 Z"></path></svg>