<svg version="1.1" xmlns="http://www.w3.org/2000/svg" viewBox="0 0 100 100"><path stroke="#000000" stroke-width="0" stroke-linejoin="round" stroke-linecap="round" fill="#000000" d="M 55 75 C 55 78 60 78 60 82 C 60 84 59 85 57 85 C 53 85 47 85 43 85 C 41 85 40 84 40 82 C 40 78 45 78 45 75 C 45 73 45 71 45 69 C 45 68 45 67 42 65 C 39 63 30 57 30 46 C 30 44 30 42 30 40 C 30 34 40 34 40 40 C 40 42 40 44 40 46 C 40 52 44 56 50 56 C 56 56 60 52 60 46 C 60 44 60 42 60 40 C 60 34 70 34 70 40 C 70 42 70 44 70 46 C 70 57 61 63 58 65 C 55 67 55 68 55 69 C 55 71 55 73 55 75 Z M 43 47 C 43 40 43 30 43 22 C 43 18 46 15 50 15 C 54 15 57 18 57 22 C 57 30 57 40 57 47 C 57 51 54 54 50 54 C 46 54 43 51 43 47 Z"></path></svg>