<svg version="1.1" xmlns="http://www.w3.org/2000/svg" viewBox="0 0 100 100"><path stroke="#000000" stroke-width="0" stroke-linejoin="round" stroke-linecap="round" fill="#000000" d="M 35 49 C 40 49 60 49 65 49 C 65 35 55 23 41 21 C 33 34 29 41 28 46 C 30 46 33 49 35 49 Z M 28 54 C 29 59 33 66 41 79 C 55 77 65 67 65 51 C 60 51 40 51 35 51 C 33 51 30 54 28 54 Z M 69 49 C 70 49 70 49 71 49 C 71 47 70 45 72 46 C 74 47 76 48 78 49 C 80 50 80 50 78 51 C 76 52 74 53 72 54 C 70 55 71 53 71 51 C 70 51 70 51 69 51 C 68 68 56 80 41 80 C 33 68 28 60 27 54 C 22 54 20 51 22 52 C 25 52 28 48 27 54 C 26 51 26 49 27 46 C 28 52 25 48 22 48 C 20 49 22 46 27 46 C 28 40 33 32 41 20 C 56 20 68 32 69 49 Z"></path></svg>