<svg version="1.1" xmlns="http://www.w3.org/2000/svg" viewBox="0 0 100 100"><path stroke="#000000" stroke-width="0" stroke-linejoin="round" stroke-linecap="round" fill="#000000" d="M 25 50 C 25 64 36 75 50 75 C 64 75 75 64 75 50 C 75 36 64 25 50 25 C 36 25 25 36 25 50 Z M 48 46.498 C 48 42.826 48 31.65 48 30 C 48 29 49 28 50 28 C 51 28 52 29 52 30 C 52 32 52 48 52 50 C 52 51 51 52 50 52 C 49.774 52 49.548 51.949 49.321 51.853 C 49.168 51.758 49.048 51.708 48.937 51.644 C 47.205 50.644 40.277 46.644 38.545 45.644 C 37.679 45.144 37.313 43.778 37.813 42.912 C 38.313 42.046 39.679 41.68 40.545 42.18 C 41.787 42.897 45.701 45.157 48 46.498 Z M 20 50 C 20 33 33 20 50 20 C 67 20 80 33 80 50 C 80 67 67 80 50 80 C 33 80 20 67 20 50 Z"></path></svg>