<svg version="1.1" xmlns="http://www.w3.org/2000/svg" viewBox="0 0 100 100"><path stroke="#000000" stroke-width="0" stroke-linejoin="round" stroke-linecap="round" fill="#000000" d="M 25 50 C 25 64 36 75 50 75 C 64 75 75 64 75 50 C 75 36 64 25 50 25 C 36 25 25 36 25 50 Z M 48 49.398 C 48 47.049 48 31.94 48 30 C 48 29 49 28 50 28 C 51 28 52 29 52 30 C 52 31.951 52 47.218 52 49.507 C 52.044 49.97 51.995 50.462 51.769 50.853 C 51.727 50.925 51.68 51.007 51.518 51.288 C 50.44 53.156 46.727 59.585 45.769 61.245 C 45.269 62.111 43.903 62.477 43.037 61.977 C 42.171 61.477 41.805 60.111 42.305 59.245 C 43.247 57.613 46.853 51.369 48 49.398 Z M 20 50 C 20 33 33 20 50 20 C 67 20 80 33 80 50 C 80 67 67 80 50 80 C 33 80 20 67 20 50 Z"></path></svg>