<svg version="1.1" xmlns="http://www.w3.org/2000/svg" viewBox="0 0 100 100"><path stroke="#000000" stroke-width="0" stroke-linejoin="round" stroke-linecap="round" fill="#000000" d="M 25 50 C 25 64 36 75 50 75 C 64 75 75 64 75 50 C 75 36 64 25 50 25 C 36 25 25 36 25 50 Z M 48 48 C 48 46 48 32 48 30 C 48 29 49 28 50 28 C 51 28 52 29 52 30 C 52 32 52 48 52 50 C 52 51 51 52 50 52 C 48 52 40 52 38 52 C 37 52 36 51 36 50 C 36 49 37 48 38 48 C 40 48 46 48 48 48 Z M 20 50 C 20 33 33 20 50 20 C 67 20 80 33 80 50 C 80 67 67 80 50 80 C 33 80 20 67 20 50 Z"></path></svg>