<svg version="1.1" xmlns="http://www.w3.org/2000/svg" viewBox="0 0 100 100"><path stroke="#000000" stroke-width="0" stroke-linejoin="round" stroke-linecap="round" fill="#000000" d="M 25 50 C 25 64 36 75 50 75 C 64 75 75 64 75 50 C 75 36 64 25 50 25 C 36 25 25 36 25 50 Z M 48 49.598 C 48 47.361 48 31.96 48 30 C 48 29 49 28 50 28 C 51 28 52 29 52 30 C 52 31.931 52 46.908 51.986 49.279 C 53.037 51.185 56.746 57.61 57.704 59.269 C 58.204 60.135 57.838 61.501 56.972 62.001 C 56.106 62.501 54.74 62.135 54.24 61.269 C 53.273 59.594 49.502 53.063 48.439 51.221 C 48.31 50.998 48.273 50.934 48.24 50.877 C 48.03 50.513 47.996 50.07 48 49.598 Z M 20 50 C 20 33 33 20 50 20 C 67 20 80 33 80 50 C 80 67 67 80 50 80 C 33 80 20 67 20 50 Z"></path></svg>