<svg version="1.1" xmlns="http://www.w3.org/2000/svg" viewBox="0 0 100 100"><path stroke="#000000" stroke-width="0" stroke-linejoin="round" stroke-linecap="round" fill="#000000" d="M 25 50 C 25 64 36 75 50 75 C 64 75 75 64 75 50 C 75 36 64 25 50 25 C 36 25 25 36 25 50 Z M 48.396 51.109 C 48.15 50.774 48 50.387 48 50 C 48 48 48 32 48 30 C 48 29 49 28 50 28 C 51 28 52 29 52 30 C 52 31.881 52 46.139 52 48.807 C 54.011 49.947 59.866 53.327 61.438 54.235 C 62.304 54.735 62.67 56.101 62.17 56.967 C 61.67 57.833 60.304 58.199 59.438 57.699 C 57.778 56.74 51.344 53.026 49.477 51.948 C 49.199 51.787 49.118 51.74 49.046 51.699 C 48.794 51.553 48.584 51.334 48.396 51.109 Z M 20 50 C 20 33 33 20 50 20 C 67 20 80 33 80 50 C 80 67 67 80 50 80 C 33 80 20 67 20 50 Z"></path></svg>