<svg version="1.1" xmlns="http://www.w3.org/2000/svg" viewBox="0 0 100 100"><path stroke="#000000" stroke-width="0" stroke-linejoin="round" stroke-linecap="round" fill="#000000" d="M 25 50 C 25 64 36 75 50 75 C 64 75 75 64 75 50 C 75 36 64 25 50 25 C 36 25 25 36 25 50 Z M 51.118 51.645 C 50.769 51.852 50.385 52 50 52 C 49 52 48 51 48 50 C 48 48 48 32 48 30 C 48 29 49 28 50 28 C 51 28 52 29 52 30 C 52 31.651 52 42.837 52 46.507 C 54.287 45.2 58.192 42.946 59.432 42.23 C 60.298 41.73 61.664 42.096 62.164 42.962 C 62.664 43.828 62.298 45.194 61.432 45.694 C 59.714 46.686 52.885 50.629 51.118 51.645 Z M 20 50 C 20 33 33 20 50 20 C 67 20 80 33 80 50 C 80 67 67 80 50 80 C 33 80 20 67 20 50 Z"></path></svg>