<svg version="1.1" xmlns="http://www.w3.org/2000/svg" viewBox="0 0 100 100"><path stroke="#000000" stroke-width="0" stroke-linejoin="round" stroke-linecap="round" fill="#000000" d="M 26 90 C 42 90 58 90 74 90 C 78 90 80 88 80 84 C 80 60 80 40 80 16 C 80 12 78 10 74 10 C 58 10 42 10 26 10 C 22 10 20 12 20 16 C 20 40 20 60 20 84 C 20 88 22 90 26 90 Z M 20 100 C 15 100 10 95 10 90 C 10 63 10 37 10 10 C 10 5 15 0 20 0 C 40 0 60 0 80 0 C 85 0 90 5 90 10 C 90 37 90 63 90 90 C 90 95 85 100 80 100 C 60 100 40 100 20 100 Z"></path></svg>