<svg version="1.1" xmlns="http://www.w3.org/2000/svg" viewBox="0 0 100 100"><path stroke="#000000" stroke-width="0" stroke-linejoin="round" stroke-linecap="round" fill="#000000" d="M 31 5 C 23 13 13 23 5 31 C 5 44 5 56 5 69 C 13 77 23 87 31 95 C 44 95 56 95 69 95 C 77 87 87 77 95 69 C 95 56 95 44 95 31 C 87 23 77 13 69 5 C 56 5 44 5 31 5 Z M 29 0 C 43 0 57 0 71 0 C 80 9 91 20 100 29 C 100 43 100 57 100 71 C 91 80 80 91 71 100 C 57 100 43 100 29 100 C 20 91 9 80 0 71 C 0 57 0 43 0 29 C 9 20 20 9 29 0 Z"></path></svg>