<svg version="1.1" xmlns="http://www.w3.org/2000/svg" viewBox="0 0 100 100"><path stroke="#000000" stroke-width="0" stroke-linejoin="round" stroke-linecap="round" fill="#000000" d="M 11 5 C 8 5 5 8 5 11 C 5 40 5 60 5 89 C 5 92 8 95 11 95 C 40 95 60 95 89 95 C 92 95 95 92 95 89 C 95 60 95 40 95 11 C 95 8 92 5 89 5 C 60 5 40 5 11 5 Z M 10 0 C 37 0 63 0 90 0 C 95 0 100 5 100 10 C 100 37 100 63 100 90 C 100 95 95 100 90 100 C 63 100 37 100 10 100 C 5 100 0 95 0 90 C 0 63 0 37 0 10 C 0 5 5 0 10 0 Z"></path></svg>