<svg version="1.1" xmlns="http://www.w3.org/2000/svg" viewBox="0 0 100 100"><path stroke="#000000" stroke-width="0" stroke-linejoin="round" stroke-linecap="round" fill="#000000" d="M 5 21 C 5 42 5 58 5 79 C 5 82 8 85 11 85 C 40 85 60 85 89 85 C 92 85 95 82 95 79 C 95 58 95 42 95 21 C 95 18 92 15 89 15 C 60 15 40 15 11 15 C 8 15 5 18 5 21 Z M 0 20 C 0 15 5 10 10 10 C 37 10 63 10 90 10 C 95 10 100 15 100 20 C 100 40 100 60 100 80 C 100 85 95 90 90 90 C 63 90 37 90 10 90 C 5 90 0 85 0 80 C 0 60 0 40 0 20 Z"></path></svg>