<svg version="1.1" xmlns="http://www.w3.org/2000/svg" viewBox="0 0 100 100"><path stroke="#000000" stroke-width="0" stroke-linejoin="round" stroke-linecap="round" fill="#000000" d="M 15 10 C 12 10 10 12 10 15 C 10 40 10 60 10 85 C 10 88 12 90 15 90 C 40 90 60 90 85 90 C 88 90 90 88 90 85 C 90 60 90 40 90 15 C 90 12 88 10 85 10 C 60 10 40 10 15 10 Z M 10 0 C 37 0 63 0 90 0 C 95 0 100 5 100 10 C 100 37 100 63 100 90 C 100 95 95 100 90 100 C 63 100 37 100 10 100 C 5 100 0 95 0 90 C 0 63 0 37 0 10 C 0 5 5 0 10 0 Z"></path></svg>