<svg version="1.1" xmlns="http://www.w3.org/2000/svg" viewBox="0 0 100 100"><path stroke="#000000" stroke-width="0" stroke-linejoin="round" stroke-linecap="round" fill="#000000" d="M 88 46 C 76 34 66 24 54 12 C 51 9 49 9 46 12 C 34 24 24 34 12 46 C 9 49 9 51 12 54 C 24 66 34 76 46 88 C 49 91 51 91 54 88 C 66 76 76 66 88 54 C 91 51 91 49 88 46 Z M 98 45 C 101 48 101 52 98 55 C 83 70 70 83 55 98 C 52 101 48 101 45 98 C 30 83 17 70 2 55 C -1 52 -1 48 2 45 C 17 30 30 17 45 2 C 48 -1 52 -1 55 2 C 70 17 83 30 98 45 Z"></path></svg>