<svg version="1.1" xmlns="http://www.w3.org/2000/svg" viewBox="0 0 100 100"><path stroke="#000000" stroke-width="0" stroke-linejoin="round" stroke-linecap="round" fill="#000000" d="M 21 95 C 42 95 58 95 79 95 C 82 95 85 92 85 89 C 85 60 85 40 85 11 C 85 8 82 5 79 5 C 58 5 42 5 21 5 C 18 5 15 8 15 11 C 15 40 15 60 15 89 C 15 92 18 95 21 95 Z M 20 100 C 15 100 10 95 10 90 C 10 63 10 37 10 10 C 10 5 15 0 20 0 C 40 0 60 0 80 0 C 85 0 90 5 90 10 C 90 37 90 63 90 90 C 90 95 85 100 80 100 C 60 100 40 100 20 100 Z"></path></svg>