<svg version="1.1" xmlns="http://www.w3.org/2000/svg" viewBox="0 0 100 100"><path stroke="#000000" stroke-width="0" stroke-linejoin="round" stroke-linecap="round" fill="#000000" d="M 10 26 C 10 42 10 58 10 74 C 10 78 12 80 16 80 C 40 80 60 80 84 80 C 88 80 90 78 90 74 C 90 58 90 42 90 26 C 90 22 88 20 84 20 C 60 20 40 20 16 20 C 12 20 10 22 10 26 Z M 0 20 C 0 15 5 10 10 10 C 37 10 63 10 90 10 C 95 10 100 15 100 20 C 100 40 100 60 100 80 C 100 85 95 90 90 90 C 63 90 37 90 10 90 C 5 90 0 85 0 80 C 0 60 0 40 0 20 Z"></path></svg>