<svg version="1.1" xmlns="http://www.w3.org/2000/svg" viewBox="0 0 100 100"><path stroke="#000000" stroke-width="0" stroke-linejoin="round" stroke-linecap="round" fill="#000000" d="M 7 45 C 3 49 3 51 7 55 C 20 68 32 80 45 93 C 49 97 51 97 55 93 C 68 80 80 68 93 55 C 97 51 97 49 93 45 C 80 32 68 20 55 7 C 51 3 49 3 45 7 C 32 20 20 32 7 45 Z M 2 45 C 17 30 30 17 45 2 C 48 -1 52 -1 55 2 C 70 17 83 30 98 45 C 101 48 101 52 98 55 C 83 70 70 83 55 98 C 52 101 48 101 45 98 C 30 83 17 70 2 55 C -1 52 -1 48 2 45 Z"></path></svg>