<svg version="1.1" xmlns="http://www.w3.org/2000/svg" viewBox="0 0 100 100"><path stroke="#000000" stroke-width="0" stroke-linejoin="round" stroke-linecap="round" fill="#000000" d="M 33 10 C 26 17 17 26 10 33 C 10 45 10 55 10 67 C 17 74 26 83 33 90 C 45 90 55 90 67 90 C 74 83 83 74 90 67 C 90 55 90 45 90 33 C 83 26 74 17 67 10 C 55 10 45 10 33 10 Z M 29 0 C 43 0 57 0 71 0 C 80 9 91 20 100 29 C 100 43 100 57 100 71 C 91 80 80 91 71 100 C 57 100 43 100 29 100 C 20 91 9 80 0 71 C 0 57 0 43 0 29 C 9 20 20 9 29 0 Z"></path></svg>