<svg version="1.1" xmlns="http://www.w3.org/2000/svg" viewBox="0 0 100 100"><path stroke="#000000" stroke-width="0" stroke-linejoin="round" stroke-linecap="round" fill="#000000" d="M 21.5 21.5 C 18 30 14 40 10 50 C 14 60 18 70 21.5 78.5 C 30 82 40 86 50 90 C 60 86 70 82 78.5 78.5 C 82 70 86 60 90 50 C 86 40 82 30 78.5 21.5 C 70 18 60 14 50 10 C 40 14 30 18 21.5 21.5 Z M 14.5 14.5 C 26 10 38 5 50 0 C 62 5 74 10 85.5 14.5 C 90 26 95 38 100 50 C 95 62 90 74 85.5 85.5 C 74 90 62 95 50 100 C 38 95 26 90 15.5 85.5 C 10 73 5 62 0 50 C 5 38 10 26 14.5 14.5 Z"></path></svg>